M48
; DRILL file {KiCad (6.0.2)} date Sat Oct 15 15:33:46 2022
; FORMAT={-:-/ absolute / inch / decimal}
; #@! TF.CreationDate,2022-10-15T15:33:46-07:00
; #@! TF.GenerationSoftware,Kicad,Pcbnew,(6.0.2)
; #@! TF.FileFunction,Plated,1,2,PTH
FMAT,2
INCH
; #@! TA.AperFunction,Plated,PTH,ComponentDrill
T1C0.0315
; #@! TA.AperFunction,Plated,PTH,ComponentDrill
T2C0.0354
; #@! TA.AperFunction,Plated,PTH,ComponentDrill
T3C0.0394
; #@! TA.AperFunction,Plated,PTH,ComponentDrill
T4C0.0433
%
G90
G05
T1
X3.8794Y-3.1304
X3.8794Y-3.2304
X3.8794Y-3.3304
X3.8794Y-3.4304
X3.9034Y-4.4
X3.9708Y-2.44
X3.9808Y-3.67
X4.0019Y-4.4
X4.0692Y-2.44
X4.0792Y-3.67
X4.17Y-4.25
X4.17Y-4.55
X4.1794Y-3.1304
X4.1794Y-3.2304
X4.1794Y-3.3304
X4.1794Y-3.4304
X4.7326Y-5.49
X4.831Y-5.49
X5.5226Y-5.49
X5.621Y-5.49
X6.3426Y-5.49
X6.441Y-5.49
X6.9926Y-5.49
X7.091Y-5.49
T2
X3.9702Y-3.98
X4.0702Y-3.98
T3
X4.17Y-4.85
X4.17Y-4.95
X4.17Y-5.05
X4.17Y-5.15
X4.17Y-5.25
X4.17Y-5.35
X4.3292Y-2.2502
X4.3292Y-2.3502
X4.3292Y-2.4502
X4.3292Y-2.5502
X4.3292Y-2.6502
X4.3292Y-2.7502
X4.3292Y-2.8502
X4.3292Y-2.9502
X4.3292Y-3.0502
X4.3292Y-3.1502
X4.3292Y-3.2502
X4.3292Y-3.3502
X4.3292Y-3.4502
X4.3292Y-3.5502
X4.3292Y-3.6502
X4.3292Y-3.7502
X4.3292Y-3.8502
X4.3292Y-3.9502
X4.3292Y-4.0502
X4.3292Y-4.1502
X4.3292Y-4.2502
X4.3292Y-4.3502
X4.3292Y-4.4502
X4.3292Y-4.5502
X4.3292Y-4.6502
X4.3292Y-4.7502
X4.3292Y-4.8502
X4.3292Y-4.9502
X4.3292Y-5.0502
X4.3292Y-5.1502
X4.3292Y-5.2502
X4.3292Y-5.3502
X4.4292Y-2.2502
X4.4292Y-2.3502
X4.4292Y-2.4502
X4.4292Y-2.5502
X4.4292Y-2.6502
X4.4292Y-2.7502
X4.4292Y-2.8502
X4.4292Y-2.9502
X4.4292Y-3.0502
X4.4292Y-3.1502
X4.4292Y-3.2502
X4.4292Y-3.3502
X4.4292Y-3.4502
X4.4292Y-3.5502
X4.4292Y-3.6502
X4.4292Y-3.7502
X4.4292Y-3.8502
X4.4292Y-3.9502
X4.4292Y-4.0502
X4.4292Y-4.1502
X4.4292Y-4.2502
X4.4292Y-4.3502
X4.4292Y-4.4502
X4.4292Y-4.5502
X4.4292Y-4.6502
X4.4292Y-4.7502
X4.4292Y-4.8502
X4.4292Y-4.9502
X4.4292Y-5.0502
X4.4292Y-5.1502
X4.4292Y-5.2502
X4.4292Y-5.3502
X5.1315Y-2.2502
X5.1315Y-2.3502
X5.1315Y-2.4502
X5.1315Y-2.5502
X5.1315Y-2.6502
X5.1315Y-2.7502
X5.1315Y-2.8502
X5.1315Y-2.9502
X5.1315Y-3.0502
X5.1315Y-3.1502
X5.1315Y-3.2502
X5.1315Y-3.3502
X5.1315Y-3.4502
X5.1315Y-3.5502
X5.1315Y-3.6502
X5.1315Y-3.7502
X5.1315Y-3.8502
X5.1315Y-3.9502
X5.1315Y-4.0502
X5.1315Y-4.1502
X5.1315Y-4.2502
X5.1315Y-4.3502
X5.1315Y-4.4502
X5.1315Y-4.5502
X5.1315Y-4.6502
X5.1315Y-4.7502
X5.1315Y-4.8502
X5.1315Y-4.9502
X5.1315Y-5.0502
X5.1315Y-5.1502
X5.1315Y-5.2502
X5.1315Y-5.3502
X5.2315Y-2.2502
X5.2315Y-2.3502
X5.2315Y-2.4502
X5.2315Y-2.5502
X5.2315Y-2.6502
X5.2315Y-2.7502
X5.2315Y-2.8502
X5.2315Y-2.9502
X5.2315Y-3.0502
X5.2315Y-3.1502
X5.2315Y-3.2502
X5.2315Y-3.3502
X5.2315Y-3.4502
X5.2315Y-3.5502
X5.2315Y-3.6502
X5.2315Y-3.7502
X5.2315Y-3.8502
X5.2315Y-3.9502
X5.2315Y-4.0502
X5.2315Y-4.1502
X5.2315Y-4.2502
X5.2315Y-4.3502
X5.2315Y-4.4502
X5.2315Y-4.5502
X5.2315Y-4.6502
X5.2315Y-4.7502
X5.2315Y-4.8502
X5.2315Y-4.9502
X5.2315Y-5.0502
X5.2315Y-5.1502
X5.2315Y-5.2502
X5.2315Y-5.3502
X5.9337Y-2.2502
X5.9337Y-2.3502
X5.9337Y-2.4502
X5.9337Y-2.5502
X5.9337Y-2.6502
X5.9337Y-2.7502
X5.9337Y-2.8502
X5.9337Y-2.9502
X5.9337Y-3.0502
X5.9337Y-3.1502
X5.9337Y-3.2502
X5.9337Y-3.3502
X5.9337Y-3.4502
X5.9337Y-3.5502
X5.9337Y-3.6502
X5.9337Y-3.7502
X5.9337Y-3.8502
X5.9337Y-3.9502
X5.9337Y-4.0502
X5.9337Y-4.1502
X5.9337Y-4.2502
X5.9337Y-4.3502
X5.9337Y-4.4502
X5.9337Y-4.5502
X5.9337Y-4.6502
X5.9337Y-4.7502
X5.9337Y-4.8502
X5.9337Y-4.9502
X5.9337Y-5.0502
X5.9337Y-5.1502
X5.9337Y-5.2502
X5.9337Y-5.3502
X6.0337Y-2.2502
X6.0337Y-2.3502
X6.0337Y-2.4502
X6.0337Y-2.5502
X6.0337Y-2.6502
X6.0337Y-2.7502
X6.0337Y-2.8502
X6.0337Y-2.9502
X6.0337Y-3.0502
X6.0337Y-3.1502
X6.0337Y-3.2502
X6.0337Y-3.3502
X6.0337Y-3.4502
X6.0337Y-3.5502
X6.0337Y-3.6502
X6.0337Y-3.7502
X6.0337Y-3.8502
X6.0337Y-3.9502
X6.0337Y-4.0502
X6.0337Y-4.1502
X6.0337Y-4.2502
X6.0337Y-4.3502
X6.0337Y-4.4502
X6.0337Y-4.5502
X6.0337Y-4.6502
X6.0337Y-4.7502
X6.0337Y-4.8502
X6.0337Y-4.9502
X6.0337Y-5.0502
X6.0337Y-5.1502
X6.0337Y-5.2502
X6.0337Y-5.3502
X6.736Y-2.2502
X6.736Y-2.3502
X6.736Y-2.4502
X6.736Y-2.5502
X6.736Y-2.6502
X6.736Y-2.7502
X6.736Y-2.8502
X6.736Y-2.9502
X6.736Y-3.0502
X6.736Y-3.1502
X6.736Y-3.2502
X6.736Y-3.3502
X6.736Y-3.4502
X6.736Y-3.5502
X6.736Y-3.6502
X6.736Y-3.7502
X6.736Y-3.8502
X6.736Y-3.9502
X6.736Y-4.0502
X6.736Y-4.1502
X6.736Y-4.2502
X6.736Y-4.3502
X6.736Y-4.4502
X6.736Y-4.5502
X6.736Y-4.6502
X6.736Y-4.7502
X6.736Y-4.8502
X6.736Y-4.9502
X6.736Y-5.0502
X6.736Y-5.1502
X6.736Y-5.2502
X6.736Y-5.3502
X6.836Y-2.2502
X6.836Y-2.3502
X6.836Y-2.4502
X6.836Y-2.5502
X6.836Y-2.6502
X6.836Y-2.7502
X6.836Y-2.8502
X6.836Y-2.9502
X6.836Y-3.0502
X6.836Y-3.1502
X6.836Y-3.2502
X6.836Y-3.3502
X6.836Y-3.4502
X6.836Y-3.5502
X6.836Y-3.6502
X6.836Y-3.7502
X6.836Y-3.8502
X6.836Y-3.9502
X6.836Y-4.0502
X6.836Y-4.1502
X6.836Y-4.2502
X6.836Y-4.3502
X6.836Y-4.4502
X6.836Y-4.5502
X6.836Y-4.6502
X6.836Y-4.7502
X6.836Y-4.8502
X6.836Y-4.9502
X6.836Y-5.0502
X6.836Y-5.1502
X6.836Y-5.2502
X6.836Y-5.3502
X7.2285Y-2.2502
X7.2285Y-2.3502
X7.2285Y-2.4502
X7.2285Y-2.5502
X7.2285Y-2.6502
X7.2285Y-2.7502
X7.2285Y-2.8502
X7.2285Y-2.9502
X7.2285Y-3.0502
X7.2285Y-3.1502
X7.2285Y-3.2502
X7.2285Y-3.3502
X7.2285Y-3.4502
X7.2285Y-3.5502
X7.2285Y-3.6502
X7.2285Y-3.7502
X7.2285Y-3.8502
X7.2285Y-3.9502
X7.2285Y-4.0502
X7.2285Y-4.1502
X7.2285Y-4.2502
X7.2285Y-4.3502
X7.2285Y-4.4502
X7.2285Y-4.5502
X7.2285Y-4.6502
X7.2285Y-4.7502
X7.2285Y-4.8502
X7.2285Y-4.9502
X7.2285Y-5.0502
X7.2285Y-5.1502
X7.2285Y-5.2502
X7.2285Y-5.3502
X7.3285Y-2.2502
X7.3285Y-2.3502
X7.3285Y-2.4502
X7.3285Y-2.5502
X7.3285Y-2.6502
X7.3285Y-2.7502
X7.3285Y-2.8502
X7.3285Y-2.9502
X7.3285Y-3.0502
X7.3285Y-3.1502
X7.3285Y-3.2502
X7.3285Y-3.3502
X7.3285Y-3.4502
X7.3285Y-3.5502
X7.3285Y-3.6502
X7.3285Y-3.7502
X7.3285Y-3.8502
X7.3285Y-3.9502
X7.3285Y-4.0502
X7.3285Y-4.1502
X7.3285Y-4.2502
X7.3285Y-4.3502
X7.3285Y-4.4502
X7.3285Y-4.5502
X7.3285Y-4.6502
X7.3285Y-4.7502
X7.3285Y-4.8502
X7.3285Y-4.9502
X7.3285Y-5.0502
X7.3285Y-5.1502
X7.3285Y-5.2502
X7.3285Y-5.3502
T4
X3.93Y-2.6241
X3.93Y-2.88
X4.1072Y-2.6241
X4.1072Y-2.88
T0
M30
