G04 #@! TF.GenerationSoftware,KiCad,Pcbnew,(6.0.2)*
G04 #@! TF.CreationDate,2022-10-17T08:50:39-07:00*
G04 #@! TF.ProjectId,Protoboard PLCC,50726f74-6f62-46f6-9172-6420504c4343,1.0*
G04 #@! TF.SameCoordinates,Original*
G04 #@! TF.FileFunction,Soldermask,Bot*
G04 #@! TF.FilePolarity,Negative*
%FSLAX46Y46*%
G04 Gerber Fmt 4.6, Leading zero omitted, Abs format (unit mm)*
G04 Created by KiCad (PCBNEW (6.0.2)) date 2022-10-17 08:50:39*
%MOMM*%
%LPD*%
G01*
G04 APERTURE LIST*
%ADD10C,1.524000*%
%ADD11C,3.200000*%
%ADD12R,1.700000X1.700000*%
%ADD13O,1.700000X1.700000*%
%ADD14R,1.422400X1.422400*%
%ADD15C,1.422400*%
G04 APERTURE END LIST*
D10*
X176022000Y-107948000D03*
X178562000Y-107948000D03*
X181102000Y-107948000D03*
X183642000Y-107948000D03*
X186182000Y-107948000D03*
X176022000Y-110488000D03*
X178562000Y-110488000D03*
X181102000Y-110488000D03*
X183642000Y-110488000D03*
X186182000Y-110488000D03*
X176022000Y-92710000D03*
X178562000Y-92710000D03*
X181102000Y-92710000D03*
X183642000Y-92710000D03*
X186182000Y-92710000D03*
X176022000Y-95250000D03*
X178562000Y-95250000D03*
X181102000Y-95250000D03*
X183642000Y-95250000D03*
X186182000Y-95250000D03*
X176022000Y-97788000D03*
X178562000Y-97788000D03*
X181102000Y-97788000D03*
X183642000Y-97788000D03*
X186182000Y-97788000D03*
X176022000Y-100328000D03*
X178562000Y-100328000D03*
X181102000Y-100328000D03*
X183642000Y-100328000D03*
X186182000Y-100328000D03*
X176022000Y-118108000D03*
X178562000Y-118108000D03*
X181102000Y-118108000D03*
X183642000Y-118108000D03*
X186182000Y-118108000D03*
X176022000Y-120648000D03*
X178562000Y-120648000D03*
X181102000Y-120648000D03*
X183642000Y-120648000D03*
X186182000Y-120648000D03*
X176022000Y-123188000D03*
X178562000Y-123188000D03*
X181102000Y-123188000D03*
X183642000Y-123188000D03*
X186182000Y-123188000D03*
X176022000Y-125728000D03*
X178562000Y-125728000D03*
X181102000Y-125728000D03*
X183642000Y-125728000D03*
X186182000Y-125728000D03*
X176022000Y-102868000D03*
X178562000Y-102868000D03*
X181102000Y-102868000D03*
X183642000Y-102868000D03*
X186182000Y-102868000D03*
X176022000Y-105408000D03*
X178562000Y-105408000D03*
X181102000Y-105408000D03*
X183642000Y-105408000D03*
X186182000Y-105408000D03*
X176022000Y-128270000D03*
X178562000Y-128270000D03*
X181102000Y-128270000D03*
X183642000Y-128270000D03*
X186182000Y-128270000D03*
X176022000Y-130810000D03*
X178562000Y-130810000D03*
X181102000Y-130810000D03*
X183642000Y-130810000D03*
X186182000Y-130810000D03*
X176022000Y-133350000D03*
X178562000Y-133350000D03*
X181102000Y-133350000D03*
X183642000Y-133350000D03*
X186182000Y-133350000D03*
X176022000Y-135890000D03*
X178562000Y-135890000D03*
X181102000Y-135890000D03*
X183642000Y-135890000D03*
X186182000Y-135890000D03*
X176022000Y-113030000D03*
X178562000Y-113030000D03*
X181102000Y-113030000D03*
X183642000Y-113030000D03*
X186182000Y-113030000D03*
X176022000Y-115570000D03*
X178562000Y-115570000D03*
X181102000Y-115570000D03*
X183642000Y-115570000D03*
X186182000Y-115570000D03*
X158242000Y-135890000D03*
X155702000Y-135890000D03*
X170942000Y-110488000D03*
X168402000Y-110488000D03*
X165862000Y-110488000D03*
X163322000Y-110488000D03*
X160782000Y-110488000D03*
X170942000Y-107948000D03*
X168402000Y-107948000D03*
X165862000Y-107948000D03*
X163322000Y-107948000D03*
X160782000Y-107948000D03*
X170942000Y-100328000D03*
X168402000Y-100328000D03*
X165862000Y-100328000D03*
X163322000Y-100328000D03*
X160782000Y-100328000D03*
X170942000Y-97788000D03*
X168402000Y-97788000D03*
X165862000Y-97788000D03*
X163322000Y-97788000D03*
X160782000Y-97788000D03*
X170942000Y-120648000D03*
X168402000Y-120648000D03*
X165862000Y-120648000D03*
X163322000Y-120648000D03*
X160782000Y-120648000D03*
X170942000Y-118108000D03*
X168402000Y-118108000D03*
X165862000Y-118108000D03*
X163322000Y-118108000D03*
X160782000Y-118108000D03*
X170942000Y-125728000D03*
X168402000Y-125728000D03*
X165862000Y-125728000D03*
X163322000Y-125728000D03*
X160782000Y-125728000D03*
X170942000Y-123188000D03*
X168402000Y-123188000D03*
X165862000Y-123188000D03*
X163322000Y-123188000D03*
X160782000Y-123188000D03*
X170942000Y-95250000D03*
X168402000Y-95250000D03*
X165862000Y-95250000D03*
X163322000Y-95250000D03*
X160782000Y-95250000D03*
X170942000Y-92710000D03*
X168402000Y-92710000D03*
X165862000Y-92710000D03*
X163322000Y-92710000D03*
X160782000Y-92710000D03*
X170942000Y-105408000D03*
X168402000Y-105408000D03*
X165862000Y-105408000D03*
X163322000Y-105408000D03*
X160782000Y-105408000D03*
X170942000Y-102868000D03*
X168402000Y-102868000D03*
X165862000Y-102868000D03*
X163322000Y-102868000D03*
X160782000Y-102868000D03*
X170942000Y-130810000D03*
X168402000Y-130810000D03*
X165862000Y-130810000D03*
X163322000Y-130810000D03*
X160782000Y-130810000D03*
X170942000Y-128270000D03*
X168402000Y-128270000D03*
X165862000Y-128270000D03*
X163322000Y-128270000D03*
X160782000Y-128270000D03*
X170942000Y-135890000D03*
X168402000Y-135890000D03*
X165862000Y-135890000D03*
X163322000Y-135890000D03*
X160782000Y-135890000D03*
X170942000Y-133350000D03*
X168402000Y-133350000D03*
X165862000Y-133350000D03*
X163322000Y-133350000D03*
X160782000Y-133350000D03*
X170942000Y-115570000D03*
X168402000Y-115570000D03*
X165862000Y-115570000D03*
X163322000Y-115570000D03*
X160782000Y-115570000D03*
X170942000Y-113030000D03*
X168402000Y-113030000D03*
X165862000Y-113030000D03*
X163322000Y-113030000D03*
X160782000Y-113030000D03*
X127762000Y-133350000D03*
X130302000Y-133350000D03*
X132842000Y-133350000D03*
X135382000Y-133350000D03*
X137922000Y-133350000D03*
X127762000Y-135890000D03*
X130302000Y-135890000D03*
X132842000Y-135890000D03*
X135382000Y-135890000D03*
X137922000Y-135890000D03*
X127762000Y-77472000D03*
X130302000Y-77472000D03*
X132842000Y-77472000D03*
X135382000Y-77472000D03*
X137922000Y-77472000D03*
X127762000Y-80012000D03*
X130302000Y-80012000D03*
X132842000Y-80012000D03*
X135382000Y-80012000D03*
X137922000Y-80012000D03*
X127762000Y-67310000D03*
X130302000Y-67310000D03*
X132842000Y-67310000D03*
X135382000Y-67310000D03*
X137922000Y-67310000D03*
X127762000Y-69850000D03*
X130302000Y-69850000D03*
X132842000Y-69850000D03*
X135382000Y-69850000D03*
X137922000Y-69850000D03*
X127762000Y-72390000D03*
X130302000Y-72390000D03*
X132842000Y-72390000D03*
X135382000Y-72390000D03*
X137922000Y-72390000D03*
X127762000Y-74930000D03*
X130302000Y-74930000D03*
X132842000Y-74930000D03*
X135382000Y-74930000D03*
X137922000Y-74930000D03*
X137922000Y-64770000D03*
X135382000Y-64770000D03*
X132842000Y-64770000D03*
X130302000Y-64770000D03*
X127762000Y-64770000D03*
X137922000Y-62230000D03*
X135382000Y-62230000D03*
X132842000Y-62230000D03*
X130302000Y-62230000D03*
X127762000Y-62230000D03*
X127762000Y-82550000D03*
X130302000Y-82550000D03*
X132842000Y-82550000D03*
X135382000Y-82550000D03*
X137922000Y-82550000D03*
X127762000Y-85090000D03*
X130302000Y-85090000D03*
X132842000Y-85090000D03*
X135382000Y-85090000D03*
X137922000Y-85090000D03*
X127762000Y-107948000D03*
X130302000Y-107948000D03*
X132842000Y-107948000D03*
X135382000Y-107948000D03*
X137922000Y-107948000D03*
X127762000Y-110488000D03*
X130302000Y-110488000D03*
X132842000Y-110488000D03*
X135382000Y-110488000D03*
X137922000Y-110488000D03*
X127762000Y-97788000D03*
X130302000Y-97788000D03*
X132842000Y-97788000D03*
X135382000Y-97788000D03*
X137922000Y-97788000D03*
X127762000Y-100328000D03*
X130302000Y-100328000D03*
X132842000Y-100328000D03*
X135382000Y-100328000D03*
X137922000Y-100328000D03*
X127762000Y-118108000D03*
X130302000Y-118108000D03*
X132842000Y-118108000D03*
X135382000Y-118108000D03*
X137922000Y-118108000D03*
X127762000Y-120648000D03*
X130302000Y-120648000D03*
X132842000Y-120648000D03*
X135382000Y-120648000D03*
X137922000Y-120648000D03*
X127762000Y-123188000D03*
X130302000Y-123188000D03*
X132842000Y-123188000D03*
X135382000Y-123188000D03*
X137922000Y-123188000D03*
X127762000Y-125728000D03*
X130302000Y-125728000D03*
X132842000Y-125728000D03*
X135382000Y-125728000D03*
X137922000Y-125728000D03*
X127762000Y-92710000D03*
X130302000Y-92710000D03*
X132842000Y-92710000D03*
X135382000Y-92710000D03*
X137922000Y-92710000D03*
X127762000Y-95250000D03*
X130302000Y-95250000D03*
X132842000Y-95250000D03*
X135382000Y-95250000D03*
X137922000Y-95250000D03*
X127762000Y-87630000D03*
X130302000Y-87630000D03*
X132842000Y-87630000D03*
X135382000Y-87630000D03*
X137922000Y-87630000D03*
X127762000Y-90170000D03*
X130302000Y-90170000D03*
X132842000Y-90170000D03*
X135382000Y-90170000D03*
X137922000Y-90170000D03*
X127762000Y-102868000D03*
X130302000Y-102868000D03*
X132842000Y-102868000D03*
X135382000Y-102868000D03*
X137922000Y-102868000D03*
X127762000Y-105408000D03*
X130302000Y-105408000D03*
X132842000Y-105408000D03*
X135382000Y-105408000D03*
X137922000Y-105408000D03*
X127762000Y-128270000D03*
X130302000Y-128270000D03*
X132842000Y-128270000D03*
X135382000Y-128270000D03*
X137922000Y-128270000D03*
X127762000Y-130810000D03*
X130302000Y-130810000D03*
X132842000Y-130810000D03*
X135382000Y-130810000D03*
X137922000Y-130810000D03*
X127762000Y-113030000D03*
X130302000Y-113030000D03*
X132842000Y-113030000D03*
X135382000Y-113030000D03*
X137922000Y-113030000D03*
X127762000Y-115570000D03*
X130302000Y-115570000D03*
X132842000Y-115570000D03*
X135382000Y-115570000D03*
X137922000Y-115570000D03*
X127762000Y-57152000D03*
X130302000Y-57152000D03*
X132842000Y-57152000D03*
X135382000Y-57152000D03*
X137922000Y-57152000D03*
X127762000Y-59692000D03*
X130302000Y-59692000D03*
X132842000Y-59692000D03*
X135382000Y-59692000D03*
X137922000Y-59692000D03*
X143002000Y-128270000D03*
X145542000Y-128270000D03*
X148082000Y-128270000D03*
X150622000Y-128270000D03*
X153162000Y-128270000D03*
X143002000Y-130810000D03*
X145542000Y-130810000D03*
X148082000Y-130810000D03*
X150622000Y-130810000D03*
X153162000Y-130810000D03*
X143002000Y-133350000D03*
X145542000Y-133350000D03*
X148082000Y-133350000D03*
X150622000Y-133350000D03*
X153162000Y-133350000D03*
X143002000Y-135890000D03*
X145542000Y-135890000D03*
X148082000Y-135890000D03*
X150622000Y-135890000D03*
X153162000Y-135890000D03*
X143002000Y-113030000D03*
X145542000Y-113030000D03*
X148082000Y-113030000D03*
X150622000Y-113030000D03*
X153162000Y-113030000D03*
X143002000Y-115570000D03*
X145542000Y-115570000D03*
X148082000Y-115570000D03*
X150622000Y-115570000D03*
X153162000Y-115570000D03*
X143002000Y-102868000D03*
X145542000Y-102868000D03*
X148082000Y-102868000D03*
X150622000Y-102868000D03*
X153162000Y-102868000D03*
X143002000Y-105408000D03*
X145542000Y-105408000D03*
X148082000Y-105408000D03*
X150622000Y-105408000D03*
X153162000Y-105408000D03*
X143002000Y-107948000D03*
X145542000Y-107948000D03*
X148082000Y-107948000D03*
X150622000Y-107948000D03*
X153162000Y-107948000D03*
X143002000Y-110488000D03*
X145542000Y-110488000D03*
X148082000Y-110488000D03*
X150622000Y-110488000D03*
X153162000Y-110488000D03*
X143002000Y-97788000D03*
X145542000Y-97788000D03*
X148082000Y-97788000D03*
X150622000Y-97788000D03*
X153162000Y-97788000D03*
X143002000Y-100328000D03*
X145542000Y-100328000D03*
X148082000Y-100328000D03*
X150622000Y-100328000D03*
X153162000Y-100328000D03*
X143002000Y-118108000D03*
X145542000Y-118108000D03*
X148082000Y-118108000D03*
X150622000Y-118108000D03*
X153162000Y-118108000D03*
X143002000Y-120648000D03*
X145542000Y-120648000D03*
X148082000Y-120648000D03*
X150622000Y-120648000D03*
X153162000Y-120648000D03*
X143002000Y-123188000D03*
X145542000Y-123188000D03*
X148082000Y-123188000D03*
X150622000Y-123188000D03*
X153162000Y-123188000D03*
X143002000Y-125728000D03*
X145542000Y-125728000D03*
X148082000Y-125728000D03*
X150622000Y-125728000D03*
X153162000Y-125728000D03*
X143002000Y-92710000D03*
X145542000Y-92710000D03*
X148082000Y-92710000D03*
X150622000Y-92710000D03*
X153162000Y-92710000D03*
X143002000Y-95250000D03*
X145542000Y-95250000D03*
X148082000Y-95250000D03*
X150622000Y-95250000D03*
X153162000Y-95250000D03*
X143002000Y-87630000D03*
X145542000Y-87630000D03*
X148082000Y-87630000D03*
X150622000Y-87630000D03*
X153162000Y-87630000D03*
X143002000Y-90170000D03*
X145542000Y-90170000D03*
X148082000Y-90170000D03*
X150622000Y-90170000D03*
X153162000Y-90170000D03*
X143002000Y-82550000D03*
X145542000Y-82550000D03*
X148082000Y-82550000D03*
X150622000Y-82550000D03*
X153162000Y-82550000D03*
X143002000Y-85090000D03*
X145542000Y-85090000D03*
X148082000Y-85090000D03*
X150622000Y-85090000D03*
X153162000Y-85090000D03*
X143002000Y-77472000D03*
X145542000Y-77472000D03*
X148082000Y-77472000D03*
X150622000Y-77472000D03*
X153162000Y-77472000D03*
X143002000Y-80012000D03*
X145542000Y-80012000D03*
X148082000Y-80012000D03*
X150622000Y-80012000D03*
X153162000Y-80012000D03*
X143002000Y-72390000D03*
X145542000Y-72390000D03*
X148082000Y-72390000D03*
X150622000Y-72390000D03*
X153162000Y-72390000D03*
X143002000Y-74930000D03*
X145542000Y-74930000D03*
X148082000Y-74930000D03*
X150622000Y-74930000D03*
X153162000Y-74930000D03*
X143002000Y-67310000D03*
X145542000Y-67310000D03*
X148082000Y-67310000D03*
X150622000Y-67310000D03*
X153162000Y-67310000D03*
X143002000Y-69850000D03*
X145542000Y-69850000D03*
X148082000Y-69850000D03*
X150622000Y-69850000D03*
X153162000Y-69850000D03*
X143002000Y-62230000D03*
X145542000Y-62230000D03*
X148082000Y-62230000D03*
X150622000Y-62230000D03*
X153162000Y-62230000D03*
X143002000Y-64770000D03*
X145542000Y-64770000D03*
X148082000Y-64770000D03*
X150622000Y-64770000D03*
X153162000Y-64770000D03*
X125222000Y-95250000D03*
X125222000Y-97790000D03*
X125222000Y-100330000D03*
X125222000Y-102870000D03*
X125222000Y-105410000D03*
X122682000Y-95250000D03*
X122682000Y-97790000D03*
X122682000Y-100330000D03*
X122682000Y-102870000D03*
X122682000Y-105410000D03*
X125222000Y-82550000D03*
X125222000Y-85090000D03*
X125222000Y-87630000D03*
X125222000Y-90170000D03*
X125222000Y-92710000D03*
X122682000Y-82550000D03*
X122682000Y-85090000D03*
X122682000Y-87630000D03*
X122682000Y-90170000D03*
X122682000Y-92710000D03*
X125222000Y-69850000D03*
X125222000Y-72390000D03*
X125222000Y-74930000D03*
X125222000Y-77470000D03*
X125222000Y-80010000D03*
X125222000Y-57150000D03*
X125222000Y-59690000D03*
X125222000Y-62230000D03*
X125222000Y-64770000D03*
X125222000Y-67310000D03*
X122682000Y-69850000D03*
X122682000Y-72390000D03*
X122682000Y-74930000D03*
X122682000Y-77470000D03*
X122682000Y-80010000D03*
X122682000Y-57150000D03*
X122682000Y-59690000D03*
X122682000Y-62230000D03*
X122682000Y-64770000D03*
X122682000Y-67310000D03*
X191260000Y-135890000D03*
X188720000Y-135890000D03*
X191260000Y-133352000D03*
X188720000Y-133352000D03*
X191260000Y-130812000D03*
X188720000Y-130812000D03*
X158242000Y-118110000D03*
X158242000Y-120650000D03*
X158242000Y-123190000D03*
X158242000Y-125730000D03*
X158242000Y-128270000D03*
X155702000Y-118110000D03*
X155702000Y-120650000D03*
X155702000Y-123190000D03*
X155702000Y-125730000D03*
X155702000Y-128270000D03*
D11*
X192532000Y-50419000D03*
X192532000Y-142621000D03*
X106172000Y-50419000D03*
X106172000Y-142621000D03*
D12*
X112522000Y-135890000D03*
D13*
X115062000Y-135890000D03*
X112522000Y-133350000D03*
X115062000Y-133350000D03*
X112522000Y-130810000D03*
X115062000Y-130810000D03*
X112522000Y-128270000D03*
X115062000Y-128270000D03*
X112522000Y-125730000D03*
X115062000Y-125730000D03*
X112522000Y-123190000D03*
X115062000Y-123190000D03*
X112522000Y-120650000D03*
X115062000Y-120650000D03*
X112522000Y-118110000D03*
X115062000Y-118110000D03*
X112522000Y-115570000D03*
X115062000Y-115570000D03*
X112522000Y-113030000D03*
X115062000Y-113030000D03*
X112522000Y-110490000D03*
X115062000Y-110490000D03*
X112522000Y-107950000D03*
X115062000Y-107950000D03*
X112522000Y-105410000D03*
X115062000Y-105410000D03*
X112522000Y-102870000D03*
X115062000Y-102870000D03*
X112522000Y-100330000D03*
X115062000Y-100330000D03*
X112522000Y-97790000D03*
X115062000Y-97790000D03*
X112522000Y-95250000D03*
X115062000Y-95250000D03*
X112522000Y-92710000D03*
X115062000Y-92710000D03*
X112522000Y-90170000D03*
X115062000Y-90170000D03*
X112522000Y-87630000D03*
X115062000Y-87630000D03*
X112522000Y-85090000D03*
X115062000Y-85090000D03*
X112522000Y-82550000D03*
X115062000Y-82550000D03*
X112522000Y-80010000D03*
X115062000Y-80010000D03*
X112522000Y-77470000D03*
X115062000Y-77470000D03*
X112522000Y-74930000D03*
X115062000Y-74930000D03*
X112522000Y-72390000D03*
X115062000Y-72390000D03*
X112522000Y-69850000D03*
X115062000Y-69850000D03*
X112522000Y-67310000D03*
X115062000Y-67310000D03*
X112522000Y-64770000D03*
X115062000Y-64770000D03*
X112522000Y-62230000D03*
X115062000Y-62230000D03*
X112522000Y-59690000D03*
X115062000Y-59690000D03*
X112522000Y-57150000D03*
X115062000Y-57150000D03*
D12*
X162052000Y-54320000D03*
D13*
X164592000Y-54320000D03*
X167132000Y-54320000D03*
X169672000Y-54320000D03*
X172212000Y-54320000D03*
X174752000Y-54320000D03*
X177292000Y-54320000D03*
X179832000Y-54320000D03*
X182372000Y-54320000D03*
X184912000Y-54320000D03*
X187452000Y-54320000D03*
D12*
X158496000Y-83530000D03*
D13*
X158496000Y-80990000D03*
X158496000Y-78450000D03*
X158496000Y-75910000D03*
X158496000Y-73370000D03*
X158496000Y-70830000D03*
X158496000Y-68290000D03*
X158496000Y-65750000D03*
X158496000Y-63210000D03*
X158496000Y-60670000D03*
X158496000Y-58130000D03*
D12*
X191008000Y-58166000D03*
D13*
X191008000Y-60706000D03*
X191008000Y-63246000D03*
X191008000Y-65786000D03*
X191008000Y-68326000D03*
X191008000Y-70866000D03*
X191008000Y-73406000D03*
X191008000Y-75946000D03*
X191008000Y-78486000D03*
X191008000Y-81026000D03*
X191008000Y-83566000D03*
D10*
X143002000Y-57152000D03*
X145542000Y-57152000D03*
X148082000Y-57152000D03*
X150622000Y-57152000D03*
X153162000Y-57152000D03*
X143002000Y-59692000D03*
X145542000Y-59692000D03*
X148082000Y-59692000D03*
X150622000Y-59692000D03*
X153162000Y-59692000D03*
X158242000Y-105410000D03*
X158242000Y-107950000D03*
X158242000Y-110490000D03*
X158242000Y-113030000D03*
X158242000Y-115570000D03*
X155702000Y-105410000D03*
X155702000Y-107950000D03*
X155702000Y-110490000D03*
X155702000Y-113030000D03*
X155702000Y-115570000D03*
X188722000Y-102870000D03*
X188722000Y-100330000D03*
X188722000Y-97790000D03*
X188722000Y-95250000D03*
X188722000Y-92710000D03*
X191262000Y-102870000D03*
X191262000Y-100330000D03*
X191262000Y-97790000D03*
X191262000Y-95250000D03*
X191262000Y-92710000D03*
X155704000Y-102870000D03*
X155704000Y-100330000D03*
X155704000Y-97790000D03*
X155704000Y-95250000D03*
X155704000Y-92710000D03*
X158244000Y-102870000D03*
X158244000Y-100330000D03*
X158244000Y-97790000D03*
X158244000Y-95250000D03*
X158244000Y-92710000D03*
X122682000Y-118110000D03*
X122682000Y-115570000D03*
X122682000Y-113030000D03*
X122682000Y-110490000D03*
X122682000Y-107950000D03*
X125222000Y-118110000D03*
X125222000Y-115570000D03*
X125222000Y-113030000D03*
X125222000Y-110490000D03*
X125222000Y-107950000D03*
D12*
X103160000Y-135895000D03*
D13*
X100620000Y-135895000D03*
X103160000Y-133355000D03*
X100620000Y-133355000D03*
X103160000Y-130815000D03*
X100620000Y-130815000D03*
X103160000Y-128275000D03*
X100620000Y-128275000D03*
X103160000Y-125735000D03*
X100620000Y-125735000D03*
X103160000Y-123195000D03*
X100620000Y-123195000D03*
X103160000Y-120655000D03*
X100620000Y-120655000D03*
X103160000Y-118115000D03*
X100620000Y-118115000D03*
X103160000Y-115575000D03*
X100620000Y-115575000D03*
X103160000Y-113035000D03*
X100620000Y-113035000D03*
X103160000Y-110495000D03*
X100620000Y-110495000D03*
X103160000Y-107955000D03*
X100620000Y-107955000D03*
X103160000Y-105415000D03*
X100620000Y-105415000D03*
X103160000Y-102875000D03*
X100620000Y-102875000D03*
X103160000Y-100335000D03*
X100620000Y-100335000D03*
X103160000Y-97795000D03*
X100620000Y-97795000D03*
X103160000Y-95255000D03*
X100620000Y-95255000D03*
X103160000Y-92715000D03*
X100620000Y-92715000D03*
X103160000Y-90175000D03*
X100620000Y-90175000D03*
X103160000Y-87635000D03*
X100620000Y-87635000D03*
X103160000Y-85095000D03*
X100620000Y-85095000D03*
X103160000Y-82555000D03*
X100620000Y-82555000D03*
X103160000Y-80015000D03*
X100620000Y-80015000D03*
X103160000Y-77475000D03*
X100620000Y-77475000D03*
X103160000Y-74935000D03*
X100620000Y-74935000D03*
X103160000Y-72395000D03*
X100620000Y-72395000D03*
X103160000Y-69855000D03*
X100620000Y-69855000D03*
X103160000Y-67315000D03*
X100620000Y-67315000D03*
X103160000Y-64775000D03*
X100620000Y-64775000D03*
X103160000Y-62235000D03*
X100620000Y-62235000D03*
X103160000Y-59695000D03*
X100620000Y-59695000D03*
X103160000Y-57155000D03*
X100620000Y-57155000D03*
D10*
X155702000Y-130810000D03*
X158242000Y-130810000D03*
X155702000Y-133350000D03*
X158242000Y-133350000D03*
X122682000Y-135890000D03*
X125222000Y-135890000D03*
X122682000Y-133350000D03*
X125222000Y-133350000D03*
X188720000Y-115570000D03*
X188720000Y-113030000D03*
X188720000Y-110490000D03*
X188720000Y-107950000D03*
X188720000Y-105410000D03*
X191260000Y-115570000D03*
X191260000Y-113030000D03*
X191260000Y-110490000D03*
X191260000Y-107950000D03*
X191260000Y-105410000D03*
X188720000Y-128270000D03*
X188720000Y-125730000D03*
X188720000Y-123190000D03*
X188720000Y-120650000D03*
X188720000Y-118110000D03*
X191260000Y-128270000D03*
X191260000Y-125730000D03*
X191260000Y-123190000D03*
X191260000Y-120650000D03*
X191260000Y-118110000D03*
D12*
X187452000Y-87340000D03*
D13*
X184912000Y-87340000D03*
X182372000Y-87340000D03*
X179832000Y-87340000D03*
X177292000Y-87340000D03*
X174752000Y-87340000D03*
X172212000Y-87340000D03*
X169672000Y-87340000D03*
X167132000Y-87340000D03*
X164592000Y-87340000D03*
X162052000Y-87340000D03*
D10*
X122682000Y-130810000D03*
X122682000Y-128270000D03*
X122682000Y-125730000D03*
X122682000Y-123190000D03*
X122682000Y-120650000D03*
X125222000Y-130810000D03*
X125222000Y-128270000D03*
X125222000Y-125730000D03*
X125222000Y-123190000D03*
X125222000Y-120650000D03*
D14*
X176022000Y-64516000D03*
D15*
X173482000Y-61976000D03*
X173482000Y-64516000D03*
X170942000Y-61976000D03*
X170942000Y-64516000D03*
X168402000Y-61976000D03*
X165862000Y-64516000D03*
X168402000Y-64516000D03*
X165862000Y-67056000D03*
X168402000Y-67056000D03*
X165862000Y-69596000D03*
X168402000Y-69596000D03*
X165862000Y-72136000D03*
X168402000Y-72136000D03*
X165862000Y-74676000D03*
X168402000Y-74676000D03*
X165862000Y-77216000D03*
X168402000Y-79756000D03*
X168402000Y-77216000D03*
X170942000Y-79756000D03*
X170942000Y-77216000D03*
X173482000Y-79756000D03*
X173482000Y-77216000D03*
X176022000Y-79756000D03*
X176022000Y-77216000D03*
X178562000Y-79756000D03*
X178562000Y-77216000D03*
X181102000Y-79756000D03*
X183642000Y-77216000D03*
X181102000Y-77216000D03*
X183642000Y-74676000D03*
X181102000Y-74676000D03*
X183642000Y-72136000D03*
X181102000Y-72136000D03*
X183642000Y-69596000D03*
X181102000Y-69596000D03*
X183642000Y-67056000D03*
X181102000Y-67056000D03*
X183642000Y-64516000D03*
X181102000Y-61976000D03*
X181102000Y-64516000D03*
X178562000Y-61976000D03*
X178562000Y-64516000D03*
X176022000Y-61976000D03*
M02*
