M48
; DRILL file {KiCad (6.0.2)} date Mon Oct 17 08:50:43 2022
; FORMAT={-:-/ absolute / inch / decimal}
; #@! TF.CreationDate,2022-10-17T08:50:43-07:00
; #@! TF.GenerationSoftware,Kicad,Pcbnew,(6.0.2)
; #@! TF.FileFunction,Plated,1,2,PTH
FMAT,2
INCH
; #@! TA.AperFunction,Plated,PTH,ComponentDrill
T1C0.0300
; #@! TA.AperFunction,Plated,PTH,ComponentDrill
T2C0.0315
; #@! TA.AperFunction,Plated,PTH,ComponentDrill
T3C0.0394
%
G90
G05
T1
X4.83Y-2.25
X4.83Y-2.35
X4.83Y-2.45
X4.83Y-2.55
X4.83Y-2.65
X4.83Y-2.75
X4.83Y-2.85
X4.83Y-2.95
X4.83Y-3.05
X4.83Y-3.15
X4.83Y-3.25
X4.83Y-3.35
X4.83Y-3.45
X4.83Y-3.55
X4.83Y-3.65
X4.83Y-3.75
X4.83Y-3.85
X4.83Y-3.95
X4.83Y-4.05
X4.83Y-4.15
X4.83Y-4.25
X4.83Y-4.35
X4.83Y-4.45
X4.83Y-4.55
X4.83Y-4.65
X4.83Y-4.75
X4.83Y-4.85
X4.83Y-4.95
X4.83Y-5.05
X4.83Y-5.15
X4.83Y-5.25
X4.83Y-5.35
X4.93Y-2.25
X4.93Y-2.35
X4.93Y-2.45
X4.93Y-2.55
X4.93Y-2.65
X4.93Y-2.75
X4.93Y-2.85
X4.93Y-2.95
X4.93Y-3.05
X4.93Y-3.15
X4.93Y-3.25
X4.93Y-3.35
X4.93Y-3.45
X4.93Y-3.55
X4.93Y-3.65
X4.93Y-3.75
X4.93Y-3.85
X4.93Y-3.95
X4.93Y-4.05
X4.93Y-4.15
X4.93Y-4.25
X4.93Y-4.35
X4.93Y-4.45
X4.93Y-4.55
X4.93Y-4.65
X4.93Y-4.75
X4.93Y-4.85
X4.93Y-4.95
X4.93Y-5.05
X4.93Y-5.15
X4.93Y-5.25
X4.93Y-5.35
X5.03Y-2.2501
X5.03Y-2.3501
X5.03Y-2.45
X5.03Y-2.55
X5.03Y-2.65
X5.03Y-2.75
X5.03Y-2.85
X5.03Y-2.95
X5.03Y-3.0501
X5.03Y-3.1501
X5.03Y-3.25
X5.03Y-3.35
X5.03Y-3.45
X5.03Y-3.55
X5.03Y-3.65
X5.03Y-3.75
X5.03Y-3.8499
X5.03Y-3.9499
X5.03Y-4.0499
X5.03Y-4.1499
X5.03Y-4.2499
X5.03Y-4.3499
X5.03Y-4.45
X5.03Y-4.55
X5.03Y-4.6499
X5.03Y-4.7499
X5.03Y-4.8499
X5.03Y-4.9499
X5.03Y-5.05
X5.03Y-5.15
X5.03Y-5.25
X5.03Y-5.35
X5.13Y-2.2501
X5.13Y-2.3501
X5.13Y-2.45
X5.13Y-2.55
X5.13Y-2.65
X5.13Y-2.75
X5.13Y-2.85
X5.13Y-2.95
X5.13Y-3.0501
X5.13Y-3.1501
X5.13Y-3.25
X5.13Y-3.35
X5.13Y-3.45
X5.13Y-3.55
X5.13Y-3.65
X5.13Y-3.75
X5.13Y-3.8499
X5.13Y-3.9499
X5.13Y-4.0499
X5.13Y-4.1499
X5.13Y-4.2499
X5.13Y-4.3499
X5.13Y-4.45
X5.13Y-4.55
X5.13Y-4.6499
X5.13Y-4.7499
X5.13Y-4.8499
X5.13Y-4.9499
X5.13Y-5.05
X5.13Y-5.15
X5.13Y-5.25
X5.13Y-5.35
X5.23Y-2.2501
X5.23Y-2.3501
X5.23Y-2.45
X5.23Y-2.55
X5.23Y-2.65
X5.23Y-2.75
X5.23Y-2.85
X5.23Y-2.95
X5.23Y-3.0501
X5.23Y-3.1501
X5.23Y-3.25
X5.23Y-3.35
X5.23Y-3.45
X5.23Y-3.55
X5.23Y-3.65
X5.23Y-3.75
X5.23Y-3.8499
X5.23Y-3.9499
X5.23Y-4.0499
X5.23Y-4.1499
X5.23Y-4.2499
X5.23Y-4.3499
X5.23Y-4.45
X5.23Y-4.55
X5.23Y-4.6499
X5.23Y-4.7499
X5.23Y-4.8499
X5.23Y-4.9499
X5.23Y-5.05
X5.23Y-5.15
X5.23Y-5.25
X5.23Y-5.35
X5.33Y-2.2501
X5.33Y-2.3501
X5.33Y-2.45
X5.33Y-2.55
X5.33Y-2.65
X5.33Y-2.75
X5.33Y-2.85
X5.33Y-2.95
X5.33Y-3.0501
X5.33Y-3.1501
X5.33Y-3.25
X5.33Y-3.35
X5.33Y-3.45
X5.33Y-3.55
X5.33Y-3.65
X5.33Y-3.75
X5.33Y-3.8499
X5.33Y-3.9499
X5.33Y-4.0499
X5.33Y-4.1499
X5.33Y-4.2499
X5.33Y-4.3499
X5.33Y-4.45
X5.33Y-4.55
X5.33Y-4.6499
X5.33Y-4.7499
X5.33Y-4.8499
X5.33Y-4.9499
X5.33Y-5.05
X5.33Y-5.15
X5.33Y-5.25
X5.33Y-5.35
X5.43Y-2.2501
X5.43Y-2.3501
X5.43Y-2.45
X5.43Y-2.55
X5.43Y-2.65
X5.43Y-2.75
X5.43Y-2.85
X5.43Y-2.95
X5.43Y-3.0501
X5.43Y-3.1501
X5.43Y-3.25
X5.43Y-3.35
X5.43Y-3.45
X5.43Y-3.55
X5.43Y-3.65
X5.43Y-3.75
X5.43Y-3.8499
X5.43Y-3.9499
X5.43Y-4.0499
X5.43Y-4.1499
X5.43Y-4.2499
X5.43Y-4.3499
X5.43Y-4.45
X5.43Y-4.55
X5.43Y-4.6499
X5.43Y-4.7499
X5.43Y-4.8499
X5.43Y-4.9499
X5.43Y-5.05
X5.43Y-5.15
X5.43Y-5.25
X5.43Y-5.35
X5.63Y-2.2501
X5.63Y-2.3501
X5.63Y-2.45
X5.63Y-2.55
X5.63Y-2.65
X5.63Y-2.75
X5.63Y-2.85
X5.63Y-2.95
X5.63Y-3.0501
X5.63Y-3.1501
X5.63Y-3.25
X5.63Y-3.35
X5.63Y-3.45
X5.63Y-3.55
X5.63Y-3.65
X5.63Y-3.75
X5.63Y-3.8499
X5.63Y-3.9499
X5.63Y-4.0499
X5.63Y-4.1499
X5.63Y-4.2499
X5.63Y-4.3499
X5.63Y-4.45
X5.63Y-4.55
X5.63Y-4.6499
X5.63Y-4.7499
X5.63Y-4.8499
X5.63Y-4.9499
X5.63Y-5.05
X5.63Y-5.15
X5.63Y-5.25
X5.63Y-5.35
X5.73Y-2.2501
X5.73Y-2.3501
X5.73Y-2.45
X5.73Y-2.55
X5.73Y-2.65
X5.73Y-2.75
X5.73Y-2.85
X5.73Y-2.95
X5.73Y-3.0501
X5.73Y-3.1501
X5.73Y-3.25
X5.73Y-3.35
X5.73Y-3.45
X5.73Y-3.55
X5.73Y-3.65
X5.73Y-3.75
X5.73Y-3.8499
X5.73Y-3.9499
X5.73Y-4.0499
X5.73Y-4.1499
X5.73Y-4.2499
X5.73Y-4.3499
X5.73Y-4.45
X5.73Y-4.55
X5.73Y-4.6499
X5.73Y-4.7499
X5.73Y-4.8499
X5.73Y-4.9499
X5.73Y-5.05
X5.73Y-5.15
X5.73Y-5.25
X5.73Y-5.35
X5.83Y-2.2501
X5.83Y-2.3501
X5.83Y-2.45
X5.83Y-2.55
X5.83Y-2.65
X5.83Y-2.75
X5.83Y-2.85
X5.83Y-2.95
X5.83Y-3.0501
X5.83Y-3.1501
X5.83Y-3.25
X5.83Y-3.35
X5.83Y-3.45
X5.83Y-3.55
X5.83Y-3.65
X5.83Y-3.75
X5.83Y-3.8499
X5.83Y-3.9499
X5.83Y-4.0499
X5.83Y-4.1499
X5.83Y-4.2499
X5.83Y-4.3499
X5.83Y-4.45
X5.83Y-4.55
X5.83Y-4.6499
X5.83Y-4.7499
X5.83Y-4.8499
X5.83Y-4.9499
X5.83Y-5.05
X5.83Y-5.15
X5.83Y-5.25
X5.83Y-5.35
X5.93Y-2.2501
X5.93Y-2.3501
X5.93Y-2.45
X5.93Y-2.55
X5.93Y-2.65
X5.93Y-2.75
X5.93Y-2.85
X5.93Y-2.95
X5.93Y-3.0501
X5.93Y-3.1501
X5.93Y-3.25
X5.93Y-3.35
X5.93Y-3.45
X5.93Y-3.55
X5.93Y-3.65
X5.93Y-3.75
X5.93Y-3.8499
X5.93Y-3.9499
X5.93Y-4.0499
X5.93Y-4.1499
X5.93Y-4.2499
X5.93Y-4.3499
X5.93Y-4.45
X5.93Y-4.55
X5.93Y-4.6499
X5.93Y-4.7499
X5.93Y-4.8499
X5.93Y-4.9499
X5.93Y-5.05
X5.93Y-5.15
X5.93Y-5.25
X5.93Y-5.35
X6.03Y-2.2501
X6.03Y-2.3501
X6.03Y-2.45
X6.03Y-2.55
X6.03Y-2.65
X6.03Y-2.75
X6.03Y-2.85
X6.03Y-2.95
X6.03Y-3.0501
X6.03Y-3.1501
X6.03Y-3.25
X6.03Y-3.35
X6.03Y-3.45
X6.03Y-3.55
X6.03Y-3.65
X6.03Y-3.75
X6.03Y-3.8499
X6.03Y-3.9499
X6.03Y-4.0499
X6.03Y-4.1499
X6.03Y-4.2499
X6.03Y-4.3499
X6.03Y-4.45
X6.03Y-4.55
X6.03Y-4.6499
X6.03Y-4.7499
X6.03Y-4.8499
X6.03Y-4.9499
X6.03Y-5.05
X6.03Y-5.15
X6.03Y-5.25
X6.03Y-5.35
X6.13Y-4.15
X6.13Y-4.25
X6.13Y-4.35
X6.13Y-4.45
X6.13Y-4.55
X6.13Y-4.65
X6.13Y-4.75
X6.13Y-4.85
X6.13Y-4.95
X6.13Y-5.05
X6.13Y-5.15
X6.13Y-5.25
X6.13Y-5.35
X6.1301Y-3.65
X6.1301Y-3.75
X6.1301Y-3.85
X6.1301Y-3.95
X6.1301Y-4.05
X6.23Y-4.15
X6.23Y-4.25
X6.23Y-4.35
X6.23Y-4.45
X6.23Y-4.55
X6.23Y-4.65
X6.23Y-4.75
X6.23Y-4.85
X6.23Y-4.95
X6.23Y-5.05
X6.23Y-5.15
X6.23Y-5.25
X6.23Y-5.35
X6.2301Y-3.65
X6.2301Y-3.75
X6.2301Y-3.85
X6.2301Y-3.95
X6.2301Y-4.05
X6.33Y-3.65
X6.33Y-3.75
X6.33Y-3.8499
X6.33Y-3.9499
X6.33Y-4.0499
X6.33Y-4.1499
X6.33Y-4.2499
X6.33Y-4.3499
X6.33Y-4.45
X6.33Y-4.55
X6.33Y-4.6499
X6.33Y-4.7499
X6.33Y-4.8499
X6.33Y-4.9499
X6.33Y-5.05
X6.33Y-5.15
X6.33Y-5.25
X6.33Y-5.35
X6.43Y-3.65
X6.43Y-3.75
X6.43Y-3.8499
X6.43Y-3.9499
X6.43Y-4.0499
X6.43Y-4.1499
X6.43Y-4.2499
X6.43Y-4.3499
X6.43Y-4.45
X6.43Y-4.55
X6.43Y-4.6499
X6.43Y-4.7499
X6.43Y-4.8499
X6.43Y-4.9499
X6.43Y-5.05
X6.43Y-5.15
X6.43Y-5.25
X6.43Y-5.35
X6.53Y-3.65
X6.53Y-3.75
X6.53Y-3.8499
X6.53Y-3.9499
X6.53Y-4.0499
X6.53Y-4.1499
X6.53Y-4.2499
X6.53Y-4.3499
X6.53Y-4.45
X6.53Y-4.55
X6.53Y-4.6499
X6.53Y-4.7499
X6.53Y-4.8499
X6.53Y-4.9499
X6.53Y-5.05
X6.53Y-5.15
X6.53Y-5.25
X6.53Y-5.35
X6.63Y-3.65
X6.63Y-3.75
X6.63Y-3.8499
X6.63Y-3.9499
X6.63Y-4.0499
X6.63Y-4.1499
X6.63Y-4.2499
X6.63Y-4.3499
X6.63Y-4.45
X6.63Y-4.55
X6.63Y-4.6499
X6.63Y-4.7499
X6.63Y-4.8499
X6.63Y-4.9499
X6.63Y-5.05
X6.63Y-5.15
X6.63Y-5.25
X6.63Y-5.35
X6.73Y-3.65
X6.73Y-3.75
X6.73Y-3.8499
X6.73Y-3.9499
X6.73Y-4.0499
X6.73Y-4.1499
X6.73Y-4.2499
X6.73Y-4.3499
X6.73Y-4.45
X6.73Y-4.55
X6.73Y-4.6499
X6.73Y-4.7499
X6.73Y-4.8499
X6.73Y-4.9499
X6.73Y-5.05
X6.73Y-5.15
X6.73Y-5.25
X6.73Y-5.35
X6.93Y-3.65
X6.93Y-3.75
X6.93Y-3.8499
X6.93Y-3.9499
X6.93Y-4.0499
X6.93Y-4.1499
X6.93Y-4.2499
X6.93Y-4.3499
X6.93Y-4.45
X6.93Y-4.55
X6.93Y-4.6499
X6.93Y-4.7499
X6.93Y-4.8499
X6.93Y-4.9499
X6.93Y-5.05
X6.93Y-5.15
X6.93Y-5.25
X6.93Y-5.35
X7.03Y-3.65
X7.03Y-3.75
X7.03Y-3.8499
X7.03Y-3.9499
X7.03Y-4.0499
X7.03Y-4.1499
X7.03Y-4.2499
X7.03Y-4.3499
X7.03Y-4.45
X7.03Y-4.55
X7.03Y-4.6499
X7.03Y-4.7499
X7.03Y-4.8499
X7.03Y-4.9499
X7.03Y-5.05
X7.03Y-5.15
X7.03Y-5.25
X7.03Y-5.35
X7.13Y-3.65
X7.13Y-3.75
X7.13Y-3.8499
X7.13Y-3.9499
X7.13Y-4.0499
X7.13Y-4.1499
X7.13Y-4.2499
X7.13Y-4.3499
X7.13Y-4.45
X7.13Y-4.55
X7.13Y-4.6499
X7.13Y-4.7499
X7.13Y-4.8499
X7.13Y-4.9499
X7.13Y-5.05
X7.13Y-5.15
X7.13Y-5.25
X7.13Y-5.35
X7.23Y-3.65
X7.23Y-3.75
X7.23Y-3.8499
X7.23Y-3.9499
X7.23Y-4.0499
X7.23Y-4.1499
X7.23Y-4.2499
X7.23Y-4.3499
X7.23Y-4.45
X7.23Y-4.55
X7.23Y-4.6499
X7.23Y-4.7499
X7.23Y-4.8499
X7.23Y-4.9499
X7.23Y-5.05
X7.23Y-5.15
X7.23Y-5.25
X7.23Y-5.35
X7.33Y-3.65
X7.33Y-3.75
X7.33Y-3.8499
X7.33Y-3.9499
X7.33Y-4.0499
X7.33Y-4.1499
X7.33Y-4.2499
X7.33Y-4.3499
X7.33Y-4.45
X7.33Y-4.55
X7.33Y-4.6499
X7.33Y-4.7499
X7.33Y-4.8499
X7.33Y-4.9499
X7.33Y-5.05
X7.33Y-5.15
X7.33Y-5.25
X7.33Y-5.35
X7.4299Y-4.15
X7.4299Y-4.25
X7.4299Y-4.35
X7.4299Y-4.45
X7.4299Y-4.55
X7.4299Y-4.65
X7.4299Y-4.75
X7.4299Y-4.85
X7.4299Y-4.95
X7.4299Y-5.05
X7.4299Y-5.1501
X7.4299Y-5.2501
X7.4299Y-5.35
X7.43Y-3.65
X7.43Y-3.75
X7.43Y-3.85
X7.43Y-3.95
X7.43Y-4.05
X7.5299Y-4.15
X7.5299Y-4.25
X7.5299Y-4.35
X7.5299Y-4.45
X7.5299Y-4.55
X7.5299Y-4.65
X7.5299Y-4.75
X7.5299Y-4.85
X7.5299Y-4.95
X7.5299Y-5.05
X7.5299Y-5.1501
X7.5299Y-5.2501
X7.5299Y-5.35
X7.53Y-3.65
X7.53Y-3.75
X7.53Y-3.85
X7.53Y-3.95
X7.53Y-4.05
T2
X6.53Y-2.54
X6.53Y-2.64
X6.53Y-2.74
X6.53Y-2.84
X6.53Y-2.94
X6.53Y-3.04
X6.63Y-2.44
X6.63Y-2.54
X6.63Y-2.64
X6.63Y-2.74
X6.63Y-2.84
X6.63Y-2.94
X6.63Y-3.04
X6.63Y-3.14
X6.73Y-2.44
X6.73Y-2.54
X6.73Y-3.04
X6.73Y-3.14
X6.83Y-2.44
X6.83Y-2.54
X6.83Y-3.04
X6.83Y-3.14
X6.93Y-2.44
X6.93Y-2.54
X6.93Y-3.04
X6.93Y-3.14
X7.03Y-2.44
X7.03Y-2.54
X7.03Y-3.04
X7.03Y-3.14
X7.13Y-2.44
X7.13Y-2.54
X7.13Y-2.64
X7.13Y-2.74
X7.13Y-2.84
X7.13Y-2.94
X7.13Y-3.04
X7.13Y-3.14
X7.23Y-2.54
X7.23Y-2.64
X7.23Y-2.74
X7.23Y-2.84
X7.23Y-2.94
X7.23Y-3.04
T3
X3.9614Y-2.2502
X3.9614Y-2.3502
X3.9614Y-2.4502
X3.9614Y-2.5502
X3.9614Y-2.6502
X3.9614Y-2.7502
X3.9614Y-2.8502
X3.9614Y-2.9502
X3.9614Y-3.0502
X3.9614Y-3.1502
X3.9614Y-3.2502
X3.9614Y-3.3502
X3.9614Y-3.4502
X3.9614Y-3.5502
X3.9614Y-3.6502
X3.9614Y-3.7502
X3.9614Y-3.8502
X3.9614Y-3.9502
X3.9614Y-4.0502
X3.9614Y-4.1502
X3.9614Y-4.2502
X3.9614Y-4.3502
X3.9614Y-4.4502
X3.9614Y-4.5502
X3.9614Y-4.6502
X3.9614Y-4.7502
X3.9614Y-4.8502
X3.9614Y-4.9502
X3.9614Y-5.0502
X3.9614Y-5.1502
X3.9614Y-5.2502
X3.9614Y-5.3502
X4.0614Y-2.2502
X4.0614Y-2.3502
X4.0614Y-2.4502
X4.0614Y-2.5502
X4.0614Y-2.6502
X4.0614Y-2.7502
X4.0614Y-2.8502
X4.0614Y-2.9502
X4.0614Y-3.0502
X4.0614Y-3.1502
X4.0614Y-3.2502
X4.0614Y-3.3502
X4.0614Y-3.4502
X4.0614Y-3.5502
X4.0614Y-3.6502
X4.0614Y-3.7502
X4.0614Y-3.8502
X4.0614Y-3.9502
X4.0614Y-4.0502
X4.0614Y-4.1502
X4.0614Y-4.2502
X4.0614Y-4.3502
X4.0614Y-4.4502
X4.0614Y-4.5502
X4.0614Y-4.6502
X4.0614Y-4.7502
X4.0614Y-4.8502
X4.0614Y-4.9502
X4.0614Y-5.0502
X4.0614Y-5.1502
X4.0614Y-5.2502
X4.0614Y-5.3502
X4.43Y-2.25
X4.43Y-2.35
X4.43Y-2.45
X4.43Y-2.55
X4.43Y-2.65
X4.43Y-2.75
X4.43Y-2.85
X4.43Y-2.95
X4.43Y-3.05
X4.43Y-3.15
X4.43Y-3.25
X4.43Y-3.35
X4.43Y-3.45
X4.43Y-3.55
X4.43Y-3.65
X4.43Y-3.75
X4.43Y-3.85
X4.43Y-3.95
X4.43Y-4.05
X4.43Y-4.15
X4.43Y-4.25
X4.43Y-4.35
X4.43Y-4.45
X4.43Y-4.55
X4.43Y-4.65
X4.43Y-4.75
X4.43Y-4.85
X4.43Y-4.95
X4.43Y-5.05
X4.43Y-5.15
X4.43Y-5.25
X4.43Y-5.35
X4.53Y-2.25
X4.53Y-2.35
X4.53Y-2.45
X4.53Y-2.55
X4.53Y-2.65
X4.53Y-2.75
X4.53Y-2.85
X4.53Y-2.95
X4.53Y-3.05
X4.53Y-3.15
X4.53Y-3.25
X4.53Y-3.35
X4.53Y-3.45
X4.53Y-3.55
X4.53Y-3.65
X4.53Y-3.75
X4.53Y-3.85
X4.53Y-3.95
X4.53Y-4.05
X4.53Y-4.15
X4.53Y-4.25
X4.53Y-4.35
X4.53Y-4.45
X4.53Y-4.55
X4.53Y-4.65
X4.53Y-4.75
X4.53Y-4.85
X4.53Y-4.95
X4.53Y-5.05
X4.53Y-5.15
X4.53Y-5.25
X4.53Y-5.35
X6.24Y-2.2886
X6.24Y-2.3886
X6.24Y-2.4886
X6.24Y-2.5886
X6.24Y-2.6886
X6.24Y-2.7886
X6.24Y-2.8886
X6.24Y-2.9886
X6.24Y-3.0886
X6.24Y-3.1886
X6.24Y-3.2886
X6.38Y-2.1386
X6.38Y-3.4386
X6.48Y-2.1386
X6.48Y-3.4386
X6.58Y-2.1386
X6.58Y-3.4386
X6.68Y-2.1386
X6.68Y-3.4386
X6.78Y-2.1386
X6.78Y-3.4386
X6.88Y-2.1386
X6.88Y-3.4386
X6.98Y-2.1386
X6.98Y-3.4386
X7.08Y-2.1386
X7.08Y-3.4386
X7.18Y-2.1386
X7.18Y-3.4386
X7.28Y-2.1386
X7.28Y-3.4386
X7.38Y-2.1386
X7.38Y-3.4386
X7.52Y-2.29
X7.52Y-2.39
X7.52Y-2.49
X7.52Y-2.59
X7.52Y-2.69
X7.52Y-2.79
X7.52Y-2.89
X7.52Y-2.99
X7.52Y-3.09
X7.52Y-3.19
X7.52Y-3.29
T0
M30
