G04 #@! TF.GenerationSoftware,KiCad,Pcbnew,(6.0.2)*
G04 #@! TF.CreationDate,2022-10-17T08:50:39-07:00*
G04 #@! TF.ProjectId,Protoboard PLCC,50726f74-6f62-46f6-9172-6420504c4343,1.0*
G04 #@! TF.SameCoordinates,Original*
G04 #@! TF.FileFunction,Copper,L1,Top*
G04 #@! TF.FilePolarity,Positive*
%FSLAX46Y46*%
G04 Gerber Fmt 4.6, Leading zero omitted, Abs format (unit mm)*
G04 Created by KiCad (PCBNEW (6.0.2)) date 2022-10-17 08:50:39*
%MOMM*%
%LPD*%
G01*
G04 APERTURE LIST*
G04 #@! TA.AperFunction,ComponentPad*
%ADD10C,1.524000*%
G04 #@! TD*
G04 #@! TA.AperFunction,ComponentPad*
%ADD11R,1.700000X1.700000*%
G04 #@! TD*
G04 #@! TA.AperFunction,ComponentPad*
%ADD12O,1.700000X1.700000*%
G04 #@! TD*
G04 #@! TA.AperFunction,ComponentPad*
%ADD13R,1.422400X1.422400*%
G04 #@! TD*
G04 #@! TA.AperFunction,ComponentPad*
%ADD14C,1.422400*%
G04 #@! TD*
G04 #@! TA.AperFunction,Conductor*
%ADD15C,0.500000*%
G04 #@! TD*
G04 #@! TA.AperFunction,Conductor*
%ADD16C,0.254000*%
G04 #@! TD*
G04 #@! TA.AperFunction,Conductor*
%ADD17C,0.200000*%
G04 #@! TD*
G04 APERTURE END LIST*
D10*
X176022000Y-107948000D03*
X178562000Y-107948000D03*
X181102000Y-107948000D03*
X183642000Y-107948000D03*
X186182000Y-107948000D03*
X176022000Y-110488000D03*
X178562000Y-110488000D03*
X181102000Y-110488000D03*
X183642000Y-110488000D03*
X186182000Y-110488000D03*
X176022000Y-92710000D03*
X178562000Y-92710000D03*
X181102000Y-92710000D03*
X183642000Y-92710000D03*
X186182000Y-92710000D03*
X176022000Y-95250000D03*
X178562000Y-95250000D03*
X181102000Y-95250000D03*
X183642000Y-95250000D03*
X186182000Y-95250000D03*
X176022000Y-97788000D03*
X178562000Y-97788000D03*
X181102000Y-97788000D03*
X183642000Y-97788000D03*
X186182000Y-97788000D03*
X176022000Y-100328000D03*
X178562000Y-100328000D03*
X181102000Y-100328000D03*
X183642000Y-100328000D03*
X186182000Y-100328000D03*
X176022000Y-118108000D03*
X178562000Y-118108000D03*
X181102000Y-118108000D03*
X183642000Y-118108000D03*
X186182000Y-118108000D03*
X176022000Y-120648000D03*
X178562000Y-120648000D03*
X181102000Y-120648000D03*
X183642000Y-120648000D03*
X186182000Y-120648000D03*
X176022000Y-123188000D03*
X178562000Y-123188000D03*
X181102000Y-123188000D03*
X183642000Y-123188000D03*
X186182000Y-123188000D03*
X176022000Y-125728000D03*
X178562000Y-125728000D03*
X181102000Y-125728000D03*
X183642000Y-125728000D03*
X186182000Y-125728000D03*
X176022000Y-102868000D03*
X178562000Y-102868000D03*
X181102000Y-102868000D03*
X183642000Y-102868000D03*
X186182000Y-102868000D03*
X176022000Y-105408000D03*
X178562000Y-105408000D03*
X181102000Y-105408000D03*
X183642000Y-105408000D03*
X186182000Y-105408000D03*
X176022000Y-128270000D03*
X178562000Y-128270000D03*
X181102000Y-128270000D03*
X183642000Y-128270000D03*
X186182000Y-128270000D03*
X176022000Y-130810000D03*
X178562000Y-130810000D03*
X181102000Y-130810000D03*
X183642000Y-130810000D03*
X186182000Y-130810000D03*
X176022000Y-133350000D03*
X178562000Y-133350000D03*
X181102000Y-133350000D03*
X183642000Y-133350000D03*
X186182000Y-133350000D03*
X176022000Y-135890000D03*
X178562000Y-135890000D03*
X181102000Y-135890000D03*
X183642000Y-135890000D03*
X186182000Y-135890000D03*
X176022000Y-113030000D03*
X178562000Y-113030000D03*
X181102000Y-113030000D03*
X183642000Y-113030000D03*
X186182000Y-113030000D03*
X176022000Y-115570000D03*
X178562000Y-115570000D03*
X181102000Y-115570000D03*
X183642000Y-115570000D03*
X186182000Y-115570000D03*
X158242000Y-135890000D03*
X155702000Y-135890000D03*
X170942000Y-110488000D03*
X168402000Y-110488000D03*
X165862000Y-110488000D03*
X163322000Y-110488000D03*
X160782000Y-110488000D03*
X170942000Y-107948000D03*
X168402000Y-107948000D03*
X165862000Y-107948000D03*
X163322000Y-107948000D03*
X160782000Y-107948000D03*
X170942000Y-100328000D03*
X168402000Y-100328000D03*
X165862000Y-100328000D03*
X163322000Y-100328000D03*
X160782000Y-100328000D03*
X170942000Y-97788000D03*
X168402000Y-97788000D03*
X165862000Y-97788000D03*
X163322000Y-97788000D03*
X160782000Y-97788000D03*
X170942000Y-120648000D03*
X168402000Y-120648000D03*
X165862000Y-120648000D03*
X163322000Y-120648000D03*
X160782000Y-120648000D03*
X170942000Y-118108000D03*
X168402000Y-118108000D03*
X165862000Y-118108000D03*
X163322000Y-118108000D03*
X160782000Y-118108000D03*
X170942000Y-125728000D03*
X168402000Y-125728000D03*
X165862000Y-125728000D03*
X163322000Y-125728000D03*
X160782000Y-125728000D03*
X170942000Y-123188000D03*
X168402000Y-123188000D03*
X165862000Y-123188000D03*
X163322000Y-123188000D03*
X160782000Y-123188000D03*
X170942000Y-95250000D03*
X168402000Y-95250000D03*
X165862000Y-95250000D03*
X163322000Y-95250000D03*
X160782000Y-95250000D03*
X170942000Y-92710000D03*
X168402000Y-92710000D03*
X165862000Y-92710000D03*
X163322000Y-92710000D03*
X160782000Y-92710000D03*
X170942000Y-105408000D03*
X168402000Y-105408000D03*
X165862000Y-105408000D03*
X163322000Y-105408000D03*
X160782000Y-105408000D03*
X170942000Y-102868000D03*
X168402000Y-102868000D03*
X165862000Y-102868000D03*
X163322000Y-102868000D03*
X160782000Y-102868000D03*
X170942000Y-130810000D03*
X168402000Y-130810000D03*
X165862000Y-130810000D03*
X163322000Y-130810000D03*
X160782000Y-130810000D03*
X170942000Y-128270000D03*
X168402000Y-128270000D03*
X165862000Y-128270000D03*
X163322000Y-128270000D03*
X160782000Y-128270000D03*
X170942000Y-135890000D03*
X168402000Y-135890000D03*
X165862000Y-135890000D03*
X163322000Y-135890000D03*
X160782000Y-135890000D03*
X170942000Y-133350000D03*
X168402000Y-133350000D03*
X165862000Y-133350000D03*
X163322000Y-133350000D03*
X160782000Y-133350000D03*
X170942000Y-115570000D03*
X168402000Y-115570000D03*
X165862000Y-115570000D03*
X163322000Y-115570000D03*
X160782000Y-115570000D03*
X170942000Y-113030000D03*
X168402000Y-113030000D03*
X165862000Y-113030000D03*
X163322000Y-113030000D03*
X160782000Y-113030000D03*
X127762000Y-133350000D03*
X130302000Y-133350000D03*
X132842000Y-133350000D03*
X135382000Y-133350000D03*
X137922000Y-133350000D03*
X127762000Y-135890000D03*
X130302000Y-135890000D03*
X132842000Y-135890000D03*
X135382000Y-135890000D03*
X137922000Y-135890000D03*
X127762000Y-77472000D03*
X130302000Y-77472000D03*
X132842000Y-77472000D03*
X135382000Y-77472000D03*
X137922000Y-77472000D03*
X127762000Y-80012000D03*
X130302000Y-80012000D03*
X132842000Y-80012000D03*
X135382000Y-80012000D03*
X137922000Y-80012000D03*
X127762000Y-67310000D03*
X130302000Y-67310000D03*
X132842000Y-67310000D03*
X135382000Y-67310000D03*
X137922000Y-67310000D03*
X127762000Y-69850000D03*
X130302000Y-69850000D03*
X132842000Y-69850000D03*
X135382000Y-69850000D03*
X137922000Y-69850000D03*
X127762000Y-72390000D03*
X130302000Y-72390000D03*
X132842000Y-72390000D03*
X135382000Y-72390000D03*
X137922000Y-72390000D03*
X127762000Y-74930000D03*
X130302000Y-74930000D03*
X132842000Y-74930000D03*
X135382000Y-74930000D03*
X137922000Y-74930000D03*
X137922000Y-64770000D03*
X135382000Y-64770000D03*
X132842000Y-64770000D03*
X130302000Y-64770000D03*
X127762000Y-64770000D03*
X137922000Y-62230000D03*
X135382000Y-62230000D03*
X132842000Y-62230000D03*
X130302000Y-62230000D03*
X127762000Y-62230000D03*
X127762000Y-82550000D03*
X130302000Y-82550000D03*
X132842000Y-82550000D03*
X135382000Y-82550000D03*
X137922000Y-82550000D03*
X127762000Y-85090000D03*
X130302000Y-85090000D03*
X132842000Y-85090000D03*
X135382000Y-85090000D03*
X137922000Y-85090000D03*
X127762000Y-107948000D03*
X130302000Y-107948000D03*
X132842000Y-107948000D03*
X135382000Y-107948000D03*
X137922000Y-107948000D03*
X127762000Y-110488000D03*
X130302000Y-110488000D03*
X132842000Y-110488000D03*
X135382000Y-110488000D03*
X137922000Y-110488000D03*
X127762000Y-97788000D03*
X130302000Y-97788000D03*
X132842000Y-97788000D03*
X135382000Y-97788000D03*
X137922000Y-97788000D03*
X127762000Y-100328000D03*
X130302000Y-100328000D03*
X132842000Y-100328000D03*
X135382000Y-100328000D03*
X137922000Y-100328000D03*
X127762000Y-118108000D03*
X130302000Y-118108000D03*
X132842000Y-118108000D03*
X135382000Y-118108000D03*
X137922000Y-118108000D03*
X127762000Y-120648000D03*
X130302000Y-120648000D03*
X132842000Y-120648000D03*
X135382000Y-120648000D03*
X137922000Y-120648000D03*
X127762000Y-123188000D03*
X130302000Y-123188000D03*
X132842000Y-123188000D03*
X135382000Y-123188000D03*
X137922000Y-123188000D03*
X127762000Y-125728000D03*
X130302000Y-125728000D03*
X132842000Y-125728000D03*
X135382000Y-125728000D03*
X137922000Y-125728000D03*
X127762000Y-92710000D03*
X130302000Y-92710000D03*
X132842000Y-92710000D03*
X135382000Y-92710000D03*
X137922000Y-92710000D03*
X127762000Y-95250000D03*
X130302000Y-95250000D03*
X132842000Y-95250000D03*
X135382000Y-95250000D03*
X137922000Y-95250000D03*
X127762000Y-87630000D03*
X130302000Y-87630000D03*
X132842000Y-87630000D03*
X135382000Y-87630000D03*
X137922000Y-87630000D03*
X127762000Y-90170000D03*
X130302000Y-90170000D03*
X132842000Y-90170000D03*
X135382000Y-90170000D03*
X137922000Y-90170000D03*
X127762000Y-102868000D03*
X130302000Y-102868000D03*
X132842000Y-102868000D03*
X135382000Y-102868000D03*
X137922000Y-102868000D03*
X127762000Y-105408000D03*
X130302000Y-105408000D03*
X132842000Y-105408000D03*
X135382000Y-105408000D03*
X137922000Y-105408000D03*
X127762000Y-128270000D03*
X130302000Y-128270000D03*
X132842000Y-128270000D03*
X135382000Y-128270000D03*
X137922000Y-128270000D03*
X127762000Y-130810000D03*
X130302000Y-130810000D03*
X132842000Y-130810000D03*
X135382000Y-130810000D03*
X137922000Y-130810000D03*
X127762000Y-113030000D03*
X130302000Y-113030000D03*
X132842000Y-113030000D03*
X135382000Y-113030000D03*
X137922000Y-113030000D03*
X127762000Y-115570000D03*
X130302000Y-115570000D03*
X132842000Y-115570000D03*
X135382000Y-115570000D03*
X137922000Y-115570000D03*
X127762000Y-57152000D03*
X130302000Y-57152000D03*
X132842000Y-57152000D03*
X135382000Y-57152000D03*
X137922000Y-57152000D03*
X127762000Y-59692000D03*
X130302000Y-59692000D03*
X132842000Y-59692000D03*
X135382000Y-59692000D03*
X137922000Y-59692000D03*
X143002000Y-128270000D03*
X145542000Y-128270000D03*
X148082000Y-128270000D03*
X150622000Y-128270000D03*
X153162000Y-128270000D03*
X143002000Y-130810000D03*
X145542000Y-130810000D03*
X148082000Y-130810000D03*
X150622000Y-130810000D03*
X153162000Y-130810000D03*
X143002000Y-133350000D03*
X145542000Y-133350000D03*
X148082000Y-133350000D03*
X150622000Y-133350000D03*
X153162000Y-133350000D03*
X143002000Y-135890000D03*
X145542000Y-135890000D03*
X148082000Y-135890000D03*
X150622000Y-135890000D03*
X153162000Y-135890000D03*
X143002000Y-113030000D03*
X145542000Y-113030000D03*
X148082000Y-113030000D03*
X150622000Y-113030000D03*
X153162000Y-113030000D03*
X143002000Y-115570000D03*
X145542000Y-115570000D03*
X148082000Y-115570000D03*
X150622000Y-115570000D03*
X153162000Y-115570000D03*
X143002000Y-102868000D03*
X145542000Y-102868000D03*
X148082000Y-102868000D03*
X150622000Y-102868000D03*
X153162000Y-102868000D03*
X143002000Y-105408000D03*
X145542000Y-105408000D03*
X148082000Y-105408000D03*
X150622000Y-105408000D03*
X153162000Y-105408000D03*
X143002000Y-107948000D03*
X145542000Y-107948000D03*
X148082000Y-107948000D03*
X150622000Y-107948000D03*
X153162000Y-107948000D03*
X143002000Y-110488000D03*
X145542000Y-110488000D03*
X148082000Y-110488000D03*
X150622000Y-110488000D03*
X153162000Y-110488000D03*
X143002000Y-97788000D03*
X145542000Y-97788000D03*
X148082000Y-97788000D03*
X150622000Y-97788000D03*
X153162000Y-97788000D03*
X143002000Y-100328000D03*
X145542000Y-100328000D03*
X148082000Y-100328000D03*
X150622000Y-100328000D03*
X153162000Y-100328000D03*
X143002000Y-118108000D03*
X145542000Y-118108000D03*
X148082000Y-118108000D03*
X150622000Y-118108000D03*
X153162000Y-118108000D03*
X143002000Y-120648000D03*
X145542000Y-120648000D03*
X148082000Y-120648000D03*
X150622000Y-120648000D03*
X153162000Y-120648000D03*
X143002000Y-123188000D03*
X145542000Y-123188000D03*
X148082000Y-123188000D03*
X150622000Y-123188000D03*
X153162000Y-123188000D03*
X143002000Y-125728000D03*
X145542000Y-125728000D03*
X148082000Y-125728000D03*
X150622000Y-125728000D03*
X153162000Y-125728000D03*
X143002000Y-92710000D03*
X145542000Y-92710000D03*
X148082000Y-92710000D03*
X150622000Y-92710000D03*
X153162000Y-92710000D03*
X143002000Y-95250000D03*
X145542000Y-95250000D03*
X148082000Y-95250000D03*
X150622000Y-95250000D03*
X153162000Y-95250000D03*
X143002000Y-87630000D03*
X145542000Y-87630000D03*
X148082000Y-87630000D03*
X150622000Y-87630000D03*
X153162000Y-87630000D03*
X143002000Y-90170000D03*
X145542000Y-90170000D03*
X148082000Y-90170000D03*
X150622000Y-90170000D03*
X153162000Y-90170000D03*
X143002000Y-82550000D03*
X145542000Y-82550000D03*
X148082000Y-82550000D03*
X150622000Y-82550000D03*
X153162000Y-82550000D03*
X143002000Y-85090000D03*
X145542000Y-85090000D03*
X148082000Y-85090000D03*
X150622000Y-85090000D03*
X153162000Y-85090000D03*
X143002000Y-77472000D03*
X145542000Y-77472000D03*
X148082000Y-77472000D03*
X150622000Y-77472000D03*
X153162000Y-77472000D03*
X143002000Y-80012000D03*
X145542000Y-80012000D03*
X148082000Y-80012000D03*
X150622000Y-80012000D03*
X153162000Y-80012000D03*
X143002000Y-72390000D03*
X145542000Y-72390000D03*
X148082000Y-72390000D03*
X150622000Y-72390000D03*
X153162000Y-72390000D03*
X143002000Y-74930000D03*
X145542000Y-74930000D03*
X148082000Y-74930000D03*
X150622000Y-74930000D03*
X153162000Y-74930000D03*
X143002000Y-67310000D03*
X145542000Y-67310000D03*
X148082000Y-67310000D03*
X150622000Y-67310000D03*
X153162000Y-67310000D03*
X143002000Y-69850000D03*
X145542000Y-69850000D03*
X148082000Y-69850000D03*
X150622000Y-69850000D03*
X153162000Y-69850000D03*
X143002000Y-62230000D03*
X145542000Y-62230000D03*
X148082000Y-62230000D03*
X150622000Y-62230000D03*
X153162000Y-62230000D03*
X143002000Y-64770000D03*
X145542000Y-64770000D03*
X148082000Y-64770000D03*
X150622000Y-64770000D03*
X153162000Y-64770000D03*
X125222000Y-95250000D03*
X125222000Y-97790000D03*
X125222000Y-100330000D03*
X125222000Y-102870000D03*
X125222000Y-105410000D03*
X122682000Y-95250000D03*
X122682000Y-97790000D03*
X122682000Y-100330000D03*
X122682000Y-102870000D03*
X122682000Y-105410000D03*
X125222000Y-82550000D03*
X125222000Y-85090000D03*
X125222000Y-87630000D03*
X125222000Y-90170000D03*
X125222000Y-92710000D03*
X122682000Y-82550000D03*
X122682000Y-85090000D03*
X122682000Y-87630000D03*
X122682000Y-90170000D03*
X122682000Y-92710000D03*
X125222000Y-69850000D03*
X125222000Y-72390000D03*
X125222000Y-74930000D03*
X125222000Y-77470000D03*
X125222000Y-80010000D03*
X125222000Y-57150000D03*
X125222000Y-59690000D03*
X125222000Y-62230000D03*
X125222000Y-64770000D03*
X125222000Y-67310000D03*
X122682000Y-69850000D03*
X122682000Y-72390000D03*
X122682000Y-74930000D03*
X122682000Y-77470000D03*
X122682000Y-80010000D03*
X122682000Y-57150000D03*
X122682000Y-59690000D03*
X122682000Y-62230000D03*
X122682000Y-64770000D03*
X122682000Y-67310000D03*
X191260000Y-135890000D03*
X188720000Y-135890000D03*
X191260000Y-133352000D03*
X188720000Y-133352000D03*
X191260000Y-130812000D03*
X188720000Y-130812000D03*
X158242000Y-118110000D03*
X158242000Y-120650000D03*
X158242000Y-123190000D03*
X158242000Y-125730000D03*
X158242000Y-128270000D03*
X155702000Y-118110000D03*
X155702000Y-120650000D03*
X155702000Y-123190000D03*
X155702000Y-125730000D03*
X155702000Y-128270000D03*
D11*
X112522000Y-135890000D03*
D12*
X115062000Y-135890000D03*
X112522000Y-133350000D03*
X115062000Y-133350000D03*
X112522000Y-130810000D03*
X115062000Y-130810000D03*
X112522000Y-128270000D03*
X115062000Y-128270000D03*
X112522000Y-125730000D03*
X115062000Y-125730000D03*
X112522000Y-123190000D03*
X115062000Y-123190000D03*
X112522000Y-120650000D03*
X115062000Y-120650000D03*
X112522000Y-118110000D03*
X115062000Y-118110000D03*
X112522000Y-115570000D03*
X115062000Y-115570000D03*
X112522000Y-113030000D03*
X115062000Y-113030000D03*
X112522000Y-110490000D03*
X115062000Y-110490000D03*
X112522000Y-107950000D03*
X115062000Y-107950000D03*
X112522000Y-105410000D03*
X115062000Y-105410000D03*
X112522000Y-102870000D03*
X115062000Y-102870000D03*
X112522000Y-100330000D03*
X115062000Y-100330000D03*
X112522000Y-97790000D03*
X115062000Y-97790000D03*
X112522000Y-95250000D03*
X115062000Y-95250000D03*
X112522000Y-92710000D03*
X115062000Y-92710000D03*
X112522000Y-90170000D03*
X115062000Y-90170000D03*
X112522000Y-87630000D03*
X115062000Y-87630000D03*
X112522000Y-85090000D03*
X115062000Y-85090000D03*
X112522000Y-82550000D03*
X115062000Y-82550000D03*
X112522000Y-80010000D03*
X115062000Y-80010000D03*
X112522000Y-77470000D03*
X115062000Y-77470000D03*
X112522000Y-74930000D03*
X115062000Y-74930000D03*
X112522000Y-72390000D03*
X115062000Y-72390000D03*
X112522000Y-69850000D03*
X115062000Y-69850000D03*
X112522000Y-67310000D03*
X115062000Y-67310000D03*
X112522000Y-64770000D03*
X115062000Y-64770000D03*
X112522000Y-62230000D03*
X115062000Y-62230000D03*
X112522000Y-59690000D03*
X115062000Y-59690000D03*
X112522000Y-57150000D03*
X115062000Y-57150000D03*
D11*
X162052000Y-54320000D03*
D12*
X164592000Y-54320000D03*
X167132000Y-54320000D03*
X169672000Y-54320000D03*
X172212000Y-54320000D03*
X174752000Y-54320000D03*
X177292000Y-54320000D03*
X179832000Y-54320000D03*
X182372000Y-54320000D03*
X184912000Y-54320000D03*
X187452000Y-54320000D03*
D11*
X158496000Y-83530000D03*
D12*
X158496000Y-80990000D03*
X158496000Y-78450000D03*
X158496000Y-75910000D03*
X158496000Y-73370000D03*
X158496000Y-70830000D03*
X158496000Y-68290000D03*
X158496000Y-65750000D03*
X158496000Y-63210000D03*
X158496000Y-60670000D03*
X158496000Y-58130000D03*
D11*
X191008000Y-58166000D03*
D12*
X191008000Y-60706000D03*
X191008000Y-63246000D03*
X191008000Y-65786000D03*
X191008000Y-68326000D03*
X191008000Y-70866000D03*
X191008000Y-73406000D03*
X191008000Y-75946000D03*
X191008000Y-78486000D03*
X191008000Y-81026000D03*
X191008000Y-83566000D03*
D10*
X143002000Y-57152000D03*
X145542000Y-57152000D03*
X148082000Y-57152000D03*
X150622000Y-57152000D03*
X153162000Y-57152000D03*
X143002000Y-59692000D03*
X145542000Y-59692000D03*
X148082000Y-59692000D03*
X150622000Y-59692000D03*
X153162000Y-59692000D03*
X158242000Y-105410000D03*
X158242000Y-107950000D03*
X158242000Y-110490000D03*
X158242000Y-113030000D03*
X158242000Y-115570000D03*
X155702000Y-105410000D03*
X155702000Y-107950000D03*
X155702000Y-110490000D03*
X155702000Y-113030000D03*
X155702000Y-115570000D03*
X188722000Y-102870000D03*
X188722000Y-100330000D03*
X188722000Y-97790000D03*
X188722000Y-95250000D03*
X188722000Y-92710000D03*
X191262000Y-102870000D03*
X191262000Y-100330000D03*
X191262000Y-97790000D03*
X191262000Y-95250000D03*
X191262000Y-92710000D03*
X155704000Y-102870000D03*
X155704000Y-100330000D03*
X155704000Y-97790000D03*
X155704000Y-95250000D03*
X155704000Y-92710000D03*
X158244000Y-102870000D03*
X158244000Y-100330000D03*
X158244000Y-97790000D03*
X158244000Y-95250000D03*
X158244000Y-92710000D03*
X122682000Y-118110000D03*
X122682000Y-115570000D03*
X122682000Y-113030000D03*
X122682000Y-110490000D03*
X122682000Y-107950000D03*
X125222000Y-118110000D03*
X125222000Y-115570000D03*
X125222000Y-113030000D03*
X125222000Y-110490000D03*
X125222000Y-107950000D03*
D11*
X103160000Y-135895000D03*
D12*
X100620000Y-135895000D03*
X103160000Y-133355000D03*
X100620000Y-133355000D03*
X103160000Y-130815000D03*
X100620000Y-130815000D03*
X103160000Y-128275000D03*
X100620000Y-128275000D03*
X103160000Y-125735000D03*
X100620000Y-125735000D03*
X103160000Y-123195000D03*
X100620000Y-123195000D03*
X103160000Y-120655000D03*
X100620000Y-120655000D03*
X103160000Y-118115000D03*
X100620000Y-118115000D03*
X103160000Y-115575000D03*
X100620000Y-115575000D03*
X103160000Y-113035000D03*
X100620000Y-113035000D03*
X103160000Y-110495000D03*
X100620000Y-110495000D03*
X103160000Y-107955000D03*
X100620000Y-107955000D03*
X103160000Y-105415000D03*
X100620000Y-105415000D03*
X103160000Y-102875000D03*
X100620000Y-102875000D03*
X103160000Y-100335000D03*
X100620000Y-100335000D03*
X103160000Y-97795000D03*
X100620000Y-97795000D03*
X103160000Y-95255000D03*
X100620000Y-95255000D03*
X103160000Y-92715000D03*
X100620000Y-92715000D03*
X103160000Y-90175000D03*
X100620000Y-90175000D03*
X103160000Y-87635000D03*
X100620000Y-87635000D03*
X103160000Y-85095000D03*
X100620000Y-85095000D03*
X103160000Y-82555000D03*
X100620000Y-82555000D03*
X103160000Y-80015000D03*
X100620000Y-80015000D03*
X103160000Y-77475000D03*
X100620000Y-77475000D03*
X103160000Y-74935000D03*
X100620000Y-74935000D03*
X103160000Y-72395000D03*
X100620000Y-72395000D03*
X103160000Y-69855000D03*
X100620000Y-69855000D03*
X103160000Y-67315000D03*
X100620000Y-67315000D03*
X103160000Y-64775000D03*
X100620000Y-64775000D03*
X103160000Y-62235000D03*
X100620000Y-62235000D03*
X103160000Y-59695000D03*
X100620000Y-59695000D03*
X103160000Y-57155000D03*
X100620000Y-57155000D03*
D10*
X155702000Y-130810000D03*
X158242000Y-130810000D03*
X155702000Y-133350000D03*
X158242000Y-133350000D03*
X122682000Y-135890000D03*
X125222000Y-135890000D03*
X122682000Y-133350000D03*
X125222000Y-133350000D03*
X188720000Y-115570000D03*
X188720000Y-113030000D03*
X188720000Y-110490000D03*
X188720000Y-107950000D03*
X188720000Y-105410000D03*
X191260000Y-115570000D03*
X191260000Y-113030000D03*
X191260000Y-110490000D03*
X191260000Y-107950000D03*
X191260000Y-105410000D03*
X188720000Y-128270000D03*
X188720000Y-125730000D03*
X188720000Y-123190000D03*
X188720000Y-120650000D03*
X188720000Y-118110000D03*
X191260000Y-128270000D03*
X191260000Y-125730000D03*
X191260000Y-123190000D03*
X191260000Y-120650000D03*
X191260000Y-118110000D03*
D11*
X187452000Y-87340000D03*
D12*
X184912000Y-87340000D03*
X182372000Y-87340000D03*
X179832000Y-87340000D03*
X177292000Y-87340000D03*
X174752000Y-87340000D03*
X172212000Y-87340000D03*
X169672000Y-87340000D03*
X167132000Y-87340000D03*
X164592000Y-87340000D03*
X162052000Y-87340000D03*
D10*
X122682000Y-130810000D03*
X122682000Y-128270000D03*
X122682000Y-125730000D03*
X122682000Y-123190000D03*
X122682000Y-120650000D03*
X125222000Y-130810000D03*
X125222000Y-128270000D03*
X125222000Y-125730000D03*
X125222000Y-123190000D03*
X125222000Y-120650000D03*
D13*
X176022000Y-64516000D03*
D14*
X173482000Y-61976000D03*
X173482000Y-64516000D03*
X170942000Y-61976000D03*
X170942000Y-64516000D03*
X168402000Y-61976000D03*
X165862000Y-64516000D03*
X168402000Y-64516000D03*
X165862000Y-67056000D03*
X168402000Y-67056000D03*
X165862000Y-69596000D03*
X168402000Y-69596000D03*
X165862000Y-72136000D03*
X168402000Y-72136000D03*
X165862000Y-74676000D03*
X168402000Y-74676000D03*
X165862000Y-77216000D03*
X168402000Y-79756000D03*
X168402000Y-77216000D03*
X170942000Y-79756000D03*
X170942000Y-77216000D03*
X173482000Y-79756000D03*
X173482000Y-77216000D03*
X176022000Y-79756000D03*
X176022000Y-77216000D03*
X178562000Y-79756000D03*
X178562000Y-77216000D03*
X181102000Y-79756000D03*
X183642000Y-77216000D03*
X181102000Y-77216000D03*
X183642000Y-74676000D03*
X181102000Y-74676000D03*
X183642000Y-72136000D03*
X181102000Y-72136000D03*
X183642000Y-69596000D03*
X181102000Y-69596000D03*
X183642000Y-67056000D03*
X181102000Y-67056000D03*
X183642000Y-64516000D03*
X181102000Y-61976000D03*
X181102000Y-64516000D03*
X178562000Y-61976000D03*
X178562000Y-64516000D03*
X176022000Y-61976000D03*
D15*
X125222000Y-105410000D02*
X125222000Y-135890000D01*
X125222000Y-105410000D02*
X125222000Y-57150000D01*
X122682000Y-105410000D02*
X122682000Y-135890000D01*
X122682000Y-105410000D02*
X122682000Y-57150000D01*
X176022000Y-92710000D02*
X186182000Y-92710000D01*
X186182000Y-115570000D02*
X176022000Y-115570000D01*
X186182000Y-105408000D02*
X176022000Y-105408000D01*
X186182000Y-130810000D02*
X176022000Y-130810000D01*
X186182000Y-125728000D02*
X176022000Y-125728000D01*
X176022000Y-128270000D02*
X186182000Y-128270000D01*
X176022000Y-107948000D02*
X186182000Y-107948000D01*
X186182000Y-110488000D02*
X176022000Y-110488000D01*
X186182000Y-100328000D02*
X176022000Y-100328000D01*
X176022000Y-97788000D02*
X186182000Y-97788000D01*
X176022000Y-102868000D02*
X186182000Y-102868000D01*
X176022000Y-113030000D02*
X186182000Y-113030000D01*
X176022000Y-123188000D02*
X186182000Y-123188000D01*
X176022000Y-133350000D02*
X186182000Y-133350000D01*
X186182000Y-135890000D02*
X176022000Y-135890000D01*
X186182000Y-120648000D02*
X176022000Y-120648000D01*
X176022000Y-118108000D02*
X186182000Y-118108000D01*
X186182000Y-95250000D02*
X176022000Y-95250000D01*
D16*
X158244000Y-135888000D02*
X158242000Y-135890000D01*
D15*
X158244000Y-92710000D02*
X158244000Y-135888000D01*
D16*
X155702000Y-92712000D02*
X155704000Y-92710000D01*
D15*
X155702000Y-135890000D02*
X155702000Y-92712000D01*
X170942000Y-135890000D02*
X160782000Y-135890000D01*
X160782000Y-128270000D02*
X170942000Y-128270000D01*
X170942000Y-130810000D02*
X160782000Y-130810000D01*
X160782000Y-133350000D02*
X170942000Y-133350000D01*
X160782000Y-107948000D02*
X170942000Y-107948000D01*
X170942000Y-110488000D02*
X160782000Y-110488000D01*
X170942000Y-120648000D02*
X160782000Y-120648000D01*
X170942000Y-125728000D02*
X160782000Y-125728000D01*
X160782000Y-113030000D02*
X170942000Y-113030000D01*
X170942000Y-105408000D02*
X160782000Y-105408000D01*
X170942000Y-100328000D02*
X160782000Y-100328000D01*
X160782000Y-118108000D02*
X170942000Y-118108000D01*
X160782000Y-102868000D02*
X170942000Y-102868000D01*
X170942000Y-115570000D02*
X160782000Y-115570000D01*
X160782000Y-123188000D02*
X170942000Y-123188000D01*
X160782000Y-92710000D02*
X170942000Y-92710000D01*
X160782000Y-97788000D02*
X170942000Y-97788000D01*
X170942000Y-95250000D02*
X160782000Y-95250000D01*
X127762000Y-133350000D02*
X137922000Y-133350000D01*
X137922000Y-135890000D02*
X127762000Y-135890000D01*
X127762000Y-77472000D02*
X137922000Y-77472000D01*
X137922000Y-80012000D02*
X127762000Y-80012000D01*
X127762000Y-128270000D02*
X137922000Y-128270000D01*
X137922000Y-130810000D02*
X127762000Y-130810000D01*
X127762000Y-107948000D02*
X137922000Y-107948000D01*
X137922000Y-110488000D02*
X127762000Y-110488000D01*
X137922000Y-120648000D02*
X127762000Y-120648000D01*
X137922000Y-125728000D02*
X127762000Y-125728000D01*
X127762000Y-113030000D02*
X137922000Y-113030000D01*
X137922000Y-105408000D02*
X127762000Y-105408000D01*
X137922000Y-100328000D02*
X127762000Y-100328000D01*
X127762000Y-118108000D02*
X137922000Y-118108000D01*
X127762000Y-102868000D02*
X137922000Y-102868000D01*
X137922000Y-115570000D02*
X127762000Y-115570000D01*
X127762000Y-123188000D02*
X137922000Y-123188000D01*
X127762000Y-92710000D02*
X137922000Y-92710000D01*
X127762000Y-97788000D02*
X137922000Y-97788000D01*
X137922000Y-95250000D02*
X127762000Y-95250000D01*
X137922000Y-90170000D02*
X127762000Y-90170000D01*
X127762000Y-87630000D02*
X137922000Y-87630000D01*
X137922000Y-85090000D02*
X127762000Y-85090000D01*
X127762000Y-82550000D02*
X137922000Y-82550000D01*
X138430000Y-59692000D02*
X128270000Y-59692000D01*
X128270000Y-57152000D02*
X138430000Y-57152000D01*
X128270000Y-62230000D02*
X138430000Y-62230000D01*
X137922000Y-64770000D02*
X127762000Y-64770000D01*
X137922000Y-69850000D02*
X127762000Y-69850000D01*
X127762000Y-67310000D02*
X137922000Y-67310000D01*
X137922000Y-74930000D02*
X127762000Y-74930000D01*
X127762000Y-72390000D02*
X137922000Y-72390000D01*
X153162000Y-130810000D02*
X143002000Y-130810000D01*
X153162000Y-135890000D02*
X143002000Y-135890000D01*
X143002000Y-128270000D02*
X153162000Y-128270000D01*
X143002000Y-133350000D02*
X153162000Y-133350000D01*
X143002000Y-113030000D02*
X153162000Y-113030000D01*
X153162000Y-115570000D02*
X143002000Y-115570000D01*
X153162000Y-125728000D02*
X143002000Y-125728000D01*
X143002000Y-123188000D02*
X153162000Y-123188000D01*
X153162000Y-120648000D02*
X143002000Y-120648000D01*
X143002000Y-118108000D02*
X153162000Y-118108000D01*
X153162000Y-95250000D02*
X143002000Y-95250000D01*
X143002000Y-92710000D02*
X153162000Y-92710000D01*
X143002000Y-97788000D02*
X153162000Y-97788000D01*
X153162000Y-100328000D02*
X143002000Y-100328000D01*
X153162000Y-105408000D02*
X143002000Y-105408000D01*
X143002000Y-102868000D02*
X153162000Y-102868000D01*
X153162000Y-110488000D02*
X143002000Y-110488000D01*
X143002000Y-107948000D02*
X153162000Y-107948000D01*
X153162000Y-90170000D02*
X143002000Y-90170000D01*
X143002000Y-87630000D02*
X153162000Y-87630000D01*
X153162000Y-85090000D02*
X143002000Y-85090000D01*
X143002000Y-82550000D02*
X153162000Y-82550000D01*
X153162000Y-80012000D02*
X143002000Y-80012000D01*
X143002000Y-77472000D02*
X153162000Y-77472000D01*
X153162000Y-74930000D02*
X143002000Y-74930000D01*
X143002000Y-72390000D02*
X153162000Y-72390000D01*
X153162000Y-69850000D02*
X143002000Y-69850000D01*
X143002000Y-67310000D02*
X153162000Y-67310000D01*
X153162000Y-64770000D02*
X143002000Y-64770000D01*
X143002000Y-62230000D02*
X153162000Y-62230000D01*
X153162000Y-59692000D02*
X143002000Y-59692000D01*
X143002000Y-57152000D02*
X153162000Y-57152000D01*
X191262000Y-92710000D02*
X191262000Y-135888000D01*
D17*
X191262000Y-135888000D02*
X191260000Y-135890000D01*
D16*
X189229000Y-92711000D02*
X189231000Y-92709000D01*
D15*
X188720000Y-135890000D02*
X188720000Y-92712000D01*
D16*
X101851000Y-130815000D02*
X101851000Y-131277000D01*
X101851000Y-131277000D02*
X102655000Y-132080000D01*
X102655000Y-132080000D02*
X113071000Y-132080000D01*
X113831000Y-131320000D02*
X113831000Y-130810000D01*
X113071000Y-132080000D02*
X113831000Y-131320000D01*
X100620000Y-130815000D02*
X101851000Y-130815000D01*
X113831000Y-130810000D02*
X115062000Y-130810000D01*
X111291000Y-135890000D02*
X111286000Y-135895000D01*
X112522000Y-135890000D02*
X111291000Y-135890000D01*
X111286000Y-135895000D02*
X103160000Y-135895000D01*
X111286000Y-133355000D02*
X111291000Y-133350000D01*
X111291000Y-133350000D02*
X112522000Y-133350000D01*
X103160000Y-133355000D02*
X111286000Y-133355000D01*
X103160000Y-130815000D02*
X111286000Y-130815000D01*
X111291000Y-130810000D02*
X112522000Y-130810000D01*
X111286000Y-130815000D02*
X111291000Y-130810000D01*
X112522000Y-128270000D02*
X111291000Y-128270000D01*
X111286000Y-128275000D02*
X103160000Y-128275000D01*
X111291000Y-128270000D02*
X111286000Y-128275000D01*
X111286000Y-125735000D02*
X111291000Y-125730000D01*
X103160000Y-125735000D02*
X111286000Y-125735000D01*
X111291000Y-125730000D02*
X112522000Y-125730000D01*
X111291000Y-123190000D02*
X112522000Y-123190000D01*
X103160000Y-123195000D02*
X111286000Y-123195000D01*
X111286000Y-123195000D02*
X111291000Y-123190000D01*
X111286000Y-120655000D02*
X111291000Y-120650000D01*
X111291000Y-120650000D02*
X112522000Y-120650000D01*
X103160000Y-120655000D02*
X111286000Y-120655000D01*
X111286000Y-118115000D02*
X103160000Y-118115000D01*
X112522000Y-118110000D02*
X111291000Y-118110000D01*
X111291000Y-118110000D02*
X111286000Y-118115000D01*
X111286000Y-115575000D02*
X111291000Y-115570000D01*
X103160000Y-115575000D02*
X111286000Y-115575000D01*
X111291000Y-115570000D02*
X112522000Y-115570000D01*
X103160000Y-113035000D02*
X111286000Y-113035000D01*
X111286000Y-113035000D02*
X111291000Y-113030000D01*
X111291000Y-113030000D02*
X112522000Y-113030000D01*
X103160000Y-110495000D02*
X111286000Y-110495000D01*
X111291000Y-110490000D02*
X112522000Y-110490000D01*
X111286000Y-110495000D02*
X111291000Y-110490000D01*
X103160000Y-107955000D02*
X111286000Y-107955000D01*
X111286000Y-107955000D02*
X111291000Y-107950000D01*
X111291000Y-107950000D02*
X112522000Y-107950000D01*
X112522000Y-105410000D02*
X111291000Y-105410000D01*
X111291000Y-105410000D02*
X111286000Y-105415000D01*
X111286000Y-105415000D02*
X103160000Y-105415000D01*
X103160000Y-102875000D02*
X111286000Y-102875000D01*
X111286000Y-102875000D02*
X111291000Y-102870000D01*
X111291000Y-102870000D02*
X112522000Y-102870000D01*
X103160000Y-100335000D02*
X111286000Y-100335000D01*
X111286000Y-100335000D02*
X111291000Y-100330000D01*
X111291000Y-100330000D02*
X112522000Y-100330000D01*
X111286000Y-97795000D02*
X111291000Y-97790000D01*
X111291000Y-97790000D02*
X112522000Y-97790000D01*
X103160000Y-97795000D02*
X111286000Y-97795000D01*
X111291000Y-95250000D02*
X112522000Y-95250000D01*
X103160000Y-95255000D02*
X111286000Y-95255000D01*
X111286000Y-95255000D02*
X111291000Y-95250000D01*
X111291000Y-92710000D02*
X111286000Y-92715000D01*
X112522000Y-92710000D02*
X111291000Y-92710000D01*
X111286000Y-92715000D02*
X103160000Y-92715000D01*
X111291000Y-90170000D02*
X111286000Y-90175000D01*
X111286000Y-90175000D02*
X103160000Y-90175000D01*
X112522000Y-90170000D02*
X111291000Y-90170000D01*
X111291000Y-87630000D02*
X112522000Y-87630000D01*
X111286000Y-87635000D02*
X111291000Y-87630000D01*
X103160000Y-87635000D02*
X111286000Y-87635000D01*
X111286000Y-85095000D02*
X103160000Y-85095000D01*
X111291000Y-85090000D02*
X111286000Y-85095000D01*
X112522000Y-85090000D02*
X111291000Y-85090000D01*
X111286000Y-82555000D02*
X111291000Y-82550000D01*
X111291000Y-82550000D02*
X112522000Y-82550000D01*
X103160000Y-82555000D02*
X111286000Y-82555000D01*
X103160000Y-80015000D02*
X111286000Y-80015000D01*
X111286000Y-80015000D02*
X111291000Y-80010000D01*
X111291000Y-80010000D02*
X112522000Y-80010000D01*
X111286000Y-77475000D02*
X111291000Y-77470000D01*
X103160000Y-77475000D02*
X111286000Y-77475000D01*
X111291000Y-77470000D02*
X112522000Y-77470000D01*
X111291000Y-74930000D02*
X111286000Y-74935000D01*
X111286000Y-74935000D02*
X103160000Y-74935000D01*
X112522000Y-74930000D02*
X111291000Y-74930000D01*
X102655000Y-121920000D02*
X113071000Y-121920000D01*
X101851000Y-120655000D02*
X101851000Y-121117000D01*
X113831000Y-120650000D02*
X115062000Y-120650000D01*
X113831000Y-121160000D02*
X113831000Y-120650000D01*
X101851000Y-121117000D02*
X102655000Y-121920000D01*
X100620000Y-120655000D02*
X101851000Y-120655000D01*
X113071000Y-121920000D02*
X113831000Y-121160000D01*
X102655000Y-106680000D02*
X113071000Y-106680000D01*
X113831000Y-105920000D02*
X113831000Y-105410000D01*
X100620000Y-105415000D02*
X101851000Y-105415000D01*
X113071000Y-106680000D02*
X113831000Y-105920000D01*
X101851000Y-105877000D02*
X102655000Y-106680000D01*
X113831000Y-105410000D02*
X115062000Y-105410000D01*
X101851000Y-105415000D02*
X101851000Y-105877000D01*
X101851000Y-133817000D02*
X102641000Y-134606000D01*
X101851000Y-133355000D02*
X101851000Y-133817000D01*
X102641000Y-134606000D02*
X113085000Y-134606000D01*
X113831000Y-133350000D02*
X115062000Y-133350000D01*
X100620000Y-133355000D02*
X101851000Y-133355000D01*
X113831000Y-133860000D02*
X113831000Y-133350000D01*
X113085000Y-134606000D02*
X113831000Y-133860000D01*
X111286000Y-59695000D02*
X111291000Y-59690000D01*
X111291000Y-59690000D02*
X112522000Y-59690000D01*
X103160000Y-59695000D02*
X111286000Y-59695000D01*
X111291000Y-57150000D02*
X112522000Y-57150000D01*
X111286000Y-57155000D02*
X111291000Y-57150000D01*
X103160000Y-57155000D02*
X111286000Y-57155000D01*
X113831000Y-57150000D02*
X115062000Y-57150000D01*
X102655000Y-58420000D02*
X113071000Y-58420000D01*
X101851000Y-57616700D02*
X102655000Y-58420000D01*
X113831000Y-57660200D02*
X113831000Y-57150000D01*
X101851000Y-57155000D02*
X101851000Y-57616700D01*
X113071000Y-58420000D02*
X113831000Y-57660200D01*
X100620000Y-57155000D02*
X101851000Y-57155000D01*
X102655000Y-60960000D02*
X101851000Y-60156700D01*
X101851000Y-59695000D02*
X100620000Y-59695000D01*
X113831000Y-60200200D02*
X113071000Y-60960000D01*
X113071000Y-60960000D02*
X102655000Y-60960000D01*
X101851000Y-60156700D02*
X101851000Y-59695000D01*
X113831000Y-59690000D02*
X113831000Y-60200200D01*
X115062000Y-59690000D02*
X113831000Y-59690000D01*
X113831000Y-62740200D02*
X113831000Y-62230000D01*
X113831000Y-62230000D02*
X115062000Y-62230000D01*
X100620000Y-62235000D02*
X101851000Y-62235000D01*
X102655000Y-63500000D02*
X113071000Y-63500000D01*
X113071000Y-63500000D02*
X113831000Y-62740200D01*
X101851000Y-62696700D02*
X102655000Y-63500000D01*
X101851000Y-62235000D02*
X101851000Y-62696700D01*
X101851000Y-64775000D02*
X100620000Y-64775000D01*
X101851000Y-65236700D02*
X101851000Y-64775000D01*
X113071000Y-66040000D02*
X102655000Y-66040000D01*
X115062000Y-64770000D02*
X113831000Y-64770000D01*
X102655000Y-66040000D02*
X101851000Y-65236700D01*
X113831000Y-65280200D02*
X113071000Y-66040000D01*
X113831000Y-64770000D02*
X113831000Y-65280200D01*
X101851000Y-67315000D02*
X101851000Y-67776700D01*
X102655000Y-68580000D02*
X113071000Y-68580000D01*
X113071000Y-68580000D02*
X113831000Y-67820200D01*
X113831000Y-67820200D02*
X113831000Y-67310000D01*
X100620000Y-67315000D02*
X101851000Y-67315000D01*
X101851000Y-67776700D02*
X102655000Y-68580000D01*
X113831000Y-67310000D02*
X115062000Y-67310000D01*
X113831000Y-69850000D02*
X115062000Y-69850000D01*
X113831000Y-70360200D02*
X113831000Y-69850000D01*
X102655000Y-71120000D02*
X113071000Y-71120000D01*
X113071000Y-71120000D02*
X113831000Y-70360200D01*
X100620000Y-69855000D02*
X101851000Y-69855000D01*
X101851000Y-69855000D02*
X101851000Y-70316700D01*
X101851000Y-70316700D02*
X102655000Y-71120000D01*
X102655000Y-73660000D02*
X113071000Y-73660000D01*
X113071000Y-73660000D02*
X113831000Y-72900200D01*
X100620000Y-72395000D02*
X101851000Y-72395000D01*
X101851000Y-72395000D02*
X101851000Y-72856700D01*
X113831000Y-72390000D02*
X115062000Y-72390000D01*
X101851000Y-72856700D02*
X102655000Y-73660000D01*
X113831000Y-72900200D02*
X113831000Y-72390000D01*
X115062000Y-74930000D02*
X113831000Y-74930000D01*
X101851000Y-74935000D02*
X100620000Y-74935000D01*
X102655000Y-76200000D02*
X101851000Y-75396700D01*
X113071000Y-76200000D02*
X102655000Y-76200000D01*
X101851000Y-75396700D02*
X101851000Y-74935000D01*
X113831000Y-74930000D02*
X113831000Y-75440200D01*
X113831000Y-75440200D02*
X113071000Y-76200000D01*
X101851000Y-77936700D02*
X102655000Y-78740000D01*
X113071000Y-78740000D02*
X113831000Y-77980200D01*
X101851000Y-77475000D02*
X101851000Y-77936700D01*
X113831000Y-77470000D02*
X115062000Y-77470000D01*
X102655000Y-78740000D02*
X113071000Y-78740000D01*
X100620000Y-77475000D02*
X101851000Y-77475000D01*
X113831000Y-77980200D02*
X113831000Y-77470000D01*
X100620000Y-80015000D02*
X101851000Y-80015000D01*
X101851000Y-80015000D02*
X101851000Y-80476700D01*
X102655000Y-81280000D02*
X113071000Y-81280000D01*
X113071000Y-81280000D02*
X113831000Y-80520200D01*
X113831000Y-80520200D02*
X113831000Y-80010000D01*
X113831000Y-80010000D02*
X115062000Y-80010000D01*
X101851000Y-80476700D02*
X102655000Y-81280000D01*
X101851000Y-82555000D02*
X101851000Y-83016700D01*
X101851000Y-83016700D02*
X102655000Y-83820000D01*
X100620000Y-82555000D02*
X101851000Y-82555000D01*
X113831000Y-82550000D02*
X115062000Y-82550000D01*
X113071000Y-83820000D02*
X113831000Y-83060200D01*
X102655000Y-83820000D02*
X113071000Y-83820000D01*
X113831000Y-83060200D02*
X113831000Y-82550000D01*
X101851000Y-85556700D02*
X102655000Y-86360000D01*
X113831000Y-85600200D02*
X113831000Y-85090000D01*
X113831000Y-85090000D02*
X115062000Y-85090000D01*
X113071000Y-86360000D02*
X113831000Y-85600200D01*
X100620000Y-85095000D02*
X101851000Y-85095000D01*
X102655000Y-86360000D02*
X113071000Y-86360000D01*
X101851000Y-85095000D02*
X101851000Y-85556700D01*
X113831000Y-87630000D02*
X113831000Y-88140200D01*
X115062000Y-87630000D02*
X113831000Y-87630000D01*
X113831000Y-88140200D02*
X113071000Y-88900000D01*
X101851000Y-87635000D02*
X100620000Y-87635000D01*
X101851000Y-88096700D02*
X101851000Y-87635000D01*
X102655000Y-88900000D02*
X101851000Y-88096700D01*
X113071000Y-88900000D02*
X102655000Y-88900000D01*
X113071000Y-91440000D02*
X113831000Y-90680200D01*
X100620000Y-90175000D02*
X101851000Y-90175000D01*
X101851000Y-90175000D02*
X101851000Y-90636700D01*
X113831000Y-90170000D02*
X115062000Y-90170000D01*
X101851000Y-90636700D02*
X102655000Y-91440000D01*
X102655000Y-91440000D02*
X113071000Y-91440000D01*
X113831000Y-90680200D02*
X113831000Y-90170000D01*
X102655000Y-96520000D02*
X101851000Y-95716700D01*
X115062000Y-95250000D02*
X113831000Y-95250000D01*
X101851000Y-95716700D02*
X101851000Y-95255000D01*
X113831000Y-95250000D02*
X113831000Y-95760200D01*
X101851000Y-95255000D02*
X100620000Y-95255000D01*
X113831000Y-95760200D02*
X113071000Y-96520000D01*
X113071000Y-96520000D02*
X102655000Y-96520000D01*
X113831000Y-98300200D02*
X113831000Y-97790000D01*
X113071000Y-99060000D02*
X113831000Y-98300200D01*
X101851000Y-97795000D02*
X101851000Y-98256700D01*
X113831000Y-97790000D02*
X115062000Y-97790000D01*
X101851000Y-98256700D02*
X102655000Y-99060000D01*
X100620000Y-97795000D02*
X101851000Y-97795000D01*
X102655000Y-99060000D02*
X113071000Y-99060000D01*
X103160000Y-62235000D02*
X111286000Y-62235000D01*
X111286000Y-62235000D02*
X111291000Y-62230000D01*
X111291000Y-62230000D02*
X112522000Y-62230000D01*
X103160000Y-64775000D02*
X111286000Y-64775000D01*
X111291000Y-64770000D02*
X112522000Y-64770000D01*
X111286000Y-64775000D02*
X111291000Y-64770000D01*
X102655000Y-93980000D02*
X113071000Y-93980000D01*
X113071000Y-93980000D02*
X113831000Y-93220200D01*
X113831000Y-93220200D02*
X113831000Y-92710000D01*
X100620000Y-92715000D02*
X101851000Y-92715000D01*
X101851000Y-92715000D02*
X101851000Y-93176700D01*
X113831000Y-92710000D02*
X115062000Y-92710000D01*
X101851000Y-93176700D02*
X102655000Y-93980000D01*
X113071000Y-119380000D02*
X113831000Y-118620000D01*
X113831000Y-118620000D02*
X113831000Y-118110000D01*
X101851000Y-118115000D02*
X101851000Y-118577000D01*
X113831000Y-118110000D02*
X115062000Y-118110000D01*
X102655000Y-119380000D02*
X113071000Y-119380000D01*
X100620000Y-118115000D02*
X101851000Y-118115000D01*
X101851000Y-118577000D02*
X102655000Y-119380000D01*
X113831000Y-113540000D02*
X113831000Y-113030000D01*
X113071000Y-114300000D02*
X113831000Y-113540000D01*
X100620000Y-113035000D02*
X101851000Y-113035000D01*
X102655000Y-114300000D02*
X113071000Y-114300000D01*
X101851000Y-113035000D02*
X101851000Y-113497000D01*
X113831000Y-113030000D02*
X115062000Y-113030000D01*
X101851000Y-113497000D02*
X102655000Y-114300000D01*
X113831000Y-111000000D02*
X113831000Y-110490000D01*
X100620000Y-110495000D02*
X101851000Y-110495000D01*
X101851000Y-110495000D02*
X101851000Y-110957000D01*
X101851000Y-110957000D02*
X102655000Y-111760000D01*
X113071000Y-111760000D02*
X113831000Y-111000000D01*
X102655000Y-111760000D02*
X113071000Y-111760000D01*
X113831000Y-110490000D02*
X115062000Y-110490000D01*
X102655000Y-109220000D02*
X113071000Y-109220000D01*
X113071000Y-109220000D02*
X113831000Y-108460000D01*
X113831000Y-107950000D02*
X115062000Y-107950000D01*
X113831000Y-108460000D02*
X113831000Y-107950000D01*
X101851000Y-107955000D02*
X101851000Y-108417000D01*
X101851000Y-108417000D02*
X102655000Y-109220000D01*
X100620000Y-107955000D02*
X101851000Y-107955000D01*
X111286000Y-72395000D02*
X103160000Y-72395000D01*
X112522000Y-72390000D02*
X111291000Y-72390000D01*
X111291000Y-72390000D02*
X111286000Y-72395000D01*
X111286000Y-69855000D02*
X111291000Y-69850000D01*
X103160000Y-69855000D02*
X111286000Y-69855000D01*
X111291000Y-69850000D02*
X112522000Y-69850000D01*
X112522000Y-67310000D02*
X111291000Y-67310000D01*
X111291000Y-67310000D02*
X111286000Y-67315000D01*
X111286000Y-67315000D02*
X103160000Y-67315000D01*
X101851000Y-123195000D02*
X101851000Y-123657000D01*
X102655000Y-124460000D02*
X113071000Y-124460000D01*
X113071000Y-124460000D02*
X113831000Y-123700000D01*
X101851000Y-123657000D02*
X102655000Y-124460000D01*
X113831000Y-123190000D02*
X115062000Y-123190000D01*
X113831000Y-123700000D02*
X113831000Y-123190000D01*
X100620000Y-123195000D02*
X101851000Y-123195000D01*
X101851000Y-128275000D02*
X100620000Y-128275000D01*
X113831000Y-128270000D02*
X113831000Y-128780000D01*
X113831000Y-128780000D02*
X113071000Y-129540000D01*
X101851000Y-128737000D02*
X101851000Y-128275000D01*
X102655000Y-129540000D02*
X101851000Y-128737000D01*
X115062000Y-128270000D02*
X113831000Y-128270000D01*
X113071000Y-129540000D02*
X102655000Y-129540000D01*
X100620000Y-115575000D02*
X101851000Y-115575000D01*
X113071000Y-116840000D02*
X113831000Y-116080000D01*
X101851000Y-115575000D02*
X101851000Y-116037000D01*
X113831000Y-116080000D02*
X113831000Y-115570000D01*
X113831000Y-115570000D02*
X115062000Y-115570000D01*
X101851000Y-116037000D02*
X102655000Y-116840000D01*
X102655000Y-116840000D02*
X113071000Y-116840000D01*
X101851000Y-102875000D02*
X101851000Y-103337000D01*
X101851000Y-103337000D02*
X102655000Y-104140000D01*
X113831000Y-103380000D02*
X113831000Y-102870000D01*
X113071000Y-104140000D02*
X113831000Y-103380000D01*
X100620000Y-102875000D02*
X101851000Y-102875000D01*
X102655000Y-104140000D02*
X113071000Y-104140000D01*
X113831000Y-102870000D02*
X115062000Y-102870000D01*
X113831000Y-100840000D02*
X113831000Y-100330000D01*
X100620000Y-100335000D02*
X101851000Y-100335000D01*
X101851000Y-100797000D02*
X102655000Y-101600000D01*
X113831000Y-100330000D02*
X115062000Y-100330000D01*
X102655000Y-101600000D02*
X113071000Y-101600000D01*
X101851000Y-100335000D02*
X101851000Y-100797000D01*
X113071000Y-101600000D02*
X113831000Y-100840000D01*
X113831000Y-126240000D02*
X113831000Y-125730000D01*
X101851000Y-125735000D02*
X101851000Y-126197000D01*
X113071000Y-127000000D02*
X113831000Y-126240000D01*
X113831000Y-125730000D02*
X115062000Y-125730000D01*
X100620000Y-125735000D02*
X101851000Y-125735000D01*
X102655000Y-127000000D02*
X113071000Y-127000000D01*
X101851000Y-126197000D02*
X102655000Y-127000000D01*
X158496000Y-83530000D02*
X159727300Y-83530000D01*
X165862000Y-77216000D02*
X159727300Y-83350700D01*
X159727300Y-83350700D02*
X159727300Y-83530000D01*
X164771300Y-75946000D02*
X159727300Y-80990000D01*
X167132000Y-75946000D02*
X164771300Y-75946000D01*
X158496000Y-80990000D02*
X159727300Y-80990000D01*
X168402000Y-74676000D02*
X167132000Y-75946000D01*
X168402000Y-72136000D02*
X167132000Y-73406000D01*
X167132000Y-73406000D02*
X162231300Y-73406000D01*
X158496000Y-75910000D02*
X159727300Y-75910000D01*
X162231300Y-73406000D02*
X159727300Y-75910000D01*
X165862000Y-72136000D02*
X160961300Y-72136000D01*
X160961300Y-72136000D02*
X159727300Y-73370000D01*
X158496000Y-73370000D02*
X159727300Y-73370000D01*
X167168000Y-70830000D02*
X158496000Y-70830000D01*
X168402000Y-69596000D02*
X167168000Y-70830000D01*
X161033300Y-69596000D02*
X159727300Y-68290000D01*
X158496000Y-68290000D02*
X159727300Y-68290000D01*
X165862000Y-69596000D02*
X161033300Y-69596000D01*
X167096000Y-65750000D02*
X158496000Y-65750000D01*
X168402000Y-67056000D02*
X167096000Y-65750000D01*
X168402000Y-64516000D02*
X164556000Y-60670000D01*
X164556000Y-60670000D02*
X158496000Y-60670000D01*
X168402000Y-61976000D02*
X168402000Y-61901300D01*
X162052000Y-54320000D02*
X162052000Y-55551300D01*
X168402000Y-61901300D02*
X162052000Y-55551300D01*
X170942000Y-59361300D02*
X167132000Y-55551300D01*
X170942000Y-61976000D02*
X170942000Y-59361300D01*
X167132000Y-54320000D02*
X167132000Y-55551300D01*
X178562000Y-61976000D02*
X182372000Y-58166000D01*
X182372000Y-58166000D02*
X182372000Y-54320000D01*
X187452000Y-55626000D02*
X187452000Y-54320000D01*
X181102000Y-61976000D02*
X187452000Y-55626000D01*
X187452000Y-87340000D02*
X187452000Y-86108700D01*
X181102000Y-79756000D02*
X181102000Y-79758700D01*
X181102000Y-79758700D02*
X187452000Y-86108700D01*
X170942000Y-82298700D02*
X167132000Y-86108700D01*
X167132000Y-87340000D02*
X167132000Y-86108700D01*
X170942000Y-79756000D02*
X170942000Y-82298700D01*
X162052000Y-86106000D02*
X162052000Y-87340000D01*
X168402000Y-79756000D02*
X162052000Y-86106000D01*
X191008000Y-58166000D02*
X189776700Y-58166000D01*
X183642000Y-64516000D02*
X189776700Y-58381300D01*
X189776700Y-58381300D02*
X189776700Y-58166000D01*
X191008000Y-60706000D02*
X189776700Y-60706000D01*
X182372000Y-65786000D02*
X184696700Y-65786000D01*
X181102000Y-67056000D02*
X182372000Y-65786000D01*
X184696700Y-65786000D02*
X189776700Y-60706000D01*
X191008000Y-65786000D02*
X189776700Y-65786000D01*
X187236700Y-68326000D02*
X189776700Y-65786000D01*
X181102000Y-69596000D02*
X182372000Y-68326000D01*
X182372000Y-68326000D02*
X187236700Y-68326000D01*
X191008000Y-68326000D02*
X189776700Y-68326000D01*
X183642000Y-69596000D02*
X188506700Y-69596000D01*
X188506700Y-69596000D02*
X189776700Y-68326000D01*
X181102000Y-72136000D02*
X182372000Y-70866000D01*
X182372000Y-70866000D02*
X191008000Y-70866000D01*
X191008000Y-73406000D02*
X189776700Y-73406000D01*
X183642000Y-72136000D02*
X188506700Y-72136000D01*
X188506700Y-72136000D02*
X189776700Y-73406000D01*
X181102000Y-74676000D02*
X182372000Y-75946000D01*
X182372000Y-75946000D02*
X191008000Y-75946000D01*
X181102000Y-77216000D02*
X184912000Y-81026000D01*
X184912000Y-81026000D02*
X191008000Y-81026000D01*
M02*
