M48
; DRILL file {KiCad (6.0.2)} date Thu May  5 17:12:44 2022
; FORMAT={-:-/ absolute / inch / decimal}
; #@! TF.CreationDate,2022-05-05T17:12:44-07:00
; #@! TF.GenerationSoftware,Kicad,Pcbnew,(6.0.2)
; #@! TF.FileFunction,Plated,1,2,PTH
FMAT,2
INCH
; #@! TA.AperFunction,Plated,PTH,ViaDrill
T1C0.0157
; #@! TA.AperFunction,Plated,PTH,ComponentDrill
T2C0.0315
; #@! TA.AperFunction,Plated,PTH,ComponentDrill
T3C0.0394
%
G90
G05
T1
X2.7814Y-3.3803
X2.7816Y-3.8015
X2.804Y-2.3034
X2.855Y-2.5127
X2.8564Y-3.613
X2.9814Y-4.2092
X3.058Y-1.9197
X3.1349Y-2.7542
X3.1662Y-2.7187
X3.227Y-2.896
X3.2834Y-4.0391
X3.2946Y-3.7449
X3.4069Y-3.4248
X3.4373Y-3.0607
X3.46Y-3.121
X3.4795Y-4.0122
X3.4886Y-3.4484
X3.5273Y-4.6587
X3.5273Y-4.709
X3.6149Y-4.6793
X3.6415Y-3.7367
X3.6427Y-4.9101
X3.6504Y-4.0891
X3.6836Y-4.6029
X3.685Y-4.0263
X3.6907Y-4.8401
X3.7206Y-4.004
X3.7769Y-3.2361
X3.7773Y-4.4165
X3.791Y-3.4953
X3.8286Y-2.7727
X3.8328Y-4.917
X3.8341Y-4.1664
X3.9114Y-4.3723
X3.9301Y-2.1963
X3.9628Y-4.9194
X3.9678Y-3.9848
X4.0149Y-3.1115
X4.0375Y-3.3918
X4.045Y-3.9913
X4.2025Y-3.7511
X4.2279Y-3.6948
X4.2415Y-5.1818
X4.2701Y-3.433
X4.3309Y-3.583
X4.4547Y-2.8173
X4.5144Y-3.458
X4.5219Y-4.7212
X4.5399Y-2.5009
X4.5443Y-3.8267
X4.7001Y-4.6832
X4.7037Y-2.7561
X4.731Y-2.4332
X4.7395Y-4.6502
X4.7764Y-2.8728
X4.8425Y-2.5467
X4.8711Y-2.6967
X4.8856Y-3.9832
X4.9347Y-2.6185
X4.9633Y-2.6974
X4.984Y-4.6876
X4.995Y-4.6175
X5.0075Y-3.6387
X5.1639Y-3.3436
X5.1819Y-4.1652
X5.1842Y-2.6887
X5.2036Y-3.8227
X5.2401Y-4.1405
X5.2634Y-3.7991
X5.5439Y-2.8087
X5.6022Y-3.3041
X5.6875Y-2.7955
T2
X2.823Y-3.961
X2.823Y-4.261
X2.832Y-1.858
X2.832Y-1.958
X2.832Y-2.058
X2.832Y-2.158
X2.832Y-2.258
X2.832Y-2.358
X2.832Y-2.458
X2.836Y-3.154
X2.836Y-3.254
X2.836Y-3.354
X2.836Y-3.454
X2.836Y-3.554
X2.932Y-1.758
X2.932Y-1.858
X2.932Y-1.958
X2.932Y-2.058
X2.932Y-2.158
X2.932Y-2.258
X2.932Y-2.358
X2.932Y-2.458
X2.932Y-2.558
X2.936Y-3.054
X2.936Y-3.154
X2.936Y-3.254
X2.936Y-3.354
X2.936Y-3.454
X2.936Y-3.554
X2.936Y-3.654
X3.032Y-1.758
X3.032Y-1.858
X3.032Y-2.458
X3.032Y-2.558
X3.036Y-3.054
X3.036Y-3.154
X3.036Y-3.554
X3.036Y-3.654
X3.123Y-3.961
X3.123Y-4.261
X3.132Y-1.758
X3.132Y-1.858
X3.132Y-2.458
X3.132Y-2.558
X3.136Y-3.054
X3.136Y-3.154
X3.136Y-3.554
X3.136Y-3.654
X3.232Y-1.758
X3.232Y-1.858
X3.232Y-2.458
X3.232Y-2.558
X3.236Y-3.054
X3.236Y-3.154
X3.236Y-3.254
X3.236Y-3.354
X3.236Y-3.454
X3.236Y-3.554
X3.236Y-3.654
X3.332Y-1.758
X3.332Y-1.858
X3.332Y-2.458
X3.332Y-2.558
X3.336Y-3.154
X3.336Y-3.254
X3.336Y-3.354
X3.336Y-3.454
X3.336Y-3.554
X3.432Y-1.758
X3.432Y-1.858
X3.432Y-2.458
X3.432Y-2.558
X3.532Y-1.758
X3.532Y-1.858
X3.532Y-1.958
X3.532Y-2.058
X3.532Y-2.158
X3.532Y-2.258
X3.532Y-2.358
X3.532Y-2.458
X3.532Y-2.558
X3.62Y-3.8962
X3.62Y-4.4962
X3.632Y-1.858
X3.632Y-1.958
X3.632Y-2.058
X3.632Y-2.158
X3.632Y-2.258
X3.632Y-2.358
X3.632Y-2.458
X3.6424Y-2.9918
X3.6424Y-3.0918
X3.6424Y-3.1918
X3.6424Y-3.2918
X3.6424Y-3.3918
X3.6424Y-3.4918
X3.6424Y-3.5918
X3.72Y-3.8962
X3.72Y-4.4962
X3.82Y-3.8962
X3.82Y-4.4962
X3.92Y-3.8962
X3.92Y-4.4962
X3.9424Y-2.9918
X3.9424Y-3.0918
X3.9424Y-3.1918
X3.9424Y-3.2918
X3.9424Y-3.3918
X3.9424Y-3.4918
X3.9424Y-3.5918
X4.02Y-3.8962
X4.02Y-4.4962
X4.12Y-3.8962
X4.12Y-4.4962
X4.1294Y-2.9918
X4.1294Y-3.0918
X4.1294Y-3.1918
X4.1294Y-3.2918
X4.1294Y-3.3918
X4.1294Y-3.4918
X4.1294Y-3.5918
X4.1294Y-3.6918
X4.22Y-3.8962
X4.22Y-4.4962
X4.32Y-3.8962
X4.32Y-4.4962
X4.42Y-3.8962
X4.42Y-4.4962
X4.4294Y-2.9918
X4.4294Y-3.0918
X4.4294Y-3.1918
X4.4294Y-3.2918
X4.4294Y-3.3918
X4.4294Y-3.4918
X4.4294Y-3.5918
X4.4294Y-3.6918
X4.481Y-1.8627
X4.481Y-1.9627
X4.481Y-2.0627
X4.481Y-2.1627
X4.481Y-2.2627
X4.481Y-2.3627
X4.52Y-3.8962
X4.52Y-4.4962
X4.581Y-1.7627
X4.581Y-1.8627
X4.581Y-1.9627
X4.581Y-2.0627
X4.581Y-2.1627
X4.581Y-2.2627
X4.581Y-2.3627
X4.581Y-2.4627
X4.62Y-3.8962
X4.62Y-4.4962
X4.6264Y-2.9918
X4.6264Y-3.0918
X4.6264Y-3.1918
X4.6264Y-3.2918
X4.6264Y-3.3918
X4.6264Y-3.4918
X4.6264Y-3.5918
X4.681Y-1.7627
X4.681Y-1.8627
X4.681Y-2.3627
X4.681Y-2.4627
X4.72Y-3.8962
X4.72Y-4.4962
X4.781Y-1.7627
X4.781Y-1.8627
X4.781Y-2.3627
X4.781Y-2.4627
X4.82Y-3.8962
X4.82Y-4.4962
X4.881Y-1.7627
X4.881Y-1.8627
X4.881Y-2.3627
X4.881Y-2.4627
X4.92Y-3.8962
X4.92Y-4.4962
X4.9264Y-2.9918
X4.9264Y-3.0918
X4.9264Y-3.1918
X4.9264Y-3.2918
X4.9264Y-3.3918
X4.9264Y-3.4918
X4.9264Y-3.5918
X4.981Y-1.7627
X4.981Y-1.8627
X4.981Y-2.3627
X4.981Y-2.4627
X5.02Y-3.8962
X5.02Y-4.4962
X5.081Y-1.7627
X5.081Y-1.8627
X5.081Y-1.9627
X5.081Y-2.0627
X5.081Y-2.1627
X5.081Y-2.2627
X5.081Y-2.3627
X5.081Y-2.4627
X5.1184Y-2.9918
X5.1184Y-3.0918
X5.1184Y-3.1918
X5.1184Y-3.2918
X5.1184Y-3.3918
X5.1184Y-3.4918
X5.1184Y-3.5918
X5.1184Y-3.6918
X5.12Y-3.8962
X5.12Y-4.4962
X5.181Y-1.8627
X5.181Y-1.9627
X5.181Y-2.0627
X5.181Y-2.1627
X5.181Y-2.2627
X5.181Y-2.3627
X5.4184Y-2.9918
X5.4184Y-3.0918
X5.4184Y-3.1918
X5.4184Y-3.2918
X5.4184Y-3.3918
X5.4184Y-3.4918
X5.4184Y-3.5918
X5.4184Y-3.6918
X5.4604Y-3.9606
X5.4604Y-4.2606
X5.513Y-1.7478
X5.513Y-2.3478
X5.5604Y-3.9606
X5.5604Y-4.2606
X5.6604Y-3.9606
X5.6604Y-4.2606
X5.7604Y-3.9606
X5.7604Y-4.2606
X5.813Y-1.7478
X5.813Y-2.3478
T3
X2.791Y-4.523
X2.791Y-4.623
X2.791Y-4.723
X2.815Y-4.977
X2.815Y-5.077
X2.915Y-4.977
X2.915Y-5.077
X3.015Y-4.977
X3.015Y-5.077
X3.115Y-4.977
X3.115Y-5.077
X3.116Y-4.523
X3.116Y-4.623
X3.215Y-4.977
X3.215Y-5.077
X3.315Y-4.977
X3.315Y-5.077
X3.415Y-4.977
X3.415Y-5.077
X3.515Y-4.977
X3.515Y-5.077
X3.615Y-4.977
X3.615Y-5.077
X3.715Y-4.977
X3.715Y-5.077
X3.815Y-4.977
X3.815Y-5.077
X3.915Y-4.977
X3.915Y-5.077
X4.015Y-4.977
X4.015Y-5.077
X4.115Y-4.977
X4.115Y-5.077
X4.215Y-4.977
X4.215Y-5.077
X4.315Y-4.977
X4.315Y-5.077
X4.415Y-4.977
X4.415Y-5.077
X4.515Y-4.977
X4.515Y-5.077
X4.615Y-4.977
X4.615Y-5.077
X4.715Y-4.977
X4.715Y-5.077
X4.815Y-4.977
X4.815Y-5.077
X4.915Y-4.977
X4.915Y-5.077
X5.015Y-4.977
X5.015Y-5.077
X5.115Y-4.977
X5.115Y-5.077
X5.215Y-4.977
X5.215Y-5.077
X5.315Y-4.977
X5.315Y-5.077
X5.415Y-4.977
X5.415Y-5.077
X5.515Y-4.977
X5.515Y-5.077
X5.615Y-4.977
X5.615Y-5.077
X5.715Y-4.977
X5.715Y-5.077
X5.7614Y-2.8573
X5.7614Y-2.9573
X5.7614Y-3.0573
X5.7614Y-3.1573
X5.7614Y-3.2573
X5.7614Y-3.3573
X5.7614Y-3.4573
X5.7614Y-3.5573
X5.7614Y-3.6573
X5.7614Y-3.7573
X5.815Y-4.977
X5.815Y-5.077
X5.915Y-4.977
X5.915Y-5.077
X6.1194Y-2.8573
X6.1194Y-2.9573
X6.1194Y-3.0573
X6.1194Y-3.1573
X6.1194Y-3.2573
X6.1194Y-3.3573
X6.1194Y-3.4573
X6.1194Y-3.5573
X6.1194Y-3.6573
X6.1194Y-3.7573
X6.192Y-2.2214
X6.192Y-2.3214
X6.192Y-2.4214
X6.192Y-2.5214
X6.193Y-1.709
X6.193Y-1.809
X6.193Y-1.909
X6.193Y-2.009
T0
M30
