%TF.GenerationSoftware,KiCad,Pcbnew,(6.0.2)*%
%TF.CreationDate,2022-05-05T17:12:40-07:00*%
%TF.ProjectId,Steve 68k,53746576-6520-4363-986b-2e6b69636164,rev?*%
%TF.SameCoordinates,Original*%
%TF.FileFunction,Soldermask,Top*%
%TF.FilePolarity,Negative*%
%FSLAX46Y46*%
G04 Gerber Fmt 4.6, Leading zero omitted, Abs format (unit mm)*
G04 Created by KiCad (PCBNEW (6.0.2)) date 2022-05-05 17:12:40*
%MOMM*%
%LPD*%
G01*
G04 APERTURE LIST*
G04 Aperture macros list*
%AMRoundRect*
0 Rectangle with rounded corners*
0 $1 Rounding radius*
0 $2 $3 $4 $5 $6 $7 $8 $9 X,Y pos of 4 corners*
0 Add a 4 corners polygon primitive as box body*
4,1,4,$2,$3,$4,$5,$6,$7,$8,$9,$2,$3,0*
0 Add four circle primitives for the rounded corners*
1,1,$1+$1,$2,$3*
1,1,$1+$1,$4,$5*
1,1,$1+$1,$6,$7*
1,1,$1+$1,$8,$9*
0 Add four rect primitives between the rounded corners*
20,1,$1+$1,$2,$3,$4,$5,0*
20,1,$1+$1,$4,$5,$6,$7,0*
20,1,$1+$1,$6,$7,$8,$9,0*
20,1,$1+$1,$8,$9,$2,$3,0*%
G04 Aperture macros list end*
%ADD10RoundRect,0.200000X0.200000X0.275000X-0.200000X0.275000X-0.200000X-0.275000X0.200000X-0.275000X0*%
%ADD11RoundRect,0.250000X-0.375000X-0.625000X0.375000X-0.625000X0.375000X0.625000X-0.375000X0.625000X0*%
%ADD12R,1.550000X1.300000*%
%ADD13RoundRect,0.200000X-0.200000X-0.275000X0.200000X-0.275000X0.200000X0.275000X-0.200000X0.275000X0*%
%ADD14RoundRect,0.225000X0.250000X-0.225000X0.250000X0.225000X-0.250000X0.225000X-0.250000X-0.225000X0*%
%ADD15RoundRect,0.250000X-1.050000X-0.550000X1.050000X-0.550000X1.050000X0.550000X-1.050000X0.550000X0*%
%ADD16RoundRect,0.225000X-0.250000X0.225000X-0.250000X-0.225000X0.250000X-0.225000X0.250000X0.225000X0*%
%ADD17RoundRect,0.225000X-0.225000X-0.250000X0.225000X-0.250000X0.225000X0.250000X-0.225000X0.250000X0*%
%ADD18R,1.600000X2.400000*%
%ADD19O,1.600000X2.400000*%
%ADD20R,1.422400X1.422400*%
%ADD21C,1.422400*%
%ADD22R,2.400000X1.600000*%
%ADD23O,2.400000X1.600000*%
%ADD24O,1.700000X1.700000*%
%ADD25R,1.700000X1.700000*%
%ADD26C,1.600000*%
%ADD27R,1.600000X1.600000*%
G04 APERTURE END LIST*
D10*
%TO.C,R7*%
X154079800Y-100457000D03*
X152429800Y-100457000D03*
%TD*%
D11*
%TO.C,D2*%
X156410200Y-100457000D03*
X159210200Y-100457000D03*
%TD*%
D12*
%TO.C,SW1*%
X160642200Y-114894800D03*
X152692200Y-114894800D03*
X152692200Y-119394800D03*
X160642200Y-119394800D03*
%TD*%
D13*
%TO.C,R10*%
X98768400Y-44043600D03*
X100418400Y-44043600D03*
%TD*%
D10*
%TO.C,R9*%
X154079800Y-108127800D03*
X152429800Y-108127800D03*
%TD*%
D13*
%TO.C,R8*%
X152429800Y-104368600D03*
X154079800Y-104368600D03*
%TD*%
D10*
%TO.C,R6*%
X141588000Y-66776600D03*
X139938000Y-66776600D03*
%TD*%
%TO.C,R5*%
X97253400Y-95326400D03*
X95603400Y-95326400D03*
%TD*%
D13*
%TO.C,R4*%
X98870000Y-60960100D03*
X100520000Y-60960100D03*
%TD*%
%TO.C,R3*%
X98870000Y-56705500D03*
X100520000Y-56705500D03*
%TD*%
%TO.C,R2*%
X98870000Y-52451000D03*
X100520000Y-52451000D03*
%TD*%
%TO.C,R1*%
X98870000Y-48196500D03*
X100520000Y-48196500D03*
%TD*%
D11*
%TO.C,D4*%
X156410200Y-108178600D03*
X159210200Y-108178600D03*
%TD*%
%TO.C,D3*%
X156410200Y-104394000D03*
X159210200Y-104394000D03*
%TD*%
%TO.C,D1*%
X145132600Y-66776600D03*
X147932600Y-66776600D03*
%TD*%
D14*
%TO.C,C16*%
X151013000Y-77610200D03*
X151013000Y-76060200D03*
%TD*%
D15*
%TO.C,C15*%
X139652600Y-119126000D03*
X143252600Y-119126000D03*
%TD*%
D14*
%TO.C,C14*%
X141919800Y-77610200D03*
X141919800Y-76060200D03*
%TD*%
D16*
%TO.C,C13*%
X134543800Y-103517400D03*
X134543800Y-105067400D03*
%TD*%
%TO.C,C12*%
X135610600Y-109321600D03*
X135610600Y-110871600D03*
%TD*%
%TO.C,C11*%
X87706200Y-105778000D03*
X87706200Y-107328000D03*
%TD*%
D14*
%TO.C,C10*%
X153466800Y-126885400D03*
X153466800Y-128435400D03*
%TD*%
D17*
%TO.C,C9*%
X95577200Y-72085400D03*
X97127200Y-72085400D03*
%TD*%
%TO.C,C8*%
X107896200Y-72085400D03*
X109446200Y-72085400D03*
%TD*%
%TO.C,C7*%
X133067600Y-72085400D03*
X134617600Y-72085400D03*
%TD*%
%TO.C,C6*%
X144793000Y-39319200D03*
X143243000Y-39319200D03*
%TD*%
%TO.C,C5*%
X120545400Y-72085400D03*
X122095400Y-72085400D03*
%TD*%
%TO.C,C4*%
X121932400Y-39319200D03*
X123482400Y-39319200D03*
%TD*%
D14*
%TO.C,C3*%
X83820000Y-103847600D03*
X83820000Y-105397600D03*
%TD*%
D17*
%TO.C,C2*%
X77644800Y-72085400D03*
X79194800Y-72085400D03*
%TD*%
%TO.C,C1*%
X81470200Y-39319200D03*
X83020200Y-39319200D03*
%TD*%
D18*
%TO.C,U7*%
X91948000Y-114203400D03*
D19*
X94488000Y-114203400D03*
X97028000Y-114203400D03*
X99568000Y-114203400D03*
X102108000Y-114203400D03*
X104648000Y-114203400D03*
X107188000Y-114203400D03*
X109728000Y-114203400D03*
X112268000Y-114203400D03*
X114808000Y-114203400D03*
X117348000Y-114203400D03*
X119888000Y-114203400D03*
X122428000Y-114203400D03*
X124968000Y-114203400D03*
X127508000Y-114203400D03*
X130048000Y-114203400D03*
X130048000Y-98963400D03*
X127508000Y-98963400D03*
X124968000Y-98963400D03*
X122428000Y-98963400D03*
X119888000Y-98963400D03*
X117348000Y-98963400D03*
X114808000Y-98963400D03*
X112268000Y-98963400D03*
X109728000Y-98963400D03*
X107188000Y-98963400D03*
X104648000Y-98963400D03*
X102108000Y-98963400D03*
X99568000Y-98963400D03*
X97028000Y-98963400D03*
X94488000Y-98963400D03*
X91948000Y-98963400D03*
%TD*%
D20*
%TO.C,U5*%
X123977400Y-47313200D03*
D21*
X121437400Y-44773200D03*
X121437400Y-47313200D03*
X118897400Y-44773200D03*
X118897400Y-47313200D03*
X116357400Y-44773200D03*
X113817400Y-47313200D03*
X116357400Y-47313200D03*
X113817400Y-49853200D03*
X116357400Y-49853200D03*
X113817400Y-52393200D03*
X116357400Y-52393200D03*
X113817400Y-54933200D03*
X116357400Y-54933200D03*
X113817400Y-57473200D03*
X116357400Y-57473200D03*
X113817400Y-60013200D03*
X116357400Y-62553200D03*
X116357400Y-60013200D03*
X118897400Y-62553200D03*
X118897400Y-60013200D03*
X121437400Y-62553200D03*
X121437400Y-60013200D03*
X123977400Y-62553200D03*
X123977400Y-60013200D03*
X126517400Y-62553200D03*
X126517400Y-60013200D03*
X129057400Y-62553200D03*
X131597400Y-60013200D03*
X129057400Y-60013200D03*
X131597400Y-57473200D03*
X129057400Y-57473200D03*
X131597400Y-54933200D03*
X129057400Y-54933200D03*
X131597400Y-52393200D03*
X129057400Y-52393200D03*
X131597400Y-49853200D03*
X129057400Y-49853200D03*
X131597400Y-47313200D03*
X129057400Y-44773200D03*
X129057400Y-47313200D03*
X126517400Y-44773200D03*
X126517400Y-47313200D03*
X123977400Y-44773200D03*
%TD*%
D22*
%TO.C,U3*%
X104886600Y-75991800D03*
D23*
X104886600Y-78531800D03*
X104886600Y-81071800D03*
X104886600Y-83611800D03*
X104886600Y-86151800D03*
X104886600Y-88691800D03*
X104886600Y-91231800D03*
X104886600Y-93771800D03*
X112506600Y-93771800D03*
X112506600Y-91231800D03*
X112506600Y-88691800D03*
X112506600Y-86151800D03*
X112506600Y-83611800D03*
X112506600Y-81071800D03*
X112506600Y-78531800D03*
X112506600Y-75991800D03*
%TD*%
D24*
%TO.C,J7*%
X157302200Y-51028600D03*
X157302200Y-48488600D03*
X157302200Y-45948600D03*
D25*
X157302200Y-43408600D03*
%TD*%
D21*
%TO.C,U2*%
X79655200Y-77571800D03*
X82195200Y-80111800D03*
X82195200Y-77571800D03*
X84735200Y-80111800D03*
X82195200Y-82651800D03*
X84735200Y-82651800D03*
X82195200Y-85191800D03*
X84735200Y-85191800D03*
X82195200Y-87731800D03*
X84735200Y-87731800D03*
X82195200Y-90271800D03*
X84735200Y-90271800D03*
X82195200Y-92811800D03*
X79655200Y-90271800D03*
X79655200Y-92811800D03*
X77115200Y-90271800D03*
X77115200Y-92811800D03*
X74575200Y-90271800D03*
X74575200Y-92811800D03*
X72035200Y-90271800D03*
X74575200Y-87731800D03*
X72035200Y-87731800D03*
X74575200Y-85191800D03*
X72035200Y-85191800D03*
X74575200Y-82651800D03*
X72035200Y-82651800D03*
X74575200Y-80111800D03*
X72035200Y-80111800D03*
X74575200Y-77571800D03*
X77115200Y-80111800D03*
X77115200Y-77571800D03*
D20*
X79655200Y-80111800D03*
%TD*%
%TO.C,IC1*%
X82092800Y-44653200D03*
D21*
X82092800Y-47193200D03*
X79552800Y-44653200D03*
X79552800Y-47193200D03*
X77012800Y-44653200D03*
X77012800Y-47193200D03*
X74472800Y-44653200D03*
X71932800Y-47193200D03*
X74472800Y-47193200D03*
X71932800Y-49733200D03*
X74472800Y-49733200D03*
X71932800Y-52273200D03*
X74472800Y-52273200D03*
X71932800Y-54813200D03*
X74472800Y-54813200D03*
X71932800Y-57353200D03*
X74472800Y-57353200D03*
X71932800Y-59893200D03*
X74472800Y-59893200D03*
X71932800Y-62433200D03*
X74472800Y-64973200D03*
X74472800Y-62433200D03*
X77012800Y-64973200D03*
X77012800Y-62433200D03*
X79552800Y-64973200D03*
X79552800Y-62433200D03*
X82092800Y-64973200D03*
X82092800Y-62433200D03*
X84632800Y-64973200D03*
X84632800Y-62433200D03*
X87172800Y-64973200D03*
X87172800Y-62433200D03*
X89712800Y-64973200D03*
X92252800Y-62433200D03*
X89712800Y-62433200D03*
X92252800Y-59893200D03*
X89712800Y-59893200D03*
X92252800Y-57353200D03*
X89712800Y-57353200D03*
X92252800Y-54813200D03*
X89712800Y-54813200D03*
X92252800Y-52273200D03*
X89712800Y-52273200D03*
X92252800Y-49733200D03*
X89712800Y-49733200D03*
X92252800Y-47193200D03*
X89712800Y-44653200D03*
X89712800Y-47193200D03*
X87172800Y-44653200D03*
X87172800Y-47193200D03*
X84632800Y-44653200D03*
X84632800Y-47193200D03*
%TD*%
D24*
%TO.C,J6*%
X146339400Y-72575200D03*
X146339400Y-75115200D03*
X146339400Y-77655200D03*
X146339400Y-80195200D03*
X146339400Y-82735200D03*
X146339400Y-85275200D03*
X146339400Y-87815200D03*
X146339400Y-90355200D03*
X146339400Y-92895200D03*
D25*
X146339400Y-95435200D03*
%TD*%
D24*
%TO.C,J5*%
X155432600Y-72575200D03*
X155432600Y-75115200D03*
X155432600Y-77655200D03*
X155432600Y-80195200D03*
X155432600Y-82735200D03*
X155432600Y-85275200D03*
X155432600Y-87815200D03*
X155432600Y-90355200D03*
X155432600Y-92895200D03*
D25*
X155432600Y-95435200D03*
%TD*%
D23*
%TO.C,U4*%
X125130400Y-75991800D03*
X125130400Y-78531800D03*
X125130400Y-81071800D03*
X125130400Y-83611800D03*
X125130400Y-86151800D03*
X125130400Y-88691800D03*
X125130400Y-91231800D03*
X117510400Y-91231800D03*
X117510400Y-88691800D03*
X117510400Y-86151800D03*
X117510400Y-83611800D03*
X117510400Y-81071800D03*
X117510400Y-78531800D03*
D22*
X117510400Y-75991800D03*
%TD*%
D25*
%TO.C,J4*%
X79146400Y-114884200D03*
D24*
X79146400Y-117424200D03*
%TD*%
D25*
%TO.C,J3*%
X70891400Y-114884200D03*
D24*
X70891400Y-117424200D03*
X70891400Y-119964200D03*
%TD*%
D19*
%TO.C,U8*%
X138694000Y-100599400D03*
X141234000Y-100599400D03*
X143774000Y-100599400D03*
X146314000Y-100599400D03*
X146314000Y-108219400D03*
X143774000Y-108219400D03*
X141234000Y-108219400D03*
D18*
X138694000Y-108219400D03*
%TD*%
D26*
%TO.C,X1*%
X71704200Y-100609400D03*
X79324200Y-100609400D03*
X79324200Y-108229400D03*
D27*
X71704200Y-108229400D03*
%TD*%
%TO.C,X2*%
X140030200Y-44393200D03*
D26*
X140030200Y-59633200D03*
X147650200Y-59633200D03*
X147650200Y-44393200D03*
%TD*%
D22*
%TO.C,U1*%
X92516800Y-75991800D03*
D23*
X92516800Y-78531800D03*
X92516800Y-81071800D03*
X92516800Y-83611800D03*
X92516800Y-86151800D03*
X92516800Y-88691800D03*
X92516800Y-91231800D03*
X100136800Y-91231800D03*
X100136800Y-88691800D03*
X100136800Y-86151800D03*
X100136800Y-83611800D03*
X100136800Y-81071800D03*
X100136800Y-78531800D03*
X100136800Y-75991800D03*
%TD*%
D22*
%TO.C,U6*%
X130007200Y-75991800D03*
D23*
X130007200Y-78531800D03*
X130007200Y-81071800D03*
X130007200Y-83611800D03*
X130007200Y-86151800D03*
X130007200Y-88691800D03*
X130007200Y-91231800D03*
X130007200Y-93771800D03*
X137627200Y-93771800D03*
X137627200Y-91231800D03*
X137627200Y-88691800D03*
X137627200Y-86151800D03*
X137627200Y-83611800D03*
X137627200Y-81071800D03*
X137627200Y-78531800D03*
X137627200Y-75991800D03*
%TD*%
D24*
%TO.C,J1*%
X157276800Y-64043400D03*
X157276800Y-61503400D03*
X157276800Y-58963400D03*
D25*
X157276800Y-56423400D03*
%TD*%
%TO.C,J2*%
X71501000Y-128955800D03*
D24*
X71501000Y-126415800D03*
X74041000Y-128955800D03*
X74041000Y-126415800D03*
X76581000Y-128955800D03*
X76581000Y-126415800D03*
X79121000Y-128955800D03*
X79121000Y-126415800D03*
X81661000Y-128955800D03*
X81661000Y-126415800D03*
X84201000Y-128955800D03*
X84201000Y-126415800D03*
X86741000Y-128955800D03*
X86741000Y-126415800D03*
X89281000Y-128955800D03*
X89281000Y-126415800D03*
X91821000Y-128955800D03*
X91821000Y-126415800D03*
X94361000Y-128955800D03*
X94361000Y-126415800D03*
X96901000Y-128955800D03*
X96901000Y-126415800D03*
X99441000Y-128955800D03*
X99441000Y-126415800D03*
X101981000Y-128955800D03*
X101981000Y-126415800D03*
X104521000Y-128955800D03*
X104521000Y-126415800D03*
X107061000Y-128955800D03*
X107061000Y-126415800D03*
X109601000Y-128955800D03*
X109601000Y-126415800D03*
X112141000Y-128955800D03*
X112141000Y-126415800D03*
X114681000Y-128955800D03*
X114681000Y-126415800D03*
X117221000Y-128955800D03*
X117221000Y-126415800D03*
X119761000Y-128955800D03*
X119761000Y-126415800D03*
X122301000Y-128955800D03*
X122301000Y-126415800D03*
X124841000Y-128955800D03*
X124841000Y-126415800D03*
X127381000Y-128955800D03*
X127381000Y-126415800D03*
X129921000Y-128955800D03*
X129921000Y-126415800D03*
X132461000Y-128955800D03*
X132461000Y-126415800D03*
X135001000Y-128955800D03*
X135001000Y-126415800D03*
X137541000Y-128955800D03*
X137541000Y-126415800D03*
X140081000Y-128955800D03*
X140081000Y-126415800D03*
X142621000Y-128955800D03*
X142621000Y-126415800D03*
X145161000Y-128955800D03*
X145161000Y-126415800D03*
X147701000Y-128955800D03*
X147701000Y-126415800D03*
X150241000Y-128955800D03*
X150241000Y-126415800D03*
%TD*%
M02*
