%TF.GenerationSoftware,KiCad,Pcbnew,(6.0.2)*%
%TF.CreationDate,2022-05-05T17:12:40-07:00*%
%TF.ProjectId,Steve 68k,53746576-6520-4363-986b-2e6b69636164,rev?*%
%TF.SameCoordinates,Original*%
%TF.FileFunction,Legend,Top*%
%TF.FilePolarity,Positive*%
%FSLAX46Y46*%
G04 Gerber Fmt 4.6, Leading zero omitted, Abs format (unit mm)*
G04 Created by KiCad (PCBNEW (6.0.2)) date 2022-05-05 17:12:40*
%MOMM*%
%LPD*%
G01*
G04 APERTURE LIST*
%ADD10C,0.150000*%
%ADD11C,0.600000*%
%ADD12C,0.100000*%
%ADD13C,0.120000*%
G04 APERTURE END LIST*
D10*
X149741000Y-123397395D02*
X149693380Y-123492633D01*
X149693380Y-123635490D01*
X149741000Y-123778347D01*
X149836238Y-123873585D01*
X149931476Y-123921204D01*
X150121952Y-123968823D01*
X150264809Y-123968823D01*
X150455285Y-123921204D01*
X150550523Y-123873585D01*
X150645761Y-123778347D01*
X150693380Y-123635490D01*
X150693380Y-123540252D01*
X150645761Y-123397395D01*
X150598142Y-123349776D01*
X150264809Y-123349776D01*
X150264809Y-123540252D01*
X150693380Y-122921204D02*
X149693380Y-122921204D01*
X150693380Y-122349776D01*
X149693380Y-122349776D01*
X150693380Y-121873585D02*
X149693380Y-121873585D01*
X149693380Y-121635490D01*
X149741000Y-121492633D01*
X149836238Y-121397395D01*
X149931476Y-121349776D01*
X150121952Y-121302157D01*
X150264809Y-121302157D01*
X150455285Y-121349776D01*
X150550523Y-121397395D01*
X150645761Y-121492633D01*
X150693380Y-121635490D01*
X150693380Y-121873585D01*
X134196400Y-124159300D02*
X134196400Y-123683109D01*
X135478780Y-123921204D02*
X134478780Y-123921204D01*
X134196400Y-123683109D02*
X134196400Y-122683109D01*
X135478780Y-123445014D02*
X134478780Y-123445014D01*
X134478780Y-123064061D01*
X134526400Y-122968823D01*
X134574019Y-122921204D01*
X134669257Y-122873585D01*
X134812114Y-122873585D01*
X134907352Y-122921204D01*
X134954971Y-122968823D01*
X135002590Y-123064061D01*
X135002590Y-123445014D01*
X134196400Y-122683109D02*
X134196400Y-121873585D01*
X135478780Y-121968823D02*
X135478780Y-122445014D01*
X134478780Y-122445014D01*
X134196400Y-121873585D02*
X134196400Y-120921204D01*
X134574019Y-121683109D02*
X134526400Y-121635490D01*
X134478780Y-121540252D01*
X134478780Y-121302157D01*
X134526400Y-121206919D01*
X134574019Y-121159300D01*
X134669257Y-121111680D01*
X134764495Y-121111680D01*
X134907352Y-121159300D01*
X135478780Y-121730728D01*
X135478780Y-121111680D01*
X131631000Y-124159300D02*
X131631000Y-123683109D01*
X132913380Y-123921204D02*
X131913380Y-123921204D01*
X131631000Y-123683109D02*
X131631000Y-122683109D01*
X132913380Y-123445014D02*
X131913380Y-123445014D01*
X131913380Y-123064061D01*
X131961000Y-122968823D01*
X132008619Y-122921204D01*
X132103857Y-122873585D01*
X132246714Y-122873585D01*
X132341952Y-122921204D01*
X132389571Y-122968823D01*
X132437190Y-123064061D01*
X132437190Y-123445014D01*
X131631000Y-122683109D02*
X131631000Y-121873585D01*
X132913380Y-121968823D02*
X132913380Y-122445014D01*
X131913380Y-122445014D01*
X131631000Y-121873585D02*
X131631000Y-120921204D01*
X131913380Y-121445014D02*
X131913380Y-121349776D01*
X131961000Y-121254538D01*
X132008619Y-121206919D01*
X132103857Y-121159300D01*
X132294333Y-121111680D01*
X132532428Y-121111680D01*
X132722904Y-121159300D01*
X132818142Y-121206919D01*
X132865761Y-121254538D01*
X132913380Y-121349776D01*
X132913380Y-121445014D01*
X132865761Y-121540252D01*
X132818142Y-121587871D01*
X132722904Y-121635490D01*
X132532428Y-121683109D01*
X132294333Y-121683109D01*
X132103857Y-121635490D01*
X132008619Y-121587871D01*
X131961000Y-121540252D01*
X131913380Y-121445014D01*
X129116400Y-124159300D02*
X129116400Y-123159300D01*
X129874971Y-123587871D02*
X129922590Y-123445014D01*
X129970209Y-123397395D01*
X130065447Y-123349776D01*
X130208304Y-123349776D01*
X130303542Y-123397395D01*
X130351161Y-123445014D01*
X130398780Y-123540252D01*
X130398780Y-123921204D01*
X129398780Y-123921204D01*
X129398780Y-123587871D01*
X129446400Y-123492633D01*
X129494019Y-123445014D01*
X129589257Y-123397395D01*
X129684495Y-123397395D01*
X129779733Y-123445014D01*
X129827352Y-123492633D01*
X129874971Y-123587871D01*
X129874971Y-123921204D01*
X129116400Y-123159300D02*
X129116400Y-122159300D01*
X129446400Y-122397395D02*
X129398780Y-122492633D01*
X129398780Y-122635490D01*
X129446400Y-122778347D01*
X129541638Y-122873585D01*
X129636876Y-122921204D01*
X129827352Y-122968823D01*
X129970209Y-122968823D01*
X130160685Y-122921204D01*
X130255923Y-122873585D01*
X130351161Y-122778347D01*
X130398780Y-122635490D01*
X130398780Y-122540252D01*
X130351161Y-122397395D01*
X130303542Y-122349776D01*
X129970209Y-122349776D01*
X129970209Y-122540252D01*
X129116400Y-122159300D02*
X129116400Y-121302157D01*
X130113066Y-121968823D02*
X130113066Y-121492633D01*
X130398780Y-122064061D02*
X129398780Y-121730728D01*
X130398780Y-121397395D01*
X129116400Y-121302157D02*
X129116400Y-120302157D01*
X130303542Y-120492633D02*
X130351161Y-120540252D01*
X130398780Y-120683109D01*
X130398780Y-120778347D01*
X130351161Y-120921204D01*
X130255923Y-121016442D01*
X130160685Y-121064061D01*
X129970209Y-121111680D01*
X129827352Y-121111680D01*
X129636876Y-121064061D01*
X129541638Y-121016442D01*
X129446400Y-120921204D01*
X129398780Y-120778347D01*
X129398780Y-120683109D01*
X129446400Y-120540252D01*
X129494019Y-120492633D01*
X129116400Y-120302157D02*
X129116400Y-119302157D01*
X130398780Y-120064061D02*
X129398780Y-120064061D01*
X130398780Y-119492633D02*
X129827352Y-119921204D01*
X129398780Y-119492633D02*
X129970209Y-120064061D01*
X126576400Y-124159300D02*
X126576400Y-123111680D01*
X127858780Y-123921204D02*
X126858780Y-123921204D01*
X127334971Y-123921204D02*
X127334971Y-123349776D01*
X127858780Y-123349776D02*
X126858780Y-123349776D01*
X126576400Y-123111680D02*
X126576400Y-122254538D01*
X127573066Y-122921204D02*
X127573066Y-122445014D01*
X127858780Y-123016442D02*
X126858780Y-122683109D01*
X127858780Y-122349776D01*
X126576400Y-122254538D02*
X126576400Y-121445014D01*
X127858780Y-121540252D02*
X127858780Y-122016442D01*
X126858780Y-122016442D01*
X126576400Y-121445014D02*
X126576400Y-120683109D01*
X126858780Y-121349776D02*
X126858780Y-120778347D01*
X127858780Y-121064061D02*
X126858780Y-121064061D01*
X124820371Y-123587871D02*
X124820371Y-123921204D01*
X125344180Y-123921204D02*
X124344180Y-123921204D01*
X124344180Y-123445014D01*
X125248942Y-122492633D02*
X125296561Y-122540252D01*
X125344180Y-122683109D01*
X125344180Y-122778347D01*
X125296561Y-122921204D01*
X125201323Y-123016442D01*
X125106085Y-123064061D01*
X124915609Y-123111680D01*
X124772752Y-123111680D01*
X124582276Y-123064061D01*
X124487038Y-123016442D01*
X124391800Y-122921204D01*
X124344180Y-122778347D01*
X124344180Y-122683109D01*
X124391800Y-122540252D01*
X124439419Y-122492633D01*
X124439419Y-122111680D02*
X124391800Y-122064061D01*
X124344180Y-121968823D01*
X124344180Y-121730728D01*
X124391800Y-121635490D01*
X124439419Y-121587871D01*
X124534657Y-121540252D01*
X124629895Y-121540252D01*
X124772752Y-121587871D01*
X125344180Y-122159300D01*
X125344180Y-121540252D01*
X122381971Y-123587871D02*
X122381971Y-123921204D01*
X122905780Y-123921204D02*
X121905780Y-123921204D01*
X121905780Y-123445014D01*
X122810542Y-122492633D02*
X122858161Y-122540252D01*
X122905780Y-122683109D01*
X122905780Y-122778347D01*
X122858161Y-122921204D01*
X122762923Y-123016442D01*
X122667685Y-123064061D01*
X122477209Y-123111680D01*
X122334352Y-123111680D01*
X122143876Y-123064061D01*
X122048638Y-123016442D01*
X121953400Y-122921204D01*
X121905780Y-122778347D01*
X121905780Y-122683109D01*
X121953400Y-122540252D01*
X122001019Y-122492633D01*
X121905780Y-121873585D02*
X121905780Y-121778347D01*
X121953400Y-121683109D01*
X122001019Y-121635490D01*
X122096257Y-121587871D01*
X122286733Y-121540252D01*
X122524828Y-121540252D01*
X122715304Y-121587871D01*
X122810542Y-121635490D01*
X122858161Y-121683109D01*
X122905780Y-121778347D01*
X122905780Y-121873585D01*
X122858161Y-121968823D01*
X122810542Y-122016442D01*
X122715304Y-122064061D01*
X122524828Y-122111680D01*
X122286733Y-122111680D01*
X122096257Y-122064061D01*
X122001019Y-122016442D01*
X121953400Y-121968823D01*
X121905780Y-121873585D01*
X118931000Y-124159300D02*
X118931000Y-123159300D01*
X120213380Y-123921204D02*
X119213380Y-123921204D01*
X119213380Y-123683109D01*
X119261000Y-123540252D01*
X119356238Y-123445014D01*
X119451476Y-123397395D01*
X119641952Y-123349776D01*
X119784809Y-123349776D01*
X119975285Y-123397395D01*
X120070523Y-123445014D01*
X120165761Y-123540252D01*
X120213380Y-123683109D01*
X120213380Y-123921204D01*
X118931000Y-123159300D02*
X118931000Y-122397395D01*
X119213380Y-123064061D02*
X119213380Y-122492633D01*
X120213380Y-122778347D02*
X119213380Y-122778347D01*
X118931000Y-122397395D02*
X118931000Y-121540252D01*
X119927666Y-122206919D02*
X119927666Y-121730728D01*
X120213380Y-122302157D02*
X119213380Y-121968823D01*
X120213380Y-121635490D01*
X118931000Y-121540252D02*
X118931000Y-120540252D01*
X120118142Y-120730728D02*
X120165761Y-120778347D01*
X120213380Y-120921204D01*
X120213380Y-121016442D01*
X120165761Y-121159300D01*
X120070523Y-121254538D01*
X119975285Y-121302157D01*
X119784809Y-121349776D01*
X119641952Y-121349776D01*
X119451476Y-121302157D01*
X119356238Y-121254538D01*
X119261000Y-121159300D01*
X119213380Y-121016442D01*
X119213380Y-120921204D01*
X119261000Y-120778347D01*
X119308619Y-120730728D01*
X118931000Y-120540252D02*
X118931000Y-119540252D01*
X120213380Y-120302157D02*
X119213380Y-120302157D01*
X120213380Y-119730728D02*
X119641952Y-120159300D01*
X119213380Y-119730728D02*
X119784809Y-120302157D01*
X116416400Y-124159300D02*
X116416400Y-123159300D01*
X117174971Y-123587871D02*
X117222590Y-123445014D01*
X117270209Y-123397395D01*
X117365447Y-123349776D01*
X117508304Y-123349776D01*
X117603542Y-123397395D01*
X117651161Y-123445014D01*
X117698780Y-123540252D01*
X117698780Y-123921204D01*
X116698780Y-123921204D01*
X116698780Y-123587871D01*
X116746400Y-123492633D01*
X116794019Y-123445014D01*
X116889257Y-123397395D01*
X116984495Y-123397395D01*
X117079733Y-123445014D01*
X117127352Y-123492633D01*
X117174971Y-123587871D01*
X117174971Y-123921204D01*
X116416400Y-123159300D02*
X116416400Y-122254538D01*
X117174971Y-122921204D02*
X117174971Y-122587871D01*
X117698780Y-122445014D02*
X117698780Y-122921204D01*
X116698780Y-122921204D01*
X116698780Y-122445014D01*
X116416400Y-122254538D02*
X116416400Y-121254538D01*
X117698780Y-121445014D02*
X117222590Y-121778347D01*
X117698780Y-122016442D02*
X116698780Y-122016442D01*
X116698780Y-121635490D01*
X116746400Y-121540252D01*
X116794019Y-121492633D01*
X116889257Y-121445014D01*
X117032114Y-121445014D01*
X117127352Y-121492633D01*
X117174971Y-121540252D01*
X117222590Y-121635490D01*
X117222590Y-122016442D01*
X116416400Y-121254538D02*
X116416400Y-120254538D01*
X117698780Y-120445014D02*
X117222590Y-120778347D01*
X117698780Y-121016442D02*
X116698780Y-121016442D01*
X116698780Y-120635490D01*
X116746400Y-120540252D01*
X116794019Y-120492633D01*
X116889257Y-120445014D01*
X117032114Y-120445014D01*
X117127352Y-120492633D01*
X117174971Y-120540252D01*
X117222590Y-120635490D01*
X117222590Y-121016442D01*
X113825600Y-124159300D02*
X113825600Y-123159300D01*
X115107980Y-123349776D02*
X114631790Y-123683109D01*
X115107980Y-123921204D02*
X114107980Y-123921204D01*
X114107980Y-123540252D01*
X114155600Y-123445014D01*
X114203219Y-123397395D01*
X114298457Y-123349776D01*
X114441314Y-123349776D01*
X114536552Y-123397395D01*
X114584171Y-123445014D01*
X114631790Y-123540252D01*
X114631790Y-123921204D01*
X113825600Y-123159300D02*
X113825600Y-122302157D01*
X114822266Y-122968823D02*
X114822266Y-122492633D01*
X115107980Y-123064061D02*
X114107980Y-122730728D01*
X115107980Y-122397395D01*
X113825600Y-122302157D02*
X113825600Y-121159300D01*
X115107980Y-122064061D02*
X114107980Y-122064061D01*
X114822266Y-121730728D01*
X114107980Y-121397395D01*
X115107980Y-121397395D01*
X111361800Y-124159300D02*
X111361800Y-123302157D01*
X112358466Y-123968823D02*
X112358466Y-123492633D01*
X112644180Y-124064061D02*
X111644180Y-123730728D01*
X112644180Y-123397395D01*
X111361800Y-123302157D02*
X111361800Y-122349776D01*
X112596561Y-123111680D02*
X112644180Y-122968823D01*
X112644180Y-122730728D01*
X112596561Y-122635490D01*
X112548942Y-122587871D01*
X112453704Y-122540252D01*
X112358466Y-122540252D01*
X112263228Y-122587871D01*
X112215609Y-122635490D01*
X112167990Y-122730728D01*
X112120371Y-122921204D01*
X112072752Y-123016442D01*
X112025133Y-123064061D01*
X111929895Y-123111680D01*
X111834657Y-123111680D01*
X111739419Y-123064061D01*
X111691800Y-123016442D01*
X111644180Y-122921204D01*
X111644180Y-122683109D01*
X111691800Y-122540252D01*
X108771000Y-124159300D02*
X108771000Y-123159300D01*
X109958142Y-123349776D02*
X110005761Y-123397395D01*
X110053380Y-123540252D01*
X110053380Y-123635490D01*
X110005761Y-123778347D01*
X109910523Y-123873585D01*
X109815285Y-123921204D01*
X109624809Y-123968823D01*
X109481952Y-123968823D01*
X109291476Y-123921204D01*
X109196238Y-123873585D01*
X109101000Y-123778347D01*
X109053380Y-123635490D01*
X109053380Y-123540252D01*
X109101000Y-123397395D01*
X109148619Y-123349776D01*
X108771000Y-123159300D02*
X108771000Y-122349776D01*
X110053380Y-122445014D02*
X110053380Y-122921204D01*
X109053380Y-122921204D01*
X108771000Y-122349776D02*
X108771000Y-121349776D01*
X110053380Y-122111680D02*
X109053380Y-122111680D01*
X110053380Y-121540252D02*
X109481952Y-121968823D01*
X109053380Y-121540252D02*
X109624809Y-122111680D01*
X107538780Y-123921204D02*
X106538780Y-123921204D01*
X106538780Y-123683109D01*
X106586400Y-123540252D01*
X106681638Y-123445014D01*
X106776876Y-123397395D01*
X106967352Y-123349776D01*
X107110209Y-123349776D01*
X107300685Y-123397395D01*
X107395923Y-123445014D01*
X107491161Y-123540252D01*
X107538780Y-123683109D01*
X107538780Y-123921204D01*
X106538780Y-123016442D02*
X106538780Y-122349776D01*
X107538780Y-122778347D01*
X104973380Y-123921204D02*
X103973380Y-123921204D01*
X103973380Y-123683109D01*
X104021000Y-123540252D01*
X104116238Y-123445014D01*
X104211476Y-123397395D01*
X104401952Y-123349776D01*
X104544809Y-123349776D01*
X104735285Y-123397395D01*
X104830523Y-123445014D01*
X104925761Y-123540252D01*
X104973380Y-123683109D01*
X104973380Y-123921204D01*
X103973380Y-122445014D02*
X103973380Y-122921204D01*
X104449571Y-122968823D01*
X104401952Y-122921204D01*
X104354333Y-122825966D01*
X104354333Y-122587871D01*
X104401952Y-122492633D01*
X104449571Y-122445014D01*
X104544809Y-122397395D01*
X104782904Y-122397395D01*
X104878142Y-122445014D01*
X104925761Y-122492633D01*
X104973380Y-122587871D01*
X104973380Y-122825966D01*
X104925761Y-122921204D01*
X104878142Y-122968823D01*
X102433380Y-123921204D02*
X101433380Y-123921204D01*
X101433380Y-123683109D01*
X101481000Y-123540252D01*
X101576238Y-123445014D01*
X101671476Y-123397395D01*
X101861952Y-123349776D01*
X102004809Y-123349776D01*
X102195285Y-123397395D01*
X102290523Y-123445014D01*
X102385761Y-123540252D01*
X102433380Y-123683109D01*
X102433380Y-123921204D01*
X101433380Y-123016442D02*
X101433380Y-122397395D01*
X101814333Y-122730728D01*
X101814333Y-122587871D01*
X101861952Y-122492633D01*
X101909571Y-122445014D01*
X102004809Y-122397395D01*
X102242904Y-122397395D01*
X102338142Y-122445014D01*
X102385761Y-122492633D01*
X102433380Y-122587871D01*
X102433380Y-122873585D01*
X102385761Y-122968823D01*
X102338142Y-123016442D01*
X99944180Y-123921204D02*
X98944180Y-123921204D01*
X98944180Y-123683109D01*
X98991800Y-123540252D01*
X99087038Y-123445014D01*
X99182276Y-123397395D01*
X99372752Y-123349776D01*
X99515609Y-123349776D01*
X99706085Y-123397395D01*
X99801323Y-123445014D01*
X99896561Y-123540252D01*
X99944180Y-123683109D01*
X99944180Y-123921204D01*
X99944180Y-122397395D02*
X99944180Y-122968823D01*
X99944180Y-122683109D02*
X98944180Y-122683109D01*
X99087038Y-122778347D01*
X99182276Y-122873585D01*
X99229895Y-122968823D01*
X97143866Y-123968823D02*
X97143866Y-123492633D01*
X97429580Y-124064061D02*
X96429580Y-123730728D01*
X97429580Y-123397395D01*
X96524819Y-123111680D02*
X96477200Y-123064061D01*
X96429580Y-122968823D01*
X96429580Y-122730728D01*
X96477200Y-122635490D01*
X96524819Y-122587871D01*
X96620057Y-122540252D01*
X96715295Y-122540252D01*
X96858152Y-122587871D01*
X97429580Y-123159300D01*
X97429580Y-122540252D01*
X97429580Y-121587871D02*
X97429580Y-122159300D01*
X97429580Y-121873585D02*
X96429580Y-121873585D01*
X96572438Y-121968823D01*
X96667676Y-122064061D01*
X96715295Y-122159300D01*
X94553066Y-123968823D02*
X94553066Y-123492633D01*
X94838780Y-124064061D02*
X93838780Y-123730728D01*
X94838780Y-123397395D01*
X94838780Y-122540252D02*
X94838780Y-123111680D01*
X94838780Y-122825966D02*
X93838780Y-122825966D01*
X93981638Y-122921204D01*
X94076876Y-123016442D01*
X94124495Y-123111680D01*
X94838780Y-122064061D02*
X94838780Y-121873585D01*
X94791161Y-121778347D01*
X94743542Y-121730728D01*
X94600685Y-121635490D01*
X94410209Y-121587871D01*
X94029257Y-121587871D01*
X93934019Y-121635490D01*
X93886400Y-121683109D01*
X93838780Y-121778347D01*
X93838780Y-121968823D01*
X93886400Y-122064061D01*
X93934019Y-122111680D01*
X94029257Y-122159300D01*
X94267352Y-122159300D01*
X94362590Y-122111680D01*
X94410209Y-122064061D01*
X94457828Y-121968823D01*
X94457828Y-121778347D01*
X94410209Y-121683109D01*
X94362590Y-121635490D01*
X94267352Y-121587871D01*
X91962266Y-123968823D02*
X91962266Y-123492633D01*
X92247980Y-124064061D02*
X91247980Y-123730728D01*
X92247980Y-123397395D01*
X92247980Y-122540252D02*
X92247980Y-123111680D01*
X92247980Y-122825966D02*
X91247980Y-122825966D01*
X91390838Y-122921204D01*
X91486076Y-123016442D01*
X91533695Y-123111680D01*
X91247980Y-122206919D02*
X91247980Y-121540252D01*
X92247980Y-121968823D01*
X89473066Y-123968823D02*
X89473066Y-123492633D01*
X89758780Y-124064061D02*
X88758780Y-123730728D01*
X89758780Y-123397395D01*
X89758780Y-122540252D02*
X89758780Y-123111680D01*
X89758780Y-122825966D02*
X88758780Y-122825966D01*
X88901638Y-122921204D01*
X88996876Y-123016442D01*
X89044495Y-123111680D01*
X88758780Y-121635490D02*
X88758780Y-122111680D01*
X89234971Y-122159300D01*
X89187352Y-122111680D01*
X89139733Y-122016442D01*
X89139733Y-121778347D01*
X89187352Y-121683109D01*
X89234971Y-121635490D01*
X89330209Y-121587871D01*
X89568304Y-121587871D01*
X89663542Y-121635490D01*
X89711161Y-121683109D01*
X89758780Y-121778347D01*
X89758780Y-122016442D01*
X89711161Y-122111680D01*
X89663542Y-122159300D01*
X86856866Y-123968823D02*
X86856866Y-123492633D01*
X87142580Y-124064061D02*
X86142580Y-123730728D01*
X87142580Y-123397395D01*
X87142580Y-122540252D02*
X87142580Y-123111680D01*
X87142580Y-122825966D02*
X86142580Y-122825966D01*
X86285438Y-122921204D01*
X86380676Y-123016442D01*
X86428295Y-123111680D01*
X86142580Y-122206919D02*
X86142580Y-121587871D01*
X86523533Y-121921204D01*
X86523533Y-121778347D01*
X86571152Y-121683109D01*
X86618771Y-121635490D01*
X86714009Y-121587871D01*
X86952104Y-121587871D01*
X87047342Y-121635490D01*
X87094961Y-121683109D01*
X87142580Y-121778347D01*
X87142580Y-122064061D01*
X87094961Y-122159300D01*
X87047342Y-122206919D01*
X84367666Y-123968823D02*
X84367666Y-123492633D01*
X84653380Y-124064061D02*
X83653380Y-123730728D01*
X84653380Y-123397395D01*
X84653380Y-122540252D02*
X84653380Y-123111680D01*
X84653380Y-122825966D02*
X83653380Y-122825966D01*
X83796238Y-122921204D01*
X83891476Y-123016442D01*
X83939095Y-123111680D01*
X84653380Y-121587871D02*
X84653380Y-122159300D01*
X84653380Y-121873585D02*
X83653380Y-121873585D01*
X83796238Y-121968823D01*
X83891476Y-122064061D01*
X83939095Y-122159300D01*
X81776866Y-123968823D02*
X81776866Y-123492633D01*
X82062580Y-124064061D02*
X81062580Y-123730728D01*
X82062580Y-123397395D01*
X82062580Y-123016442D02*
X82062580Y-122825966D01*
X82014961Y-122730728D01*
X81967342Y-122683109D01*
X81824485Y-122587871D01*
X81634009Y-122540252D01*
X81253057Y-122540252D01*
X81157819Y-122587871D01*
X81110200Y-122635490D01*
X81062580Y-122730728D01*
X81062580Y-122921204D01*
X81110200Y-123016442D01*
X81157819Y-123064061D01*
X81253057Y-123111680D01*
X81491152Y-123111680D01*
X81586390Y-123064061D01*
X81634009Y-123016442D01*
X81681628Y-122921204D01*
X81681628Y-122730728D01*
X81634009Y-122635490D01*
X81586390Y-122587871D01*
X81491152Y-122540252D01*
X79313066Y-123968823D02*
X79313066Y-123492633D01*
X79598780Y-124064061D02*
X78598780Y-123730728D01*
X79598780Y-123397395D01*
X78598780Y-123159300D02*
X78598780Y-122492633D01*
X79598780Y-122921204D01*
X76798466Y-123968823D02*
X76798466Y-123492633D01*
X77084180Y-124064061D02*
X76084180Y-123730728D01*
X77084180Y-123397395D01*
X76084180Y-122587871D02*
X76084180Y-123064061D01*
X76560371Y-123111680D01*
X76512752Y-123064061D01*
X76465133Y-122968823D01*
X76465133Y-122730728D01*
X76512752Y-122635490D01*
X76560371Y-122587871D01*
X76655609Y-122540252D01*
X76893704Y-122540252D01*
X76988942Y-122587871D01*
X77036561Y-122635490D01*
X77084180Y-122730728D01*
X77084180Y-122968823D01*
X77036561Y-123064061D01*
X76988942Y-123111680D01*
X74106066Y-123968823D02*
X74106066Y-123492633D01*
X74391780Y-124064061D02*
X73391780Y-123730728D01*
X74391780Y-123397395D01*
X73391780Y-123159300D02*
X73391780Y-122540252D01*
X73772733Y-122873585D01*
X73772733Y-122730728D01*
X73820352Y-122635490D01*
X73867971Y-122587871D01*
X73963209Y-122540252D01*
X74201304Y-122540252D01*
X74296542Y-122587871D01*
X74344161Y-122635490D01*
X74391780Y-122730728D01*
X74391780Y-123016442D01*
X74344161Y-123111680D01*
X74296542Y-123159300D01*
X71616866Y-123968823D02*
X71616866Y-123492633D01*
X71902580Y-124064061D02*
X70902580Y-123730728D01*
X71902580Y-123397395D01*
X71902580Y-122540252D02*
X71902580Y-123111680D01*
X71902580Y-122825966D02*
X70902580Y-122825966D01*
X71045438Y-122921204D01*
X71140676Y-123016442D01*
X71188295Y-123111680D01*
X149693380Y-133586890D02*
X150693380Y-133253557D01*
X149693380Y-132920223D01*
X150645761Y-132158319D02*
X150693380Y-132253557D01*
X150693380Y-132444033D01*
X150645761Y-132539271D01*
X150598142Y-132586890D01*
X150502904Y-132634509D01*
X150217190Y-132634509D01*
X150121952Y-132586890D01*
X150074333Y-132539271D01*
X150026714Y-132444033D01*
X150026714Y-132253557D01*
X150074333Y-132158319D01*
X150645761Y-131301176D02*
X150693380Y-131396414D01*
X150693380Y-131586890D01*
X150645761Y-131682128D01*
X150598142Y-131729747D01*
X150502904Y-131777366D01*
X150217190Y-131777366D01*
X150121952Y-131729747D01*
X150074333Y-131682128D01*
X150026714Y-131586890D01*
X150026714Y-131396414D01*
X150074333Y-131301176D01*
X136787200Y-134777366D02*
X136787200Y-133729747D01*
X137069580Y-134539271D02*
X137879104Y-134539271D01*
X137974342Y-134491652D01*
X138021961Y-134444033D01*
X138069580Y-134348795D01*
X138069580Y-134158319D01*
X138021961Y-134063080D01*
X137974342Y-134015461D01*
X137879104Y-133967842D01*
X137069580Y-133967842D01*
X136787200Y-133729747D02*
X136787200Y-132872604D01*
X137783866Y-133539271D02*
X137783866Y-133063080D01*
X138069580Y-133634509D02*
X137069580Y-133301176D01*
X138069580Y-132967842D01*
X136787200Y-132872604D02*
X136787200Y-131872604D01*
X138069580Y-132063080D02*
X137593390Y-132396414D01*
X138069580Y-132634509D02*
X137069580Y-132634509D01*
X137069580Y-132253557D01*
X137117200Y-132158319D01*
X137164819Y-132110700D01*
X137260057Y-132063080D01*
X137402914Y-132063080D01*
X137498152Y-132110700D01*
X137545771Y-132158319D01*
X137593390Y-132253557D01*
X137593390Y-132634509D01*
X136787200Y-131872604D02*
X136787200Y-131110700D01*
X137069580Y-131777366D02*
X137069580Y-131205938D01*
X138069580Y-131491652D02*
X137069580Y-131491652D01*
X134196400Y-134348795D02*
X134196400Y-133872604D01*
X135478780Y-134110700D02*
X134478780Y-134110700D01*
X134196400Y-133872604D02*
X134196400Y-132872604D01*
X135478780Y-133634509D02*
X134478780Y-133634509D01*
X134478780Y-133253557D01*
X134526400Y-133158319D01*
X134574019Y-133110700D01*
X134669257Y-133063080D01*
X134812114Y-133063080D01*
X134907352Y-133110700D01*
X134954971Y-133158319D01*
X135002590Y-133253557D01*
X135002590Y-133634509D01*
X134196400Y-132872604D02*
X134196400Y-132063080D01*
X135478780Y-132158319D02*
X135478780Y-132634509D01*
X134478780Y-132634509D01*
X134196400Y-132063080D02*
X134196400Y-131110700D01*
X135478780Y-131301176D02*
X135478780Y-131872604D01*
X135478780Y-131586890D02*
X134478780Y-131586890D01*
X134621638Y-131682128D01*
X134716876Y-131777366D01*
X134764495Y-131872604D01*
X131656400Y-133110700D02*
X131656400Y-132110700D01*
X132414971Y-132539271D02*
X132462590Y-132396414D01*
X132510209Y-132348795D01*
X132605447Y-132301176D01*
X132748304Y-132301176D01*
X132843542Y-132348795D01*
X132891161Y-132396414D01*
X132938780Y-132491652D01*
X132938780Y-132872604D01*
X131938780Y-132872604D01*
X131938780Y-132539271D01*
X131986400Y-132444033D01*
X132034019Y-132396414D01*
X132129257Y-132348795D01*
X132224495Y-132348795D01*
X132319733Y-132396414D01*
X132367352Y-132444033D01*
X132414971Y-132539271D01*
X132414971Y-132872604D01*
X131656400Y-132110700D02*
X131656400Y-131110700D01*
X131986400Y-131348795D02*
X131938780Y-131444033D01*
X131938780Y-131586890D01*
X131986400Y-131729747D01*
X132081638Y-131824985D01*
X132176876Y-131872604D01*
X132367352Y-131920223D01*
X132510209Y-131920223D01*
X132700685Y-131872604D01*
X132795923Y-131824985D01*
X132891161Y-131729747D01*
X132938780Y-131586890D01*
X132938780Y-131491652D01*
X132891161Y-131348795D01*
X132843542Y-131301176D01*
X132510209Y-131301176D01*
X132510209Y-131491652D01*
X129192600Y-133110700D02*
X129192600Y-132110700D01*
X129951171Y-132539271D02*
X129998790Y-132396414D01*
X130046409Y-132348795D01*
X130141647Y-132301176D01*
X130284504Y-132301176D01*
X130379742Y-132348795D01*
X130427361Y-132396414D01*
X130474980Y-132491652D01*
X130474980Y-132872604D01*
X129474980Y-132872604D01*
X129474980Y-132539271D01*
X129522600Y-132444033D01*
X129570219Y-132396414D01*
X129665457Y-132348795D01*
X129760695Y-132348795D01*
X129855933Y-132396414D01*
X129903552Y-132444033D01*
X129951171Y-132539271D01*
X129951171Y-132872604D01*
X129192600Y-132110700D02*
X129192600Y-131110700D01*
X130474980Y-131301176D02*
X129998790Y-131634509D01*
X130474980Y-131872604D02*
X129474980Y-131872604D01*
X129474980Y-131491652D01*
X129522600Y-131396414D01*
X129570219Y-131348795D01*
X129665457Y-131301176D01*
X129808314Y-131301176D01*
X129903552Y-131348795D01*
X129951171Y-131396414D01*
X129998790Y-131491652D01*
X129998790Y-131872604D01*
X126576400Y-133967842D02*
X126576400Y-132967842D01*
X127858780Y-133158319D02*
X127382590Y-133491652D01*
X127858780Y-133729747D02*
X126858780Y-133729747D01*
X126858780Y-133348795D01*
X126906400Y-133253557D01*
X126954019Y-133205938D01*
X127049257Y-133158319D01*
X127192114Y-133158319D01*
X127287352Y-133205938D01*
X127334971Y-133253557D01*
X127382590Y-133348795D01*
X127382590Y-133729747D01*
X126576400Y-132967842D02*
X126576400Y-132063080D01*
X127334971Y-132729747D02*
X127334971Y-132396414D01*
X127858780Y-132253557D02*
X127858780Y-132729747D01*
X126858780Y-132729747D01*
X126858780Y-132253557D01*
X126576400Y-132063080D02*
X126576400Y-131110700D01*
X127811161Y-131872604D02*
X127858780Y-131729747D01*
X127858780Y-131491652D01*
X127811161Y-131396414D01*
X127763542Y-131348795D01*
X127668304Y-131301176D01*
X127573066Y-131301176D01*
X127477828Y-131348795D01*
X127430209Y-131396414D01*
X127382590Y-131491652D01*
X127334971Y-131682128D01*
X127287352Y-131777366D01*
X127239733Y-131824985D01*
X127144495Y-131872604D01*
X127049257Y-131872604D01*
X126954019Y-131824985D01*
X126906400Y-131777366D01*
X126858780Y-131682128D01*
X126858780Y-131444033D01*
X126906400Y-131301176D01*
X124794971Y-133348795D02*
X124794971Y-133682128D01*
X125318780Y-133682128D02*
X124318780Y-133682128D01*
X124318780Y-133205938D01*
X125223542Y-132253557D02*
X125271161Y-132301176D01*
X125318780Y-132444033D01*
X125318780Y-132539271D01*
X125271161Y-132682128D01*
X125175923Y-132777366D01*
X125080685Y-132824985D01*
X124890209Y-132872604D01*
X124747352Y-132872604D01*
X124556876Y-132824985D01*
X124461638Y-132777366D01*
X124366400Y-132682128D01*
X124318780Y-132539271D01*
X124318780Y-132444033D01*
X124366400Y-132301176D01*
X124414019Y-132253557D01*
X125318780Y-131301176D02*
X125318780Y-131872604D01*
X125318780Y-131586890D02*
X124318780Y-131586890D01*
X124461638Y-131682128D01*
X124556876Y-131777366D01*
X124604495Y-131872604D01*
X122229571Y-131777366D02*
X122229571Y-131444033D01*
X122753380Y-131301176D02*
X122753380Y-131777366D01*
X121753380Y-131777366D01*
X121753380Y-131301176D01*
X118956400Y-133824985D02*
X118956400Y-132967842D01*
X119238780Y-133729747D02*
X120238780Y-133396414D01*
X119238780Y-133063080D01*
X118956400Y-132967842D02*
X118956400Y-131967842D01*
X120238780Y-132729747D02*
X119238780Y-132729747D01*
X119238780Y-132348795D01*
X119286400Y-132253557D01*
X119334019Y-132205938D01*
X119429257Y-132158319D01*
X119572114Y-132158319D01*
X119667352Y-132205938D01*
X119714971Y-132253557D01*
X119762590Y-132348795D01*
X119762590Y-132729747D01*
X118956400Y-131967842D02*
X118956400Y-131110700D01*
X119953066Y-131777366D02*
X119953066Y-131301176D01*
X120238780Y-131872604D02*
X119238780Y-131539271D01*
X120238780Y-131205938D01*
X116391000Y-134301176D02*
X116391000Y-133301176D01*
X117673380Y-133491652D02*
X117197190Y-133824985D01*
X117673380Y-134063080D02*
X116673380Y-134063080D01*
X116673380Y-133682128D01*
X116721000Y-133586890D01*
X116768619Y-133539271D01*
X116863857Y-133491652D01*
X117006714Y-133491652D01*
X117101952Y-133539271D01*
X117149571Y-133586890D01*
X117197190Y-133682128D01*
X117197190Y-134063080D01*
X116391000Y-133301176D02*
X116391000Y-132253557D01*
X116673380Y-132872604D02*
X116673380Y-132682128D01*
X116721000Y-132586890D01*
X116816238Y-132491652D01*
X117006714Y-132444033D01*
X117340047Y-132444033D01*
X117530523Y-132491652D01*
X117625761Y-132586890D01*
X117673380Y-132682128D01*
X117673380Y-132872604D01*
X117625761Y-132967842D01*
X117530523Y-133063080D01*
X117340047Y-133110700D01*
X117006714Y-133110700D01*
X116816238Y-133063080D01*
X116721000Y-132967842D01*
X116673380Y-132872604D01*
X116391000Y-132253557D02*
X116391000Y-131110700D01*
X117673380Y-132015461D02*
X116673380Y-132015461D01*
X117387666Y-131682128D01*
X116673380Y-131348795D01*
X117673380Y-131348795D01*
X113851000Y-133063080D02*
X113851000Y-132063080D01*
X115133380Y-132824985D02*
X114133380Y-132824985D01*
X114133380Y-132586890D01*
X114181000Y-132444033D01*
X114276238Y-132348795D01*
X114371476Y-132301176D01*
X114561952Y-132253557D01*
X114704809Y-132253557D01*
X114895285Y-132301176D01*
X114990523Y-132348795D01*
X115085761Y-132444033D01*
X115133380Y-132586890D01*
X115133380Y-132824985D01*
X113851000Y-132063080D02*
X113851000Y-131110700D01*
X115085761Y-131872604D02*
X115133380Y-131729747D01*
X115133380Y-131491652D01*
X115085761Y-131396414D01*
X115038142Y-131348795D01*
X114942904Y-131301176D01*
X114847666Y-131301176D01*
X114752428Y-131348795D01*
X114704809Y-131396414D01*
X114657190Y-131491652D01*
X114609571Y-131682128D01*
X114561952Y-131777366D01*
X114514333Y-131824985D01*
X114419095Y-131872604D01*
X114323857Y-131872604D01*
X114228619Y-131824985D01*
X114181000Y-131777366D01*
X114133380Y-131682128D01*
X114133380Y-131444033D01*
X114181000Y-131301176D01*
X112567980Y-132444033D02*
X112091790Y-132777366D01*
X112567980Y-133015461D02*
X111567980Y-133015461D01*
X111567980Y-132634509D01*
X111615600Y-132539271D01*
X111663219Y-132491652D01*
X111758457Y-132444033D01*
X111901314Y-132444033D01*
X111996552Y-132491652D01*
X112044171Y-132539271D01*
X112091790Y-132634509D01*
X112091790Y-133015461D01*
X111285600Y-132253557D02*
X111285600Y-131110700D01*
X111567980Y-132110700D02*
X112567980Y-131872604D01*
X111853695Y-131682128D01*
X112567980Y-131491652D01*
X111567980Y-131253557D01*
X109983542Y-133110700D02*
X110031161Y-133158319D01*
X110078780Y-133301176D01*
X110078780Y-133396414D01*
X110031161Y-133539271D01*
X109935923Y-133634509D01*
X109840685Y-133682128D01*
X109650209Y-133729747D01*
X109507352Y-133729747D01*
X109316876Y-133682128D01*
X109221638Y-133634509D01*
X109126400Y-133539271D01*
X109078780Y-133396414D01*
X109078780Y-133301176D01*
X109126400Y-133158319D01*
X109174019Y-133110700D01*
X110078780Y-132205938D02*
X110078780Y-132682128D01*
X109078780Y-132682128D01*
X110078780Y-131872604D02*
X109078780Y-131872604D01*
X110078780Y-131301176D02*
X109507352Y-131729747D01*
X109078780Y-131301176D02*
X109650209Y-131872604D01*
X107513380Y-132824985D02*
X106513380Y-132824985D01*
X106513380Y-132586890D01*
X106561000Y-132444033D01*
X106656238Y-132348795D01*
X106751476Y-132301176D01*
X106941952Y-132253557D01*
X107084809Y-132253557D01*
X107275285Y-132301176D01*
X107370523Y-132348795D01*
X107465761Y-132444033D01*
X107513380Y-132586890D01*
X107513380Y-132824985D01*
X106513380Y-131396414D02*
X106513380Y-131586890D01*
X106561000Y-131682128D01*
X106608619Y-131729747D01*
X106751476Y-131824985D01*
X106941952Y-131872604D01*
X107322904Y-131872604D01*
X107418142Y-131824985D01*
X107465761Y-131777366D01*
X107513380Y-131682128D01*
X107513380Y-131491652D01*
X107465761Y-131396414D01*
X107418142Y-131348795D01*
X107322904Y-131301176D01*
X107084809Y-131301176D01*
X106989571Y-131348795D01*
X106941952Y-131396414D01*
X106894333Y-131491652D01*
X106894333Y-131682128D01*
X106941952Y-131777366D01*
X106989571Y-131824985D01*
X107084809Y-131872604D01*
X104973380Y-132824985D02*
X103973380Y-132824985D01*
X103973380Y-132586890D01*
X104021000Y-132444033D01*
X104116238Y-132348795D01*
X104211476Y-132301176D01*
X104401952Y-132253557D01*
X104544809Y-132253557D01*
X104735285Y-132301176D01*
X104830523Y-132348795D01*
X104925761Y-132444033D01*
X104973380Y-132586890D01*
X104973380Y-132824985D01*
X104306714Y-131396414D02*
X104973380Y-131396414D01*
X103925761Y-131634509D02*
X104640047Y-131872604D01*
X104640047Y-131253557D01*
X102484180Y-132824985D02*
X101484180Y-132824985D01*
X101484180Y-132586890D01*
X101531800Y-132444033D01*
X101627038Y-132348795D01*
X101722276Y-132301176D01*
X101912752Y-132253557D01*
X102055609Y-132253557D01*
X102246085Y-132301176D01*
X102341323Y-132348795D01*
X102436561Y-132444033D01*
X102484180Y-132586890D01*
X102484180Y-132824985D01*
X101579419Y-131872604D02*
X101531800Y-131824985D01*
X101484180Y-131729747D01*
X101484180Y-131491652D01*
X101531800Y-131396414D01*
X101579419Y-131348795D01*
X101674657Y-131301176D01*
X101769895Y-131301176D01*
X101912752Y-131348795D01*
X102484180Y-131920223D01*
X102484180Y-131301176D01*
X99582266Y-132729747D02*
X99582266Y-132253557D01*
X99867980Y-132824985D02*
X98867980Y-132491652D01*
X99867980Y-132158319D01*
X98867980Y-131634509D02*
X98867980Y-131539271D01*
X98915600Y-131444033D01*
X98963219Y-131396414D01*
X99058457Y-131348795D01*
X99248933Y-131301176D01*
X99487028Y-131301176D01*
X99677504Y-131348795D01*
X99772742Y-131396414D01*
X99820361Y-131444033D01*
X99867980Y-131539271D01*
X99867980Y-131634509D01*
X99820361Y-131729747D01*
X99772742Y-131777366D01*
X99677504Y-131824985D01*
X99487028Y-131872604D01*
X99248933Y-131872604D01*
X99058457Y-131824985D01*
X98963219Y-131777366D01*
X98915600Y-131729747D01*
X98867980Y-131634509D01*
X97067666Y-133682128D02*
X97067666Y-133205938D01*
X97353380Y-133777366D02*
X96353380Y-133444033D01*
X97353380Y-133110700D01*
X96448619Y-132824985D02*
X96401000Y-132777366D01*
X96353380Y-132682128D01*
X96353380Y-132444033D01*
X96401000Y-132348795D01*
X96448619Y-132301176D01*
X96543857Y-132253557D01*
X96639095Y-132253557D01*
X96781952Y-132301176D01*
X97353380Y-132872604D01*
X97353380Y-132253557D01*
X96353380Y-131634509D02*
X96353380Y-131539271D01*
X96401000Y-131444033D01*
X96448619Y-131396414D01*
X96543857Y-131348795D01*
X96734333Y-131301176D01*
X96972428Y-131301176D01*
X97162904Y-131348795D01*
X97258142Y-131396414D01*
X97305761Y-131444033D01*
X97353380Y-131539271D01*
X97353380Y-131634509D01*
X97305761Y-131729747D01*
X97258142Y-131777366D01*
X97162904Y-131824985D01*
X96972428Y-131872604D01*
X96734333Y-131872604D01*
X96543857Y-131824985D01*
X96448619Y-131777366D01*
X96401000Y-131729747D01*
X96353380Y-131634509D01*
X94527666Y-133682128D02*
X94527666Y-133205938D01*
X94813380Y-133777366D02*
X93813380Y-133444033D01*
X94813380Y-133110700D01*
X94813380Y-132253557D02*
X94813380Y-132824985D01*
X94813380Y-132539271D02*
X93813380Y-132539271D01*
X93956238Y-132634509D01*
X94051476Y-132729747D01*
X94099095Y-132824985D01*
X94241952Y-131682128D02*
X94194333Y-131777366D01*
X94146714Y-131824985D01*
X94051476Y-131872604D01*
X94003857Y-131872604D01*
X93908619Y-131824985D01*
X93861000Y-131777366D01*
X93813380Y-131682128D01*
X93813380Y-131491652D01*
X93861000Y-131396414D01*
X93908619Y-131348795D01*
X94003857Y-131301176D01*
X94051476Y-131301176D01*
X94146714Y-131348795D01*
X94194333Y-131396414D01*
X94241952Y-131491652D01*
X94241952Y-131682128D01*
X94289571Y-131777366D01*
X94337190Y-131824985D01*
X94432428Y-131872604D01*
X94622904Y-131872604D01*
X94718142Y-131824985D01*
X94765761Y-131777366D01*
X94813380Y-131682128D01*
X94813380Y-131491652D01*
X94765761Y-131396414D01*
X94718142Y-131348795D01*
X94622904Y-131301176D01*
X94432428Y-131301176D01*
X94337190Y-131348795D01*
X94289571Y-131396414D01*
X94241952Y-131491652D01*
X92013066Y-133682128D02*
X92013066Y-133205938D01*
X92298780Y-133777366D02*
X91298780Y-133444033D01*
X92298780Y-133110700D01*
X92298780Y-132253557D02*
X92298780Y-132824985D01*
X92298780Y-132539271D02*
X91298780Y-132539271D01*
X91441638Y-132634509D01*
X91536876Y-132729747D01*
X91584495Y-132824985D01*
X91298780Y-131396414D02*
X91298780Y-131586890D01*
X91346400Y-131682128D01*
X91394019Y-131729747D01*
X91536876Y-131824985D01*
X91727352Y-131872604D01*
X92108304Y-131872604D01*
X92203542Y-131824985D01*
X92251161Y-131777366D01*
X92298780Y-131682128D01*
X92298780Y-131491652D01*
X92251161Y-131396414D01*
X92203542Y-131348795D01*
X92108304Y-131301176D01*
X91870209Y-131301176D01*
X91774971Y-131348795D01*
X91727352Y-131396414D01*
X91679733Y-131491652D01*
X91679733Y-131682128D01*
X91727352Y-131777366D01*
X91774971Y-131824985D01*
X91870209Y-131872604D01*
X89447666Y-133682128D02*
X89447666Y-133205938D01*
X89733380Y-133777366D02*
X88733380Y-133444033D01*
X89733380Y-133110700D01*
X89733380Y-132253557D02*
X89733380Y-132824985D01*
X89733380Y-132539271D02*
X88733380Y-132539271D01*
X88876238Y-132634509D01*
X88971476Y-132729747D01*
X89019095Y-132824985D01*
X89066714Y-131396414D02*
X89733380Y-131396414D01*
X88685761Y-131634509D02*
X89400047Y-131872604D01*
X89400047Y-131253557D01*
X86933066Y-133682128D02*
X86933066Y-133205938D01*
X87218780Y-133777366D02*
X86218780Y-133444033D01*
X87218780Y-133110700D01*
X87218780Y-132253557D02*
X87218780Y-132824985D01*
X87218780Y-132539271D02*
X86218780Y-132539271D01*
X86361638Y-132634509D01*
X86456876Y-132729747D01*
X86504495Y-132824985D01*
X86314019Y-131872604D02*
X86266400Y-131824985D01*
X86218780Y-131729747D01*
X86218780Y-131491652D01*
X86266400Y-131396414D01*
X86314019Y-131348795D01*
X86409257Y-131301176D01*
X86504495Y-131301176D01*
X86647352Y-131348795D01*
X87218780Y-131920223D01*
X87218780Y-131301176D01*
X84393066Y-133682128D02*
X84393066Y-133205938D01*
X84678780Y-133777366D02*
X83678780Y-133444033D01*
X84678780Y-133110700D01*
X84678780Y-132253557D02*
X84678780Y-132824985D01*
X84678780Y-132539271D02*
X83678780Y-132539271D01*
X83821638Y-132634509D01*
X83916876Y-132729747D01*
X83964495Y-132824985D01*
X83678780Y-131634509D02*
X83678780Y-131539271D01*
X83726400Y-131444033D01*
X83774019Y-131396414D01*
X83869257Y-131348795D01*
X84059733Y-131301176D01*
X84297828Y-131301176D01*
X84488304Y-131348795D01*
X84583542Y-131396414D01*
X84631161Y-131444033D01*
X84678780Y-131539271D01*
X84678780Y-131634509D01*
X84631161Y-131729747D01*
X84583542Y-131777366D01*
X84488304Y-131824985D01*
X84297828Y-131872604D01*
X84059733Y-131872604D01*
X83869257Y-131824985D01*
X83774019Y-131777366D01*
X83726400Y-131729747D01*
X83678780Y-131634509D01*
X81878466Y-132729747D02*
X81878466Y-132253557D01*
X82164180Y-132824985D02*
X81164180Y-132491652D01*
X82164180Y-132158319D01*
X81592752Y-131682128D02*
X81545133Y-131777366D01*
X81497514Y-131824985D01*
X81402276Y-131872604D01*
X81354657Y-131872604D01*
X81259419Y-131824985D01*
X81211800Y-131777366D01*
X81164180Y-131682128D01*
X81164180Y-131491652D01*
X81211800Y-131396414D01*
X81259419Y-131348795D01*
X81354657Y-131301176D01*
X81402276Y-131301176D01*
X81497514Y-131348795D01*
X81545133Y-131396414D01*
X81592752Y-131491652D01*
X81592752Y-131682128D01*
X81640371Y-131777366D01*
X81687990Y-131824985D01*
X81783228Y-131872604D01*
X81973704Y-131872604D01*
X82068942Y-131824985D01*
X82116561Y-131777366D01*
X82164180Y-131682128D01*
X82164180Y-131491652D01*
X82116561Y-131396414D01*
X82068942Y-131348795D01*
X81973704Y-131301176D01*
X81783228Y-131301176D01*
X81687990Y-131348795D01*
X81640371Y-131396414D01*
X81592752Y-131491652D01*
X79313066Y-132729747D02*
X79313066Y-132253557D01*
X79598780Y-132824985D02*
X78598780Y-132491652D01*
X79598780Y-132158319D01*
X78598780Y-131396414D02*
X78598780Y-131586890D01*
X78646400Y-131682128D01*
X78694019Y-131729747D01*
X78836876Y-131824985D01*
X79027352Y-131872604D01*
X79408304Y-131872604D01*
X79503542Y-131824985D01*
X79551161Y-131777366D01*
X79598780Y-131682128D01*
X79598780Y-131491652D01*
X79551161Y-131396414D01*
X79503542Y-131348795D01*
X79408304Y-131301176D01*
X79170209Y-131301176D01*
X79074971Y-131348795D01*
X79027352Y-131396414D01*
X78979733Y-131491652D01*
X78979733Y-131682128D01*
X79027352Y-131777366D01*
X79074971Y-131824985D01*
X79170209Y-131872604D01*
X76747666Y-132729747D02*
X76747666Y-132253557D01*
X77033380Y-132824985D02*
X76033380Y-132491652D01*
X77033380Y-132158319D01*
X76366714Y-131396414D02*
X77033380Y-131396414D01*
X75985761Y-131634509D02*
X76700047Y-131872604D01*
X76700047Y-131253557D01*
X74182266Y-132729747D02*
X74182266Y-132253557D01*
X74467980Y-132824985D02*
X73467980Y-132491652D01*
X74467980Y-132158319D01*
X73563219Y-131872604D02*
X73515600Y-131824985D01*
X73467980Y-131729747D01*
X73467980Y-131491652D01*
X73515600Y-131396414D01*
X73563219Y-131348795D01*
X73658457Y-131301176D01*
X73753695Y-131301176D01*
X73896552Y-131348795D01*
X74467980Y-131920223D01*
X74467980Y-131301176D01*
X71718466Y-132729747D02*
X71718466Y-132253557D01*
X72004180Y-132824985D02*
X71004180Y-132491652D01*
X72004180Y-132158319D01*
X71004180Y-131634509D02*
X71004180Y-131539271D01*
X71051800Y-131444033D01*
X71099419Y-131396414D01*
X71194657Y-131348795D01*
X71385133Y-131301176D01*
X71623228Y-131301176D01*
X71813704Y-131348795D01*
X71908942Y-131396414D01*
X71956561Y-131444033D01*
X72004180Y-131539271D01*
X72004180Y-131634509D01*
X71956561Y-131729747D01*
X71908942Y-131777366D01*
X71813704Y-131824985D01*
X71623228Y-131872604D01*
X71385133Y-131872604D01*
X71194657Y-131824985D01*
X71099419Y-131777366D01*
X71051800Y-131729747D01*
X71004180Y-131634509D01*
X163843580Y-90416409D02*
X163843580Y-90225933D01*
X163795961Y-90130695D01*
X163748342Y-90083076D01*
X163605485Y-89987838D01*
X163415009Y-89940219D01*
X163034057Y-89940219D01*
X162938819Y-89987838D01*
X162891200Y-90035457D01*
X162843580Y-90130695D01*
X162843580Y-90321171D01*
X162891200Y-90416409D01*
X162938819Y-90464028D01*
X163034057Y-90511647D01*
X163272152Y-90511647D01*
X163367390Y-90464028D01*
X163415009Y-90416409D01*
X163462628Y-90321171D01*
X163462628Y-90130695D01*
X163415009Y-90035457D01*
X163367390Y-89987838D01*
X163272152Y-89940219D01*
X163272152Y-89368790D02*
X163224533Y-89464028D01*
X163176914Y-89511647D01*
X163081676Y-89559266D01*
X163034057Y-89559266D01*
X162938819Y-89511647D01*
X162891200Y-89464028D01*
X162843580Y-89368790D01*
X162843580Y-89178314D01*
X162891200Y-89083076D01*
X162938819Y-89035457D01*
X163034057Y-88987838D01*
X163081676Y-88987838D01*
X163176914Y-89035457D01*
X163224533Y-89083076D01*
X163272152Y-89178314D01*
X163272152Y-89368790D01*
X163319771Y-89464028D01*
X163367390Y-89511647D01*
X163462628Y-89559266D01*
X163653104Y-89559266D01*
X163748342Y-89511647D01*
X163795961Y-89464028D01*
X163843580Y-89368790D01*
X163843580Y-89178314D01*
X163795961Y-89083076D01*
X163748342Y-89035457D01*
X163653104Y-88987838D01*
X163462628Y-88987838D01*
X163367390Y-89035457D01*
X163319771Y-89083076D01*
X163272152Y-89178314D01*
X163748342Y-88559266D02*
X163795961Y-88511647D01*
X163843580Y-88559266D01*
X163795961Y-88606885D01*
X163748342Y-88559266D01*
X163843580Y-88559266D01*
X163843580Y-88035457D02*
X163843580Y-87844980D01*
X163795961Y-87749742D01*
X163748342Y-87702123D01*
X163605485Y-87606885D01*
X163415009Y-87559266D01*
X163034057Y-87559266D01*
X162938819Y-87606885D01*
X162891200Y-87654504D01*
X162843580Y-87749742D01*
X162843580Y-87940219D01*
X162891200Y-88035457D01*
X162938819Y-88083076D01*
X163034057Y-88130695D01*
X163272152Y-88130695D01*
X163367390Y-88083076D01*
X163415009Y-88035457D01*
X163462628Y-87940219D01*
X163462628Y-87749742D01*
X163415009Y-87654504D01*
X163367390Y-87606885D01*
X163272152Y-87559266D01*
X162938819Y-87178314D02*
X162891200Y-87130695D01*
X162843580Y-87035457D01*
X162843580Y-86797361D01*
X162891200Y-86702123D01*
X162938819Y-86654504D01*
X163034057Y-86606885D01*
X163129295Y-86606885D01*
X163272152Y-86654504D01*
X163843580Y-87225933D01*
X163843580Y-86606885D01*
X163272152Y-86035457D02*
X163224533Y-86130695D01*
X163176914Y-86178314D01*
X163081676Y-86225933D01*
X163034057Y-86225933D01*
X162938819Y-86178314D01*
X162891200Y-86130695D01*
X162843580Y-86035457D01*
X162843580Y-85844980D01*
X162891200Y-85749742D01*
X162938819Y-85702123D01*
X163034057Y-85654504D01*
X163081676Y-85654504D01*
X163176914Y-85702123D01*
X163224533Y-85749742D01*
X163272152Y-85844980D01*
X163272152Y-86035457D01*
X163319771Y-86130695D01*
X163367390Y-86178314D01*
X163462628Y-86225933D01*
X163653104Y-86225933D01*
X163748342Y-86178314D01*
X163795961Y-86130695D01*
X163843580Y-86035457D01*
X163843580Y-85844980D01*
X163795961Y-85749742D01*
X163748342Y-85702123D01*
X163653104Y-85654504D01*
X163462628Y-85654504D01*
X163367390Y-85702123D01*
X163319771Y-85749742D01*
X163272152Y-85844980D01*
X162843580Y-85035457D02*
X162843580Y-84940219D01*
X162891200Y-84844980D01*
X162938819Y-84797361D01*
X163034057Y-84749742D01*
X163224533Y-84702123D01*
X163462628Y-84702123D01*
X163653104Y-84749742D01*
X163748342Y-84797361D01*
X163795961Y-84844980D01*
X163843580Y-84940219D01*
X163843580Y-85035457D01*
X163795961Y-85130695D01*
X163748342Y-85178314D01*
X163653104Y-85225933D01*
X163462628Y-85273552D01*
X163224533Y-85273552D01*
X163034057Y-85225933D01*
X162938819Y-85178314D01*
X162891200Y-85130695D01*
X162843580Y-85035457D01*
X163843580Y-83511647D02*
X163176914Y-83511647D01*
X163272152Y-83511647D02*
X163224533Y-83464028D01*
X163176914Y-83368790D01*
X163176914Y-83225933D01*
X163224533Y-83130695D01*
X163319771Y-83083076D01*
X163843580Y-83083076D01*
X163319771Y-83083076D02*
X163224533Y-83035457D01*
X163176914Y-82940219D01*
X163176914Y-82797361D01*
X163224533Y-82702123D01*
X163319771Y-82654504D01*
X163843580Y-82654504D01*
X163843580Y-82178314D02*
X163176914Y-82178314D01*
X163272152Y-82178314D02*
X163224533Y-82130695D01*
X163176914Y-82035457D01*
X163176914Y-81892600D01*
X163224533Y-81797361D01*
X163319771Y-81749742D01*
X163843580Y-81749742D01*
X163319771Y-81749742D02*
X163224533Y-81702123D01*
X163176914Y-81606885D01*
X163176914Y-81464028D01*
X163224533Y-81368790D01*
X163319771Y-81321171D01*
X163843580Y-81321171D01*
X163212400Y-135356600D02*
X165127620Y-135356600D01*
X163212400Y-36428600D02*
X165127620Y-36428600D01*
X164541200Y-135356600D02*
X164541200Y-36428600D01*
X164541200Y-135356600D02*
X164541200Y-36428600D01*
X164541200Y-135356600D02*
X165127621Y-134230096D01*
X164541200Y-135356600D02*
X163954779Y-134230096D01*
X164541200Y-36428600D02*
X163954779Y-37555104D01*
X164541200Y-36428600D02*
X165127621Y-37555104D01*
X108722090Y-30493580D02*
X108912566Y-30493580D01*
X109007804Y-30445961D01*
X109055423Y-30398342D01*
X109150661Y-30255485D01*
X109198280Y-30065009D01*
X109198280Y-29684057D01*
X109150661Y-29588819D01*
X109103042Y-29541200D01*
X109007804Y-29493580D01*
X108817328Y-29493580D01*
X108722090Y-29541200D01*
X108674471Y-29588819D01*
X108626852Y-29684057D01*
X108626852Y-29922152D01*
X108674471Y-30017390D01*
X108722090Y-30065009D01*
X108817328Y-30112628D01*
X109007804Y-30112628D01*
X109103042Y-30065009D01*
X109150661Y-30017390D01*
X109198280Y-29922152D01*
X109769709Y-29922152D02*
X109674471Y-29874533D01*
X109626852Y-29826914D01*
X109579233Y-29731676D01*
X109579233Y-29684057D01*
X109626852Y-29588819D01*
X109674471Y-29541200D01*
X109769709Y-29493580D01*
X109960185Y-29493580D01*
X110055423Y-29541200D01*
X110103042Y-29588819D01*
X110150661Y-29684057D01*
X110150661Y-29731676D01*
X110103042Y-29826914D01*
X110055423Y-29874533D01*
X109960185Y-29922152D01*
X109769709Y-29922152D01*
X109674471Y-29969771D01*
X109626852Y-30017390D01*
X109579233Y-30112628D01*
X109579233Y-30303104D01*
X109626852Y-30398342D01*
X109674471Y-30445961D01*
X109769709Y-30493580D01*
X109960185Y-30493580D01*
X110055423Y-30445961D01*
X110103042Y-30398342D01*
X110150661Y-30303104D01*
X110150661Y-30112628D01*
X110103042Y-30017390D01*
X110055423Y-29969771D01*
X109960185Y-29922152D01*
X110579233Y-30398342D02*
X110626852Y-30445961D01*
X110579233Y-30493580D01*
X110531614Y-30445961D01*
X110579233Y-30398342D01*
X110579233Y-30493580D01*
X111103042Y-30493580D02*
X111293519Y-30493580D01*
X111388757Y-30445961D01*
X111436376Y-30398342D01*
X111531614Y-30255485D01*
X111579233Y-30065009D01*
X111579233Y-29684057D01*
X111531614Y-29588819D01*
X111483995Y-29541200D01*
X111388757Y-29493580D01*
X111198280Y-29493580D01*
X111103042Y-29541200D01*
X111055423Y-29588819D01*
X111007804Y-29684057D01*
X111007804Y-29922152D01*
X111055423Y-30017390D01*
X111103042Y-30065009D01*
X111198280Y-30112628D01*
X111388757Y-30112628D01*
X111483995Y-30065009D01*
X111531614Y-30017390D01*
X111579233Y-29922152D01*
X111912566Y-29493580D02*
X112531614Y-29493580D01*
X112198280Y-29874533D01*
X112341138Y-29874533D01*
X112436376Y-29922152D01*
X112483995Y-29969771D01*
X112531614Y-30065009D01*
X112531614Y-30303104D01*
X112483995Y-30398342D01*
X112436376Y-30445961D01*
X112341138Y-30493580D01*
X112055423Y-30493580D01*
X111960185Y-30445961D01*
X111912566Y-30398342D01*
X112864947Y-29493580D02*
X113483995Y-29493580D01*
X113150661Y-29874533D01*
X113293519Y-29874533D01*
X113388757Y-29922152D01*
X113436376Y-29969771D01*
X113483995Y-30065009D01*
X113483995Y-30303104D01*
X113436376Y-30398342D01*
X113388757Y-30445961D01*
X113293519Y-30493580D01*
X113007804Y-30493580D01*
X112912566Y-30445961D01*
X112864947Y-30398342D01*
X114103042Y-29493580D02*
X114198280Y-29493580D01*
X114293519Y-29541200D01*
X114341138Y-29588819D01*
X114388757Y-29684057D01*
X114436376Y-29874533D01*
X114436376Y-30112628D01*
X114388757Y-30303104D01*
X114341138Y-30398342D01*
X114293519Y-30445961D01*
X114198280Y-30493580D01*
X114103042Y-30493580D01*
X114007804Y-30445961D01*
X113960185Y-30398342D01*
X113912566Y-30303104D01*
X113864947Y-30112628D01*
X113864947Y-29874533D01*
X113912566Y-29684057D01*
X113960185Y-29588819D01*
X114007804Y-29541200D01*
X114103042Y-29493580D01*
X115626852Y-30493580D02*
X115626852Y-29826914D01*
X115626852Y-29922152D02*
X115674471Y-29874533D01*
X115769709Y-29826914D01*
X115912566Y-29826914D01*
X116007804Y-29874533D01*
X116055423Y-29969771D01*
X116055423Y-30493580D01*
X116055423Y-29969771D02*
X116103042Y-29874533D01*
X116198280Y-29826914D01*
X116341138Y-29826914D01*
X116436376Y-29874533D01*
X116483995Y-29969771D01*
X116483995Y-30493580D01*
X116960185Y-30493580D02*
X116960185Y-29826914D01*
X116960185Y-29922152D02*
X117007804Y-29874533D01*
X117103042Y-29826914D01*
X117245900Y-29826914D01*
X117341138Y-29874533D01*
X117388757Y-29969771D01*
X117388757Y-30493580D01*
X117388757Y-29969771D02*
X117436376Y-29874533D01*
X117531614Y-29826914D01*
X117674471Y-29826914D01*
X117769709Y-29874533D01*
X117817328Y-29969771D01*
X117817328Y-30493580D01*
X63779400Y-35923600D02*
X63779400Y-30604780D01*
X162712400Y-35923600D02*
X162712400Y-30604780D01*
X63779400Y-31191200D02*
X162712400Y-31191200D01*
X63779400Y-31191200D02*
X162712400Y-31191200D01*
X63779400Y-31191200D02*
X64905904Y-31777621D01*
X63779400Y-31191200D02*
X64905904Y-30604779D01*
X162712400Y-31191200D02*
X161585896Y-30604779D01*
X162712400Y-31191200D02*
X161585896Y-31777621D01*
X64704980Y-129441057D02*
X65704980Y-129107723D01*
X64704980Y-128774390D01*
X64800219Y-128488676D02*
X64752600Y-128441057D01*
X64704980Y-128345819D01*
X64704980Y-128107723D01*
X64752600Y-128012485D01*
X64800219Y-127964866D01*
X64895457Y-127917247D01*
X64990695Y-127917247D01*
X65133552Y-127964866D01*
X65704980Y-128536295D01*
X65704980Y-127917247D01*
X64704980Y-127298200D02*
X64704980Y-127202961D01*
X64752600Y-127107723D01*
X64800219Y-127060104D01*
X64895457Y-127012485D01*
X65085933Y-126964866D01*
X65324028Y-126964866D01*
X65514504Y-127012485D01*
X65609742Y-127060104D01*
X65657361Y-127107723D01*
X65704980Y-127202961D01*
X65704980Y-127298200D01*
X65657361Y-127393438D01*
X65609742Y-127441057D01*
X65514504Y-127488676D01*
X65324028Y-127536295D01*
X65085933Y-127536295D01*
X64895457Y-127488676D01*
X64800219Y-127441057D01*
X64752600Y-127393438D01*
X64704980Y-127298200D01*
X64800219Y-126583914D02*
X64752600Y-126536295D01*
X64704980Y-126441057D01*
X64704980Y-126202961D01*
X64752600Y-126107723D01*
X64800219Y-126060104D01*
X64895457Y-126012485D01*
X64990695Y-126012485D01*
X65133552Y-126060104D01*
X65704980Y-126631533D01*
X65704980Y-126012485D01*
X64800219Y-125631533D02*
X64752600Y-125583914D01*
X64704980Y-125488676D01*
X64704980Y-125250580D01*
X64752600Y-125155342D01*
X64800219Y-125107723D01*
X64895457Y-125060104D01*
X64990695Y-125060104D01*
X65133552Y-125107723D01*
X65704980Y-125679152D01*
X65704980Y-125060104D01*
X64704980Y-124441057D02*
X64704980Y-124345819D01*
X64752600Y-124250580D01*
X64800219Y-124202961D01*
X64895457Y-124155342D01*
X65085933Y-124107723D01*
X65324028Y-124107723D01*
X65514504Y-124155342D01*
X65609742Y-124202961D01*
X65657361Y-124250580D01*
X65704980Y-124345819D01*
X65704980Y-124441057D01*
X65657361Y-124536295D01*
X65609742Y-124583914D01*
X65514504Y-124631533D01*
X65324028Y-124679152D01*
X65085933Y-124679152D01*
X64895457Y-124631533D01*
X64800219Y-124583914D01*
X64752600Y-124536295D01*
X64704980Y-124441057D01*
X64704980Y-123202961D02*
X64704980Y-123679152D01*
X65181171Y-123726771D01*
X65133552Y-123679152D01*
X65085933Y-123583914D01*
X65085933Y-123345819D01*
X65133552Y-123250580D01*
X65181171Y-123202961D01*
X65276409Y-123155342D01*
X65514504Y-123155342D01*
X65609742Y-123202961D01*
X65657361Y-123250580D01*
X65704980Y-123345819D01*
X65704980Y-123583914D01*
X65657361Y-123679152D01*
X65609742Y-123726771D01*
X64704980Y-122536295D02*
X64704980Y-122441057D01*
X64752600Y-122345819D01*
X64800219Y-122298200D01*
X64895457Y-122250580D01*
X65085933Y-122202961D01*
X65324028Y-122202961D01*
X65514504Y-122250580D01*
X65609742Y-122298200D01*
X65657361Y-122345819D01*
X65704980Y-122441057D01*
X65704980Y-122536295D01*
X65657361Y-122631533D01*
X65609742Y-122679152D01*
X65514504Y-122726771D01*
X65324028Y-122774390D01*
X65085933Y-122774390D01*
X64895457Y-122726771D01*
X64800219Y-122679152D01*
X64752600Y-122631533D01*
X64704980Y-122536295D01*
X64704980Y-121869628D02*
X64704980Y-121250580D01*
X65085933Y-121583914D01*
X65085933Y-121441057D01*
X65133552Y-121345819D01*
X65181171Y-121298200D01*
X65276409Y-121250580D01*
X65514504Y-121250580D01*
X65609742Y-121298200D01*
X65657361Y-121345819D01*
X65704980Y-121441057D01*
X65704980Y-121726771D01*
X65657361Y-121822009D01*
X65609742Y-121869628D01*
X148865180Y-86784333D02*
X148865180Y-86974809D01*
X148912800Y-87070047D01*
X148960419Y-87117666D01*
X149103276Y-87212904D01*
X149293752Y-87260523D01*
X149674704Y-87260523D01*
X149769942Y-87212904D01*
X149817561Y-87165285D01*
X149865180Y-87070047D01*
X149865180Y-86879571D01*
X149817561Y-86784333D01*
X149769942Y-86736714D01*
X149674704Y-86689095D01*
X149436609Y-86689095D01*
X149341371Y-86736714D01*
X149293752Y-86784333D01*
X149246133Y-86879571D01*
X149246133Y-87070047D01*
X149293752Y-87165285D01*
X149341371Y-87212904D01*
X149436609Y-87260523D01*
X149293752Y-86117666D02*
X149246133Y-86212904D01*
X149198514Y-86260523D01*
X149103276Y-86308142D01*
X149055657Y-86308142D01*
X148960419Y-86260523D01*
X148912800Y-86212904D01*
X148865180Y-86117666D01*
X148865180Y-85927190D01*
X148912800Y-85831952D01*
X148960419Y-85784333D01*
X149055657Y-85736714D01*
X149103276Y-85736714D01*
X149198514Y-85784333D01*
X149246133Y-85831952D01*
X149293752Y-85927190D01*
X149293752Y-86117666D01*
X149341371Y-86212904D01*
X149388990Y-86260523D01*
X149484228Y-86308142D01*
X149674704Y-86308142D01*
X149769942Y-86260523D01*
X149817561Y-86212904D01*
X149865180Y-86117666D01*
X149865180Y-85927190D01*
X149817561Y-85831952D01*
X149769942Y-85784333D01*
X149674704Y-85736714D01*
X149484228Y-85736714D01*
X149388990Y-85784333D01*
X149341371Y-85831952D01*
X149293752Y-85927190D01*
X148865180Y-84879571D02*
X148865180Y-85070047D01*
X148912800Y-85165285D01*
X148960419Y-85212904D01*
X149103276Y-85308142D01*
X149293752Y-85355761D01*
X149674704Y-85355761D01*
X149769942Y-85308142D01*
X149817561Y-85260523D01*
X149865180Y-85165285D01*
X149865180Y-84974809D01*
X149817561Y-84879571D01*
X149769942Y-84831952D01*
X149674704Y-84784333D01*
X149436609Y-84784333D01*
X149341371Y-84831952D01*
X149293752Y-84879571D01*
X149246133Y-84974809D01*
X149246133Y-85165285D01*
X149293752Y-85260523D01*
X149341371Y-85308142D01*
X149436609Y-85355761D01*
X149293752Y-84212904D02*
X149246133Y-84308142D01*
X149198514Y-84355761D01*
X149103276Y-84403380D01*
X149055657Y-84403380D01*
X148960419Y-84355761D01*
X148912800Y-84308142D01*
X148865180Y-84212904D01*
X148865180Y-84022428D01*
X148912800Y-83927190D01*
X148960419Y-83879571D01*
X149055657Y-83831952D01*
X149103276Y-83831952D01*
X149198514Y-83879571D01*
X149246133Y-83927190D01*
X149293752Y-84022428D01*
X149293752Y-84212904D01*
X149341371Y-84308142D01*
X149388990Y-84355761D01*
X149484228Y-84403380D01*
X149674704Y-84403380D01*
X149769942Y-84355761D01*
X149817561Y-84308142D01*
X149865180Y-84212904D01*
X149865180Y-84022428D01*
X149817561Y-83927190D01*
X149769942Y-83879571D01*
X149674704Y-83831952D01*
X149484228Y-83831952D01*
X149388990Y-83879571D01*
X149341371Y-83927190D01*
X149293752Y-84022428D01*
X149865180Y-82879571D02*
X149865180Y-83451000D01*
X149865180Y-83165285D02*
X148865180Y-83165285D01*
X149008038Y-83260523D01*
X149103276Y-83355761D01*
X149150895Y-83451000D01*
X149865180Y-81689095D02*
X148865180Y-81689095D01*
X149865180Y-81212904D02*
X148865180Y-81212904D01*
X148865180Y-80831952D01*
X148912800Y-80736714D01*
X148960419Y-80689095D01*
X149055657Y-80641476D01*
X149198514Y-80641476D01*
X149293752Y-80689095D01*
X149341371Y-80736714D01*
X149388990Y-80831952D01*
X149388990Y-81212904D01*
X158440980Y-87355762D02*
X158440980Y-87546238D01*
X158488600Y-87641476D01*
X158536219Y-87689095D01*
X158679076Y-87784334D01*
X158869552Y-87831953D01*
X159250504Y-87831953D01*
X159345742Y-87784334D01*
X159393361Y-87736715D01*
X159440980Y-87641476D01*
X159440980Y-87451000D01*
X159393361Y-87355762D01*
X159345742Y-87308143D01*
X159250504Y-87260524D01*
X159012409Y-87260524D01*
X158917171Y-87308143D01*
X158869552Y-87355762D01*
X158821933Y-87451000D01*
X158821933Y-87641476D01*
X158869552Y-87736715D01*
X158917171Y-87784334D01*
X159012409Y-87831953D01*
X158869552Y-86689095D02*
X158821933Y-86784334D01*
X158774314Y-86831953D01*
X158679076Y-86879572D01*
X158631457Y-86879572D01*
X158536219Y-86831953D01*
X158488600Y-86784334D01*
X158440980Y-86689095D01*
X158440980Y-86498619D01*
X158488600Y-86403381D01*
X158536219Y-86355762D01*
X158631457Y-86308143D01*
X158679076Y-86308143D01*
X158774314Y-86355762D01*
X158821933Y-86403381D01*
X158869552Y-86498619D01*
X158869552Y-86689095D01*
X158917171Y-86784334D01*
X158964790Y-86831953D01*
X159060028Y-86879572D01*
X159250504Y-86879572D01*
X159345742Y-86831953D01*
X159393361Y-86784334D01*
X159440980Y-86689095D01*
X159440980Y-86498619D01*
X159393361Y-86403381D01*
X159345742Y-86355762D01*
X159250504Y-86308143D01*
X159060028Y-86308143D01*
X158964790Y-86355762D01*
X158917171Y-86403381D01*
X158869552Y-86498619D01*
X158440980Y-85451000D02*
X158440980Y-85641476D01*
X158488600Y-85736715D01*
X158536219Y-85784334D01*
X158679076Y-85879572D01*
X158869552Y-85927191D01*
X159250504Y-85927191D01*
X159345742Y-85879572D01*
X159393361Y-85831953D01*
X159440980Y-85736715D01*
X159440980Y-85546238D01*
X159393361Y-85451000D01*
X159345742Y-85403381D01*
X159250504Y-85355762D01*
X159012409Y-85355762D01*
X158917171Y-85403381D01*
X158869552Y-85451000D01*
X158821933Y-85546238D01*
X158821933Y-85736715D01*
X158869552Y-85831953D01*
X158917171Y-85879572D01*
X159012409Y-85927191D01*
X158869552Y-84784334D02*
X158821933Y-84879572D01*
X158774314Y-84927191D01*
X158679076Y-84974810D01*
X158631457Y-84974810D01*
X158536219Y-84927191D01*
X158488600Y-84879572D01*
X158440980Y-84784334D01*
X158440980Y-84593857D01*
X158488600Y-84498619D01*
X158536219Y-84451000D01*
X158631457Y-84403381D01*
X158679076Y-84403381D01*
X158774314Y-84451000D01*
X158821933Y-84498619D01*
X158869552Y-84593857D01*
X158869552Y-84784334D01*
X158917171Y-84879572D01*
X158964790Y-84927191D01*
X159060028Y-84974810D01*
X159250504Y-84974810D01*
X159345742Y-84927191D01*
X159393361Y-84879572D01*
X159440980Y-84784334D01*
X159440980Y-84593857D01*
X159393361Y-84498619D01*
X159345742Y-84451000D01*
X159250504Y-84403381D01*
X159060028Y-84403381D01*
X158964790Y-84451000D01*
X158917171Y-84498619D01*
X158869552Y-84593857D01*
X159440980Y-83451000D02*
X159440980Y-84022429D01*
X159440980Y-83736715D02*
X158440980Y-83736715D01*
X158583838Y-83831953D01*
X158679076Y-83927191D01*
X158726695Y-84022429D01*
X158440980Y-82070048D02*
X158440980Y-81879572D01*
X158488600Y-81784334D01*
X158583838Y-81689095D01*
X158774314Y-81641476D01*
X159107647Y-81641476D01*
X159298123Y-81689095D01*
X159393361Y-81784334D01*
X159440980Y-81879572D01*
X159440980Y-82070048D01*
X159393361Y-82165286D01*
X159298123Y-82260524D01*
X159107647Y-82308143D01*
X158774314Y-82308143D01*
X158583838Y-82260524D01*
X158488600Y-82165286D01*
X158440980Y-82070048D01*
X159440980Y-81212905D02*
X158440980Y-81212905D01*
X158440980Y-80831953D01*
X158488600Y-80736715D01*
X158536219Y-80689095D01*
X158631457Y-80641476D01*
X158774314Y-80641476D01*
X158869552Y-80689095D01*
X158917171Y-80736715D01*
X158964790Y-80831953D01*
X158964790Y-81212905D01*
D11*
X107283047Y-67225676D02*
X107473523Y-66654247D01*
X107473523Y-65701866D01*
X107283047Y-65320914D01*
X107092571Y-65130438D01*
X106711619Y-64939961D01*
X106330666Y-64939961D01*
X105949714Y-65130438D01*
X105759238Y-65320914D01*
X105568761Y-65701866D01*
X105378285Y-66463771D01*
X105187809Y-66844723D01*
X104997333Y-67035200D01*
X104616380Y-67225676D01*
X104235428Y-67225676D01*
X103854476Y-67035200D01*
X103664000Y-66844723D01*
X103473523Y-66463771D01*
X103473523Y-65511390D01*
X103664000Y-64939961D01*
X104806857Y-63797104D02*
X104806857Y-62273295D01*
X103473523Y-63225676D02*
X106902095Y-63225676D01*
X107283047Y-63035200D01*
X107473523Y-62654247D01*
X107473523Y-62273295D01*
X107283047Y-59416152D02*
X107473523Y-59797104D01*
X107473523Y-60559009D01*
X107283047Y-60939961D01*
X106902095Y-61130438D01*
X105378285Y-61130438D01*
X104997333Y-60939961D01*
X104806857Y-60559009D01*
X104806857Y-59797104D01*
X104997333Y-59416152D01*
X105378285Y-59225676D01*
X105759238Y-59225676D01*
X106140190Y-61130438D01*
X104806857Y-57892342D02*
X107473523Y-56939961D01*
X104806857Y-55987580D01*
X107283047Y-52939961D02*
X107473523Y-53320914D01*
X107473523Y-54082819D01*
X107283047Y-54463771D01*
X106902095Y-54654247D01*
X105378285Y-54654247D01*
X104997333Y-54463771D01*
X104806857Y-54082819D01*
X104806857Y-53320914D01*
X104997333Y-52939961D01*
X105378285Y-52749485D01*
X105759238Y-52749485D01*
X106140190Y-54654247D01*
X103473523Y-46273295D02*
X103473523Y-47035200D01*
X103664000Y-47416152D01*
X103854476Y-47606628D01*
X104425904Y-47987580D01*
X105187809Y-48178057D01*
X106711619Y-48178057D01*
X107092571Y-47987580D01*
X107283047Y-47797104D01*
X107473523Y-47416152D01*
X107473523Y-46654247D01*
X107283047Y-46273295D01*
X107092571Y-46082819D01*
X106711619Y-45892342D01*
X105759238Y-45892342D01*
X105378285Y-46082819D01*
X105187809Y-46273295D01*
X104997333Y-46654247D01*
X104997333Y-47416152D01*
X105187809Y-47797104D01*
X105378285Y-47987580D01*
X105759238Y-48178057D01*
X105187809Y-43606628D02*
X104997333Y-43987580D01*
X104806857Y-44178057D01*
X104425904Y-44368533D01*
X104235428Y-44368533D01*
X103854476Y-44178057D01*
X103664000Y-43987580D01*
X103473523Y-43606628D01*
X103473523Y-42844723D01*
X103664000Y-42463771D01*
X103854476Y-42273295D01*
X104235428Y-42082819D01*
X104425904Y-42082819D01*
X104806857Y-42273295D01*
X104997333Y-42463771D01*
X105187809Y-42844723D01*
X105187809Y-43606628D01*
X105378285Y-43987580D01*
X105568761Y-44178057D01*
X105949714Y-44368533D01*
X106711619Y-44368533D01*
X107092571Y-44178057D01*
X107283047Y-43987580D01*
X107473523Y-43606628D01*
X107473523Y-42844723D01*
X107283047Y-42463771D01*
X107092571Y-42273295D01*
X106711619Y-42082819D01*
X105949714Y-42082819D01*
X105568761Y-42273295D01*
X105378285Y-42463771D01*
X105187809Y-42844723D01*
X107473523Y-40368533D02*
X103473523Y-40368533D01*
X105949714Y-39987580D02*
X107473523Y-38844723D01*
X104806857Y-38844723D02*
X106330666Y-40368533D01*
D12*
X75538314Y-114443400D02*
X75466885Y-114407685D01*
X75359742Y-114407685D01*
X75252600Y-114443400D01*
X75181171Y-114514828D01*
X75145457Y-114586257D01*
X75109742Y-114729114D01*
X75109742Y-114836257D01*
X75145457Y-114979114D01*
X75181171Y-115050542D01*
X75252600Y-115121971D01*
X75359742Y-115157685D01*
X75431171Y-115157685D01*
X75538314Y-115121971D01*
X75574028Y-115086257D01*
X75574028Y-114836257D01*
X75431171Y-114836257D01*
X75895457Y-115157685D02*
X75895457Y-114407685D01*
X76324028Y-115157685D01*
X76324028Y-114407685D01*
X76681171Y-115157685D02*
X76681171Y-114407685D01*
X76859742Y-114407685D01*
X76966885Y-114443400D01*
X77038314Y-114514828D01*
X77074028Y-114586257D01*
X77109742Y-114729114D01*
X77109742Y-114836257D01*
X77074028Y-114979114D01*
X77038314Y-115050542D01*
X76966885Y-115121971D01*
X76859742Y-115157685D01*
X76681171Y-115157685D01*
X73522457Y-117381028D02*
X73772457Y-117381028D01*
X73879600Y-117773885D02*
X73522457Y-117773885D01*
X73522457Y-117023885D01*
X73879600Y-117023885D01*
X74129600Y-117773885D02*
X74522457Y-117273885D01*
X74129600Y-117273885D02*
X74522457Y-117773885D01*
X74701028Y-117273885D02*
X74986742Y-117273885D01*
X74808171Y-117023885D02*
X74808171Y-117666742D01*
X74843885Y-117738171D01*
X74915314Y-117773885D01*
X74986742Y-117773885D01*
X76236742Y-117702457D02*
X76201028Y-117738171D01*
X76093885Y-117773885D01*
X76022457Y-117773885D01*
X75915314Y-117738171D01*
X75843885Y-117666742D01*
X75808171Y-117595314D01*
X75772457Y-117452457D01*
X75772457Y-117345314D01*
X75808171Y-117202457D01*
X75843885Y-117131028D01*
X75915314Y-117059600D01*
X76022457Y-117023885D01*
X76093885Y-117023885D01*
X76201028Y-117059600D01*
X76236742Y-117095314D01*
X76665314Y-117773885D02*
X76593885Y-117738171D01*
X76558171Y-117666742D01*
X76558171Y-117023885D01*
X76951028Y-117773885D02*
X76951028Y-117023885D01*
X77022457Y-117488171D02*
X77236742Y-117773885D01*
X77236742Y-117273885D02*
X76951028Y-117559600D01*
X65339657Y-115157685D02*
X65339657Y-114407685D01*
X65696800Y-114657685D02*
X65696800Y-115157685D01*
X65696800Y-114729114D02*
X65732514Y-114693400D01*
X65803942Y-114657685D01*
X65911085Y-114657685D01*
X65982514Y-114693400D01*
X66018228Y-114764828D01*
X66018228Y-115157685D01*
X66268228Y-114657685D02*
X66553942Y-114657685D01*
X66375371Y-114407685D02*
X66375371Y-115050542D01*
X66411085Y-115121971D01*
X66482514Y-115157685D01*
X66553942Y-115157685D01*
X67803942Y-115086257D02*
X67768228Y-115121971D01*
X67661085Y-115157685D01*
X67589657Y-115157685D01*
X67482514Y-115121971D01*
X67411085Y-115050542D01*
X67375371Y-114979114D01*
X67339657Y-114836257D01*
X67339657Y-114729114D01*
X67375371Y-114586257D01*
X67411085Y-114514828D01*
X67482514Y-114443400D01*
X67589657Y-114407685D01*
X67661085Y-114407685D01*
X67768228Y-114443400D01*
X67803942Y-114479114D01*
X68232514Y-115157685D02*
X68161085Y-115121971D01*
X68125371Y-115050542D01*
X68125371Y-114407685D01*
X68518228Y-115157685D02*
X68518228Y-114407685D01*
X68589657Y-114871971D02*
X68803942Y-115157685D01*
X68803942Y-114657685D02*
X68518228Y-114943400D01*
X65089657Y-119819428D02*
X65339657Y-119819428D01*
X65446800Y-120212285D02*
X65089657Y-120212285D01*
X65089657Y-119462285D01*
X65446800Y-119462285D01*
X65696800Y-120212285D02*
X66089657Y-119712285D01*
X65696800Y-119712285D02*
X66089657Y-120212285D01*
X66268228Y-119712285D02*
X66553942Y-119712285D01*
X66375371Y-119462285D02*
X66375371Y-120105142D01*
X66411085Y-120176571D01*
X66482514Y-120212285D01*
X66553942Y-120212285D01*
X67803942Y-120140857D02*
X67768228Y-120176571D01*
X67661085Y-120212285D01*
X67589657Y-120212285D01*
X67482514Y-120176571D01*
X67411085Y-120105142D01*
X67375371Y-120033714D01*
X67339657Y-119890857D01*
X67339657Y-119783714D01*
X67375371Y-119640857D01*
X67411085Y-119569428D01*
X67482514Y-119498000D01*
X67589657Y-119462285D01*
X67661085Y-119462285D01*
X67768228Y-119498000D01*
X67803942Y-119533714D01*
X68232514Y-120212285D02*
X68161085Y-120176571D01*
X68125371Y-120105142D01*
X68125371Y-119462285D01*
X68518228Y-120212285D02*
X68518228Y-119462285D01*
X68589657Y-119926571D02*
X68803942Y-120212285D01*
X68803942Y-119712285D02*
X68518228Y-119998000D01*
D10*
%TO.C,R7*%
X150497333Y-100909380D02*
X150164000Y-100433190D01*
X149925904Y-100909380D02*
X149925904Y-99909380D01*
X150306857Y-99909380D01*
X150402095Y-99957000D01*
X150449714Y-100004619D01*
X150497333Y-100099857D01*
X150497333Y-100242714D01*
X150449714Y-100337952D01*
X150402095Y-100385571D01*
X150306857Y-100433190D01*
X149925904Y-100433190D01*
X150830666Y-99909380D02*
X151497333Y-99909380D01*
X151068761Y-100909380D01*
%TO.C,D2*%
X160517704Y-100909380D02*
X160517704Y-99909380D01*
X160755800Y-99909380D01*
X160898657Y-99957000D01*
X160993895Y-100052238D01*
X161041514Y-100147476D01*
X161089133Y-100337952D01*
X161089133Y-100480809D01*
X161041514Y-100671285D01*
X160993895Y-100766523D01*
X160898657Y-100861761D01*
X160755800Y-100909380D01*
X160517704Y-100909380D01*
X161470085Y-100004619D02*
X161517704Y-99957000D01*
X161612942Y-99909380D01*
X161851038Y-99909380D01*
X161946276Y-99957000D01*
X161993895Y-100004619D01*
X162041514Y-100099857D01*
X162041514Y-100195095D01*
X161993895Y-100337952D01*
X161422466Y-100909380D01*
X162041514Y-100909380D01*
X157049885Y-102907180D02*
X156716552Y-102430990D01*
X156478457Y-102907180D02*
X156478457Y-101907180D01*
X156859409Y-101907180D01*
X156954647Y-101954800D01*
X157002266Y-102002419D01*
X157049885Y-102097657D01*
X157049885Y-102240514D01*
X157002266Y-102335752D01*
X156954647Y-102383371D01*
X156859409Y-102430990D01*
X156478457Y-102430990D01*
X157668933Y-101907180D02*
X157859409Y-101907180D01*
X157954647Y-101954800D01*
X158049885Y-102050038D01*
X158097504Y-102240514D01*
X158097504Y-102573847D01*
X158049885Y-102764323D01*
X157954647Y-102859561D01*
X157859409Y-102907180D01*
X157668933Y-102907180D01*
X157573695Y-102859561D01*
X157478457Y-102764323D01*
X157430838Y-102573847D01*
X157430838Y-102240514D01*
X157478457Y-102050038D01*
X157573695Y-101954800D01*
X157668933Y-101907180D01*
X158526076Y-102907180D02*
X158526076Y-101907180D01*
X158859409Y-102621466D01*
X159192742Y-101907180D01*
X159192742Y-102907180D01*
%TO.C,SW1*%
X155333866Y-113499561D02*
X155476723Y-113547180D01*
X155714819Y-113547180D01*
X155810057Y-113499561D01*
X155857676Y-113451942D01*
X155905295Y-113356704D01*
X155905295Y-113261466D01*
X155857676Y-113166228D01*
X155810057Y-113118609D01*
X155714819Y-113070990D01*
X155524342Y-113023371D01*
X155429104Y-112975752D01*
X155381485Y-112928133D01*
X155333866Y-112832895D01*
X155333866Y-112737657D01*
X155381485Y-112642419D01*
X155429104Y-112594800D01*
X155524342Y-112547180D01*
X155762438Y-112547180D01*
X155905295Y-112594800D01*
X156238628Y-112547180D02*
X156476723Y-113547180D01*
X156667200Y-112832895D01*
X156857676Y-113547180D01*
X157095771Y-112547180D01*
X158000533Y-113547180D02*
X157429104Y-113547180D01*
X157714819Y-113547180D02*
X157714819Y-112547180D01*
X157619580Y-112690038D01*
X157524342Y-112785276D01*
X157429104Y-112832895D01*
%TO.C,R10*%
X98950542Y-43065980D02*
X98617209Y-42589790D01*
X98379114Y-43065980D02*
X98379114Y-42065980D01*
X98760066Y-42065980D01*
X98855304Y-42113600D01*
X98902923Y-42161219D01*
X98950542Y-42256457D01*
X98950542Y-42399314D01*
X98902923Y-42494552D01*
X98855304Y-42542171D01*
X98760066Y-42589790D01*
X98379114Y-42589790D01*
X99902923Y-43065980D02*
X99331495Y-43065980D01*
X99617209Y-43065980D02*
X99617209Y-42065980D01*
X99521971Y-42208838D01*
X99426733Y-42304076D01*
X99331495Y-42351695D01*
X100521971Y-42065980D02*
X100617209Y-42065980D01*
X100712447Y-42113600D01*
X100760066Y-42161219D01*
X100807685Y-42256457D01*
X100855304Y-42446933D01*
X100855304Y-42685028D01*
X100807685Y-42875504D01*
X100760066Y-42970742D01*
X100712447Y-43018361D01*
X100617209Y-43065980D01*
X100521971Y-43065980D01*
X100426733Y-43018361D01*
X100379114Y-42970742D01*
X100331495Y-42875504D01*
X100283876Y-42685028D01*
X100283876Y-42446933D01*
X100331495Y-42256457D01*
X100379114Y-42161219D01*
X100426733Y-42113600D01*
X100521971Y-42065980D01*
%TO.C,R9*%
X150477733Y-108580180D02*
X150144400Y-108103990D01*
X149906304Y-108580180D02*
X149906304Y-107580180D01*
X150287257Y-107580180D01*
X150382495Y-107627800D01*
X150430114Y-107675419D01*
X150477733Y-107770657D01*
X150477733Y-107913514D01*
X150430114Y-108008752D01*
X150382495Y-108056371D01*
X150287257Y-108103990D01*
X149906304Y-108103990D01*
X150953923Y-108580180D02*
X151144400Y-108580180D01*
X151239638Y-108532561D01*
X151287257Y-108484942D01*
X151382495Y-108342085D01*
X151430114Y-108151609D01*
X151430114Y-107770657D01*
X151382495Y-107675419D01*
X151334876Y-107627800D01*
X151239638Y-107580180D01*
X151049161Y-107580180D01*
X150953923Y-107627800D01*
X150906304Y-107675419D01*
X150858685Y-107770657D01*
X150858685Y-108008752D01*
X150906304Y-108103990D01*
X150953923Y-108151609D01*
X151049161Y-108199228D01*
X151239638Y-108199228D01*
X151334876Y-108151609D01*
X151382495Y-108103990D01*
X151430114Y-108008752D01*
%TO.C,R8*%
X150491933Y-104820980D02*
X150158600Y-104344790D01*
X149920504Y-104820980D02*
X149920504Y-103820980D01*
X150301457Y-103820980D01*
X150396695Y-103868600D01*
X150444314Y-103916219D01*
X150491933Y-104011457D01*
X150491933Y-104154314D01*
X150444314Y-104249552D01*
X150396695Y-104297171D01*
X150301457Y-104344790D01*
X149920504Y-104344790D01*
X151063361Y-104249552D02*
X150968123Y-104201933D01*
X150920504Y-104154314D01*
X150872885Y-104059076D01*
X150872885Y-104011457D01*
X150920504Y-103916219D01*
X150968123Y-103868600D01*
X151063361Y-103820980D01*
X151253838Y-103820980D01*
X151349076Y-103868600D01*
X151396695Y-103916219D01*
X151444314Y-104011457D01*
X151444314Y-104059076D01*
X151396695Y-104154314D01*
X151349076Y-104201933D01*
X151253838Y-104249552D01*
X151063361Y-104249552D01*
X150968123Y-104297171D01*
X150920504Y-104344790D01*
X150872885Y-104440028D01*
X150872885Y-104630504D01*
X150920504Y-104725742D01*
X150968123Y-104773361D01*
X151063361Y-104820980D01*
X151253838Y-104820980D01*
X151349076Y-104773361D01*
X151396695Y-104725742D01*
X151444314Y-104630504D01*
X151444314Y-104440028D01*
X151396695Y-104344790D01*
X151349076Y-104297171D01*
X151253838Y-104249552D01*
%TO.C,R6*%
X140596333Y-68658980D02*
X140263000Y-68182790D01*
X140024904Y-68658980D02*
X140024904Y-67658980D01*
X140405857Y-67658980D01*
X140501095Y-67706600D01*
X140548714Y-67754219D01*
X140596333Y-67849457D01*
X140596333Y-67992314D01*
X140548714Y-68087552D01*
X140501095Y-68135171D01*
X140405857Y-68182790D01*
X140024904Y-68182790D01*
X141453476Y-67658980D02*
X141263000Y-67658980D01*
X141167761Y-67706600D01*
X141120142Y-67754219D01*
X141024904Y-67897076D01*
X140977285Y-68087552D01*
X140977285Y-68468504D01*
X141024904Y-68563742D01*
X141072523Y-68611361D01*
X141167761Y-68658980D01*
X141358238Y-68658980D01*
X141453476Y-68611361D01*
X141501095Y-68563742D01*
X141548714Y-68468504D01*
X141548714Y-68230409D01*
X141501095Y-68135171D01*
X141453476Y-68087552D01*
X141358238Y-68039933D01*
X141167761Y-68039933D01*
X141072523Y-68087552D01*
X141024904Y-68135171D01*
X140977285Y-68230409D01*
%TO.C,R5*%
X93416933Y-95753380D02*
X93083600Y-95277190D01*
X92845504Y-95753380D02*
X92845504Y-94753380D01*
X93226457Y-94753380D01*
X93321695Y-94801000D01*
X93369314Y-94848619D01*
X93416933Y-94943857D01*
X93416933Y-95086714D01*
X93369314Y-95181952D01*
X93321695Y-95229571D01*
X93226457Y-95277190D01*
X92845504Y-95277190D01*
X94321695Y-94753380D02*
X93845504Y-94753380D01*
X93797885Y-95229571D01*
X93845504Y-95181952D01*
X93940742Y-95134333D01*
X94178838Y-95134333D01*
X94274076Y-95181952D01*
X94321695Y-95229571D01*
X94369314Y-95324809D01*
X94369314Y-95562904D01*
X94321695Y-95658142D01*
X94274076Y-95705761D01*
X94178838Y-95753380D01*
X93940742Y-95753380D01*
X93845504Y-95705761D01*
X93797885Y-95658142D01*
%TO.C,R4*%
X99528333Y-59982480D02*
X99195000Y-59506290D01*
X98956904Y-59982480D02*
X98956904Y-58982480D01*
X99337857Y-58982480D01*
X99433095Y-59030100D01*
X99480714Y-59077719D01*
X99528333Y-59172957D01*
X99528333Y-59315814D01*
X99480714Y-59411052D01*
X99433095Y-59458671D01*
X99337857Y-59506290D01*
X98956904Y-59506290D01*
X100385476Y-59315814D02*
X100385476Y-59982480D01*
X100147380Y-58934861D02*
X99909285Y-59649147D01*
X100528333Y-59649147D01*
%TO.C,R3*%
X99528333Y-55727880D02*
X99195000Y-55251690D01*
X98956904Y-55727880D02*
X98956904Y-54727880D01*
X99337857Y-54727880D01*
X99433095Y-54775500D01*
X99480714Y-54823119D01*
X99528333Y-54918357D01*
X99528333Y-55061214D01*
X99480714Y-55156452D01*
X99433095Y-55204071D01*
X99337857Y-55251690D01*
X98956904Y-55251690D01*
X99861666Y-54727880D02*
X100480714Y-54727880D01*
X100147380Y-55108833D01*
X100290238Y-55108833D01*
X100385476Y-55156452D01*
X100433095Y-55204071D01*
X100480714Y-55299309D01*
X100480714Y-55537404D01*
X100433095Y-55632642D01*
X100385476Y-55680261D01*
X100290238Y-55727880D01*
X100004523Y-55727880D01*
X99909285Y-55680261D01*
X99861666Y-55632642D01*
%TO.C,R2*%
X99528333Y-51473380D02*
X99195000Y-50997190D01*
X98956904Y-51473380D02*
X98956904Y-50473380D01*
X99337857Y-50473380D01*
X99433095Y-50521000D01*
X99480714Y-50568619D01*
X99528333Y-50663857D01*
X99528333Y-50806714D01*
X99480714Y-50901952D01*
X99433095Y-50949571D01*
X99337857Y-50997190D01*
X98956904Y-50997190D01*
X99909285Y-50568619D02*
X99956904Y-50521000D01*
X100052142Y-50473380D01*
X100290238Y-50473380D01*
X100385476Y-50521000D01*
X100433095Y-50568619D01*
X100480714Y-50663857D01*
X100480714Y-50759095D01*
X100433095Y-50901952D01*
X99861666Y-51473380D01*
X100480714Y-51473380D01*
%TO.C,R1*%
X99528333Y-47218880D02*
X99195000Y-46742690D01*
X98956904Y-47218880D02*
X98956904Y-46218880D01*
X99337857Y-46218880D01*
X99433095Y-46266500D01*
X99480714Y-46314119D01*
X99528333Y-46409357D01*
X99528333Y-46552214D01*
X99480714Y-46647452D01*
X99433095Y-46695071D01*
X99337857Y-46742690D01*
X98956904Y-46742690D01*
X100480714Y-47218880D02*
X99909285Y-47218880D01*
X100195000Y-47218880D02*
X100195000Y-46218880D01*
X100099761Y-46361738D01*
X100004523Y-46456976D01*
X99909285Y-46504595D01*
%TO.C,D4*%
X160374104Y-108630980D02*
X160374104Y-107630980D01*
X160612200Y-107630980D01*
X160755057Y-107678600D01*
X160850295Y-107773838D01*
X160897914Y-107869076D01*
X160945533Y-108059552D01*
X160945533Y-108202409D01*
X160897914Y-108392885D01*
X160850295Y-108488123D01*
X160755057Y-108583361D01*
X160612200Y-108630980D01*
X160374104Y-108630980D01*
X161802676Y-107964314D02*
X161802676Y-108630980D01*
X161564580Y-107583361D02*
X161326485Y-108297647D01*
X161945533Y-108297647D01*
X156214961Y-109450980D02*
X156214961Y-110260504D01*
X156262580Y-110355742D01*
X156310200Y-110403361D01*
X156405438Y-110450980D01*
X156595914Y-110450980D01*
X156691152Y-110403361D01*
X156738771Y-110355742D01*
X156786390Y-110260504D01*
X156786390Y-109450980D01*
X157214961Y-110165266D02*
X157691152Y-110165266D01*
X157119723Y-110450980D02*
X157453057Y-109450980D01*
X157786390Y-110450980D01*
X158691152Y-110450980D02*
X158357819Y-109974790D01*
X158119723Y-110450980D02*
X158119723Y-109450980D01*
X158500676Y-109450980D01*
X158595914Y-109498600D01*
X158643533Y-109546219D01*
X158691152Y-109641457D01*
X158691152Y-109784314D01*
X158643533Y-109879552D01*
X158595914Y-109927171D01*
X158500676Y-109974790D01*
X158119723Y-109974790D01*
X158976866Y-109450980D02*
X159548295Y-109450980D01*
X159262580Y-110450980D02*
X159262580Y-109450980D01*
%TO.C,D3*%
X160501104Y-104846380D02*
X160501104Y-103846380D01*
X160739200Y-103846380D01*
X160882057Y-103894000D01*
X160977295Y-103989238D01*
X161024914Y-104084476D01*
X161072533Y-104274952D01*
X161072533Y-104417809D01*
X161024914Y-104608285D01*
X160977295Y-104703523D01*
X160882057Y-104798761D01*
X160739200Y-104846380D01*
X160501104Y-104846380D01*
X161405866Y-103846380D02*
X162024914Y-103846380D01*
X161691580Y-104227333D01*
X161834438Y-104227333D01*
X161929676Y-104274952D01*
X161977295Y-104322571D01*
X162024914Y-104417809D01*
X162024914Y-104655904D01*
X161977295Y-104751142D01*
X161929676Y-104798761D01*
X161834438Y-104846380D01*
X161548723Y-104846380D01*
X161453485Y-104798761D01*
X161405866Y-104751142D01*
X157145123Y-106818780D02*
X156811790Y-106342590D01*
X156573695Y-106818780D02*
X156573695Y-105818780D01*
X156954647Y-105818780D01*
X157049885Y-105866400D01*
X157097504Y-105914019D01*
X157145123Y-106009257D01*
X157145123Y-106152114D01*
X157097504Y-106247352D01*
X157049885Y-106294971D01*
X156954647Y-106342590D01*
X156573695Y-106342590D01*
X157526076Y-106533066D02*
X158002266Y-106533066D01*
X157430838Y-106818780D02*
X157764171Y-105818780D01*
X158097504Y-106818780D01*
X158430838Y-106818780D02*
X158430838Y-105818780D01*
X158764171Y-106533066D01*
X159097504Y-105818780D01*
X159097504Y-106818780D01*
%TO.C,D1*%
X145794504Y-65408980D02*
X145794504Y-64408980D01*
X146032600Y-64408980D01*
X146175457Y-64456600D01*
X146270695Y-64551838D01*
X146318314Y-64647076D01*
X146365933Y-64837552D01*
X146365933Y-64980409D01*
X146318314Y-65170885D01*
X146270695Y-65266123D01*
X146175457Y-65361361D01*
X146032600Y-65408980D01*
X145794504Y-65408980D01*
X147318314Y-65408980D02*
X146746885Y-65408980D01*
X147032600Y-65408980D02*
X147032600Y-64408980D01*
X146937361Y-64551838D01*
X146842123Y-64647076D01*
X146746885Y-64694695D01*
X145246885Y-68525171D02*
X145389742Y-68572790D01*
X145437361Y-68620409D01*
X145484980Y-68715647D01*
X145484980Y-68858504D01*
X145437361Y-68953742D01*
X145389742Y-69001361D01*
X145294504Y-69048980D01*
X144913552Y-69048980D01*
X144913552Y-68048980D01*
X145246885Y-68048980D01*
X145342123Y-68096600D01*
X145389742Y-68144219D01*
X145437361Y-68239457D01*
X145437361Y-68334695D01*
X145389742Y-68429933D01*
X145342123Y-68477552D01*
X145246885Y-68525171D01*
X144913552Y-68525171D01*
X146056409Y-69048980D02*
X145961171Y-69001361D01*
X145913552Y-68906123D01*
X145913552Y-68048980D01*
X146437361Y-69048980D02*
X146437361Y-68382314D01*
X146437361Y-68048980D02*
X146389742Y-68096600D01*
X146437361Y-68144219D01*
X146484980Y-68096600D01*
X146437361Y-68048980D01*
X146437361Y-68144219D01*
X146913552Y-68382314D02*
X146913552Y-69048980D01*
X146913552Y-68477552D02*
X146961171Y-68429933D01*
X147056409Y-68382314D01*
X147199266Y-68382314D01*
X147294504Y-68429933D01*
X147342123Y-68525171D01*
X147342123Y-69048980D01*
X147818314Y-69048980D02*
X147818314Y-68048980D01*
X147913552Y-68668028D02*
X148199266Y-69048980D01*
X148199266Y-68382314D02*
X147818314Y-68763266D01*
%TO.C,C16*%
X149940142Y-77478057D02*
X149987761Y-77525676D01*
X150035380Y-77668533D01*
X150035380Y-77763771D01*
X149987761Y-77906628D01*
X149892523Y-78001866D01*
X149797285Y-78049485D01*
X149606809Y-78097104D01*
X149463952Y-78097104D01*
X149273476Y-78049485D01*
X149178238Y-78001866D01*
X149083000Y-77906628D01*
X149035380Y-77763771D01*
X149035380Y-77668533D01*
X149083000Y-77525676D01*
X149130619Y-77478057D01*
X150035380Y-76525676D02*
X150035380Y-77097104D01*
X150035380Y-76811390D02*
X149035380Y-76811390D01*
X149178238Y-76906628D01*
X149273476Y-77001866D01*
X149321095Y-77097104D01*
X149035380Y-75668533D02*
X149035380Y-75859009D01*
X149083000Y-75954247D01*
X149130619Y-76001866D01*
X149273476Y-76097104D01*
X149463952Y-76144723D01*
X149844904Y-76144723D01*
X149940142Y-76097104D01*
X149987761Y-76049485D01*
X150035380Y-75954247D01*
X150035380Y-75763771D01*
X149987761Y-75668533D01*
X149940142Y-75620914D01*
X149844904Y-75573295D01*
X149606809Y-75573295D01*
X149511571Y-75620914D01*
X149463952Y-75668533D01*
X149416333Y-75763771D01*
X149416333Y-75954247D01*
X149463952Y-76049485D01*
X149511571Y-76097104D01*
X149606809Y-76144723D01*
%TO.C,C15*%
X140809742Y-116283142D02*
X140762123Y-116330761D01*
X140619266Y-116378380D01*
X140524028Y-116378380D01*
X140381171Y-116330761D01*
X140285933Y-116235523D01*
X140238314Y-116140285D01*
X140190695Y-115949809D01*
X140190695Y-115806952D01*
X140238314Y-115616476D01*
X140285933Y-115521238D01*
X140381171Y-115426000D01*
X140524028Y-115378380D01*
X140619266Y-115378380D01*
X140762123Y-115426000D01*
X140809742Y-115473619D01*
X141762123Y-116378380D02*
X141190695Y-116378380D01*
X141476409Y-116378380D02*
X141476409Y-115378380D01*
X141381171Y-115521238D01*
X141285933Y-115616476D01*
X141190695Y-115664095D01*
X142666885Y-115378380D02*
X142190695Y-115378380D01*
X142143076Y-115854571D01*
X142190695Y-115806952D01*
X142285933Y-115759333D01*
X142524028Y-115759333D01*
X142619266Y-115806952D01*
X142666885Y-115854571D01*
X142714504Y-115949809D01*
X142714504Y-116187904D01*
X142666885Y-116283142D01*
X142619266Y-116330761D01*
X142524028Y-116378380D01*
X142285933Y-116378380D01*
X142190695Y-116330761D01*
X142143076Y-116283142D01*
%TO.C,C14*%
X140846942Y-77478057D02*
X140894561Y-77525676D01*
X140942180Y-77668533D01*
X140942180Y-77763771D01*
X140894561Y-77906628D01*
X140799323Y-78001866D01*
X140704085Y-78049485D01*
X140513609Y-78097104D01*
X140370752Y-78097104D01*
X140180276Y-78049485D01*
X140085038Y-78001866D01*
X139989800Y-77906628D01*
X139942180Y-77763771D01*
X139942180Y-77668533D01*
X139989800Y-77525676D01*
X140037419Y-77478057D01*
X140942180Y-76525676D02*
X140942180Y-77097104D01*
X140942180Y-76811390D02*
X139942180Y-76811390D01*
X140085038Y-76906628D01*
X140180276Y-77001866D01*
X140227895Y-77097104D01*
X140275514Y-75668533D02*
X140942180Y-75668533D01*
X139894561Y-75906628D02*
X140608847Y-76144723D01*
X140608847Y-75525676D01*
%TO.C,C13*%
X133900942Y-107011742D02*
X133853323Y-107059361D01*
X133710466Y-107106980D01*
X133615228Y-107106980D01*
X133472371Y-107059361D01*
X133377133Y-106964123D01*
X133329514Y-106868885D01*
X133281895Y-106678409D01*
X133281895Y-106535552D01*
X133329514Y-106345076D01*
X133377133Y-106249838D01*
X133472371Y-106154600D01*
X133615228Y-106106980D01*
X133710466Y-106106980D01*
X133853323Y-106154600D01*
X133900942Y-106202219D01*
X134853323Y-107106980D02*
X134281895Y-107106980D01*
X134567609Y-107106980D02*
X134567609Y-106106980D01*
X134472371Y-106249838D01*
X134377133Y-106345076D01*
X134281895Y-106392695D01*
X135186657Y-106106980D02*
X135805704Y-106106980D01*
X135472371Y-106487933D01*
X135615228Y-106487933D01*
X135710466Y-106535552D01*
X135758085Y-106583171D01*
X135805704Y-106678409D01*
X135805704Y-106916504D01*
X135758085Y-107011742D01*
X135710466Y-107059361D01*
X135615228Y-107106980D01*
X135329514Y-107106980D01*
X135234276Y-107059361D01*
X135186657Y-107011742D01*
%TO.C,C12*%
X134316742Y-110663257D02*
X134364361Y-110710876D01*
X134411980Y-110853733D01*
X134411980Y-110948971D01*
X134364361Y-111091828D01*
X134269123Y-111187066D01*
X134173885Y-111234685D01*
X133983409Y-111282304D01*
X133840552Y-111282304D01*
X133650076Y-111234685D01*
X133554838Y-111187066D01*
X133459600Y-111091828D01*
X133411980Y-110948971D01*
X133411980Y-110853733D01*
X133459600Y-110710876D01*
X133507219Y-110663257D01*
X134411980Y-109710876D02*
X134411980Y-110282304D01*
X134411980Y-109996590D02*
X133411980Y-109996590D01*
X133554838Y-110091828D01*
X133650076Y-110187066D01*
X133697695Y-110282304D01*
X133507219Y-109329923D02*
X133459600Y-109282304D01*
X133411980Y-109187066D01*
X133411980Y-108948971D01*
X133459600Y-108853733D01*
X133507219Y-108806114D01*
X133602457Y-108758495D01*
X133697695Y-108758495D01*
X133840552Y-108806114D01*
X134411980Y-109377542D01*
X134411980Y-108758495D01*
%TO.C,C11*%
X86513942Y-107234057D02*
X86561561Y-107281676D01*
X86609180Y-107424533D01*
X86609180Y-107519771D01*
X86561561Y-107662628D01*
X86466323Y-107757866D01*
X86371085Y-107805485D01*
X86180609Y-107853104D01*
X86037752Y-107853104D01*
X85847276Y-107805485D01*
X85752038Y-107757866D01*
X85656800Y-107662628D01*
X85609180Y-107519771D01*
X85609180Y-107424533D01*
X85656800Y-107281676D01*
X85704419Y-107234057D01*
X86609180Y-106281676D02*
X86609180Y-106853104D01*
X86609180Y-106567390D02*
X85609180Y-106567390D01*
X85752038Y-106662628D01*
X85847276Y-106757866D01*
X85894895Y-106853104D01*
X86609180Y-105329295D02*
X86609180Y-105900723D01*
X86609180Y-105615009D02*
X85609180Y-105615009D01*
X85752038Y-105710247D01*
X85847276Y-105805485D01*
X85894895Y-105900723D01*
%TO.C,C10*%
X155424142Y-128303257D02*
X155471761Y-128350876D01*
X155519380Y-128493733D01*
X155519380Y-128588971D01*
X155471761Y-128731828D01*
X155376523Y-128827066D01*
X155281285Y-128874685D01*
X155090809Y-128922304D01*
X154947952Y-128922304D01*
X154757476Y-128874685D01*
X154662238Y-128827066D01*
X154567000Y-128731828D01*
X154519380Y-128588971D01*
X154519380Y-128493733D01*
X154567000Y-128350876D01*
X154614619Y-128303257D01*
X155519380Y-127350876D02*
X155519380Y-127922304D01*
X155519380Y-127636590D02*
X154519380Y-127636590D01*
X154662238Y-127731828D01*
X154757476Y-127827066D01*
X154805095Y-127922304D01*
X154519380Y-126731828D02*
X154519380Y-126636590D01*
X154567000Y-126541352D01*
X154614619Y-126493733D01*
X154709857Y-126446114D01*
X154900333Y-126398495D01*
X155138428Y-126398495D01*
X155328904Y-126446114D01*
X155424142Y-126493733D01*
X155471761Y-126541352D01*
X155519380Y-126636590D01*
X155519380Y-126731828D01*
X155471761Y-126827066D01*
X155424142Y-126874685D01*
X155328904Y-126922304D01*
X155138428Y-126969923D01*
X154900333Y-126969923D01*
X154709857Y-126922304D01*
X154614619Y-126874685D01*
X154567000Y-126827066D01*
X154519380Y-126731828D01*
%TO.C,C9*%
X96185533Y-71012542D02*
X96137914Y-71060161D01*
X95995057Y-71107780D01*
X95899819Y-71107780D01*
X95756961Y-71060161D01*
X95661723Y-70964923D01*
X95614104Y-70869685D01*
X95566485Y-70679209D01*
X95566485Y-70536352D01*
X95614104Y-70345876D01*
X95661723Y-70250638D01*
X95756961Y-70155400D01*
X95899819Y-70107780D01*
X95995057Y-70107780D01*
X96137914Y-70155400D01*
X96185533Y-70203019D01*
X96661723Y-71107780D02*
X96852200Y-71107780D01*
X96947438Y-71060161D01*
X96995057Y-71012542D01*
X97090295Y-70869685D01*
X97137914Y-70679209D01*
X97137914Y-70298257D01*
X97090295Y-70203019D01*
X97042676Y-70155400D01*
X96947438Y-70107780D01*
X96756961Y-70107780D01*
X96661723Y-70155400D01*
X96614104Y-70203019D01*
X96566485Y-70298257D01*
X96566485Y-70536352D01*
X96614104Y-70631590D01*
X96661723Y-70679209D01*
X96756961Y-70726828D01*
X96947438Y-70726828D01*
X97042676Y-70679209D01*
X97090295Y-70631590D01*
X97137914Y-70536352D01*
%TO.C,C8*%
X108504533Y-71012542D02*
X108456914Y-71060161D01*
X108314057Y-71107780D01*
X108218819Y-71107780D01*
X108075961Y-71060161D01*
X107980723Y-70964923D01*
X107933104Y-70869685D01*
X107885485Y-70679209D01*
X107885485Y-70536352D01*
X107933104Y-70345876D01*
X107980723Y-70250638D01*
X108075961Y-70155400D01*
X108218819Y-70107780D01*
X108314057Y-70107780D01*
X108456914Y-70155400D01*
X108504533Y-70203019D01*
X109075961Y-70536352D02*
X108980723Y-70488733D01*
X108933104Y-70441114D01*
X108885485Y-70345876D01*
X108885485Y-70298257D01*
X108933104Y-70203019D01*
X108980723Y-70155400D01*
X109075961Y-70107780D01*
X109266438Y-70107780D01*
X109361676Y-70155400D01*
X109409295Y-70203019D01*
X109456914Y-70298257D01*
X109456914Y-70345876D01*
X109409295Y-70441114D01*
X109361676Y-70488733D01*
X109266438Y-70536352D01*
X109075961Y-70536352D01*
X108980723Y-70583971D01*
X108933104Y-70631590D01*
X108885485Y-70726828D01*
X108885485Y-70917304D01*
X108933104Y-71012542D01*
X108980723Y-71060161D01*
X109075961Y-71107780D01*
X109266438Y-71107780D01*
X109361676Y-71060161D01*
X109409295Y-71012542D01*
X109456914Y-70917304D01*
X109456914Y-70726828D01*
X109409295Y-70631590D01*
X109361676Y-70583971D01*
X109266438Y-70536352D01*
%TO.C,C7*%
X133675933Y-71012542D02*
X133628314Y-71060161D01*
X133485457Y-71107780D01*
X133390219Y-71107780D01*
X133247361Y-71060161D01*
X133152123Y-70964923D01*
X133104504Y-70869685D01*
X133056885Y-70679209D01*
X133056885Y-70536352D01*
X133104504Y-70345876D01*
X133152123Y-70250638D01*
X133247361Y-70155400D01*
X133390219Y-70107780D01*
X133485457Y-70107780D01*
X133628314Y-70155400D01*
X133675933Y-70203019D01*
X134009266Y-70107780D02*
X134675933Y-70107780D01*
X134247361Y-71107780D01*
%TO.C,C6*%
X143851333Y-38246342D02*
X143803714Y-38293961D01*
X143660857Y-38341580D01*
X143565619Y-38341580D01*
X143422761Y-38293961D01*
X143327523Y-38198723D01*
X143279904Y-38103485D01*
X143232285Y-37913009D01*
X143232285Y-37770152D01*
X143279904Y-37579676D01*
X143327523Y-37484438D01*
X143422761Y-37389200D01*
X143565619Y-37341580D01*
X143660857Y-37341580D01*
X143803714Y-37389200D01*
X143851333Y-37436819D01*
X144708476Y-37341580D02*
X144518000Y-37341580D01*
X144422761Y-37389200D01*
X144375142Y-37436819D01*
X144279904Y-37579676D01*
X144232285Y-37770152D01*
X144232285Y-38151104D01*
X144279904Y-38246342D01*
X144327523Y-38293961D01*
X144422761Y-38341580D01*
X144613238Y-38341580D01*
X144708476Y-38293961D01*
X144756095Y-38246342D01*
X144803714Y-38151104D01*
X144803714Y-37913009D01*
X144756095Y-37817771D01*
X144708476Y-37770152D01*
X144613238Y-37722533D01*
X144422761Y-37722533D01*
X144327523Y-37770152D01*
X144279904Y-37817771D01*
X144232285Y-37913009D01*
%TO.C,C5*%
X121153733Y-71012542D02*
X121106114Y-71060161D01*
X120963257Y-71107780D01*
X120868019Y-71107780D01*
X120725161Y-71060161D01*
X120629923Y-70964923D01*
X120582304Y-70869685D01*
X120534685Y-70679209D01*
X120534685Y-70536352D01*
X120582304Y-70345876D01*
X120629923Y-70250638D01*
X120725161Y-70155400D01*
X120868019Y-70107780D01*
X120963257Y-70107780D01*
X121106114Y-70155400D01*
X121153733Y-70203019D01*
X122058495Y-70107780D02*
X121582304Y-70107780D01*
X121534685Y-70583971D01*
X121582304Y-70536352D01*
X121677542Y-70488733D01*
X121915638Y-70488733D01*
X122010876Y-70536352D01*
X122058495Y-70583971D01*
X122106114Y-70679209D01*
X122106114Y-70917304D01*
X122058495Y-71012542D01*
X122010876Y-71060161D01*
X121915638Y-71107780D01*
X121677542Y-71107780D01*
X121582304Y-71060161D01*
X121534685Y-71012542D01*
%TO.C,C4*%
X122540733Y-38246342D02*
X122493114Y-38293961D01*
X122350257Y-38341580D01*
X122255019Y-38341580D01*
X122112161Y-38293961D01*
X122016923Y-38198723D01*
X121969304Y-38103485D01*
X121921685Y-37913009D01*
X121921685Y-37770152D01*
X121969304Y-37579676D01*
X122016923Y-37484438D01*
X122112161Y-37389200D01*
X122255019Y-37341580D01*
X122350257Y-37341580D01*
X122493114Y-37389200D01*
X122540733Y-37436819D01*
X123397876Y-37674914D02*
X123397876Y-38341580D01*
X123159780Y-37293961D02*
X122921685Y-38008247D01*
X123540733Y-38008247D01*
%TO.C,C3*%
X83678733Y-107468942D02*
X83631114Y-107516561D01*
X83488257Y-107564180D01*
X83393019Y-107564180D01*
X83250161Y-107516561D01*
X83154923Y-107421323D01*
X83107304Y-107326085D01*
X83059685Y-107135609D01*
X83059685Y-106992752D01*
X83107304Y-106802276D01*
X83154923Y-106707038D01*
X83250161Y-106611800D01*
X83393019Y-106564180D01*
X83488257Y-106564180D01*
X83631114Y-106611800D01*
X83678733Y-106659419D01*
X84012066Y-106564180D02*
X84631114Y-106564180D01*
X84297780Y-106945133D01*
X84440638Y-106945133D01*
X84535876Y-106992752D01*
X84583495Y-107040371D01*
X84631114Y-107135609D01*
X84631114Y-107373704D01*
X84583495Y-107468942D01*
X84535876Y-107516561D01*
X84440638Y-107564180D01*
X84154923Y-107564180D01*
X84059685Y-107516561D01*
X84012066Y-107468942D01*
%TO.C,C2*%
X78253133Y-71012542D02*
X78205514Y-71060161D01*
X78062657Y-71107780D01*
X77967419Y-71107780D01*
X77824561Y-71060161D01*
X77729323Y-70964923D01*
X77681704Y-70869685D01*
X77634085Y-70679209D01*
X77634085Y-70536352D01*
X77681704Y-70345876D01*
X77729323Y-70250638D01*
X77824561Y-70155400D01*
X77967419Y-70107780D01*
X78062657Y-70107780D01*
X78205514Y-70155400D01*
X78253133Y-70203019D01*
X78634085Y-70203019D02*
X78681704Y-70155400D01*
X78776942Y-70107780D01*
X79015038Y-70107780D01*
X79110276Y-70155400D01*
X79157895Y-70203019D01*
X79205514Y-70298257D01*
X79205514Y-70393495D01*
X79157895Y-70536352D01*
X78586466Y-71107780D01*
X79205514Y-71107780D01*
%TO.C,C1*%
X82078533Y-38246342D02*
X82030914Y-38293961D01*
X81888057Y-38341580D01*
X81792819Y-38341580D01*
X81649961Y-38293961D01*
X81554723Y-38198723D01*
X81507104Y-38103485D01*
X81459485Y-37913009D01*
X81459485Y-37770152D01*
X81507104Y-37579676D01*
X81554723Y-37484438D01*
X81649961Y-37389200D01*
X81792819Y-37341580D01*
X81888057Y-37341580D01*
X82030914Y-37389200D01*
X82078533Y-37436819D01*
X83030914Y-38341580D02*
X82459485Y-38341580D01*
X82745200Y-38341580D02*
X82745200Y-37341580D01*
X82649961Y-37484438D01*
X82554723Y-37579676D01*
X82459485Y-37627295D01*
%TO.C,U7*%
X89070380Y-107345304D02*
X89879904Y-107345304D01*
X89975142Y-107297685D01*
X90022761Y-107250066D01*
X90070380Y-107154828D01*
X90070380Y-106964352D01*
X90022761Y-106869114D01*
X89975142Y-106821495D01*
X89879904Y-106773876D01*
X89070380Y-106773876D01*
X89070380Y-106392923D02*
X89070380Y-105726257D01*
X90070380Y-106154828D01*
X132544666Y-113273876D02*
X132544666Y-112797685D01*
X132830380Y-113369114D02*
X131830380Y-113035780D01*
X132830380Y-112702447D01*
X132782761Y-112416733D02*
X132830380Y-112273876D01*
X132830380Y-112035780D01*
X132782761Y-111940542D01*
X132735142Y-111892923D01*
X132639904Y-111845304D01*
X132544666Y-111845304D01*
X132449428Y-111892923D01*
X132401809Y-111940542D01*
X132354190Y-112035780D01*
X132306571Y-112226257D01*
X132258952Y-112321495D01*
X132211333Y-112369114D01*
X132116095Y-112416733D01*
X132020857Y-112416733D01*
X131925619Y-112369114D01*
X131878000Y-112321495D01*
X131830380Y-112226257D01*
X131830380Y-111988161D01*
X131878000Y-111845304D01*
X131830380Y-110988161D02*
X131830380Y-111178638D01*
X131878000Y-111273876D01*
X131925619Y-111321495D01*
X132068476Y-111416733D01*
X132258952Y-111464352D01*
X132639904Y-111464352D01*
X132735142Y-111416733D01*
X132782761Y-111369114D01*
X132830380Y-111273876D01*
X132830380Y-111083400D01*
X132782761Y-110988161D01*
X132735142Y-110940542D01*
X132639904Y-110892923D01*
X132401809Y-110892923D01*
X132306571Y-110940542D01*
X132258952Y-110988161D01*
X132211333Y-111083400D01*
X132211333Y-111273876D01*
X132258952Y-111369114D01*
X132306571Y-111416733D01*
X132401809Y-111464352D01*
X132735142Y-109892923D02*
X132782761Y-109940542D01*
X132830380Y-110083400D01*
X132830380Y-110178638D01*
X132782761Y-110321495D01*
X132687523Y-110416733D01*
X132592285Y-110464352D01*
X132401809Y-110511971D01*
X132258952Y-110511971D01*
X132068476Y-110464352D01*
X131973238Y-110416733D01*
X131878000Y-110321495D01*
X131830380Y-110178638D01*
X131830380Y-110083400D01*
X131878000Y-109940542D01*
X131925619Y-109892923D01*
X132163714Y-109035780D02*
X132830380Y-109035780D01*
X131782761Y-109273876D02*
X132497047Y-109511971D01*
X132497047Y-108892923D01*
X131830380Y-108321495D02*
X131830380Y-108226257D01*
X131878000Y-108131019D01*
X131925619Y-108083400D01*
X132020857Y-108035780D01*
X132211333Y-107988161D01*
X132449428Y-107988161D01*
X132639904Y-108035780D01*
X132735142Y-108083400D01*
X132782761Y-108131019D01*
X132830380Y-108226257D01*
X132830380Y-108321495D01*
X132782761Y-108416733D01*
X132735142Y-108464352D01*
X132639904Y-108511971D01*
X132449428Y-108559590D01*
X132211333Y-108559590D01*
X132020857Y-108511971D01*
X131925619Y-108464352D01*
X131878000Y-108416733D01*
X131830380Y-108321495D01*
X131830380Y-107369114D02*
X131830380Y-107273876D01*
X131878000Y-107178638D01*
X131925619Y-107131019D01*
X132020857Y-107083400D01*
X132211333Y-107035780D01*
X132449428Y-107035780D01*
X132639904Y-107083400D01*
X132735142Y-107131019D01*
X132782761Y-107178638D01*
X132830380Y-107273876D01*
X132830380Y-107369114D01*
X132782761Y-107464352D01*
X132735142Y-107511971D01*
X132639904Y-107559590D01*
X132449428Y-107607209D01*
X132211333Y-107607209D01*
X132020857Y-107559590D01*
X131925619Y-107511971D01*
X131878000Y-107464352D01*
X131830380Y-107369114D01*
X132258952Y-106464352D02*
X132211333Y-106559590D01*
X132163714Y-106607209D01*
X132068476Y-106654828D01*
X132020857Y-106654828D01*
X131925619Y-106607209D01*
X131878000Y-106559590D01*
X131830380Y-106464352D01*
X131830380Y-106273876D01*
X131878000Y-106178638D01*
X131925619Y-106131019D01*
X132020857Y-106083400D01*
X132068476Y-106083400D01*
X132163714Y-106131019D01*
X132211333Y-106178638D01*
X132258952Y-106273876D01*
X132258952Y-106464352D01*
X132306571Y-106559590D01*
X132354190Y-106607209D01*
X132449428Y-106654828D01*
X132639904Y-106654828D01*
X132735142Y-106607209D01*
X132782761Y-106559590D01*
X132830380Y-106464352D01*
X132830380Y-106273876D01*
X132782761Y-106178638D01*
X132735142Y-106131019D01*
X132639904Y-106083400D01*
X132449428Y-106083400D01*
X132354190Y-106131019D01*
X132306571Y-106178638D01*
X132258952Y-106273876D01*
X132449428Y-105654828D02*
X132449428Y-104892923D01*
X131830380Y-103940542D02*
X131830380Y-104416733D01*
X132306571Y-104464352D01*
X132258952Y-104416733D01*
X132211333Y-104321495D01*
X132211333Y-104083400D01*
X132258952Y-103988161D01*
X132306571Y-103940542D01*
X132401809Y-103892923D01*
X132639904Y-103892923D01*
X132735142Y-103940542D01*
X132782761Y-103988161D01*
X132830380Y-104083400D01*
X132830380Y-104321495D01*
X132782761Y-104416733D01*
X132735142Y-104464352D01*
X131830380Y-102988161D02*
X131830380Y-103464352D01*
X132306571Y-103511971D01*
X132258952Y-103464352D01*
X132211333Y-103369114D01*
X132211333Y-103131019D01*
X132258952Y-103035780D01*
X132306571Y-102988161D01*
X132401809Y-102940542D01*
X132639904Y-102940542D01*
X132735142Y-102988161D01*
X132782761Y-103035780D01*
X132830380Y-103131019D01*
X132830380Y-103369114D01*
X132782761Y-103464352D01*
X132735142Y-103511971D01*
X132830380Y-102511971D02*
X131830380Y-102511971D01*
X131830380Y-102131019D01*
X131878000Y-102035780D01*
X131925619Y-101988161D01*
X132020857Y-101940542D01*
X132163714Y-101940542D01*
X132258952Y-101988161D01*
X132306571Y-102035780D01*
X132354190Y-102131019D01*
X132354190Y-102511971D01*
X132735142Y-100940542D02*
X132782761Y-100988161D01*
X132830380Y-101131019D01*
X132830380Y-101226257D01*
X132782761Y-101369114D01*
X132687523Y-101464352D01*
X132592285Y-101511971D01*
X132401809Y-101559590D01*
X132258952Y-101559590D01*
X132068476Y-101511971D01*
X131973238Y-101464352D01*
X131878000Y-101369114D01*
X131830380Y-101226257D01*
X131830380Y-101131019D01*
X131878000Y-100988161D01*
X131925619Y-100940542D01*
X132830380Y-100511971D02*
X131830380Y-100511971D01*
X132830380Y-99940542D01*
X131830380Y-99940542D01*
%TO.C,U5*%
X121945495Y-40365580D02*
X121945495Y-41175104D01*
X121993114Y-41270342D01*
X122040733Y-41317961D01*
X122135971Y-41365580D01*
X122326447Y-41365580D01*
X122421685Y-41317961D01*
X122469304Y-41270342D01*
X122516923Y-41175104D01*
X122516923Y-40365580D01*
X123469304Y-40365580D02*
X122993114Y-40365580D01*
X122945495Y-40841771D01*
X122993114Y-40794152D01*
X123088352Y-40746533D01*
X123326447Y-40746533D01*
X123421685Y-40794152D01*
X123469304Y-40841771D01*
X123516923Y-40937009D01*
X123516923Y-41175104D01*
X123469304Y-41270342D01*
X123421685Y-41317961D01*
X123326447Y-41365580D01*
X123088352Y-41365580D01*
X122993114Y-41317961D01*
X122945495Y-41270342D01*
X118540733Y-66865580D02*
X118540733Y-65865580D01*
X118874066Y-66579866D01*
X119207400Y-65865580D01*
X119207400Y-66865580D01*
X120255019Y-66770342D02*
X120207400Y-66817961D01*
X120064542Y-66865580D01*
X119969304Y-66865580D01*
X119826447Y-66817961D01*
X119731209Y-66722723D01*
X119683590Y-66627485D01*
X119635971Y-66437009D01*
X119635971Y-66294152D01*
X119683590Y-66103676D01*
X119731209Y-66008438D01*
X119826447Y-65913200D01*
X119969304Y-65865580D01*
X120064542Y-65865580D01*
X120207400Y-65913200D01*
X120255019Y-65960819D01*
X121112161Y-65865580D02*
X120921685Y-65865580D01*
X120826447Y-65913200D01*
X120778828Y-65960819D01*
X120683590Y-66103676D01*
X120635971Y-66294152D01*
X120635971Y-66675104D01*
X120683590Y-66770342D01*
X120731209Y-66817961D01*
X120826447Y-66865580D01*
X121016923Y-66865580D01*
X121112161Y-66817961D01*
X121159780Y-66770342D01*
X121207400Y-66675104D01*
X121207400Y-66437009D01*
X121159780Y-66341771D01*
X121112161Y-66294152D01*
X121016923Y-66246533D01*
X120826447Y-66246533D01*
X120731209Y-66294152D01*
X120683590Y-66341771D01*
X120635971Y-66437009D01*
X121778828Y-66294152D02*
X121683590Y-66246533D01*
X121635971Y-66198914D01*
X121588352Y-66103676D01*
X121588352Y-66056057D01*
X121635971Y-65960819D01*
X121683590Y-65913200D01*
X121778828Y-65865580D01*
X121969304Y-65865580D01*
X122064542Y-65913200D01*
X122112161Y-65960819D01*
X122159780Y-66056057D01*
X122159780Y-66103676D01*
X122112161Y-66198914D01*
X122064542Y-66246533D01*
X121969304Y-66294152D01*
X121778828Y-66294152D01*
X121683590Y-66341771D01*
X121635971Y-66389390D01*
X121588352Y-66484628D01*
X121588352Y-66675104D01*
X121635971Y-66770342D01*
X121683590Y-66817961D01*
X121778828Y-66865580D01*
X121969304Y-66865580D01*
X122064542Y-66817961D01*
X122112161Y-66770342D01*
X122159780Y-66675104D01*
X122159780Y-66484628D01*
X122112161Y-66389390D01*
X122064542Y-66341771D01*
X121969304Y-66294152D01*
X123016923Y-65865580D02*
X122826447Y-65865580D01*
X122731209Y-65913200D01*
X122683590Y-65960819D01*
X122588352Y-66103676D01*
X122540733Y-66294152D01*
X122540733Y-66675104D01*
X122588352Y-66770342D01*
X122635971Y-66817961D01*
X122731209Y-66865580D01*
X122921685Y-66865580D01*
X123016923Y-66817961D01*
X123064542Y-66770342D01*
X123112161Y-66675104D01*
X123112161Y-66437009D01*
X123064542Y-66341771D01*
X123016923Y-66294152D01*
X122921685Y-66246533D01*
X122731209Y-66246533D01*
X122635971Y-66294152D01*
X122588352Y-66341771D01*
X122540733Y-66437009D01*
X123683590Y-66294152D02*
X123588352Y-66246533D01*
X123540733Y-66198914D01*
X123493114Y-66103676D01*
X123493114Y-66056057D01*
X123540733Y-65960819D01*
X123588352Y-65913200D01*
X123683590Y-65865580D01*
X123874066Y-65865580D01*
X123969304Y-65913200D01*
X124016923Y-65960819D01*
X124064542Y-66056057D01*
X124064542Y-66103676D01*
X124016923Y-66198914D01*
X123969304Y-66246533D01*
X123874066Y-66294152D01*
X123683590Y-66294152D01*
X123588352Y-66341771D01*
X123540733Y-66389390D01*
X123493114Y-66484628D01*
X123493114Y-66675104D01*
X123540733Y-66770342D01*
X123588352Y-66817961D01*
X123683590Y-66865580D01*
X123874066Y-66865580D01*
X123969304Y-66817961D01*
X124016923Y-66770342D01*
X124064542Y-66675104D01*
X124064542Y-66484628D01*
X124016923Y-66389390D01*
X123969304Y-66341771D01*
X123874066Y-66294152D01*
X125016923Y-66865580D02*
X124445495Y-66865580D01*
X124731209Y-66865580D02*
X124731209Y-65865580D01*
X124635971Y-66008438D01*
X124540733Y-66103676D01*
X124445495Y-66151295D01*
X125778828Y-66341771D02*
X125445495Y-66341771D01*
X125445495Y-66865580D02*
X125445495Y-65865580D01*
X125921685Y-65865580D01*
X126302638Y-66865580D02*
X126302638Y-65865580D01*
X126874066Y-66865580D01*
X126874066Y-65865580D01*
%TO.C,U3*%
X107934695Y-73114180D02*
X107934695Y-73923704D01*
X107982314Y-74018942D01*
X108029933Y-74066561D01*
X108125171Y-74114180D01*
X108315647Y-74114180D01*
X108410885Y-74066561D01*
X108458504Y-74018942D01*
X108506123Y-73923704D01*
X108506123Y-73114180D01*
X108887076Y-73114180D02*
X109506123Y-73114180D01*
X109172790Y-73495133D01*
X109315647Y-73495133D01*
X109410885Y-73542752D01*
X109458504Y-73590371D01*
X109506123Y-73685609D01*
X109506123Y-73923704D01*
X109458504Y-74018942D01*
X109410885Y-74066561D01*
X109315647Y-74114180D01*
X109029933Y-74114180D01*
X108934695Y-74066561D01*
X108887076Y-74018942D01*
X105577552Y-95554180D02*
X106244219Y-95554180D01*
X105815647Y-96554180D01*
X107053742Y-95887514D02*
X107053742Y-96554180D01*
X106815647Y-95506561D02*
X106577552Y-96220847D01*
X107196600Y-96220847D01*
X108053742Y-96554180D02*
X107577552Y-96554180D01*
X107577552Y-95554180D01*
X108339457Y-96506561D02*
X108482314Y-96554180D01*
X108720409Y-96554180D01*
X108815647Y-96506561D01*
X108863266Y-96458942D01*
X108910885Y-96363704D01*
X108910885Y-96268466D01*
X108863266Y-96173228D01*
X108815647Y-96125609D01*
X108720409Y-96077990D01*
X108529933Y-96030371D01*
X108434695Y-95982752D01*
X108387076Y-95935133D01*
X108339457Y-95839895D01*
X108339457Y-95744657D01*
X108387076Y-95649419D01*
X108434695Y-95601800D01*
X108529933Y-95554180D01*
X108768028Y-95554180D01*
X108910885Y-95601800D01*
X109291838Y-95649419D02*
X109339457Y-95601800D01*
X109434695Y-95554180D01*
X109672790Y-95554180D01*
X109768028Y-95601800D01*
X109815647Y-95649419D01*
X109863266Y-95744657D01*
X109863266Y-95839895D01*
X109815647Y-95982752D01*
X109244219Y-96554180D01*
X109863266Y-96554180D01*
X110768028Y-95554180D02*
X110291838Y-95554180D01*
X110244219Y-96030371D01*
X110291838Y-95982752D01*
X110387076Y-95935133D01*
X110625171Y-95935133D01*
X110720409Y-95982752D01*
X110768028Y-96030371D01*
X110815647Y-96125609D01*
X110815647Y-96363704D01*
X110768028Y-96458942D01*
X110720409Y-96506561D01*
X110625171Y-96554180D01*
X110387076Y-96554180D01*
X110291838Y-96506561D01*
X110244219Y-96458942D01*
X111148980Y-95554180D02*
X111815647Y-95554180D01*
X111387076Y-96554180D01*
%TO.C,J7*%
X156968866Y-40530980D02*
X156968866Y-41245266D01*
X156921247Y-41388123D01*
X156826009Y-41483361D01*
X156683152Y-41530980D01*
X156587914Y-41530980D01*
X157349819Y-40530980D02*
X158016485Y-40530980D01*
X157587914Y-41530980D01*
X160424761Y-49975733D02*
X160472380Y-49832876D01*
X160472380Y-49594780D01*
X160424761Y-49499542D01*
X160377142Y-49451923D01*
X160281904Y-49404304D01*
X160186666Y-49404304D01*
X160091428Y-49451923D01*
X160043809Y-49499542D01*
X159996190Y-49594780D01*
X159948571Y-49785257D01*
X159900952Y-49880495D01*
X159853333Y-49928114D01*
X159758095Y-49975733D01*
X159662857Y-49975733D01*
X159567619Y-49928114D01*
X159520000Y-49880495D01*
X159472380Y-49785257D01*
X159472380Y-49547161D01*
X159520000Y-49404304D01*
X160424761Y-48594780D02*
X160472380Y-48690019D01*
X160472380Y-48880495D01*
X160424761Y-48975733D01*
X160329523Y-49023352D01*
X159948571Y-49023352D01*
X159853333Y-48975733D01*
X159805714Y-48880495D01*
X159805714Y-48690019D01*
X159853333Y-48594780D01*
X159948571Y-48547161D01*
X160043809Y-48547161D01*
X160139047Y-49023352D01*
X160472380Y-48118590D02*
X159805714Y-48118590D01*
X159996190Y-48118590D02*
X159900952Y-48070971D01*
X159853333Y-48023352D01*
X159805714Y-47928114D01*
X159805714Y-47832876D01*
X160472380Y-47499542D02*
X159805714Y-47499542D01*
X159472380Y-47499542D02*
X159520000Y-47547161D01*
X159567619Y-47499542D01*
X159520000Y-47451923D01*
X159472380Y-47499542D01*
X159567619Y-47499542D01*
X160472380Y-46594780D02*
X159948571Y-46594780D01*
X159853333Y-46642400D01*
X159805714Y-46737638D01*
X159805714Y-46928114D01*
X159853333Y-47023352D01*
X160424761Y-46594780D02*
X160472380Y-46690019D01*
X160472380Y-46928114D01*
X160424761Y-47023352D01*
X160329523Y-47070971D01*
X160234285Y-47070971D01*
X160139047Y-47023352D01*
X160091428Y-46928114D01*
X160091428Y-46690019D01*
X160043809Y-46594780D01*
X160472380Y-45975733D02*
X160424761Y-46070971D01*
X160329523Y-46118590D01*
X159472380Y-46118590D01*
X159567619Y-44880495D02*
X159520000Y-44832876D01*
X159472380Y-44737638D01*
X159472380Y-44499542D01*
X159520000Y-44404304D01*
X159567619Y-44356685D01*
X159662857Y-44309066D01*
X159758095Y-44309066D01*
X159900952Y-44356685D01*
X160472380Y-44928114D01*
X160472380Y-44309066D01*
%TO.C,U2*%
X77623295Y-73344180D02*
X77623295Y-74153704D01*
X77670914Y-74248942D01*
X77718533Y-74296561D01*
X77813771Y-74344180D01*
X78004247Y-74344180D01*
X78099485Y-74296561D01*
X78147104Y-74248942D01*
X78194723Y-74153704D01*
X78194723Y-73344180D01*
X78623295Y-73439419D02*
X78670914Y-73391800D01*
X78766152Y-73344180D01*
X79004247Y-73344180D01*
X79099485Y-73391800D01*
X79147104Y-73439419D01*
X79194723Y-73534657D01*
X79194723Y-73629895D01*
X79147104Y-73772752D01*
X78575676Y-74344180D01*
X79194723Y-74344180D01*
X73956628Y-96896561D02*
X74099485Y-96944180D01*
X74337580Y-96944180D01*
X74432819Y-96896561D01*
X74480438Y-96848942D01*
X74528057Y-96753704D01*
X74528057Y-96658466D01*
X74480438Y-96563228D01*
X74432819Y-96515609D01*
X74337580Y-96467990D01*
X74147104Y-96420371D01*
X74051866Y-96372752D01*
X74004247Y-96325133D01*
X73956628Y-96229895D01*
X73956628Y-96134657D01*
X74004247Y-96039419D01*
X74051866Y-95991800D01*
X74147104Y-95944180D01*
X74385200Y-95944180D01*
X74528057Y-95991800D01*
X74909009Y-96896561D02*
X75051866Y-96944180D01*
X75289961Y-96944180D01*
X75385200Y-96896561D01*
X75432819Y-96848942D01*
X75480438Y-96753704D01*
X75480438Y-96658466D01*
X75432819Y-96563228D01*
X75385200Y-96515609D01*
X75289961Y-96467990D01*
X75099485Y-96420371D01*
X75004247Y-96372752D01*
X74956628Y-96325133D01*
X74909009Y-96229895D01*
X74909009Y-96134657D01*
X74956628Y-96039419D01*
X75004247Y-95991800D01*
X75099485Y-95944180D01*
X75337580Y-95944180D01*
X75480438Y-95991800D01*
X75766152Y-95944180D02*
X76337580Y-95944180D01*
X76051866Y-96944180D02*
X76051866Y-95944180D01*
X76575676Y-95944180D02*
X77194723Y-95944180D01*
X76861390Y-96325133D01*
X77004247Y-96325133D01*
X77099485Y-96372752D01*
X77147104Y-96420371D01*
X77194723Y-96515609D01*
X77194723Y-96753704D01*
X77147104Y-96848942D01*
X77099485Y-96896561D01*
X77004247Y-96944180D01*
X76718533Y-96944180D01*
X76623295Y-96896561D01*
X76575676Y-96848942D01*
X77670914Y-96944180D02*
X77861390Y-96944180D01*
X77956628Y-96896561D01*
X78004247Y-96848942D01*
X78099485Y-96706085D01*
X78147104Y-96515609D01*
X78147104Y-96134657D01*
X78099485Y-96039419D01*
X78051866Y-95991800D01*
X77956628Y-95944180D01*
X77766152Y-95944180D01*
X77670914Y-95991800D01*
X77623295Y-96039419D01*
X77575676Y-96134657D01*
X77575676Y-96372752D01*
X77623295Y-96467990D01*
X77670914Y-96515609D01*
X77766152Y-96563228D01*
X77956628Y-96563228D01*
X78051866Y-96515609D01*
X78099485Y-96467990D01*
X78147104Y-96372752D01*
X78528057Y-96896561D02*
X78670914Y-96944180D01*
X78909009Y-96944180D01*
X79004247Y-96896561D01*
X79051866Y-96848942D01*
X79099485Y-96753704D01*
X79099485Y-96658466D01*
X79051866Y-96563228D01*
X79004247Y-96515609D01*
X78909009Y-96467990D01*
X78718533Y-96420371D01*
X78623295Y-96372752D01*
X78575676Y-96325133D01*
X78528057Y-96229895D01*
X78528057Y-96134657D01*
X78575676Y-96039419D01*
X78623295Y-95991800D01*
X78718533Y-95944180D01*
X78956628Y-95944180D01*
X79099485Y-95991800D01*
X79861390Y-96420371D02*
X79528057Y-96420371D01*
X79528057Y-96944180D02*
X79528057Y-95944180D01*
X80004247Y-95944180D01*
X80575676Y-95944180D02*
X80670914Y-95944180D01*
X80766152Y-95991800D01*
X80813771Y-96039419D01*
X80861390Y-96134657D01*
X80909009Y-96325133D01*
X80909009Y-96563228D01*
X80861390Y-96753704D01*
X80813771Y-96848942D01*
X80766152Y-96896561D01*
X80670914Y-96944180D01*
X80575676Y-96944180D01*
X80480438Y-96896561D01*
X80432819Y-96848942D01*
X80385200Y-96753704D01*
X80337580Y-96563228D01*
X80337580Y-96325133D01*
X80385200Y-96134657D01*
X80432819Y-96039419D01*
X80480438Y-95991800D01*
X80575676Y-95944180D01*
X81766152Y-96277514D02*
X81766152Y-96944180D01*
X81528057Y-95896561D02*
X81289961Y-96610847D01*
X81909009Y-96610847D01*
X82480438Y-95944180D02*
X82575676Y-95944180D01*
X82670914Y-95991800D01*
X82718533Y-96039419D01*
X82766152Y-96134657D01*
X82813771Y-96325133D01*
X82813771Y-96563228D01*
X82766152Y-96753704D01*
X82718533Y-96848942D01*
X82670914Y-96896561D01*
X82575676Y-96944180D01*
X82480438Y-96944180D01*
X82385200Y-96896561D01*
X82337580Y-96848942D01*
X82289961Y-96753704D01*
X82242342Y-96563228D01*
X82242342Y-96325133D01*
X82289961Y-96134657D01*
X82337580Y-96039419D01*
X82385200Y-95991800D01*
X82480438Y-95944180D01*
%TO.C,IC1*%
X81116609Y-41325580D02*
X81116609Y-40325580D01*
X82164228Y-41230342D02*
X82116609Y-41277961D01*
X81973752Y-41325580D01*
X81878514Y-41325580D01*
X81735657Y-41277961D01*
X81640419Y-41182723D01*
X81592800Y-41087485D01*
X81545180Y-40897009D01*
X81545180Y-40754152D01*
X81592800Y-40563676D01*
X81640419Y-40468438D01*
X81735657Y-40373200D01*
X81878514Y-40325580D01*
X81973752Y-40325580D01*
X82116609Y-40373200D01*
X82164228Y-40420819D01*
X83116609Y-41325580D02*
X82545180Y-41325580D01*
X82830895Y-41325580D02*
X82830895Y-40325580D01*
X82735657Y-40468438D01*
X82640419Y-40563676D01*
X82545180Y-40611295D01*
X76545180Y-69205580D02*
X76545180Y-68205580D01*
X76878514Y-68919866D01*
X77211847Y-68205580D01*
X77211847Y-69205580D01*
X78259466Y-69110342D02*
X78211847Y-69157961D01*
X78068990Y-69205580D01*
X77973752Y-69205580D01*
X77830895Y-69157961D01*
X77735657Y-69062723D01*
X77688038Y-68967485D01*
X77640419Y-68777009D01*
X77640419Y-68634152D01*
X77688038Y-68443676D01*
X77735657Y-68348438D01*
X77830895Y-68253200D01*
X77973752Y-68205580D01*
X78068990Y-68205580D01*
X78211847Y-68253200D01*
X78259466Y-68300819D01*
X79116609Y-68205580D02*
X78926133Y-68205580D01*
X78830895Y-68253200D01*
X78783276Y-68300819D01*
X78688038Y-68443676D01*
X78640419Y-68634152D01*
X78640419Y-69015104D01*
X78688038Y-69110342D01*
X78735657Y-69157961D01*
X78830895Y-69205580D01*
X79021371Y-69205580D01*
X79116609Y-69157961D01*
X79164228Y-69110342D01*
X79211847Y-69015104D01*
X79211847Y-68777009D01*
X79164228Y-68681771D01*
X79116609Y-68634152D01*
X79021371Y-68586533D01*
X78830895Y-68586533D01*
X78735657Y-68634152D01*
X78688038Y-68681771D01*
X78640419Y-68777009D01*
X79783276Y-68634152D02*
X79688038Y-68586533D01*
X79640419Y-68538914D01*
X79592800Y-68443676D01*
X79592800Y-68396057D01*
X79640419Y-68300819D01*
X79688038Y-68253200D01*
X79783276Y-68205580D01*
X79973752Y-68205580D01*
X80068990Y-68253200D01*
X80116609Y-68300819D01*
X80164228Y-68396057D01*
X80164228Y-68443676D01*
X80116609Y-68538914D01*
X80068990Y-68586533D01*
X79973752Y-68634152D01*
X79783276Y-68634152D01*
X79688038Y-68681771D01*
X79640419Y-68729390D01*
X79592800Y-68824628D01*
X79592800Y-69015104D01*
X79640419Y-69110342D01*
X79688038Y-69157961D01*
X79783276Y-69205580D01*
X79973752Y-69205580D01*
X80068990Y-69157961D01*
X80116609Y-69110342D01*
X80164228Y-69015104D01*
X80164228Y-68824628D01*
X80116609Y-68729390D01*
X80068990Y-68681771D01*
X79973752Y-68634152D01*
X80783276Y-68205580D02*
X80878514Y-68205580D01*
X80973752Y-68253200D01*
X81021371Y-68300819D01*
X81068990Y-68396057D01*
X81116609Y-68586533D01*
X81116609Y-68824628D01*
X81068990Y-69015104D01*
X81021371Y-69110342D01*
X80973752Y-69157961D01*
X80878514Y-69205580D01*
X80783276Y-69205580D01*
X80688038Y-69157961D01*
X80640419Y-69110342D01*
X80592800Y-69015104D01*
X80545180Y-68824628D01*
X80545180Y-68586533D01*
X80592800Y-68396057D01*
X80640419Y-68300819D01*
X80688038Y-68253200D01*
X80783276Y-68205580D01*
X81735657Y-68205580D02*
X81830895Y-68205580D01*
X81926133Y-68253200D01*
X81973752Y-68300819D01*
X82021371Y-68396057D01*
X82068990Y-68586533D01*
X82068990Y-68824628D01*
X82021371Y-69015104D01*
X81973752Y-69110342D01*
X81926133Y-69157961D01*
X81830895Y-69205580D01*
X81735657Y-69205580D01*
X81640419Y-69157961D01*
X81592800Y-69110342D01*
X81545180Y-69015104D01*
X81497561Y-68824628D01*
X81497561Y-68586533D01*
X81545180Y-68396057D01*
X81592800Y-68300819D01*
X81640419Y-68253200D01*
X81735657Y-68205580D01*
X82640419Y-68634152D02*
X82545180Y-68586533D01*
X82497561Y-68538914D01*
X82449942Y-68443676D01*
X82449942Y-68396057D01*
X82497561Y-68300819D01*
X82545180Y-68253200D01*
X82640419Y-68205580D01*
X82830895Y-68205580D01*
X82926133Y-68253200D01*
X82973752Y-68300819D01*
X83021371Y-68396057D01*
X83021371Y-68443676D01*
X82973752Y-68538914D01*
X82926133Y-68586533D01*
X82830895Y-68634152D01*
X82640419Y-68634152D01*
X82545180Y-68681771D01*
X82497561Y-68729390D01*
X82449942Y-68824628D01*
X82449942Y-69015104D01*
X82497561Y-69110342D01*
X82545180Y-69157961D01*
X82640419Y-69205580D01*
X82830895Y-69205580D01*
X82926133Y-69157961D01*
X82973752Y-69110342D01*
X83021371Y-69015104D01*
X83021371Y-68824628D01*
X82973752Y-68729390D01*
X82926133Y-68681771D01*
X82830895Y-68634152D01*
X83783276Y-68681771D02*
X83449942Y-68681771D01*
X83449942Y-69205580D02*
X83449942Y-68205580D01*
X83926133Y-68205580D01*
X84307085Y-69205580D02*
X84307085Y-68205580D01*
X84878514Y-69205580D01*
X84878514Y-68205580D01*
X85878514Y-69205580D02*
X85307085Y-69205580D01*
X85592800Y-69205580D02*
X85592800Y-68205580D01*
X85497561Y-68348438D01*
X85402323Y-68443676D01*
X85307085Y-68491295D01*
X86259466Y-68300819D02*
X86307085Y-68253200D01*
X86402323Y-68205580D01*
X86640419Y-68205580D01*
X86735657Y-68253200D01*
X86783276Y-68300819D01*
X86830895Y-68396057D01*
X86830895Y-68491295D01*
X86783276Y-68634152D01*
X86211847Y-69205580D01*
X86830895Y-69205580D01*
X87592800Y-68681771D02*
X87259466Y-68681771D01*
X87259466Y-69205580D02*
X87259466Y-68205580D01*
X87735657Y-68205580D01*
%TO.C,J6*%
X146006066Y-97217580D02*
X146006066Y-97931866D01*
X145958447Y-98074723D01*
X145863209Y-98169961D01*
X145720352Y-98217580D01*
X145625114Y-98217580D01*
X146910828Y-97217580D02*
X146720352Y-97217580D01*
X146625114Y-97265200D01*
X146577495Y-97312819D01*
X146482257Y-97455676D01*
X146434638Y-97646152D01*
X146434638Y-98027104D01*
X146482257Y-98122342D01*
X146529876Y-98169961D01*
X146625114Y-98217580D01*
X146815590Y-98217580D01*
X146910828Y-98169961D01*
X146958447Y-98122342D01*
X147006066Y-98027104D01*
X147006066Y-97789009D01*
X146958447Y-97693771D01*
X146910828Y-97646152D01*
X146815590Y-97598533D01*
X146625114Y-97598533D01*
X146529876Y-97646152D01*
X146482257Y-97693771D01*
X146434638Y-97789009D01*
%TO.C,J5*%
X155099266Y-97217580D02*
X155099266Y-97931866D01*
X155051647Y-98074723D01*
X154956409Y-98169961D01*
X154813552Y-98217580D01*
X154718314Y-98217580D01*
X156051647Y-97217580D02*
X155575457Y-97217580D01*
X155527838Y-97693771D01*
X155575457Y-97646152D01*
X155670695Y-97598533D01*
X155908790Y-97598533D01*
X156004028Y-97646152D01*
X156051647Y-97693771D01*
X156099266Y-97789009D01*
X156099266Y-98027104D01*
X156051647Y-98122342D01*
X156004028Y-98169961D01*
X155908790Y-98217580D01*
X155670695Y-98217580D01*
X155575457Y-98169961D01*
X155527838Y-98122342D01*
%TO.C,U4*%
X120558495Y-73114180D02*
X120558495Y-73923704D01*
X120606114Y-74018942D01*
X120653733Y-74066561D01*
X120748971Y-74114180D01*
X120939447Y-74114180D01*
X121034685Y-74066561D01*
X121082304Y-74018942D01*
X121129923Y-73923704D01*
X121129923Y-73114180D01*
X122034685Y-73447514D02*
X122034685Y-74114180D01*
X121796590Y-73066561D02*
X121558495Y-73780847D01*
X122177542Y-73780847D01*
X118534685Y-93014180D02*
X119201352Y-93014180D01*
X118772780Y-94014180D01*
X120010876Y-93347514D02*
X120010876Y-94014180D01*
X119772780Y-92966561D02*
X119534685Y-93680847D01*
X120153733Y-93680847D01*
X120534685Y-94014180D02*
X120534685Y-93014180D01*
X120534685Y-93490371D02*
X121106114Y-93490371D01*
X121106114Y-94014180D02*
X121106114Y-93014180D01*
X122153733Y-93918942D02*
X122106114Y-93966561D01*
X121963257Y-94014180D01*
X121868019Y-94014180D01*
X121725161Y-93966561D01*
X121629923Y-93871323D01*
X121582304Y-93776085D01*
X121534685Y-93585609D01*
X121534685Y-93442752D01*
X121582304Y-93252276D01*
X121629923Y-93157038D01*
X121725161Y-93061800D01*
X121868019Y-93014180D01*
X121963257Y-93014180D01*
X122106114Y-93061800D01*
X122153733Y-93109419D01*
X122772780Y-93014180D02*
X122868019Y-93014180D01*
X122963257Y-93061800D01*
X123010876Y-93109419D01*
X123058495Y-93204657D01*
X123106114Y-93395133D01*
X123106114Y-93633228D01*
X123058495Y-93823704D01*
X123010876Y-93918942D01*
X122963257Y-93966561D01*
X122868019Y-94014180D01*
X122772780Y-94014180D01*
X122677542Y-93966561D01*
X122629923Y-93918942D01*
X122582304Y-93823704D01*
X122534685Y-93633228D01*
X122534685Y-93395133D01*
X122582304Y-93204657D01*
X122629923Y-93109419D01*
X122677542Y-93061800D01*
X122772780Y-93014180D01*
X123963257Y-93347514D02*
X123963257Y-94014180D01*
X123725161Y-92966561D02*
X123487066Y-93680847D01*
X124106114Y-93680847D01*
%TO.C,J4*%
X78838466Y-111390180D02*
X78838466Y-112104466D01*
X78790847Y-112247323D01*
X78695609Y-112342561D01*
X78552752Y-112390180D01*
X78457514Y-112390180D01*
X79743228Y-111723514D02*
X79743228Y-112390180D01*
X79505133Y-111342561D02*
X79267038Y-112056847D01*
X79886085Y-112056847D01*
%TO.C,J3*%
X70507266Y-111298980D02*
X70507266Y-112013266D01*
X70459647Y-112156123D01*
X70364409Y-112251361D01*
X70221552Y-112298980D01*
X70126314Y-112298980D01*
X70888219Y-111298980D02*
X71507266Y-111298980D01*
X71173933Y-111679933D01*
X71316790Y-111679933D01*
X71412028Y-111727552D01*
X71459647Y-111775171D01*
X71507266Y-111870409D01*
X71507266Y-112108504D01*
X71459647Y-112203742D01*
X71412028Y-112251361D01*
X71316790Y-112298980D01*
X71031076Y-112298980D01*
X70935838Y-112251361D01*
X70888219Y-112203742D01*
%TO.C,U8*%
X135816380Y-105171304D02*
X136625904Y-105171304D01*
X136721142Y-105123685D01*
X136768761Y-105076066D01*
X136816380Y-104980828D01*
X136816380Y-104790352D01*
X136768761Y-104695114D01*
X136721142Y-104647495D01*
X136625904Y-104599876D01*
X135816380Y-104599876D01*
X136244952Y-103980828D02*
X136197333Y-104076066D01*
X136149714Y-104123685D01*
X136054476Y-104171304D01*
X136006857Y-104171304D01*
X135911619Y-104123685D01*
X135864000Y-104076066D01*
X135816380Y-103980828D01*
X135816380Y-103790352D01*
X135864000Y-103695114D01*
X135911619Y-103647495D01*
X136006857Y-103599876D01*
X136054476Y-103599876D01*
X136149714Y-103647495D01*
X136197333Y-103695114D01*
X136244952Y-103790352D01*
X136244952Y-103980828D01*
X136292571Y-104076066D01*
X136340190Y-104123685D01*
X136435428Y-104171304D01*
X136625904Y-104171304D01*
X136721142Y-104123685D01*
X136768761Y-104076066D01*
X136816380Y-103980828D01*
X136816380Y-103790352D01*
X136768761Y-103695114D01*
X136721142Y-103647495D01*
X136625904Y-103599876D01*
X136435428Y-103599876D01*
X136340190Y-103647495D01*
X136292571Y-103695114D01*
X136244952Y-103790352D01*
X149296380Y-106886047D02*
X148296380Y-106886047D01*
X149010666Y-106552714D01*
X148296380Y-106219380D01*
X149296380Y-106219380D01*
X149296380Y-105314619D02*
X148772571Y-105314619D01*
X148677333Y-105362238D01*
X148629714Y-105457476D01*
X148629714Y-105647952D01*
X148677333Y-105743190D01*
X149248761Y-105314619D02*
X149296380Y-105409857D01*
X149296380Y-105647952D01*
X149248761Y-105743190D01*
X149153523Y-105790809D01*
X149058285Y-105790809D01*
X148963047Y-105743190D01*
X148915428Y-105647952D01*
X148915428Y-105409857D01*
X148867809Y-105314619D01*
X149296380Y-104933666D02*
X148629714Y-104409857D01*
X148629714Y-104933666D02*
X149296380Y-104409857D01*
X148296380Y-104124142D02*
X148296380Y-103457476D01*
X149296380Y-103886047D01*
X148296380Y-102886047D02*
X148296380Y-102790809D01*
X148344000Y-102695571D01*
X148391619Y-102647952D01*
X148486857Y-102600333D01*
X148677333Y-102552714D01*
X148915428Y-102552714D01*
X149105904Y-102600333D01*
X149201142Y-102647952D01*
X149248761Y-102695571D01*
X149296380Y-102790809D01*
X149296380Y-102886047D01*
X149248761Y-102981285D01*
X149201142Y-103028904D01*
X149105904Y-103076523D01*
X148915428Y-103124142D01*
X148677333Y-103124142D01*
X148486857Y-103076523D01*
X148391619Y-103028904D01*
X148344000Y-102981285D01*
X148296380Y-102886047D01*
X148296380Y-101647952D02*
X148296380Y-102124142D01*
X148772571Y-102171761D01*
X148724952Y-102124142D01*
X148677333Y-102028904D01*
X148677333Y-101790809D01*
X148724952Y-101695571D01*
X148772571Y-101647952D01*
X148867809Y-101600333D01*
X149105904Y-101600333D01*
X149201142Y-101647952D01*
X149248761Y-101695571D01*
X149296380Y-101790809D01*
X149296380Y-102028904D01*
X149248761Y-102124142D01*
X149201142Y-102171761D01*
%TO.C,X1*%
X66779876Y-103770180D02*
X67446542Y-104770180D01*
X67446542Y-103770180D02*
X66779876Y-104770180D01*
X68351304Y-104770180D02*
X67779876Y-104770180D01*
X68065590Y-104770180D02*
X68065590Y-103770180D01*
X67970352Y-103913038D01*
X67875114Y-104008276D01*
X67779876Y-104055895D01*
%TO.C,X2*%
X150742580Y-52822723D02*
X151742580Y-52156057D01*
X150742580Y-52156057D02*
X151742580Y-52822723D01*
X150837819Y-51822723D02*
X150790200Y-51775104D01*
X150742580Y-51679866D01*
X150742580Y-51441771D01*
X150790200Y-51346533D01*
X150837819Y-51298914D01*
X150933057Y-51251295D01*
X151028295Y-51251295D01*
X151171152Y-51298914D01*
X151742580Y-51870342D01*
X151742580Y-51251295D01*
%TO.C,U1*%
X95564895Y-73114180D02*
X95564895Y-73923704D01*
X95612514Y-74018942D01*
X95660133Y-74066561D01*
X95755371Y-74114180D01*
X95945847Y-74114180D01*
X96041085Y-74066561D01*
X96088704Y-74018942D01*
X96136323Y-73923704D01*
X96136323Y-73114180D01*
X97136323Y-74114180D02*
X96564895Y-74114180D01*
X96850609Y-74114180D02*
X96850609Y-73114180D01*
X96755371Y-73257038D01*
X96660133Y-73352276D01*
X96564895Y-73399895D01*
X93683942Y-93014180D02*
X94350609Y-93014180D01*
X93922038Y-94014180D01*
X95160133Y-93347514D02*
X95160133Y-94014180D01*
X94922038Y-92966561D02*
X94683942Y-93680847D01*
X95302990Y-93680847D01*
X96160133Y-94014180D02*
X95683942Y-94014180D01*
X95683942Y-93014180D01*
X96445847Y-93966561D02*
X96588704Y-94014180D01*
X96826800Y-94014180D01*
X96922038Y-93966561D01*
X96969657Y-93918942D01*
X97017276Y-93823704D01*
X97017276Y-93728466D01*
X96969657Y-93633228D01*
X96922038Y-93585609D01*
X96826800Y-93537990D01*
X96636323Y-93490371D01*
X96541085Y-93442752D01*
X96493466Y-93395133D01*
X96445847Y-93299895D01*
X96445847Y-93204657D01*
X96493466Y-93109419D01*
X96541085Y-93061800D01*
X96636323Y-93014180D01*
X96874419Y-93014180D01*
X97017276Y-93061800D01*
X97350609Y-93014180D02*
X97969657Y-93014180D01*
X97636323Y-93395133D01*
X97779180Y-93395133D01*
X97874419Y-93442752D01*
X97922038Y-93490371D01*
X97969657Y-93585609D01*
X97969657Y-93823704D01*
X97922038Y-93918942D01*
X97874419Y-93966561D01*
X97779180Y-94014180D01*
X97493466Y-94014180D01*
X97398228Y-93966561D01*
X97350609Y-93918942D01*
X98350609Y-93109419D02*
X98398228Y-93061800D01*
X98493466Y-93014180D01*
X98731561Y-93014180D01*
X98826800Y-93061800D01*
X98874419Y-93109419D01*
X98922038Y-93204657D01*
X98922038Y-93299895D01*
X98874419Y-93442752D01*
X98302990Y-94014180D01*
X98922038Y-94014180D01*
%TO.C,U6*%
X133055295Y-73114180D02*
X133055295Y-73923704D01*
X133102914Y-74018942D01*
X133150533Y-74066561D01*
X133245771Y-74114180D01*
X133436247Y-74114180D01*
X133531485Y-74066561D01*
X133579104Y-74018942D01*
X133626723Y-73923704D01*
X133626723Y-73114180D01*
X134531485Y-73114180D02*
X134341009Y-73114180D01*
X134245771Y-73161800D01*
X134198152Y-73209419D01*
X134102914Y-73352276D01*
X134055295Y-73542752D01*
X134055295Y-73923704D01*
X134102914Y-74018942D01*
X134150533Y-74066561D01*
X134245771Y-74114180D01*
X134436247Y-74114180D01*
X134531485Y-74066561D01*
X134579104Y-74018942D01*
X134626723Y-73923704D01*
X134626723Y-73685609D01*
X134579104Y-73590371D01*
X134531485Y-73542752D01*
X134436247Y-73495133D01*
X134245771Y-73495133D01*
X134150533Y-73542752D01*
X134102914Y-73590371D01*
X134055295Y-73685609D01*
X130698152Y-95554180D02*
X131364819Y-95554180D01*
X130936247Y-96554180D01*
X132174342Y-95887514D02*
X132174342Y-96554180D01*
X131936247Y-95506561D02*
X131698152Y-96220847D01*
X132317200Y-96220847D01*
X133174342Y-96554180D02*
X132698152Y-96554180D01*
X132698152Y-95554180D01*
X133460057Y-96506561D02*
X133602914Y-96554180D01*
X133841009Y-96554180D01*
X133936247Y-96506561D01*
X133983866Y-96458942D01*
X134031485Y-96363704D01*
X134031485Y-96268466D01*
X133983866Y-96173228D01*
X133936247Y-96125609D01*
X133841009Y-96077990D01*
X133650533Y-96030371D01*
X133555295Y-95982752D01*
X133507676Y-95935133D01*
X133460057Y-95839895D01*
X133460057Y-95744657D01*
X133507676Y-95649419D01*
X133555295Y-95601800D01*
X133650533Y-95554180D01*
X133888628Y-95554180D01*
X134031485Y-95601800D01*
X134983866Y-96554180D02*
X134412438Y-96554180D01*
X134698152Y-96554180D02*
X134698152Y-95554180D01*
X134602914Y-95697038D01*
X134507676Y-95792276D01*
X134412438Y-95839895D01*
X135317200Y-95554180D02*
X135936247Y-95554180D01*
X135602914Y-95935133D01*
X135745771Y-95935133D01*
X135841009Y-95982752D01*
X135888628Y-96030371D01*
X135936247Y-96125609D01*
X135936247Y-96363704D01*
X135888628Y-96458942D01*
X135841009Y-96506561D01*
X135745771Y-96554180D01*
X135460057Y-96554180D01*
X135364819Y-96506561D01*
X135317200Y-96458942D01*
X136507676Y-95982752D02*
X136412438Y-95935133D01*
X136364819Y-95887514D01*
X136317200Y-95792276D01*
X136317200Y-95744657D01*
X136364819Y-95649419D01*
X136412438Y-95601800D01*
X136507676Y-95554180D01*
X136698152Y-95554180D01*
X136793390Y-95601800D01*
X136841009Y-95649419D01*
X136888628Y-95744657D01*
X136888628Y-95792276D01*
X136841009Y-95887514D01*
X136793390Y-95935133D01*
X136698152Y-95982752D01*
X136507676Y-95982752D01*
X136412438Y-96030371D01*
X136364819Y-96077990D01*
X136317200Y-96173228D01*
X136317200Y-96363704D01*
X136364819Y-96458942D01*
X136412438Y-96506561D01*
X136507676Y-96554180D01*
X136698152Y-96554180D01*
X136793390Y-96506561D01*
X136841009Y-96458942D01*
X136888628Y-96363704D01*
X136888628Y-96173228D01*
X136841009Y-96077990D01*
X136793390Y-96030371D01*
X136698152Y-95982752D01*
%TO.C,J1*%
X156943466Y-53545780D02*
X156943466Y-54260066D01*
X156895847Y-54402923D01*
X156800609Y-54498161D01*
X156657752Y-54545780D01*
X156562514Y-54545780D01*
X157943466Y-54545780D02*
X157372038Y-54545780D01*
X157657752Y-54545780D02*
X157657752Y-53545780D01*
X157562514Y-53688638D01*
X157467276Y-53783876D01*
X157372038Y-53831495D01*
X160323161Y-63066733D02*
X160370780Y-62923876D01*
X160370780Y-62685780D01*
X160323161Y-62590542D01*
X160275542Y-62542923D01*
X160180304Y-62495304D01*
X160085066Y-62495304D01*
X159989828Y-62542923D01*
X159942209Y-62590542D01*
X159894590Y-62685780D01*
X159846971Y-62876257D01*
X159799352Y-62971495D01*
X159751733Y-63019114D01*
X159656495Y-63066733D01*
X159561257Y-63066733D01*
X159466019Y-63019114D01*
X159418400Y-62971495D01*
X159370780Y-62876257D01*
X159370780Y-62638161D01*
X159418400Y-62495304D01*
X160323161Y-61685780D02*
X160370780Y-61781019D01*
X160370780Y-61971495D01*
X160323161Y-62066733D01*
X160227923Y-62114352D01*
X159846971Y-62114352D01*
X159751733Y-62066733D01*
X159704114Y-61971495D01*
X159704114Y-61781019D01*
X159751733Y-61685780D01*
X159846971Y-61638161D01*
X159942209Y-61638161D01*
X160037447Y-62114352D01*
X160370780Y-61209590D02*
X159704114Y-61209590D01*
X159894590Y-61209590D02*
X159799352Y-61161971D01*
X159751733Y-61114352D01*
X159704114Y-61019114D01*
X159704114Y-60923876D01*
X160370780Y-60590542D02*
X159704114Y-60590542D01*
X159370780Y-60590542D02*
X159418400Y-60638161D01*
X159466019Y-60590542D01*
X159418400Y-60542923D01*
X159370780Y-60590542D01*
X159466019Y-60590542D01*
X160370780Y-59685780D02*
X159846971Y-59685780D01*
X159751733Y-59733400D01*
X159704114Y-59828638D01*
X159704114Y-60019114D01*
X159751733Y-60114352D01*
X160323161Y-59685780D02*
X160370780Y-59781019D01*
X160370780Y-60019114D01*
X160323161Y-60114352D01*
X160227923Y-60161971D01*
X160132685Y-60161971D01*
X160037447Y-60114352D01*
X159989828Y-60019114D01*
X159989828Y-59781019D01*
X159942209Y-59685780D01*
X160370780Y-59066733D02*
X160323161Y-59161971D01*
X160227923Y-59209590D01*
X159370780Y-59209590D01*
X160370780Y-57400066D02*
X160370780Y-57971495D01*
X160370780Y-57685780D02*
X159370780Y-57685780D01*
X159513638Y-57781019D01*
X159608876Y-57876257D01*
X159656495Y-57971495D01*
%TO.C,J2*%
X68623380Y-128019133D02*
X69337666Y-128019133D01*
X69480523Y-128066752D01*
X69575761Y-128161990D01*
X69623380Y-128304847D01*
X69623380Y-128400085D01*
X68718619Y-127590561D02*
X68671000Y-127542942D01*
X68623380Y-127447704D01*
X68623380Y-127209609D01*
X68671000Y-127114371D01*
X68718619Y-127066752D01*
X68813857Y-127019133D01*
X68909095Y-127019133D01*
X69051952Y-127066752D01*
X69623380Y-127638180D01*
X69623380Y-127019133D01*
D13*
%TO.C,R7*%
X153492058Y-99934500D02*
X153017542Y-99934500D01*
X153492058Y-100979500D02*
X153017542Y-100979500D01*
%TO.C,D2*%
X155525200Y-101592000D02*
X159410200Y-101592000D01*
X159410200Y-99322000D02*
X155525200Y-99322000D01*
X155525200Y-99322000D02*
X155525200Y-101592000D01*
%TO.C,SW1*%
X153437200Y-113914800D02*
X159897200Y-113914800D01*
X153437200Y-120374800D02*
X153437200Y-120344800D01*
X153437200Y-115844800D02*
X153437200Y-118444800D01*
X159897200Y-113914800D02*
X159897200Y-113944800D01*
X153437200Y-120374800D02*
X159897200Y-120374800D01*
X153437200Y-113944800D02*
X153437200Y-113914800D01*
X159897200Y-120374800D02*
X159897200Y-120344800D01*
X159897200Y-115844800D02*
X159897200Y-118444800D01*
%TO.C,R10*%
X99356142Y-44566100D02*
X99830658Y-44566100D01*
X99356142Y-43521100D02*
X99830658Y-43521100D01*
%TO.C,R9*%
X153492058Y-107605300D02*
X153017542Y-107605300D01*
X153492058Y-108650300D02*
X153017542Y-108650300D01*
%TO.C,R8*%
X153017542Y-104891100D02*
X153492058Y-104891100D01*
X153017542Y-103846100D02*
X153492058Y-103846100D01*
%TO.C,R6*%
X141000258Y-66254100D02*
X140525742Y-66254100D01*
X141000258Y-67299100D02*
X140525742Y-67299100D01*
%TO.C,R5*%
X96665658Y-94803900D02*
X96191142Y-94803900D01*
X96665658Y-95848900D02*
X96191142Y-95848900D01*
%TO.C,R4*%
X99457742Y-61482600D02*
X99932258Y-61482600D01*
X99457742Y-60437600D02*
X99932258Y-60437600D01*
%TO.C,R3*%
X99457742Y-57228000D02*
X99932258Y-57228000D01*
X99457742Y-56183000D02*
X99932258Y-56183000D01*
%TO.C,R2*%
X99457742Y-52973500D02*
X99932258Y-52973500D01*
X99457742Y-51928500D02*
X99932258Y-51928500D01*
%TO.C,R1*%
X99457742Y-48719000D02*
X99932258Y-48719000D01*
X99457742Y-47674000D02*
X99932258Y-47674000D01*
%TO.C,D4*%
X155525200Y-107043600D02*
X155525200Y-109313600D01*
X159410200Y-107043600D02*
X155525200Y-107043600D01*
X155525200Y-109313600D02*
X159410200Y-109313600D01*
%TO.C,D3*%
X155525200Y-103259000D02*
X155525200Y-105529000D01*
X159410200Y-103259000D02*
X155525200Y-103259000D01*
X155525200Y-105529000D02*
X159410200Y-105529000D01*
%TO.C,D1*%
X144247600Y-65641600D02*
X144247600Y-67911600D01*
X148132600Y-65641600D02*
X144247600Y-65641600D01*
X144247600Y-67911600D02*
X148132600Y-67911600D01*
%TO.C,C16*%
X151523000Y-76975780D02*
X151523000Y-76694620D01*
X150503000Y-76975780D02*
X150503000Y-76694620D01*
%TO.C,C15*%
X139192600Y-117930437D02*
X140257037Y-116866000D01*
X143712600Y-121386000D02*
X143712600Y-120186000D01*
X138452600Y-117566000D02*
X138952600Y-117566000D01*
X140257037Y-121386000D02*
X143712600Y-121386000D01*
X140257037Y-116866000D02*
X143712600Y-116866000D01*
X143712600Y-116866000D02*
X143712600Y-118066000D01*
X139192600Y-117930437D02*
X139192600Y-118066000D01*
X139192600Y-120321563D02*
X139192600Y-120186000D01*
X139192600Y-120321563D02*
X140257037Y-121386000D01*
X138702600Y-117316000D02*
X138702600Y-117816000D01*
%TO.C,C14*%
X142429800Y-76975780D02*
X142429800Y-76694620D01*
X141409800Y-76975780D02*
X141409800Y-76694620D01*
%TO.C,C13*%
X134033800Y-104151820D02*
X134033800Y-104432980D01*
X135053800Y-104151820D02*
X135053800Y-104432980D01*
%TO.C,C12*%
X135100600Y-109956020D02*
X135100600Y-110237180D01*
X136120600Y-109956020D02*
X136120600Y-110237180D01*
%TO.C,C11*%
X87196200Y-106412420D02*
X87196200Y-106693580D01*
X88216200Y-106412420D02*
X88216200Y-106693580D01*
%TO.C,C10*%
X152956800Y-127800980D02*
X152956800Y-127519820D01*
X153976800Y-127800980D02*
X153976800Y-127519820D01*
%TO.C,C9*%
X96211620Y-72595400D02*
X96492780Y-72595400D01*
X96211620Y-71575400D02*
X96492780Y-71575400D01*
%TO.C,C8*%
X108530620Y-72595400D02*
X108811780Y-72595400D01*
X108530620Y-71575400D02*
X108811780Y-71575400D01*
%TO.C,C7*%
X133702020Y-72595400D02*
X133983180Y-72595400D01*
X133702020Y-71575400D02*
X133983180Y-71575400D01*
%TO.C,C6*%
X143877420Y-38809200D02*
X144158580Y-38809200D01*
X143877420Y-39829200D02*
X144158580Y-39829200D01*
%TO.C,C5*%
X121179820Y-72595400D02*
X121460980Y-72595400D01*
X121179820Y-71575400D02*
X121460980Y-71575400D01*
%TO.C,C4*%
X122566820Y-39829200D02*
X122847980Y-39829200D01*
X122566820Y-38809200D02*
X122847980Y-38809200D01*
%TO.C,C3*%
X83310000Y-104763180D02*
X83310000Y-104482020D01*
X84330000Y-104763180D02*
X84330000Y-104482020D01*
%TO.C,C2*%
X78279220Y-72595400D02*
X78560380Y-72595400D01*
X78279220Y-71575400D02*
X78560380Y-71575400D01*
%TO.C,C1*%
X82104620Y-39829200D02*
X82385780Y-39829200D01*
X82104620Y-38809200D02*
X82385780Y-38809200D01*
%TO.C,U7*%
X90558000Y-97523400D02*
X90558000Y-115643400D01*
X90618000Y-100523400D02*
X90618000Y-105583400D01*
X90618000Y-112643400D02*
X131378000Y-112643400D01*
X90618000Y-107583400D02*
X90618000Y-112643400D01*
X131378000Y-100523400D02*
X90618000Y-100523400D01*
X131378000Y-112643400D02*
X131378000Y-100523400D01*
X90558000Y-115643400D02*
X131438000Y-115643400D01*
X131438000Y-97523400D02*
X90558000Y-97523400D01*
X131438000Y-115643400D02*
X131438000Y-97523400D01*
X90618000Y-107583400D02*
G75*
G03*
X90618000Y-105583400I0J1000000D01*
G01*
%TO.C,U5*%
X134557400Y-65513200D02*
X134557400Y-41813200D01*
X121707400Y-41813200D02*
X111857400Y-41813200D01*
X111857400Y-41813200D02*
X110857400Y-42813200D01*
X134557400Y-41813200D02*
X123707400Y-41813200D01*
X110857400Y-65513200D02*
X134557400Y-65513200D01*
X110857400Y-42813200D02*
X110857400Y-65513200D01*
%TO.C,U3*%
X107696600Y-74661800D02*
X106446600Y-74661800D01*
X113946600Y-95161800D02*
X113946600Y-74601800D01*
X106446600Y-95101800D02*
X110946600Y-95101800D01*
X103446600Y-74601800D02*
X103446600Y-95161800D01*
X110946600Y-95101800D02*
X110946600Y-74661800D01*
X110946600Y-74661800D02*
X109696600Y-74661800D01*
X103446600Y-95161800D02*
X113946600Y-95161800D01*
X106446600Y-74661800D02*
X106446600Y-95101800D01*
X113946600Y-74601800D02*
X103446600Y-74601800D01*
X107696600Y-74661800D02*
G75*
G03*
X109696600Y-74661800I1000000J0D01*
G01*
%TO.C,J7*%
X155972200Y-44678600D02*
X155972200Y-52358600D01*
X155972200Y-42078600D02*
X157302200Y-42078600D01*
X155972200Y-44678600D02*
X158632200Y-44678600D01*
X155972200Y-52358600D02*
X158632200Y-52358600D01*
X155972200Y-43408600D02*
X155972200Y-42078600D01*
X158632200Y-44678600D02*
X158632200Y-52358600D01*
%TO.C,U2*%
X77385200Y-74791800D02*
X70260200Y-74791800D01*
X69260200Y-95591800D02*
X87510200Y-95591800D01*
X69260200Y-75791800D02*
X69260200Y-95591800D01*
X87510200Y-74791800D02*
X79385200Y-74791800D01*
X87510200Y-95591800D02*
X87510200Y-74791800D01*
X70260200Y-74791800D02*
X69260200Y-75791800D01*
%TO.C,IC1*%
X95132800Y-67853200D02*
X95132800Y-41773200D01*
X95132800Y-41773200D02*
X83092800Y-41773200D01*
X69052800Y-67853200D02*
X95132800Y-67853200D01*
X70052800Y-41773200D02*
X69052800Y-42773200D01*
X69052800Y-42773200D02*
X69052800Y-67853200D01*
X81092800Y-41773200D02*
X70052800Y-41773200D01*
%TO.C,J6*%
X147669400Y-95435200D02*
X147669400Y-96765200D01*
X145009400Y-94165200D02*
X145009400Y-71245200D01*
X147669400Y-94165200D02*
X147669400Y-71245200D01*
X147669400Y-96765200D02*
X146339400Y-96765200D01*
X147669400Y-94165200D02*
X145009400Y-94165200D01*
X147669400Y-71245200D02*
X145009400Y-71245200D01*
%TO.C,J5*%
X156762600Y-95435200D02*
X156762600Y-96765200D01*
X154102600Y-94165200D02*
X154102600Y-71245200D01*
X156762600Y-94165200D02*
X156762600Y-71245200D01*
X156762600Y-96765200D02*
X155432600Y-96765200D01*
X156762600Y-94165200D02*
X154102600Y-94165200D01*
X156762600Y-71245200D02*
X154102600Y-71245200D01*
%TO.C,U4*%
X120320400Y-74661800D02*
G75*
G03*
X122320400Y-74661800I1000000J0D01*
G01*
X119070400Y-74661800D02*
X119070400Y-92561800D01*
X123570400Y-74661800D02*
X122320400Y-74661800D01*
X119070400Y-92561800D02*
X123570400Y-92561800D01*
X116070400Y-92621800D02*
X126570400Y-92621800D01*
X126570400Y-92621800D02*
X126570400Y-74601800D01*
X120320400Y-74661800D02*
X119070400Y-74661800D01*
X116070400Y-74601800D02*
X116070400Y-92621800D01*
X126570400Y-74601800D02*
X116070400Y-74601800D01*
X123570400Y-92561800D02*
X123570400Y-74661800D01*
%TO.C,J4*%
X77816400Y-114884200D02*
X77816400Y-113554200D01*
X77816400Y-118754200D02*
X80476400Y-118754200D01*
X77816400Y-116154200D02*
X77816400Y-118754200D01*
X77816400Y-116154200D02*
X80476400Y-116154200D01*
X77816400Y-113554200D02*
X79146400Y-113554200D01*
X80476400Y-116154200D02*
X80476400Y-118754200D01*
%TO.C,J3*%
X69561400Y-121294200D02*
X72221400Y-121294200D01*
X69561400Y-116154200D02*
X69561400Y-121294200D01*
X69561400Y-114884200D02*
X69561400Y-113554200D01*
X72221400Y-116154200D02*
X72221400Y-121294200D01*
X69561400Y-113554200D02*
X70891400Y-113554200D01*
X69561400Y-116154200D02*
X72221400Y-116154200D01*
%TO.C,U8*%
X137364000Y-105409400D02*
G75*
G03*
X137364000Y-103409400I0J1000000D01*
G01*
X137304000Y-109659400D02*
X147704000Y-109659400D01*
X147704000Y-109659400D02*
X147704000Y-99159400D01*
X137304000Y-99159400D02*
X137304000Y-109659400D01*
X147644000Y-102159400D02*
X137364000Y-102159400D01*
X147704000Y-99159400D02*
X137304000Y-99159400D01*
X137364000Y-105409400D02*
X137364000Y-106659400D01*
X137364000Y-102159400D02*
X137364000Y-103409400D01*
X137364000Y-106659400D02*
X147644000Y-106659400D01*
X147644000Y-106659400D02*
X147644000Y-102159400D01*
%TO.C,X1*%
X81964200Y-98719400D02*
G75*
G03*
X81214200Y-97969400I-750000J0D01*
G01*
X69814200Y-97969400D02*
G75*
G03*
X69064200Y-98719400I0J-750000D01*
G01*
X81214200Y-110869400D02*
G75*
G03*
X81964200Y-110119400I0J750000D01*
G01*
X81214200Y-97969400D02*
X69814200Y-97969400D01*
X69064200Y-110869400D02*
X81214200Y-110869400D01*
X81964200Y-110119400D02*
X81964200Y-98719400D01*
X69064200Y-98719400D02*
X69064200Y-110869400D01*
%TO.C,X2*%
X149540200Y-41563200D02*
X137390200Y-41563200D01*
X150290200Y-61713200D02*
X150290200Y-42313200D01*
X138140200Y-62463200D02*
X149540200Y-62463200D01*
X137390200Y-41563200D02*
X137390200Y-61713200D01*
X137390200Y-61713200D02*
G75*
G03*
X138140200Y-62463200I750000J0D01*
G01*
X150290200Y-42313200D02*
G75*
G03*
X149540200Y-41563200I-750000J0D01*
G01*
X149540200Y-62463200D02*
G75*
G03*
X150290200Y-61713200I0J750000D01*
G01*
%TO.C,U1*%
X98576800Y-92561800D02*
X98576800Y-74661800D01*
X101576800Y-74601800D02*
X91076800Y-74601800D01*
X91076800Y-74601800D02*
X91076800Y-92621800D01*
X95326800Y-74661800D02*
X94076800Y-74661800D01*
X101576800Y-92621800D02*
X101576800Y-74601800D01*
X91076800Y-92621800D02*
X101576800Y-92621800D01*
X94076800Y-92561800D02*
X98576800Y-92561800D01*
X98576800Y-74661800D02*
X97326800Y-74661800D01*
X94076800Y-74661800D02*
X94076800Y-92561800D01*
X95326800Y-74661800D02*
G75*
G03*
X97326800Y-74661800I1000000J0D01*
G01*
%TO.C,U6*%
X132817200Y-74661800D02*
X131567200Y-74661800D01*
X139067200Y-95161800D02*
X139067200Y-74601800D01*
X131567200Y-95101800D02*
X136067200Y-95101800D01*
X128567200Y-74601800D02*
X128567200Y-95161800D01*
X136067200Y-95101800D02*
X136067200Y-74661800D01*
X136067200Y-74661800D02*
X134817200Y-74661800D01*
X128567200Y-95161800D02*
X139067200Y-95161800D01*
X131567200Y-74661800D02*
X131567200Y-95101800D01*
X139067200Y-74601800D02*
X128567200Y-74601800D01*
X132817200Y-74661800D02*
G75*
G03*
X134817200Y-74661800I1000000J0D01*
G01*
%TO.C,J1*%
X155946800Y-57693400D02*
X155946800Y-65373400D01*
X155946800Y-55093400D02*
X157276800Y-55093400D01*
X155946800Y-57693400D02*
X158606800Y-57693400D01*
X155946800Y-65373400D02*
X158606800Y-65373400D01*
X155946800Y-56423400D02*
X155946800Y-55093400D01*
X158606800Y-57693400D02*
X158606800Y-65373400D01*
%TO.C,J2*%
X70171000Y-127685800D02*
X70171000Y-125085800D01*
X70171000Y-125085800D02*
X151571000Y-125085800D01*
X72771000Y-130285800D02*
X151571000Y-130285800D01*
X151571000Y-130285800D02*
X151571000Y-125085800D01*
X72771000Y-127685800D02*
X70171000Y-127685800D01*
X72771000Y-130285800D02*
X72771000Y-127685800D01*
X71501000Y-130285800D02*
X70171000Y-130285800D01*
X70171000Y-130285800D02*
X70171000Y-128955800D01*
%TD*%
M02*
