%TF.GenerationSoftware,KiCad,Pcbnew,(6.0.9)*%
%TF.CreationDate,2022-11-21T21:05:11-08:00*%
%TF.ProjectId,IO Board,494f2042-6f61-4726-942e-6b696361645f,rev?*%
%TF.SameCoordinates,Original*%
%TF.FileFunction,Legend,Top*%
%TF.FilePolarity,Positive*%
%FSLAX46Y46*%
G04 Gerber Fmt 4.6, Leading zero omitted, Abs format (unit mm)*
G04 Created by KiCad (PCBNEW (6.0.9)) date 2022-11-21 21:05:11*
%MOMM*%
%LPD*%
G01*
G04 APERTURE LIST*
%ADD10C,0.300000*%
%ADD11C,0.150000*%
%ADD12C,0.120000*%
G04 APERTURE END LIST*
D10*
X98687714Y-141926571D02*
X99187714Y-143426571D01*
X99687714Y-141926571D01*
X100116285Y-142069428D02*
X100187714Y-141998000D01*
X100330571Y-141926571D01*
X100687714Y-141926571D01*
X100830571Y-141998000D01*
X100902000Y-142069428D01*
X100973428Y-142212285D01*
X100973428Y-142355142D01*
X100902000Y-142569428D01*
X100044857Y-143426571D01*
X100973428Y-143426571D01*
X101902000Y-141926571D02*
X102044857Y-141926571D01*
X102187714Y-141998000D01*
X102259142Y-142069428D01*
X102330571Y-142212285D01*
X102402000Y-142498000D01*
X102402000Y-142855142D01*
X102330571Y-143140857D01*
X102259142Y-143283714D01*
X102187714Y-143355142D01*
X102044857Y-143426571D01*
X101902000Y-143426571D01*
X101759142Y-143355142D01*
X101687714Y-143283714D01*
X101616285Y-143140857D01*
X101544857Y-142855142D01*
X101544857Y-142498000D01*
X101616285Y-142212285D01*
X101687714Y-142069428D01*
X101759142Y-141998000D01*
X101902000Y-141926571D01*
X102973428Y-142069428D02*
X103044857Y-141998000D01*
X103187714Y-141926571D01*
X103544857Y-141926571D01*
X103687714Y-141998000D01*
X103759142Y-142069428D01*
X103830571Y-142212285D01*
X103830571Y-142355142D01*
X103759142Y-142569428D01*
X102902000Y-143426571D01*
X103830571Y-143426571D01*
X104402000Y-142069428D02*
X104473428Y-141998000D01*
X104616285Y-141926571D01*
X104973428Y-141926571D01*
X105116285Y-141998000D01*
X105187714Y-142069428D01*
X105259142Y-142212285D01*
X105259142Y-142355142D01*
X105187714Y-142569428D01*
X104330571Y-143426571D01*
X105259142Y-143426571D01*
X106687714Y-143426571D02*
X105830571Y-143426571D01*
X106259142Y-143426571D02*
X106259142Y-141926571D01*
X106116285Y-142140857D01*
X105973428Y-142283714D01*
X105830571Y-142355142D01*
X108116285Y-143426571D02*
X107259142Y-143426571D01*
X107687714Y-143426571D02*
X107687714Y-141926571D01*
X107544857Y-142140857D01*
X107402000Y-142283714D01*
X107259142Y-142355142D01*
X108687714Y-142069428D02*
X108759142Y-141998000D01*
X108902000Y-141926571D01*
X109259142Y-141926571D01*
X109402000Y-141998000D01*
X109473428Y-142069428D01*
X109544857Y-142212285D01*
X109544857Y-142355142D01*
X109473428Y-142569428D01*
X108616285Y-143426571D01*
X109544857Y-143426571D01*
X110116285Y-142069428D02*
X110187714Y-141998000D01*
X110330571Y-141926571D01*
X110687714Y-141926571D01*
X110830571Y-141998000D01*
X110902000Y-142069428D01*
X110973428Y-142212285D01*
X110973428Y-142355142D01*
X110902000Y-142569428D01*
X110044857Y-143426571D01*
X110973428Y-143426571D01*
X177365765Y-73426765D02*
X177222908Y-73855336D01*
X177222908Y-74569622D01*
X177365765Y-74855336D01*
X177508622Y-74998193D01*
X177794336Y-75141051D01*
X178080051Y-75141051D01*
X178365765Y-74998193D01*
X178508622Y-74855336D01*
X178651479Y-74569622D01*
X178794336Y-73998193D01*
X178937193Y-73712479D01*
X179080051Y-73569622D01*
X179365765Y-73426765D01*
X179651479Y-73426765D01*
X179937193Y-73569622D01*
X180080051Y-73712479D01*
X180222908Y-73998193D01*
X180222908Y-74712479D01*
X180080051Y-75141051D01*
X179222908Y-75998193D02*
X179222908Y-77141051D01*
X180222908Y-76426765D02*
X177651479Y-76426765D01*
X177365765Y-76569622D01*
X177222908Y-76855336D01*
X177222908Y-77141051D01*
X177365765Y-79283908D02*
X177222908Y-78998193D01*
X177222908Y-78426765D01*
X177365765Y-78141051D01*
X177651479Y-77998193D01*
X178794336Y-77998193D01*
X179080051Y-78141051D01*
X179222908Y-78426765D01*
X179222908Y-78998193D01*
X179080051Y-79283908D01*
X178794336Y-79426765D01*
X178508622Y-79426765D01*
X178222908Y-77998193D01*
X179222908Y-80426765D02*
X177222908Y-81141051D01*
X179222908Y-81855336D01*
X177365765Y-84141051D02*
X177222908Y-83855336D01*
X177222908Y-83283908D01*
X177365765Y-82998193D01*
X177651479Y-82855336D01*
X178794336Y-82855336D01*
X179080051Y-82998193D01*
X179222908Y-83283908D01*
X179222908Y-83855336D01*
X179080051Y-84141051D01*
X178794336Y-84283908D01*
X178508622Y-84283908D01*
X178222908Y-82855336D01*
X180222908Y-89141051D02*
X180222908Y-88569622D01*
X180080051Y-88283908D01*
X179937193Y-88141051D01*
X179508622Y-87855336D01*
X178937193Y-87712479D01*
X177794336Y-87712479D01*
X177508622Y-87855336D01*
X177365765Y-87998193D01*
X177222908Y-88283908D01*
X177222908Y-88855336D01*
X177365765Y-89141051D01*
X177508622Y-89283908D01*
X177794336Y-89426765D01*
X178508622Y-89426765D01*
X178794336Y-89283908D01*
X178937193Y-89141051D01*
X179080051Y-88855336D01*
X179080051Y-88283908D01*
X178937193Y-87998193D01*
X178794336Y-87855336D01*
X178508622Y-87712479D01*
X178937193Y-91141051D02*
X179080051Y-90855336D01*
X179222908Y-90712479D01*
X179508622Y-90569622D01*
X179651479Y-90569622D01*
X179937193Y-90712479D01*
X180080051Y-90855336D01*
X180222908Y-91141051D01*
X180222908Y-91712479D01*
X180080051Y-91998193D01*
X179937193Y-92141051D01*
X179651479Y-92283908D01*
X179508622Y-92283908D01*
X179222908Y-92141051D01*
X179080051Y-91998193D01*
X178937193Y-91712479D01*
X178937193Y-91141051D01*
X178794336Y-90855336D01*
X178651479Y-90712479D01*
X178365765Y-90569622D01*
X177794336Y-90569622D01*
X177508622Y-90712479D01*
X177365765Y-90855336D01*
X177222908Y-91141051D01*
X177222908Y-91712479D01*
X177365765Y-91998193D01*
X177508622Y-92141051D01*
X177794336Y-92283908D01*
X178365765Y-92283908D01*
X178651479Y-92141051D01*
X178794336Y-91998193D01*
X178937193Y-91712479D01*
X177222908Y-93569622D02*
X180222908Y-93569622D01*
X178365765Y-93855336D02*
X177222908Y-94712479D01*
X179222908Y-94712479D02*
X178080051Y-93569622D01*
X177222908Y-98283908D02*
X180222908Y-98283908D01*
X180222908Y-100283908D02*
X180222908Y-100855336D01*
X180080051Y-101141051D01*
X179794336Y-101426765D01*
X179222908Y-101569622D01*
X178222908Y-101569622D01*
X177651479Y-101426765D01*
X177365765Y-101141051D01*
X177222908Y-100855336D01*
X177222908Y-100283908D01*
X177365765Y-99998193D01*
X177651479Y-99712479D01*
X178222908Y-99569622D01*
X179222908Y-99569622D01*
X179794336Y-99712479D01*
X180080051Y-99998193D01*
X180222908Y-100283908D01*
X178794336Y-106141051D02*
X178651479Y-106569622D01*
X178508622Y-106712479D01*
X178222908Y-106855336D01*
X177794336Y-106855336D01*
X177508622Y-106712479D01*
X177365765Y-106569622D01*
X177222908Y-106283908D01*
X177222908Y-105141051D01*
X180222908Y-105141051D01*
X180222908Y-106141051D01*
X180080051Y-106426765D01*
X179937193Y-106569622D01*
X179651479Y-106712479D01*
X179365765Y-106712479D01*
X179080051Y-106569622D01*
X178937193Y-106426765D01*
X178794336Y-106141051D01*
X178794336Y-105141051D01*
X177222908Y-108569622D02*
X177365765Y-108283908D01*
X177508622Y-108141051D01*
X177794336Y-107998193D01*
X178651479Y-107998193D01*
X178937193Y-108141051D01*
X179080051Y-108283908D01*
X179222908Y-108569622D01*
X179222908Y-108998193D01*
X179080051Y-109283908D01*
X178937193Y-109426765D01*
X178651479Y-109569622D01*
X177794336Y-109569622D01*
X177508622Y-109426765D01*
X177365765Y-109283908D01*
X177222908Y-108998193D01*
X177222908Y-108569622D01*
X177222908Y-112141051D02*
X178794336Y-112141051D01*
X179080051Y-111998193D01*
X179222908Y-111712479D01*
X179222908Y-111141051D01*
X179080051Y-110855336D01*
X177365765Y-112141051D02*
X177222908Y-111855336D01*
X177222908Y-111141051D01*
X177365765Y-110855336D01*
X177651479Y-110712479D01*
X177937193Y-110712479D01*
X178222908Y-110855336D01*
X178365765Y-111141051D01*
X178365765Y-111855336D01*
X178508622Y-112141051D01*
X177222908Y-113569622D02*
X179222908Y-113569622D01*
X178651479Y-113569622D02*
X178937193Y-113712479D01*
X179080051Y-113855336D01*
X179222908Y-114141051D01*
X179222908Y-114426765D01*
X177222908Y-116712479D02*
X180222908Y-116712479D01*
X177365765Y-116712479D02*
X177222908Y-116426765D01*
X177222908Y-115855336D01*
X177365765Y-115569622D01*
X177508622Y-115426765D01*
X177794336Y-115283908D01*
X178651479Y-115283908D01*
X178937193Y-115426765D01*
X179080051Y-115569622D01*
X179222908Y-115855336D01*
X179222908Y-116426765D01*
X179080051Y-116712479D01*
D11*
%TO.C,J6*%
X132000666Y-120551380D02*
X132000666Y-121265666D01*
X131953047Y-121408523D01*
X131857809Y-121503761D01*
X131714952Y-121551380D01*
X131619714Y-121551380D01*
X132905428Y-120551380D02*
X132714952Y-120551380D01*
X132619714Y-120599000D01*
X132572095Y-120646619D01*
X132476857Y-120789476D01*
X132429238Y-120979952D01*
X132429238Y-121360904D01*
X132476857Y-121456142D01*
X132524476Y-121503761D01*
X132619714Y-121551380D01*
X132810190Y-121551380D01*
X132905428Y-121503761D01*
X132953047Y-121456142D01*
X133000666Y-121360904D01*
X133000666Y-121122809D01*
X132953047Y-121027571D01*
X132905428Y-120979952D01*
X132810190Y-120932333D01*
X132619714Y-120932333D01*
X132524476Y-120979952D01*
X132476857Y-121027571D01*
X132429238Y-121122809D01*
%TO.C,J5*%
X132000666Y-94658380D02*
X132000666Y-95372666D01*
X131953047Y-95515523D01*
X131857809Y-95610761D01*
X131714952Y-95658380D01*
X131619714Y-95658380D01*
X132953047Y-94658380D02*
X132476857Y-94658380D01*
X132429238Y-95134571D01*
X132476857Y-95086952D01*
X132572095Y-95039333D01*
X132810190Y-95039333D01*
X132905428Y-95086952D01*
X132953047Y-95134571D01*
X133000666Y-95229809D01*
X133000666Y-95467904D01*
X132953047Y-95563142D01*
X132905428Y-95610761D01*
X132810190Y-95658380D01*
X132572095Y-95658380D01*
X132476857Y-95610761D01*
X132429238Y-95563142D01*
%TO.C,J4*%
X170608666Y-79428380D02*
X170608666Y-80142666D01*
X170561047Y-80285523D01*
X170465809Y-80380761D01*
X170322952Y-80428380D01*
X170227714Y-80428380D01*
X171513428Y-79761714D02*
X171513428Y-80428380D01*
X171275333Y-79380761D02*
X171037238Y-80095047D01*
X171656285Y-80095047D01*
%TO.C,J3*%
X143934380Y-71707333D02*
X144648666Y-71707333D01*
X144791523Y-71754952D01*
X144886761Y-71850190D01*
X144934380Y-71993047D01*
X144934380Y-72088285D01*
X143934380Y-71326380D02*
X143934380Y-70707333D01*
X144315333Y-71040666D01*
X144315333Y-70897809D01*
X144362952Y-70802571D01*
X144410571Y-70754952D01*
X144505809Y-70707333D01*
X144743904Y-70707333D01*
X144839142Y-70754952D01*
X144886761Y-70802571D01*
X144934380Y-70897809D01*
X144934380Y-71183523D01*
X144886761Y-71278761D01*
X144839142Y-71326380D01*
%TO.C,J2*%
X161294380Y-119967333D02*
X162008666Y-119967333D01*
X162151523Y-120014952D01*
X162246761Y-120110190D01*
X162294380Y-120253047D01*
X162294380Y-120348285D01*
X161389619Y-119538761D02*
X161342000Y-119491142D01*
X161294380Y-119395904D01*
X161294380Y-119157809D01*
X161342000Y-119062571D01*
X161389619Y-119014952D01*
X161484857Y-118967333D01*
X161580095Y-118967333D01*
X161722952Y-119014952D01*
X162294380Y-119586380D01*
X162294380Y-118967333D01*
%TO.C,C4*%
X132421333Y-63335142D02*
X132373714Y-63382761D01*
X132230857Y-63430380D01*
X132135619Y-63430380D01*
X131992761Y-63382761D01*
X131897523Y-63287523D01*
X131849904Y-63192285D01*
X131802285Y-63001809D01*
X131802285Y-62858952D01*
X131849904Y-62668476D01*
X131897523Y-62573238D01*
X131992761Y-62478000D01*
X132135619Y-62430380D01*
X132230857Y-62430380D01*
X132373714Y-62478000D01*
X132421333Y-62525619D01*
X133278476Y-62763714D02*
X133278476Y-63430380D01*
X133040380Y-62382761D02*
X132802285Y-63097047D01*
X133421333Y-63097047D01*
%TO.C,C3*%
X132421333Y-82131142D02*
X132373714Y-82178761D01*
X132230857Y-82226380D01*
X132135619Y-82226380D01*
X131992761Y-82178761D01*
X131897523Y-82083523D01*
X131849904Y-81988285D01*
X131802285Y-81797809D01*
X131802285Y-81654952D01*
X131849904Y-81464476D01*
X131897523Y-81369238D01*
X131992761Y-81274000D01*
X132135619Y-81226380D01*
X132230857Y-81226380D01*
X132373714Y-81274000D01*
X132421333Y-81321619D01*
X132754666Y-81226380D02*
X133373714Y-81226380D01*
X133040380Y-81607333D01*
X133183238Y-81607333D01*
X133278476Y-81654952D01*
X133326095Y-81702571D01*
X133373714Y-81797809D01*
X133373714Y-82035904D01*
X133326095Y-82131142D01*
X133278476Y-82178761D01*
X133183238Y-82226380D01*
X132897523Y-82226380D01*
X132802285Y-82178761D01*
X132754666Y-82131142D01*
%TO.C,Q1*%
X136660619Y-74761238D02*
X136613000Y-74856476D01*
X136517761Y-74951714D01*
X136374904Y-75094571D01*
X136327285Y-75189809D01*
X136327285Y-75285047D01*
X136565380Y-75237428D02*
X136517761Y-75332666D01*
X136422523Y-75427904D01*
X136232047Y-75475523D01*
X135898714Y-75475523D01*
X135708238Y-75427904D01*
X135613000Y-75332666D01*
X135565380Y-75237428D01*
X135565380Y-75046952D01*
X135613000Y-74951714D01*
X135708238Y-74856476D01*
X135898714Y-74808857D01*
X136232047Y-74808857D01*
X136422523Y-74856476D01*
X136517761Y-74951714D01*
X136565380Y-75046952D01*
X136565380Y-75237428D01*
X136565380Y-73856476D02*
X136565380Y-74427904D01*
X136565380Y-74142190D02*
X135565380Y-74142190D01*
X135708238Y-74237428D01*
X135803476Y-74332666D01*
X135851095Y-74427904D01*
%TO.C,J1*%
X82965766Y-136238480D02*
X82965766Y-136952766D01*
X82918147Y-137095623D01*
X82822909Y-137190861D01*
X82680052Y-137238480D01*
X82584814Y-137238480D01*
X83965766Y-137238480D02*
X83394338Y-137238480D01*
X83680052Y-137238480D02*
X83680052Y-136238480D01*
X83584814Y-136381338D01*
X83489576Y-136476576D01*
X83394338Y-136524195D01*
%TO.C,C2*%
X114641333Y-108547142D02*
X114593714Y-108594761D01*
X114450857Y-108642380D01*
X114355619Y-108642380D01*
X114212761Y-108594761D01*
X114117523Y-108499523D01*
X114069904Y-108404285D01*
X114022285Y-108213809D01*
X114022285Y-108070952D01*
X114069904Y-107880476D01*
X114117523Y-107785238D01*
X114212761Y-107690000D01*
X114355619Y-107642380D01*
X114450857Y-107642380D01*
X114593714Y-107690000D01*
X114641333Y-107737619D01*
X115022285Y-107737619D02*
X115069904Y-107690000D01*
X115165142Y-107642380D01*
X115403238Y-107642380D01*
X115498476Y-107690000D01*
X115546095Y-107737619D01*
X115593714Y-107832857D01*
X115593714Y-107928095D01*
X115546095Y-108070952D01*
X114974666Y-108642380D01*
X115593714Y-108642380D01*
%TO.C,U2*%
X113284095Y-52240380D02*
X113284095Y-53049904D01*
X113331714Y-53145142D01*
X113379333Y-53192761D01*
X113474571Y-53240380D01*
X113665047Y-53240380D01*
X113760285Y-53192761D01*
X113807904Y-53145142D01*
X113855523Y-53049904D01*
X113855523Y-52240380D01*
X114284095Y-52335619D02*
X114331714Y-52288000D01*
X114426952Y-52240380D01*
X114665047Y-52240380D01*
X114760285Y-52288000D01*
X114807904Y-52335619D01*
X114855523Y-52430857D01*
X114855523Y-52526095D01*
X114807904Y-52668952D01*
X114236476Y-53240380D01*
X114855523Y-53240380D01*
%TO.C,U1*%
X114046095Y-112184380D02*
X114046095Y-112993904D01*
X114093714Y-113089142D01*
X114141333Y-113136761D01*
X114236571Y-113184380D01*
X114427047Y-113184380D01*
X114522285Y-113136761D01*
X114569904Y-113089142D01*
X114617523Y-112993904D01*
X114617523Y-112184380D01*
X115617523Y-113184380D02*
X115046095Y-113184380D01*
X115331809Y-113184380D02*
X115331809Y-112184380D01*
X115236571Y-112327238D01*
X115141333Y-112422476D01*
X115046095Y-112470095D01*
%TO.C,C1*%
X113879333Y-48603142D02*
X113831714Y-48650761D01*
X113688857Y-48698380D01*
X113593619Y-48698380D01*
X113450761Y-48650761D01*
X113355523Y-48555523D01*
X113307904Y-48460285D01*
X113260285Y-48269809D01*
X113260285Y-48126952D01*
X113307904Y-47936476D01*
X113355523Y-47841238D01*
X113450761Y-47746000D01*
X113593619Y-47698380D01*
X113688857Y-47698380D01*
X113831714Y-47746000D01*
X113879333Y-47793619D01*
X114831714Y-48698380D02*
X114260285Y-48698380D01*
X114546000Y-48698380D02*
X114546000Y-47698380D01*
X114450761Y-47841238D01*
X114355523Y-47936476D01*
X114260285Y-47984095D01*
D12*
%TO.C,J6*%
X131004000Y-124699000D02*
X131004000Y-137459000D01*
X131004000Y-123429000D02*
X131004000Y-122099000D01*
X131004000Y-122099000D02*
X132334000Y-122099000D01*
X131004000Y-124699000D02*
X133664000Y-124699000D01*
X131004000Y-137459000D02*
X133664000Y-137459000D01*
X133664000Y-124699000D02*
X133664000Y-137459000D01*
%TO.C,J5*%
X131004000Y-98806000D02*
X133664000Y-98806000D01*
X131004000Y-116646000D02*
X133664000Y-116646000D01*
X131004000Y-98806000D02*
X131004000Y-116646000D01*
X131004000Y-97536000D02*
X131004000Y-96206000D01*
X133664000Y-98806000D02*
X133664000Y-116646000D01*
X131004000Y-96206000D02*
X132334000Y-96206000D01*
%TO.C,J4*%
X169612000Y-82306000D02*
X169612000Y-80976000D01*
X169612000Y-83576000D02*
X169612000Y-103956000D01*
X172272000Y-83576000D02*
X172272000Y-103956000D01*
X169612000Y-83576000D02*
X172272000Y-83576000D01*
X169612000Y-103956000D02*
X172272000Y-103956000D01*
X169612000Y-80976000D02*
X170942000Y-80976000D01*
%TO.C,J3*%
X148082000Y-70044000D02*
X160842000Y-70044000D01*
X160842000Y-72704000D02*
X160842000Y-70044000D01*
X148082000Y-72704000D02*
X148082000Y-70044000D01*
X145482000Y-72704000D02*
X145482000Y-71374000D01*
X146812000Y-72704000D02*
X145482000Y-72704000D01*
X148082000Y-72704000D02*
X160842000Y-72704000D01*
%TO.C,J2*%
X158242000Y-118304000D02*
X145482000Y-118304000D01*
X159512000Y-118304000D02*
X160842000Y-118304000D01*
X160842000Y-118304000D02*
X160842000Y-119634000D01*
X158242000Y-118304000D02*
X158242000Y-120964000D01*
X145482000Y-118304000D02*
X145482000Y-120964000D01*
X158242000Y-120964000D02*
X145482000Y-120964000D01*
%TO.C,C4*%
X130768000Y-64108000D02*
X134408000Y-64108000D01*
X130768000Y-66448000D02*
X134408000Y-66448000D01*
X130768000Y-66203000D02*
X130768000Y-66448000D01*
X134408000Y-66203000D02*
X134408000Y-66448000D01*
X134408000Y-64108000D02*
X134408000Y-64353000D01*
X130768000Y-64108000D02*
X130768000Y-64353000D01*
%TO.C,C3*%
X130768000Y-82904000D02*
X134408000Y-82904000D01*
X130768000Y-85244000D02*
X134408000Y-85244000D01*
X130768000Y-84999000D02*
X130768000Y-85244000D01*
X134408000Y-84999000D02*
X134408000Y-85244000D01*
X134408000Y-82904000D02*
X134408000Y-83149000D01*
X130768000Y-82904000D02*
X130768000Y-83149000D01*
%TO.C,Q1*%
X135113000Y-71466000D02*
X135113000Y-77866000D01*
X130063000Y-71466000D02*
X130063000Y-77866000D01*
X135113000Y-71466000D02*
G75*
G03*
X130063000Y-71466000I-2525000J0D01*
G01*
X130063000Y-77866000D02*
G75*
G03*
X135113000Y-77866000I2525000J0D01*
G01*
%TO.C,J1*%
X87911171Y-79016100D02*
X87457029Y-79016100D01*
X76314100Y-129816100D02*
X76314100Y-129056100D01*
X84974100Y-54446100D02*
X82314100Y-54446100D01*
X76314100Y-61236100D02*
X76314100Y-60476100D01*
X85371171Y-106196100D02*
X84974100Y-106196100D01*
X82314100Y-135846100D02*
X84974100Y-135846100D01*
X87911171Y-68096100D02*
X87457029Y-68096100D01*
X87911171Y-119656100D02*
X87457029Y-119656100D01*
X76314100Y-134136100D02*
X82314100Y-134136100D01*
X85371171Y-61236100D02*
X84974100Y-61236100D01*
X85371171Y-70636100D02*
X84974100Y-70636100D01*
X76314100Y-79016100D02*
X76314100Y-78256100D01*
X85371171Y-88416100D02*
X84974100Y-88416100D01*
X85371171Y-103656100D02*
X84974100Y-103656100D01*
X84974100Y-123086100D02*
X82314100Y-123086100D01*
X85371171Y-66316100D02*
X84974100Y-66316100D01*
X87911171Y-55396100D02*
X87457029Y-55396100D01*
X76314100Y-101876100D02*
X76314100Y-101116100D01*
X87911171Y-91716100D02*
X87457029Y-91716100D01*
X87844100Y-134896100D02*
X87457029Y-134896100D01*
X82314100Y-66316100D02*
X76314100Y-66316100D01*
X76314100Y-66316100D02*
X76314100Y-65556100D01*
X87911171Y-101876100D02*
X87457029Y-101876100D01*
X84974100Y-62126100D02*
X82314100Y-62126100D01*
X82314100Y-56156100D02*
X76314100Y-56156100D01*
X76314100Y-116356100D02*
X82314100Y-116356100D01*
X82314100Y-96796100D02*
X76314100Y-96796100D01*
X76314100Y-123976100D02*
X82314100Y-123976100D01*
X76314100Y-84096100D02*
X76314100Y-83336100D01*
X84974100Y-100226100D02*
X82314100Y-100226100D01*
X87911171Y-123976100D02*
X87457029Y-123976100D01*
X85371171Y-111276100D02*
X84974100Y-111276100D01*
X76314100Y-103656100D02*
X82314100Y-103656100D01*
X87911171Y-75716100D02*
X87457029Y-75716100D01*
X76314100Y-86636100D02*
X76314100Y-85876100D01*
X82314100Y-134476100D02*
X76314100Y-134476100D01*
X76314100Y-119656100D02*
X76314100Y-118896100D01*
X82314100Y-71396100D02*
X76314100Y-71396100D01*
X84974100Y-82446100D02*
X82314100Y-82446100D01*
X85371171Y-58696100D02*
X84974100Y-58696100D01*
X82314100Y-94256100D02*
X76314100Y-94256100D01*
X82314100Y-117116100D02*
X76314100Y-117116100D01*
X85371171Y-116356100D02*
X84974100Y-116356100D01*
X87911171Y-63016100D02*
X87457029Y-63016100D01*
X87911171Y-73176100D02*
X87457029Y-73176100D01*
X87911171Y-85876100D02*
X87457029Y-85876100D01*
X82314100Y-129816100D02*
X76314100Y-129816100D01*
X82314100Y-132356100D02*
X76314100Y-132356100D01*
X85371171Y-122196100D02*
X84974100Y-122196100D01*
X82314100Y-61236100D02*
X76314100Y-61236100D01*
X82314100Y-84096100D02*
X76314100Y-84096100D01*
X85371171Y-84096100D02*
X84974100Y-84096100D01*
X87911171Y-103656100D02*
X87457029Y-103656100D01*
X82314100Y-119656100D02*
X76314100Y-119656100D01*
X82314100Y-73936100D02*
X76314100Y-73936100D01*
X87911171Y-81556100D02*
X87457029Y-81556100D01*
X76314100Y-104416100D02*
X76314100Y-103656100D01*
X84974100Y-95146100D02*
X82314100Y-95146100D01*
X85371171Y-126516100D02*
X84974100Y-126516100D01*
X87911171Y-58696100D02*
X87457029Y-58696100D01*
X84974100Y-67206100D02*
X82314100Y-67206100D01*
X87911171Y-63776100D02*
X87457029Y-63776100D01*
X76314100Y-99336100D02*
X76314100Y-98576100D01*
X87911171Y-93496100D02*
X87457029Y-93496100D01*
X76314100Y-57936100D02*
X82314100Y-57936100D01*
X76314100Y-85876100D02*
X82314100Y-85876100D01*
X90224100Y-135786100D02*
X88954100Y-135786100D01*
X76314100Y-93496100D02*
X82314100Y-93496100D01*
X87911171Y-126516100D02*
X87457029Y-126516100D01*
X87911171Y-88416100D02*
X87457029Y-88416100D01*
X87911171Y-129816100D02*
X87457029Y-129816100D01*
X76314100Y-73936100D02*
X76314100Y-73176100D01*
X87911171Y-113816100D02*
X87457029Y-113816100D01*
X82314100Y-127276100D02*
X76314100Y-127276100D01*
X87911171Y-96036100D02*
X87457029Y-96036100D01*
X85371171Y-68856100D02*
X84974100Y-68856100D01*
X87911171Y-129056100D02*
X87457029Y-129056100D01*
X76314100Y-80796100D02*
X82314100Y-80796100D01*
X76314100Y-76476100D02*
X76314100Y-75716100D01*
X87911171Y-106196100D02*
X87457029Y-106196100D01*
X87911171Y-70636100D02*
X87457029Y-70636100D01*
X85371171Y-129056100D02*
X84974100Y-129056100D01*
X87911171Y-101116100D02*
X87457029Y-101116100D01*
X87911171Y-132356100D02*
X87457029Y-132356100D01*
X76314100Y-63016100D02*
X82314100Y-63016100D01*
X84974100Y-64666100D02*
X82314100Y-64666100D01*
X82314100Y-63776100D02*
X76314100Y-63776100D01*
X76314100Y-88416100D02*
X82314100Y-88416100D01*
X76314100Y-96036100D02*
X82314100Y-96036100D01*
X76314100Y-106196100D02*
X82314100Y-106196100D01*
X84974100Y-72286100D02*
X82314100Y-72286100D01*
X84974100Y-128166100D02*
X82314100Y-128166100D01*
X85371171Y-75716100D02*
X84974100Y-75716100D01*
X87911171Y-56156100D02*
X87457029Y-56156100D01*
X82314100Y-124736100D02*
X76314100Y-124736100D01*
X76314100Y-132356100D02*
X76314100Y-131596100D01*
X87911171Y-99336100D02*
X87457029Y-99336100D01*
X84974100Y-57046100D02*
X82314100Y-57046100D01*
X85371171Y-68096100D02*
X84974100Y-68096100D01*
X85371171Y-60476100D02*
X84974100Y-60476100D01*
X85371171Y-113816100D02*
X84974100Y-113816100D01*
X85371171Y-55396100D02*
X84974100Y-55396100D01*
X85371171Y-119656100D02*
X84974100Y-119656100D01*
X84974100Y-87526100D02*
X82314100Y-87526100D01*
X87911171Y-83336100D02*
X87457029Y-83336100D01*
X85371171Y-91716100D02*
X84974100Y-91716100D01*
X84974100Y-102766100D02*
X82314100Y-102766100D01*
X76314100Y-81556100D02*
X76314100Y-80796100D01*
X76314100Y-55396100D02*
X82314100Y-55396100D01*
X84974100Y-92606100D02*
X82314100Y-92606100D01*
X85371171Y-127276100D02*
X84974100Y-127276100D01*
X87911171Y-111276100D02*
X87457029Y-111276100D01*
X82314100Y-134236100D02*
X76314100Y-134236100D01*
X76314100Y-118896100D02*
X82314100Y-118896100D01*
X84974100Y-84986100D02*
X82314100Y-84986100D01*
X85371171Y-76476100D02*
X84974100Y-76476100D01*
X87911171Y-127276100D02*
X87457029Y-127276100D01*
X82314100Y-114576100D02*
X76314100Y-114576100D01*
X87911171Y-68856100D02*
X87457029Y-68856100D01*
X76314100Y-91716100D02*
X76314100Y-90956100D01*
X76314100Y-75716100D02*
X82314100Y-75716100D01*
X82314100Y-58696100D02*
X76314100Y-58696100D01*
X87911171Y-122196100D02*
X87457029Y-122196100D01*
X76314100Y-113816100D02*
X82314100Y-113816100D01*
X85371171Y-85876100D02*
X84974100Y-85876100D01*
X87911171Y-116356100D02*
X87457029Y-116356100D01*
X76314100Y-126516100D02*
X82314100Y-126516100D01*
X85371171Y-86636100D02*
X84974100Y-86636100D01*
X84974100Y-115466100D02*
X82314100Y-115466100D01*
X82314100Y-134896100D02*
X76314100Y-134896100D01*
X87911171Y-121436100D02*
X87457029Y-121436100D01*
X87911171Y-60476100D02*
X87457029Y-60476100D01*
X76314100Y-121436100D02*
X82314100Y-121436100D01*
X85371171Y-83336100D02*
X84974100Y-83336100D01*
X84974100Y-112926100D02*
X82314100Y-112926100D01*
X76314100Y-96796100D02*
X76314100Y-96036100D01*
X87911171Y-71396100D02*
X87457029Y-71396100D01*
X76314100Y-89176100D02*
X76314100Y-88416100D01*
X87911171Y-131596100D02*
X87457029Y-131596100D01*
X85371171Y-81556100D02*
X84974100Y-81556100D01*
X85371171Y-101116100D02*
X84974100Y-101116100D01*
X76314100Y-108736100D02*
X82314100Y-108736100D01*
X85371171Y-101876100D02*
X84974100Y-101876100D01*
X87911171Y-96796100D02*
X87457029Y-96796100D01*
X87911171Y-89176100D02*
X87457029Y-89176100D01*
X76314100Y-109496100D02*
X76314100Y-108736100D01*
X76314100Y-106956100D02*
X76314100Y-106196100D01*
X84974100Y-125626100D02*
X82314100Y-125626100D01*
X76314100Y-68856100D02*
X76314100Y-68096100D01*
X84974100Y-74826100D02*
X82314100Y-74826100D01*
X85371171Y-123976100D02*
X84974100Y-123976100D01*
X85371171Y-65556100D02*
X84974100Y-65556100D01*
X82314100Y-68856100D02*
X76314100Y-68856100D01*
X87911171Y-76476100D02*
X87457029Y-76476100D01*
X85371171Y-63776100D02*
X84974100Y-63776100D01*
X85371171Y-112036100D02*
X84974100Y-112036100D01*
X76314100Y-56156100D02*
X76314100Y-55396100D01*
X85371171Y-98576100D02*
X84974100Y-98576100D01*
X85371171Y-134896100D02*
X84974100Y-134896100D01*
X85371171Y-90956100D02*
X84974100Y-90956100D01*
X76314100Y-124736100D02*
X76314100Y-123976100D01*
X84974100Y-69746100D02*
X82314100Y-69746100D01*
X85371171Y-134136100D02*
X84974100Y-134136100D01*
X85371171Y-96796100D02*
X84974100Y-96796100D01*
X87844100Y-134136100D02*
X87457029Y-134136100D01*
X85371171Y-131596100D02*
X84974100Y-131596100D01*
X85371171Y-118896100D02*
X84974100Y-118896100D01*
X87911171Y-90956100D02*
X87457029Y-90956100D01*
X76314100Y-83336100D02*
X82314100Y-83336100D01*
X87911171Y-117116100D02*
X87457029Y-117116100D01*
X87911171Y-118896100D02*
X87457029Y-118896100D01*
X82314100Y-134716100D02*
X76314100Y-134716100D01*
X85371171Y-109496100D02*
X84974100Y-109496100D01*
X76314100Y-129056100D02*
X82314100Y-129056100D01*
X82314100Y-104416100D02*
X76314100Y-104416100D01*
X87911171Y-94256100D02*
X87457029Y-94256100D01*
X87911171Y-114576100D02*
X87457029Y-114576100D01*
X85371171Y-129816100D02*
X84974100Y-129816100D01*
X87911171Y-108736100D02*
X87457029Y-108736100D01*
X76314100Y-73176100D02*
X82314100Y-73176100D01*
X85371171Y-108736100D02*
X84974100Y-108736100D01*
X85371171Y-104416100D02*
X84974100Y-104416100D01*
X76314100Y-114576100D02*
X76314100Y-113816100D01*
X82314100Y-81556100D02*
X76314100Y-81556100D01*
X84974100Y-97686100D02*
X82314100Y-97686100D01*
X84974100Y-118006100D02*
X82314100Y-118006100D01*
X76314100Y-101116100D02*
X82314100Y-101116100D01*
X85371171Y-56156100D02*
X84974100Y-56156100D01*
X87911171Y-61236100D02*
X87457029Y-61236100D01*
X87911171Y-86636100D02*
X87457029Y-86636100D01*
X85371171Y-93496100D02*
X84974100Y-93496100D01*
X84974100Y-107846100D02*
X82314100Y-107846100D01*
X76314100Y-71396100D02*
X76314100Y-70636100D01*
X87911171Y-98576100D02*
X87457029Y-98576100D01*
X76314100Y-131596100D02*
X82314100Y-131596100D01*
X84974100Y-135846100D02*
X84974100Y-54446100D01*
X85371171Y-124736100D02*
X84974100Y-124736100D01*
X85371171Y-73936100D02*
X84974100Y-73936100D01*
X76314100Y-70636100D02*
X82314100Y-70636100D01*
X76314100Y-127276100D02*
X76314100Y-126516100D01*
X85371171Y-117116100D02*
X84974100Y-117116100D01*
X82314100Y-54446100D02*
X82314100Y-135846100D01*
X84974100Y-90066100D02*
X82314100Y-90066100D01*
X76314100Y-65556100D02*
X82314100Y-65556100D01*
X85371171Y-78256100D02*
X84974100Y-78256100D01*
X76314100Y-134896100D02*
X76314100Y-134136100D01*
X87911171Y-80796100D02*
X87457029Y-80796100D01*
X76314100Y-90956100D02*
X82314100Y-90956100D01*
X76314100Y-63776100D02*
X76314100Y-63016100D01*
X85371171Y-89176100D02*
X84974100Y-89176100D01*
X82314100Y-134356100D02*
X76314100Y-134356100D01*
X82314100Y-134596100D02*
X76314100Y-134596100D01*
X76314100Y-98576100D02*
X82314100Y-98576100D01*
X85371171Y-94256100D02*
X84974100Y-94256100D01*
X87911171Y-104416100D02*
X87457029Y-104416100D01*
X85371171Y-132356100D02*
X84974100Y-132356100D01*
X85371171Y-114576100D02*
X84974100Y-114576100D01*
X82314100Y-89176100D02*
X76314100Y-89176100D01*
X87911171Y-73936100D02*
X87457029Y-73936100D01*
X84974100Y-105306100D02*
X82314100Y-105306100D01*
X87911171Y-109496100D02*
X87457029Y-109496100D01*
X82314100Y-76476100D02*
X76314100Y-76476100D01*
X85371171Y-121436100D02*
X84974100Y-121436100D01*
X84974100Y-79906100D02*
X82314100Y-79906100D01*
X82314100Y-106956100D02*
X76314100Y-106956100D01*
X85371171Y-106956100D02*
X84974100Y-106956100D01*
X76314100Y-58696100D02*
X76314100Y-57936100D01*
X76314100Y-112036100D02*
X76314100Y-111276100D01*
X76314100Y-78256100D02*
X82314100Y-78256100D01*
X90224100Y-134516100D02*
X90224100Y-135786100D01*
X85371171Y-73176100D02*
X84974100Y-73176100D01*
X87911171Y-106956100D02*
X87457029Y-106956100D01*
X76314100Y-117116100D02*
X76314100Y-116356100D01*
X82314100Y-86636100D02*
X76314100Y-86636100D01*
X85371171Y-80796100D02*
X84974100Y-80796100D01*
X76314100Y-68096100D02*
X82314100Y-68096100D01*
X87911171Y-57936100D02*
X87457029Y-57936100D01*
X82314100Y-109496100D02*
X76314100Y-109496100D01*
X84974100Y-59586100D02*
X82314100Y-59586100D01*
X76314100Y-60476100D02*
X82314100Y-60476100D01*
X76314100Y-122196100D02*
X76314100Y-121436100D01*
X76314100Y-111276100D02*
X82314100Y-111276100D01*
X76314100Y-94256100D02*
X76314100Y-93496100D01*
X82314100Y-112036100D02*
X76314100Y-112036100D01*
X84974100Y-130706100D02*
X82314100Y-130706100D01*
X85371171Y-71396100D02*
X84974100Y-71396100D01*
X82314100Y-101876100D02*
X76314100Y-101876100D01*
X85371171Y-57936100D02*
X84974100Y-57936100D01*
X87911171Y-66316100D02*
X87457029Y-66316100D01*
X85371171Y-63016100D02*
X84974100Y-63016100D01*
X87911171Y-78256100D02*
X87457029Y-78256100D01*
X87911171Y-124736100D02*
X87457029Y-124736100D01*
X82314100Y-122196100D02*
X76314100Y-122196100D01*
X82314100Y-79016100D02*
X76314100Y-79016100D01*
X85371171Y-96036100D02*
X84974100Y-96036100D01*
X84974100Y-110386100D02*
X82314100Y-110386100D01*
X84974100Y-133246100D02*
X82314100Y-133246100D01*
X85371171Y-79016100D02*
X84974100Y-79016100D01*
X87911171Y-65556100D02*
X87457029Y-65556100D01*
X82314100Y-99336100D02*
X76314100Y-99336100D01*
X84974100Y-120546100D02*
X82314100Y-120546100D01*
X87911171Y-84096100D02*
X87457029Y-84096100D01*
X85371171Y-99336100D02*
X84974100Y-99336100D01*
X87911171Y-112036100D02*
X87457029Y-112036100D01*
X84974100Y-77366100D02*
X82314100Y-77366100D01*
X82314100Y-91716100D02*
X76314100Y-91716100D01*
X82314100Y-134836100D02*
X76314100Y-134836100D01*
%TO.C,C2*%
X112988000Y-109320000D02*
X116628000Y-109320000D01*
X112988000Y-111660000D02*
X116628000Y-111660000D01*
X116628000Y-111415000D02*
X116628000Y-111660000D01*
X112988000Y-111415000D02*
X112988000Y-111660000D01*
X112988000Y-109320000D02*
X112988000Y-109565000D01*
X116628000Y-109320000D02*
X116628000Y-109565000D01*
%TO.C,U2*%
X107986000Y-53788000D02*
X107986000Y-104708000D01*
X113046000Y-53788000D02*
X107986000Y-53788000D01*
X107986000Y-104708000D02*
X120106000Y-104708000D01*
X120106000Y-53788000D02*
X115046000Y-53788000D01*
X123106000Y-53728000D02*
X104986000Y-53728000D01*
X104986000Y-53728000D02*
X104986000Y-104768000D01*
X123106000Y-104768000D02*
X123106000Y-53728000D01*
X104986000Y-104768000D02*
X123106000Y-104768000D01*
X120106000Y-104708000D02*
X120106000Y-53788000D01*
X113046000Y-53788000D02*
G75*
G03*
X115046000Y-53788000I1000000J0D01*
G01*
%TO.C,U1*%
X112558000Y-113732000D02*
X112558000Y-139252000D01*
X109558000Y-113672000D02*
X109558000Y-139312000D01*
X117058000Y-139252000D02*
X117058000Y-113732000D01*
X113808000Y-113732000D02*
X112558000Y-113732000D01*
X109558000Y-139312000D02*
X120058000Y-139312000D01*
X120058000Y-113672000D02*
X109558000Y-113672000D01*
X117058000Y-113732000D02*
X115808000Y-113732000D01*
X112558000Y-139252000D02*
X117058000Y-139252000D01*
X120058000Y-139312000D02*
X120058000Y-113672000D01*
X113808000Y-113732000D02*
G75*
G03*
X115808000Y-113732000I1000000J0D01*
G01*
%TO.C,C1*%
X112226000Y-51471000D02*
X112226000Y-51716000D01*
X112226000Y-49376000D02*
X115866000Y-49376000D01*
X115866000Y-49376000D02*
X115866000Y-49621000D01*
X115866000Y-51471000D02*
X115866000Y-51716000D01*
X112226000Y-51716000D02*
X115866000Y-51716000D01*
X112226000Y-49376000D02*
X112226000Y-49621000D01*
%TD*%
M02*
