%TF.GenerationSoftware,KiCad,Pcbnew,(6.0.2)*%
%TF.CreationDate,2022-11-06T15:29:19-08:00*%
%TF.ProjectId,IO Board,494f2042-6f61-4726-942e-6b696361645f,rev?*%
%TF.SameCoordinates,Original*%
%TF.FileFunction,Legend,Top*%
%TF.FilePolarity,Positive*%
%FSLAX46Y46*%
G04 Gerber Fmt 4.6, Leading zero omitted, Abs format (unit mm)*
G04 Created by KiCad (PCBNEW (6.0.2)) date 2022-11-06 15:29:19*
%MOMM*%
%LPD*%
G01*
G04 APERTURE LIST*
%ADD10C,0.300000*%
%ADD11C,0.250000*%
%ADD12C,0.150000*%
%ADD13C,0.120650*%
%ADD14C,0.120000*%
%ADD15C,0.152400*%
G04 APERTURE END LIST*
D10*
X156813714Y-72330571D02*
X156813714Y-73544857D01*
X156885142Y-73687714D01*
X156956571Y-73759142D01*
X157099428Y-73830571D01*
X157385142Y-73830571D01*
X157528000Y-73759142D01*
X157599428Y-73687714D01*
X157670857Y-73544857D01*
X157670857Y-72330571D01*
X158313714Y-73402000D02*
X159028000Y-73402000D01*
X158170857Y-73830571D02*
X158670857Y-72330571D01*
X159170857Y-73830571D01*
X160528000Y-73830571D02*
X160028000Y-73116285D01*
X159670857Y-73830571D02*
X159670857Y-72330571D01*
X160242285Y-72330571D01*
X160385142Y-72402000D01*
X160456571Y-72473428D01*
X160528000Y-72616285D01*
X160528000Y-72830571D01*
X160456571Y-72973428D01*
X160385142Y-73044857D01*
X160242285Y-73116285D01*
X159670857Y-73116285D01*
X160956571Y-72330571D02*
X161813714Y-72330571D01*
X161385142Y-73830571D02*
X161385142Y-72330571D01*
X163956571Y-73044857D02*
X164170857Y-73116285D01*
X164242285Y-73187714D01*
X164313714Y-73330571D01*
X164313714Y-73544857D01*
X164242285Y-73687714D01*
X164170857Y-73759142D01*
X164028000Y-73830571D01*
X163456571Y-73830571D01*
X163456571Y-72330571D01*
X163956571Y-72330571D01*
X164099428Y-72402000D01*
X164170857Y-72473428D01*
X164242285Y-72616285D01*
X164242285Y-72759142D01*
X164170857Y-72902000D01*
X164099428Y-72973428D01*
X163956571Y-73044857D01*
X163456571Y-73044857D01*
X156666857Y-110938571D02*
X156666857Y-112152857D01*
X156738285Y-112295714D01*
X156809714Y-112367142D01*
X156952571Y-112438571D01*
X157238285Y-112438571D01*
X157381142Y-112367142D01*
X157452571Y-112295714D01*
X157524000Y-112152857D01*
X157524000Y-110938571D01*
X158166857Y-112010000D02*
X158881142Y-112010000D01*
X158024000Y-112438571D02*
X158524000Y-110938571D01*
X159024000Y-112438571D01*
X160381142Y-112438571D02*
X159881142Y-111724285D01*
X159524000Y-112438571D02*
X159524000Y-110938571D01*
X160095428Y-110938571D01*
X160238285Y-111010000D01*
X160309714Y-111081428D01*
X160381142Y-111224285D01*
X160381142Y-111438571D01*
X160309714Y-111581428D01*
X160238285Y-111652857D01*
X160095428Y-111724285D01*
X159524000Y-111724285D01*
X160809714Y-110938571D02*
X161666857Y-110938571D01*
X161238285Y-112438571D02*
X161238285Y-110938571D01*
X163238285Y-112010000D02*
X163952571Y-112010000D01*
X163095428Y-112438571D02*
X163595428Y-110938571D01*
X164095428Y-112438571D01*
D11*
X161388976Y-95416666D02*
X161865166Y-95416666D01*
X161293738Y-95702380D02*
X161627071Y-94702380D01*
X161960404Y-95702380D01*
X162246119Y-94797619D02*
X162293738Y-94750000D01*
X162388976Y-94702380D01*
X162627071Y-94702380D01*
X162722309Y-94750000D01*
X162769928Y-94797619D01*
X162817547Y-94892857D01*
X162817547Y-94988095D01*
X162769928Y-95130952D01*
X162198500Y-95702380D01*
X162817547Y-95702380D01*
X163436595Y-94702380D02*
X163531833Y-94702380D01*
X163627071Y-94750000D01*
X163674690Y-94797619D01*
X163722309Y-94892857D01*
X163769928Y-95083333D01*
X163769928Y-95321428D01*
X163722309Y-95511904D01*
X163674690Y-95607142D01*
X163627071Y-95654761D01*
X163531833Y-95702380D01*
X163436595Y-95702380D01*
X163341357Y-95654761D01*
X163293738Y-95607142D01*
X163246119Y-95511904D01*
X163198500Y-95321428D01*
X163198500Y-95083333D01*
X163246119Y-94892857D01*
X163293738Y-94797619D01*
X163341357Y-94750000D01*
X163436595Y-94702380D01*
X161388976Y-97956666D02*
X161865166Y-97956666D01*
X161293738Y-98242380D02*
X161627071Y-97242380D01*
X161960404Y-98242380D01*
X162246119Y-97337619D02*
X162293738Y-97290000D01*
X162388976Y-97242380D01*
X162627071Y-97242380D01*
X162722309Y-97290000D01*
X162769928Y-97337619D01*
X162817547Y-97432857D01*
X162817547Y-97528095D01*
X162769928Y-97670952D01*
X162198500Y-98242380D01*
X162817547Y-98242380D01*
X163769928Y-98242380D02*
X163198500Y-98242380D01*
X163484214Y-98242380D02*
X163484214Y-97242380D01*
X163388976Y-97385238D01*
X163293738Y-97480476D01*
X163198500Y-97528095D01*
X161960404Y-104910000D02*
X161865166Y-104862380D01*
X161722309Y-104862380D01*
X161579452Y-104910000D01*
X161484214Y-105005238D01*
X161436595Y-105100476D01*
X161388976Y-105290952D01*
X161388976Y-105433809D01*
X161436595Y-105624285D01*
X161484214Y-105719523D01*
X161579452Y-105814761D01*
X161722309Y-105862380D01*
X161817547Y-105862380D01*
X161960404Y-105814761D01*
X162008023Y-105767142D01*
X162008023Y-105433809D01*
X161817547Y-105433809D01*
X162436595Y-105862380D02*
X162436595Y-104862380D01*
X163008023Y-105862380D01*
X163008023Y-104862380D01*
X163484214Y-105862380D02*
X163484214Y-104862380D01*
X163722309Y-104862380D01*
X163865166Y-104910000D01*
X163960404Y-105005238D01*
X164008023Y-105100476D01*
X164055642Y-105290952D01*
X164055642Y-105433809D01*
X164008023Y-105624285D01*
X163960404Y-105719523D01*
X163865166Y-105814761D01*
X163722309Y-105862380D01*
X163484214Y-105862380D01*
X161388976Y-103036666D02*
X161865166Y-103036666D01*
X161293738Y-103322380D02*
X161627071Y-102322380D01*
X161960404Y-103322380D01*
X162246119Y-102417619D02*
X162293738Y-102370000D01*
X162388976Y-102322380D01*
X162627071Y-102322380D01*
X162722309Y-102370000D01*
X162769928Y-102417619D01*
X162817547Y-102512857D01*
X162817547Y-102608095D01*
X162769928Y-102750952D01*
X162198500Y-103322380D01*
X162817547Y-103322380D01*
X163150880Y-102322380D02*
X163769928Y-102322380D01*
X163436595Y-102703333D01*
X163579452Y-102703333D01*
X163674690Y-102750952D01*
X163722309Y-102798571D01*
X163769928Y-102893809D01*
X163769928Y-103131904D01*
X163722309Y-103227142D01*
X163674690Y-103274761D01*
X163579452Y-103322380D01*
X163293738Y-103322380D01*
X163198500Y-103274761D01*
X163150880Y-103227142D01*
X161388976Y-100496666D02*
X161865166Y-100496666D01*
X161293738Y-100782380D02*
X161627071Y-99782380D01*
X161960404Y-100782380D01*
X162246119Y-99877619D02*
X162293738Y-99830000D01*
X162388976Y-99782380D01*
X162627071Y-99782380D01*
X162722309Y-99830000D01*
X162769928Y-99877619D01*
X162817547Y-99972857D01*
X162817547Y-100068095D01*
X162769928Y-100210952D01*
X162198500Y-100782380D01*
X162817547Y-100782380D01*
X163198500Y-99877619D02*
X163246119Y-99830000D01*
X163341357Y-99782380D01*
X163579452Y-99782380D01*
X163674690Y-99830000D01*
X163722309Y-99877619D01*
X163769928Y-99972857D01*
X163769928Y-100068095D01*
X163722309Y-100210952D01*
X163150880Y-100782380D01*
X163769928Y-100782380D01*
X161198500Y-91880000D02*
X161674690Y-91880000D01*
X161436595Y-93162380D02*
X161436595Y-92162380D01*
X161674690Y-91880000D02*
X162674690Y-91880000D01*
X162484214Y-93162380D02*
X162150880Y-92686190D01*
X161912785Y-93162380D02*
X161912785Y-92162380D01*
X162293738Y-92162380D01*
X162388976Y-92210000D01*
X162436595Y-92257619D01*
X162484214Y-92352857D01*
X162484214Y-92495714D01*
X162436595Y-92590952D01*
X162388976Y-92638571D01*
X162293738Y-92686190D01*
X161912785Y-92686190D01*
X162674690Y-91880000D02*
X163722309Y-91880000D01*
X163579452Y-93257619D02*
X163484214Y-93210000D01*
X163388976Y-93114761D01*
X163246119Y-92971904D01*
X163150880Y-92924285D01*
X163055642Y-92924285D01*
X163103261Y-93162380D02*
X163008023Y-93114761D01*
X162912785Y-93019523D01*
X162865166Y-92829047D01*
X162865166Y-92495714D01*
X162912785Y-92305238D01*
X163008023Y-92210000D01*
X163103261Y-92162380D01*
X163293738Y-92162380D01*
X163388976Y-92210000D01*
X163484214Y-92305238D01*
X163531833Y-92495714D01*
X163531833Y-92829047D01*
X163484214Y-93019523D01*
X163388976Y-93114761D01*
X163293738Y-93162380D01*
X163103261Y-93162380D01*
X163722309Y-91880000D02*
X164674690Y-91880000D01*
X163912785Y-92257619D02*
X163960404Y-92210000D01*
X164055642Y-92162380D01*
X164293738Y-92162380D01*
X164388976Y-92210000D01*
X164436595Y-92257619D01*
X164484214Y-92352857D01*
X164484214Y-92448095D01*
X164436595Y-92590952D01*
X163865166Y-93162380D01*
X164484214Y-93162380D01*
X161198500Y-89340000D02*
X161674690Y-89340000D01*
X161436595Y-90622380D02*
X161436595Y-89622380D01*
X161674690Y-89340000D02*
X162531833Y-89340000D01*
X161865166Y-90336666D02*
X162341357Y-90336666D01*
X161769928Y-90622380D02*
X162103261Y-89622380D01*
X162436595Y-90622380D01*
X162531833Y-89340000D02*
X163531833Y-89340000D01*
X163341357Y-90527142D02*
X163293738Y-90574761D01*
X163150880Y-90622380D01*
X163055642Y-90622380D01*
X162912785Y-90574761D01*
X162817547Y-90479523D01*
X162769928Y-90384285D01*
X162722309Y-90193809D01*
X162722309Y-90050952D01*
X162769928Y-89860476D01*
X162817547Y-89765238D01*
X162912785Y-89670000D01*
X163055642Y-89622380D01*
X163150880Y-89622380D01*
X163293738Y-89670000D01*
X163341357Y-89717619D01*
X163531833Y-89340000D02*
X164531833Y-89340000D01*
X163769928Y-90622380D02*
X163769928Y-89622380D01*
X164341357Y-90622380D02*
X163912785Y-90050952D01*
X164341357Y-89622380D02*
X163769928Y-90193809D01*
X161198500Y-84260000D02*
X162246119Y-84260000D01*
X161436595Y-84542380D02*
X161436595Y-85351904D01*
X161484214Y-85447142D01*
X161531833Y-85494761D01*
X161627071Y-85542380D01*
X161817547Y-85542380D01*
X161912785Y-85494761D01*
X161960404Y-85447142D01*
X162008023Y-85351904D01*
X162008023Y-84542380D01*
X162246119Y-84260000D02*
X163103261Y-84260000D01*
X162436595Y-85256666D02*
X162912785Y-85256666D01*
X162341357Y-85542380D02*
X162674690Y-84542380D01*
X163008023Y-85542380D01*
X163103261Y-84260000D02*
X164103261Y-84260000D01*
X163912785Y-85542380D02*
X163579452Y-85066190D01*
X163341357Y-85542380D02*
X163341357Y-84542380D01*
X163722309Y-84542380D01*
X163817547Y-84590000D01*
X163865166Y-84637619D01*
X163912785Y-84732857D01*
X163912785Y-84875714D01*
X163865166Y-84970952D01*
X163817547Y-85018571D01*
X163722309Y-85066190D01*
X163341357Y-85066190D01*
X164103261Y-84260000D02*
X164865166Y-84260000D01*
X164198500Y-84542380D02*
X164769928Y-84542380D01*
X164484214Y-85542380D02*
X164484214Y-84542380D01*
X164865166Y-84260000D02*
X165817547Y-84260000D01*
X165055642Y-85494761D02*
X165198500Y-85542380D01*
X165436595Y-85542380D01*
X165531833Y-85494761D01*
X165579452Y-85447142D01*
X165627071Y-85351904D01*
X165627071Y-85256666D01*
X165579452Y-85161428D01*
X165531833Y-85113809D01*
X165436595Y-85066190D01*
X165246119Y-85018571D01*
X165150880Y-84970952D01*
X165103261Y-84923333D01*
X165055642Y-84828095D01*
X165055642Y-84732857D01*
X165103261Y-84637619D01*
X165150880Y-84590000D01*
X165246119Y-84542380D01*
X165484214Y-84542380D01*
X165627071Y-84590000D01*
X165817547Y-84260000D02*
X166722309Y-84260000D01*
X166055642Y-85018571D02*
X166388976Y-85018571D01*
X166531833Y-85542380D02*
X166055642Y-85542380D01*
X166055642Y-84542380D01*
X166531833Y-84542380D01*
X166722309Y-84260000D02*
X167531833Y-84260000D01*
X167436595Y-85542380D02*
X166960404Y-85542380D01*
X166960404Y-84542380D01*
X161198500Y-86800000D02*
X162198500Y-86800000D01*
X161436595Y-88082380D02*
X161436595Y-87082380D01*
X161674690Y-87082380D01*
X161817547Y-87130000D01*
X161912785Y-87225238D01*
X161960404Y-87320476D01*
X162008023Y-87510952D01*
X162008023Y-87653809D01*
X161960404Y-87844285D01*
X161912785Y-87939523D01*
X161817547Y-88034761D01*
X161674690Y-88082380D01*
X161436595Y-88082380D01*
X162198500Y-86800000D02*
X162960404Y-86800000D01*
X162293738Y-87082380D02*
X162865166Y-87082380D01*
X162579452Y-88082380D02*
X162579452Y-87082380D01*
X162960404Y-86800000D02*
X163817547Y-86800000D01*
X163150880Y-87796666D02*
X163627071Y-87796666D01*
X163055642Y-88082380D02*
X163388976Y-87082380D01*
X163722309Y-88082380D01*
X163817547Y-86800000D02*
X164817547Y-86800000D01*
X164627071Y-87987142D02*
X164579452Y-88034761D01*
X164436595Y-88082380D01*
X164341357Y-88082380D01*
X164198500Y-88034761D01*
X164103261Y-87939523D01*
X164055642Y-87844285D01*
X164008023Y-87653809D01*
X164008023Y-87510952D01*
X164055642Y-87320476D01*
X164103261Y-87225238D01*
X164198500Y-87130000D01*
X164341357Y-87082380D01*
X164436595Y-87082380D01*
X164579452Y-87130000D01*
X164627071Y-87177619D01*
X164817547Y-86800000D02*
X165817547Y-86800000D01*
X165055642Y-88082380D02*
X165055642Y-87082380D01*
X165627071Y-88082380D02*
X165198500Y-87510952D01*
X165627071Y-87082380D02*
X165055642Y-87653809D01*
X165817547Y-86800000D02*
X166865166Y-86800000D01*
X166055642Y-87082380D02*
X166055642Y-87891904D01*
X166103261Y-87987142D01*
X166150880Y-88034761D01*
X166246119Y-88082380D01*
X166436595Y-88082380D01*
X166531833Y-88034761D01*
X166579452Y-87987142D01*
X166627071Y-87891904D01*
X166627071Y-87082380D01*
X166865166Y-86800000D02*
X167722309Y-86800000D01*
X167055642Y-87796666D02*
X167531833Y-87796666D01*
X166960404Y-88082380D02*
X167293738Y-87082380D01*
X167627071Y-88082380D01*
X167722309Y-86800000D02*
X168722309Y-86800000D01*
X168531833Y-88082380D02*
X168198500Y-87606190D01*
X167960404Y-88082380D02*
X167960404Y-87082380D01*
X168341357Y-87082380D01*
X168436595Y-87130000D01*
X168484214Y-87177619D01*
X168531833Y-87272857D01*
X168531833Y-87415714D01*
X168484214Y-87510952D01*
X168436595Y-87558571D01*
X168341357Y-87606190D01*
X167960404Y-87606190D01*
X168722309Y-86800000D02*
X169484214Y-86800000D01*
X168817547Y-87082380D02*
X169388976Y-87082380D01*
X169103261Y-88082380D02*
X169103261Y-87082380D01*
D10*
X94293428Y-121039714D02*
X92793428Y-121539714D01*
X94293428Y-122039714D01*
X94150571Y-122468285D02*
X94222000Y-122539714D01*
X94293428Y-122682571D01*
X94293428Y-123039714D01*
X94222000Y-123182571D01*
X94150571Y-123254000D01*
X94007714Y-123325428D01*
X93864857Y-123325428D01*
X93650571Y-123254000D01*
X92793428Y-122396857D01*
X92793428Y-123325428D01*
X94293428Y-124254000D02*
X94293428Y-124396857D01*
X94222000Y-124539714D01*
X94150571Y-124611142D01*
X94007714Y-124682571D01*
X93722000Y-124754000D01*
X93364857Y-124754000D01*
X93079142Y-124682571D01*
X92936285Y-124611142D01*
X92864857Y-124539714D01*
X92793428Y-124396857D01*
X92793428Y-124254000D01*
X92864857Y-124111142D01*
X92936285Y-124039714D01*
X93079142Y-123968285D01*
X93364857Y-123896857D01*
X93722000Y-123896857D01*
X94007714Y-123968285D01*
X94150571Y-124039714D01*
X94222000Y-124111142D01*
X94293428Y-124254000D01*
X94150571Y-125325428D02*
X94222000Y-125396857D01*
X94293428Y-125539714D01*
X94293428Y-125896857D01*
X94222000Y-126039714D01*
X94150571Y-126111142D01*
X94007714Y-126182571D01*
X93864857Y-126182571D01*
X93650571Y-126111142D01*
X92793428Y-125254000D01*
X92793428Y-126182571D01*
X94150571Y-126754000D02*
X94222000Y-126825428D01*
X94293428Y-126968285D01*
X94293428Y-127325428D01*
X94222000Y-127468285D01*
X94150571Y-127539714D01*
X94007714Y-127611142D01*
X93864857Y-127611142D01*
X93650571Y-127539714D01*
X92793428Y-126682571D01*
X92793428Y-127611142D01*
X92793428Y-129039714D02*
X92793428Y-128182571D01*
X92793428Y-128611142D02*
X94293428Y-128611142D01*
X94079142Y-128468285D01*
X93936285Y-128325428D01*
X93864857Y-128182571D01*
X92793428Y-130468285D02*
X92793428Y-129611142D01*
X92793428Y-130039714D02*
X94293428Y-130039714D01*
X94079142Y-129896857D01*
X93936285Y-129754000D01*
X93864857Y-129611142D01*
X94293428Y-131396857D02*
X94293428Y-131539714D01*
X94222000Y-131682571D01*
X94150571Y-131754000D01*
X94007714Y-131825428D01*
X93722000Y-131896857D01*
X93364857Y-131896857D01*
X93079142Y-131825428D01*
X92936285Y-131754000D01*
X92864857Y-131682571D01*
X92793428Y-131539714D01*
X92793428Y-131396857D01*
X92864857Y-131254000D01*
X92936285Y-131182571D01*
X93079142Y-131111142D01*
X93364857Y-131039714D01*
X93722000Y-131039714D01*
X94007714Y-131111142D01*
X94150571Y-131182571D01*
X94222000Y-131254000D01*
X94293428Y-131396857D01*
X94293428Y-133182571D02*
X94293428Y-132896857D01*
X94222000Y-132754000D01*
X94150571Y-132682571D01*
X93936285Y-132539714D01*
X93650571Y-132468285D01*
X93079142Y-132468285D01*
X92936285Y-132539714D01*
X92864857Y-132611142D01*
X92793428Y-132754000D01*
X92793428Y-133039714D01*
X92864857Y-133182571D01*
X92936285Y-133254000D01*
X93079142Y-133325428D01*
X93436285Y-133325428D01*
X93579142Y-133254000D01*
X93650571Y-133182571D01*
X93722000Y-133039714D01*
X93722000Y-132754000D01*
X93650571Y-132611142D01*
X93579142Y-132539714D01*
X93436285Y-132468285D01*
X177365765Y-73426765D02*
X177222908Y-73855336D01*
X177222908Y-74569622D01*
X177365765Y-74855336D01*
X177508622Y-74998193D01*
X177794336Y-75141051D01*
X178080051Y-75141051D01*
X178365765Y-74998193D01*
X178508622Y-74855336D01*
X178651479Y-74569622D01*
X178794336Y-73998193D01*
X178937193Y-73712479D01*
X179080051Y-73569622D01*
X179365765Y-73426765D01*
X179651479Y-73426765D01*
X179937193Y-73569622D01*
X180080051Y-73712479D01*
X180222908Y-73998193D01*
X180222908Y-74712479D01*
X180080051Y-75141051D01*
X179222908Y-75998193D02*
X179222908Y-77141051D01*
X180222908Y-76426765D02*
X177651479Y-76426765D01*
X177365765Y-76569622D01*
X177222908Y-76855336D01*
X177222908Y-77141051D01*
X177365765Y-79283908D02*
X177222908Y-78998193D01*
X177222908Y-78426765D01*
X177365765Y-78141051D01*
X177651479Y-77998193D01*
X178794336Y-77998193D01*
X179080051Y-78141051D01*
X179222908Y-78426765D01*
X179222908Y-78998193D01*
X179080051Y-79283908D01*
X178794336Y-79426765D01*
X178508622Y-79426765D01*
X178222908Y-77998193D01*
X179222908Y-80426765D02*
X177222908Y-81141051D01*
X179222908Y-81855336D01*
X177365765Y-84141051D02*
X177222908Y-83855336D01*
X177222908Y-83283908D01*
X177365765Y-82998193D01*
X177651479Y-82855336D01*
X178794336Y-82855336D01*
X179080051Y-82998193D01*
X179222908Y-83283908D01*
X179222908Y-83855336D01*
X179080051Y-84141051D01*
X178794336Y-84283908D01*
X178508622Y-84283908D01*
X178222908Y-82855336D01*
X180222908Y-89141051D02*
X180222908Y-88569622D01*
X180080051Y-88283908D01*
X179937193Y-88141051D01*
X179508622Y-87855336D01*
X178937193Y-87712479D01*
X177794336Y-87712479D01*
X177508622Y-87855336D01*
X177365765Y-87998193D01*
X177222908Y-88283908D01*
X177222908Y-88855336D01*
X177365765Y-89141051D01*
X177508622Y-89283908D01*
X177794336Y-89426765D01*
X178508622Y-89426765D01*
X178794336Y-89283908D01*
X178937193Y-89141051D01*
X179080051Y-88855336D01*
X179080051Y-88283908D01*
X178937193Y-87998193D01*
X178794336Y-87855336D01*
X178508622Y-87712479D01*
X178937193Y-91141051D02*
X179080051Y-90855336D01*
X179222908Y-90712479D01*
X179508622Y-90569622D01*
X179651479Y-90569622D01*
X179937193Y-90712479D01*
X180080051Y-90855336D01*
X180222908Y-91141051D01*
X180222908Y-91712479D01*
X180080051Y-91998193D01*
X179937193Y-92141051D01*
X179651479Y-92283908D01*
X179508622Y-92283908D01*
X179222908Y-92141051D01*
X179080051Y-91998193D01*
X178937193Y-91712479D01*
X178937193Y-91141051D01*
X178794336Y-90855336D01*
X178651479Y-90712479D01*
X178365765Y-90569622D01*
X177794336Y-90569622D01*
X177508622Y-90712479D01*
X177365765Y-90855336D01*
X177222908Y-91141051D01*
X177222908Y-91712479D01*
X177365765Y-91998193D01*
X177508622Y-92141051D01*
X177794336Y-92283908D01*
X178365765Y-92283908D01*
X178651479Y-92141051D01*
X178794336Y-91998193D01*
X178937193Y-91712479D01*
X177222908Y-93569622D02*
X180222908Y-93569622D01*
X178365765Y-93855336D02*
X177222908Y-94712479D01*
X179222908Y-94712479D02*
X178080051Y-93569622D01*
X177222908Y-98283908D02*
X180222908Y-98283908D01*
X180222908Y-100283908D02*
X180222908Y-100855336D01*
X180080051Y-101141051D01*
X179794336Y-101426765D01*
X179222908Y-101569622D01*
X178222908Y-101569622D01*
X177651479Y-101426765D01*
X177365765Y-101141051D01*
X177222908Y-100855336D01*
X177222908Y-100283908D01*
X177365765Y-99998193D01*
X177651479Y-99712479D01*
X178222908Y-99569622D01*
X179222908Y-99569622D01*
X179794336Y-99712479D01*
X180080051Y-99998193D01*
X180222908Y-100283908D01*
X178794336Y-106141051D02*
X178651479Y-106569622D01*
X178508622Y-106712479D01*
X178222908Y-106855336D01*
X177794336Y-106855336D01*
X177508622Y-106712479D01*
X177365765Y-106569622D01*
X177222908Y-106283908D01*
X177222908Y-105141051D01*
X180222908Y-105141051D01*
X180222908Y-106141051D01*
X180080051Y-106426765D01*
X179937193Y-106569622D01*
X179651479Y-106712479D01*
X179365765Y-106712479D01*
X179080051Y-106569622D01*
X178937193Y-106426765D01*
X178794336Y-106141051D01*
X178794336Y-105141051D01*
X177222908Y-108569622D02*
X177365765Y-108283908D01*
X177508622Y-108141051D01*
X177794336Y-107998193D01*
X178651479Y-107998193D01*
X178937193Y-108141051D01*
X179080051Y-108283908D01*
X179222908Y-108569622D01*
X179222908Y-108998193D01*
X179080051Y-109283908D01*
X178937193Y-109426765D01*
X178651479Y-109569622D01*
X177794336Y-109569622D01*
X177508622Y-109426765D01*
X177365765Y-109283908D01*
X177222908Y-108998193D01*
X177222908Y-108569622D01*
X177222908Y-112141051D02*
X178794336Y-112141051D01*
X179080051Y-111998193D01*
X179222908Y-111712479D01*
X179222908Y-111141051D01*
X179080051Y-110855336D01*
X177365765Y-112141051D02*
X177222908Y-111855336D01*
X177222908Y-111141051D01*
X177365765Y-110855336D01*
X177651479Y-110712479D01*
X177937193Y-110712479D01*
X178222908Y-110855336D01*
X178365765Y-111141051D01*
X178365765Y-111855336D01*
X178508622Y-112141051D01*
X177222908Y-113569622D02*
X179222908Y-113569622D01*
X178651479Y-113569622D02*
X178937193Y-113712479D01*
X179080051Y-113855336D01*
X179222908Y-114141051D01*
X179222908Y-114426765D01*
X177222908Y-116712479D02*
X180222908Y-116712479D01*
X177365765Y-116712479D02*
X177222908Y-116426765D01*
X177222908Y-115855336D01*
X177365765Y-115569622D01*
X177508622Y-115426765D01*
X177794336Y-115283908D01*
X178651479Y-115283908D01*
X178937193Y-115426765D01*
X179080051Y-115569622D01*
X179222908Y-115855336D01*
X179222908Y-116426765D01*
X179080051Y-116712479D01*
D12*
%TO.C,Q1*%
X143947380Y-74062761D02*
X143995000Y-73967523D01*
X144090238Y-73872285D01*
X144233095Y-73729428D01*
X144280714Y-73634190D01*
X144280714Y-73538952D01*
X144042619Y-73586571D02*
X144090238Y-73491333D01*
X144185476Y-73396095D01*
X144375952Y-73348476D01*
X144709285Y-73348476D01*
X144899761Y-73396095D01*
X144995000Y-73491333D01*
X145042619Y-73586571D01*
X145042619Y-73777047D01*
X144995000Y-73872285D01*
X144899761Y-73967523D01*
X144709285Y-74015142D01*
X144375952Y-74015142D01*
X144185476Y-73967523D01*
X144090238Y-73872285D01*
X144042619Y-73777047D01*
X144042619Y-73586571D01*
X144042619Y-74967523D02*
X144042619Y-74396095D01*
X144042619Y-74681809D02*
X145042619Y-74681809D01*
X144899761Y-74586571D01*
X144804523Y-74491333D01*
X144756904Y-74396095D01*
X137992619Y-70181809D02*
X137992619Y-70800857D01*
X137611666Y-70467523D01*
X137611666Y-70610380D01*
X137564047Y-70705619D01*
X137516428Y-70753238D01*
X137421190Y-70800857D01*
X137183095Y-70800857D01*
X137087857Y-70753238D01*
X137040238Y-70705619D01*
X136992619Y-70610380D01*
X136992619Y-70324666D01*
X137040238Y-70229428D01*
X137087857Y-70181809D01*
X137087857Y-71229428D02*
X137040238Y-71277047D01*
X136992619Y-71229428D01*
X137040238Y-71181809D01*
X137087857Y-71229428D01*
X136992619Y-71229428D01*
X137992619Y-72134190D02*
X137992619Y-71943714D01*
X137945000Y-71848476D01*
X137897380Y-71800857D01*
X137754523Y-71705619D01*
X137564047Y-71658000D01*
X137183095Y-71658000D01*
X137087857Y-71705619D01*
X137040238Y-71753238D01*
X136992619Y-71848476D01*
X136992619Y-72038952D01*
X137040238Y-72134190D01*
X137087857Y-72181809D01*
X137183095Y-72229428D01*
X137421190Y-72229428D01*
X137516428Y-72181809D01*
X137564047Y-72134190D01*
X137611666Y-72038952D01*
X137611666Y-71848476D01*
X137564047Y-71753238D01*
X137516428Y-71705619D01*
X137421190Y-71658000D01*
X137564047Y-72800857D02*
X137611666Y-72705619D01*
X137659285Y-72658000D01*
X137754523Y-72610380D01*
X137802142Y-72610380D01*
X137897380Y-72658000D01*
X137945000Y-72705619D01*
X137992619Y-72800857D01*
X137992619Y-72991333D01*
X137945000Y-73086571D01*
X137897380Y-73134190D01*
X137802142Y-73181809D01*
X137754523Y-73181809D01*
X137659285Y-73134190D01*
X137611666Y-73086571D01*
X137564047Y-72991333D01*
X137564047Y-72800857D01*
X137516428Y-72705619D01*
X137468809Y-72658000D01*
X137373571Y-72610380D01*
X137183095Y-72610380D01*
X137087857Y-72658000D01*
X137040238Y-72705619D01*
X136992619Y-72800857D01*
X136992619Y-72991333D01*
X137040238Y-73086571D01*
X137087857Y-73134190D01*
X137183095Y-73181809D01*
X137373571Y-73181809D01*
X137468809Y-73134190D01*
X137516428Y-73086571D01*
X137564047Y-72991333D01*
X137992619Y-74038952D02*
X137992619Y-73848476D01*
X137945000Y-73753238D01*
X137897380Y-73705619D01*
X137754523Y-73610380D01*
X137564047Y-73562761D01*
X137183095Y-73562761D01*
X137087857Y-73610380D01*
X137040238Y-73658000D01*
X136992619Y-73753238D01*
X136992619Y-73943714D01*
X137040238Y-74038952D01*
X137087857Y-74086571D01*
X137183095Y-74134190D01*
X137421190Y-74134190D01*
X137516428Y-74086571D01*
X137564047Y-74038952D01*
X137611666Y-73943714D01*
X137611666Y-73753238D01*
X137564047Y-73658000D01*
X137516428Y-73610380D01*
X137421190Y-73562761D01*
X137659285Y-74991333D02*
X136992619Y-74991333D01*
X138040238Y-74753238D02*
X137325952Y-74515142D01*
X137325952Y-75134190D01*
X136992619Y-75515142D02*
X137992619Y-75515142D01*
X137278333Y-75848476D01*
X137992619Y-76181809D01*
X136992619Y-76181809D01*
X136992619Y-76658000D02*
X137992619Y-76658000D01*
X137516428Y-76658000D02*
X137516428Y-77229428D01*
X136992619Y-77229428D02*
X137992619Y-77229428D01*
X137659285Y-77610380D02*
X137659285Y-78134190D01*
X136992619Y-77610380D01*
X136992619Y-78134190D01*
D13*
%TO.C,J4*%
X153542198Y-66503247D02*
X153542198Y-67365033D01*
X153484746Y-67537390D01*
X153369841Y-67652295D01*
X153197484Y-67709747D01*
X153082579Y-67709747D01*
X154633793Y-66905414D02*
X154633793Y-67709747D01*
X154346532Y-66445795D02*
X154059270Y-67307580D01*
X154806151Y-67307580D01*
%TO.C,J3*%
X153542198Y-111969247D02*
X153542198Y-112831033D01*
X153484746Y-113003390D01*
X153369841Y-113118295D01*
X153197484Y-113175747D01*
X153082579Y-113175747D01*
X154001817Y-111969247D02*
X154748698Y-111969247D01*
X154346532Y-112428866D01*
X154518889Y-112428866D01*
X154633793Y-112486319D01*
X154691246Y-112543771D01*
X154748698Y-112658676D01*
X154748698Y-112945938D01*
X154691246Y-113060842D01*
X154633793Y-113118295D01*
X154518889Y-113175747D01*
X154174174Y-113175747D01*
X154059270Y-113118295D01*
X154001817Y-113060842D01*
D12*
%TO.C,J2*%
X158670666Y-82222380D02*
X158670666Y-82936666D01*
X158623047Y-83079523D01*
X158527809Y-83174761D01*
X158384952Y-83222380D01*
X158289714Y-83222380D01*
X159099238Y-82317619D02*
X159146857Y-82270000D01*
X159242095Y-82222380D01*
X159480190Y-82222380D01*
X159575428Y-82270000D01*
X159623047Y-82317619D01*
X159670666Y-82412857D01*
X159670666Y-82508095D01*
X159623047Y-82650952D01*
X159051619Y-83222380D01*
X159670666Y-83222380D01*
X155503619Y-93011904D02*
X156503619Y-93011904D01*
X156503619Y-93250000D01*
X156456000Y-93392857D01*
X156360761Y-93488095D01*
X156265523Y-93535714D01*
X156075047Y-93583333D01*
X155932190Y-93583333D01*
X155741714Y-93535714D01*
X155646476Y-93488095D01*
X155551238Y-93392857D01*
X155503619Y-93250000D01*
X155503619Y-93011904D01*
X156027428Y-94011904D02*
X156027428Y-94345238D01*
X155503619Y-94488095D02*
X155503619Y-94011904D01*
X156503619Y-94011904D01*
X156503619Y-94488095D01*
X156027428Y-95250000D02*
X155979809Y-95392857D01*
X155932190Y-95440476D01*
X155836952Y-95488095D01*
X155694095Y-95488095D01*
X155598857Y-95440476D01*
X155551238Y-95392857D01*
X155503619Y-95297619D01*
X155503619Y-94916666D01*
X156503619Y-94916666D01*
X156503619Y-95250000D01*
X156456000Y-95345238D01*
X156408380Y-95392857D01*
X156313142Y-95440476D01*
X156217904Y-95440476D01*
X156122666Y-95392857D01*
X156075047Y-95345238D01*
X156027428Y-95250000D01*
X156027428Y-94916666D01*
X156503619Y-95916666D02*
X155694095Y-95916666D01*
X155598857Y-95964285D01*
X155551238Y-96011904D01*
X155503619Y-96107142D01*
X155503619Y-96297619D01*
X155551238Y-96392857D01*
X155598857Y-96440476D01*
X155694095Y-96488095D01*
X156503619Y-96488095D01*
X156456000Y-97488095D02*
X156503619Y-97392857D01*
X156503619Y-97250000D01*
X156456000Y-97107142D01*
X156360761Y-97011904D01*
X156265523Y-96964285D01*
X156075047Y-96916666D01*
X155932190Y-96916666D01*
X155741714Y-96964285D01*
X155646476Y-97011904D01*
X155551238Y-97107142D01*
X155503619Y-97250000D01*
X155503619Y-97345238D01*
X155551238Y-97488095D01*
X155598857Y-97535714D01*
X155932190Y-97535714D01*
X155932190Y-97345238D01*
%TO.C,C4*%
X140803333Y-64097142D02*
X140755714Y-64144761D01*
X140612857Y-64192380D01*
X140517619Y-64192380D01*
X140374761Y-64144761D01*
X140279523Y-64049523D01*
X140231904Y-63954285D01*
X140184285Y-63763809D01*
X140184285Y-63620952D01*
X140231904Y-63430476D01*
X140279523Y-63335238D01*
X140374761Y-63240000D01*
X140517619Y-63192380D01*
X140612857Y-63192380D01*
X140755714Y-63240000D01*
X140803333Y-63287619D01*
X141660476Y-63525714D02*
X141660476Y-64192380D01*
X141422380Y-63144761D02*
X141184285Y-63859047D01*
X141803333Y-63859047D01*
%TO.C,C3*%
X140803333Y-85447142D02*
X140755714Y-85494761D01*
X140612857Y-85542380D01*
X140517619Y-85542380D01*
X140374761Y-85494761D01*
X140279523Y-85399523D01*
X140231904Y-85304285D01*
X140184285Y-85113809D01*
X140184285Y-84970952D01*
X140231904Y-84780476D01*
X140279523Y-84685238D01*
X140374761Y-84590000D01*
X140517619Y-84542380D01*
X140612857Y-84542380D01*
X140755714Y-84590000D01*
X140803333Y-84637619D01*
X141136666Y-84542380D02*
X141755714Y-84542380D01*
X141422380Y-84923333D01*
X141565238Y-84923333D01*
X141660476Y-84970952D01*
X141708095Y-85018571D01*
X141755714Y-85113809D01*
X141755714Y-85351904D01*
X141708095Y-85447142D01*
X141660476Y-85494761D01*
X141565238Y-85542380D01*
X141279523Y-85542380D01*
X141184285Y-85494761D01*
X141136666Y-85447142D01*
%TO.C,J1*%
X82965766Y-136238480D02*
X82965766Y-136952766D01*
X82918147Y-137095623D01*
X82822909Y-137190861D01*
X82680052Y-137238480D01*
X82584814Y-137238480D01*
X83965766Y-137238480D02*
X83394338Y-137238480D01*
X83680052Y-137238480D02*
X83680052Y-136238480D01*
X83584814Y-136381338D01*
X83489576Y-136476576D01*
X83394338Y-136524195D01*
%TO.C,C2*%
X124293333Y-108547142D02*
X124245714Y-108594761D01*
X124102857Y-108642380D01*
X124007619Y-108642380D01*
X123864761Y-108594761D01*
X123769523Y-108499523D01*
X123721904Y-108404285D01*
X123674285Y-108213809D01*
X123674285Y-108070952D01*
X123721904Y-107880476D01*
X123769523Y-107785238D01*
X123864761Y-107690000D01*
X124007619Y-107642380D01*
X124102857Y-107642380D01*
X124245714Y-107690000D01*
X124293333Y-107737619D01*
X124674285Y-107737619D02*
X124721904Y-107690000D01*
X124817142Y-107642380D01*
X125055238Y-107642380D01*
X125150476Y-107690000D01*
X125198095Y-107737619D01*
X125245714Y-107832857D01*
X125245714Y-107928095D01*
X125198095Y-108070952D01*
X124626666Y-108642380D01*
X125245714Y-108642380D01*
%TO.C,U2*%
X123693095Y-52240380D02*
X123693095Y-53049904D01*
X123740714Y-53145142D01*
X123788333Y-53192761D01*
X123883571Y-53240380D01*
X124074047Y-53240380D01*
X124169285Y-53192761D01*
X124216904Y-53145142D01*
X124264523Y-53049904D01*
X124264523Y-52240380D01*
X124693095Y-52335619D02*
X124740714Y-52288000D01*
X124835952Y-52240380D01*
X125074047Y-52240380D01*
X125169285Y-52288000D01*
X125216904Y-52335619D01*
X125264523Y-52430857D01*
X125264523Y-52526095D01*
X125216904Y-52668952D01*
X124645476Y-53240380D01*
X125264523Y-53240380D01*
X122740714Y-105160380D02*
X122550238Y-105160380D01*
X122455000Y-105208000D01*
X122407380Y-105255619D01*
X122312142Y-105398476D01*
X122264523Y-105588952D01*
X122264523Y-105969904D01*
X122312142Y-106065142D01*
X122359761Y-106112761D01*
X122455000Y-106160380D01*
X122645476Y-106160380D01*
X122740714Y-106112761D01*
X122788333Y-106065142D01*
X122835952Y-105969904D01*
X122835952Y-105731809D01*
X122788333Y-105636571D01*
X122740714Y-105588952D01*
X122645476Y-105541333D01*
X122455000Y-105541333D01*
X122359761Y-105588952D01*
X122312142Y-105636571D01*
X122264523Y-105731809D01*
X123407380Y-105588952D02*
X123312142Y-105541333D01*
X123264523Y-105493714D01*
X123216904Y-105398476D01*
X123216904Y-105350857D01*
X123264523Y-105255619D01*
X123312142Y-105208000D01*
X123407380Y-105160380D01*
X123597857Y-105160380D01*
X123693095Y-105208000D01*
X123740714Y-105255619D01*
X123788333Y-105350857D01*
X123788333Y-105398476D01*
X123740714Y-105493714D01*
X123693095Y-105541333D01*
X123597857Y-105588952D01*
X123407380Y-105588952D01*
X123312142Y-105636571D01*
X123264523Y-105684190D01*
X123216904Y-105779428D01*
X123216904Y-105969904D01*
X123264523Y-106065142D01*
X123312142Y-106112761D01*
X123407380Y-106160380D01*
X123597857Y-106160380D01*
X123693095Y-106112761D01*
X123740714Y-106065142D01*
X123788333Y-105969904D01*
X123788333Y-105779428D01*
X123740714Y-105684190D01*
X123693095Y-105636571D01*
X123597857Y-105588952D01*
X124645476Y-105160380D02*
X124455000Y-105160380D01*
X124359761Y-105208000D01*
X124312142Y-105255619D01*
X124216904Y-105398476D01*
X124169285Y-105588952D01*
X124169285Y-105969904D01*
X124216904Y-106065142D01*
X124264523Y-106112761D01*
X124359761Y-106160380D01*
X124550238Y-106160380D01*
X124645476Y-106112761D01*
X124693095Y-106065142D01*
X124740714Y-105969904D01*
X124740714Y-105731809D01*
X124693095Y-105636571D01*
X124645476Y-105588952D01*
X124550238Y-105541333D01*
X124359761Y-105541333D01*
X124264523Y-105588952D01*
X124216904Y-105636571D01*
X124169285Y-105731809D01*
X125312142Y-105588952D02*
X125216904Y-105541333D01*
X125169285Y-105493714D01*
X125121666Y-105398476D01*
X125121666Y-105350857D01*
X125169285Y-105255619D01*
X125216904Y-105208000D01*
X125312142Y-105160380D01*
X125502619Y-105160380D01*
X125597857Y-105208000D01*
X125645476Y-105255619D01*
X125693095Y-105350857D01*
X125693095Y-105398476D01*
X125645476Y-105493714D01*
X125597857Y-105541333D01*
X125502619Y-105588952D01*
X125312142Y-105588952D01*
X125216904Y-105636571D01*
X125169285Y-105684190D01*
X125121666Y-105779428D01*
X125121666Y-105969904D01*
X125169285Y-106065142D01*
X125216904Y-106112761D01*
X125312142Y-106160380D01*
X125502619Y-106160380D01*
X125597857Y-106112761D01*
X125645476Y-106065142D01*
X125693095Y-105969904D01*
X125693095Y-105779428D01*
X125645476Y-105684190D01*
X125597857Y-105636571D01*
X125502619Y-105588952D01*
X126645476Y-106160380D02*
X126074047Y-106160380D01*
X126359761Y-106160380D02*
X126359761Y-105160380D01*
X126264523Y-105303238D01*
X126169285Y-105398476D01*
X126074047Y-105446095D01*
%TO.C,U1*%
X123708095Y-112184380D02*
X123708095Y-112993904D01*
X123755714Y-113089142D01*
X123803333Y-113136761D01*
X123898571Y-113184380D01*
X124089047Y-113184380D01*
X124184285Y-113136761D01*
X124231904Y-113089142D01*
X124279523Y-112993904D01*
X124279523Y-112184380D01*
X125279523Y-113184380D02*
X124708095Y-113184380D01*
X124993809Y-113184380D02*
X124993809Y-112184380D01*
X124898571Y-112327238D01*
X124803333Y-112422476D01*
X124708095Y-112470095D01*
X122041428Y-139752000D02*
X121946190Y-139704380D01*
X121803333Y-139704380D01*
X121660476Y-139752000D01*
X121565238Y-139847238D01*
X121517619Y-139942476D01*
X121470000Y-140132952D01*
X121470000Y-140275809D01*
X121517619Y-140466285D01*
X121565238Y-140561523D01*
X121660476Y-140656761D01*
X121803333Y-140704380D01*
X121898571Y-140704380D01*
X122041428Y-140656761D01*
X122089047Y-140609142D01*
X122089047Y-140275809D01*
X121898571Y-140275809D01*
X122470000Y-140418666D02*
X122946190Y-140418666D01*
X122374761Y-140704380D02*
X122708095Y-139704380D01*
X123041428Y-140704380D01*
X123850952Y-140704380D02*
X123374761Y-140704380D01*
X123374761Y-139704380D01*
X124708095Y-140704380D02*
X124136666Y-140704380D01*
X124422380Y-140704380D02*
X124422380Y-139704380D01*
X124327142Y-139847238D01*
X124231904Y-139942476D01*
X124136666Y-139990095D01*
X125565238Y-139704380D02*
X125374761Y-139704380D01*
X125279523Y-139752000D01*
X125231904Y-139799619D01*
X125136666Y-139942476D01*
X125089047Y-140132952D01*
X125089047Y-140513904D01*
X125136666Y-140609142D01*
X125184285Y-140656761D01*
X125279523Y-140704380D01*
X125470000Y-140704380D01*
X125565238Y-140656761D01*
X125612857Y-140609142D01*
X125660476Y-140513904D01*
X125660476Y-140275809D01*
X125612857Y-140180571D01*
X125565238Y-140132952D01*
X125470000Y-140085333D01*
X125279523Y-140085333D01*
X125184285Y-140132952D01*
X125136666Y-140180571D01*
X125089047Y-140275809D01*
X125946190Y-139704380D02*
X126279523Y-140704380D01*
X126612857Y-139704380D01*
X127089047Y-140132952D02*
X126993809Y-140085333D01*
X126946190Y-140037714D01*
X126898571Y-139942476D01*
X126898571Y-139894857D01*
X126946190Y-139799619D01*
X126993809Y-139752000D01*
X127089047Y-139704380D01*
X127279523Y-139704380D01*
X127374761Y-139752000D01*
X127422380Y-139799619D01*
X127470000Y-139894857D01*
X127470000Y-139942476D01*
X127422380Y-140037714D01*
X127374761Y-140085333D01*
X127279523Y-140132952D01*
X127089047Y-140132952D01*
X126993809Y-140180571D01*
X126946190Y-140228190D01*
X126898571Y-140323428D01*
X126898571Y-140513904D01*
X126946190Y-140609142D01*
X126993809Y-140656761D01*
X127089047Y-140704380D01*
X127279523Y-140704380D01*
X127374761Y-140656761D01*
X127422380Y-140609142D01*
X127470000Y-140513904D01*
X127470000Y-140323428D01*
X127422380Y-140228190D01*
X127374761Y-140180571D01*
X127279523Y-140132952D01*
%TO.C,C1*%
X124288333Y-48603142D02*
X124240714Y-48650761D01*
X124097857Y-48698380D01*
X124002619Y-48698380D01*
X123859761Y-48650761D01*
X123764523Y-48555523D01*
X123716904Y-48460285D01*
X123669285Y-48269809D01*
X123669285Y-48126952D01*
X123716904Y-47936476D01*
X123764523Y-47841238D01*
X123859761Y-47746000D01*
X124002619Y-47698380D01*
X124097857Y-47698380D01*
X124240714Y-47746000D01*
X124288333Y-47793619D01*
X125240714Y-48698380D02*
X124669285Y-48698380D01*
X124955000Y-48698380D02*
X124955000Y-47698380D01*
X124859761Y-47841238D01*
X124764523Y-47936476D01*
X124669285Y-47984095D01*
D14*
%TO.C,Q1*%
X143495000Y-70958000D02*
X143495000Y-77358000D01*
X138445000Y-70958000D02*
X138445000Y-77358000D01*
X143495000Y-70958000D02*
G75*
G03*
X138445000Y-70958000I-2525000J0D01*
G01*
X138445000Y-77358000D02*
G75*
G03*
X143495000Y-77358000I2525000J0D01*
G01*
D15*
%TO.C,J4*%
X157988000Y-68961000D02*
X158623000Y-68326000D01*
X158623000Y-68326000D02*
X159893000Y-68326000D01*
X159893000Y-68326000D02*
X160528000Y-68961000D01*
X160528000Y-68961000D02*
X160528000Y-70231000D01*
X160528000Y-70231000D02*
X159893000Y-70866000D01*
X159893000Y-70866000D02*
X158623000Y-70866000D01*
X158623000Y-70866000D02*
X157988000Y-70231000D01*
X153543000Y-68326000D02*
X154813000Y-68326000D01*
X154813000Y-68326000D02*
X155448000Y-68961000D01*
X155448000Y-68961000D02*
X155448000Y-70231000D01*
X155448000Y-70231000D02*
X154813000Y-70866000D01*
X155448000Y-68961000D02*
X156083000Y-68326000D01*
X156083000Y-68326000D02*
X157353000Y-68326000D01*
X157353000Y-68326000D02*
X157988000Y-68961000D01*
X157988000Y-68961000D02*
X157988000Y-70231000D01*
X157988000Y-70231000D02*
X157353000Y-70866000D01*
X157353000Y-70866000D02*
X156083000Y-70866000D01*
X156083000Y-70866000D02*
X155448000Y-70231000D01*
X152908000Y-68961000D02*
X152908000Y-70231000D01*
X153543000Y-68326000D02*
X152908000Y-68961000D01*
X152908000Y-70231000D02*
X153543000Y-70866000D01*
X154813000Y-70866000D02*
X153543000Y-70866000D01*
X161163000Y-68326000D02*
X162433000Y-68326000D01*
X162433000Y-68326000D02*
X163068000Y-68961000D01*
X163068000Y-68961000D02*
X163068000Y-70231000D01*
X163068000Y-70231000D02*
X162433000Y-70866000D01*
X161163000Y-68326000D02*
X160528000Y-68961000D01*
X160528000Y-70231000D02*
X161163000Y-70866000D01*
X162433000Y-70866000D02*
X161163000Y-70866000D01*
X167513000Y-70866000D02*
X166243000Y-70866000D01*
X165608000Y-70231000D02*
X166243000Y-70866000D01*
X166243000Y-68326000D02*
X165608000Y-68961000D01*
X168148000Y-70231000D02*
X167513000Y-70866000D01*
X168148000Y-68961000D02*
X168148000Y-70231000D01*
X167513000Y-68326000D02*
X168148000Y-68961000D01*
X166243000Y-68326000D02*
X167513000Y-68326000D01*
X163703000Y-70866000D02*
X163068000Y-70231000D01*
X164973000Y-70866000D02*
X163703000Y-70866000D01*
X165608000Y-70231000D02*
X164973000Y-70866000D01*
X165608000Y-68961000D02*
X165608000Y-70231000D01*
X164973000Y-68326000D02*
X165608000Y-68961000D01*
X163703000Y-68326000D02*
X164973000Y-68326000D01*
X163068000Y-68961000D02*
X163703000Y-68326000D01*
%TO.C,J3*%
X157988000Y-114427000D02*
X158623000Y-113792000D01*
X158623000Y-113792000D02*
X159893000Y-113792000D01*
X159893000Y-113792000D02*
X160528000Y-114427000D01*
X160528000Y-114427000D02*
X160528000Y-115697000D01*
X160528000Y-115697000D02*
X159893000Y-116332000D01*
X159893000Y-116332000D02*
X158623000Y-116332000D01*
X158623000Y-116332000D02*
X157988000Y-115697000D01*
X153543000Y-113792000D02*
X154813000Y-113792000D01*
X154813000Y-113792000D02*
X155448000Y-114427000D01*
X155448000Y-114427000D02*
X155448000Y-115697000D01*
X155448000Y-115697000D02*
X154813000Y-116332000D01*
X155448000Y-114427000D02*
X156083000Y-113792000D01*
X156083000Y-113792000D02*
X157353000Y-113792000D01*
X157353000Y-113792000D02*
X157988000Y-114427000D01*
X157988000Y-114427000D02*
X157988000Y-115697000D01*
X157988000Y-115697000D02*
X157353000Y-116332000D01*
X157353000Y-116332000D02*
X156083000Y-116332000D01*
X156083000Y-116332000D02*
X155448000Y-115697000D01*
X152908000Y-114427000D02*
X152908000Y-115697000D01*
X153543000Y-113792000D02*
X152908000Y-114427000D01*
X152908000Y-115697000D02*
X153543000Y-116332000D01*
X154813000Y-116332000D02*
X153543000Y-116332000D01*
X161163000Y-113792000D02*
X162433000Y-113792000D01*
X162433000Y-113792000D02*
X163068000Y-114427000D01*
X163068000Y-114427000D02*
X163068000Y-115697000D01*
X163068000Y-115697000D02*
X162433000Y-116332000D01*
X161163000Y-113792000D02*
X160528000Y-114427000D01*
X160528000Y-115697000D02*
X161163000Y-116332000D01*
X162433000Y-116332000D02*
X161163000Y-116332000D01*
X167513000Y-116332000D02*
X166243000Y-116332000D01*
X165608000Y-115697000D02*
X166243000Y-116332000D01*
X166243000Y-113792000D02*
X165608000Y-114427000D01*
X168148000Y-115697000D02*
X167513000Y-116332000D01*
X168148000Y-114427000D02*
X168148000Y-115697000D01*
X167513000Y-113792000D02*
X168148000Y-114427000D01*
X166243000Y-113792000D02*
X167513000Y-113792000D01*
X163703000Y-116332000D02*
X163068000Y-115697000D01*
X164973000Y-116332000D02*
X163703000Y-116332000D01*
X165608000Y-115697000D02*
X164973000Y-116332000D01*
X165608000Y-114427000D02*
X165608000Y-115697000D01*
X164973000Y-113792000D02*
X165608000Y-114427000D01*
X163703000Y-113792000D02*
X164973000Y-113792000D01*
X163068000Y-114427000D02*
X163703000Y-113792000D01*
D14*
%TO.C,J2*%
X157674000Y-85100000D02*
X157674000Y-83770000D01*
X157674000Y-86370000D02*
X157674000Y-106750000D01*
X160334000Y-86370000D02*
X160334000Y-106750000D01*
X157674000Y-86370000D02*
X160334000Y-86370000D01*
X157674000Y-106750000D02*
X160334000Y-106750000D01*
X157674000Y-83770000D02*
X159004000Y-83770000D01*
%TO.C,C4*%
X139150000Y-64870000D02*
X142790000Y-64870000D01*
X139150000Y-67210000D02*
X142790000Y-67210000D01*
X139150000Y-66965000D02*
X139150000Y-67210000D01*
X142790000Y-66965000D02*
X142790000Y-67210000D01*
X142790000Y-64870000D02*
X142790000Y-65115000D01*
X139150000Y-64870000D02*
X139150000Y-65115000D01*
%TO.C,C3*%
X139150000Y-81380000D02*
X142790000Y-81380000D01*
X139150000Y-83720000D02*
X142790000Y-83720000D01*
X139150000Y-83475000D02*
X139150000Y-83720000D01*
X142790000Y-83475000D02*
X142790000Y-83720000D01*
X142790000Y-81380000D02*
X142790000Y-81625000D01*
X139150000Y-81380000D02*
X139150000Y-81625000D01*
%TO.C,J1*%
X82314100Y-132356100D02*
X76314100Y-132356100D01*
X82314100Y-134596100D02*
X76314100Y-134596100D01*
X84974100Y-110386100D02*
X82314100Y-110386100D01*
X84974100Y-128166100D02*
X82314100Y-128166100D01*
X82314100Y-117116100D02*
X76314100Y-117116100D01*
X76314100Y-117116100D02*
X76314100Y-116356100D01*
X82314100Y-134896100D02*
X76314100Y-134896100D01*
X82314100Y-124736100D02*
X76314100Y-124736100D01*
X76314100Y-81556100D02*
X76314100Y-80796100D01*
X87911171Y-104416100D02*
X87457029Y-104416100D01*
X84974100Y-112926100D02*
X82314100Y-112926100D01*
X87911171Y-68096100D02*
X87457029Y-68096100D01*
X85371171Y-124736100D02*
X84974100Y-124736100D01*
X76314100Y-129816100D02*
X76314100Y-129056100D01*
X85371171Y-85876100D02*
X84974100Y-85876100D01*
X76314100Y-134896100D02*
X76314100Y-134136100D01*
X85371171Y-122196100D02*
X84974100Y-122196100D01*
X82314100Y-89176100D02*
X76314100Y-89176100D01*
X82314100Y-129816100D02*
X76314100Y-129816100D01*
X85371171Y-63776100D02*
X84974100Y-63776100D01*
X85371171Y-108736100D02*
X84974100Y-108736100D01*
X84974100Y-105306100D02*
X82314100Y-105306100D01*
X85371171Y-71396100D02*
X84974100Y-71396100D01*
X84974100Y-120546100D02*
X82314100Y-120546100D01*
X76314100Y-111276100D02*
X82314100Y-111276100D01*
X84974100Y-133246100D02*
X82314100Y-133246100D01*
X76314100Y-65556100D02*
X82314100Y-65556100D01*
X87911171Y-86636100D02*
X87457029Y-86636100D01*
X90224100Y-134516100D02*
X90224100Y-135786100D01*
X87911171Y-132356100D02*
X87457029Y-132356100D01*
X85371171Y-83336100D02*
X84974100Y-83336100D01*
X85371171Y-65556100D02*
X84974100Y-65556100D01*
X87911171Y-109496100D02*
X87457029Y-109496100D01*
X84974100Y-125626100D02*
X82314100Y-125626100D01*
X87911171Y-79016100D02*
X87457029Y-79016100D01*
X76314100Y-106956100D02*
X76314100Y-106196100D01*
X87911171Y-73176100D02*
X87457029Y-73176100D01*
X85371171Y-96036100D02*
X84974100Y-96036100D01*
X82314100Y-122196100D02*
X76314100Y-122196100D01*
X85371171Y-89176100D02*
X84974100Y-89176100D01*
X85371171Y-116356100D02*
X84974100Y-116356100D01*
X84974100Y-130706100D02*
X82314100Y-130706100D01*
X84974100Y-79906100D02*
X82314100Y-79906100D01*
X85371171Y-121436100D02*
X84974100Y-121436100D01*
X76314100Y-114576100D02*
X76314100Y-113816100D01*
X76314100Y-90956100D02*
X82314100Y-90956100D01*
X84974100Y-118006100D02*
X82314100Y-118006100D01*
X76314100Y-83336100D02*
X82314100Y-83336100D01*
X82314100Y-86636100D02*
X76314100Y-86636100D01*
X85371171Y-134896100D02*
X84974100Y-134896100D01*
X76314100Y-106196100D02*
X82314100Y-106196100D01*
X76314100Y-78256100D02*
X82314100Y-78256100D01*
X85371171Y-60476100D02*
X84974100Y-60476100D01*
X85371171Y-132356100D02*
X84974100Y-132356100D01*
X76314100Y-126516100D02*
X82314100Y-126516100D01*
X87911171Y-129816100D02*
X87457029Y-129816100D01*
X85371171Y-114576100D02*
X84974100Y-114576100D01*
X87911171Y-89176100D02*
X87457029Y-89176100D01*
X84974100Y-72286100D02*
X82314100Y-72286100D01*
X85371171Y-106196100D02*
X84974100Y-106196100D01*
X85371171Y-117116100D02*
X84974100Y-117116100D01*
X76314100Y-66316100D02*
X76314100Y-65556100D01*
X87911171Y-127276100D02*
X87457029Y-127276100D01*
X84974100Y-95146100D02*
X82314100Y-95146100D01*
X76314100Y-98576100D02*
X82314100Y-98576100D01*
X76314100Y-58696100D02*
X76314100Y-57936100D01*
X87911171Y-76476100D02*
X87457029Y-76476100D01*
X85371171Y-80796100D02*
X84974100Y-80796100D01*
X76314100Y-94256100D02*
X76314100Y-93496100D01*
X87911171Y-83336100D02*
X87457029Y-83336100D01*
X84974100Y-74826100D02*
X82314100Y-74826100D01*
X85371171Y-90956100D02*
X84974100Y-90956100D01*
X87911171Y-96036100D02*
X87457029Y-96036100D01*
X87911171Y-126516100D02*
X87457029Y-126516100D01*
X87911171Y-93496100D02*
X87457029Y-93496100D01*
X76314100Y-70636100D02*
X82314100Y-70636100D01*
X82314100Y-96796100D02*
X76314100Y-96796100D01*
X87911171Y-88416100D02*
X87457029Y-88416100D01*
X76314100Y-96036100D02*
X82314100Y-96036100D01*
X82314100Y-109496100D02*
X76314100Y-109496100D01*
X87911171Y-106956100D02*
X87457029Y-106956100D01*
X87911171Y-91716100D02*
X87457029Y-91716100D01*
X82314100Y-99336100D02*
X76314100Y-99336100D01*
X84974100Y-62126100D02*
X82314100Y-62126100D01*
X87911171Y-112036100D02*
X87457029Y-112036100D01*
X85371171Y-61236100D02*
X84974100Y-61236100D01*
X85371171Y-86636100D02*
X84974100Y-86636100D01*
X85371171Y-126516100D02*
X84974100Y-126516100D01*
X84974100Y-107846100D02*
X82314100Y-107846100D01*
X87911171Y-118896100D02*
X87457029Y-118896100D01*
X87911171Y-66316100D02*
X87457029Y-66316100D01*
X85371171Y-119656100D02*
X84974100Y-119656100D01*
X76314100Y-79016100D02*
X76314100Y-78256100D01*
X76314100Y-109496100D02*
X76314100Y-108736100D01*
X82314100Y-112036100D02*
X76314100Y-112036100D01*
X87911171Y-122196100D02*
X87457029Y-122196100D01*
X85371171Y-113816100D02*
X84974100Y-113816100D01*
X87911171Y-119656100D02*
X87457029Y-119656100D01*
X76314100Y-55396100D02*
X82314100Y-55396100D01*
X84974100Y-115466100D02*
X82314100Y-115466100D01*
X82314100Y-134236100D02*
X76314100Y-134236100D01*
X85371171Y-123976100D02*
X84974100Y-123976100D01*
X82314100Y-56156100D02*
X76314100Y-56156100D01*
X82314100Y-91716100D02*
X76314100Y-91716100D01*
X84974100Y-54446100D02*
X82314100Y-54446100D01*
X76314100Y-119656100D02*
X76314100Y-118896100D01*
X82314100Y-134356100D02*
X76314100Y-134356100D01*
X82314100Y-71396100D02*
X76314100Y-71396100D01*
X85371171Y-55396100D02*
X84974100Y-55396100D01*
X85371171Y-118896100D02*
X84974100Y-118896100D01*
X76314100Y-71396100D02*
X76314100Y-70636100D01*
X76314100Y-56156100D02*
X76314100Y-55396100D01*
X87911171Y-114576100D02*
X87457029Y-114576100D01*
X85371171Y-111276100D02*
X84974100Y-111276100D01*
X82314100Y-81556100D02*
X76314100Y-81556100D01*
X82314100Y-84096100D02*
X76314100Y-84096100D01*
X87911171Y-63776100D02*
X87457029Y-63776100D01*
X85371171Y-101116100D02*
X84974100Y-101116100D01*
X87911171Y-78256100D02*
X87457029Y-78256100D01*
X76314100Y-68096100D02*
X82314100Y-68096100D01*
X87844100Y-134896100D02*
X87457029Y-134896100D01*
X76314100Y-129056100D02*
X82314100Y-129056100D01*
X85371171Y-76476100D02*
X84974100Y-76476100D01*
X76314100Y-88416100D02*
X82314100Y-88416100D01*
X87911171Y-117116100D02*
X87457029Y-117116100D01*
X84974100Y-100226100D02*
X82314100Y-100226100D01*
X85371171Y-75716100D02*
X84974100Y-75716100D01*
X87911171Y-58696100D02*
X87457029Y-58696100D01*
X76314100Y-103656100D02*
X82314100Y-103656100D01*
X84974100Y-87526100D02*
X82314100Y-87526100D01*
X87911171Y-57936100D02*
X87457029Y-57936100D01*
X85371171Y-70636100D02*
X84974100Y-70636100D01*
X85371171Y-96796100D02*
X84974100Y-96796100D01*
X85371171Y-91716100D02*
X84974100Y-91716100D01*
X76314100Y-80796100D02*
X82314100Y-80796100D01*
X87911171Y-106196100D02*
X87457029Y-106196100D01*
X87911171Y-101116100D02*
X87457029Y-101116100D01*
X85371171Y-63016100D02*
X84974100Y-63016100D01*
X76314100Y-124736100D02*
X76314100Y-123976100D01*
X76314100Y-99336100D02*
X76314100Y-98576100D01*
X87911171Y-71396100D02*
X87457029Y-71396100D01*
X87911171Y-108736100D02*
X87457029Y-108736100D01*
X85371171Y-84096100D02*
X84974100Y-84096100D01*
X87911171Y-96796100D02*
X87457029Y-96796100D01*
X87911171Y-63016100D02*
X87457029Y-63016100D01*
X76314100Y-122196100D02*
X76314100Y-121436100D01*
X85371171Y-78256100D02*
X84974100Y-78256100D01*
X85371171Y-129816100D02*
X84974100Y-129816100D01*
X76314100Y-116356100D02*
X82314100Y-116356100D01*
X84974100Y-97686100D02*
X82314100Y-97686100D01*
X84974100Y-135846100D02*
X84974100Y-54446100D01*
X76314100Y-91716100D02*
X76314100Y-90956100D01*
X87911171Y-61236100D02*
X87457029Y-61236100D01*
X76314100Y-61236100D02*
X76314100Y-60476100D01*
X87911171Y-123976100D02*
X87457029Y-123976100D01*
X76314100Y-73936100D02*
X76314100Y-73176100D01*
X85371171Y-106956100D02*
X84974100Y-106956100D01*
X82314100Y-104416100D02*
X76314100Y-104416100D01*
X85371171Y-101876100D02*
X84974100Y-101876100D01*
X76314100Y-131596100D02*
X82314100Y-131596100D01*
X76314100Y-96796100D02*
X76314100Y-96036100D01*
X85371171Y-57936100D02*
X84974100Y-57936100D01*
X76314100Y-132356100D02*
X76314100Y-131596100D01*
X82314100Y-61236100D02*
X76314100Y-61236100D01*
X84974100Y-59586100D02*
X82314100Y-59586100D01*
X87911171Y-116356100D02*
X87457029Y-116356100D01*
X82314100Y-134716100D02*
X76314100Y-134716100D01*
X76314100Y-73176100D02*
X82314100Y-73176100D01*
X76314100Y-101116100D02*
X82314100Y-101116100D01*
X85371171Y-56156100D02*
X84974100Y-56156100D01*
X82314100Y-127276100D02*
X76314100Y-127276100D01*
X82314100Y-73936100D02*
X76314100Y-73936100D01*
X82314100Y-114576100D02*
X76314100Y-114576100D01*
X85371171Y-104416100D02*
X84974100Y-104416100D01*
X87911171Y-85876100D02*
X87457029Y-85876100D01*
X76314100Y-89176100D02*
X76314100Y-88416100D01*
X84974100Y-67206100D02*
X82314100Y-67206100D01*
X76314100Y-85876100D02*
X82314100Y-85876100D01*
X87911171Y-129056100D02*
X87457029Y-129056100D01*
X85371171Y-129056100D02*
X84974100Y-129056100D01*
X76314100Y-57936100D02*
X82314100Y-57936100D01*
X85371171Y-58696100D02*
X84974100Y-58696100D01*
X85371171Y-103656100D02*
X84974100Y-103656100D01*
X87911171Y-60476100D02*
X87457029Y-60476100D01*
X85371171Y-73936100D02*
X84974100Y-73936100D01*
X85371171Y-68856100D02*
X84974100Y-68856100D01*
X82314100Y-94256100D02*
X76314100Y-94256100D01*
X85371171Y-99336100D02*
X84974100Y-99336100D01*
X87911171Y-80796100D02*
X87457029Y-80796100D01*
X87911171Y-113816100D02*
X87457029Y-113816100D01*
X82314100Y-76476100D02*
X76314100Y-76476100D01*
X76314100Y-134136100D02*
X82314100Y-134136100D01*
X82314100Y-79016100D02*
X76314100Y-79016100D01*
X85371171Y-112036100D02*
X84974100Y-112036100D01*
X76314100Y-60476100D02*
X82314100Y-60476100D01*
X84974100Y-90066100D02*
X82314100Y-90066100D01*
X87911171Y-103656100D02*
X87457029Y-103656100D01*
X76314100Y-112036100D02*
X76314100Y-111276100D01*
X84974100Y-64666100D02*
X82314100Y-64666100D01*
X76314100Y-113816100D02*
X82314100Y-113816100D01*
X87911171Y-124736100D02*
X87457029Y-124736100D01*
X85371171Y-66316100D02*
X84974100Y-66316100D01*
X84974100Y-84986100D02*
X82314100Y-84986100D01*
X82314100Y-54446100D02*
X82314100Y-135846100D01*
X76314100Y-118896100D02*
X82314100Y-118896100D01*
X85371171Y-93496100D02*
X84974100Y-93496100D01*
X87911171Y-131596100D02*
X87457029Y-131596100D01*
X87844100Y-134136100D02*
X87457029Y-134136100D01*
X82314100Y-134476100D02*
X76314100Y-134476100D01*
X87911171Y-94256100D02*
X87457029Y-94256100D01*
X85371171Y-131596100D02*
X84974100Y-131596100D01*
X76314100Y-121436100D02*
X82314100Y-121436100D01*
X82314100Y-106956100D02*
X76314100Y-106956100D01*
X84974100Y-69746100D02*
X82314100Y-69746100D01*
X87911171Y-111276100D02*
X87457029Y-111276100D01*
X82314100Y-58696100D02*
X76314100Y-58696100D01*
X76314100Y-127276100D02*
X76314100Y-126516100D01*
X85371171Y-134136100D02*
X84974100Y-134136100D01*
X85371171Y-81556100D02*
X84974100Y-81556100D01*
X87911171Y-98576100D02*
X87457029Y-98576100D01*
X84974100Y-77366100D02*
X82314100Y-77366100D01*
X85371171Y-68096100D02*
X84974100Y-68096100D01*
X82314100Y-119656100D02*
X76314100Y-119656100D01*
X82314100Y-134836100D02*
X76314100Y-134836100D01*
X85371171Y-127276100D02*
X84974100Y-127276100D01*
X76314100Y-63016100D02*
X82314100Y-63016100D01*
X82314100Y-66316100D02*
X76314100Y-66316100D01*
X85371171Y-79016100D02*
X84974100Y-79016100D01*
X82314100Y-63776100D02*
X76314100Y-63776100D01*
X87911171Y-73936100D02*
X87457029Y-73936100D01*
X85371171Y-94256100D02*
X84974100Y-94256100D01*
X76314100Y-86636100D02*
X76314100Y-85876100D01*
X84974100Y-102766100D02*
X82314100Y-102766100D01*
X87911171Y-68856100D02*
X87457029Y-68856100D01*
X87911171Y-55396100D02*
X87457029Y-55396100D01*
X82314100Y-101876100D02*
X76314100Y-101876100D01*
X87911171Y-75716100D02*
X87457029Y-75716100D01*
X76314100Y-108736100D02*
X82314100Y-108736100D01*
X76314100Y-101876100D02*
X76314100Y-101116100D01*
X76314100Y-123976100D02*
X82314100Y-123976100D01*
X90224100Y-135786100D02*
X88954100Y-135786100D01*
X87911171Y-101876100D02*
X87457029Y-101876100D01*
X85371171Y-73176100D02*
X84974100Y-73176100D01*
X82314100Y-135846100D02*
X84974100Y-135846100D01*
X87911171Y-81556100D02*
X87457029Y-81556100D01*
X82314100Y-68856100D02*
X76314100Y-68856100D01*
X84974100Y-57046100D02*
X82314100Y-57046100D01*
X84974100Y-92606100D02*
X82314100Y-92606100D01*
X85371171Y-88416100D02*
X84974100Y-88416100D01*
X87911171Y-84096100D02*
X87457029Y-84096100D01*
X87911171Y-70636100D02*
X87457029Y-70636100D01*
X76314100Y-93496100D02*
X82314100Y-93496100D01*
X76314100Y-84096100D02*
X76314100Y-83336100D01*
X76314100Y-75716100D02*
X82314100Y-75716100D01*
X87911171Y-99336100D02*
X87457029Y-99336100D01*
X85371171Y-109496100D02*
X84974100Y-109496100D01*
X76314100Y-63776100D02*
X76314100Y-63016100D01*
X76314100Y-76476100D02*
X76314100Y-75716100D01*
X85371171Y-98576100D02*
X84974100Y-98576100D01*
X87911171Y-65556100D02*
X87457029Y-65556100D01*
X76314100Y-104416100D02*
X76314100Y-103656100D01*
X87911171Y-90956100D02*
X87457029Y-90956100D01*
X84974100Y-123086100D02*
X82314100Y-123086100D01*
X87911171Y-121436100D02*
X87457029Y-121436100D01*
X84974100Y-82446100D02*
X82314100Y-82446100D01*
X76314100Y-68856100D02*
X76314100Y-68096100D01*
X87911171Y-56156100D02*
X87457029Y-56156100D01*
%TO.C,C2*%
X122640000Y-109320000D02*
X126280000Y-109320000D01*
X122640000Y-111660000D02*
X126280000Y-111660000D01*
X126280000Y-111415000D02*
X126280000Y-111660000D01*
X122640000Y-111415000D02*
X122640000Y-111660000D01*
X122640000Y-109320000D02*
X122640000Y-109565000D01*
X126280000Y-109320000D02*
X126280000Y-109565000D01*
%TO.C,U2*%
X118395000Y-53788000D02*
X118395000Y-104708000D01*
X123455000Y-53788000D02*
X118395000Y-53788000D01*
X118395000Y-104708000D02*
X130515000Y-104708000D01*
X130515000Y-53788000D02*
X125455000Y-53788000D01*
X133515000Y-53728000D02*
X115395000Y-53728000D01*
X115395000Y-53728000D02*
X115395000Y-104768000D01*
X133515000Y-104768000D02*
X133515000Y-53728000D01*
X115395000Y-104768000D02*
X133515000Y-104768000D01*
X130515000Y-104708000D02*
X130515000Y-53788000D01*
X123455000Y-53788000D02*
G75*
G03*
X125455000Y-53788000I1000000J0D01*
G01*
%TO.C,U1*%
X122220000Y-113732000D02*
X122220000Y-139252000D01*
X119220000Y-113672000D02*
X119220000Y-139312000D01*
X126720000Y-139252000D02*
X126720000Y-113732000D01*
X123470000Y-113732000D02*
X122220000Y-113732000D01*
X119220000Y-139312000D02*
X129720000Y-139312000D01*
X129720000Y-113672000D02*
X119220000Y-113672000D01*
X126720000Y-113732000D02*
X125470000Y-113732000D01*
X122220000Y-139252000D02*
X126720000Y-139252000D01*
X129720000Y-139312000D02*
X129720000Y-113672000D01*
X123470000Y-113732000D02*
G75*
G03*
X125470000Y-113732000I1000000J0D01*
G01*
%TO.C,C1*%
X122635000Y-51471000D02*
X122635000Y-51716000D01*
X122635000Y-49376000D02*
X126275000Y-49376000D01*
X126275000Y-49376000D02*
X126275000Y-49621000D01*
X126275000Y-51471000D02*
X126275000Y-51716000D01*
X122635000Y-51716000D02*
X126275000Y-51716000D01*
X122635000Y-49376000D02*
X122635000Y-49621000D01*
%TD*%
M02*
