%TF.GenerationSoftware,KiCad,Pcbnew,(6.0.9)*%
%TF.CreationDate,2022-11-21T21:05:13-08:00*%
%TF.ProjectId,IO Board,494f2042-6f61-4726-942e-6b696361645f,rev?*%
%TF.SameCoordinates,Original*%
%TF.FileFunction,Drillmap*%
%TF.FilePolarity,Positive*%
%FSLAX45Y45*%
G04 Gerber Fmt 4.5, Leading zero omitted, Abs format (unit mm)*
G04 Created by KiCad (PCBNEW (6.0.9)) date 2022-11-21 21:05:13*
%MOMM*%
%LPD*%
G01*
G04 APERTURE LIST*
%ADD10C,0.100000*%
%ADD11C,0.200000*%
%ADD12C,0.040000*%
%ADD13C,0.080000*%
G04 APERTURE END LIST*
D10*
X17959605Y-4523005D02*
X8485405Y-4523005D01*
X17959605Y-14505205D02*
G75*
G03*
X18213605Y-14251205I5J253995D01*
G01*
X18213615Y-4777005D02*
G75*
G03*
X17959605Y-4523005I-254005J-5D01*
G01*
X8485405Y-14505205D02*
X17959605Y-14505205D01*
X8231405Y-4777005D02*
X8231405Y-14251205D01*
X8485405Y-4523005D02*
G75*
G03*
X8231405Y-4777005I0J-254000D01*
G01*
X8231415Y-14251205D02*
G75*
G03*
X8485405Y-14505205I253995J-5D01*
G01*
X18213605Y-14251205D02*
X18213605Y-4777005D01*
D11*
D12*
X10972220Y-7763100D02*
X11012220Y-7803100D01*
X11012220Y-7763100D02*
X10972220Y-7803100D01*
X11837270Y-11258900D02*
X11877270Y-11298900D01*
X11877270Y-11258900D02*
X11837270Y-11298900D01*
X12204260Y-11380610D02*
X12244260Y-11420610D01*
X12244260Y-11380610D02*
X12204260Y-11420610D01*
X12525820Y-10048110D02*
X12565820Y-10088110D01*
X12565820Y-10048110D02*
X12525820Y-10088110D01*
X12702600Y-9894720D02*
X12742600Y-9934720D01*
X12742600Y-9894720D02*
X12702600Y-9934720D01*
D13*
X10682600Y-5511800D02*
G75*
G03*
X10682600Y-5511800I-40000J0D01*
G01*
X10682600Y-5765800D02*
G75*
G03*
X10682600Y-5765800I-40000J0D01*
G01*
X10682600Y-6019800D02*
G75*
G03*
X10682600Y-6019800I-40000J0D01*
G01*
X10682600Y-6273800D02*
G75*
G03*
X10682600Y-6273800I-40000J0D01*
G01*
X10682600Y-6527800D02*
G75*
G03*
X10682600Y-6527800I-40000J0D01*
G01*
X10682600Y-6781800D02*
G75*
G03*
X10682600Y-6781800I-40000J0D01*
G01*
X10682600Y-7035800D02*
G75*
G03*
X10682600Y-7035800I-40000J0D01*
G01*
X10682600Y-7289800D02*
G75*
G03*
X10682600Y-7289800I-40000J0D01*
G01*
X10682600Y-7543800D02*
G75*
G03*
X10682600Y-7543800I-40000J0D01*
G01*
X10682600Y-7797800D02*
G75*
G03*
X10682600Y-7797800I-40000J0D01*
G01*
X10682600Y-8051800D02*
G75*
G03*
X10682600Y-8051800I-40000J0D01*
G01*
X10682600Y-8305800D02*
G75*
G03*
X10682600Y-8305800I-40000J0D01*
G01*
X10682600Y-8559800D02*
G75*
G03*
X10682600Y-8559800I-40000J0D01*
G01*
X10682600Y-8813800D02*
G75*
G03*
X10682600Y-8813800I-40000J0D01*
G01*
X10682600Y-9067800D02*
G75*
G03*
X10682600Y-9067800I-40000J0D01*
G01*
X10682600Y-9321800D02*
G75*
G03*
X10682600Y-9321800I-40000J0D01*
G01*
X10682600Y-9575800D02*
G75*
G03*
X10682600Y-9575800I-40000J0D01*
G01*
X10682600Y-9829800D02*
G75*
G03*
X10682600Y-9829800I-40000J0D01*
G01*
X10682600Y-10083800D02*
G75*
G03*
X10682600Y-10083800I-40000J0D01*
G01*
X10682600Y-10337800D02*
G75*
G03*
X10682600Y-10337800I-40000J0D01*
G01*
X11139800Y-11506200D02*
G75*
G03*
X11139800Y-11506200I-40000J0D01*
G01*
X11139800Y-11760200D02*
G75*
G03*
X11139800Y-11760200I-40000J0D01*
G01*
X11139800Y-12014200D02*
G75*
G03*
X11139800Y-12014200I-40000J0D01*
G01*
X11139800Y-12268200D02*
G75*
G03*
X11139800Y-12268200I-40000J0D01*
G01*
X11139800Y-12522200D02*
G75*
G03*
X11139800Y-12522200I-40000J0D01*
G01*
X11139800Y-12776200D02*
G75*
G03*
X11139800Y-12776200I-40000J0D01*
G01*
X11139800Y-13030200D02*
G75*
G03*
X11139800Y-13030200I-40000J0D01*
G01*
X11139800Y-13284200D02*
G75*
G03*
X11139800Y-13284200I-40000J0D01*
G01*
X11139800Y-13538200D02*
G75*
G03*
X11139800Y-13538200I-40000J0D01*
G01*
X11139800Y-13792200D02*
G75*
G03*
X11139800Y-13792200I-40000J0D01*
G01*
X11319600Y-5054600D02*
G75*
G03*
X11319600Y-5054600I-40000J0D01*
G01*
X11395800Y-11049000D02*
G75*
G03*
X11395800Y-11049000I-40000J0D01*
G01*
X11569600Y-5054600D02*
G75*
G03*
X11569600Y-5054600I-40000J0D01*
G01*
X11645800Y-11049000D02*
G75*
G03*
X11645800Y-11049000I-40000J0D01*
G01*
X11901800Y-11506200D02*
G75*
G03*
X11901800Y-11506200I-40000J0D01*
G01*
X11901800Y-11760200D02*
G75*
G03*
X11901800Y-11760200I-40000J0D01*
G01*
X11901800Y-12014200D02*
G75*
G03*
X11901800Y-12014200I-40000J0D01*
G01*
X11901800Y-12268200D02*
G75*
G03*
X11901800Y-12268200I-40000J0D01*
G01*
X11901800Y-12522200D02*
G75*
G03*
X11901800Y-12522200I-40000J0D01*
G01*
X11901800Y-12776200D02*
G75*
G03*
X11901800Y-12776200I-40000J0D01*
G01*
X11901800Y-13030200D02*
G75*
G03*
X11901800Y-13030200I-40000J0D01*
G01*
X11901800Y-13284200D02*
G75*
G03*
X11901800Y-13284200I-40000J0D01*
G01*
X11901800Y-13538200D02*
G75*
G03*
X11901800Y-13538200I-40000J0D01*
G01*
X11901800Y-13792200D02*
G75*
G03*
X11901800Y-13792200I-40000J0D01*
G01*
X12206600Y-5511800D02*
G75*
G03*
X12206600Y-5511800I-40000J0D01*
G01*
X12206600Y-5765800D02*
G75*
G03*
X12206600Y-5765800I-40000J0D01*
G01*
X12206600Y-6019800D02*
G75*
G03*
X12206600Y-6019800I-40000J0D01*
G01*
X12206600Y-6273800D02*
G75*
G03*
X12206600Y-6273800I-40000J0D01*
G01*
X12206600Y-6527800D02*
G75*
G03*
X12206600Y-6527800I-40000J0D01*
G01*
X12206600Y-6781800D02*
G75*
G03*
X12206600Y-6781800I-40000J0D01*
G01*
X12206600Y-7035800D02*
G75*
G03*
X12206600Y-7035800I-40000J0D01*
G01*
X12206600Y-7289800D02*
G75*
G03*
X12206600Y-7289800I-40000J0D01*
G01*
X12206600Y-7543800D02*
G75*
G03*
X12206600Y-7543800I-40000J0D01*
G01*
X12206600Y-7797800D02*
G75*
G03*
X12206600Y-7797800I-40000J0D01*
G01*
X12206600Y-8051800D02*
G75*
G03*
X12206600Y-8051800I-40000J0D01*
G01*
X12206600Y-8305800D02*
G75*
G03*
X12206600Y-8305800I-40000J0D01*
G01*
X12206600Y-8559800D02*
G75*
G03*
X12206600Y-8559800I-40000J0D01*
G01*
X12206600Y-8813800D02*
G75*
G03*
X12206600Y-8813800I-40000J0D01*
G01*
X12206600Y-9067800D02*
G75*
G03*
X12206600Y-9067800I-40000J0D01*
G01*
X12206600Y-9321800D02*
G75*
G03*
X12206600Y-9321800I-40000J0D01*
G01*
X12206600Y-9575800D02*
G75*
G03*
X12206600Y-9575800I-40000J0D01*
G01*
X12206600Y-9829800D02*
G75*
G03*
X12206600Y-9829800I-40000J0D01*
G01*
X12206600Y-10083800D02*
G75*
G03*
X12206600Y-10083800I-40000J0D01*
G01*
X12206600Y-10337800D02*
G75*
G03*
X12206600Y-10337800I-40000J0D01*
G01*
X13173800Y-6527800D02*
G75*
G03*
X13173800Y-6527800I-40000J0D01*
G01*
X13173800Y-8407400D02*
G75*
G03*
X13173800Y-8407400I-40000J0D01*
G01*
X13298800Y-7222600D02*
G75*
G03*
X13298800Y-7222600I-40000J0D01*
G01*
X13298800Y-7710600D02*
G75*
G03*
X13298800Y-7710600I-40000J0D01*
G01*
X13423800Y-6527800D02*
G75*
G03*
X13423800Y-6527800I-40000J0D01*
G01*
X13423800Y-8407400D02*
G75*
G03*
X13423800Y-8407400I-40000J0D01*
G01*
D10*
X8641410Y-5527610D02*
X8641410Y-5627610D01*
X8591410Y-5577610D02*
X8691410Y-5577610D01*
X8641410Y-5781610D02*
X8641410Y-5881610D01*
X8591410Y-5831610D02*
X8691410Y-5831610D01*
X8641410Y-6035610D02*
X8641410Y-6135610D01*
X8591410Y-6085610D02*
X8691410Y-6085610D01*
X8641410Y-6289610D02*
X8641410Y-6389610D01*
X8591410Y-6339610D02*
X8691410Y-6339610D01*
X8641410Y-6543610D02*
X8641410Y-6643610D01*
X8591410Y-6593610D02*
X8691410Y-6593610D01*
X8641410Y-6797610D02*
X8641410Y-6897610D01*
X8591410Y-6847610D02*
X8691410Y-6847610D01*
X8641410Y-7051610D02*
X8641410Y-7151610D01*
X8591410Y-7101610D02*
X8691410Y-7101610D01*
X8641410Y-7305610D02*
X8641410Y-7405610D01*
X8591410Y-7355610D02*
X8691410Y-7355610D01*
X8641410Y-7559610D02*
X8641410Y-7659610D01*
X8591410Y-7609610D02*
X8691410Y-7609610D01*
X8641410Y-7813610D02*
X8641410Y-7913610D01*
X8591410Y-7863610D02*
X8691410Y-7863610D01*
X8641410Y-8067610D02*
X8641410Y-8167610D01*
X8591410Y-8117610D02*
X8691410Y-8117610D01*
X8641410Y-8321610D02*
X8641410Y-8421610D01*
X8591410Y-8371610D02*
X8691410Y-8371610D01*
X8641410Y-8575610D02*
X8641410Y-8675610D01*
X8591410Y-8625610D02*
X8691410Y-8625610D01*
X8641410Y-8829610D02*
X8641410Y-8929610D01*
X8591410Y-8879610D02*
X8691410Y-8879610D01*
X8641410Y-9083610D02*
X8641410Y-9183610D01*
X8591410Y-9133610D02*
X8691410Y-9133610D01*
X8641410Y-9337610D02*
X8641410Y-9437610D01*
X8591410Y-9387610D02*
X8691410Y-9387610D01*
X8641410Y-9591610D02*
X8641410Y-9691610D01*
X8591410Y-9641610D02*
X8691410Y-9641610D01*
X8641410Y-9845610D02*
X8641410Y-9945610D01*
X8591410Y-9895610D02*
X8691410Y-9895610D01*
X8641410Y-10099610D02*
X8641410Y-10199610D01*
X8591410Y-10149610D02*
X8691410Y-10149610D01*
X8641410Y-10353610D02*
X8641410Y-10453610D01*
X8591410Y-10403610D02*
X8691410Y-10403610D01*
X8641410Y-10607610D02*
X8641410Y-10707610D01*
X8591410Y-10657610D02*
X8691410Y-10657610D01*
X8641410Y-10861610D02*
X8641410Y-10961610D01*
X8591410Y-10911610D02*
X8691410Y-10911610D01*
X8641410Y-11115610D02*
X8641410Y-11215610D01*
X8591410Y-11165610D02*
X8691410Y-11165610D01*
X8641410Y-11369610D02*
X8641410Y-11469610D01*
X8591410Y-11419610D02*
X8691410Y-11419610D01*
X8641410Y-11623610D02*
X8641410Y-11723610D01*
X8591410Y-11673610D02*
X8691410Y-11673610D01*
X8641410Y-11877610D02*
X8641410Y-11977610D01*
X8591410Y-11927610D02*
X8691410Y-11927610D01*
X8641410Y-12131610D02*
X8641410Y-12231610D01*
X8591410Y-12181610D02*
X8691410Y-12181610D01*
X8641410Y-12385610D02*
X8641410Y-12485610D01*
X8591410Y-12435610D02*
X8691410Y-12435610D01*
X8641410Y-12639610D02*
X8641410Y-12739610D01*
X8591410Y-12689610D02*
X8691410Y-12689610D01*
X8641410Y-12893610D02*
X8641410Y-12993610D01*
X8591410Y-12943610D02*
X8691410Y-12943610D01*
X8641410Y-13147610D02*
X8641410Y-13247610D01*
X8591410Y-13197610D02*
X8691410Y-13197610D01*
X8641410Y-13401610D02*
X8641410Y-13501610D01*
X8591410Y-13451610D02*
X8691410Y-13451610D01*
X8895410Y-5527610D02*
X8895410Y-5627610D01*
X8845410Y-5577610D02*
X8945410Y-5577610D01*
X8895410Y-5781610D02*
X8895410Y-5881610D01*
X8845410Y-5831610D02*
X8945410Y-5831610D01*
X8895410Y-6035610D02*
X8895410Y-6135610D01*
X8845410Y-6085610D02*
X8945410Y-6085610D01*
X8895410Y-6289610D02*
X8895410Y-6389610D01*
X8845410Y-6339610D02*
X8945410Y-6339610D01*
X8895410Y-6543610D02*
X8895410Y-6643610D01*
X8845410Y-6593610D02*
X8945410Y-6593610D01*
X8895410Y-6797610D02*
X8895410Y-6897610D01*
X8845410Y-6847610D02*
X8945410Y-6847610D01*
X8895410Y-7051610D02*
X8895410Y-7151610D01*
X8845410Y-7101610D02*
X8945410Y-7101610D01*
X8895410Y-7305610D02*
X8895410Y-7405610D01*
X8845410Y-7355610D02*
X8945410Y-7355610D01*
X8895410Y-7559610D02*
X8895410Y-7659610D01*
X8845410Y-7609610D02*
X8945410Y-7609610D01*
X8895410Y-7813610D02*
X8895410Y-7913610D01*
X8845410Y-7863610D02*
X8945410Y-7863610D01*
X8895410Y-8067610D02*
X8895410Y-8167610D01*
X8845410Y-8117610D02*
X8945410Y-8117610D01*
X8895410Y-8321610D02*
X8895410Y-8421610D01*
X8845410Y-8371610D02*
X8945410Y-8371610D01*
X8895410Y-8575610D02*
X8895410Y-8675610D01*
X8845410Y-8625610D02*
X8945410Y-8625610D01*
X8895410Y-8829610D02*
X8895410Y-8929610D01*
X8845410Y-8879610D02*
X8945410Y-8879610D01*
X8895410Y-9083610D02*
X8895410Y-9183610D01*
X8845410Y-9133610D02*
X8945410Y-9133610D01*
X8895410Y-9337610D02*
X8895410Y-9437610D01*
X8845410Y-9387610D02*
X8945410Y-9387610D01*
X8895410Y-9591610D02*
X8895410Y-9691610D01*
X8845410Y-9641610D02*
X8945410Y-9641610D01*
X8895410Y-9845610D02*
X8895410Y-9945610D01*
X8845410Y-9895610D02*
X8945410Y-9895610D01*
X8895410Y-10099610D02*
X8895410Y-10199610D01*
X8845410Y-10149610D02*
X8945410Y-10149610D01*
X8895410Y-10353610D02*
X8895410Y-10453610D01*
X8845410Y-10403610D02*
X8945410Y-10403610D01*
X8895410Y-10607610D02*
X8895410Y-10707610D01*
X8845410Y-10657610D02*
X8945410Y-10657610D01*
X8895410Y-10861610D02*
X8895410Y-10961610D01*
X8845410Y-10911610D02*
X8945410Y-10911610D01*
X8895410Y-11115610D02*
X8895410Y-11215610D01*
X8845410Y-11165610D02*
X8945410Y-11165610D01*
X8895410Y-11369610D02*
X8895410Y-11469610D01*
X8845410Y-11419610D02*
X8945410Y-11419610D01*
X8895410Y-11623610D02*
X8895410Y-11723610D01*
X8845410Y-11673610D02*
X8945410Y-11673610D01*
X8895410Y-11877610D02*
X8895410Y-11977610D01*
X8845410Y-11927610D02*
X8945410Y-11927610D01*
X8895410Y-12131610D02*
X8895410Y-12231610D01*
X8845410Y-12181610D02*
X8945410Y-12181610D01*
X8895410Y-12385610D02*
X8895410Y-12485610D01*
X8845410Y-12435610D02*
X8945410Y-12435610D01*
X8895410Y-12639610D02*
X8895410Y-12739610D01*
X8845410Y-12689610D02*
X8945410Y-12689610D01*
X8895410Y-12893610D02*
X8895410Y-12993610D01*
X8845410Y-12943610D02*
X8945410Y-12943610D01*
X8895410Y-13147610D02*
X8895410Y-13247610D01*
X8845410Y-13197610D02*
X8945410Y-13197610D01*
X8895410Y-13401610D02*
X8895410Y-13501610D01*
X8845410Y-13451610D02*
X8945410Y-13451610D01*
X13233400Y-9703600D02*
X13233400Y-9803600D01*
X13183400Y-9753600D02*
X13283400Y-9753600D01*
X13233400Y-9957600D02*
X13233400Y-10057600D01*
X13183400Y-10007600D02*
X13283400Y-10007600D01*
X13233400Y-10211600D02*
X13233400Y-10311600D01*
X13183400Y-10261600D02*
X13283400Y-10261600D01*
X13233400Y-10465600D02*
X13233400Y-10565600D01*
X13183400Y-10515600D02*
X13283400Y-10515600D01*
X13233400Y-10719600D02*
X13233400Y-10819600D01*
X13183400Y-10769600D02*
X13283400Y-10769600D01*
X13233400Y-10973600D02*
X13233400Y-11073600D01*
X13183400Y-11023600D02*
X13283400Y-11023600D01*
X13233400Y-11227600D02*
X13233400Y-11327600D01*
X13183400Y-11277600D02*
X13283400Y-11277600D01*
X13233400Y-11481600D02*
X13233400Y-11581600D01*
X13183400Y-11531600D02*
X13283400Y-11531600D01*
X13233400Y-12292900D02*
X13233400Y-12392900D01*
X13183400Y-12342900D02*
X13283400Y-12342900D01*
X13233400Y-12546900D02*
X13233400Y-12646900D01*
X13183400Y-12596900D02*
X13283400Y-12596900D01*
X13233400Y-12800900D02*
X13233400Y-12900900D01*
X13183400Y-12850900D02*
X13283400Y-12850900D01*
X13233400Y-13054900D02*
X13233400Y-13154900D01*
X13183400Y-13104900D02*
X13283400Y-13104900D01*
X13233400Y-13308900D02*
X13233400Y-13408900D01*
X13183400Y-13358900D02*
X13283400Y-13358900D01*
X13233400Y-13562900D02*
X13233400Y-13662900D01*
X13183400Y-13612900D02*
X13283400Y-13612900D01*
X14681200Y-7087400D02*
X14681200Y-7187400D01*
X14631200Y-7137400D02*
X14731200Y-7137400D01*
X14681200Y-11913400D02*
X14681200Y-12013400D01*
X14631200Y-11963400D02*
X14731200Y-11963400D01*
X14935200Y-7087400D02*
X14935200Y-7187400D01*
X14885200Y-7137400D02*
X14985200Y-7137400D01*
X14935200Y-11913400D02*
X14935200Y-12013400D01*
X14885200Y-11963400D02*
X14985200Y-11963400D01*
X15189200Y-7087400D02*
X15189200Y-7187400D01*
X15139200Y-7137400D02*
X15239200Y-7137400D01*
X15189200Y-11913400D02*
X15189200Y-12013400D01*
X15139200Y-11963400D02*
X15239200Y-11963400D01*
X15443200Y-7087400D02*
X15443200Y-7187400D01*
X15393200Y-7137400D02*
X15493200Y-7137400D01*
X15443200Y-11913400D02*
X15443200Y-12013400D01*
X15393200Y-11963400D02*
X15493200Y-11963400D01*
X15697200Y-7087400D02*
X15697200Y-7187400D01*
X15647200Y-7137400D02*
X15747200Y-7137400D01*
X15697200Y-11913400D02*
X15697200Y-12013400D01*
X15647200Y-11963400D02*
X15747200Y-11963400D01*
X15951200Y-7087400D02*
X15951200Y-7187400D01*
X15901200Y-7137400D02*
X16001200Y-7137400D01*
X15951200Y-11913400D02*
X15951200Y-12013400D01*
X15901200Y-11963400D02*
X16001200Y-11963400D01*
X17094200Y-8180600D02*
X17094200Y-8280600D01*
X17044200Y-8230600D02*
X17144200Y-8230600D01*
X17094200Y-8434600D02*
X17094200Y-8534600D01*
X17044200Y-8484600D02*
X17144200Y-8484600D01*
X17094200Y-8688600D02*
X17094200Y-8788600D01*
X17044200Y-8738600D02*
X17144200Y-8738600D01*
X17094200Y-8942600D02*
X17094200Y-9042600D01*
X17044200Y-8992600D02*
X17144200Y-8992600D01*
X17094200Y-9196600D02*
X17094200Y-9296600D01*
X17044200Y-9246600D02*
X17144200Y-9246600D01*
X17094200Y-9450600D02*
X17094200Y-9550600D01*
X17044200Y-9500600D02*
X17144200Y-9500600D01*
X17094200Y-9704600D02*
X17094200Y-9804600D01*
X17044200Y-9754600D02*
X17144200Y-9754600D01*
X17094200Y-9958600D02*
X17094200Y-10058600D01*
X17044200Y-10008600D02*
X17144200Y-10008600D01*
X17094200Y-10212600D02*
X17094200Y-10312600D01*
X17044200Y-10262600D02*
X17144200Y-10262600D01*
D11*
X8484024Y-14820681D02*
X8484024Y-14620681D01*
X8531643Y-14620681D01*
X8560215Y-14630205D01*
X8579262Y-14649253D01*
X8588786Y-14668300D01*
X8598310Y-14706395D01*
X8598310Y-14734967D01*
X8588786Y-14773062D01*
X8579262Y-14792110D01*
X8560215Y-14811157D01*
X8531643Y-14820681D01*
X8484024Y-14820681D01*
X8684024Y-14820681D02*
X8684024Y-14687348D01*
X8684024Y-14725443D02*
X8693548Y-14706395D01*
X8703072Y-14696872D01*
X8722119Y-14687348D01*
X8741167Y-14687348D01*
X8807834Y-14820681D02*
X8807834Y-14687348D01*
X8807834Y-14620681D02*
X8798310Y-14630205D01*
X8807834Y-14639729D01*
X8817357Y-14630205D01*
X8807834Y-14620681D01*
X8807834Y-14639729D01*
X8931643Y-14820681D02*
X8912596Y-14811157D01*
X8903072Y-14792110D01*
X8903072Y-14620681D01*
X9036405Y-14820681D02*
X9017357Y-14811157D01*
X9007834Y-14792110D01*
X9007834Y-14620681D01*
X9264977Y-14820681D02*
X9264977Y-14620681D01*
X9331643Y-14763538D01*
X9398310Y-14620681D01*
X9398310Y-14820681D01*
X9579262Y-14820681D02*
X9579262Y-14715919D01*
X9569738Y-14696872D01*
X9550691Y-14687348D01*
X9512596Y-14687348D01*
X9493548Y-14696872D01*
X9579262Y-14811157D02*
X9560215Y-14820681D01*
X9512596Y-14820681D01*
X9493548Y-14811157D01*
X9484024Y-14792110D01*
X9484024Y-14773062D01*
X9493548Y-14754015D01*
X9512596Y-14744491D01*
X9560215Y-14744491D01*
X9579262Y-14734967D01*
X9674500Y-14687348D02*
X9674500Y-14887348D01*
X9674500Y-14696872D02*
X9693548Y-14687348D01*
X9731643Y-14687348D01*
X9750691Y-14696872D01*
X9760215Y-14706395D01*
X9769738Y-14725443D01*
X9769738Y-14782586D01*
X9760215Y-14801634D01*
X9750691Y-14811157D01*
X9731643Y-14820681D01*
X9693548Y-14820681D01*
X9674500Y-14811157D01*
X9855453Y-14801634D02*
X9864977Y-14811157D01*
X9855453Y-14820681D01*
X9845929Y-14811157D01*
X9855453Y-14801634D01*
X9855453Y-14820681D01*
X9855453Y-14696872D02*
X9864977Y-14706395D01*
X9855453Y-14715919D01*
X9845929Y-14706395D01*
X9855453Y-14696872D01*
X9855453Y-14715919D01*
D12*
X8186405Y-15130205D02*
X8226405Y-15170205D01*
X8226405Y-15130205D02*
X8186405Y-15170205D01*
D11*
X8522119Y-15040681D02*
X8541167Y-15040681D01*
X8560215Y-15050205D01*
X8569738Y-15059729D01*
X8579262Y-15078776D01*
X8588786Y-15116872D01*
X8588786Y-15164491D01*
X8579262Y-15202586D01*
X8569738Y-15221634D01*
X8560215Y-15231157D01*
X8541167Y-15240681D01*
X8522119Y-15240681D01*
X8503072Y-15231157D01*
X8493548Y-15221634D01*
X8484024Y-15202586D01*
X8474500Y-15164491D01*
X8474500Y-15116872D01*
X8484024Y-15078776D01*
X8493548Y-15059729D01*
X8503072Y-15050205D01*
X8522119Y-15040681D01*
X8674500Y-15221634D02*
X8684024Y-15231157D01*
X8674500Y-15240681D01*
X8664977Y-15231157D01*
X8674500Y-15221634D01*
X8674500Y-15240681D01*
X8855453Y-15107348D02*
X8855453Y-15240681D01*
X8807834Y-15031157D02*
X8760215Y-15174015D01*
X8884024Y-15174015D01*
X8998310Y-15040681D02*
X9017357Y-15040681D01*
X9036405Y-15050205D01*
X9045929Y-15059729D01*
X9055453Y-15078776D01*
X9064977Y-15116872D01*
X9064977Y-15164491D01*
X9055453Y-15202586D01*
X9045929Y-15221634D01*
X9036405Y-15231157D01*
X9017357Y-15240681D01*
X8998310Y-15240681D01*
X8979262Y-15231157D01*
X8969738Y-15221634D01*
X8960215Y-15202586D01*
X8950691Y-15164491D01*
X8950691Y-15116872D01*
X8960215Y-15078776D01*
X8969738Y-15059729D01*
X8979262Y-15050205D01*
X8998310Y-15040681D01*
X9188786Y-15040681D02*
X9207834Y-15040681D01*
X9226881Y-15050205D01*
X9236405Y-15059729D01*
X9245929Y-15078776D01*
X9255453Y-15116872D01*
X9255453Y-15164491D01*
X9245929Y-15202586D01*
X9236405Y-15221634D01*
X9226881Y-15231157D01*
X9207834Y-15240681D01*
X9188786Y-15240681D01*
X9169738Y-15231157D01*
X9160215Y-15221634D01*
X9150691Y-15202586D01*
X9141167Y-15164491D01*
X9141167Y-15116872D01*
X9150691Y-15078776D01*
X9160215Y-15059729D01*
X9169738Y-15050205D01*
X9188786Y-15040681D01*
X9341167Y-15240681D02*
X9341167Y-15107348D01*
X9341167Y-15126395D02*
X9350691Y-15116872D01*
X9369738Y-15107348D01*
X9398310Y-15107348D01*
X9417357Y-15116872D01*
X9426881Y-15135919D01*
X9426881Y-15240681D01*
X9426881Y-15135919D02*
X9436405Y-15116872D01*
X9455453Y-15107348D01*
X9484024Y-15107348D01*
X9503072Y-15116872D01*
X9512596Y-15135919D01*
X9512596Y-15240681D01*
X9607834Y-15240681D02*
X9607834Y-15107348D01*
X9607834Y-15126395D02*
X9617357Y-15116872D01*
X9636405Y-15107348D01*
X9664977Y-15107348D01*
X9684024Y-15116872D01*
X9693548Y-15135919D01*
X9693548Y-15240681D01*
X9693548Y-15135919D02*
X9703072Y-15116872D01*
X9722119Y-15107348D01*
X9750691Y-15107348D01*
X9769738Y-15116872D01*
X9779262Y-15135919D01*
X9779262Y-15240681D01*
X10169738Y-15031157D02*
X9998310Y-15288300D01*
X10426881Y-15040681D02*
X10445929Y-15040681D01*
X10464977Y-15050205D01*
X10474500Y-15059729D01*
X10484024Y-15078776D01*
X10493548Y-15116872D01*
X10493548Y-15164491D01*
X10484024Y-15202586D01*
X10474500Y-15221634D01*
X10464977Y-15231157D01*
X10445929Y-15240681D01*
X10426881Y-15240681D01*
X10407834Y-15231157D01*
X10398310Y-15221634D01*
X10388786Y-15202586D01*
X10379262Y-15164491D01*
X10379262Y-15116872D01*
X10388786Y-15078776D01*
X10398310Y-15059729D01*
X10407834Y-15050205D01*
X10426881Y-15040681D01*
X10579262Y-15221634D02*
X10588786Y-15231157D01*
X10579262Y-15240681D01*
X10569738Y-15231157D01*
X10579262Y-15221634D01*
X10579262Y-15240681D01*
X10712596Y-15040681D02*
X10731643Y-15040681D01*
X10750691Y-15050205D01*
X10760215Y-15059729D01*
X10769738Y-15078776D01*
X10779262Y-15116872D01*
X10779262Y-15164491D01*
X10769738Y-15202586D01*
X10760215Y-15221634D01*
X10750691Y-15231157D01*
X10731643Y-15240681D01*
X10712596Y-15240681D01*
X10693548Y-15231157D01*
X10684024Y-15221634D01*
X10674500Y-15202586D01*
X10664977Y-15164491D01*
X10664977Y-15116872D01*
X10674500Y-15078776D01*
X10684024Y-15059729D01*
X10693548Y-15050205D01*
X10712596Y-15040681D01*
X10969738Y-15240681D02*
X10855453Y-15240681D01*
X10912596Y-15240681D02*
X10912596Y-15040681D01*
X10893548Y-15069253D01*
X10874500Y-15088300D01*
X10855453Y-15097824D01*
X11150691Y-15040681D02*
X11055453Y-15040681D01*
X11045929Y-15135919D01*
X11055453Y-15126395D01*
X11074500Y-15116872D01*
X11122119Y-15116872D01*
X11141167Y-15126395D01*
X11150691Y-15135919D01*
X11160215Y-15154967D01*
X11160215Y-15202586D01*
X11150691Y-15221634D01*
X11141167Y-15231157D01*
X11122119Y-15240681D01*
X11074500Y-15240681D01*
X11055453Y-15231157D01*
X11045929Y-15221634D01*
X11226881Y-15040681D02*
X11360215Y-15040681D01*
X11274500Y-15240681D01*
X11426881Y-15040681D02*
X11426881Y-15078776D01*
X11503072Y-15040681D02*
X11503072Y-15078776D01*
X11798310Y-15316872D02*
X11788786Y-15307348D01*
X11769738Y-15278776D01*
X11760215Y-15259729D01*
X11750691Y-15231157D01*
X11741167Y-15183538D01*
X11741167Y-15145443D01*
X11750691Y-15097824D01*
X11760215Y-15069253D01*
X11769738Y-15050205D01*
X11788786Y-15021634D01*
X11798310Y-15012110D01*
X11969738Y-15040681D02*
X11874500Y-15040681D01*
X11864976Y-15135919D01*
X11874500Y-15126395D01*
X11893548Y-15116872D01*
X11941167Y-15116872D01*
X11960215Y-15126395D01*
X11969738Y-15135919D01*
X11979262Y-15154967D01*
X11979262Y-15202586D01*
X11969738Y-15221634D01*
X11960215Y-15231157D01*
X11941167Y-15240681D01*
X11893548Y-15240681D01*
X11874500Y-15231157D01*
X11864976Y-15221634D01*
X12217357Y-15240681D02*
X12217357Y-15040681D01*
X12303072Y-15240681D02*
X12303072Y-15135919D01*
X12293548Y-15116872D01*
X12274500Y-15107348D01*
X12245929Y-15107348D01*
X12226881Y-15116872D01*
X12217357Y-15126395D01*
X12426881Y-15240681D02*
X12407834Y-15231157D01*
X12398310Y-15221634D01*
X12388786Y-15202586D01*
X12388786Y-15145443D01*
X12398310Y-15126395D01*
X12407834Y-15116872D01*
X12426881Y-15107348D01*
X12455453Y-15107348D01*
X12474500Y-15116872D01*
X12484024Y-15126395D01*
X12493548Y-15145443D01*
X12493548Y-15202586D01*
X12484024Y-15221634D01*
X12474500Y-15231157D01*
X12455453Y-15240681D01*
X12426881Y-15240681D01*
X12607834Y-15240681D02*
X12588786Y-15231157D01*
X12579262Y-15212110D01*
X12579262Y-15040681D01*
X12760215Y-15231157D02*
X12741167Y-15240681D01*
X12703072Y-15240681D01*
X12684024Y-15231157D01*
X12674500Y-15212110D01*
X12674500Y-15135919D01*
X12684024Y-15116872D01*
X12703072Y-15107348D01*
X12741167Y-15107348D01*
X12760215Y-15116872D01*
X12769738Y-15135919D01*
X12769738Y-15154967D01*
X12674500Y-15174015D01*
X12845929Y-15231157D02*
X12864976Y-15240681D01*
X12903072Y-15240681D01*
X12922119Y-15231157D01*
X12931643Y-15212110D01*
X12931643Y-15202586D01*
X12922119Y-15183538D01*
X12903072Y-15174015D01*
X12874500Y-15174015D01*
X12855453Y-15164491D01*
X12845929Y-15145443D01*
X12845929Y-15135919D01*
X12855453Y-15116872D01*
X12874500Y-15107348D01*
X12903072Y-15107348D01*
X12922119Y-15116872D01*
X12998310Y-15316872D02*
X13007834Y-15307348D01*
X13026881Y-15278776D01*
X13036405Y-15259729D01*
X13045929Y-15231157D01*
X13055453Y-15183538D01*
X13055453Y-15145443D01*
X13045929Y-15097824D01*
X13036405Y-15069253D01*
X13026881Y-15050205D01*
X13007834Y-15021634D01*
X12998310Y-15012110D01*
D13*
X8226405Y-15414205D02*
G75*
G03*
X8226405Y-15414205I-40000J0D01*
G01*
D11*
X8522119Y-15304681D02*
X8541167Y-15304681D01*
X8560215Y-15314205D01*
X8569738Y-15323729D01*
X8579262Y-15342776D01*
X8588786Y-15380872D01*
X8588786Y-15428491D01*
X8579262Y-15466586D01*
X8569738Y-15485634D01*
X8560215Y-15495157D01*
X8541167Y-15504681D01*
X8522119Y-15504681D01*
X8503072Y-15495157D01*
X8493548Y-15485634D01*
X8484024Y-15466586D01*
X8474500Y-15428491D01*
X8474500Y-15380872D01*
X8484024Y-15342776D01*
X8493548Y-15323729D01*
X8503072Y-15314205D01*
X8522119Y-15304681D01*
X8674500Y-15485634D02*
X8684024Y-15495157D01*
X8674500Y-15504681D01*
X8664977Y-15495157D01*
X8674500Y-15485634D01*
X8674500Y-15504681D01*
X8798310Y-15390395D02*
X8779262Y-15380872D01*
X8769738Y-15371348D01*
X8760215Y-15352300D01*
X8760215Y-15342776D01*
X8769738Y-15323729D01*
X8779262Y-15314205D01*
X8798310Y-15304681D01*
X8836405Y-15304681D01*
X8855453Y-15314205D01*
X8864977Y-15323729D01*
X8874500Y-15342776D01*
X8874500Y-15352300D01*
X8864977Y-15371348D01*
X8855453Y-15380872D01*
X8836405Y-15390395D01*
X8798310Y-15390395D01*
X8779262Y-15399919D01*
X8769738Y-15409443D01*
X8760215Y-15428491D01*
X8760215Y-15466586D01*
X8769738Y-15485634D01*
X8779262Y-15495157D01*
X8798310Y-15504681D01*
X8836405Y-15504681D01*
X8855453Y-15495157D01*
X8864977Y-15485634D01*
X8874500Y-15466586D01*
X8874500Y-15428491D01*
X8864977Y-15409443D01*
X8855453Y-15399919D01*
X8836405Y-15390395D01*
X8998310Y-15304681D02*
X9017357Y-15304681D01*
X9036405Y-15314205D01*
X9045929Y-15323729D01*
X9055453Y-15342776D01*
X9064977Y-15380872D01*
X9064977Y-15428491D01*
X9055453Y-15466586D01*
X9045929Y-15485634D01*
X9036405Y-15495157D01*
X9017357Y-15504681D01*
X8998310Y-15504681D01*
X8979262Y-15495157D01*
X8969738Y-15485634D01*
X8960215Y-15466586D01*
X8950691Y-15428491D01*
X8950691Y-15380872D01*
X8960215Y-15342776D01*
X8969738Y-15323729D01*
X8979262Y-15314205D01*
X8998310Y-15304681D01*
X9188786Y-15304681D02*
X9207834Y-15304681D01*
X9226881Y-15314205D01*
X9236405Y-15323729D01*
X9245929Y-15342776D01*
X9255453Y-15380872D01*
X9255453Y-15428491D01*
X9245929Y-15466586D01*
X9236405Y-15485634D01*
X9226881Y-15495157D01*
X9207834Y-15504681D01*
X9188786Y-15504681D01*
X9169738Y-15495157D01*
X9160215Y-15485634D01*
X9150691Y-15466586D01*
X9141167Y-15428491D01*
X9141167Y-15380872D01*
X9150691Y-15342776D01*
X9160215Y-15323729D01*
X9169738Y-15314205D01*
X9188786Y-15304681D01*
X9341167Y-15504681D02*
X9341167Y-15371348D01*
X9341167Y-15390395D02*
X9350691Y-15380872D01*
X9369738Y-15371348D01*
X9398310Y-15371348D01*
X9417357Y-15380872D01*
X9426881Y-15399919D01*
X9426881Y-15504681D01*
X9426881Y-15399919D02*
X9436405Y-15380872D01*
X9455453Y-15371348D01*
X9484024Y-15371348D01*
X9503072Y-15380872D01*
X9512596Y-15399919D01*
X9512596Y-15504681D01*
X9607834Y-15504681D02*
X9607834Y-15371348D01*
X9607834Y-15390395D02*
X9617357Y-15380872D01*
X9636405Y-15371348D01*
X9664977Y-15371348D01*
X9684024Y-15380872D01*
X9693548Y-15399919D01*
X9693548Y-15504681D01*
X9693548Y-15399919D02*
X9703072Y-15380872D01*
X9722119Y-15371348D01*
X9750691Y-15371348D01*
X9769738Y-15380872D01*
X9779262Y-15399919D01*
X9779262Y-15504681D01*
X10169738Y-15295157D02*
X9998310Y-15552300D01*
X10426881Y-15304681D02*
X10445929Y-15304681D01*
X10464977Y-15314205D01*
X10474500Y-15323729D01*
X10484024Y-15342776D01*
X10493548Y-15380872D01*
X10493548Y-15428491D01*
X10484024Y-15466586D01*
X10474500Y-15485634D01*
X10464977Y-15495157D01*
X10445929Y-15504681D01*
X10426881Y-15504681D01*
X10407834Y-15495157D01*
X10398310Y-15485634D01*
X10388786Y-15466586D01*
X10379262Y-15428491D01*
X10379262Y-15380872D01*
X10388786Y-15342776D01*
X10398310Y-15323729D01*
X10407834Y-15314205D01*
X10426881Y-15304681D01*
X10579262Y-15485634D02*
X10588786Y-15495157D01*
X10579262Y-15504681D01*
X10569738Y-15495157D01*
X10579262Y-15485634D01*
X10579262Y-15504681D01*
X10712596Y-15304681D02*
X10731643Y-15304681D01*
X10750691Y-15314205D01*
X10760215Y-15323729D01*
X10769738Y-15342776D01*
X10779262Y-15380872D01*
X10779262Y-15428491D01*
X10769738Y-15466586D01*
X10760215Y-15485634D01*
X10750691Y-15495157D01*
X10731643Y-15504681D01*
X10712596Y-15504681D01*
X10693548Y-15495157D01*
X10684024Y-15485634D01*
X10674500Y-15466586D01*
X10664977Y-15428491D01*
X10664977Y-15380872D01*
X10674500Y-15342776D01*
X10684024Y-15323729D01*
X10693548Y-15314205D01*
X10712596Y-15304681D01*
X10845929Y-15304681D02*
X10969738Y-15304681D01*
X10903072Y-15380872D01*
X10931643Y-15380872D01*
X10950691Y-15390395D01*
X10960215Y-15399919D01*
X10969738Y-15418967D01*
X10969738Y-15466586D01*
X10960215Y-15485634D01*
X10950691Y-15495157D01*
X10931643Y-15504681D01*
X10874500Y-15504681D01*
X10855453Y-15495157D01*
X10845929Y-15485634D01*
X11160215Y-15504681D02*
X11045929Y-15504681D01*
X11103072Y-15504681D02*
X11103072Y-15304681D01*
X11084024Y-15333253D01*
X11064977Y-15352300D01*
X11045929Y-15361824D01*
X11341167Y-15304681D02*
X11245929Y-15304681D01*
X11236405Y-15399919D01*
X11245929Y-15390395D01*
X11264976Y-15380872D01*
X11312595Y-15380872D01*
X11331643Y-15390395D01*
X11341167Y-15399919D01*
X11350691Y-15418967D01*
X11350691Y-15466586D01*
X11341167Y-15485634D01*
X11331643Y-15495157D01*
X11312595Y-15504681D01*
X11264976Y-15504681D01*
X11245929Y-15495157D01*
X11236405Y-15485634D01*
X11426881Y-15304681D02*
X11426881Y-15342776D01*
X11503072Y-15304681D02*
X11503072Y-15342776D01*
X11798310Y-15580872D02*
X11788786Y-15571348D01*
X11769738Y-15542776D01*
X11760215Y-15523729D01*
X11750691Y-15495157D01*
X11741167Y-15447538D01*
X11741167Y-15409443D01*
X11750691Y-15361824D01*
X11760215Y-15333253D01*
X11769738Y-15314205D01*
X11788786Y-15285634D01*
X11798310Y-15276110D01*
X11855453Y-15304681D02*
X11988786Y-15304681D01*
X11903072Y-15504681D01*
X12103072Y-15304681D02*
X12122119Y-15304681D01*
X12141167Y-15314205D01*
X12150691Y-15323729D01*
X12160215Y-15342776D01*
X12169738Y-15380872D01*
X12169738Y-15428491D01*
X12160215Y-15466586D01*
X12150691Y-15485634D01*
X12141167Y-15495157D01*
X12122119Y-15504681D01*
X12103072Y-15504681D01*
X12084024Y-15495157D01*
X12074500Y-15485634D01*
X12064976Y-15466586D01*
X12055453Y-15428491D01*
X12055453Y-15380872D01*
X12064976Y-15342776D01*
X12074500Y-15323729D01*
X12084024Y-15314205D01*
X12103072Y-15304681D01*
X12407834Y-15504681D02*
X12407834Y-15304681D01*
X12493548Y-15504681D02*
X12493548Y-15399919D01*
X12484024Y-15380872D01*
X12464976Y-15371348D01*
X12436405Y-15371348D01*
X12417357Y-15380872D01*
X12407834Y-15390395D01*
X12617357Y-15504681D02*
X12598310Y-15495157D01*
X12588786Y-15485634D01*
X12579262Y-15466586D01*
X12579262Y-15409443D01*
X12588786Y-15390395D01*
X12598310Y-15380872D01*
X12617357Y-15371348D01*
X12645929Y-15371348D01*
X12664976Y-15380872D01*
X12674500Y-15390395D01*
X12684024Y-15409443D01*
X12684024Y-15466586D01*
X12674500Y-15485634D01*
X12664976Y-15495157D01*
X12645929Y-15504681D01*
X12617357Y-15504681D01*
X12798310Y-15504681D02*
X12779262Y-15495157D01*
X12769738Y-15476110D01*
X12769738Y-15304681D01*
X12950691Y-15495157D02*
X12931643Y-15504681D01*
X12893548Y-15504681D01*
X12874500Y-15495157D01*
X12864976Y-15476110D01*
X12864976Y-15399919D01*
X12874500Y-15380872D01*
X12893548Y-15371348D01*
X12931643Y-15371348D01*
X12950691Y-15380872D01*
X12960215Y-15399919D01*
X12960215Y-15418967D01*
X12864976Y-15438015D01*
X13036405Y-15495157D02*
X13055453Y-15504681D01*
X13093548Y-15504681D01*
X13112595Y-15495157D01*
X13122119Y-15476110D01*
X13122119Y-15466586D01*
X13112595Y-15447538D01*
X13093548Y-15438015D01*
X13064976Y-15438015D01*
X13045929Y-15428491D01*
X13036405Y-15409443D01*
X13036405Y-15399919D01*
X13045929Y-15380872D01*
X13064976Y-15371348D01*
X13093548Y-15371348D01*
X13112595Y-15380872D01*
X13188786Y-15580872D02*
X13198310Y-15571348D01*
X13217357Y-15542776D01*
X13226881Y-15523729D01*
X13236405Y-15495157D01*
X13245929Y-15447538D01*
X13245929Y-15409443D01*
X13236405Y-15361824D01*
X13226881Y-15333253D01*
X13217357Y-15314205D01*
X13198310Y-15285634D01*
X13188786Y-15276110D01*
D10*
X8176405Y-15628205D02*
X8176405Y-15728205D01*
X8126405Y-15678205D02*
X8226405Y-15678205D01*
D11*
X8588786Y-15768681D02*
X8474500Y-15768681D01*
X8531643Y-15768681D02*
X8531643Y-15568681D01*
X8512596Y-15597253D01*
X8493548Y-15616300D01*
X8474500Y-15625824D01*
X8674500Y-15749634D02*
X8684024Y-15759157D01*
X8674500Y-15768681D01*
X8664977Y-15759157D01*
X8674500Y-15749634D01*
X8674500Y-15768681D01*
X8807834Y-15568681D02*
X8826881Y-15568681D01*
X8845929Y-15578205D01*
X8855453Y-15587729D01*
X8864977Y-15606776D01*
X8874500Y-15644872D01*
X8874500Y-15692491D01*
X8864977Y-15730586D01*
X8855453Y-15749634D01*
X8845929Y-15759157D01*
X8826881Y-15768681D01*
X8807834Y-15768681D01*
X8788786Y-15759157D01*
X8779262Y-15749634D01*
X8769738Y-15730586D01*
X8760215Y-15692491D01*
X8760215Y-15644872D01*
X8769738Y-15606776D01*
X8779262Y-15587729D01*
X8788786Y-15578205D01*
X8807834Y-15568681D01*
X8998310Y-15568681D02*
X9017357Y-15568681D01*
X9036405Y-15578205D01*
X9045929Y-15587729D01*
X9055453Y-15606776D01*
X9064977Y-15644872D01*
X9064977Y-15692491D01*
X9055453Y-15730586D01*
X9045929Y-15749634D01*
X9036405Y-15759157D01*
X9017357Y-15768681D01*
X8998310Y-15768681D01*
X8979262Y-15759157D01*
X8969738Y-15749634D01*
X8960215Y-15730586D01*
X8950691Y-15692491D01*
X8950691Y-15644872D01*
X8960215Y-15606776D01*
X8969738Y-15587729D01*
X8979262Y-15578205D01*
X8998310Y-15568681D01*
X9188786Y-15568681D02*
X9207834Y-15568681D01*
X9226881Y-15578205D01*
X9236405Y-15587729D01*
X9245929Y-15606776D01*
X9255453Y-15644872D01*
X9255453Y-15692491D01*
X9245929Y-15730586D01*
X9236405Y-15749634D01*
X9226881Y-15759157D01*
X9207834Y-15768681D01*
X9188786Y-15768681D01*
X9169738Y-15759157D01*
X9160215Y-15749634D01*
X9150691Y-15730586D01*
X9141167Y-15692491D01*
X9141167Y-15644872D01*
X9150691Y-15606776D01*
X9160215Y-15587729D01*
X9169738Y-15578205D01*
X9188786Y-15568681D01*
X9341167Y-15768681D02*
X9341167Y-15635348D01*
X9341167Y-15654395D02*
X9350691Y-15644872D01*
X9369738Y-15635348D01*
X9398310Y-15635348D01*
X9417357Y-15644872D01*
X9426881Y-15663919D01*
X9426881Y-15768681D01*
X9426881Y-15663919D02*
X9436405Y-15644872D01*
X9455453Y-15635348D01*
X9484024Y-15635348D01*
X9503072Y-15644872D01*
X9512596Y-15663919D01*
X9512596Y-15768681D01*
X9607834Y-15768681D02*
X9607834Y-15635348D01*
X9607834Y-15654395D02*
X9617357Y-15644872D01*
X9636405Y-15635348D01*
X9664977Y-15635348D01*
X9684024Y-15644872D01*
X9693548Y-15663919D01*
X9693548Y-15768681D01*
X9693548Y-15663919D02*
X9703072Y-15644872D01*
X9722119Y-15635348D01*
X9750691Y-15635348D01*
X9769738Y-15644872D01*
X9779262Y-15663919D01*
X9779262Y-15768681D01*
X10169738Y-15559157D02*
X9998310Y-15816300D01*
X10426881Y-15568681D02*
X10445929Y-15568681D01*
X10464977Y-15578205D01*
X10474500Y-15587729D01*
X10484024Y-15606776D01*
X10493548Y-15644872D01*
X10493548Y-15692491D01*
X10484024Y-15730586D01*
X10474500Y-15749634D01*
X10464977Y-15759157D01*
X10445929Y-15768681D01*
X10426881Y-15768681D01*
X10407834Y-15759157D01*
X10398310Y-15749634D01*
X10388786Y-15730586D01*
X10379262Y-15692491D01*
X10379262Y-15644872D01*
X10388786Y-15606776D01*
X10398310Y-15587729D01*
X10407834Y-15578205D01*
X10426881Y-15568681D01*
X10579262Y-15749634D02*
X10588786Y-15759157D01*
X10579262Y-15768681D01*
X10569738Y-15759157D01*
X10579262Y-15749634D01*
X10579262Y-15768681D01*
X10712596Y-15568681D02*
X10731643Y-15568681D01*
X10750691Y-15578205D01*
X10760215Y-15587729D01*
X10769738Y-15606776D01*
X10779262Y-15644872D01*
X10779262Y-15692491D01*
X10769738Y-15730586D01*
X10760215Y-15749634D01*
X10750691Y-15759157D01*
X10731643Y-15768681D01*
X10712596Y-15768681D01*
X10693548Y-15759157D01*
X10684024Y-15749634D01*
X10674500Y-15730586D01*
X10664977Y-15692491D01*
X10664977Y-15644872D01*
X10674500Y-15606776D01*
X10684024Y-15587729D01*
X10693548Y-15578205D01*
X10712596Y-15568681D01*
X10845929Y-15568681D02*
X10969738Y-15568681D01*
X10903072Y-15644872D01*
X10931643Y-15644872D01*
X10950691Y-15654395D01*
X10960215Y-15663919D01*
X10969738Y-15682967D01*
X10969738Y-15730586D01*
X10960215Y-15749634D01*
X10950691Y-15759157D01*
X10931643Y-15768681D01*
X10874500Y-15768681D01*
X10855453Y-15759157D01*
X10845929Y-15749634D01*
X11064977Y-15768681D02*
X11103072Y-15768681D01*
X11122119Y-15759157D01*
X11131643Y-15749634D01*
X11150691Y-15721062D01*
X11160215Y-15682967D01*
X11160215Y-15606776D01*
X11150691Y-15587729D01*
X11141167Y-15578205D01*
X11122119Y-15568681D01*
X11084024Y-15568681D01*
X11064977Y-15578205D01*
X11055453Y-15587729D01*
X11045929Y-15606776D01*
X11045929Y-15654395D01*
X11055453Y-15673443D01*
X11064977Y-15682967D01*
X11084024Y-15692491D01*
X11122119Y-15692491D01*
X11141167Y-15682967D01*
X11150691Y-15673443D01*
X11160215Y-15654395D01*
X11331643Y-15635348D02*
X11331643Y-15768681D01*
X11284024Y-15559157D02*
X11236405Y-15702015D01*
X11360215Y-15702015D01*
X11426881Y-15568681D02*
X11426881Y-15606776D01*
X11503072Y-15568681D02*
X11503072Y-15606776D01*
X11798310Y-15844872D02*
X11788786Y-15835348D01*
X11769738Y-15806776D01*
X11760215Y-15787729D01*
X11750691Y-15759157D01*
X11741167Y-15711538D01*
X11741167Y-15673443D01*
X11750691Y-15625824D01*
X11760215Y-15597253D01*
X11769738Y-15578205D01*
X11788786Y-15549634D01*
X11798310Y-15540110D01*
X11884024Y-15768681D02*
X11922119Y-15768681D01*
X11941167Y-15759157D01*
X11950691Y-15749634D01*
X11969738Y-15721062D01*
X11979262Y-15682967D01*
X11979262Y-15606776D01*
X11969738Y-15587729D01*
X11960215Y-15578205D01*
X11941167Y-15568681D01*
X11903072Y-15568681D01*
X11884024Y-15578205D01*
X11874500Y-15587729D01*
X11864976Y-15606776D01*
X11864976Y-15654395D01*
X11874500Y-15673443D01*
X11884024Y-15682967D01*
X11903072Y-15692491D01*
X11941167Y-15692491D01*
X11960215Y-15682967D01*
X11969738Y-15673443D01*
X11979262Y-15654395D01*
X12074500Y-15768681D02*
X12112595Y-15768681D01*
X12131643Y-15759157D01*
X12141167Y-15749634D01*
X12160215Y-15721062D01*
X12169738Y-15682967D01*
X12169738Y-15606776D01*
X12160215Y-15587729D01*
X12150691Y-15578205D01*
X12131643Y-15568681D01*
X12093548Y-15568681D01*
X12074500Y-15578205D01*
X12064976Y-15587729D01*
X12055453Y-15606776D01*
X12055453Y-15654395D01*
X12064976Y-15673443D01*
X12074500Y-15682967D01*
X12093548Y-15692491D01*
X12131643Y-15692491D01*
X12150691Y-15682967D01*
X12160215Y-15673443D01*
X12169738Y-15654395D01*
X12407834Y-15768681D02*
X12407834Y-15568681D01*
X12493548Y-15768681D02*
X12493548Y-15663919D01*
X12484024Y-15644872D01*
X12464976Y-15635348D01*
X12436405Y-15635348D01*
X12417357Y-15644872D01*
X12407834Y-15654395D01*
X12617357Y-15768681D02*
X12598310Y-15759157D01*
X12588786Y-15749634D01*
X12579262Y-15730586D01*
X12579262Y-15673443D01*
X12588786Y-15654395D01*
X12598310Y-15644872D01*
X12617357Y-15635348D01*
X12645929Y-15635348D01*
X12664976Y-15644872D01*
X12674500Y-15654395D01*
X12684024Y-15673443D01*
X12684024Y-15730586D01*
X12674500Y-15749634D01*
X12664976Y-15759157D01*
X12645929Y-15768681D01*
X12617357Y-15768681D01*
X12798310Y-15768681D02*
X12779262Y-15759157D01*
X12769738Y-15740110D01*
X12769738Y-15568681D01*
X12950691Y-15759157D02*
X12931643Y-15768681D01*
X12893548Y-15768681D01*
X12874500Y-15759157D01*
X12864976Y-15740110D01*
X12864976Y-15663919D01*
X12874500Y-15644872D01*
X12893548Y-15635348D01*
X12931643Y-15635348D01*
X12950691Y-15644872D01*
X12960215Y-15663919D01*
X12960215Y-15682967D01*
X12864976Y-15702015D01*
X13036405Y-15759157D02*
X13055453Y-15768681D01*
X13093548Y-15768681D01*
X13112595Y-15759157D01*
X13122119Y-15740110D01*
X13122119Y-15730586D01*
X13112595Y-15711538D01*
X13093548Y-15702015D01*
X13064976Y-15702015D01*
X13045929Y-15692491D01*
X13036405Y-15673443D01*
X13036405Y-15663919D01*
X13045929Y-15644872D01*
X13064976Y-15635348D01*
X13093548Y-15635348D01*
X13112595Y-15644872D01*
X13188786Y-15844872D02*
X13198310Y-15835348D01*
X13217357Y-15806776D01*
X13226881Y-15787729D01*
X13236405Y-15759157D01*
X13245929Y-15711538D01*
X13245929Y-15673443D01*
X13236405Y-15625824D01*
X13226881Y-15597253D01*
X13217357Y-15578205D01*
X13198310Y-15549634D01*
X13188786Y-15540110D01*
M02*
