%TF.GenerationSoftware,KiCad,Pcbnew,(6.0.2)*%
%TF.CreationDate,2022-11-06T15:29:19-08:00*%
%TF.ProjectId,IO Board,494f2042-6f61-4726-942e-6b696361645f,rev?*%
%TF.SameCoordinates,Original*%
%TF.FileFunction,Copper,L2,Bot*%
%TF.FilePolarity,Positive*%
%FSLAX46Y46*%
G04 Gerber Fmt 4.6, Leading zero omitted, Abs format (unit mm)*
G04 Created by KiCad (PCBNEW (6.0.2)) date 2022-11-06 15:29:19*
%MOMM*%
%LPD*%
G01*
G04 APERTURE LIST*
%TA.AperFunction,ComponentPad*%
%ADD10C,1.500000*%
%TD*%
%TA.AperFunction,ComponentPad*%
%ADD11O,1.524000X3.048000*%
%TD*%
%TA.AperFunction,ComponentPad*%
%ADD12R,1.700000X1.700000*%
%TD*%
%TA.AperFunction,ComponentPad*%
%ADD13O,1.700000X1.700000*%
%TD*%
%TA.AperFunction,ComponentPad*%
%ADD14C,1.600000*%
%TD*%
%TA.AperFunction,ComponentPad*%
%ADD15R,2.400000X1.600000*%
%TD*%
%TA.AperFunction,ComponentPad*%
%ADD16O,2.400000X1.600000*%
%TD*%
%TA.AperFunction,ViaPad*%
%ADD17C,0.800000*%
%TD*%
%TA.AperFunction,Conductor*%
%ADD18C,0.250000*%
%TD*%
G04 APERTURE END LIST*
D10*
%TO.P,Q1,1,1*%
%TO.N,Net-(U2-Pad33)*%
X140970000Y-71718000D03*
%TO.P,Q1,2,2*%
%TO.N,Net-(U2-Pad32)*%
X140970000Y-76598000D03*
%TD*%
D11*
%TO.P,J4,1,Pin_1*%
%TO.N,GND*%
X154178000Y-69596000D03*
%TO.P,J4,2,Pin_2*%
%TO.N,/CTSB*%
X156718000Y-69596000D03*
%TO.P,J4,3,Pin_3*%
%TO.N,VCC*%
X159258000Y-69596000D03*
%TO.P,J4,4,Pin_4*%
%TO.N,/RXDB*%
X161798000Y-69596000D03*
%TO.P,J4,6,Pin_6*%
%TO.N,/RTSB*%
X166878000Y-69596000D03*
%TO.P,J4,5,Pin_5*%
%TO.N,/TXDB*%
X164338000Y-69596000D03*
%TD*%
%TO.P,J3,1,Pin_1*%
%TO.N,GND*%
X154178000Y-115062000D03*
%TO.P,J3,2,Pin_2*%
%TO.N,/CTSA*%
X156718000Y-115062000D03*
%TO.P,J3,3,Pin_3*%
%TO.N,VCC*%
X159258000Y-115062000D03*
%TO.P,J3,4,Pin_4*%
%TO.N,/RXDA*%
X161798000Y-115062000D03*
%TO.P,J3,6,Pin_6*%
%TO.N,/RTSA*%
X166878000Y-115062000D03*
%TO.P,J3,5,Pin_5*%
%TO.N,/TXDA*%
X164338000Y-115062000D03*
%TD*%
D12*
%TO.P,J2,1,Pin_1*%
%TO.N,/~{UARTSEL}*%
X159004000Y-85100000D03*
D13*
%TO.P,J2,2,Pin_2*%
%TO.N,/~{DTACKUART}*%
X159004000Y-87640000D03*
%TO.P,J2,3,Pin_3*%
%TO.N,/~{IACK}*%
X159004000Y-90180000D03*
%TO.P,J2,4,Pin_4*%
%TO.N,/~{IRQ2}*%
X159004000Y-92720000D03*
%TO.P,J2,5,Pin_5*%
%TO.N,/A20*%
X159004000Y-95260000D03*
%TO.P,J2,6,Pin_6*%
%TO.N,/A21*%
X159004000Y-97800000D03*
%TO.P,J2,7,Pin_7*%
%TO.N,/A22*%
X159004000Y-100340000D03*
%TO.P,J2,8,Pin_8*%
%TO.N,/A23*%
X159004000Y-102880000D03*
%TO.P,J2,9,Pin_9*%
%TO.N,GND*%
X159004000Y-105420000D03*
%TD*%
D14*
%TO.P,C4,1*%
%TO.N,Net-(U2-Pad33)*%
X139720000Y-66040000D03*
%TO.P,C4,2*%
%TO.N,GND*%
X142220000Y-66040000D03*
%TD*%
%TO.P,C3,1*%
%TO.N,Net-(U2-Pad32)*%
X139720000Y-82550000D03*
%TO.P,C3,2*%
%TO.N,GND*%
X142220000Y-82550000D03*
%TD*%
D12*
%TO.P,J1,1,Pin_1*%
%TO.N,/A1*%
X88954100Y-134516100D03*
D13*
%TO.P,J1,2,Pin_2*%
%TO.N,VCC*%
X86414100Y-134516100D03*
%TO.P,J1,3,Pin_3*%
%TO.N,/A2*%
X88954100Y-131976100D03*
%TO.P,J1,4,Pin_4*%
%TO.N,/CLK*%
X86414100Y-131976100D03*
%TO.P,J1,5,Pin_5*%
%TO.N,/A3*%
X88954100Y-129436100D03*
%TO.P,J1,6,Pin_6*%
%TO.N,GND*%
X86414100Y-129436100D03*
%TO.P,J1,7,Pin_7*%
%TO.N,/A4*%
X88954100Y-126896100D03*
%TO.P,J1,8,Pin_8*%
%TO.N,/~{VPA}*%
X86414100Y-126896100D03*
%TO.P,J1,9,Pin_9*%
%TO.N,/A5*%
X88954100Y-124356100D03*
%TO.P,J1,10,Pin_10*%
%TO.N,/~{IACK}*%
X86414100Y-124356100D03*
%TO.P,J1,11,Pin_11*%
%TO.N,/A6*%
X88954100Y-121816100D03*
%TO.P,J1,12,Pin_12*%
%TO.N,/~{VMA}*%
X86414100Y-121816100D03*
%TO.P,J1,13,Pin_13*%
%TO.N,/A7*%
X88954100Y-119276100D03*
%TO.P,J1,14,Pin_14*%
%TO.N,/~{IRQ3}*%
X86414100Y-119276100D03*
%TO.P,J1,15,Pin_15*%
%TO.N,/A8*%
X88954100Y-116736100D03*
%TO.P,J1,16,Pin_16*%
%TO.N,/~{HALT}*%
X86414100Y-116736100D03*
%TO.P,J1,17,Pin_17*%
%TO.N,/A9*%
X88954100Y-114196100D03*
%TO.P,J1,18,Pin_18*%
%TO.N,/~{IRQ4}*%
X86414100Y-114196100D03*
%TO.P,J1,19,Pin_19*%
%TO.N,/A10*%
X88954100Y-111656100D03*
%TO.P,J1,20,Pin_20*%
%TO.N,/FC0*%
X86414100Y-111656100D03*
%TO.P,J1,21,Pin_21*%
%TO.N,/A11*%
X88954100Y-109116100D03*
%TO.P,J1,22,Pin_22*%
%TO.N,/FC1*%
X86414100Y-109116100D03*
%TO.P,J1,23,Pin_23*%
%TO.N,/A12*%
X88954100Y-106576100D03*
%TO.P,J1,24,Pin_24*%
%TO.N,/FC2*%
X86414100Y-106576100D03*
%TO.P,J1,25,Pin_25*%
%TO.N,/A13*%
X88954100Y-104036100D03*
%TO.P,J1,26,Pin_26*%
%TO.N,/~{IRQ5}*%
X86414100Y-104036100D03*
%TO.P,J1,27,Pin_27*%
%TO.N,/A14*%
X88954100Y-101496100D03*
%TO.P,J1,28,Pin_28*%
%TO.N,/~{IRQ2}*%
X86414100Y-101496100D03*
%TO.P,J1,29,Pin_29*%
%TO.N,/A15*%
X88954100Y-98956100D03*
%TO.P,J1,30,Pin_30*%
%TO.N,/~{IRQ6}*%
X86414100Y-98956100D03*
%TO.P,J1,31,Pin_31*%
%TO.N,/A16*%
X88954100Y-96416100D03*
%TO.P,J1,32,Pin_32*%
%TO.N,/~{LDS}*%
X86414100Y-96416100D03*
%TO.P,J1,33,Pin_33*%
%TO.N,/A17*%
X88954100Y-93876100D03*
%TO.P,J1,34,Pin_34*%
%TO.N,/~{UDS}*%
X86414100Y-93876100D03*
%TO.P,J1,35,Pin_35*%
%TO.N,/A18*%
X88954100Y-91336100D03*
%TO.P,J1,36,Pin_36*%
%TO.N,/~{RESET}*%
X86414100Y-91336100D03*
%TO.P,J1,37,Pin_37*%
%TO.N,/A19*%
X88954100Y-88796100D03*
%TO.P,J1,38,Pin_38*%
%TO.N,/D15*%
X86414100Y-88796100D03*
%TO.P,J1,39,Pin_39*%
%TO.N,/A20*%
X88954100Y-86256100D03*
%TO.P,J1,40,Pin_40*%
%TO.N,/D14*%
X86414100Y-86256100D03*
%TO.P,J1,41,Pin_41*%
%TO.N,/A21*%
X88954100Y-83716100D03*
%TO.P,J1,42,Pin_42*%
%TO.N,/D13*%
X86414100Y-83716100D03*
%TO.P,J1,43,Pin_43*%
%TO.N,/A22*%
X88954100Y-81176100D03*
%TO.P,J1,44,Pin_44*%
%TO.N,/D12*%
X86414100Y-81176100D03*
%TO.P,J1,45,Pin_45*%
%TO.N,/A23*%
X88954100Y-78636100D03*
%TO.P,J1,46,Pin_46*%
%TO.N,/D11*%
X86414100Y-78636100D03*
%TO.P,J1,47,Pin_47*%
%TO.N,/~{AS}*%
X88954100Y-76096100D03*
%TO.P,J1,48,Pin_48*%
%TO.N,/D10*%
X86414100Y-76096100D03*
%TO.P,J1,49,Pin_49*%
%TO.N,/~{BERR}*%
X88954100Y-73556100D03*
%TO.P,J1,50,Pin_50*%
%TO.N,/D9*%
X86414100Y-73556100D03*
%TO.P,J1,51,Pin_51*%
%TO.N,/~{BG}*%
X88954100Y-71016100D03*
%TO.P,J1,52,Pin_52*%
%TO.N,/D8*%
X86414100Y-71016100D03*
%TO.P,J1,53,Pin_53*%
%TO.N,/~{BGACK}*%
X88954100Y-68476100D03*
%TO.P,J1,54,Pin_54*%
%TO.N,/D7*%
X86414100Y-68476100D03*
%TO.P,J1,55,Pin_55*%
%TO.N,/~{BR}*%
X88954100Y-65936100D03*
%TO.P,J1,56,Pin_56*%
%TO.N,/D6*%
X86414100Y-65936100D03*
%TO.P,J1,57,Pin_57*%
%TO.N,/~{DTACK}*%
X88954100Y-63396100D03*
%TO.P,J1,58,Pin_58*%
%TO.N,/D5*%
X86414100Y-63396100D03*
%TO.P,J1,59,Pin_59*%
%TO.N,/R~{W}*%
X88954100Y-60856100D03*
%TO.P,J1,60,Pin_60*%
%TO.N,/D4*%
X86414100Y-60856100D03*
%TO.P,J1,61,Pin_61*%
%TO.N,/D0*%
X88954100Y-58316100D03*
%TO.P,J1,62,Pin_62*%
%TO.N,/D3*%
X86414100Y-58316100D03*
%TO.P,J1,63,Pin_63*%
%TO.N,/D1*%
X88954100Y-55776100D03*
%TO.P,J1,64,Pin_64*%
%TO.N,/D2*%
X86414100Y-55776100D03*
%TD*%
D14*
%TO.P,C2,1*%
%TO.N,VCC*%
X123210000Y-110490000D03*
%TO.P,C2,2*%
%TO.N,GND*%
X125710000Y-110490000D03*
%TD*%
D15*
%TO.P,U2,1,RS1*%
%TO.N,/A1*%
X116835000Y-55118000D03*
D16*
%TO.P,U2,2,IP3*%
%TO.N,/IP3*%
X116835000Y-57658000D03*
%TO.P,U2,3,RS2*%
%TO.N,/A2*%
X116835000Y-60198000D03*
%TO.P,U2,4,IP1*%
%TO.N,/CTSB*%
X116835000Y-62738000D03*
%TO.P,U2,5,RS3*%
%TO.N,/A3*%
X116835000Y-65278000D03*
%TO.P,U2,6,RS4*%
%TO.N,/A4*%
X116835000Y-67818000D03*
%TO.P,U2,7,IP0*%
%TO.N,/CTSA*%
X116835000Y-70358000D03*
%TO.P,U2,8,R/W*%
%TO.N,/R~{W}*%
X116835000Y-72898000D03*
%TO.P,U2,9,DTACK*%
%TO.N,/~{DTACKUART}*%
X116835000Y-75438000D03*
%TO.P,U2,10,RXDB*%
%TO.N,/RXDB*%
X116835000Y-77978000D03*
%TO.P,U2,11,TXDB*%
%TO.N,/TXDB*%
X116835000Y-80518000D03*
%TO.P,U2,12,OP1*%
%TO.N,/RTSB*%
X116835000Y-83058000D03*
%TO.P,U2,13,OP3*%
%TO.N,/OP3*%
X116835000Y-85598000D03*
%TO.P,U2,14,OP5*%
%TO.N,/OP5*%
X116835000Y-88138000D03*
%TO.P,U2,15,OP7*%
%TO.N,/OP7*%
X116835000Y-90678000D03*
%TO.P,U2,16,D1*%
%TO.N,/D1*%
X116835000Y-93218000D03*
%TO.P,U2,17,D3*%
%TO.N,/D3*%
X116835000Y-95758000D03*
%TO.P,U2,18,D5*%
%TO.N,/D5*%
X116835000Y-98298000D03*
%TO.P,U2,19,D7*%
%TO.N,/D7*%
X116835000Y-100838000D03*
%TO.P,U2,20,GND*%
%TO.N,GND*%
X116835000Y-103378000D03*
%TO.P,U2,21,IRQ*%
%TO.N,/~{IRQ2}*%
X132075000Y-103378000D03*
%TO.P,U2,22,D6*%
%TO.N,/D6*%
X132075000Y-100838000D03*
%TO.P,U2,23,D4*%
%TO.N,/D4*%
X132075000Y-98298000D03*
%TO.P,U2,24,D2*%
%TO.N,/D2*%
X132075000Y-95758000D03*
%TO.P,U2,25,D0*%
%TO.N,/D0*%
X132075000Y-93218000D03*
%TO.P,U2,26,OP6*%
%TO.N,/OP6*%
X132075000Y-90678000D03*
%TO.P,U2,27,OP4*%
%TO.N,/OP4*%
X132075000Y-88138000D03*
%TO.P,U2,28,OP2*%
%TO.N,/OP2*%
X132075000Y-85598000D03*
%TO.P,U2,29,OP0*%
%TO.N,/RTSA*%
X132075000Y-83058000D03*
%TO.P,U2,30,TXDA*%
%TO.N,/TXDA*%
X132075000Y-80518000D03*
%TO.P,U2,31,RXDA*%
%TO.N,/RXDA*%
X132075000Y-77978000D03*
%TO.P,U2,32,X1/CLK*%
%TO.N,Net-(U2-Pad32)*%
X132075000Y-75438000D03*
%TO.P,U2,33,X2*%
%TO.N,Net-(U2-Pad33)*%
X132075000Y-72898000D03*
%TO.P,U2,34,RESET*%
%TO.N,/~{RESET}*%
X132075000Y-70358000D03*
%TO.P,U2,35,CS*%
%TO.N,/~{UARTSEL}*%
X132075000Y-67818000D03*
%TO.P,U2,36,IP2*%
%TO.N,/IP2*%
X132075000Y-65278000D03*
%TO.P,U2,37,IACK*%
%TO.N,/~{IACK}*%
X132075000Y-62738000D03*
%TO.P,U2,38,IP5*%
%TO.N,/IP5*%
X132075000Y-60198000D03*
%TO.P,U2,39,IP4*%
%TO.N,/IP4*%
X132075000Y-57658000D03*
%TO.P,U2,40,VCC*%
%TO.N,VCC*%
X132075000Y-55118000D03*
%TD*%
D15*
%TO.P,U1,1,I1/CLK*%
%TO.N,/~{UDS}*%
X120660000Y-115062000D03*
D16*
%TO.P,U1,2,I2*%
%TO.N,/~{LDS}*%
X120660000Y-117602000D03*
%TO.P,U1,3,I3*%
%TO.N,/R~{W}*%
X120660000Y-120142000D03*
%TO.P,U1,4,I4*%
%TO.N,/~{AS}*%
X120660000Y-122682000D03*
%TO.P,U1,5,I5*%
%TO.N,/A23*%
X120660000Y-125222000D03*
%TO.P,U1,6,I6*%
%TO.N,/A22*%
X120660000Y-127762000D03*
%TO.P,U1,7,I7*%
%TO.N,/A21*%
X120660000Y-130302000D03*
%TO.P,U1,8,I8*%
%TO.N,/A20*%
X120660000Y-132842000D03*
%TO.P,U1,9,I9*%
%TO.N,/~{DTACKUART}*%
X120660000Y-135382000D03*
%TO.P,U1,10,GND*%
%TO.N,GND*%
X120660000Y-137922000D03*
%TO.P,U1,11,I10/~{OE}*%
%TO.N,unconnected-(U1-Pad11)*%
X128280000Y-137922000D03*
%TO.P,U1,12,IO8*%
%TO.N,unconnected-(U1-Pad12)*%
X128280000Y-135382000D03*
%TO.P,U1,13,IO7*%
%TO.N,unconnected-(U1-Pad13)*%
X128280000Y-132842000D03*
%TO.P,U1,14,IO6*%
%TO.N,unconnected-(U1-Pad14)*%
X128280000Y-130302000D03*
%TO.P,U1,15,IO5*%
%TO.N,unconnected-(U1-Pad15)*%
X128280000Y-127762000D03*
%TO.P,U1,16,IO4*%
%TO.N,unconnected-(U1-Pad16)*%
X128280000Y-125222000D03*
%TO.P,U1,17,I03*%
%TO.N,unconnected-(U1-Pad17)*%
X128280000Y-122682000D03*
%TO.P,U1,18,IO2*%
%TO.N,/~{DTACK}*%
X128280000Y-120142000D03*
%TO.P,U1,19,IO1*%
%TO.N,/~{UARTSEL}*%
X128280000Y-117602000D03*
%TO.P,U1,20,VCC*%
%TO.N,VCC*%
X128280000Y-115062000D03*
%TD*%
D14*
%TO.P,C1,1*%
%TO.N,VCC*%
X123205000Y-50546000D03*
%TO.P,C1,2*%
%TO.N,GND*%
X125705000Y-50546000D03*
%TD*%
D17*
%TO.N,/TXDA*%
X155907000Y-98346600D03*
%TO.N,/CTSA*%
X125419200Y-115307100D03*
%TO.N,/~{RESET}*%
X119822900Y-92557000D03*
%TD*%
D18*
%TO.N,/TXDA*%
X151428900Y-98346600D02*
X155907000Y-98346600D01*
X133600300Y-80518000D02*
X151428900Y-98346600D01*
X132075000Y-80518000D02*
X133600300Y-80518000D01*
%TO.N,/CTSA*%
X119585100Y-109473000D02*
X125419200Y-115307100D01*
X119585100Y-93789500D02*
X119585100Y-109473000D01*
X118810700Y-93015100D02*
X119585100Y-93789500D01*
X118810700Y-70808400D02*
X118810700Y-93015100D01*
X118360300Y-70358000D02*
X118810700Y-70808400D01*
X116835000Y-70358000D02*
X118360300Y-70358000D01*
%TO.N,/RXDA*%
X161798000Y-96357600D02*
X161798000Y-115062000D01*
X159430400Y-93990000D02*
X161798000Y-96357600D01*
X149517000Y-93990000D02*
X159430400Y-93990000D01*
X133600300Y-78073300D02*
X149517000Y-93990000D01*
X133600300Y-77978000D02*
X133600300Y-78073300D01*
X132075000Y-77978000D02*
X133600300Y-77978000D01*
%TO.N,Net-(U2-Pad33)*%
X137290000Y-72898000D02*
X139720000Y-70468000D01*
X132075000Y-72898000D02*
X137290000Y-72898000D01*
X140970000Y-71718000D02*
X139720000Y-70468000D01*
X139720000Y-70468000D02*
X139720000Y-66040000D01*
%TO.N,Net-(U2-Pad32)*%
X140970000Y-81300000D02*
X139720000Y-82550000D01*
X140970000Y-76598000D02*
X140970000Y-81300000D01*
%TO.N,/~{UARTSEL}*%
X155317900Y-80238600D02*
X159004000Y-83924700D01*
X155317900Y-68433400D02*
X155317900Y-80238600D01*
X151758800Y-64874300D02*
X155317900Y-68433400D01*
X136544000Y-64874300D02*
X151758800Y-64874300D01*
X133600300Y-67818000D02*
X136544000Y-64874300D01*
X132075000Y-67818000D02*
X133600300Y-67818000D01*
X159004000Y-85100000D02*
X159004000Y-83924700D01*
X133600300Y-70864400D02*
X133600300Y-67818000D01*
X132836700Y-71628000D02*
X133600300Y-70864400D01*
X131346100Y-71628000D02*
X132836700Y-71628000D01*
X124583700Y-78390400D02*
X131346100Y-71628000D01*
X124583700Y-111002200D02*
X124583700Y-78390400D01*
X126403900Y-112822400D02*
X124583700Y-111002200D01*
X128086100Y-112822400D02*
X126403900Y-112822400D01*
X129805300Y-114541600D02*
X128086100Y-112822400D01*
X129805300Y-117602000D02*
X129805300Y-114541600D01*
X128280000Y-117602000D02*
X129805300Y-117602000D01*
%TO.N,/D3*%
X86781500Y-59491400D02*
X86414100Y-59491400D01*
X87589400Y-60299300D02*
X86781500Y-59491400D01*
X87589400Y-61192400D02*
X87589400Y-60299300D01*
X88428500Y-62031500D02*
X87589400Y-61192400D01*
X89263100Y-62031500D02*
X88428500Y-62031500D01*
X115309600Y-88078000D02*
X89263100Y-62031500D01*
X115309600Y-94232600D02*
X115309600Y-88078000D01*
X116835000Y-95758000D02*
X115309600Y-94232600D01*
X86414100Y-58316100D02*
X86414100Y-59491400D01*
%TO.N,/R~{W}*%
X120660000Y-120142000D02*
X119134700Y-120142000D01*
X102171300Y-72898000D02*
X116835000Y-72898000D01*
X90129400Y-60856100D02*
X102171300Y-72898000D01*
X88954100Y-60856100D02*
X90129400Y-60856100D01*
X116835000Y-72898000D02*
X118360300Y-72898000D01*
X119134700Y-95494100D02*
X119134700Y-120142000D01*
X118360300Y-94719700D02*
X119134700Y-95494100D01*
X118360300Y-72898000D02*
X118360300Y-94719700D01*
%TO.N,/D5*%
X116835000Y-98298000D02*
X115309700Y-98298000D01*
X86414100Y-63396100D02*
X86414100Y-64571400D01*
X113849400Y-96837700D02*
X115309700Y-98298000D01*
X113849300Y-96837700D02*
X113849400Y-96837700D01*
X113849300Y-91707100D02*
X113849300Y-96837700D01*
X89253700Y-67111500D02*
X113849300Y-91707100D01*
X88464700Y-67111500D02*
X89253700Y-67111500D01*
X87589400Y-66236200D02*
X88464700Y-67111500D01*
X87589400Y-65379300D02*
X87589400Y-66236200D01*
X86781500Y-64571400D02*
X87589400Y-65379300D01*
X86414100Y-64571400D02*
X86781500Y-64571400D01*
%TO.N,/~{DTACK}*%
X128280000Y-120142000D02*
X126754700Y-120142000D01*
X88954100Y-63396100D02*
X88954100Y-64571400D01*
X125606100Y-121290600D02*
X126754700Y-120142000D01*
X119610800Y-121290600D02*
X125606100Y-121290600D01*
X118399900Y-120079700D02*
X119610800Y-121290600D01*
X118399900Y-97856300D02*
X118399900Y-120079700D01*
X117497700Y-96954100D02*
X118399900Y-97856300D01*
X116007900Y-96954100D02*
X117497700Y-96954100D01*
X114486100Y-95432300D02*
X116007900Y-96954100D01*
X114486100Y-89736100D02*
X114486100Y-95432300D01*
X89321400Y-64571400D02*
X114486100Y-89736100D01*
X88954100Y-64571400D02*
X89321400Y-64571400D01*
%TO.N,/D7*%
X86414100Y-68476100D02*
X86414100Y-69651400D01*
X116835000Y-100838000D02*
X115309700Y-100838000D01*
X111445900Y-96974200D02*
X115309700Y-100838000D01*
X111445900Y-94385400D02*
X111445900Y-96974200D01*
X89252000Y-72191500D02*
X111445900Y-94385400D01*
X88428500Y-72191500D02*
X89252000Y-72191500D01*
X87589400Y-71352400D02*
X88428500Y-72191500D01*
X87589400Y-70459300D02*
X87589400Y-71352400D01*
X86781500Y-69651400D02*
X87589400Y-70459300D01*
X86414100Y-69651400D02*
X86781500Y-69651400D01*
%TO.N,/~{AS}*%
X89321400Y-77271400D02*
X88954100Y-77271400D01*
X110995500Y-98945500D02*
X89321400Y-77271400D01*
X110995500Y-114542800D02*
X110995500Y-98945500D01*
X119134700Y-122682000D02*
X110995500Y-114542800D01*
X120660000Y-122682000D02*
X119134700Y-122682000D01*
X88954100Y-76096100D02*
X88954100Y-77271400D01*
%TO.N,/A23*%
X89321400Y-79811400D02*
X88954100Y-79811400D01*
X95194700Y-85684700D02*
X89321400Y-79811400D01*
X95194700Y-101282000D02*
X95194700Y-85684700D01*
X119134700Y-125222000D02*
X95194700Y-101282000D01*
X120660000Y-125222000D02*
X119134700Y-125222000D01*
X88954100Y-78636100D02*
X88954100Y-79811400D01*
%TO.N,/A22*%
X120660000Y-127762000D02*
X119134700Y-127762000D01*
X88954100Y-81176100D02*
X88954100Y-82351400D01*
X89265600Y-82351400D02*
X88954100Y-82351400D01*
X91535800Y-84621600D02*
X89265600Y-82351400D01*
X91535800Y-100163100D02*
X91535800Y-84621600D01*
X119134700Y-127762000D02*
X91535800Y-100163100D01*
%TO.N,/A21*%
X131676700Y-123952000D02*
X157828700Y-97800000D01*
X127486700Y-123952000D02*
X131676700Y-123952000D01*
X122185300Y-129253400D02*
X127486700Y-123952000D01*
X122185300Y-130302000D02*
X122185300Y-129253400D01*
X120660000Y-130302000D02*
X122185300Y-130302000D01*
X159004000Y-97800000D02*
X157828700Y-97800000D01*
X88954100Y-83716100D02*
X88954100Y-84891400D01*
X120660000Y-130302000D02*
X119134700Y-130302000D01*
X89321500Y-84891400D02*
X88954100Y-84891400D01*
X90766400Y-86336300D02*
X89321500Y-84891400D01*
X90766400Y-101933700D02*
X90766400Y-86336300D01*
X119134700Y-130302000D02*
X90766400Y-101933700D01*
%TO.N,/A20*%
X159371400Y-96435300D02*
X159004000Y-96435300D01*
X160179300Y-97243200D02*
X159371400Y-96435300D01*
X160179300Y-98347500D02*
X160179300Y-97243200D01*
X159456800Y-99070000D02*
X160179300Y-98347500D01*
X158373800Y-99070000D02*
X159456800Y-99070000D01*
X130951800Y-126492000D02*
X158373800Y-99070000D01*
X127486700Y-126492000D02*
X130951800Y-126492000D01*
X122185300Y-131793400D02*
X127486700Y-126492000D01*
X122185300Y-132842000D02*
X122185300Y-131793400D01*
X120660000Y-132842000D02*
X122185300Y-132842000D01*
X159004000Y-95260000D02*
X159004000Y-96435300D01*
X90129400Y-103836700D02*
X119134700Y-132842000D01*
X90129400Y-88239300D02*
X90129400Y-103836700D01*
X89321500Y-87431400D02*
X90129400Y-88239300D01*
X88954100Y-87431400D02*
X89321500Y-87431400D01*
X88954100Y-86256100D02*
X88954100Y-87431400D01*
X120660000Y-132842000D02*
X119134700Y-132842000D01*
%TO.N,/~{RESET}*%
X119822900Y-81084800D02*
X119822900Y-92557000D01*
X130549700Y-70358000D02*
X119822900Y-81084800D01*
X132075000Y-70358000D02*
X130549700Y-70358000D01*
%TO.N,/~{IACK}*%
X159004000Y-90180000D02*
X159004000Y-89004700D01*
X159371400Y-89004700D02*
X159004000Y-89004700D01*
X160179300Y-88196800D02*
X159371400Y-89004700D01*
X160179300Y-81788100D02*
X160179300Y-88196800D01*
X157988000Y-79596800D02*
X160179300Y-81788100D01*
X157988000Y-68564700D02*
X157988000Y-79596800D01*
X152161300Y-62738000D02*
X157988000Y-68564700D01*
X132075000Y-62738000D02*
X152161300Y-62738000D01*
%TO.N,/A3*%
X88586700Y-128260800D02*
X88954100Y-128260800D01*
X87778800Y-127452900D02*
X88586700Y-128260800D01*
X87778800Y-73184900D02*
X87778800Y-127452900D01*
X86897900Y-72304000D02*
X87778800Y-73184900D01*
X86008600Y-72304000D02*
X86897900Y-72304000D01*
X85159000Y-71454400D02*
X86008600Y-72304000D01*
X85159000Y-57894600D02*
X85159000Y-71454400D01*
X85957000Y-57096600D02*
X85159000Y-57894600D01*
X107128300Y-57096600D02*
X85957000Y-57096600D01*
X115309700Y-65278000D02*
X107128300Y-57096600D01*
X116835000Y-65278000D02*
X115309700Y-65278000D01*
X88954100Y-129436100D02*
X88954100Y-128260800D01*
%TO.N,/A2*%
X88586700Y-130800800D02*
X88954100Y-130800800D01*
X87778800Y-129992900D02*
X88586700Y-130800800D01*
X87778800Y-129072600D02*
X87778800Y-129992900D01*
X86905700Y-128199500D02*
X87778800Y-129072600D01*
X86024100Y-128199500D02*
X86905700Y-128199500D01*
X84708600Y-126884000D02*
X86024100Y-128199500D01*
X84708600Y-55764400D02*
X84708600Y-126884000D01*
X85883500Y-54589500D02*
X84708600Y-55764400D01*
X109701200Y-54589500D02*
X85883500Y-54589500D01*
X115309700Y-60198000D02*
X109701200Y-54589500D01*
X116835000Y-60198000D02*
X115309700Y-60198000D01*
X88954100Y-131976100D02*
X88954100Y-130800800D01*
%TO.N,/A1*%
X116835000Y-55118000D02*
X115309700Y-55118000D01*
X88954100Y-134516100D02*
X88954100Y-133340800D01*
X88586700Y-133340800D02*
X88954100Y-133340800D01*
X87778800Y-132532900D02*
X88586700Y-133340800D01*
X87778800Y-131656600D02*
X87778800Y-132532900D01*
X86861700Y-130739500D02*
X87778800Y-131656600D01*
X86007700Y-130739500D02*
X86861700Y-130739500D01*
X84258300Y-128990100D02*
X86007700Y-130739500D01*
X84258300Y-55577800D02*
X84258300Y-128990100D01*
X85696900Y-54139200D02*
X84258300Y-55577800D01*
X114330900Y-54139200D02*
X85696900Y-54139200D01*
X115309700Y-55118000D02*
X114330900Y-54139200D01*
%TO.N,GND*%
X159004000Y-105420000D02*
X159004000Y-106595300D01*
X142220000Y-76065500D02*
X142220000Y-82550000D01*
X141677100Y-75522600D02*
X142220000Y-76065500D01*
X145776000Y-71423700D02*
X141677100Y-75522600D01*
X145776000Y-69596000D02*
X145776000Y-71423700D01*
X154178000Y-69596000D02*
X145776000Y-69596000D01*
X145776000Y-69596000D02*
X142220000Y-66040000D01*
X154178000Y-111421300D02*
X154178000Y-115062000D01*
X159004000Y-106595300D02*
X154178000Y-111421300D01*
X140171200Y-75522600D02*
X141677100Y-75522600D01*
X138985800Y-76708000D02*
X140171200Y-75522600D01*
X131315400Y-76708000D02*
X138985800Y-76708000D01*
X125710000Y-82313400D02*
X131315400Y-76708000D01*
X125710000Y-110490000D02*
X125710000Y-82313400D01*
%TO.N,VCC*%
X161150500Y-116954500D02*
X159258000Y-115062000D01*
X162230000Y-116954500D02*
X161150500Y-116954500D01*
X162906700Y-116277800D02*
X162230000Y-116954500D01*
X162906700Y-73244700D02*
X162906700Y-116277800D01*
X159258000Y-69596000D02*
X162906700Y-73244700D01*
X126754700Y-114034700D02*
X123210000Y-110490000D01*
X126754700Y-115062000D02*
X126754700Y-114034700D01*
X128280000Y-115062000D02*
X126754700Y-115062000D01*
X146629300Y-55118000D02*
X159258000Y-67746700D01*
X132075000Y-55118000D02*
X146629300Y-55118000D01*
X159258000Y-69596000D02*
X159258000Y-67746700D01*
%TD*%
M02*
