M48
; DRILL file {KiCad (6.0.9)} date Mon Nov 21 21:05:14 2022
; FORMAT={-:-/ absolute / inch / decimal}
; #@! TF.CreationDate,2022-11-21T21:05:14-08:00
; #@! TF.GenerationSoftware,Kicad,Pcbnew,(6.0.9)
; #@! TF.FileFunction,Plated,1,2,PTH
FMAT,2
INCH
; #@! TA.AperFunction,Plated,PTH,ViaDrill
T1C0.0157
; #@! TA.AperFunction,Plated,PTH,ComponentDrill
T2C0.0315
; #@! TA.AperFunction,Plated,PTH,ComponentDrill
T3C0.0394
%
G90
G05
T1
X4.3276Y-3.0642
X4.6682Y-4.4405
X4.8127Y-4.4884
X4.9393Y-3.9638
X5.0089Y-3.9034
T2
X4.19Y-2.17
X4.19Y-2.27
X4.19Y-2.37
X4.19Y-2.47
X4.19Y-2.57
X4.19Y-2.67
X4.19Y-2.77
X4.19Y-2.87
X4.19Y-2.97
X4.19Y-3.07
X4.19Y-3.17
X4.19Y-3.27
X4.19Y-3.37
X4.19Y-3.47
X4.19Y-3.57
X4.19Y-3.67
X4.19Y-3.77
X4.19Y-3.87
X4.19Y-3.97
X4.19Y-4.07
X4.37Y-4.53
X4.37Y-4.63
X4.37Y-4.73
X4.37Y-4.83
X4.37Y-4.93
X4.37Y-5.03
X4.37Y-5.13
X4.37Y-5.23
X4.37Y-5.33
X4.37Y-5.43
X4.4408Y-1.99
X4.4708Y-4.35
X4.5392Y-1.99
X4.5692Y-4.35
X4.67Y-4.53
X4.67Y-4.63
X4.67Y-4.73
X4.67Y-4.83
X4.67Y-4.93
X4.67Y-5.03
X4.67Y-5.13
X4.67Y-5.23
X4.67Y-5.33
X4.67Y-5.43
X4.79Y-2.17
X4.79Y-2.27
X4.79Y-2.37
X4.79Y-2.47
X4.79Y-2.57
X4.79Y-2.67
X4.79Y-2.77
X4.79Y-2.87
X4.79Y-2.97
X4.79Y-3.07
X4.79Y-3.17
X4.79Y-3.27
X4.79Y-3.37
X4.79Y-3.47
X4.79Y-3.57
X4.79Y-3.67
X4.79Y-3.77
X4.79Y-3.87
X4.79Y-3.97
X4.79Y-4.07
X5.1708Y-2.57
X5.1708Y-3.31
X5.22Y-2.8435
X5.22Y-3.0357
X5.2692Y-2.57
X5.2692Y-3.31
T3
X3.4021Y-2.1959
X3.4021Y-2.2959
X3.4021Y-2.3959
X3.4021Y-2.4959
X3.4021Y-2.5959
X3.4021Y-2.6959
X3.4021Y-2.7959
X3.4021Y-2.8959
X3.4021Y-2.9959
X3.4021Y-3.0959
X3.4021Y-3.1959
X3.4021Y-3.2959
X3.4021Y-3.3959
X3.4021Y-3.4959
X3.4021Y-3.5959
X3.4021Y-3.6959
X3.4021Y-3.7959
X3.4021Y-3.8959
X3.4021Y-3.9959
X3.4021Y-4.0959
X3.4021Y-4.1959
X3.4021Y-4.2959
X3.4021Y-4.3959
X3.4021Y-4.4959
X3.4021Y-4.5959
X3.4021Y-4.6959
X3.4021Y-4.7959
X3.4021Y-4.8959
X3.4021Y-4.9959
X3.4021Y-5.0959
X3.4021Y-5.1959
X3.4021Y-5.2959
X3.5021Y-2.1959
X3.5021Y-2.2959
X3.5021Y-2.3959
X3.5021Y-2.4959
X3.5021Y-2.5959
X3.5021Y-2.6959
X3.5021Y-2.7959
X3.5021Y-2.8959
X3.5021Y-2.9959
X3.5021Y-3.0959
X3.5021Y-3.1959
X3.5021Y-3.2959
X3.5021Y-3.3959
X3.5021Y-3.4959
X3.5021Y-3.5959
X3.5021Y-3.6959
X3.5021Y-3.7959
X3.5021Y-3.8959
X3.5021Y-3.9959
X3.5021Y-4.0959
X3.5021Y-4.1959
X3.5021Y-4.2959
X3.5021Y-4.3959
X3.5021Y-4.4959
X3.5021Y-4.5959
X3.5021Y-4.6959
X3.5021Y-4.7959
X3.5021Y-4.8959
X3.5021Y-4.9959
X3.5021Y-5.0959
X3.5021Y-5.1959
X3.5021Y-5.2959
X5.21Y-3.84
X5.21Y-3.94
X5.21Y-4.04
X5.21Y-4.14
X5.21Y-4.24
X5.21Y-4.34
X5.21Y-4.44
X5.21Y-4.54
X5.21Y-4.8594
X5.21Y-4.9594
X5.21Y-5.0594
X5.21Y-5.1594
X5.21Y-5.2594
X5.21Y-5.3594
X5.78Y-2.81
X5.78Y-4.71
X5.88Y-2.81
X5.88Y-4.71
X5.98Y-2.81
X5.98Y-4.71
X6.08Y-2.81
X6.08Y-4.71
X6.18Y-2.81
X6.18Y-4.71
X6.28Y-2.81
X6.28Y-4.71
X6.73Y-3.2404
X6.73Y-3.3404
X6.73Y-3.4404
X6.73Y-3.5404
X6.73Y-3.6404
X6.73Y-3.7404
X6.73Y-3.8404
X6.73Y-3.9404
X6.73Y-4.0404
T0
M30
