%TF.GenerationSoftware,KiCad,Pcbnew,(6.0.9)*%
%TF.CreationDate,2022-11-21T21:05:11-08:00*%
%TF.ProjectId,IO Board,494f2042-6f61-4726-942e-6b696361645f,rev?*%
%TF.SameCoordinates,Original*%
%TF.FileFunction,Copper,L2,Bot*%
%TF.FilePolarity,Positive*%
%FSLAX46Y46*%
G04 Gerber Fmt 4.6, Leading zero omitted, Abs format (unit mm)*
G04 Created by KiCad (PCBNEW (6.0.9)) date 2022-11-21 21:05:11*
%MOMM*%
%LPD*%
G01*
G04 APERTURE LIST*
%TA.AperFunction,ComponentPad*%
%ADD10R,1.700000X1.700000*%
%TD*%
%TA.AperFunction,ComponentPad*%
%ADD11O,1.700000X1.700000*%
%TD*%
%TA.AperFunction,ComponentPad*%
%ADD12C,1.600000*%
%TD*%
%TA.AperFunction,ComponentPad*%
%ADD13C,1.500000*%
%TD*%
%TA.AperFunction,ComponentPad*%
%ADD14R,2.400000X1.600000*%
%TD*%
%TA.AperFunction,ComponentPad*%
%ADD15O,2.400000X1.600000*%
%TD*%
%TA.AperFunction,ViaPad*%
%ADD16C,0.800000*%
%TD*%
%TA.AperFunction,Conductor*%
%ADD17C,0.250000*%
%TD*%
G04 APERTURE END LIST*
D10*
%TO.P,J6,1,Pin_1*%
%TO.N,VCC*%
X132334000Y-123429000D03*
D11*
%TO.P,J6,2,Pin_2*%
%TO.N,Net-(U2-Pad28)*%
X132334000Y-125969000D03*
%TO.P,J6,3,Pin_3*%
%TO.N,Net-(U2-Pad13)*%
X132334000Y-128509000D03*
%TO.P,J6,4,Pin_4*%
%TO.N,Net-(U2-Pad27)*%
X132334000Y-131049000D03*
%TO.P,J6,5,Pin_5*%
%TO.N,Net-(U2-Pad14)*%
X132334000Y-133589000D03*
%TO.P,J6,6,Pin_6*%
%TO.N,Net-(U2-Pad26)*%
X132334000Y-136129000D03*
%TD*%
D10*
%TO.P,J5,1,Pin_1*%
%TO.N,VCC*%
X132334000Y-97536000D03*
D11*
%TO.P,J5,2,Pin_2*%
%TO.N,Net-(U2-Pad36)*%
X132334000Y-100076000D03*
%TO.P,J5,3,Pin_3*%
%TO.N,Net-(U2-Pad2)*%
X132334000Y-102616000D03*
%TO.P,J5,4,Pin_4*%
%TO.N,Net-(U2-Pad39)*%
X132334000Y-105156000D03*
%TO.P,J5,5,Pin_5*%
%TO.N,Net-(U2-Pad38)*%
X132334000Y-107696000D03*
%TO.P,J5,6,Pin_6*%
%TO.N,GND*%
X132334000Y-110236000D03*
%TO.P,J5,7*%
%TO.N,N/C*%
X132334000Y-112776000D03*
%TO.P,J5,8*%
X132334000Y-115316000D03*
%TD*%
D10*
%TO.P,J4,1,Pin_1*%
%TO.N,/~{IOSEL}*%
X170942000Y-82306000D03*
D11*
%TO.P,J4,2,Pin_2*%
%TO.N,/~{UARTSEL}*%
X170942000Y-84846000D03*
%TO.P,J4,3,Pin_3*%
%TO.N,/~{IRQ2}*%
X170942000Y-87386000D03*
%TO.P,J4,4,Pin_4*%
%TO.N,/TXDA*%
X170942000Y-89926000D03*
%TO.P,J4,5,Pin_5*%
%TO.N,/RXDA*%
X170942000Y-92466000D03*
%TO.P,J4,6,Pin_6*%
%TO.N,/~{IACK}*%
X170942000Y-95006000D03*
%TO.P,J4,7,Pin_7*%
%TO.N,/~{LDS}*%
X170942000Y-97546000D03*
%TO.P,J4,8,Pin_8*%
%TO.N,/R~{W}*%
X170942000Y-100086000D03*
%TO.P,J4,9,Pin_9*%
%TO.N,GND*%
X170942000Y-102626000D03*
%TD*%
%TO.P,J3,6,Pin_6*%
%TO.N,GND*%
X159512000Y-71374000D03*
%TO.P,J3,5,Pin_5*%
%TO.N,/RTSB*%
X156972000Y-71374000D03*
%TO.P,J3,4,Pin_4*%
%TO.N,unconnected-(J3-Pad4)*%
X154432000Y-71374000D03*
%TO.P,J3,3,Pin_3*%
%TO.N,/RXDB*%
X151892000Y-71374000D03*
%TO.P,J3,2,Pin_2*%
%TO.N,/TXDB*%
X149352000Y-71374000D03*
D10*
%TO.P,J3,1,Pin_1*%
%TO.N,/CTSB*%
X146812000Y-71374000D03*
%TD*%
%TO.P,J2,1,Pin_1*%
%TO.N,/CTSA*%
X159512000Y-119634000D03*
D11*
%TO.P,J2,2,Pin_2*%
%TO.N,/TXDA*%
X156972000Y-119634000D03*
%TO.P,J2,3,Pin_3*%
%TO.N,/RXDA*%
X154432000Y-119634000D03*
%TO.P,J2,4,Pin_4*%
%TO.N,unconnected-(J2-Pad4)*%
X151892000Y-119634000D03*
%TO.P,J2,5,Pin_5*%
%TO.N,/RTSA*%
X149352000Y-119634000D03*
%TO.P,J2,6,Pin_6*%
%TO.N,GND*%
X146812000Y-119634000D03*
%TD*%
D12*
%TO.P,C4,1*%
%TO.N,Net-(C4-Pad1)*%
X131338000Y-65278000D03*
%TO.P,C4,2*%
%TO.N,GND*%
X133838000Y-65278000D03*
%TD*%
%TO.P,C3,1*%
%TO.N,Net-(C3-Pad1)*%
X131338000Y-84074000D03*
%TO.P,C3,2*%
%TO.N,GND*%
X133838000Y-84074000D03*
%TD*%
D13*
%TO.P,Q1,1,1*%
%TO.N,Net-(C4-Pad1)*%
X132588000Y-72226000D03*
%TO.P,Q1,2,2*%
%TO.N,Net-(C3-Pad1)*%
X132588000Y-77106000D03*
%TD*%
D10*
%TO.P,J1,1,Pin_1*%
%TO.N,/A1*%
X88954100Y-134516100D03*
D11*
%TO.P,J1,2,Pin_2*%
%TO.N,VCC*%
X86414100Y-134516100D03*
%TO.P,J1,3,Pin_3*%
%TO.N,/A2*%
X88954100Y-131976100D03*
%TO.P,J1,4,Pin_4*%
%TO.N,/CLK*%
X86414100Y-131976100D03*
%TO.P,J1,5,Pin_5*%
%TO.N,/A3*%
X88954100Y-129436100D03*
%TO.P,J1,6,Pin_6*%
%TO.N,GND*%
X86414100Y-129436100D03*
%TO.P,J1,7,Pin_7*%
%TO.N,/A4*%
X88954100Y-126896100D03*
%TO.P,J1,8,Pin_8*%
%TO.N,/VPA*%
X86414100Y-126896100D03*
%TO.P,J1,9,Pin_9*%
%TO.N,/A5*%
X88954100Y-124356100D03*
%TO.P,J1,10,Pin_10*%
%TO.N,/~{IACK}*%
X86414100Y-124356100D03*
%TO.P,J1,11,Pin_11*%
%TO.N,/A6*%
X88954100Y-121816100D03*
%TO.P,J1,12,Pin_12*%
%TO.N,/~{IOSEL}*%
X86414100Y-121816100D03*
%TO.P,J1,13,Pin_13*%
%TO.N,/A7*%
X88954100Y-119276100D03*
%TO.P,J1,14,Pin_14*%
%TO.N,/~{IRQ3}*%
X86414100Y-119276100D03*
%TO.P,J1,15,Pin_15*%
%TO.N,/A8*%
X88954100Y-116736100D03*
%TO.P,J1,16,Pin_16*%
%TO.N,/~{HALT}*%
X86414100Y-116736100D03*
%TO.P,J1,17,Pin_17*%
%TO.N,/A9*%
X88954100Y-114196100D03*
%TO.P,J1,18,Pin_18*%
%TO.N,/~{IRQ4}*%
X86414100Y-114196100D03*
%TO.P,J1,19,Pin_19*%
%TO.N,/A10*%
X88954100Y-111656100D03*
%TO.P,J1,20,Pin_20*%
%TO.N,/FC0*%
X86414100Y-111656100D03*
%TO.P,J1,21,Pin_21*%
%TO.N,/A11*%
X88954100Y-109116100D03*
%TO.P,J1,22,Pin_22*%
%TO.N,/FC1*%
X86414100Y-109116100D03*
%TO.P,J1,23,Pin_23*%
%TO.N,/A12*%
X88954100Y-106576100D03*
%TO.P,J1,24,Pin_24*%
%TO.N,/FC2*%
X86414100Y-106576100D03*
%TO.P,J1,25,Pin_25*%
%TO.N,/A13*%
X88954100Y-104036100D03*
%TO.P,J1,26,Pin_26*%
%TO.N,/~{IRQ5}*%
X86414100Y-104036100D03*
%TO.P,J1,27,Pin_27*%
%TO.N,/A14*%
X88954100Y-101496100D03*
%TO.P,J1,28,Pin_28*%
%TO.N,/~{IRQ2}*%
X86414100Y-101496100D03*
%TO.P,J1,29,Pin_29*%
%TO.N,/A15*%
X88954100Y-98956100D03*
%TO.P,J1,30,Pin_30*%
%TO.N,/~{IRQ6}*%
X86414100Y-98956100D03*
%TO.P,J1,31,Pin_31*%
%TO.N,/A16*%
X88954100Y-96416100D03*
%TO.P,J1,32,Pin_32*%
%TO.N,/~{LDS}*%
X86414100Y-96416100D03*
%TO.P,J1,33,Pin_33*%
%TO.N,/A17*%
X88954100Y-93876100D03*
%TO.P,J1,34,Pin_34*%
%TO.N,/~{UDS}*%
X86414100Y-93876100D03*
%TO.P,J1,35,Pin_35*%
%TO.N,/A18*%
X88954100Y-91336100D03*
%TO.P,J1,36,Pin_36*%
%TO.N,/~{RESET}*%
X86414100Y-91336100D03*
%TO.P,J1,37,Pin_37*%
%TO.N,/A19*%
X88954100Y-88796100D03*
%TO.P,J1,38,Pin_38*%
%TO.N,/D15*%
X86414100Y-88796100D03*
%TO.P,J1,39,Pin_39*%
%TO.N,/A20*%
X88954100Y-86256100D03*
%TO.P,J1,40,Pin_40*%
%TO.N,/D14*%
X86414100Y-86256100D03*
%TO.P,J1,41,Pin_41*%
%TO.N,/A21*%
X88954100Y-83716100D03*
%TO.P,J1,42,Pin_42*%
%TO.N,/D13*%
X86414100Y-83716100D03*
%TO.P,J1,43,Pin_43*%
%TO.N,/A22*%
X88954100Y-81176100D03*
%TO.P,J1,44,Pin_44*%
%TO.N,/D12*%
X86414100Y-81176100D03*
%TO.P,J1,45,Pin_45*%
%TO.N,/A23*%
X88954100Y-78636100D03*
%TO.P,J1,46,Pin_46*%
%TO.N,/D11*%
X86414100Y-78636100D03*
%TO.P,J1,47,Pin_47*%
%TO.N,/~{AS}*%
X88954100Y-76096100D03*
%TO.P,J1,48,Pin_48*%
%TO.N,/D10*%
X86414100Y-76096100D03*
%TO.P,J1,49,Pin_49*%
%TO.N,/~{BERR}*%
X88954100Y-73556100D03*
%TO.P,J1,50,Pin_50*%
%TO.N,/D9*%
X86414100Y-73556100D03*
%TO.P,J1,51,Pin_51*%
%TO.N,/~{BG}*%
X88954100Y-71016100D03*
%TO.P,J1,52,Pin_52*%
%TO.N,/D8*%
X86414100Y-71016100D03*
%TO.P,J1,53,Pin_53*%
%TO.N,/~{BGACK}*%
X88954100Y-68476100D03*
%TO.P,J1,54,Pin_54*%
%TO.N,/D7*%
X86414100Y-68476100D03*
%TO.P,J1,55,Pin_55*%
%TO.N,/~{BR}*%
X88954100Y-65936100D03*
%TO.P,J1,56,Pin_56*%
%TO.N,/D6*%
X86414100Y-65936100D03*
%TO.P,J1,57,Pin_57*%
%TO.N,/~{DTACK}*%
X88954100Y-63396100D03*
%TO.P,J1,58,Pin_58*%
%TO.N,/D5*%
X86414100Y-63396100D03*
%TO.P,J1,59,Pin_59*%
%TO.N,/R~{W}*%
X88954100Y-60856100D03*
%TO.P,J1,60,Pin_60*%
%TO.N,/D4*%
X86414100Y-60856100D03*
%TO.P,J1,61,Pin_61*%
%TO.N,/D0*%
X88954100Y-58316100D03*
%TO.P,J1,62,Pin_62*%
%TO.N,/D3*%
X86414100Y-58316100D03*
%TO.P,J1,63,Pin_63*%
%TO.N,/D1*%
X88954100Y-55776100D03*
%TO.P,J1,64,Pin_64*%
%TO.N,/D2*%
X86414100Y-55776100D03*
%TD*%
D12*
%TO.P,C2,1*%
%TO.N,VCC*%
X113558000Y-110490000D03*
%TO.P,C2,2*%
%TO.N,GND*%
X116058000Y-110490000D03*
%TD*%
D14*
%TO.P,U2,1,RS1*%
%TO.N,/A1*%
X106426000Y-55118000D03*
D15*
%TO.P,U2,2,IP3*%
%TO.N,Net-(U2-Pad2)*%
X106426000Y-57658000D03*
%TO.P,U2,3,RS2*%
%TO.N,/A2*%
X106426000Y-60198000D03*
%TO.P,U2,4,IP1*%
%TO.N,/CTSB*%
X106426000Y-62738000D03*
%TO.P,U2,5,RS3*%
%TO.N,/A3*%
X106426000Y-65278000D03*
%TO.P,U2,6,RS4*%
%TO.N,/A4*%
X106426000Y-67818000D03*
%TO.P,U2,7,IP0*%
%TO.N,/CTSA*%
X106426000Y-70358000D03*
%TO.P,U2,8,R/W*%
%TO.N,/R~{W}*%
X106426000Y-72898000D03*
%TO.P,U2,9,DTACK*%
%TO.N,/~{DTACK}*%
X106426000Y-75438000D03*
%TO.P,U2,10,RXDB*%
%TO.N,/RXDB*%
X106426000Y-77978000D03*
%TO.P,U2,11,TXDB*%
%TO.N,/TXDB*%
X106426000Y-80518000D03*
%TO.P,U2,12,OP1*%
%TO.N,/RTSB*%
X106426000Y-83058000D03*
%TO.P,U2,13,OP3*%
%TO.N,Net-(U2-Pad13)*%
X106426000Y-85598000D03*
%TO.P,U2,14,OP5*%
%TO.N,Net-(U2-Pad14)*%
X106426000Y-88138000D03*
%TO.P,U2,15,OP7*%
%TO.N,Net-(U2-Pad15)*%
X106426000Y-90678000D03*
%TO.P,U2,16,D1*%
%TO.N,/D1*%
X106426000Y-93218000D03*
%TO.P,U2,17,D3*%
%TO.N,/D3*%
X106426000Y-95758000D03*
%TO.P,U2,18,D5*%
%TO.N,/D5*%
X106426000Y-98298000D03*
%TO.P,U2,19,D7*%
%TO.N,/D7*%
X106426000Y-100838000D03*
%TO.P,U2,20,GND*%
%TO.N,GND*%
X106426000Y-103378000D03*
%TO.P,U2,21,IRQ*%
%TO.N,/~{IRQ2}*%
X121666000Y-103378000D03*
%TO.P,U2,22,D6*%
%TO.N,/D6*%
X121666000Y-100838000D03*
%TO.P,U2,23,D4*%
%TO.N,/D4*%
X121666000Y-98298000D03*
%TO.P,U2,24,D2*%
%TO.N,/D2*%
X121666000Y-95758000D03*
%TO.P,U2,25,D0*%
%TO.N,/D0*%
X121666000Y-93218000D03*
%TO.P,U2,26,OP6*%
%TO.N,Net-(U2-Pad26)*%
X121666000Y-90678000D03*
%TO.P,U2,27,OP4*%
%TO.N,Net-(U2-Pad27)*%
X121666000Y-88138000D03*
%TO.P,U2,28,OP2*%
%TO.N,Net-(U2-Pad28)*%
X121666000Y-85598000D03*
%TO.P,U2,29,OP0*%
%TO.N,/RTSA*%
X121666000Y-83058000D03*
%TO.P,U2,30,TXDA*%
%TO.N,/TXDA*%
X121666000Y-80518000D03*
%TO.P,U2,31,RXDA*%
%TO.N,/RXDA*%
X121666000Y-77978000D03*
%TO.P,U2,32,X1/CLK*%
%TO.N,Net-(C3-Pad1)*%
X121666000Y-75438000D03*
%TO.P,U2,33,X2*%
%TO.N,Net-(C4-Pad1)*%
X121666000Y-72898000D03*
%TO.P,U2,34,RESET*%
%TO.N,/~{RESET}*%
X121666000Y-70358000D03*
%TO.P,U2,35,CS*%
%TO.N,/~{UARTSEL}*%
X121666000Y-67818000D03*
%TO.P,U2,36,IP2*%
%TO.N,Net-(U2-Pad36)*%
X121666000Y-65278000D03*
%TO.P,U2,37,IACK*%
%TO.N,/~{IACK}*%
X121666000Y-62738000D03*
%TO.P,U2,38,IP5*%
%TO.N,Net-(U2-Pad38)*%
X121666000Y-60198000D03*
%TO.P,U2,39,IP4*%
%TO.N,Net-(U2-Pad39)*%
X121666000Y-57658000D03*
%TO.P,U2,40,VCC*%
%TO.N,VCC*%
X121666000Y-55118000D03*
%TD*%
D14*
%TO.P,U1,1,I1/CLK*%
%TO.N,/~{UDS}*%
X110998000Y-115062000D03*
D15*
%TO.P,U1,2,I2*%
%TO.N,/~{LDS}*%
X110998000Y-117602000D03*
%TO.P,U1,3,I3*%
%TO.N,/R~{W}*%
X110998000Y-120142000D03*
%TO.P,U1,4,I4*%
%TO.N,/A18*%
X110998000Y-122682000D03*
%TO.P,U1,5,I5*%
%TO.N,/A17*%
X110998000Y-125222000D03*
%TO.P,U1,6,I6*%
%TO.N,/A16*%
X110998000Y-127762000D03*
%TO.P,U1,7,I7*%
%TO.N,/A15*%
X110998000Y-130302000D03*
%TO.P,U1,8,I8*%
%TO.N,/A14*%
X110998000Y-132842000D03*
%TO.P,U1,9,I9*%
%TO.N,/~{IOSEL}*%
X110998000Y-135382000D03*
%TO.P,U1,10,GND*%
%TO.N,GND*%
X110998000Y-137922000D03*
%TO.P,U1,11,I10/~{OE}*%
%TO.N,unconnected-(U1-Pad11)*%
X118618000Y-137922000D03*
%TO.P,U1,12,IO8*%
%TO.N,unconnected-(U1-Pad12)*%
X118618000Y-135382000D03*
%TO.P,U1,13,IO7*%
%TO.N,unconnected-(U1-Pad13)*%
X118618000Y-132842000D03*
%TO.P,U1,14,IO6*%
%TO.N,unconnected-(U1-Pad14)*%
X118618000Y-130302000D03*
%TO.P,U1,15,IO5*%
%TO.N,unconnected-(U1-Pad15)*%
X118618000Y-127762000D03*
%TO.P,U1,16,IO4*%
%TO.N,unconnected-(U1-Pad16)*%
X118618000Y-125222000D03*
%TO.P,U1,17,I03*%
%TO.N,unconnected-(U1-Pad17)*%
X118618000Y-122682000D03*
%TO.P,U1,18,IO2*%
%TO.N,unconnected-(U1-Pad18)*%
X118618000Y-120142000D03*
%TO.P,U1,19,IO1*%
%TO.N,/~{UARTSEL}*%
X118618000Y-117602000D03*
%TO.P,U1,20,VCC*%
%TO.N,VCC*%
X118618000Y-115062000D03*
%TD*%
D12*
%TO.P,C1,1*%
%TO.N,VCC*%
X112796000Y-50546000D03*
%TO.P,C1,2*%
%TO.N,GND*%
X115296000Y-50546000D03*
%TD*%
D16*
%TO.N,Net-(U2-Pad14)*%
X125458200Y-100681100D03*
%TO.N,Net-(U2-Pad13)*%
X127226000Y-99147200D03*
%TO.N,/TXDB*%
X109922200Y-77831000D03*
%TO.N,/CTSA*%
X122242600Y-114006100D03*
%TO.N,GND*%
X118572700Y-112789000D03*
%TD*%
D17*
%TO.N,Net-(U2-Pad26)*%
X121666000Y-90678000D02*
X123191300Y-90678000D01*
X132334000Y-136129000D02*
X132334000Y-134953700D01*
X123191300Y-94220800D02*
X123191300Y-90678000D01*
X123641600Y-94671100D02*
X123191300Y-94220800D01*
X123641600Y-126628600D02*
X123641600Y-94671100D01*
X131966700Y-134953700D02*
X123641600Y-126628600D01*
X132334000Y-134953700D02*
X131966700Y-134953700D01*
%TO.N,Net-(U2-Pad14)*%
X131966700Y-132413700D02*
X132334000Y-132413700D01*
X125458200Y-125905200D02*
X131966700Y-132413700D01*
X125458200Y-100681100D02*
X125458200Y-125905200D01*
X132334000Y-133589000D02*
X132334000Y-132413700D01*
%TO.N,Net-(U2-Pad27)*%
X131966700Y-129873700D02*
X132334000Y-129873700D01*
X126183600Y-124090600D02*
X131966700Y-129873700D01*
X126183600Y-96379900D02*
X126183600Y-124090600D01*
X123641700Y-93838000D02*
X126183600Y-96379900D01*
X123641700Y-88588400D02*
X123641700Y-93838000D01*
X123191300Y-88138000D02*
X123641700Y-88588400D01*
X121666000Y-88138000D02*
X123191300Y-88138000D01*
X132334000Y-131049000D02*
X132334000Y-129873700D01*
%TO.N,Net-(U2-Pad13)*%
X132334000Y-128509000D02*
X132334000Y-127333700D01*
X127226000Y-122593000D02*
X127226000Y-99147200D01*
X131966700Y-127333700D02*
X127226000Y-122593000D01*
X132334000Y-127333700D02*
X131966700Y-127333700D01*
%TO.N,Net-(U2-Pad28)*%
X121666000Y-85598000D02*
X123191300Y-85598000D01*
X132334000Y-125969000D02*
X132334000Y-124793700D01*
X131530800Y-124793700D02*
X132334000Y-124793700D01*
X128298800Y-121561700D02*
X131530800Y-124793700D01*
X128298800Y-97858200D02*
X128298800Y-121561700D01*
X124092100Y-93651500D02*
X128298800Y-97858200D01*
X124092100Y-86498800D02*
X124092100Y-93651500D01*
X123191300Y-85598000D02*
X124092100Y-86498800D01*
%TO.N,Net-(U2-Pad38)*%
X121666000Y-60198000D02*
X123191300Y-60198000D01*
X132334000Y-107696000D02*
X132334000Y-106520700D01*
X129939400Y-66946100D02*
X123191300Y-60198000D01*
X129939500Y-66946100D02*
X129939400Y-66946100D01*
X129939500Y-90288900D02*
X129939500Y-66946100D01*
X133970100Y-94319500D02*
X129939500Y-90288900D01*
X133970100Y-103752900D02*
X133970100Y-94319500D01*
X133519800Y-104203200D02*
X133970100Y-103752900D01*
X133519800Y-105700200D02*
X133519800Y-104203200D01*
X132699300Y-106520700D02*
X133519800Y-105700200D01*
X132334000Y-106520700D02*
X132699300Y-106520700D01*
%TO.N,Net-(U2-Pad39)*%
X121666000Y-57658000D02*
X120140700Y-57658000D01*
X132334000Y-105156000D02*
X132334000Y-103980700D01*
X120140700Y-60664300D02*
X120140700Y-57658000D01*
X121018300Y-61541900D02*
X120140700Y-60664300D01*
X122541500Y-61541900D02*
X121018300Y-61541900D01*
X128913900Y-67914300D02*
X122541500Y-61541900D01*
X128913900Y-90022000D02*
X128913900Y-67914300D01*
X133519700Y-94627800D02*
X128913900Y-90022000D01*
X133519700Y-103102200D02*
X133519700Y-94627800D01*
X132641200Y-103980700D02*
X133519700Y-103102200D01*
X132334000Y-103980700D02*
X132641200Y-103980700D01*
%TO.N,Net-(U2-Pad2)*%
X106426000Y-57658000D02*
X107951300Y-57658000D01*
X132334000Y-102616000D02*
X132334000Y-101440700D01*
X116841200Y-66547900D02*
X107951300Y-57658000D01*
X122391600Y-66547900D02*
X116841200Y-66547900D01*
X125970900Y-70127200D02*
X122391600Y-66547900D01*
X125970900Y-92126000D02*
X125970900Y-70127200D01*
X130376900Y-96532000D02*
X125970900Y-92126000D01*
X130376900Y-99851000D02*
X130376900Y-96532000D01*
X131966600Y-101440700D02*
X130376900Y-99851000D01*
X132334000Y-101440700D02*
X131966600Y-101440700D01*
%TO.N,Net-(U2-Pad36)*%
X121666000Y-65278000D02*
X123191300Y-65278000D01*
X132334000Y-100076000D02*
X132334000Y-98900700D01*
X126475800Y-68562500D02*
X123191300Y-65278000D01*
X126475800Y-89070200D02*
X126475800Y-68562500D01*
X131158700Y-93753100D02*
X126475800Y-89070200D01*
X131158700Y-98533500D02*
X131158700Y-93753100D01*
X131525900Y-98900700D02*
X131158700Y-98533500D01*
X132334000Y-98900700D02*
X131525900Y-98900700D01*
%TO.N,/RXDA*%
X170942000Y-92466000D02*
X170942000Y-93641300D01*
X170574700Y-93641300D02*
X170942000Y-93641300D01*
X154432000Y-109784000D02*
X170574700Y-93641300D01*
X154432000Y-119634000D02*
X154432000Y-109784000D01*
%TO.N,/TXDA*%
X172123000Y-103307700D02*
X156972000Y-118458700D01*
X172123000Y-91915000D02*
X172123000Y-103307700D01*
X171309300Y-91101300D02*
X172123000Y-91915000D01*
X170942000Y-91101300D02*
X171309300Y-91101300D01*
X170942000Y-89926000D02*
X170942000Y-91101300D01*
X156972000Y-119634000D02*
X156972000Y-118458700D01*
%TO.N,/RTSA*%
X148176700Y-120001400D02*
X148176700Y-119634000D01*
X147368800Y-120809300D02*
X148176700Y-120001400D01*
X144570000Y-120809300D02*
X147368800Y-120809300D01*
X135266700Y-111506000D02*
X144570000Y-120809300D01*
X131861700Y-111506000D02*
X135266700Y-111506000D01*
X129199400Y-108843700D02*
X131861700Y-111506000D01*
X129199400Y-96831300D02*
X129199400Y-108843700D01*
X124542500Y-92174400D02*
X129199400Y-96831300D01*
X124542500Y-84409200D02*
X124542500Y-92174400D01*
X123191300Y-83058000D02*
X124542500Y-84409200D01*
X121666000Y-83058000D02*
X123191300Y-83058000D01*
X149352000Y-119634000D02*
X148176700Y-119634000D01*
%TO.N,/TXDB*%
X106426000Y-80518000D02*
X107951300Y-80518000D01*
X107951300Y-79801900D02*
X109922200Y-77831000D01*
X107951300Y-80518000D02*
X107951300Y-79801900D01*
%TO.N,/CTSA*%
X111998600Y-103762100D02*
X122242600Y-114006100D01*
X111998600Y-74405300D02*
X111998600Y-103762100D01*
X107951300Y-70358000D02*
X111998600Y-74405300D01*
X106426000Y-70358000D02*
X107951300Y-70358000D01*
%TO.N,Net-(C3-Pad1)*%
X131338000Y-78356000D02*
X131338000Y-84074000D01*
X132588000Y-77106000D02*
X131338000Y-78356000D01*
%TO.N,Net-(C4-Pad1)*%
X131338000Y-70976000D02*
X131338000Y-65278000D01*
X132588000Y-72226000D02*
X131338000Y-70976000D01*
%TO.N,/~{IOSEL}*%
X170574700Y-83481300D02*
X170942000Y-83481300D01*
X150622000Y-103434000D02*
X170574700Y-83481300D01*
X150622000Y-120039500D02*
X150622000Y-103434000D01*
X131568600Y-139092900D02*
X150622000Y-120039500D01*
X110132600Y-139092900D02*
X131568600Y-139092900D01*
X109472700Y-138433000D02*
X110132600Y-139092900D01*
X109472700Y-135382000D02*
X109472700Y-138433000D01*
X110998000Y-135382000D02*
X109472700Y-135382000D01*
X170942000Y-82306000D02*
X170942000Y-83481300D01*
%TO.N,/~{UARTSEL}*%
X120140700Y-93686700D02*
X120140700Y-67818000D01*
X120942000Y-94488000D02*
X120140700Y-93686700D01*
X122395000Y-94488000D02*
X120942000Y-94488000D01*
X123191300Y-95284300D02*
X122395000Y-94488000D01*
X123191300Y-114554000D02*
X123191300Y-95284300D01*
X120143300Y-117602000D02*
X123191300Y-114554000D01*
X118618000Y-117602000D02*
X120143300Y-117602000D01*
X121666000Y-67818000D02*
X120140700Y-67818000D01*
%TO.N,/D2*%
X121666000Y-95758000D02*
X120140700Y-95758000D01*
X119690400Y-95307700D02*
X120140700Y-95758000D01*
X119690400Y-76548500D02*
X119690400Y-95307700D01*
X107149900Y-64008000D02*
X119690400Y-76548500D01*
X104900600Y-64008000D02*
X107149900Y-64008000D01*
X95009600Y-54117000D02*
X104900600Y-64008000D01*
X88073200Y-54117000D02*
X95009600Y-54117000D01*
X86414100Y-55776100D02*
X88073200Y-54117000D01*
%TO.N,/D1*%
X89321400Y-56951400D02*
X88954100Y-56951400D01*
X104900700Y-72530700D02*
X89321400Y-56951400D01*
X104900700Y-93218000D02*
X104900700Y-72530700D01*
X106426000Y-93218000D02*
X104900700Y-93218000D01*
X88954100Y-55776100D02*
X88954100Y-56951400D01*
%TO.N,/D3*%
X86781500Y-59491400D02*
X86414100Y-59491400D01*
X87589400Y-60299300D02*
X86781500Y-59491400D01*
X87589400Y-61192400D02*
X87589400Y-60299300D01*
X88428500Y-62031500D02*
X87589400Y-61192400D01*
X89297300Y-62031500D02*
X88428500Y-62031500D01*
X93591800Y-66326000D02*
X89297300Y-62031500D01*
X93591800Y-84449100D02*
X93591800Y-66326000D01*
X104900700Y-95758000D02*
X93591800Y-84449100D01*
X106426000Y-95758000D02*
X104900700Y-95758000D01*
X86414100Y-58316100D02*
X86414100Y-59491400D01*
%TO.N,/R~{W}*%
X110998000Y-120142000D02*
X112523300Y-120142000D01*
X112523300Y-113936500D02*
X112523300Y-120142000D01*
X111057400Y-112470600D02*
X112523300Y-113936500D01*
X111057400Y-77529400D02*
X111057400Y-112470600D01*
X106426000Y-72898000D02*
X111057400Y-77529400D01*
%TO.N,/D5*%
X86781500Y-64571400D02*
X86414100Y-64571400D01*
X87589400Y-65379300D02*
X86781500Y-64571400D01*
X87589400Y-66272400D02*
X87589400Y-65379300D01*
X88428500Y-67111500D02*
X87589400Y-66272400D01*
X89286700Y-67111500D02*
X88428500Y-67111500D01*
X91274100Y-69098900D02*
X89286700Y-67111500D01*
X91274100Y-84671400D02*
X91274100Y-69098900D01*
X104900700Y-98298000D02*
X91274100Y-84671400D01*
X106426000Y-98298000D02*
X104900700Y-98298000D01*
X86414100Y-63396100D02*
X86414100Y-64571400D01*
%TO.N,/A18*%
X110998000Y-122682000D02*
X109472700Y-122682000D01*
X88954100Y-91336100D02*
X88954100Y-92511400D01*
X108160400Y-121369700D02*
X109472700Y-122682000D01*
X108160400Y-111412300D02*
X108160400Y-121369700D01*
X89259500Y-92511400D02*
X108160400Y-111412300D01*
X88954100Y-92511400D02*
X89259500Y-92511400D01*
%TO.N,/~{UDS}*%
X86051300Y-92700800D02*
X86414100Y-92700800D01*
X85194000Y-91843500D02*
X86051300Y-92700800D01*
X85194000Y-90873200D02*
X85194000Y-91843500D01*
X86001100Y-90066100D02*
X85194000Y-90873200D01*
X86808300Y-90066100D02*
X86001100Y-90066100D01*
X87778700Y-89095700D02*
X86808300Y-90066100D01*
X87778700Y-88289700D02*
X87778700Y-89095700D01*
X88542300Y-87526100D02*
X87778700Y-88289700D01*
X89353700Y-87526100D02*
X88542300Y-87526100D01*
X90922400Y-89094800D02*
X89353700Y-87526100D01*
X90922400Y-90601000D02*
X90922400Y-89094800D01*
X109472700Y-109151300D02*
X90922400Y-90601000D01*
X109472700Y-115062000D02*
X109472700Y-109151300D01*
X86414100Y-93876100D02*
X86414100Y-92700800D01*
X110998000Y-115062000D02*
X109472700Y-115062000D01*
%TO.N,/A17*%
X110998000Y-125222000D02*
X109472700Y-125222000D01*
X88954100Y-93876100D02*
X88954100Y-95051400D01*
X107671500Y-123420800D02*
X109472700Y-125222000D01*
X107671500Y-113401400D02*
X107671500Y-123420800D01*
X89321500Y-95051400D02*
X107671500Y-113401400D01*
X88954100Y-95051400D02*
X89321500Y-95051400D01*
%TO.N,/~{LDS}*%
X86781500Y-95240800D02*
X86414100Y-95240800D01*
X87589400Y-94432900D02*
X86781500Y-95240800D01*
X87589400Y-91024000D02*
X87589400Y-94432900D01*
X88452700Y-90160700D02*
X87589400Y-91024000D01*
X89441000Y-90160700D02*
X88452700Y-90160700D01*
X109022300Y-109742000D02*
X89441000Y-90160700D01*
X109022300Y-117151600D02*
X109022300Y-109742000D01*
X109472700Y-117602000D02*
X109022300Y-117151600D01*
X110998000Y-117602000D02*
X109472700Y-117602000D01*
X86414100Y-96416100D02*
X86414100Y-95240800D01*
%TO.N,/A16*%
X110998000Y-127762000D02*
X109472700Y-127762000D01*
X88954100Y-96416100D02*
X88954100Y-97591400D01*
X107221200Y-125510500D02*
X109472700Y-127762000D01*
X107221200Y-115529800D02*
X107221200Y-125510500D01*
X89282800Y-97591400D02*
X107221200Y-115529800D01*
X88954100Y-97591400D02*
X89282800Y-97591400D01*
%TO.N,/A15*%
X110998000Y-130302000D02*
X109472700Y-130302000D01*
X88954100Y-98956100D02*
X88954100Y-100131400D01*
X106770900Y-127600200D02*
X109472700Y-130302000D01*
X106770900Y-117580900D02*
X106770900Y-127600200D01*
X89321400Y-100131400D02*
X106770900Y-117580900D01*
X88954100Y-100131400D02*
X89321400Y-100131400D01*
%TO.N,/A14*%
X89321500Y-102671400D02*
X88954100Y-102671400D01*
X90129400Y-103479300D02*
X89321500Y-102671400D01*
X90129400Y-113498700D02*
X90129400Y-103479300D01*
X109472700Y-132842000D02*
X90129400Y-113498700D01*
X110998000Y-132842000D02*
X109472700Y-132842000D01*
X88954100Y-101496100D02*
X88954100Y-102671400D01*
%TO.N,/A4*%
X106426000Y-67818000D02*
X104900700Y-67818000D01*
X88954100Y-126896100D02*
X90129400Y-126896100D01*
X97201300Y-133968000D02*
X90129400Y-126896100D01*
X111927200Y-133968000D02*
X97201300Y-133968000D01*
X112979200Y-132916000D02*
X111927200Y-133968000D01*
X112979200Y-112020300D02*
X112979200Y-132916000D01*
X111548200Y-110589300D02*
X112979200Y-112020300D01*
X111548200Y-75987400D02*
X111548200Y-110589300D01*
X107188800Y-71628000D02*
X111548200Y-75987400D01*
X105620000Y-71628000D02*
X107188800Y-71628000D01*
X104900700Y-70908700D02*
X105620000Y-71628000D01*
X104900700Y-67818000D02*
X104900700Y-70908700D01*
%TO.N,/A3*%
X88954100Y-129436100D02*
X88954100Y-128260800D01*
X106426000Y-65278000D02*
X104900700Y-65278000D01*
X94196500Y-54573800D02*
X104900700Y-65278000D01*
X88490000Y-54573800D02*
X94196500Y-54573800D01*
X87589500Y-55474300D02*
X88490000Y-54573800D01*
X87589500Y-56301700D02*
X87589500Y-55474300D01*
X86845100Y-57046100D02*
X87589500Y-56301700D01*
X85941400Y-57046100D02*
X86845100Y-57046100D01*
X84743700Y-58243800D02*
X85941400Y-57046100D01*
X84743700Y-104102200D02*
X84743700Y-58243800D01*
X85966600Y-105325100D02*
X84743700Y-104102200D01*
X86879500Y-105325100D02*
X85966600Y-105325100D01*
X87778800Y-106224400D02*
X86879500Y-105325100D01*
X87778800Y-127452900D02*
X87778800Y-106224400D01*
X88586700Y-128260800D02*
X87778800Y-127452900D01*
X88954100Y-128260800D02*
X88586700Y-128260800D01*
%TO.N,/A2*%
X106426000Y-60198000D02*
X104900700Y-60198000D01*
X88954100Y-131976100D02*
X88954100Y-130800800D01*
X88586700Y-130800800D02*
X88954100Y-130800800D01*
X87778800Y-129992900D02*
X88586700Y-130800800D01*
X87778800Y-129116600D02*
X87778800Y-129992900D01*
X86861700Y-128199500D02*
X87778800Y-129116600D01*
X86007700Y-128199500D02*
X86861700Y-128199500D01*
X84293400Y-126485200D02*
X86007700Y-128199500D01*
X84293400Y-56179800D02*
X84293400Y-126485200D01*
X86860100Y-53613100D02*
X84293400Y-56179800D01*
X98315800Y-53613100D02*
X86860100Y-53613100D01*
X104900700Y-60198000D02*
X98315800Y-53613100D01*
%TO.N,/A1*%
X106426000Y-55118000D02*
X104900700Y-55118000D01*
X88954100Y-134516100D02*
X88954100Y-133340800D01*
X88586700Y-133340800D02*
X88954100Y-133340800D01*
X87778800Y-132532900D02*
X88586700Y-133340800D01*
X87778800Y-131656600D02*
X87778800Y-132532900D01*
X86861700Y-130739500D02*
X87778800Y-131656600D01*
X86007800Y-130739500D02*
X86861700Y-130739500D01*
X83843100Y-128574800D02*
X86007800Y-130739500D01*
X83843100Y-55993200D02*
X83843100Y-128574800D01*
X86673600Y-53162700D02*
X83843100Y-55993200D01*
X102945400Y-53162700D02*
X86673600Y-53162700D01*
X104900700Y-55118000D02*
X102945400Y-53162700D01*
%TO.N,GND*%
X132334000Y-110236000D02*
X132334000Y-109060700D01*
X145636700Y-119634000D02*
X133882400Y-107879600D01*
X132701300Y-109060700D02*
X132334000Y-109060700D01*
X133882400Y-107879600D02*
X132701300Y-109060700D01*
X146812000Y-119634000D02*
X145636700Y-119634000D01*
X110998000Y-137922000D02*
X112523300Y-137922000D01*
X115757800Y-114881200D02*
X118103500Y-112535500D01*
X115757800Y-134687500D02*
X115757800Y-114881200D01*
X112523300Y-137922000D02*
X115757800Y-134687500D01*
X118103500Y-112535500D02*
X116058000Y-110490000D01*
X134020900Y-84256900D02*
X133838000Y-84074000D01*
X134020900Y-93443500D02*
X134020900Y-84256900D01*
X134420400Y-93843000D02*
X134020900Y-93443500D01*
X134420400Y-103939500D02*
X134420400Y-93843000D01*
X134020900Y-104339000D02*
X134420400Y-103939500D01*
X134020900Y-107741100D02*
X134020900Y-104339000D01*
X133882400Y-107879600D02*
X134020900Y-107741100D01*
X118319200Y-112535500D02*
X118572700Y-112789000D01*
X118103500Y-112535500D02*
X118319200Y-112535500D01*
X159512000Y-71374000D02*
X158336700Y-71374000D01*
X158336700Y-71006700D02*
X158336700Y-71374000D01*
X157522400Y-70192400D02*
X158336700Y-71006700D01*
X133838000Y-70192400D02*
X157522400Y-70192400D01*
X133838000Y-65278000D02*
X133838000Y-70192400D01*
X133838000Y-70192400D02*
X133838000Y-84074000D01*
%TO.N,VCC*%
X121666000Y-55118000D02*
X120140700Y-55118000D01*
X132334000Y-97536000D02*
X132334000Y-96360700D01*
X114697400Y-109350600D02*
X113558000Y-110490000D01*
X116548800Y-109350600D02*
X114697400Y-109350600D01*
X119298000Y-112099800D02*
X116548800Y-109350600D01*
X119298000Y-114382000D02*
X119298000Y-112099800D01*
X118618000Y-115062000D02*
X119298000Y-114382000D01*
X119690400Y-55568300D02*
X120140700Y-55118000D01*
X119690400Y-62773000D02*
X119690400Y-55568300D01*
X120999300Y-64081900D02*
X119690400Y-62773000D01*
X122642700Y-64081900D02*
X120999300Y-64081900D01*
X127135400Y-68574600D02*
X122642700Y-64081900D01*
X127135400Y-89092900D02*
X127135400Y-68574600D01*
X132333900Y-94291400D02*
X127135400Y-89092900D01*
X132333900Y-96360700D02*
X132333900Y-94291400D01*
X132334000Y-96360700D02*
X132333900Y-96360700D01*
%TD*%
M02*
