%TF.GenerationSoftware,KiCad,Pcbnew,(6.0.9)*%
%TF.CreationDate,2022-11-21T21:05:11-08:00*%
%TF.ProjectId,IO Board,494f2042-6f61-4726-942e-6b696361645f,rev?*%
%TF.SameCoordinates,Original*%
%TF.FileFunction,Copper,L1,Top*%
%TF.FilePolarity,Positive*%
%FSLAX46Y46*%
G04 Gerber Fmt 4.6, Leading zero omitted, Abs format (unit mm)*
G04 Created by KiCad (PCBNEW (6.0.9)) date 2022-11-21 21:05:11*
%MOMM*%
%LPD*%
G01*
G04 APERTURE LIST*
%TA.AperFunction,ComponentPad*%
%ADD10R,1.700000X1.700000*%
%TD*%
%TA.AperFunction,ComponentPad*%
%ADD11O,1.700000X1.700000*%
%TD*%
%TA.AperFunction,ComponentPad*%
%ADD12C,1.600000*%
%TD*%
%TA.AperFunction,ComponentPad*%
%ADD13C,1.500000*%
%TD*%
%TA.AperFunction,ComponentPad*%
%ADD14R,2.400000X1.600000*%
%TD*%
%TA.AperFunction,ComponentPad*%
%ADD15O,2.400000X1.600000*%
%TD*%
%TA.AperFunction,ViaPad*%
%ADD16C,0.800000*%
%TD*%
%TA.AperFunction,Conductor*%
%ADD17C,0.250000*%
%TD*%
G04 APERTURE END LIST*
D10*
%TO.P,J6,1,Pin_1*%
%TO.N,VCC*%
X132334000Y-123429000D03*
D11*
%TO.P,J6,2,Pin_2*%
%TO.N,Net-(U2-Pad28)*%
X132334000Y-125969000D03*
%TO.P,J6,3,Pin_3*%
%TO.N,Net-(U2-Pad13)*%
X132334000Y-128509000D03*
%TO.P,J6,4,Pin_4*%
%TO.N,Net-(U2-Pad27)*%
X132334000Y-131049000D03*
%TO.P,J6,5,Pin_5*%
%TO.N,Net-(U2-Pad14)*%
X132334000Y-133589000D03*
%TO.P,J6,6,Pin_6*%
%TO.N,Net-(U2-Pad26)*%
X132334000Y-136129000D03*
%TD*%
D10*
%TO.P,J5,1,Pin_1*%
%TO.N,VCC*%
X132334000Y-97536000D03*
D11*
%TO.P,J5,2,Pin_2*%
%TO.N,Net-(U2-Pad36)*%
X132334000Y-100076000D03*
%TO.P,J5,3,Pin_3*%
%TO.N,Net-(U2-Pad2)*%
X132334000Y-102616000D03*
%TO.P,J5,4,Pin_4*%
%TO.N,Net-(U2-Pad39)*%
X132334000Y-105156000D03*
%TO.P,J5,5,Pin_5*%
%TO.N,Net-(U2-Pad38)*%
X132334000Y-107696000D03*
%TO.P,J5,6,Pin_6*%
%TO.N,GND*%
X132334000Y-110236000D03*
%TO.P,J5,7*%
%TO.N,N/C*%
X132334000Y-112776000D03*
%TO.P,J5,8*%
X132334000Y-115316000D03*
%TD*%
D10*
%TO.P,J4,1,Pin_1*%
%TO.N,/~{IOSEL}*%
X170942000Y-82306000D03*
D11*
%TO.P,J4,2,Pin_2*%
%TO.N,/~{UARTSEL}*%
X170942000Y-84846000D03*
%TO.P,J4,3,Pin_3*%
%TO.N,/~{IRQ2}*%
X170942000Y-87386000D03*
%TO.P,J4,4,Pin_4*%
%TO.N,/TXDA*%
X170942000Y-89926000D03*
%TO.P,J4,5,Pin_5*%
%TO.N,/RXDA*%
X170942000Y-92466000D03*
%TO.P,J4,6,Pin_6*%
%TO.N,/~{IACK}*%
X170942000Y-95006000D03*
%TO.P,J4,7,Pin_7*%
%TO.N,/~{LDS}*%
X170942000Y-97546000D03*
%TO.P,J4,8,Pin_8*%
%TO.N,/R~{W}*%
X170942000Y-100086000D03*
%TO.P,J4,9,Pin_9*%
%TO.N,GND*%
X170942000Y-102626000D03*
%TD*%
%TO.P,J3,6,Pin_6*%
%TO.N,GND*%
X159512000Y-71374000D03*
%TO.P,J3,5,Pin_5*%
%TO.N,/RTSB*%
X156972000Y-71374000D03*
%TO.P,J3,4,Pin_4*%
%TO.N,unconnected-(J3-Pad4)*%
X154432000Y-71374000D03*
%TO.P,J3,3,Pin_3*%
%TO.N,/RXDB*%
X151892000Y-71374000D03*
%TO.P,J3,2,Pin_2*%
%TO.N,/TXDB*%
X149352000Y-71374000D03*
D10*
%TO.P,J3,1,Pin_1*%
%TO.N,/CTSB*%
X146812000Y-71374000D03*
%TD*%
%TO.P,J2,1,Pin_1*%
%TO.N,/CTSA*%
X159512000Y-119634000D03*
D11*
%TO.P,J2,2,Pin_2*%
%TO.N,/TXDA*%
X156972000Y-119634000D03*
%TO.P,J2,3,Pin_3*%
%TO.N,/RXDA*%
X154432000Y-119634000D03*
%TO.P,J2,4,Pin_4*%
%TO.N,unconnected-(J2-Pad4)*%
X151892000Y-119634000D03*
%TO.P,J2,5,Pin_5*%
%TO.N,/RTSA*%
X149352000Y-119634000D03*
%TO.P,J2,6,Pin_6*%
%TO.N,GND*%
X146812000Y-119634000D03*
%TD*%
D12*
%TO.P,C4,1*%
%TO.N,Net-(C4-Pad1)*%
X131338000Y-65278000D03*
%TO.P,C4,2*%
%TO.N,GND*%
X133838000Y-65278000D03*
%TD*%
%TO.P,C3,1*%
%TO.N,Net-(C3-Pad1)*%
X131338000Y-84074000D03*
%TO.P,C3,2*%
%TO.N,GND*%
X133838000Y-84074000D03*
%TD*%
D13*
%TO.P,Q1,1,1*%
%TO.N,Net-(C4-Pad1)*%
X132588000Y-72226000D03*
%TO.P,Q1,2,2*%
%TO.N,Net-(C3-Pad1)*%
X132588000Y-77106000D03*
%TD*%
D10*
%TO.P,J1,1,Pin_1*%
%TO.N,/A1*%
X88954100Y-134516100D03*
D11*
%TO.P,J1,2,Pin_2*%
%TO.N,VCC*%
X86414100Y-134516100D03*
%TO.P,J1,3,Pin_3*%
%TO.N,/A2*%
X88954100Y-131976100D03*
%TO.P,J1,4,Pin_4*%
%TO.N,/CLK*%
X86414100Y-131976100D03*
%TO.P,J1,5,Pin_5*%
%TO.N,/A3*%
X88954100Y-129436100D03*
%TO.P,J1,6,Pin_6*%
%TO.N,GND*%
X86414100Y-129436100D03*
%TO.P,J1,7,Pin_7*%
%TO.N,/A4*%
X88954100Y-126896100D03*
%TO.P,J1,8,Pin_8*%
%TO.N,/VPA*%
X86414100Y-126896100D03*
%TO.P,J1,9,Pin_9*%
%TO.N,/A5*%
X88954100Y-124356100D03*
%TO.P,J1,10,Pin_10*%
%TO.N,/~{IACK}*%
X86414100Y-124356100D03*
%TO.P,J1,11,Pin_11*%
%TO.N,/A6*%
X88954100Y-121816100D03*
%TO.P,J1,12,Pin_12*%
%TO.N,/~{IOSEL}*%
X86414100Y-121816100D03*
%TO.P,J1,13,Pin_13*%
%TO.N,/A7*%
X88954100Y-119276100D03*
%TO.P,J1,14,Pin_14*%
%TO.N,/~{IRQ3}*%
X86414100Y-119276100D03*
%TO.P,J1,15,Pin_15*%
%TO.N,/A8*%
X88954100Y-116736100D03*
%TO.P,J1,16,Pin_16*%
%TO.N,/~{HALT}*%
X86414100Y-116736100D03*
%TO.P,J1,17,Pin_17*%
%TO.N,/A9*%
X88954100Y-114196100D03*
%TO.P,J1,18,Pin_18*%
%TO.N,/~{IRQ4}*%
X86414100Y-114196100D03*
%TO.P,J1,19,Pin_19*%
%TO.N,/A10*%
X88954100Y-111656100D03*
%TO.P,J1,20,Pin_20*%
%TO.N,/FC0*%
X86414100Y-111656100D03*
%TO.P,J1,21,Pin_21*%
%TO.N,/A11*%
X88954100Y-109116100D03*
%TO.P,J1,22,Pin_22*%
%TO.N,/FC1*%
X86414100Y-109116100D03*
%TO.P,J1,23,Pin_23*%
%TO.N,/A12*%
X88954100Y-106576100D03*
%TO.P,J1,24,Pin_24*%
%TO.N,/FC2*%
X86414100Y-106576100D03*
%TO.P,J1,25,Pin_25*%
%TO.N,/A13*%
X88954100Y-104036100D03*
%TO.P,J1,26,Pin_26*%
%TO.N,/~{IRQ5}*%
X86414100Y-104036100D03*
%TO.P,J1,27,Pin_27*%
%TO.N,/A14*%
X88954100Y-101496100D03*
%TO.P,J1,28,Pin_28*%
%TO.N,/~{IRQ2}*%
X86414100Y-101496100D03*
%TO.P,J1,29,Pin_29*%
%TO.N,/A15*%
X88954100Y-98956100D03*
%TO.P,J1,30,Pin_30*%
%TO.N,/~{IRQ6}*%
X86414100Y-98956100D03*
%TO.P,J1,31,Pin_31*%
%TO.N,/A16*%
X88954100Y-96416100D03*
%TO.P,J1,32,Pin_32*%
%TO.N,/~{LDS}*%
X86414100Y-96416100D03*
%TO.P,J1,33,Pin_33*%
%TO.N,/A17*%
X88954100Y-93876100D03*
%TO.P,J1,34,Pin_34*%
%TO.N,/~{UDS}*%
X86414100Y-93876100D03*
%TO.P,J1,35,Pin_35*%
%TO.N,/A18*%
X88954100Y-91336100D03*
%TO.P,J1,36,Pin_36*%
%TO.N,/~{RESET}*%
X86414100Y-91336100D03*
%TO.P,J1,37,Pin_37*%
%TO.N,/A19*%
X88954100Y-88796100D03*
%TO.P,J1,38,Pin_38*%
%TO.N,/D15*%
X86414100Y-88796100D03*
%TO.P,J1,39,Pin_39*%
%TO.N,/A20*%
X88954100Y-86256100D03*
%TO.P,J1,40,Pin_40*%
%TO.N,/D14*%
X86414100Y-86256100D03*
%TO.P,J1,41,Pin_41*%
%TO.N,/A21*%
X88954100Y-83716100D03*
%TO.P,J1,42,Pin_42*%
%TO.N,/D13*%
X86414100Y-83716100D03*
%TO.P,J1,43,Pin_43*%
%TO.N,/A22*%
X88954100Y-81176100D03*
%TO.P,J1,44,Pin_44*%
%TO.N,/D12*%
X86414100Y-81176100D03*
%TO.P,J1,45,Pin_45*%
%TO.N,/A23*%
X88954100Y-78636100D03*
%TO.P,J1,46,Pin_46*%
%TO.N,/D11*%
X86414100Y-78636100D03*
%TO.P,J1,47,Pin_47*%
%TO.N,/~{AS}*%
X88954100Y-76096100D03*
%TO.P,J1,48,Pin_48*%
%TO.N,/D10*%
X86414100Y-76096100D03*
%TO.P,J1,49,Pin_49*%
%TO.N,/~{BERR}*%
X88954100Y-73556100D03*
%TO.P,J1,50,Pin_50*%
%TO.N,/D9*%
X86414100Y-73556100D03*
%TO.P,J1,51,Pin_51*%
%TO.N,/~{BG}*%
X88954100Y-71016100D03*
%TO.P,J1,52,Pin_52*%
%TO.N,/D8*%
X86414100Y-71016100D03*
%TO.P,J1,53,Pin_53*%
%TO.N,/~{BGACK}*%
X88954100Y-68476100D03*
%TO.P,J1,54,Pin_54*%
%TO.N,/D7*%
X86414100Y-68476100D03*
%TO.P,J1,55,Pin_55*%
%TO.N,/~{BR}*%
X88954100Y-65936100D03*
%TO.P,J1,56,Pin_56*%
%TO.N,/D6*%
X86414100Y-65936100D03*
%TO.P,J1,57,Pin_57*%
%TO.N,/~{DTACK}*%
X88954100Y-63396100D03*
%TO.P,J1,58,Pin_58*%
%TO.N,/D5*%
X86414100Y-63396100D03*
%TO.P,J1,59,Pin_59*%
%TO.N,/R~{W}*%
X88954100Y-60856100D03*
%TO.P,J1,60,Pin_60*%
%TO.N,/D4*%
X86414100Y-60856100D03*
%TO.P,J1,61,Pin_61*%
%TO.N,/D0*%
X88954100Y-58316100D03*
%TO.P,J1,62,Pin_62*%
%TO.N,/D3*%
X86414100Y-58316100D03*
%TO.P,J1,63,Pin_63*%
%TO.N,/D1*%
X88954100Y-55776100D03*
%TO.P,J1,64,Pin_64*%
%TO.N,/D2*%
X86414100Y-55776100D03*
%TD*%
D12*
%TO.P,C2,1*%
%TO.N,VCC*%
X113558000Y-110490000D03*
%TO.P,C2,2*%
%TO.N,GND*%
X116058000Y-110490000D03*
%TD*%
D14*
%TO.P,U2,1,RS1*%
%TO.N,/A1*%
X106426000Y-55118000D03*
D15*
%TO.P,U2,2,IP3*%
%TO.N,Net-(U2-Pad2)*%
X106426000Y-57658000D03*
%TO.P,U2,3,RS2*%
%TO.N,/A2*%
X106426000Y-60198000D03*
%TO.P,U2,4,IP1*%
%TO.N,/CTSB*%
X106426000Y-62738000D03*
%TO.P,U2,5,RS3*%
%TO.N,/A3*%
X106426000Y-65278000D03*
%TO.P,U2,6,RS4*%
%TO.N,/A4*%
X106426000Y-67818000D03*
%TO.P,U2,7,IP0*%
%TO.N,/CTSA*%
X106426000Y-70358000D03*
%TO.P,U2,8,R/W*%
%TO.N,/R~{W}*%
X106426000Y-72898000D03*
%TO.P,U2,9,DTACK*%
%TO.N,/~{DTACK}*%
X106426000Y-75438000D03*
%TO.P,U2,10,RXDB*%
%TO.N,/RXDB*%
X106426000Y-77978000D03*
%TO.P,U2,11,TXDB*%
%TO.N,/TXDB*%
X106426000Y-80518000D03*
%TO.P,U2,12,OP1*%
%TO.N,/RTSB*%
X106426000Y-83058000D03*
%TO.P,U2,13,OP3*%
%TO.N,Net-(U2-Pad13)*%
X106426000Y-85598000D03*
%TO.P,U2,14,OP5*%
%TO.N,Net-(U2-Pad14)*%
X106426000Y-88138000D03*
%TO.P,U2,15,OP7*%
%TO.N,Net-(U2-Pad15)*%
X106426000Y-90678000D03*
%TO.P,U2,16,D1*%
%TO.N,/D1*%
X106426000Y-93218000D03*
%TO.P,U2,17,D3*%
%TO.N,/D3*%
X106426000Y-95758000D03*
%TO.P,U2,18,D5*%
%TO.N,/D5*%
X106426000Y-98298000D03*
%TO.P,U2,19,D7*%
%TO.N,/D7*%
X106426000Y-100838000D03*
%TO.P,U2,20,GND*%
%TO.N,GND*%
X106426000Y-103378000D03*
%TO.P,U2,21,IRQ*%
%TO.N,/~{IRQ2}*%
X121666000Y-103378000D03*
%TO.P,U2,22,D6*%
%TO.N,/D6*%
X121666000Y-100838000D03*
%TO.P,U2,23,D4*%
%TO.N,/D4*%
X121666000Y-98298000D03*
%TO.P,U2,24,D2*%
%TO.N,/D2*%
X121666000Y-95758000D03*
%TO.P,U2,25,D0*%
%TO.N,/D0*%
X121666000Y-93218000D03*
%TO.P,U2,26,OP6*%
%TO.N,Net-(U2-Pad26)*%
X121666000Y-90678000D03*
%TO.P,U2,27,OP4*%
%TO.N,Net-(U2-Pad27)*%
X121666000Y-88138000D03*
%TO.P,U2,28,OP2*%
%TO.N,Net-(U2-Pad28)*%
X121666000Y-85598000D03*
%TO.P,U2,29,OP0*%
%TO.N,/RTSA*%
X121666000Y-83058000D03*
%TO.P,U2,30,TXDA*%
%TO.N,/TXDA*%
X121666000Y-80518000D03*
%TO.P,U2,31,RXDA*%
%TO.N,/RXDA*%
X121666000Y-77978000D03*
%TO.P,U2,32,X1/CLK*%
%TO.N,Net-(C3-Pad1)*%
X121666000Y-75438000D03*
%TO.P,U2,33,X2*%
%TO.N,Net-(C4-Pad1)*%
X121666000Y-72898000D03*
%TO.P,U2,34,RESET*%
%TO.N,/~{RESET}*%
X121666000Y-70358000D03*
%TO.P,U2,35,CS*%
%TO.N,/~{UARTSEL}*%
X121666000Y-67818000D03*
%TO.P,U2,36,IP2*%
%TO.N,Net-(U2-Pad36)*%
X121666000Y-65278000D03*
%TO.P,U2,37,IACK*%
%TO.N,/~{IACK}*%
X121666000Y-62738000D03*
%TO.P,U2,38,IP5*%
%TO.N,Net-(U2-Pad38)*%
X121666000Y-60198000D03*
%TO.P,U2,39,IP4*%
%TO.N,Net-(U2-Pad39)*%
X121666000Y-57658000D03*
%TO.P,U2,40,VCC*%
%TO.N,VCC*%
X121666000Y-55118000D03*
%TD*%
D14*
%TO.P,U1,1,I1/CLK*%
%TO.N,/~{UDS}*%
X110998000Y-115062000D03*
D15*
%TO.P,U1,2,I2*%
%TO.N,/~{LDS}*%
X110998000Y-117602000D03*
%TO.P,U1,3,I3*%
%TO.N,/R~{W}*%
X110998000Y-120142000D03*
%TO.P,U1,4,I4*%
%TO.N,/A18*%
X110998000Y-122682000D03*
%TO.P,U1,5,I5*%
%TO.N,/A17*%
X110998000Y-125222000D03*
%TO.P,U1,6,I6*%
%TO.N,/A16*%
X110998000Y-127762000D03*
%TO.P,U1,7,I7*%
%TO.N,/A15*%
X110998000Y-130302000D03*
%TO.P,U1,8,I8*%
%TO.N,/A14*%
X110998000Y-132842000D03*
%TO.P,U1,9,I9*%
%TO.N,/~{IOSEL}*%
X110998000Y-135382000D03*
%TO.P,U1,10,GND*%
%TO.N,GND*%
X110998000Y-137922000D03*
%TO.P,U1,11,I10/~{OE}*%
%TO.N,unconnected-(U1-Pad11)*%
X118618000Y-137922000D03*
%TO.P,U1,12,IO8*%
%TO.N,unconnected-(U1-Pad12)*%
X118618000Y-135382000D03*
%TO.P,U1,13,IO7*%
%TO.N,unconnected-(U1-Pad13)*%
X118618000Y-132842000D03*
%TO.P,U1,14,IO6*%
%TO.N,unconnected-(U1-Pad14)*%
X118618000Y-130302000D03*
%TO.P,U1,15,IO5*%
%TO.N,unconnected-(U1-Pad15)*%
X118618000Y-127762000D03*
%TO.P,U1,16,IO4*%
%TO.N,unconnected-(U1-Pad16)*%
X118618000Y-125222000D03*
%TO.P,U1,17,I03*%
%TO.N,unconnected-(U1-Pad17)*%
X118618000Y-122682000D03*
%TO.P,U1,18,IO2*%
%TO.N,unconnected-(U1-Pad18)*%
X118618000Y-120142000D03*
%TO.P,U1,19,IO1*%
%TO.N,/~{UARTSEL}*%
X118618000Y-117602000D03*
%TO.P,U1,20,VCC*%
%TO.N,VCC*%
X118618000Y-115062000D03*
%TD*%
D12*
%TO.P,C1,1*%
%TO.N,VCC*%
X112796000Y-50546000D03*
%TO.P,C1,2*%
%TO.N,GND*%
X115296000Y-50546000D03*
%TD*%
D16*
%TO.N,Net-(U2-Pad14)*%
X125458200Y-100681100D03*
%TO.N,Net-(U2-Pad13)*%
X127226000Y-99147200D03*
%TO.N,/TXDB*%
X109922200Y-77831000D03*
%TO.N,/CTSA*%
X122242600Y-114006100D03*
%TO.N,GND*%
X118572700Y-112789000D03*
%TD*%
D17*
%TO.N,Net-(U2-Pad14)*%
X124200500Y-99423400D02*
X125458200Y-100681100D01*
X119856100Y-99423400D02*
X124200500Y-99423400D01*
X108570700Y-88138000D02*
X119856100Y-99423400D01*
X106426000Y-88138000D02*
X108570700Y-88138000D01*
%TO.N,Net-(U2-Pad13)*%
X122566800Y-94488000D02*
X127226000Y-99147200D01*
X119767700Y-94488000D02*
X122566800Y-94488000D01*
X110877700Y-85598000D02*
X119767700Y-94488000D01*
X106426000Y-85598000D02*
X110877700Y-85598000D01*
%TO.N,/RXDA*%
X131369200Y-86155900D02*
X123191300Y-77978000D01*
X171374200Y-86155900D02*
X131369200Y-86155900D01*
X172605600Y-87387300D02*
X171374200Y-86155900D01*
X172605600Y-90802400D02*
X172605600Y-87387300D01*
X170942000Y-92466000D02*
X172605600Y-90802400D01*
X121666000Y-77978000D02*
X123191300Y-77978000D01*
%TO.N,/TXDA*%
X132599300Y-89926000D02*
X170942000Y-89926000D01*
X123191300Y-80518000D02*
X132599300Y-89926000D01*
X121666000Y-80518000D02*
X123191300Y-80518000D01*
%TO.N,/RTSB*%
X155796700Y-71741300D02*
X155796700Y-71374000D01*
X149289800Y-78248200D02*
X155796700Y-71741300D01*
X132167700Y-78248200D02*
X149289800Y-78248200D01*
X130744000Y-76824500D02*
X132167700Y-78248200D01*
X119651200Y-76824500D02*
X130744000Y-76824500D01*
X113417700Y-83058000D02*
X119651200Y-76824500D01*
X106426000Y-83058000D02*
X113417700Y-83058000D01*
X156972000Y-71374000D02*
X155796700Y-71374000D01*
%TO.N,/TXDB*%
X149352000Y-71374000D02*
X148176700Y-71374000D01*
X116125200Y-71628000D02*
X109922200Y-77831000D01*
X130768600Y-71628000D02*
X116125200Y-71628000D01*
X131282800Y-71113800D02*
X130768600Y-71628000D01*
X140209900Y-71113800D02*
X131282800Y-71113800D01*
X141645400Y-72549300D02*
X140209900Y-71113800D01*
X147809500Y-72549300D02*
X141645400Y-72549300D01*
X148176700Y-72182100D02*
X147809500Y-72549300D01*
X148176700Y-71374000D02*
X148176700Y-72182100D01*
%TO.N,/RXDB*%
X106426000Y-77978000D02*
X107951300Y-77978000D01*
X151892000Y-71374000D02*
X150716700Y-71374000D01*
X150716700Y-71741300D02*
X150716700Y-71374000D01*
X148347200Y-74110800D02*
X150716700Y-71741300D01*
X114815300Y-74110800D02*
X148347200Y-74110800D01*
X110369800Y-78556300D02*
X114815300Y-74110800D01*
X108529600Y-78556300D02*
X110369800Y-78556300D01*
X107951300Y-77978000D02*
X108529600Y-78556300D01*
%TO.N,/CTSA*%
X158336700Y-120001400D02*
X158336700Y-119634000D01*
X157528800Y-120809300D02*
X158336700Y-120001400D01*
X129045800Y-120809300D02*
X157528800Y-120809300D01*
X122242600Y-114006100D02*
X129045800Y-120809300D01*
X159512000Y-119634000D02*
X158336700Y-119634000D01*
%TO.N,/CTSB*%
X143494000Y-69231300D02*
X145636700Y-71374000D01*
X114444600Y-69231300D02*
X143494000Y-69231300D01*
X107951300Y-62738000D02*
X114444600Y-69231300D01*
X106426000Y-62738000D02*
X107951300Y-62738000D01*
X146812000Y-71374000D02*
X145636700Y-71374000D01*
%TO.N,Net-(C3-Pad1)*%
X130920000Y-75438000D02*
X132588000Y-77106000D01*
X121666000Y-75438000D02*
X130920000Y-75438000D01*
%TO.N,Net-(C4-Pad1)*%
X131916000Y-72898000D02*
X132588000Y-72226000D01*
X121666000Y-72898000D02*
X131916000Y-72898000D01*
%TO.N,/~{IOSEL}*%
X110998000Y-135382000D02*
X109472700Y-135382000D01*
X86414100Y-121816100D02*
X87589400Y-121816100D01*
X97082100Y-122991400D02*
X109472700Y-135382000D01*
X88397300Y-122991400D02*
X97082100Y-122991400D01*
X87589400Y-122183500D02*
X88397300Y-122991400D01*
X87589400Y-121816100D02*
X87589400Y-122183500D01*
%TO.N,/~{UARTSEL}*%
X170134000Y-83670700D02*
X170942000Y-83670700D01*
X158166400Y-71703100D02*
X170134000Y-83670700D01*
X158166400Y-70881800D02*
X158166400Y-71703100D01*
X155102600Y-67818000D02*
X158166400Y-70881800D01*
X121666000Y-67818000D02*
X155102600Y-67818000D01*
X170942000Y-84846000D02*
X170942000Y-83670700D01*
%TO.N,/D0*%
X91588700Y-58316100D02*
X88954100Y-58316100D01*
X104900600Y-71628000D02*
X91588700Y-58316100D01*
X107167500Y-71628000D02*
X104900600Y-71628000D01*
X107967200Y-72427700D02*
X107167500Y-71628000D01*
X107967200Y-75905900D02*
X107967200Y-72427700D01*
X107165100Y-76708000D02*
X107967200Y-75905900D01*
X105694600Y-76708000D02*
X107165100Y-76708000D01*
X104895300Y-77507300D02*
X105694600Y-76708000D01*
X104895300Y-83537900D02*
X104895300Y-77507300D01*
X105685400Y-84328000D02*
X104895300Y-83537900D01*
X111250700Y-84328000D02*
X105685400Y-84328000D01*
X120140700Y-93218000D02*
X111250700Y-84328000D01*
X121666000Y-93218000D02*
X120140700Y-93218000D01*
%TO.N,/D4*%
X86781500Y-62031400D02*
X86414100Y-62031400D01*
X87589400Y-62839300D02*
X86781500Y-62031400D01*
X87589400Y-63732400D02*
X87589400Y-62839300D01*
X88428500Y-64571500D02*
X87589400Y-63732400D01*
X89259000Y-64571500D02*
X88428500Y-64571500D01*
X91017000Y-66329500D02*
X89259000Y-64571500D01*
X91017000Y-72180700D02*
X91017000Y-66329500D01*
X105704300Y-86868000D02*
X91017000Y-72180700D01*
X108710700Y-86868000D02*
X105704300Y-86868000D01*
X120140700Y-98298000D02*
X108710700Y-86868000D01*
X121666000Y-98298000D02*
X120140700Y-98298000D01*
X86414100Y-60856100D02*
X86414100Y-62031400D01*
%TO.N,/R~{W}*%
X106426000Y-72898000D02*
X104900700Y-72898000D01*
X92858800Y-60856100D02*
X104900700Y-72898000D01*
X88954100Y-60856100D02*
X92858800Y-60856100D01*
X158346700Y-111506000D02*
X169766700Y-100086000D01*
X121072800Y-111506000D02*
X158346700Y-111506000D01*
X118688800Y-113890000D02*
X121072800Y-111506000D01*
X117789600Y-113890000D02*
X118688800Y-113890000D01*
X112523300Y-119156300D02*
X117789600Y-113890000D01*
X112523300Y-120142000D02*
X112523300Y-119156300D01*
X110998000Y-120142000D02*
X112523300Y-120142000D01*
X170942000Y-100086000D02*
X169766700Y-100086000D01*
%TO.N,/~{DTACK}*%
X106426000Y-75438000D02*
X104900700Y-75438000D01*
X92858800Y-63396100D02*
X104900700Y-75438000D01*
X88954100Y-63396100D02*
X92858800Y-63396100D01*
%TO.N,/D6*%
X86781500Y-67111400D02*
X86414100Y-67111400D01*
X87589400Y-67919300D02*
X86781500Y-67111400D01*
X87589400Y-68795600D02*
X87589400Y-67919300D01*
X88506500Y-69712700D02*
X87589400Y-68795600D01*
X89322700Y-69712700D02*
X88506500Y-69712700D01*
X90548600Y-70938600D02*
X89322700Y-69712700D01*
X90548600Y-72806600D02*
X90548600Y-70938600D01*
X103549800Y-85807800D02*
X90548600Y-72806600D01*
X103549800Y-87259300D02*
X103549800Y-85807800D01*
X105698500Y-89408000D02*
X103549800Y-87259300D01*
X108710700Y-89408000D02*
X105698500Y-89408000D01*
X120140700Y-100838000D02*
X108710700Y-89408000D01*
X121666000Y-100838000D02*
X120140700Y-100838000D01*
X86414100Y-65936100D02*
X86414100Y-67111400D01*
%TO.N,/D7*%
X86781500Y-69651400D02*
X86414100Y-69651400D01*
X87589400Y-70459300D02*
X86781500Y-69651400D01*
X87589400Y-71316200D02*
X87589400Y-70459300D01*
X88464700Y-72191500D02*
X87589400Y-71316200D01*
X89251800Y-72191500D02*
X88464700Y-72191500D01*
X90199100Y-73138800D02*
X89251800Y-72191500D01*
X90199100Y-86136400D02*
X90199100Y-73138800D01*
X104900700Y-100838000D02*
X90199100Y-86136400D01*
X106426000Y-100838000D02*
X104900700Y-100838000D01*
X86414100Y-68476100D02*
X86414100Y-69651400D01*
%TO.N,/~{RESET}*%
X86046700Y-90160800D02*
X86414100Y-90160800D01*
X85238800Y-89352900D02*
X86046700Y-90160800D01*
X85238800Y-57781500D02*
X85238800Y-89352900D01*
X85882300Y-57138000D02*
X85238800Y-57781500D01*
X91214400Y-57138000D02*
X85882300Y-57138000D01*
X100608000Y-66531600D02*
X91214400Y-57138000D01*
X107339800Y-66531600D02*
X100608000Y-66531600D01*
X111166200Y-70358000D02*
X107339800Y-66531600D01*
X121666000Y-70358000D02*
X111166200Y-70358000D01*
X86414100Y-91336100D02*
X86414100Y-90160800D01*
%TO.N,/~{LDS}*%
X170942000Y-97546000D02*
X169766700Y-97546000D01*
X110998000Y-117602000D02*
X112523300Y-117602000D01*
X160886700Y-106426000D02*
X169766700Y-97546000D01*
X123909700Y-106426000D02*
X160886700Y-106426000D01*
X112733700Y-117602000D02*
X123909700Y-106426000D01*
X112523300Y-117602000D02*
X112733700Y-117602000D01*
%TO.N,/~{IRQ2}*%
X86414100Y-101496100D02*
X87589400Y-101496100D01*
X121232500Y-103378000D02*
X120140700Y-103378000D01*
X170942000Y-87386000D02*
X170942000Y-88561300D01*
X121232500Y-103378000D02*
X121666000Y-103378000D01*
X121666000Y-103378000D02*
X123191300Y-103378000D01*
X119015300Y-102252600D02*
X120140700Y-103378000D01*
X102094900Y-102252600D02*
X119015300Y-102252600D01*
X101620400Y-102727100D02*
X102094900Y-102252600D01*
X88453000Y-102727100D02*
X101620400Y-102727100D01*
X87589400Y-101863500D02*
X88453000Y-102727100D01*
X87589400Y-101496100D02*
X87589400Y-101863500D01*
X124021000Y-103378000D02*
X123191300Y-103378000D01*
X136203000Y-91196000D02*
X124021000Y-103378000D01*
X171360500Y-91196000D02*
X136203000Y-91196000D01*
X172117300Y-90439200D02*
X171360500Y-91196000D01*
X172117300Y-89369200D02*
X172117300Y-90439200D01*
X171309400Y-88561300D02*
X172117300Y-89369200D01*
X170942000Y-88561300D02*
X171309400Y-88561300D01*
%TO.N,/~{IACK}*%
X171309300Y-93830700D02*
X170942000Y-93830700D01*
X173069600Y-92070400D02*
X171309300Y-93830700D01*
X173069600Y-82240700D02*
X173069600Y-92070400D01*
X157232200Y-66403300D02*
X173069600Y-82240700D01*
X126856600Y-66403300D02*
X157232200Y-66403300D01*
X123191300Y-62738000D02*
X126856600Y-66403300D01*
X121666000Y-62738000D02*
X123191300Y-62738000D01*
X170942000Y-95006000D02*
X170942000Y-93830700D01*
X160886700Y-103886000D02*
X169766700Y-95006000D01*
X125812800Y-103886000D02*
X160886700Y-103886000D01*
X117302600Y-112396200D02*
X125812800Y-103886000D01*
X109066200Y-112396200D02*
X117302600Y-112396200D01*
X100916300Y-120546100D02*
X109066200Y-112396200D01*
X86006200Y-120546100D02*
X100916300Y-120546100D01*
X85206300Y-121346000D02*
X86006200Y-120546100D01*
X85206300Y-122340300D02*
X85206300Y-121346000D01*
X86046800Y-123180800D02*
X85206300Y-122340300D01*
X86414100Y-123180800D02*
X86046800Y-123180800D01*
X86414100Y-124356100D02*
X86414100Y-123180800D01*
X170942000Y-95006000D02*
X169766700Y-95006000D01*
%TO.N,GND*%
X108946000Y-103378000D02*
X116058000Y-110490000D01*
X106426000Y-103378000D02*
X108946000Y-103378000D01*
X119106000Y-50546000D02*
X133838000Y-65278000D01*
X115296000Y-50546000D02*
X119106000Y-50546000D01*
X87589400Y-129803500D02*
X87589400Y-129436100D01*
X88397300Y-130611400D02*
X87589400Y-129803500D01*
X102162100Y-130611400D02*
X88397300Y-130611400D01*
X109472700Y-137922000D02*
X102162100Y-130611400D01*
X110998000Y-137922000D02*
X109472700Y-137922000D01*
X86414100Y-129436100D02*
X87589400Y-129436100D01*
X153934000Y-118458700D02*
X169766700Y-102626000D01*
X148795200Y-118458700D02*
X153934000Y-118458700D01*
X147987300Y-119266600D02*
X148795200Y-118458700D01*
X147987300Y-119634000D02*
X147987300Y-119266600D01*
X146812000Y-119634000D02*
X147987300Y-119634000D01*
X170942000Y-102626000D02*
X169766700Y-102626000D01*
X121125700Y-110236000D02*
X132334000Y-110236000D01*
X118572700Y-112789000D02*
X121125700Y-110236000D01*
%TO.N,VCC*%
X117368000Y-55118000D02*
X121666000Y-55118000D01*
X112796000Y-50546000D02*
X117368000Y-55118000D01*
X132334000Y-123429000D02*
X131158700Y-123429000D01*
X132334000Y-97536000D02*
X131158700Y-97536000D01*
X128510300Y-123429000D02*
X131158700Y-123429000D01*
X120143300Y-115062000D02*
X128510300Y-123429000D01*
X118618000Y-115062000D02*
X120143300Y-115062000D01*
X86414100Y-134516100D02*
X86414100Y-133340800D01*
X117009800Y-111684900D02*
X131158700Y-97536000D01*
X114752900Y-111684900D02*
X117009800Y-111684900D01*
X113558000Y-110490000D02*
X114752900Y-111684900D01*
X86046800Y-133340800D02*
X86414100Y-133340800D01*
X84755900Y-132049900D02*
X86046800Y-133340800D01*
X84755900Y-119245700D02*
X84755900Y-132049900D01*
X86054700Y-117946900D02*
X84755900Y-119245700D01*
X91516200Y-117946900D02*
X86054700Y-117946900D01*
X98973100Y-110490000D02*
X91516200Y-117946900D01*
X113558000Y-110490000D02*
X98973100Y-110490000D01*
%TD*%
M02*
