M48
; DRILL file {KiCad (6.0.2)} date Sun Nov  6 15:29:17 2022
; FORMAT={-:-/ absolute / inch / decimal}
; #@! TF.CreationDate,2022-11-06T15:29:17-08:00
; #@! TF.GenerationSoftware,Kicad,Pcbnew,(6.0.2)
; #@! TF.FileFunction,Plated,1,2,PTH
FMAT,2
INCH
; #@! TA.AperFunction,Plated,PTH,ViaDrill
T1C0.0157
; #@! TA.AperFunction,Plated,PTH,ComponentDrill
T2C0.0315
; #@! TA.AperFunction,Plated,PTH,ComponentDrill
T3C0.0394
; #@! TA.AperFunction,Plated,PTH,ComponentDrill
T4C0.0400
%
G90
G05
T1
X4.7174Y-3.644
X4.9378Y-4.5396
X6.1381Y-3.8719
T2
X4.5998Y-2.17
X4.5998Y-2.27
X4.5998Y-2.37
X4.5998Y-2.47
X4.5998Y-2.57
X4.5998Y-2.67
X4.5998Y-2.77
X4.5998Y-2.87
X4.5998Y-2.97
X4.5998Y-3.07
X4.5998Y-3.17
X4.5998Y-3.27
X4.5998Y-3.37
X4.5998Y-3.47
X4.5998Y-3.57
X4.5998Y-3.67
X4.5998Y-3.77
X4.5998Y-3.87
X4.5998Y-3.97
X4.5998Y-4.07
X4.7504Y-4.53
X4.7504Y-4.63
X4.7504Y-4.73
X4.7504Y-4.83
X4.7504Y-4.93
X4.7504Y-5.03
X4.7504Y-5.13
X4.7504Y-5.23
X4.7504Y-5.33
X4.7504Y-5.43
X4.8506Y-1.99
X4.8508Y-4.35
X4.949Y-1.99
X4.9492Y-4.35
X5.0504Y-4.53
X5.0504Y-4.63
X5.0504Y-4.73
X5.0504Y-4.83
X5.0504Y-4.93
X5.0504Y-5.03
X5.0504Y-5.13
X5.0504Y-5.23
X5.0504Y-5.33
X5.0504Y-5.43
X5.1998Y-2.17
X5.1998Y-2.27
X5.1998Y-2.37
X5.1998Y-2.47
X5.1998Y-2.57
X5.1998Y-2.67
X5.1998Y-2.77
X5.1998Y-2.87
X5.1998Y-2.97
X5.1998Y-3.07
X5.1998Y-3.17
X5.1998Y-3.27
X5.1998Y-3.37
X5.1998Y-3.47
X5.1998Y-3.57
X5.1998Y-3.67
X5.1998Y-3.77
X5.1998Y-3.87
X5.1998Y-3.97
X5.1998Y-4.07
X5.5008Y-2.6
X5.5008Y-3.25
X5.55Y-2.8235
X5.55Y-3.0157
X5.5992Y-2.6
X5.5992Y-3.25
T3
X3.4021Y-2.1959
X3.4021Y-2.2959
X3.4021Y-2.3959
X3.4021Y-2.4959
X3.4021Y-2.5959
X3.4021Y-2.6959
X3.4021Y-2.7959
X3.4021Y-2.8959
X3.4021Y-2.9959
X3.4021Y-3.0959
X3.4021Y-3.1959
X3.4021Y-3.2959
X3.4021Y-3.3959
X3.4021Y-3.4959
X3.4021Y-3.5959
X3.4021Y-3.6959
X3.4021Y-3.7959
X3.4021Y-3.8959
X3.4021Y-3.9959
X3.4021Y-4.0959
X3.4021Y-4.1959
X3.4021Y-4.2959
X3.4021Y-4.3959
X3.4021Y-4.4959
X3.4021Y-4.5959
X3.4021Y-4.6959
X3.4021Y-4.7959
X3.4021Y-4.8959
X3.4021Y-4.9959
X3.4021Y-5.0959
X3.4021Y-5.1959
X3.4021Y-5.2959
X3.5021Y-2.1959
X3.5021Y-2.2959
X3.5021Y-2.3959
X3.5021Y-2.4959
X3.5021Y-2.5959
X3.5021Y-2.6959
X3.5021Y-2.7959
X3.5021Y-2.8959
X3.5021Y-2.9959
X3.5021Y-3.0959
X3.5021Y-3.1959
X3.5021Y-3.2959
X3.5021Y-3.3959
X3.5021Y-3.4959
X3.5021Y-3.5959
X3.5021Y-3.6959
X3.5021Y-3.7959
X3.5021Y-3.8959
X3.5021Y-3.9959
X3.5021Y-4.0959
X3.5021Y-4.1959
X3.5021Y-4.2959
X3.5021Y-4.3959
X3.5021Y-4.4959
X3.5021Y-4.5959
X3.5021Y-4.6959
X3.5021Y-4.7959
X3.5021Y-4.8959
X3.5021Y-4.9959
X3.5021Y-5.0959
X3.5021Y-5.1959
X3.5021Y-5.2959
X6.26Y-3.3504
X6.26Y-3.4504
X6.26Y-3.5504
X6.26Y-3.6504
X6.26Y-3.7504
X6.26Y-3.8504
X6.26Y-3.9504
X6.26Y-4.0504
X6.26Y-4.1504
T4
X6.07Y-2.74
X6.07Y-4.53
X6.17Y-2.74
X6.17Y-4.53
X6.27Y-2.74
X6.27Y-4.53
X6.37Y-2.74
X6.37Y-4.53
X6.47Y-2.74
X6.47Y-4.53
X6.57Y-2.74
X6.57Y-4.53
T0
M30
