%TF.GenerationSoftware,KiCad,Pcbnew,(6.0.2)*%
%TF.CreationDate,2022-11-06T15:29:19-08:00*%
%TF.ProjectId,IO Board,494f2042-6f61-4726-942e-6b696361645f,rev?*%
%TF.SameCoordinates,Original*%
%TF.FileFunction,Soldermask,Top*%
%TF.FilePolarity,Negative*%
%FSLAX46Y46*%
G04 Gerber Fmt 4.6, Leading zero omitted, Abs format (unit mm)*
G04 Created by KiCad (PCBNEW (6.0.2)) date 2022-11-06 15:29:19*
%MOMM*%
%LPD*%
G01*
G04 APERTURE LIST*
%ADD10C,1.500000*%
%ADD11O,1.727200X3.251200*%
%ADD12R,1.700000X1.700000*%
%ADD13O,1.700000X1.700000*%
%ADD14C,1.600000*%
%ADD15C,3.200000*%
%ADD16R,2.400000X1.600000*%
%ADD17O,2.400000X1.600000*%
G04 APERTURE END LIST*
D10*
%TO.C,Q1*%
X140970000Y-71718000D03*
X140970000Y-76598000D03*
%TD*%
D11*
%TO.C,J4*%
X154178000Y-69596000D03*
X156718000Y-69596000D03*
X159258000Y-69596000D03*
X161798000Y-69596000D03*
X166878000Y-69596000D03*
X164338000Y-69596000D03*
%TD*%
%TO.C,J3*%
X154178000Y-115062000D03*
X156718000Y-115062000D03*
X159258000Y-115062000D03*
X161798000Y-115062000D03*
X166878000Y-115062000D03*
X164338000Y-115062000D03*
%TD*%
D12*
%TO.C,J2*%
X159004000Y-85100000D03*
D13*
X159004000Y-87640000D03*
X159004000Y-90180000D03*
X159004000Y-92720000D03*
X159004000Y-95260000D03*
X159004000Y-97800000D03*
X159004000Y-100340000D03*
X159004000Y-102880000D03*
X159004000Y-105420000D03*
%TD*%
D14*
%TO.C,C4*%
X139720000Y-66040000D03*
X142220000Y-66040000D03*
%TD*%
%TO.C,C3*%
X139720000Y-82550000D03*
X142220000Y-82550000D03*
%TD*%
D15*
%TO.C,H1*%
X178326100Y-49040100D03*
%TD*%
D12*
%TO.C,J1*%
X88954100Y-134516100D03*
D13*
X86414100Y-134516100D03*
X88954100Y-131976100D03*
X86414100Y-131976100D03*
X88954100Y-129436100D03*
X86414100Y-129436100D03*
X88954100Y-126896100D03*
X86414100Y-126896100D03*
X88954100Y-124356100D03*
X86414100Y-124356100D03*
X88954100Y-121816100D03*
X86414100Y-121816100D03*
X88954100Y-119276100D03*
X86414100Y-119276100D03*
X88954100Y-116736100D03*
X86414100Y-116736100D03*
X88954100Y-114196100D03*
X86414100Y-114196100D03*
X88954100Y-111656100D03*
X86414100Y-111656100D03*
X88954100Y-109116100D03*
X86414100Y-109116100D03*
X88954100Y-106576100D03*
X86414100Y-106576100D03*
X88954100Y-104036100D03*
X86414100Y-104036100D03*
X88954100Y-101496100D03*
X86414100Y-101496100D03*
X88954100Y-98956100D03*
X86414100Y-98956100D03*
X88954100Y-96416100D03*
X86414100Y-96416100D03*
X88954100Y-93876100D03*
X86414100Y-93876100D03*
X88954100Y-91336100D03*
X86414100Y-91336100D03*
X88954100Y-88796100D03*
X86414100Y-88796100D03*
X88954100Y-86256100D03*
X86414100Y-86256100D03*
X88954100Y-83716100D03*
X86414100Y-83716100D03*
X88954100Y-81176100D03*
X86414100Y-81176100D03*
X88954100Y-78636100D03*
X86414100Y-78636100D03*
X88954100Y-76096100D03*
X86414100Y-76096100D03*
X88954100Y-73556100D03*
X86414100Y-73556100D03*
X88954100Y-71016100D03*
X86414100Y-71016100D03*
X88954100Y-68476100D03*
X86414100Y-68476100D03*
X88954100Y-65936100D03*
X86414100Y-65936100D03*
X88954100Y-63396100D03*
X86414100Y-63396100D03*
X88954100Y-60856100D03*
X86414100Y-60856100D03*
X88954100Y-58316100D03*
X86414100Y-58316100D03*
X88954100Y-55776100D03*
X86414100Y-55776100D03*
%TD*%
D14*
%TO.C,C2*%
X123210000Y-110490000D03*
X125710000Y-110490000D03*
%TD*%
D15*
%TO.C,H4*%
X91966100Y-141242100D03*
%TD*%
D16*
%TO.C,U2*%
X116835000Y-55118000D03*
D17*
X116835000Y-57658000D03*
X116835000Y-60198000D03*
X116835000Y-62738000D03*
X116835000Y-65278000D03*
X116835000Y-67818000D03*
X116835000Y-70358000D03*
X116835000Y-72898000D03*
X116835000Y-75438000D03*
X116835000Y-77978000D03*
X116835000Y-80518000D03*
X116835000Y-83058000D03*
X116835000Y-85598000D03*
X116835000Y-88138000D03*
X116835000Y-90678000D03*
X116835000Y-93218000D03*
X116835000Y-95758000D03*
X116835000Y-98298000D03*
X116835000Y-100838000D03*
X116835000Y-103378000D03*
X132075000Y-103378000D03*
X132075000Y-100838000D03*
X132075000Y-98298000D03*
X132075000Y-95758000D03*
X132075000Y-93218000D03*
X132075000Y-90678000D03*
X132075000Y-88138000D03*
X132075000Y-85598000D03*
X132075000Y-83058000D03*
X132075000Y-80518000D03*
X132075000Y-77978000D03*
X132075000Y-75438000D03*
X132075000Y-72898000D03*
X132075000Y-70358000D03*
X132075000Y-67818000D03*
X132075000Y-65278000D03*
X132075000Y-62738000D03*
X132075000Y-60198000D03*
X132075000Y-57658000D03*
X132075000Y-55118000D03*
%TD*%
D16*
%TO.C,U1*%
X120660000Y-115062000D03*
D17*
X120660000Y-117602000D03*
X120660000Y-120142000D03*
X120660000Y-122682000D03*
X120660000Y-125222000D03*
X120660000Y-127762000D03*
X120660000Y-130302000D03*
X120660000Y-132842000D03*
X120660000Y-135382000D03*
X120660000Y-137922000D03*
X128280000Y-137922000D03*
X128280000Y-135382000D03*
X128280000Y-132842000D03*
X128280000Y-130302000D03*
X128280000Y-127762000D03*
X128280000Y-125222000D03*
X128280000Y-122682000D03*
X128280000Y-120142000D03*
X128280000Y-117602000D03*
X128280000Y-115062000D03*
%TD*%
D15*
%TO.C,H2*%
X178326100Y-141242100D03*
%TD*%
D14*
%TO.C,C1*%
X123205000Y-50546000D03*
X125705000Y-50546000D03*
%TD*%
D15*
%TO.C,H3*%
X91966100Y-49040100D03*
%TD*%
M02*
