%TF.GenerationSoftware,KiCad,Pcbnew,(6.0.2)*%
%TF.CreationDate,2022-06-01T08:48:44-07:00*%
%TF.ProjectId,Steve 68k,53746576-6520-4363-986b-2e6b69636164,rev?*%
%TF.SameCoordinates,Original*%
%TF.FileFunction,Soldermask,Top*%
%TF.FilePolarity,Negative*%
%FSLAX46Y46*%
G04 Gerber Fmt 4.6, Leading zero omitted, Abs format (unit mm)*
G04 Created by KiCad (PCBNEW (6.0.2)) date 2022-06-01 08:48:44*
%MOMM*%
%LPD*%
G01*
G04 APERTURE LIST*
G04 Aperture macros list*
%AMRoundRect*
0 Rectangle with rounded corners*
0 $1 Rounding radius*
0 $2 $3 $4 $5 $6 $7 $8 $9 X,Y pos of 4 corners*
0 Add a 4 corners polygon primitive as box body*
4,1,4,$2,$3,$4,$5,$6,$7,$8,$9,$2,$3,0*
0 Add four circle primitives for the rounded corners*
1,1,$1+$1,$2,$3*
1,1,$1+$1,$4,$5*
1,1,$1+$1,$6,$7*
1,1,$1+$1,$8,$9*
0 Add four rect primitives between the rounded corners*
20,1,$1+$1,$2,$3,$4,$5,0*
20,1,$1+$1,$4,$5,$6,$7,0*
20,1,$1+$1,$6,$7,$8,$9,0*
20,1,$1+$1,$8,$9,$2,$3,0*%
G04 Aperture macros list end*
%ADD10R,2.400000X1.600000*%
%ADD11O,2.400000X1.600000*%
%ADD12RoundRect,0.200000X-0.200000X-0.275000X0.200000X-0.275000X0.200000X0.275000X-0.200000X0.275000X0*%
%ADD13RoundRect,0.250000X0.375000X0.625000X-0.375000X0.625000X-0.375000X-0.625000X0.375000X-0.625000X0*%
%ADD14RoundRect,0.225000X-0.225000X-0.250000X0.225000X-0.250000X0.225000X0.250000X-0.225000X0.250000X0*%
%ADD15R,1.700000X1.700000*%
%ADD16O,1.700000X1.700000*%
%ADD17RoundRect,0.225000X0.250000X-0.225000X0.250000X0.225000X-0.250000X0.225000X-0.250000X-0.225000X0*%
%ADD18R,1.422400X1.422400*%
%ADD19C,1.422400*%
%ADD20RoundRect,0.250000X0.550000X-1.050000X0.550000X1.050000X-0.550000X1.050000X-0.550000X-1.050000X0*%
%ADD21RoundRect,0.150000X0.150000X-0.825000X0.150000X0.825000X-0.150000X0.825000X-0.150000X-0.825000X0*%
%ADD22R,1.600000X2.400000*%
%ADD23O,1.600000X2.400000*%
%ADD24R,1.600000X1.600000*%
%ADD25C,1.600000*%
%ADD26RoundRect,0.150000X-0.875000X-0.150000X0.875000X-0.150000X0.875000X0.150000X-0.875000X0.150000X0*%
%ADD27RoundRect,0.200000X0.200000X0.275000X-0.200000X0.275000X-0.200000X-0.275000X0.200000X-0.275000X0*%
%ADD28C,2.000000*%
G04 APERTURE END LIST*
D10*
%TO.C,U3*%
X95700000Y-93075000D03*
D11*
X95700000Y-95615000D03*
X95700000Y-98155000D03*
X95700000Y-100695000D03*
X95700000Y-103235000D03*
X95700000Y-105775000D03*
X95700000Y-108315000D03*
X95700000Y-110855000D03*
X95700000Y-113395000D03*
X95700000Y-115935000D03*
X103320000Y-115935000D03*
X103320000Y-113395000D03*
X103320000Y-110855000D03*
X103320000Y-108315000D03*
X103320000Y-105775000D03*
X103320000Y-103235000D03*
X103320000Y-100695000D03*
X103320000Y-98155000D03*
X103320000Y-95615000D03*
X103320000Y-93075000D03*
%TD*%
D12*
%TO.C,R6*%
X151075000Y-86550000D03*
X152725000Y-86550000D03*
%TD*%
%TO.C,R5*%
X152725000Y-82600000D03*
X151075000Y-82600000D03*
%TD*%
D13*
%TO.C,D5*%
X157800000Y-86550000D03*
X155000000Y-86550000D03*
%TD*%
%TO.C,D1*%
X157800000Y-82600000D03*
X155000000Y-82600000D03*
%TD*%
D14*
%TO.C,C1*%
X98825000Y-89100000D03*
X100375000Y-89100000D03*
%TD*%
D15*
%TO.C,J2*%
X156260800Y-57505600D03*
D16*
X156260800Y-60045600D03*
X156260800Y-62585600D03*
X156260800Y-65125600D03*
%TD*%
D14*
%TO.C,C9*%
X143370000Y-39166800D03*
X144920000Y-39166800D03*
%TD*%
%TO.C,C3*%
X98825000Y-70700000D03*
X100375000Y-70700000D03*
%TD*%
D17*
%TO.C,C11*%
X130500000Y-77475000D03*
X130500000Y-75925000D03*
%TD*%
%TO.C,C6*%
X65300000Y-91650000D03*
X65300000Y-90100000D03*
%TD*%
D12*
%TO.C,R11*%
X104635800Y-60014600D03*
X106285800Y-60014600D03*
%TD*%
D18*
%TO.C,IC1*%
X88163400Y-44424600D03*
D19*
X88163400Y-46964600D03*
X85623400Y-44424600D03*
X85623400Y-46964600D03*
X83083400Y-44424600D03*
X83083400Y-46964600D03*
X80543400Y-44424600D03*
X78003400Y-46964600D03*
X80543400Y-46964600D03*
X78003400Y-49504600D03*
X80543400Y-49504600D03*
X78003400Y-52044600D03*
X80543400Y-52044600D03*
X78003400Y-54584600D03*
X80543400Y-54584600D03*
X78003400Y-57124600D03*
X80543400Y-57124600D03*
X78003400Y-59664600D03*
X80543400Y-59664600D03*
X78003400Y-62204600D03*
X80543400Y-64744600D03*
X80543400Y-62204600D03*
X83083400Y-64744600D03*
X83083400Y-62204600D03*
X85623400Y-64744600D03*
X85623400Y-62204600D03*
X88163400Y-64744600D03*
X88163400Y-62204600D03*
X90703400Y-64744600D03*
X90703400Y-62204600D03*
X93243400Y-64744600D03*
X93243400Y-62204600D03*
X95783400Y-64744600D03*
X98323400Y-62204600D03*
X95783400Y-62204600D03*
X98323400Y-59664600D03*
X95783400Y-59664600D03*
X98323400Y-57124600D03*
X95783400Y-57124600D03*
X98323400Y-54584600D03*
X95783400Y-54584600D03*
X98323400Y-52044600D03*
X95783400Y-52044600D03*
X98323400Y-49504600D03*
X95783400Y-49504600D03*
X98323400Y-46964600D03*
X95783400Y-44424600D03*
X95783400Y-46964600D03*
X93243400Y-44424600D03*
X93243400Y-46964600D03*
X90703400Y-44424600D03*
X90703400Y-46964600D03*
%TD*%
D12*
%TO.C,R1*%
X104635800Y-41914600D03*
X106285800Y-41914600D03*
%TD*%
%TO.C,R10*%
X104635800Y-56394600D03*
X106285800Y-56394600D03*
%TD*%
%TO.C,R2*%
X104635800Y-45534600D03*
X106285800Y-45534600D03*
%TD*%
D10*
%TO.C,U2*%
X71475000Y-80010000D03*
D11*
X71475000Y-82550000D03*
X71475000Y-85090000D03*
X71475000Y-87630000D03*
X71475000Y-90170000D03*
X71475000Y-92710000D03*
X71475000Y-95250000D03*
X71475000Y-97790000D03*
X71475000Y-100330000D03*
X71475000Y-102870000D03*
X71475000Y-105410000D03*
X71475000Y-107950000D03*
X71475000Y-110490000D03*
X71475000Y-113030000D03*
X86715000Y-113030000D03*
X86715000Y-110490000D03*
X86715000Y-107950000D03*
X86715000Y-105410000D03*
X86715000Y-102870000D03*
X86715000Y-100330000D03*
X86715000Y-97790000D03*
X86715000Y-95250000D03*
X86715000Y-92710000D03*
X86715000Y-90170000D03*
X86715000Y-87630000D03*
X86715000Y-85090000D03*
X86715000Y-82550000D03*
X86715000Y-80010000D03*
%TD*%
D12*
%TO.C,R7*%
X151079200Y-70776800D03*
X152729200Y-70776800D03*
%TD*%
D13*
%TO.C,D3*%
X157800000Y-74713800D03*
X155000000Y-74713800D03*
%TD*%
D20*
%TO.C,C15*%
X156100000Y-129200000D03*
X156100000Y-125600000D03*
%TD*%
D17*
%TO.C,C10*%
X130500000Y-86875000D03*
X130500000Y-85325000D03*
%TD*%
D15*
%TO.C,J4*%
X67900000Y-46100000D03*
D16*
X67900000Y-48640000D03*
X67900000Y-51180000D03*
%TD*%
D15*
%TO.C,J3*%
X156260800Y-44490800D03*
D16*
X156260800Y-47030800D03*
X156260800Y-49570800D03*
X156260800Y-52110800D03*
%TD*%
D21*
%TO.C,U1*%
X133690000Y-88550000D03*
X134960000Y-88550000D03*
X136230000Y-88550000D03*
X137500000Y-88550000D03*
X138770000Y-88550000D03*
X140040000Y-88550000D03*
X141310000Y-88550000D03*
X141310000Y-83600000D03*
X140040000Y-83600000D03*
X138770000Y-83600000D03*
X137500000Y-83600000D03*
X136230000Y-83600000D03*
X134960000Y-83600000D03*
X133690000Y-83600000D03*
%TD*%
D14*
%TO.C,C7*%
X117275800Y-70700000D03*
X118825800Y-70700000D03*
%TD*%
%TO.C,C8*%
X121881600Y-39166800D03*
X123431600Y-39166800D03*
%TD*%
D17*
%TO.C,C12*%
X150079800Y-110983200D03*
X150079800Y-109433200D03*
%TD*%
D12*
%TO.C,R4*%
X104635800Y-52774600D03*
X106285800Y-52774600D03*
%TD*%
D22*
%TO.C,U8*%
X151765800Y-100600000D03*
D23*
X154305800Y-100600000D03*
X156845800Y-100600000D03*
X159385800Y-100600000D03*
X159385800Y-92980000D03*
X156845800Y-92980000D03*
X154305800Y-92980000D03*
X151765800Y-92980000D03*
%TD*%
D21*
%TO.C,U4*%
X133690000Y-79175000D03*
X134960000Y-79175000D03*
X136230000Y-79175000D03*
X137500000Y-79175000D03*
X138770000Y-79175000D03*
X140040000Y-79175000D03*
X141310000Y-79175000D03*
X141310000Y-74225000D03*
X140040000Y-74225000D03*
X138770000Y-74225000D03*
X137500000Y-74225000D03*
X136230000Y-74225000D03*
X134960000Y-74225000D03*
X133690000Y-74225000D03*
%TD*%
D24*
%TO.C,X1*%
X95590000Y-83410000D03*
D25*
X103210000Y-83410000D03*
X103210000Y-75790000D03*
X95590000Y-75790000D03*
%TD*%
D24*
%TO.C,X2*%
X140030200Y-44393200D03*
D25*
X140030200Y-59633200D03*
X147650200Y-59633200D03*
X147650200Y-44393200D03*
%TD*%
D12*
%TO.C,R13*%
X104635800Y-67254600D03*
X106285800Y-67254600D03*
%TD*%
D26*
%TO.C,U7*%
X124550000Y-73975000D03*
X124550000Y-75245000D03*
X124550000Y-76515000D03*
X124550000Y-77785000D03*
X124550000Y-79055000D03*
X124550000Y-80325000D03*
X124550000Y-81595000D03*
X124550000Y-82865000D03*
X124550000Y-84135000D03*
X124550000Y-85405000D03*
X124550000Y-86675000D03*
X124550000Y-87945000D03*
X124550000Y-89215000D03*
X124550000Y-90485000D03*
X124550000Y-91755000D03*
X124550000Y-93025000D03*
X111450000Y-93025000D03*
X111450000Y-91755000D03*
X111450000Y-90485000D03*
X111450000Y-89215000D03*
X111450000Y-87945000D03*
X111450000Y-86675000D03*
X111450000Y-85405000D03*
X111450000Y-84135000D03*
X111450000Y-82865000D03*
X111450000Y-81595000D03*
X111450000Y-80325000D03*
X111450000Y-79055000D03*
X111450000Y-77785000D03*
X111450000Y-76515000D03*
X111450000Y-75245000D03*
X111450000Y-73975000D03*
%TD*%
D12*
%TO.C,R8*%
X151079200Y-74688400D03*
X152729200Y-74688400D03*
%TD*%
D18*
%TO.C,U5*%
X123901200Y-47244000D03*
D19*
X121361200Y-44704000D03*
X121361200Y-47244000D03*
X118821200Y-44704000D03*
X118821200Y-47244000D03*
X116281200Y-44704000D03*
X113741200Y-47244000D03*
X116281200Y-47244000D03*
X113741200Y-49784000D03*
X116281200Y-49784000D03*
X113741200Y-52324000D03*
X116281200Y-52324000D03*
X113741200Y-54864000D03*
X116281200Y-54864000D03*
X113741200Y-57404000D03*
X116281200Y-57404000D03*
X113741200Y-59944000D03*
X116281200Y-62484000D03*
X116281200Y-59944000D03*
X118821200Y-62484000D03*
X118821200Y-59944000D03*
X121361200Y-62484000D03*
X121361200Y-59944000D03*
X123901200Y-62484000D03*
X123901200Y-59944000D03*
X126441200Y-62484000D03*
X126441200Y-59944000D03*
X128981200Y-62484000D03*
X131521200Y-59944000D03*
X128981200Y-59944000D03*
X131521200Y-57404000D03*
X128981200Y-57404000D03*
X131521200Y-54864000D03*
X128981200Y-54864000D03*
X131521200Y-52324000D03*
X128981200Y-52324000D03*
X131521200Y-49784000D03*
X128981200Y-49784000D03*
X131521200Y-47244000D03*
X128981200Y-44704000D03*
X128981200Y-47244000D03*
X126441200Y-44704000D03*
X126441200Y-47244000D03*
X123901200Y-44704000D03*
%TD*%
D17*
%TO.C,C4*%
X147869600Y-97524200D03*
X147869600Y-95974200D03*
%TD*%
D13*
%TO.C,D2*%
X157800000Y-70776800D03*
X155000000Y-70776800D03*
%TD*%
D27*
%TO.C,R9*%
X152729200Y-78549200D03*
X151079200Y-78549200D03*
%TD*%
D14*
%TO.C,C2*%
X87413800Y-38938200D03*
X88963800Y-38938200D03*
%TD*%
D12*
%TO.C,R3*%
X104635800Y-49154600D03*
X106285800Y-49154600D03*
%TD*%
D15*
%TO.C,J1*%
X71501000Y-128955800D03*
D16*
X71501000Y-126415800D03*
X74041000Y-128955800D03*
X74041000Y-126415800D03*
X76581000Y-128955800D03*
X76581000Y-126415800D03*
X79121000Y-128955800D03*
X79121000Y-126415800D03*
X81661000Y-128955800D03*
X81661000Y-126415800D03*
X84201000Y-128955800D03*
X84201000Y-126415800D03*
X86741000Y-128955800D03*
X86741000Y-126415800D03*
X89281000Y-128955800D03*
X89281000Y-126415800D03*
X91821000Y-128955800D03*
X91821000Y-126415800D03*
X94361000Y-128955800D03*
X94361000Y-126415800D03*
X96901000Y-128955800D03*
X96901000Y-126415800D03*
X99441000Y-128955800D03*
X99441000Y-126415800D03*
X101981000Y-128955800D03*
X101981000Y-126415800D03*
X104521000Y-128955800D03*
X104521000Y-126415800D03*
X107061000Y-128955800D03*
X107061000Y-126415800D03*
X109601000Y-128955800D03*
X109601000Y-126415800D03*
X112141000Y-128955800D03*
X112141000Y-126415800D03*
X114681000Y-128955800D03*
X114681000Y-126415800D03*
X117221000Y-128955800D03*
X117221000Y-126415800D03*
X119761000Y-128955800D03*
X119761000Y-126415800D03*
X122301000Y-128955800D03*
X122301000Y-126415800D03*
X124841000Y-128955800D03*
X124841000Y-126415800D03*
X127381000Y-128955800D03*
X127381000Y-126415800D03*
X129921000Y-128955800D03*
X129921000Y-126415800D03*
X132461000Y-128955800D03*
X132461000Y-126415800D03*
X135001000Y-128955800D03*
X135001000Y-126415800D03*
X137541000Y-128955800D03*
X137541000Y-126415800D03*
X140081000Y-128955800D03*
X140081000Y-126415800D03*
X142621000Y-128955800D03*
X142621000Y-126415800D03*
X145161000Y-128955800D03*
X145161000Y-126415800D03*
X147701000Y-128955800D03*
X147701000Y-126415800D03*
X150241000Y-128955800D03*
X150241000Y-126415800D03*
%TD*%
D12*
%TO.C,R12*%
X104635800Y-63634600D03*
X106285800Y-63634600D03*
%TD*%
D28*
%TO.C,SW1*%
X152950000Y-108049200D03*
X159450000Y-108049200D03*
X152950000Y-112549200D03*
X159450000Y-112549200D03*
%TD*%
D13*
%TO.C,D4*%
X157800000Y-78600000D03*
X155000000Y-78600000D03*
%TD*%
M02*
