%TF.GenerationSoftware,KiCad,Pcbnew,(6.0.2)*%
%TF.CreationDate,2022-09-05T19:25:54-07:00*%
%TF.ProjectId,Steve 68k,53746576-6520-4363-986b-2e6b69636164,rev?*%
%TF.SameCoordinates,Original*%
%TF.FileFunction,Copper,L2,Bot*%
%TF.FilePolarity,Positive*%
%FSLAX46Y46*%
G04 Gerber Fmt 4.6, Leading zero omitted, Abs format (unit mm)*
G04 Created by KiCad (PCBNEW (6.0.2)) date 2022-09-05 19:25:54*
%MOMM*%
%LPD*%
G01*
G04 APERTURE LIST*
%TA.AperFunction,ComponentPad*%
%ADD10R,1.600000X1.600000*%
%TD*%
%TA.AperFunction,ComponentPad*%
%ADD11C,1.600000*%
%TD*%
%TA.AperFunction,ComponentPad*%
%ADD12O,1.600000X1.600000*%
%TD*%
%TA.AperFunction,ComponentPad*%
%ADD13C,2.000000*%
%TD*%
%TA.AperFunction,ComponentPad*%
%ADD14R,1.700000X1.700000*%
%TD*%
%TA.AperFunction,ComponentPad*%
%ADD15O,1.700000X1.700000*%
%TD*%
%TA.AperFunction,ComponentPad*%
%ADD16R,1.422400X1.422400*%
%TD*%
%TA.AperFunction,ComponentPad*%
%ADD17C,1.422400*%
%TD*%
%TA.AperFunction,ComponentPad*%
%ADD18R,2.400000X1.600000*%
%TD*%
%TA.AperFunction,ComponentPad*%
%ADD19O,2.400000X1.600000*%
%TD*%
%TA.AperFunction,ViaPad*%
%ADD20C,0.800000*%
%TD*%
%TA.AperFunction,Conductor*%
%ADD21C,0.250000*%
%TD*%
G04 APERTURE END LIST*
D10*
%TO.P,X1,1,EN*%
%TO.N,unconnected-(X1-Pad1)*%
X94996000Y-79502000D03*
D11*
%TO.P,X1,4,GND*%
%TO.N,GND*%
X102616000Y-79502000D03*
%TO.P,X1,5,OUT*%
%TO.N,/CLK*%
X102616000Y-71882000D03*
%TO.P,X1,8,Vcc*%
%TO.N,VCC*%
X94996000Y-71882000D03*
%TD*%
D12*
%TO.P,U7,40,PA0*%
%TO.N,/D0*%
X139187000Y-43688000D03*
%TO.P,U7,39,PA1*%
%TO.N,/D1*%
X139187000Y-46228000D03*
%TO.P,U7,38,PA2*%
%TO.N,/D2*%
X139187000Y-48768000D03*
%TO.P,U7,37,PA3*%
%TO.N,/D3*%
X139187000Y-51308000D03*
%TO.P,U7,36,PA4*%
%TO.N,/D4*%
X139187000Y-53848000D03*
%TO.P,U7,35,PA5*%
%TO.N,/D5*%
X139187000Y-56388000D03*
%TO.P,U7,34,PA6*%
%TO.N,/D6*%
X139187000Y-58928000D03*
%TO.P,U7,33,PA7*%
%TO.N,/D7*%
X139187000Y-61468000D03*
%TO.P,U7,32,AREF*%
%TO.N,unconnected-(U7-Pad32)*%
X139187000Y-64008000D03*
%TO.P,U7,31,GND*%
%TO.N,GND*%
X139187000Y-66548000D03*
%TO.P,U7,30,AVCC*%
%TO.N,VCC*%
X139187000Y-69088000D03*
%TO.P,U7,29,PC7*%
%TO.N,/~{AVRSEL}*%
X139187000Y-71628000D03*
%TO.P,U7,28,PC6*%
%TO.N,/~{DTACK_AVR}*%
X139187000Y-74168000D03*
%TO.P,U7,27,PC5*%
%TO.N,/A8*%
X139187000Y-76708000D03*
%TO.P,U7,26,PC4*%
%TO.N,/A7*%
X139187000Y-79248000D03*
%TO.P,U7,25,PC3*%
%TO.N,/A6*%
X139187000Y-81788000D03*
%TO.P,U7,24,PC2*%
%TO.N,/A5*%
X139187000Y-84328000D03*
%TO.P,U7,23,PC1*%
%TO.N,/SDA*%
X139187000Y-86868000D03*
%TO.P,U7,22,PC0*%
%TO.N,/SCL*%
X139187000Y-89408000D03*
%TO.P,U7,21,PD7*%
%TO.N,/IPL2*%
X139187000Y-91948000D03*
%TO.P,U7,20,PD6*%
%TO.N,/IPL1*%
X123947000Y-91948000D03*
%TO.P,U7,19,PD5*%
%TO.N,/IPL0*%
X123947000Y-89408000D03*
%TO.P,U7,18,PD4*%
%TO.N,Net-(D2-Pad2)*%
X123947000Y-86868000D03*
%TO.P,U7,17,PD3*%
%TO.N,/A9*%
X123947000Y-84328000D03*
%TO.P,U7,16,PD2*%
%TO.N,/R~{W}*%
X123947000Y-81788000D03*
%TO.P,U7,15,PD1*%
%TO.N,/TXD0*%
X123947000Y-79248000D03*
%TO.P,U7,14,PD0*%
%TO.N,/RXD0*%
X123947000Y-76708000D03*
%TO.P,U7,13,XTAL1*%
%TO.N,/CLK*%
X123947000Y-74168000D03*
%TO.P,U7,12,XTAL2*%
%TO.N,unconnected-(U7-Pad12)*%
X123947000Y-71628000D03*
%TO.P,U7,11,GND*%
%TO.N,GND*%
X123947000Y-69088000D03*
%TO.P,U7,10,VCC*%
%TO.N,VCC*%
X123947000Y-66548000D03*
%TO.P,U7,9,~{RESET}*%
%TO.N,/~{RESET}*%
X123947000Y-64008000D03*
%TO.P,U7,8,PB7*%
%TO.N,/SCK*%
X123947000Y-61468000D03*
%TO.P,U7,7,PB6*%
%TO.N,/MISO*%
X123947000Y-58928000D03*
%TO.P,U7,6,PB5*%
%TO.N,/MOSI*%
X123947000Y-56388000D03*
%TO.P,U7,5,PB4*%
%TO.N,/A4*%
X123947000Y-53848000D03*
%TO.P,U7,4,PB3*%
%TO.N,/A3*%
X123947000Y-51308000D03*
%TO.P,U7,3,PB2*%
%TO.N,/A2*%
X123947000Y-48768000D03*
%TO.P,U7,2,PB1*%
%TO.N,/A1*%
X123947000Y-46228000D03*
D10*
%TO.P,U7,1,PB0*%
%TO.N,/A0*%
X123947000Y-43688000D03*
%TD*%
D13*
%TO.P,SW1,1,1*%
%TO.N,GND*%
X154940000Y-100180000D03*
X154940000Y-106680000D03*
%TO.P,SW1,2,2*%
%TO.N,Net-(C1-Pad1)*%
X159440000Y-100180000D03*
X159440000Y-106680000D03*
%TD*%
D14*
%TO.P,J5,1,Pin_1*%
%TO.N,unconnected-(J5-Pad1)*%
X156972000Y-43942000D03*
D15*
%TO.P,J5,2,Pin_2*%
%TO.N,/TXD0*%
X154432000Y-43942000D03*
%TO.P,J5,3,Pin_3*%
%TO.N,/RXD0*%
X151892000Y-43942000D03*
%TO.P,J5,4,Pin_4*%
%TO.N,VCC*%
X149352000Y-43942000D03*
%TO.P,J5,5,Pin_5*%
%TO.N,unconnected-(J5-Pad5)*%
X146812000Y-43942000D03*
%TO.P,J5,6,Pin_6*%
%TO.N,GND*%
X144272000Y-43942000D03*
%TD*%
D14*
%TO.P,J4,1,Pin_1*%
%TO.N,/MISO*%
X115590000Y-75961000D03*
D15*
%TO.P,J4,2,Pin_2*%
%TO.N,/SCK*%
X113050000Y-75961000D03*
%TO.P,J4,3,Pin_3*%
%TO.N,/~{RESET}*%
X115590000Y-78501000D03*
%TO.P,J4,4,Pin_4*%
%TO.N,GND*%
X113050000Y-78501000D03*
%TO.P,J4,5,Pin_5*%
%TO.N,/MOSI*%
X115590000Y-81041000D03*
%TO.P,J4,6,Pin_6*%
%TO.N,VCC*%
X113050000Y-81041000D03*
%TD*%
D14*
%TO.P,J3,1,Pin_1*%
%TO.N,GND*%
X72146000Y-127767000D03*
D15*
%TO.P,J3,2,Pin_2*%
X72146000Y-125227000D03*
%TO.P,J3,3,Pin_3*%
%TO.N,/A0*%
X74686000Y-127767000D03*
%TO.P,J3,4,Pin_4*%
%TO.N,/A1*%
X74686000Y-125227000D03*
%TO.P,J3,5,Pin_5*%
%TO.N,/A2*%
X77226000Y-127767000D03*
%TO.P,J3,6,Pin_6*%
%TO.N,/A3*%
X77226000Y-125227000D03*
%TO.P,J3,7,Pin_7*%
%TO.N,/A4*%
X79766000Y-127767000D03*
%TO.P,J3,8,Pin_8*%
%TO.N,/A5*%
X79766000Y-125227000D03*
%TO.P,J3,9,Pin_9*%
%TO.N,/A6*%
X82306000Y-127767000D03*
%TO.P,J3,10,Pin_10*%
%TO.N,/A7*%
X82306000Y-125227000D03*
%TO.P,J3,11,Pin_11*%
%TO.N,/A8*%
X84846000Y-127767000D03*
%TO.P,J3,12,Pin_12*%
%TO.N,/A9*%
X84846000Y-125227000D03*
%TO.P,J3,13,Pin_13*%
%TO.N,/A10*%
X87386000Y-127767000D03*
%TO.P,J3,14,Pin_14*%
%TO.N,/A11*%
X87386000Y-125227000D03*
%TO.P,J3,15,Pin_15*%
%TO.N,/A12*%
X89926000Y-127767000D03*
%TO.P,J3,16,Pin_16*%
%TO.N,/A13*%
X89926000Y-125227000D03*
%TO.P,J3,17,Pin_17*%
%TO.N,/A14*%
X92466000Y-127767000D03*
%TO.P,J3,18,Pin_18*%
%TO.N,/A15*%
X92466000Y-125227000D03*
%TO.P,J3,19,Pin_19*%
%TO.N,/A16*%
X95006000Y-127767000D03*
%TO.P,J3,20,Pin_20*%
%TO.N,/A17*%
X95006000Y-125227000D03*
%TO.P,J3,21,Pin_21*%
%TO.N,/A18*%
X97546000Y-127767000D03*
%TO.P,J3,22,Pin_22*%
%TO.N,/A19*%
X97546000Y-125227000D03*
%TO.P,J3,23,Pin_23*%
%TO.N,/A20*%
X100086000Y-127767000D03*
%TO.P,J3,24,Pin_24*%
%TO.N,/A21*%
X100086000Y-125227000D03*
%TO.P,J3,25,Pin_25*%
%TO.N,unconnected-(J3-Pad25)*%
X102626000Y-127767000D03*
%TO.P,J3,26,Pin_26*%
%TO.N,unconnected-(J3-Pad26)*%
X102626000Y-125227000D03*
%TO.P,J3,27,Pin_27*%
%TO.N,/D0*%
X105166000Y-127767000D03*
%TO.P,J3,28,Pin_28*%
%TO.N,/D1*%
X105166000Y-125227000D03*
%TO.P,J3,29,Pin_29*%
%TO.N,/D2*%
X107706000Y-127767000D03*
%TO.P,J3,30,Pin_30*%
%TO.N,/D3*%
X107706000Y-125227000D03*
%TO.P,J3,31,Pin_31*%
%TO.N,/D4*%
X110246000Y-127767000D03*
%TO.P,J3,32,Pin_32*%
%TO.N,/D5*%
X110246000Y-125227000D03*
%TO.P,J3,33,Pin_33*%
%TO.N,/D6*%
X112786000Y-127767000D03*
%TO.P,J3,34,Pin_34*%
%TO.N,/D7*%
X112786000Y-125227000D03*
%TO.P,J3,35,Pin_35*%
%TO.N,unconnected-(J3-Pad35)*%
X115326000Y-127767000D03*
%TO.P,J3,36,Pin_36*%
%TO.N,unconnected-(J3-Pad36)*%
X115326000Y-125227000D03*
%TO.P,J3,37,Pin_37*%
%TO.N,unconnected-(J3-Pad37)*%
X117866000Y-127767000D03*
%TO.P,J3,38,Pin_38*%
%TO.N,unconnected-(J3-Pad38)*%
X117866000Y-125227000D03*
%TO.P,J3,39,Pin_39*%
%TO.N,unconnected-(J3-Pad39)*%
X120406000Y-127767000D03*
%TO.P,J3,40,Pin_40*%
%TO.N,unconnected-(J3-Pad40)*%
X120406000Y-125227000D03*
%TO.P,J3,41,Pin_41*%
%TO.N,unconnected-(J3-Pad41)*%
X122946000Y-127767000D03*
%TO.P,J3,42,Pin_42*%
%TO.N,/CLK*%
X122946000Y-125227000D03*
%TO.P,J3,43,Pin_43*%
%TO.N,/R~{W}*%
X125486000Y-127767000D03*
%TO.P,J3,44,Pin_44*%
%TO.N,/~{AS}*%
X125486000Y-125227000D03*
%TO.P,J3,45,Pin_45*%
%TO.N,unconnected-(J3-Pad45)*%
X128026000Y-127767000D03*
%TO.P,J3,46,Pin_46*%
%TO.N,/~{DS}*%
X128026000Y-125227000D03*
%TO.P,J3,47,Pin_47*%
%TO.N,/~{RESET}*%
X130566000Y-127767000D03*
%TO.P,J3,48,Pin_48*%
%TO.N,/~{HALT}*%
X130566000Y-125227000D03*
%TO.P,J3,49,Pin_49*%
%TO.N,/~{BERR}*%
X133106000Y-127767000D03*
%TO.P,J3,50,Pin_50*%
%TO.N,/~{DTACK_CPU}*%
X133106000Y-125227000D03*
%TO.P,J3,51,Pin_51*%
%TO.N,/E*%
X135646000Y-127767000D03*
%TO.P,J3,52,Pin_52*%
%TO.N,unconnected-(J3-Pad52)*%
X135646000Y-125227000D03*
%TO.P,J3,53,Pin_53*%
%TO.N,/~{BGACK}*%
X138186000Y-127767000D03*
%TO.P,J3,54,Pin_54*%
%TO.N,/~{VPA}*%
X138186000Y-125227000D03*
%TO.P,J3,55,Pin_55*%
%TO.N,/~{BR}*%
X140726000Y-127767000D03*
%TO.P,J3,56,Pin_56*%
%TO.N,/~{BG}*%
X140726000Y-125227000D03*
%TO.P,J3,57,Pin_57*%
%TO.N,/~{IPL0}*%
X143266000Y-127767000D03*
%TO.P,J3,58,Pin_58*%
%TO.N,/~{IPL1}*%
X143266000Y-125227000D03*
%TO.P,J3,59,Pin_59*%
%TO.N,/~{IPL2}*%
X145806000Y-127767000D03*
%TO.P,J3,60,Pin_60*%
%TO.N,/FC0*%
X145806000Y-125227000D03*
%TO.P,J3,61,Pin_61*%
%TO.N,/FC1*%
X148346000Y-127767000D03*
%TO.P,J3,62,Pin_62*%
%TO.N,/FC2*%
X148346000Y-125227000D03*
%TO.P,J3,63,Pin_63*%
%TO.N,/~{ROMSEL}*%
X150886000Y-127767000D03*
%TO.P,J3,64,Pin_64*%
%TO.N,/~{RAMSEL}*%
X150886000Y-125227000D03*
%TO.P,J3,65,Pin_65*%
%TO.N,/~{AVRSEL}*%
X153426000Y-127767000D03*
%TO.P,J3,66,Pin_66*%
%TO.N,unconnected-(J3-Pad66)*%
X153426000Y-125227000D03*
%TO.P,J3,67,Pin_67*%
%TO.N,VCC*%
X155966000Y-127767000D03*
%TO.P,J3,68,Pin_68*%
X155966000Y-125227000D03*
%TD*%
%TO.P,J2,4,Pin_4*%
%TO.N,/SCL*%
X146329000Y-74686000D03*
%TO.P,J2,3,Pin_3*%
%TO.N,/SDA*%
X146329000Y-72146000D03*
%TO.P,J2,2,Pin_2*%
%TO.N,GND*%
X146329000Y-69606000D03*
D14*
%TO.P,J2,1,Pin_1*%
%TO.N,VCC*%
X146329000Y-67066000D03*
%TD*%
D15*
%TO.P,J1,3,Pin_3*%
%TO.N,GND*%
X157480000Y-116840000D03*
%TO.P,J1,2,Pin_2*%
%TO.N,unconnected-(J1-Pad2)*%
X157480000Y-114300000D03*
D14*
%TO.P,J1,1,Pin_1*%
%TO.N,VCC*%
X157480000Y-111760000D03*
%TD*%
D16*
%TO.P,IC1,1,A2*%
%TO.N,/A2*%
X84074000Y-41910000D03*
D17*
%TO.P,IC1,2,A3*%
%TO.N,/A3*%
X84074000Y-44450000D03*
%TO.P,IC1,3,A4*%
%TO.N,/A4*%
X81534000Y-41910000D03*
%TO.P,IC1,4,A5*%
%TO.N,/A5*%
X81534000Y-44450000D03*
%TO.P,IC1,5,A6*%
%TO.N,/A6*%
X78994000Y-41910000D03*
%TO.P,IC1,6,A7*%
%TO.N,/A7*%
X78994000Y-44450000D03*
%TO.P,IC1,7,A8*%
%TO.N,/A8*%
X76454000Y-41910000D03*
%TO.P,IC1,8,A9*%
%TO.N,/A9*%
X73914000Y-44450000D03*
%TO.P,IC1,9,A10*%
%TO.N,/A10*%
X76454000Y-44450000D03*
%TO.P,IC1,10,A11*%
%TO.N,/A11*%
X73914000Y-46990000D03*
%TO.P,IC1,11,A12*%
%TO.N,/A12*%
X76454000Y-46990000D03*
%TO.P,IC1,12,A13*%
%TO.N,/A13*%
X73914000Y-49530000D03*
%TO.P,IC1,13,A21*%
%TO.N,/A21*%
X76454000Y-49530000D03*
%TO.P,IC1,14,A14*%
%TO.N,/A14*%
X73914000Y-52070000D03*
%TO.P,IC1,15,VCC*%
%TO.N,VCC*%
X76454000Y-52070000D03*
%TO.P,IC1,16,A15*%
%TO.N,/A15*%
X73914000Y-54610000D03*
%TO.P,IC1,17,GND_1*%
%TO.N,GND*%
X76454000Y-54610000D03*
%TO.P,IC1,18,A16*%
%TO.N,/A16*%
X73914000Y-57150000D03*
%TO.P,IC1,19,A17*%
%TO.N,/A17*%
X76454000Y-57150000D03*
%TO.P,IC1,20,A18*%
%TO.N,/A18*%
X73914000Y-59690000D03*
%TO.P,IC1,21,A19*%
%TO.N,/A19*%
X76454000Y-62230000D03*
%TO.P,IC1,22,A20*%
%TO.N,/A20*%
X76454000Y-59690000D03*
%TO.P,IC1,23,D7*%
%TO.N,/D7*%
X78994000Y-62230000D03*
%TO.P,IC1,24,D6*%
%TO.N,/D6*%
X78994000Y-59690000D03*
%TO.P,IC1,25,D5*%
%TO.N,/D5*%
X81534000Y-62230000D03*
%TO.P,IC1,26,D4*%
%TO.N,/D4*%
X81534000Y-59690000D03*
%TO.P,IC1,27,D3*%
%TO.N,/D3*%
X84074000Y-62230000D03*
%TO.P,IC1,28,D2*%
%TO.N,/D2*%
X84074000Y-59690000D03*
%TO.P,IC1,29,D1*%
%TO.N,/D1*%
X86614000Y-62230000D03*
%TO.P,IC1,30,D0*%
%TO.N,/D0*%
X86614000Y-59690000D03*
%TO.P,IC1,31,~{AS}*%
%TO.N,/~{AS}*%
X89154000Y-62230000D03*
%TO.P,IC1,32,~{DS}*%
%TO.N,/~{DS}*%
X89154000Y-59690000D03*
%TO.P,IC1,33,R/~{W}*%
%TO.N,/R~{W}*%
X91694000Y-62230000D03*
%TO.P,IC1,34,~{DTACK}*%
%TO.N,/~{DTACK_CPU}*%
X94234000Y-59690000D03*
%TO.P,IC1,35,~{BG}*%
%TO.N,/~{BG}*%
X91694000Y-59690000D03*
%TO.P,IC1,36,~{BGACK}*%
%TO.N,/~{BGACK}*%
X94234000Y-57150000D03*
%TO.P,IC1,37,~{BR}*%
%TO.N,/~{BR}*%
X91694000Y-57150000D03*
%TO.P,IC1,38,CLK*%
%TO.N,/CLK*%
X94234000Y-54610000D03*
%TO.P,IC1,39,GND_2*%
%TO.N,GND*%
X91694000Y-54610000D03*
%TO.P,IC1,40,~{HALT}*%
%TO.N,/~{HALT}*%
X94234000Y-52070000D03*
%TO.P,IC1,41,~{RESET}*%
%TO.N,/~{RESET}*%
X91694000Y-52070000D03*
%TO.P,IC1,42,E*%
%TO.N,/E*%
X94234000Y-49530000D03*
%TO.P,IC1,43,~{VPA}*%
%TO.N,/~{VPA}*%
X91694000Y-49530000D03*
%TO.P,IC1,44,~{BERR}*%
%TO.N,/~{BERR}*%
X94234000Y-46990000D03*
%TO.P,IC1,45,~{IPL1}*%
%TO.N,/~{IPL1}*%
X91694000Y-46990000D03*
%TO.P,IC1,46,~{IPL2}*%
%TO.N,/~{IPL2}*%
X94234000Y-44450000D03*
%TO.P,IC1,47,~{IPL0}*%
%TO.N,/~{IPL0}*%
X91694000Y-41910000D03*
%TO.P,IC1,48,FC2*%
%TO.N,/FC2*%
X91694000Y-44450000D03*
%TO.P,IC1,49,FC1*%
%TO.N,/FC1*%
X89154000Y-41910000D03*
%TO.P,IC1,50,FC0*%
%TO.N,/FC0*%
X89154000Y-44450000D03*
%TO.P,IC1,51,A0*%
%TO.N,/A0*%
X86614000Y-41910000D03*
%TO.P,IC1,52,A1*%
%TO.N,/A1*%
X86614000Y-44450000D03*
%TD*%
D18*
%TO.P,U6,1,A14*%
%TO.N,/A14*%
X71475000Y-78572600D03*
D19*
%TO.P,U6,2,A12*%
%TO.N,/A12*%
X71475000Y-81112600D03*
%TO.P,U6,3,A7*%
%TO.N,/A7*%
X71475000Y-83652600D03*
%TO.P,U6,4,A6*%
%TO.N,/A6*%
X71475000Y-86192600D03*
%TO.P,U6,5,A5*%
%TO.N,/A5*%
X71475000Y-88732600D03*
%TO.P,U6,6,A4*%
%TO.N,/A4*%
X71475000Y-91272600D03*
%TO.P,U6,7,A3*%
%TO.N,/A3*%
X71475000Y-93812600D03*
%TO.P,U6,8,A2*%
%TO.N,/A2*%
X71475000Y-96352600D03*
%TO.P,U6,9,A1*%
%TO.N,/A1*%
X71475000Y-98892600D03*
%TO.P,U6,10,A0*%
%TO.N,/A0*%
X71475000Y-101432600D03*
%TO.P,U6,11,D0*%
%TO.N,/D0*%
X71475000Y-103972600D03*
%TO.P,U6,12,D1*%
%TO.N,/D1*%
X71475000Y-106512600D03*
%TO.P,U6,13,D2*%
%TO.N,/D2*%
X71475000Y-109052600D03*
%TO.P,U6,14,GND*%
%TO.N,GND*%
X71475000Y-111592600D03*
%TO.P,U6,15,D3*%
%TO.N,/D3*%
X86715000Y-111592600D03*
%TO.P,U6,16,D4*%
%TO.N,/D4*%
X86715000Y-109052600D03*
%TO.P,U6,17,D5*%
%TO.N,/D5*%
X86715000Y-106512600D03*
%TO.P,U6,18,D6*%
%TO.N,/D6*%
X86715000Y-103972600D03*
%TO.P,U6,19,D7*%
%TO.N,/D7*%
X86715000Y-101432600D03*
%TO.P,U6,20,~{CS}*%
%TO.N,/~{ROMSEL}*%
X86715000Y-98892600D03*
%TO.P,U6,21,A10*%
%TO.N,/A10*%
X86715000Y-96352600D03*
%TO.P,U6,22,~{OE}*%
%TO.N,/~{OE}*%
X86715000Y-93812600D03*
%TO.P,U6,23,A11*%
%TO.N,/A11*%
X86715000Y-91272600D03*
%TO.P,U6,24,A9*%
%TO.N,/A9*%
X86715000Y-88732600D03*
%TO.P,U6,25,A8*%
%TO.N,/A8*%
X86715000Y-86192600D03*
%TO.P,U6,26,A13*%
%TO.N,/A13*%
X86715000Y-83652600D03*
%TO.P,U6,27,~{WE}*%
%TO.N,VCC*%
X86715000Y-81112600D03*
%TO.P,U6,28,VCC*%
X86715000Y-78572600D03*
%TD*%
D20*
%TO.N,/~{OE}*%
X126492000Y-94234000D03*
X121920000Y-52578000D03*
%TO.N,/~{BGACK}*%
X103969100Y-58866500D03*
%TO.N,/SCK*%
X116689900Y-73975100D03*
%TO.N,/~{RAMSEL}*%
X114046000Y-60706000D03*
%TO.N,Net-(D2-Pad2)*%
X118923100Y-71192300D03*
%TO.N,/~{DTACK_CPU}*%
X133107400Y-116615400D03*
X122821400Y-109097500D03*
%TO.N,/~{RAM_WE}*%
X100838000Y-107950000D03*
X103892600Y-92046700D03*
X112037800Y-85919700D03*
X117821400Y-47183000D03*
%TO.N,/~{OE}*%
X94234000Y-93726000D03*
X100076000Y-110490000D03*
%TO.N,/~{BG}*%
X121109400Y-111348200D03*
%TO.N,/~{RESET}*%
X104245200Y-73439600D03*
X148082000Y-106934000D03*
%TO.N,/~{DS}*%
X100838000Y-106680000D03*
%TO.N,/~{AS}*%
X127000000Y-108712000D03*
X102718200Y-63078100D03*
%TO.N,/R~{W}*%
X102491700Y-85906200D03*
%TO.N,/D5*%
X121957500Y-60537477D03*
%TO.N,/D4*%
X116840000Y-60960000D03*
%TO.N,/D2*%
X82175100Y-110598400D03*
X116332000Y-57150000D03*
%TO.N,/D1*%
X93982100Y-117555200D03*
%TO.N,/D0*%
X114907900Y-55295300D03*
%TO.N,/A21*%
X84902100Y-53927300D03*
X110744000Y-108712000D03*
%TO.N,/A20*%
X92061200Y-73217000D03*
X110744000Y-106426000D03*
%TO.N,/A19*%
X88267300Y-72613100D03*
X98806000Y-103378000D03*
%TO.N,/A18*%
X81470300Y-111402600D03*
X76615700Y-37485200D03*
X96973700Y-38471700D03*
%TO.N,/A17*%
X109959900Y-59180200D03*
X116434400Y-45948500D03*
%TO.N,/A16*%
X99221900Y-41356800D03*
%TO.N,/A15*%
X84103500Y-117639100D03*
%TO.N,/A14*%
X80730900Y-116449300D03*
X102375400Y-42877100D03*
%TO.N,/A13*%
X81311500Y-74171200D03*
%TO.N,/A11*%
X78587800Y-90434800D03*
%TO.N,/A10*%
X79989500Y-94151200D03*
X121920000Y-94996000D03*
X112776000Y-57150000D03*
%TO.N,/A9*%
X110490000Y-52062811D03*
X98040900Y-46780500D03*
X110139000Y-84657800D03*
%TO.N,/A7*%
X77844200Y-88885400D03*
%TO.N,/A4*%
X114183400Y-50613800D03*
%TO.N,/A3*%
X93063700Y-43085700D03*
X109474000Y-52832000D03*
%TO.N,/A1*%
X116078000Y-52101020D03*
%TO.N,/A0*%
X111224151Y-55090151D03*
%TO.N,GND*%
X100930200Y-63978700D03*
%TD*%
D21*
%TO.N,/~{RESET}*%
X120025831Y-89273896D02*
X117856000Y-87104064D01*
X120025831Y-91323831D02*
X120025831Y-89273896D01*
X117856000Y-87104064D02*
X117856000Y-82383600D01*
X135636000Y-106934000D02*
X120025831Y-91323831D01*
X117789700Y-82317300D02*
X117789700Y-78501000D01*
X148082000Y-106934000D02*
X135636000Y-106934000D01*
X117856000Y-82383600D02*
X117789700Y-82317300D01*
%TO.N,/~{AS}*%
X126689200Y-109022800D02*
X126350200Y-109022800D01*
X127000000Y-108712000D02*
X126689200Y-109022800D01*
%TO.N,/A19*%
X98806000Y-103378000D02*
X97546000Y-104638000D01*
X92904200Y-98850100D02*
X92904200Y-77250000D01*
X98806000Y-103378000D02*
X97432100Y-103378000D01*
X92904200Y-77250000D02*
X88267300Y-72613100D01*
X97432100Y-103378000D02*
X92904200Y-98850100D01*
X97546000Y-104638000D02*
X97546000Y-125227000D01*
%TO.N,/D0*%
X87650500Y-60726500D02*
X86614000Y-59690000D01*
X89515100Y-72195600D02*
X87650500Y-70331000D01*
X89515100Y-73224000D02*
X89515100Y-72195600D01*
X87650500Y-70331000D02*
X87650500Y-60726500D01*
X93354500Y-77063400D02*
X89515100Y-73224000D01*
X93354500Y-96402500D02*
X93354500Y-77063400D01*
X99626480Y-102674480D02*
X93354500Y-96402500D01*
X99605400Y-128953400D02*
X98911489Y-128259489D01*
X98911489Y-128259489D02*
X98911489Y-110629897D01*
X98911489Y-110629897D02*
X99626480Y-109914906D01*
X103171600Y-128953400D02*
X99605400Y-128953400D01*
X103990700Y-128134300D02*
X103171600Y-128953400D01*
X103990700Y-127767000D02*
X103990700Y-128134300D01*
X99626480Y-109914906D02*
X99626480Y-102674480D01*
X105166000Y-127767000D02*
X103990700Y-127767000D01*
%TO.N,/A20*%
X97127100Y-78282900D02*
X92061200Y-73217000D01*
X97127100Y-83618500D02*
X97127100Y-78282900D01*
X112066100Y-98557500D02*
X97127100Y-83618500D01*
X112066100Y-105103900D02*
X112066100Y-98557500D01*
X110744000Y-106426000D02*
X112066100Y-105103900D01*
X100086000Y-126591700D02*
X100086000Y-127767000D01*
X100453400Y-126591700D02*
X100086000Y-126591700D01*
X101261300Y-125783800D02*
X100453400Y-126591700D01*
X101261300Y-124849500D02*
X101261300Y-125783800D01*
X112066100Y-107748100D02*
X112066100Y-114044700D01*
X110744000Y-106426000D02*
X112066100Y-107748100D01*
X112066100Y-114044700D02*
X101261300Y-124849500D01*
%TO.N,/A21*%
X110163400Y-108131400D02*
X110744000Y-108712000D01*
X104617900Y-108131400D02*
X110163400Y-108131400D01*
%TO.N,/~{DS}*%
X88100900Y-60743100D02*
X89154000Y-59690000D01*
X88100900Y-70051500D02*
X88100900Y-60743100D01*
X89965500Y-73003300D02*
X89965500Y-71916100D01*
X93804900Y-91772900D02*
X93804900Y-76842700D01*
X89965500Y-71916100D02*
X88100900Y-70051500D01*
X100838000Y-106680000D02*
X101724100Y-105793900D01*
X101724100Y-105793900D02*
X101724100Y-99692100D01*
X101724100Y-99692100D02*
X93804900Y-91772900D01*
X93804900Y-76842700D02*
X89965500Y-73003300D01*
%TO.N,/~{RAM_WE}*%
X103892600Y-105135914D02*
X103892600Y-92046700D01*
X101078514Y-107950000D02*
X103892600Y-105135914D01*
X100838000Y-107950000D02*
X101078514Y-107950000D01*
%TO.N,/~{OE}*%
X94234000Y-96218000D02*
X94234000Y-93726000D01*
X100076000Y-110490000D02*
X100076000Y-102060000D01*
X100076000Y-102060000D02*
X94234000Y-96218000D01*
%TO.N,/D5*%
X138061700Y-56388000D02*
X139187000Y-56388000D01*
X136936400Y-57513300D02*
X138061700Y-56388000D01*
X121957500Y-59282200D02*
X123726400Y-57513300D01*
X121957500Y-60537477D02*
X121957500Y-59282200D01*
X123726400Y-57513300D02*
X136936400Y-57513300D01*
%TO.N,/D4*%
X136936400Y-54973300D02*
X138061700Y-53848000D01*
X116840000Y-60693100D02*
X122559800Y-54973300D01*
X122559800Y-54973300D02*
X136936400Y-54973300D01*
X138061700Y-53848000D02*
X139187000Y-53848000D01*
X116840000Y-60960000D02*
X116840000Y-60693100D01*
%TO.N,/D2*%
X135231511Y-52723489D02*
X139187000Y-48768000D01*
X123310493Y-52723489D02*
X135231511Y-52723489D01*
X121931982Y-54102000D02*
X123310493Y-52723489D01*
X119380000Y-54102000D02*
X121931982Y-54102000D01*
X116332000Y-57150000D02*
X119380000Y-54102000D01*
%TO.N,/D0*%
X133997700Y-47752000D02*
X138061700Y-43688000D01*
X123481211Y-47643489D02*
X124412789Y-47643489D01*
X122822489Y-48302211D02*
X123481211Y-47643489D01*
X116282900Y-55295300D02*
X122822489Y-48755711D01*
X122822489Y-48755711D02*
X122822489Y-48302211D01*
X138061700Y-43688000D02*
X139187000Y-43688000D01*
X124412789Y-47643489D02*
X124521300Y-47752000D01*
X114907900Y-55295300D02*
X116282900Y-55295300D01*
X124521300Y-47752000D02*
X133997700Y-47752000D01*
%TO.N,/A4*%
X118090311Y-58579389D02*
X122821700Y-53848000D01*
X114183400Y-58579389D02*
X118090311Y-58579389D01*
X122821700Y-53848000D02*
X123947000Y-53848000D01*
X114183400Y-50613800D02*
X114183400Y-58579389D01*
%TO.N,/A1*%
X122821700Y-46228000D02*
X123947000Y-46228000D01*
X122821700Y-47340800D02*
X122821700Y-46228000D01*
X118061480Y-52101020D02*
X122821700Y-47340800D01*
X116078000Y-52101020D02*
X118061480Y-52101020D01*
%TO.N,/A10*%
X118851800Y-91927800D02*
X121920000Y-94996000D01*
X118851800Y-89371300D02*
X118851800Y-91927800D01*
X112617000Y-57150000D02*
X111358200Y-58408800D01*
X112776000Y-57150000D02*
X112617000Y-57150000D01*
X111358200Y-81877700D02*
X118851800Y-89371300D01*
X111358200Y-58408800D02*
X111358200Y-81877700D01*
%TO.N,/~{RAMSEL}*%
X150886000Y-122819718D02*
X150886000Y-125227000D01*
X111866000Y-81749782D02*
X119576311Y-89460093D01*
X114046000Y-60719400D02*
X111866000Y-62899400D01*
X114046000Y-60706000D02*
X114046000Y-60719400D01*
X119576311Y-89460093D02*
X119576311Y-91510029D01*
X119576311Y-91510029D02*
X150886000Y-122819718D01*
X111866000Y-62899400D02*
X111866000Y-81749782D01*
%TO.N,/A3*%
X93226500Y-42922900D02*
X93063700Y-43085700D01*
X98026100Y-42922900D02*
X93226500Y-42922900D01*
X107935200Y-52832000D02*
X98026100Y-42922900D01*
X109474000Y-52832000D02*
X107935200Y-52832000D01*
%TO.N,/A9*%
X108753380Y-59689498D02*
X108753380Y-55832720D01*
X108753380Y-55832720D02*
X110490000Y-54096100D01*
X109683800Y-60619918D02*
X108753380Y-59689498D01*
X109683800Y-84202600D02*
X109683800Y-60619918D01*
X110139000Y-84657800D02*
X109683800Y-84202600D01*
X110490000Y-52062811D02*
X110490000Y-54096100D01*
X110490000Y-54096100D02*
X108752500Y-54096100D01*
X108752500Y-54096100D02*
X110230100Y-54096100D01*
%TO.N,/FC1*%
X90643100Y-40420900D02*
X89154000Y-41910000D01*
X99311800Y-40420900D02*
X90643100Y-40420900D01*
X99947200Y-41056300D02*
X99311800Y-40420900D01*
X99947200Y-41473514D02*
X99947200Y-41056300D01*
X102075297Y-43601611D02*
X99947200Y-41473514D01*
X104190393Y-43601611D02*
X102075297Y-43601611D01*
X111315940Y-50727158D02*
X104190393Y-43601611D01*
X111315940Y-53973748D02*
X111315940Y-50727158D01*
X109202900Y-56086788D02*
X111315940Y-53973748D01*
X109202900Y-59503300D02*
X109202900Y-56086788D01*
X110415900Y-60716300D02*
X109202900Y-59503300D01*
X110415900Y-83606100D02*
X110415900Y-60716300D01*
X149521300Y-124429100D02*
X111020300Y-85928100D01*
X148713400Y-126591700D02*
X149521300Y-125783800D01*
X149521300Y-125783800D02*
X149521300Y-124429100D01*
X111020300Y-85928100D02*
X111020300Y-84210500D01*
X148346000Y-126591700D02*
X148713400Y-126591700D01*
X111020300Y-84210500D02*
X110415900Y-83606100D01*
X148346000Y-127767000D02*
X148346000Y-126591700D01*
%TO.N,/A0*%
X111765460Y-54548842D02*
X111765460Y-50540960D01*
X111765460Y-50540960D02*
X110162300Y-48937800D01*
X111224151Y-55090151D02*
X111765460Y-54548842D01*
%TO.N,/A17*%
X112214980Y-50167920D02*
X112214980Y-55890502D01*
X116434400Y-45948500D02*
X112214980Y-50167920D01*
X112214980Y-55890502D02*
X109959900Y-58145582D01*
X109959900Y-58145582D02*
X109959900Y-59180200D01*
%TO.N,/~{OE}*%
X121920000Y-51744700D02*
X121920000Y-52578000D01*
X123626700Y-50038000D02*
X121920000Y-51744700D01*
X125476000Y-50038000D02*
X123626700Y-50038000D01*
X125730000Y-49784000D02*
X125476000Y-50038000D01*
X132601418Y-49784000D02*
X125730000Y-49784000D01*
X137427417Y-44958000D02*
X132601418Y-49784000D01*
X140970000Y-44958000D02*
X137427417Y-44958000D01*
X144018000Y-41910000D02*
X140970000Y-44958000D01*
X154940000Y-41910000D02*
X144018000Y-41910000D01*
X155702000Y-42672000D02*
X154940000Y-41910000D01*
X137522511Y-65423489D02*
X139808511Y-65423489D01*
X139808511Y-65423489D02*
X155702000Y-49530000D01*
X136398000Y-66548000D02*
X137522511Y-65423489D01*
X155702000Y-49530000D02*
X155702000Y-42672000D01*
X126492000Y-91186000D02*
X136398000Y-81280000D01*
X126492000Y-94234000D02*
X126492000Y-91186000D01*
X136398000Y-81280000D02*
X136398000Y-66548000D01*
%TO.N,/~{BR}*%
X140726000Y-127767000D02*
X139550700Y-127767000D01*
X92964000Y-58420000D02*
X91694000Y-57150000D01*
X92964000Y-60959900D02*
X92964000Y-58420000D01*
X99829200Y-67825100D02*
X92964000Y-60959900D01*
X99829200Y-81293100D02*
X99829200Y-67825100D01*
X103786400Y-85250300D02*
X99829200Y-81293100D01*
X103786400Y-86974000D02*
X103786400Y-85250300D01*
X121834600Y-105022200D02*
X103786400Y-86974000D01*
X121834700Y-105022200D02*
X121834600Y-105022200D01*
X121834700Y-111648700D02*
X121834700Y-105022200D01*
X121754500Y-111728900D02*
X121834700Y-111648700D01*
X121754500Y-125772700D02*
X121754500Y-111728900D01*
X122384200Y-126402400D02*
X121754500Y-125772700D01*
X130865600Y-126402400D02*
X122384200Y-126402400D01*
X131836000Y-127372800D02*
X130865600Y-126402400D01*
X131836000Y-128255800D02*
X131836000Y-127372800D01*
X132522500Y-128942300D02*
X131836000Y-128255800D01*
X138742800Y-128942300D02*
X132522500Y-128942300D01*
X139550700Y-128134400D02*
X138742800Y-128942300D01*
X139550700Y-127767000D02*
X139550700Y-128134400D01*
%TO.N,/~{BGACK}*%
X138186000Y-127767000D02*
X138186000Y-126591700D01*
X105463600Y-60361000D02*
X103969100Y-58866500D01*
X105463600Y-69677900D02*
X105463600Y-60361000D01*
X106981900Y-71196200D02*
X105463600Y-69677900D01*
X106981900Y-85711200D02*
X106981900Y-71196200D01*
X107716900Y-86446200D02*
X106981900Y-85711200D01*
X107717000Y-86446200D02*
X107716900Y-86446200D01*
X137010700Y-115739900D02*
X107717000Y-86446200D01*
X137010700Y-125783800D02*
X137010700Y-115739900D01*
X137818600Y-126591700D02*
X137010700Y-125783800D01*
X138186000Y-126591700D02*
X137818600Y-126591700D01*
%TO.N,/~{BERR}*%
X133106000Y-127767000D02*
X133106000Y-126591700D01*
X93193400Y-45949400D02*
X94234000Y-46990000D01*
X91207200Y-45949400D02*
X93193400Y-45949400D01*
X90640900Y-46515700D02*
X91207200Y-45949400D01*
X90640900Y-49952000D02*
X90640900Y-46515700D01*
X91722300Y-51033400D02*
X90640900Y-49952000D01*
X94695400Y-51033400D02*
X91722300Y-51033400D01*
X102555500Y-58893500D02*
X94695400Y-51033400D01*
X102555500Y-59566000D02*
X102555500Y-58893500D01*
X104563000Y-61573500D02*
X102555500Y-59566000D01*
X104563000Y-70051100D02*
X104563000Y-61573500D01*
X106081300Y-71569400D02*
X104563000Y-70051100D01*
X106081300Y-86084400D02*
X106081300Y-71569400D01*
X107343700Y-87346800D02*
X106081300Y-86084400D01*
X107343800Y-87346800D02*
X107343700Y-87346800D01*
X131930700Y-111933700D02*
X107343800Y-87346800D01*
X131930700Y-125783800D02*
X131930700Y-111933700D01*
X132738600Y-126591700D02*
X131930700Y-125783800D01*
X133106000Y-126591700D02*
X132738600Y-126591700D01*
%TO.N,/~{VPA}*%
X138186000Y-125227000D02*
X138186000Y-124051700D01*
X92735700Y-48488300D02*
X91694000Y-49530000D01*
X94710300Y-48488300D02*
X92735700Y-48488300D01*
X105913900Y-59691900D02*
X94710300Y-48488300D01*
X105913900Y-69491300D02*
X105913900Y-59691900D01*
X107432200Y-71009600D02*
X105913900Y-69491300D01*
X107432200Y-85524600D02*
X107432200Y-71009600D01*
X107903500Y-85995900D02*
X107432200Y-85524600D01*
X107903600Y-85995900D02*
X107903500Y-85995900D01*
X138186000Y-116278300D02*
X107903600Y-85995900D01*
X138186000Y-124051700D02*
X138186000Y-116278300D01*
%TO.N,/~{IPL2}*%
X145806000Y-127767000D02*
X145806000Y-126591700D01*
X96816100Y-47032100D02*
X94234000Y-44450000D01*
X96816100Y-47936200D02*
X96816100Y-47032100D01*
X107490100Y-58610200D02*
X96816100Y-47936200D01*
X107490100Y-69156800D02*
X107490100Y-58610200D01*
X108783100Y-70449800D02*
X107490100Y-69156800D01*
X108783100Y-84964700D02*
X108783100Y-70449800D01*
X146981300Y-123162900D02*
X108783100Y-84964700D01*
X146981300Y-125783800D02*
X146981300Y-123162900D01*
X146173400Y-126591700D02*
X146981300Y-125783800D01*
X145806000Y-126591700D02*
X146173400Y-126591700D01*
%TO.N,/RXD0*%
X124228400Y-75582700D02*
X123947000Y-75582700D01*
X125072300Y-74738800D02*
X124228400Y-75582700D01*
X125072300Y-71432800D02*
X125072300Y-74738800D01*
X138991700Y-57513400D02*
X125072300Y-71432800D01*
X139704200Y-57513400D02*
X138991700Y-57513400D01*
X151892000Y-45325600D02*
X139704200Y-57513400D01*
X151892000Y-43942000D02*
X151892000Y-45325600D01*
X123947000Y-76708000D02*
X123947000Y-75582700D01*
%TO.N,/TXD0*%
X124228400Y-78122700D02*
X123947000Y-78122700D01*
X125072300Y-77278800D02*
X124228400Y-78122700D01*
X125072300Y-76450800D02*
X125072300Y-77278800D01*
X138785100Y-62738000D02*
X125072300Y-76450800D01*
X139516400Y-62738000D02*
X138785100Y-62738000D01*
X154432000Y-47822400D02*
X139516400Y-62738000D01*
X154432000Y-43942000D02*
X154432000Y-47822400D01*
X123947000Y-79248000D02*
X123947000Y-78122700D01*
%TO.N,/MOSI*%
X114414600Y-65920400D02*
X123947000Y-56388000D01*
X114414600Y-79057600D02*
X114414600Y-65920400D01*
X115222700Y-79865700D02*
X114414600Y-79057600D01*
X115590000Y-79865700D02*
X115222700Y-79865700D01*
X115590000Y-81041000D02*
X115590000Y-79865700D01*
%TO.N,/SCK*%
X123947000Y-61468000D02*
X123947000Y-62593300D01*
X123742700Y-62593300D02*
X123947000Y-62593300D01*
X116689900Y-69646100D02*
X123742700Y-62593300D01*
X116689900Y-73975100D02*
X116689900Y-69646100D01*
%TO.N,/MISO*%
X123770100Y-60053300D02*
X123947000Y-60053300D01*
X115590000Y-68233400D02*
X123770100Y-60053300D01*
X115590000Y-75961000D02*
X115590000Y-68233400D01*
X123947000Y-58928000D02*
X123947000Y-60053300D01*
%TO.N,/~{AVRSEL}*%
X138905600Y-72753300D02*
X139187000Y-72753300D01*
X138061700Y-73597200D02*
X138905600Y-72753300D01*
X138061700Y-95206800D02*
X138061700Y-73597200D01*
X152250700Y-109395800D02*
X138061700Y-95206800D01*
X152250700Y-125783800D02*
X152250700Y-109395800D01*
X153058600Y-126591700D02*
X152250700Y-125783800D01*
X153426000Y-126591700D02*
X153058600Y-126591700D01*
X153426000Y-127767000D02*
X153426000Y-126591700D01*
X139187000Y-71628000D02*
X139187000Y-72753300D01*
%TO.N,Net-(D2-Pad2)*%
X123947000Y-86868000D02*
X123947000Y-85742700D01*
X118923100Y-81000200D02*
X118923100Y-71192300D01*
X123665600Y-85742700D02*
X118923100Y-81000200D01*
X123947000Y-85742700D02*
X123665600Y-85742700D01*
%TO.N,/~{DTACK_CPU}*%
X133107400Y-124050300D02*
X133107400Y-116615400D01*
X133106000Y-124051700D02*
X133107400Y-124050300D01*
X133106000Y-125227000D02*
X133106000Y-124051700D01*
X100279600Y-65735600D02*
X94234000Y-59690000D01*
X100279600Y-80843000D02*
X100279600Y-65735600D01*
X104280100Y-84843500D02*
X100279600Y-80843000D01*
X104280100Y-86830800D02*
X104280100Y-84843500D01*
X106597300Y-89148000D02*
X104280100Y-86830800D01*
X106597400Y-89148000D02*
X106597300Y-89148000D01*
X122821400Y-105372000D02*
X106597400Y-89148000D01*
X122821400Y-109097500D02*
X122821400Y-105372000D01*
%TO.N,/SCL*%
X139468300Y-88282700D02*
X139187000Y-88282700D01*
X146329000Y-81422000D02*
X139468300Y-88282700D01*
X146329000Y-74686000D02*
X146329000Y-81422000D01*
X139187000Y-89408000D02*
X139187000Y-88282700D01*
%TO.N,/SDA*%
X139468400Y-85742700D02*
X139187000Y-85742700D01*
X140312300Y-84898800D02*
X139468400Y-85742700D01*
X140312300Y-78970600D02*
X140312300Y-84898800D01*
X145961600Y-73321300D02*
X140312300Y-78970600D01*
X146329000Y-73321300D02*
X145961600Y-73321300D01*
X146329000Y-72146000D02*
X146329000Y-73321300D01*
X139187000Y-86868000D02*
X139187000Y-85742700D01*
%TO.N,/~{RAM_WE}*%
X116570800Y-47183000D02*
X117821400Y-47183000D01*
X112664500Y-51089300D02*
X116570800Y-47183000D01*
X112664500Y-56076700D02*
X112664500Y-51089300D01*
X110907800Y-57833400D02*
X112664500Y-56076700D01*
X110907800Y-83053900D02*
X110907800Y-57833400D01*
X112037800Y-84183900D02*
X110907800Y-83053900D01*
X112037800Y-85919700D02*
X112037800Y-84183900D01*
%TO.N,/~{IPL1}*%
X92736200Y-48032200D02*
X91694000Y-46990000D01*
X94928800Y-48032200D02*
X92736200Y-48032200D01*
X106364200Y-59467600D02*
X94928800Y-48032200D01*
X106364200Y-69304700D02*
X106364200Y-59467600D01*
X107882500Y-70823000D02*
X106364200Y-69304700D01*
X107882500Y-85338000D02*
X107882500Y-70823000D01*
X107882600Y-85338000D02*
X107882500Y-85338000D01*
X143266000Y-120721400D02*
X107882600Y-85338000D01*
X143266000Y-125227000D02*
X143266000Y-120721400D01*
%TO.N,/~{IPL0}*%
X143266000Y-127767000D02*
X143266000Y-126591700D01*
X90616400Y-42987600D02*
X91694000Y-41910000D01*
X90616400Y-44909400D02*
X90616400Y-42987600D01*
X91193600Y-45486600D02*
X90616400Y-44909400D01*
X94257100Y-45486600D02*
X91193600Y-45486600D01*
X95270600Y-46500100D02*
X94257100Y-45486600D01*
X95270600Y-47137800D02*
X95270600Y-46500100D01*
X106985300Y-58852500D02*
X95270600Y-47137800D01*
X106985300Y-69288900D02*
X106985300Y-58852500D01*
X108332800Y-70636400D02*
X106985300Y-69288900D01*
X108332800Y-85151300D02*
X108332800Y-70636400D01*
X144474600Y-121293100D02*
X108332800Y-85151300D01*
X144474600Y-125696600D02*
X144474600Y-121293100D01*
X143579500Y-126591700D02*
X144474600Y-125696600D01*
X143266000Y-126591700D02*
X143579500Y-126591700D01*
%TO.N,/~{BG}*%
X91694000Y-60326800D02*
X91694000Y-59690000D01*
X99340500Y-67973300D02*
X91694000Y-60326800D01*
X99340500Y-81704800D02*
X99340500Y-67973300D01*
X103336100Y-85700400D02*
X99340500Y-81704800D01*
X103336100Y-87797500D02*
X103336100Y-85700400D01*
X121109400Y-105570800D02*
X103336100Y-87797500D01*
X121109400Y-111348200D02*
X121109400Y-105570800D01*
%TO.N,/~{HALT}*%
X130566000Y-125227000D02*
X130566000Y-124051700D01*
X104112700Y-61948700D02*
X94234000Y-52070000D01*
X104112700Y-70237700D02*
X104112700Y-61948700D01*
X105631000Y-71756000D02*
X104112700Y-70237700D01*
X105631000Y-86271000D02*
X105631000Y-71756000D01*
X107157100Y-87797100D02*
X105631000Y-86271000D01*
X107157200Y-87797100D02*
X107157100Y-87797100D01*
X130566000Y-111205900D02*
X107157200Y-87797100D01*
X130566000Y-124051700D02*
X130566000Y-111205900D01*
%TO.N,/~{RESET}*%
X123947000Y-64008000D02*
X123947000Y-65133300D01*
X115590000Y-78501000D02*
X116765300Y-78501000D01*
X92964000Y-53340000D02*
X91694000Y-52070000D01*
X94470900Y-53340000D02*
X92964000Y-53340000D01*
X101059100Y-59928200D02*
X94470900Y-53340000D01*
X101059100Y-62445000D02*
X101059100Y-59928200D01*
X101059200Y-62445000D02*
X101059100Y-62445000D01*
X102105800Y-63491600D02*
X101059200Y-62445000D01*
X102105800Y-69504600D02*
X102105800Y-63491600D01*
X104245200Y-71644000D02*
X102105800Y-69504600D01*
X104245200Y-73439600D02*
X104245200Y-71644000D01*
X117789700Y-78501000D02*
X116765300Y-78501000D01*
X117789700Y-71009300D02*
X117789700Y-78501000D01*
X123665700Y-65133300D02*
X117789700Y-71009300D01*
X123947000Y-65133300D02*
X123665700Y-65133300D01*
%TO.N,/FC2*%
X148346000Y-125227000D02*
X148346000Y-124051700D01*
X92725200Y-44450000D02*
X91694000Y-44450000D01*
X93761800Y-43413400D02*
X92725200Y-44450000D01*
X94686600Y-43413400D02*
X93761800Y-43413400D01*
X97315500Y-46042300D02*
X94686600Y-43413400D01*
X97315500Y-47478700D02*
X97315500Y-46042300D01*
X108165500Y-58328700D02*
X97315500Y-47478700D01*
X108165500Y-69195300D02*
X108165500Y-58328700D01*
X109233400Y-70263200D02*
X108165500Y-69195300D01*
X109233400Y-84778100D02*
X109233400Y-70263200D01*
X148346000Y-123890700D02*
X109233400Y-84778100D01*
X148346000Y-124051700D02*
X148346000Y-123890700D01*
%TO.N,/FC0*%
X144620200Y-126412800D02*
X145806000Y-125227000D01*
X144620200Y-128099500D02*
X144620200Y-126412800D01*
X143256100Y-129463600D02*
X144620200Y-128099500D01*
X120350000Y-129463600D02*
X143256100Y-129463600D01*
X119136000Y-128249600D02*
X120350000Y-129463600D01*
X119136000Y-127358700D02*
X119136000Y-128249600D01*
X118319400Y-126542100D02*
X119136000Y-127358700D01*
X117421700Y-126542100D02*
X118319400Y-126542100D01*
X116504000Y-125624400D02*
X117421700Y-126542100D01*
X116504000Y-102358500D02*
X116504000Y-125624400D01*
X97802700Y-83657200D02*
X116504000Y-102358500D01*
X97802700Y-77932700D02*
X97802700Y-83657200D01*
X90641000Y-70771000D02*
X97802700Y-77932700D01*
X90640900Y-70771000D02*
X90641000Y-70771000D01*
X90640900Y-54569900D02*
X90640900Y-70771000D01*
X89154000Y-53083000D02*
X90640900Y-54569900D01*
X89154000Y-44450000D02*
X89154000Y-53083000D01*
%TO.N,/E*%
X135646000Y-127767000D02*
X135646000Y-126591700D01*
X103164900Y-58460900D02*
X94234000Y-49530000D01*
X103164900Y-59445500D02*
X103164900Y-58460900D01*
X105013300Y-61293900D02*
X103164900Y-59445500D01*
X105013300Y-69864500D02*
X105013300Y-61293900D01*
X106531600Y-71382800D02*
X105013300Y-69864500D01*
X106531600Y-85897800D02*
X106531600Y-71382800D01*
X107530300Y-86896500D02*
X106531600Y-85897800D01*
X107530400Y-86896500D02*
X107530300Y-86896500D01*
X134470700Y-113836800D02*
X107530400Y-86896500D01*
X134470700Y-125783800D02*
X134470700Y-113836800D01*
X135278600Y-126591700D02*
X134470700Y-125783800D01*
X135646000Y-126591700D02*
X135278600Y-126591700D01*
%TO.N,/~{AS}*%
X125486000Y-125227000D02*
X125486000Y-124051700D01*
X126350200Y-123187500D02*
X125486000Y-124051700D01*
X126350200Y-109022800D02*
X126350200Y-123187500D01*
X102718200Y-69480100D02*
X102718200Y-63078100D01*
X105180700Y-71942600D02*
X102718200Y-69480100D01*
X105180700Y-86457600D02*
X105180700Y-71942600D01*
X106970500Y-88247400D02*
X105180700Y-86457600D01*
X106970600Y-88247400D02*
X106970500Y-88247400D01*
X126350200Y-107627000D02*
X106970600Y-88247400D01*
X126350200Y-109022800D02*
X126350200Y-107627000D01*
%TO.N,/R~{W}*%
X98253100Y-81667600D02*
X102491700Y-85906200D01*
X98253100Y-68789100D02*
X98253100Y-81667600D01*
X91694000Y-62230000D02*
X98253100Y-68789100D01*
X102491700Y-87709300D02*
X102491700Y-85906200D01*
X119136000Y-104353600D02*
X102491700Y-87709300D01*
X119136000Y-125654600D02*
X119136000Y-104353600D01*
X119971900Y-126490500D02*
X119136000Y-125654600D01*
X120793700Y-126490500D02*
X119971900Y-126490500D01*
X121754700Y-127451500D02*
X120793700Y-126490500D01*
X121754700Y-128298000D02*
X121754700Y-127451500D01*
X122469900Y-129013200D02*
X121754700Y-128298000D01*
X123431800Y-129013200D02*
X122469900Y-129013200D01*
X124310700Y-128134300D02*
X123431800Y-129013200D01*
X124310700Y-127767000D02*
X124310700Y-128134300D01*
X125486000Y-127767000D02*
X124310700Y-127767000D01*
%TO.N,/CLK*%
X122946000Y-125227000D02*
X122946000Y-124051700D01*
X100542800Y-60918800D02*
X94234000Y-54610000D01*
X100542800Y-62565600D02*
X100542800Y-60918800D01*
X101230600Y-63253400D02*
X100542800Y-62565600D01*
X101230700Y-63253400D02*
X101230600Y-63253400D01*
X101655500Y-63678200D02*
X101230700Y-63253400D01*
X101655500Y-70921500D02*
X101655500Y-63678200D01*
X102616000Y-71882000D02*
X101655500Y-70921500D01*
X102616000Y-77563000D02*
X102616000Y-71882000D01*
X104730400Y-79677400D02*
X102616000Y-77563000D01*
X104730400Y-86644200D02*
X104730400Y-79677400D01*
X106783900Y-88697700D02*
X104730400Y-86644200D01*
X106784000Y-88697700D02*
X106783900Y-88697700D01*
X123546700Y-105460400D02*
X106784000Y-88697700D01*
X123546700Y-123451000D02*
X123546700Y-105460400D01*
X122946000Y-124051700D02*
X123546700Y-123451000D01*
%TO.N,/D7*%
X86715000Y-101432600D02*
X87148500Y-101432600D01*
X112786000Y-125227000D02*
X111610700Y-125227000D01*
X85189700Y-103391400D02*
X87148500Y-101432600D01*
X85189700Y-112159400D02*
X85189700Y-103391400D01*
X90631200Y-117600900D02*
X85189700Y-112159400D01*
X90631200Y-120796500D02*
X90631200Y-117600900D01*
X93736000Y-123901300D02*
X90631200Y-120796500D01*
X93736000Y-128166600D02*
X93736000Y-123901300D01*
X94973200Y-129403800D02*
X93736000Y-128166600D01*
X107733400Y-129403800D02*
X94973200Y-129403800D01*
X109070600Y-128066600D02*
X107733400Y-129403800D01*
X109070600Y-127241400D02*
X109070600Y-128066600D01*
X109909700Y-126402300D02*
X109070600Y-127241400D01*
X110802800Y-126402300D02*
X109909700Y-126402300D01*
X111610700Y-125594400D02*
X110802800Y-126402300D01*
X111610700Y-125227000D02*
X111610700Y-125594400D01*
X89175200Y-99405900D02*
X87148500Y-101432600D01*
X89175200Y-79041200D02*
X89175200Y-99405900D01*
X78994000Y-68860000D02*
X89175200Y-79041200D01*
X78994000Y-62230000D02*
X78994000Y-68860000D01*
%TO.N,/D6*%
X86715000Y-103972600D02*
X88240300Y-103972600D01*
X89625500Y-102587400D02*
X88240300Y-103972600D01*
X89625500Y-78854600D02*
X89625500Y-102587400D01*
X80264100Y-69493200D02*
X89625500Y-78854600D01*
X80264100Y-60960000D02*
X80264100Y-69493200D01*
X80264000Y-60960000D02*
X80264100Y-60960000D01*
X78994000Y-59690000D02*
X80264000Y-60960000D01*
%TO.N,/D5*%
X86715000Y-106512600D02*
X88240300Y-106512600D01*
X90075900Y-104677000D02*
X88240300Y-106512600D01*
X90075900Y-78668100D02*
X90075900Y-104677000D01*
X81534000Y-70126200D02*
X90075900Y-78668100D01*
X81534000Y-62230000D02*
X81534000Y-70126200D01*
%TO.N,/D4*%
X86715000Y-109052600D02*
X88240300Y-109052600D01*
X90548400Y-106744500D02*
X88240300Y-109052600D01*
X90548400Y-78503700D02*
X90548400Y-106744500D01*
X82582400Y-70537700D02*
X90548400Y-78503700D01*
X82582400Y-60738300D02*
X82582400Y-70537700D01*
X82582300Y-60738300D02*
X82582400Y-60738300D01*
X81534000Y-59690000D02*
X82582300Y-60738300D01*
%TO.N,/D3*%
X86715000Y-111592600D02*
X88240300Y-111592600D01*
X91000500Y-108832400D02*
X88240300Y-111592600D01*
X91000500Y-78318900D02*
X91000500Y-108832400D01*
X84074000Y-71392400D02*
X91000500Y-78318900D01*
X84074000Y-62230000D02*
X84074000Y-71392400D01*
%TO.N,/D2*%
X83033300Y-58649300D02*
X84074000Y-59690000D01*
X78566600Y-58649300D02*
X83033300Y-58649300D01*
X77934600Y-59281300D02*
X78566600Y-58649300D01*
X77934600Y-77714100D02*
X77934600Y-59281300D01*
X82175100Y-81954600D02*
X77934600Y-77714100D01*
X82175100Y-110598400D02*
X82175100Y-81954600D01*
%TO.N,/D1*%
X86614000Y-72021600D02*
X86614000Y-62230000D01*
X92453900Y-77861500D02*
X86614000Y-72021600D01*
X92453900Y-116027000D02*
X92453900Y-77861500D01*
X93982100Y-117555200D02*
X92453900Y-116027000D01*
%TO.N,/A21*%
X100086000Y-125227000D02*
X100086000Y-124051700D01*
X104617900Y-119519800D02*
X104617900Y-108131400D01*
X100086000Y-124051700D02*
X104617900Y-119519800D01*
X90190500Y-59215700D02*
X84902100Y-53927300D01*
X90190500Y-71504100D02*
X90190500Y-59215700D01*
X90640800Y-71954400D02*
X90190500Y-71504100D01*
X90640800Y-73041600D02*
X90640800Y-71954400D01*
X96676800Y-79077600D02*
X90640800Y-73041600D01*
X96676800Y-83805100D02*
X96676800Y-79077600D01*
X104617900Y-91746200D02*
X96676800Y-83805100D01*
X104617900Y-108131400D02*
X104617900Y-91746200D01*
%TO.N,/A18*%
X73914000Y-74330400D02*
X73914000Y-59690000D01*
X81645500Y-82061900D02*
X73914000Y-74330400D01*
X81645500Y-104397700D02*
X81645500Y-82061900D01*
X81420300Y-104622900D02*
X81645500Y-104397700D01*
X81420300Y-111352600D02*
X81420300Y-104622900D01*
X81470300Y-111402600D02*
X81420300Y-111352600D01*
X95987200Y-37485200D02*
X96973700Y-38471700D01*
X76615700Y-37485200D02*
X95987200Y-37485200D01*
%TO.N,/A17*%
X95006000Y-124023600D02*
X95006000Y-125227000D01*
X91553300Y-120570900D02*
X95006000Y-124023600D01*
X91553300Y-78234700D02*
X91553300Y-120570900D01*
X85110600Y-71792000D02*
X91553300Y-78234700D01*
X85110600Y-59247200D02*
X85110600Y-71792000D01*
X83013400Y-57150000D02*
X85110600Y-59247200D01*
X76454000Y-57150000D02*
X83013400Y-57150000D01*
%TO.N,/A16*%
X98736300Y-40871200D02*
X99221900Y-41356800D01*
X91241500Y-40871200D02*
X98736300Y-40871200D01*
X90424000Y-41688700D02*
X91241500Y-40871200D01*
X90424000Y-42131400D02*
X90424000Y-41688700D01*
X89375400Y-43180000D02*
X90424000Y-42131400D01*
X88854900Y-43180000D02*
X89375400Y-43180000D01*
X88101000Y-43933900D02*
X88854900Y-43180000D01*
X88101000Y-49480400D02*
X88101000Y-43933900D01*
X82040900Y-55540500D02*
X88101000Y-49480400D01*
X81701400Y-55880000D02*
X82040900Y-55540500D01*
X75184000Y-55880000D02*
X81701400Y-55880000D01*
X73914000Y-57150000D02*
X75184000Y-55880000D01*
X95006000Y-127767000D02*
X95006000Y-126591700D01*
X95373400Y-126591700D02*
X95006000Y-126591700D01*
X96181300Y-125783800D02*
X95373400Y-126591700D01*
X96181300Y-121732900D02*
X96181300Y-125783800D01*
X92003600Y-117555200D02*
X96181300Y-121732900D01*
X92003600Y-78048100D02*
X92003600Y-117555200D01*
X85577500Y-71622000D02*
X92003600Y-78048100D01*
X85577500Y-59077100D02*
X85577500Y-71622000D01*
X82040900Y-55540500D02*
X85577500Y-59077100D01*
%TO.N,/A15*%
X72861800Y-55662200D02*
X73914000Y-54610000D01*
X72861800Y-74551900D02*
X72861800Y-55662200D01*
X81195200Y-82885300D02*
X72861800Y-74551900D01*
X81195200Y-104211100D02*
X81195200Y-82885300D01*
X80744900Y-104661400D02*
X81195200Y-104211100D01*
X80744900Y-114280500D02*
X80744900Y-104661400D01*
X84103500Y-117639100D02*
X80744900Y-114280500D01*
%TO.N,/A14*%
X71475000Y-78572600D02*
X71797000Y-78572600D01*
X71797000Y-78572600D02*
X73000300Y-78572600D01*
X71797000Y-55228700D02*
X73914000Y-53111700D01*
X71797000Y-78572600D02*
X71797000Y-55228700D01*
X73914000Y-53111700D02*
X73914000Y-52070000D01*
X102375400Y-42847600D02*
X102375400Y-42877100D01*
X99498300Y-39970500D02*
X102375400Y-42847600D01*
X89626100Y-39970500D02*
X99498300Y-39970500D01*
X87650600Y-41946000D02*
X89626100Y-39970500D01*
X87650600Y-44918200D02*
X87650600Y-41946000D01*
X79457100Y-53111700D02*
X87650600Y-44918200D01*
X73914000Y-53111700D02*
X79457100Y-53111700D01*
X80744900Y-86317200D02*
X73000300Y-78572600D01*
X80744900Y-103799500D02*
X80744900Y-86317200D01*
X80280500Y-104263900D02*
X80744900Y-103799500D01*
X80280500Y-115998900D02*
X80280500Y-104263900D01*
X80730900Y-116449300D02*
X80280500Y-115998900D01*
%TO.N,/A13*%
X89925900Y-124051700D02*
X89926000Y-124051700D01*
X89925900Y-117757800D02*
X89925900Y-124051700D01*
X84739400Y-112571300D02*
X89925900Y-117757800D01*
X84739400Y-98824400D02*
X84739400Y-112571300D01*
X85941200Y-97622600D02*
X84739400Y-98824400D01*
X87458300Y-97622600D02*
X85941200Y-97622600D01*
X88700400Y-96380500D02*
X87458300Y-97622600D01*
X88700400Y-84112700D02*
X88700400Y-96380500D01*
X88240300Y-83652600D02*
X88700400Y-84112700D01*
X89926000Y-125227000D02*
X89926000Y-124051700D01*
X87148500Y-83652600D02*
X88240300Y-83652600D01*
X87148500Y-83652600D02*
X86715000Y-83652600D01*
X85189700Y-78049400D02*
X81311500Y-74171200D01*
X85189700Y-83652600D02*
X85189700Y-78049400D01*
X86715000Y-83652600D02*
X85189700Y-83652600D01*
%TO.N,/A12*%
X75184000Y-48260000D02*
X76454000Y-46990000D01*
X73708200Y-48260000D02*
X75184000Y-48260000D01*
X69489300Y-52478900D02*
X73708200Y-48260000D01*
X69489300Y-80652200D02*
X69489300Y-52478900D01*
X69949700Y-81112600D02*
X69489300Y-80652200D01*
X71474600Y-81112600D02*
X69949700Y-81112600D01*
X71474600Y-81112600D02*
X71475000Y-81112600D01*
X88750700Y-128132300D02*
X88750700Y-127767000D01*
X87924700Y-128958300D02*
X88750700Y-128132300D01*
X84311200Y-128958300D02*
X87924700Y-128958300D01*
X83576000Y-128223100D02*
X84311200Y-128958300D01*
X83576000Y-121260700D02*
X83576000Y-128223100D01*
X79215800Y-116900500D02*
X83576000Y-121260700D01*
X79215800Y-90832700D02*
X79215800Y-116900500D01*
X79326500Y-90722000D02*
X79215800Y-90832700D01*
X79326500Y-88629000D02*
X79326500Y-90722000D01*
X71810100Y-81112600D02*
X79326500Y-88629000D01*
X71475000Y-81112600D02*
X71810100Y-81112600D01*
X89926000Y-127767000D02*
X88750700Y-127767000D01*
%TO.N,/A11*%
X87386000Y-125227000D02*
X87386000Y-124051700D01*
X87385900Y-124051700D02*
X87386000Y-124051700D01*
X87385900Y-117454200D02*
X87385900Y-124051700D01*
X83838800Y-113907100D02*
X87385900Y-117454200D01*
X83838800Y-94148800D02*
X83838800Y-113907100D01*
X86715000Y-91272600D02*
X83838800Y-94148800D01*
X78587800Y-88541600D02*
X78587800Y-90434800D01*
X72573400Y-82527200D02*
X78587800Y-88541600D01*
X70659500Y-82527200D02*
X72573400Y-82527200D01*
X69025800Y-80893500D02*
X70659500Y-82527200D01*
X69025800Y-51878200D02*
X69025800Y-80893500D01*
X73914000Y-46990000D02*
X69025800Y-51878200D01*
%TO.N,/A10*%
X86715000Y-96352600D02*
X85189700Y-96352600D01*
X87386000Y-127767000D02*
X87386000Y-126591700D01*
X87753400Y-126591700D02*
X87386000Y-126591700D01*
X88561300Y-125783800D02*
X87753400Y-126591700D01*
X88561300Y-117030100D02*
X88561300Y-125783800D01*
X84289100Y-112757900D02*
X88561300Y-117030100D01*
X84289100Y-97253200D02*
X84289100Y-112757900D01*
X85189700Y-96352600D02*
X84289100Y-97253200D01*
X77493900Y-45489900D02*
X76454000Y-44450000D01*
X77493900Y-49959500D02*
X77493900Y-45489900D01*
X76653400Y-50800000D02*
X77493900Y-49959500D01*
X73700400Y-50800000D02*
X76653400Y-50800000D01*
X69949600Y-54550800D02*
X73700400Y-50800000D01*
X69949600Y-79571400D02*
X69949600Y-54550800D01*
X70076200Y-79698000D02*
X69949600Y-79571400D01*
X72057100Y-79698000D02*
X70076200Y-79698000D01*
X79989500Y-87630400D02*
X72057100Y-79698000D01*
X79989500Y-94151200D02*
X79989500Y-87630400D01*
%TO.N,/A9*%
X86715000Y-88732600D02*
X85189700Y-88732600D01*
X84846000Y-125227000D02*
X84846000Y-124051700D01*
X84846000Y-116959600D02*
X84846000Y-124051700D01*
X82938200Y-115051800D02*
X84846000Y-116959600D01*
X82938200Y-90984100D02*
X82938200Y-115051800D01*
X85189700Y-88732600D02*
X82938200Y-90984100D01*
X105356500Y-54096100D02*
X98040900Y-46780500D01*
X108752500Y-54096100D02*
X105356500Y-54096100D01*
%TO.N,/A8*%
X84846000Y-127767000D02*
X84846000Y-126591700D01*
X86715000Y-86192600D02*
X88240300Y-86192600D01*
X85213400Y-126591700D02*
X84846000Y-126591700D01*
X86021300Y-125783800D02*
X85213400Y-126591700D01*
X86021300Y-116726500D02*
X86021300Y-125783800D01*
X83388500Y-114093700D02*
X86021300Y-116726500D01*
X83388500Y-92590300D02*
X83388500Y-114093700D01*
X85976200Y-90002600D02*
X83388500Y-92590300D01*
X87477900Y-90002600D02*
X85976200Y-90002600D01*
X88240300Y-89240200D02*
X87477900Y-90002600D01*
X88240300Y-86192600D02*
X88240300Y-89240200D01*
%TO.N,/A7*%
X77949200Y-43405200D02*
X78994000Y-44450000D01*
X75978400Y-43405200D02*
X77949200Y-43405200D01*
X75417400Y-43966200D02*
X75978400Y-43405200D01*
X75417400Y-45049400D02*
X75417400Y-43966200D01*
X74530000Y-45936800D02*
X75417400Y-45049400D01*
X73473400Y-45936800D02*
X74530000Y-45936800D01*
X68522700Y-50887500D02*
X73473400Y-45936800D01*
X68522700Y-82225600D02*
X68522700Y-50887500D01*
X69949700Y-83652600D02*
X68522700Y-82225600D01*
X71041500Y-83652600D02*
X69949700Y-83652600D01*
X71041500Y-83652600D02*
X71475000Y-83652600D01*
X71475000Y-83652600D02*
X73000300Y-83652600D01*
X77844200Y-88496500D02*
X77844200Y-88885400D01*
X73000300Y-83652600D02*
X77844200Y-88496500D01*
X82306000Y-122432700D02*
X82306000Y-125227000D01*
X78654700Y-118781400D02*
X82306000Y-122432700D01*
X78654700Y-92259800D02*
X78654700Y-118781400D01*
X77844200Y-91449300D02*
X78654700Y-92259800D01*
X77844200Y-88885400D02*
X77844200Y-91449300D01*
%TO.N,/A6*%
X82306000Y-127767000D02*
X82306000Y-126591700D01*
X71475000Y-86192600D02*
X69949700Y-86192600D01*
X71475000Y-86192600D02*
X73000300Y-86192600D01*
X77949100Y-42954900D02*
X78994000Y-41910000D01*
X75764800Y-42954900D02*
X77949100Y-42954900D01*
X74950500Y-43769200D02*
X75764800Y-42954900D01*
X74950500Y-44879400D02*
X74950500Y-43769200D01*
X74343400Y-45486500D02*
X74950500Y-44879400D01*
X73286800Y-45486500D02*
X74343400Y-45486500D01*
X68072300Y-50701000D02*
X73286800Y-45486500D01*
X68072300Y-84315200D02*
X68072300Y-50701000D01*
X69949700Y-86192600D02*
X68072300Y-84315200D01*
X81938700Y-126591700D02*
X82306000Y-126591700D01*
X80996100Y-125649100D02*
X81938700Y-126591700D01*
X80996100Y-122741800D02*
X80996100Y-125649100D01*
X78204300Y-119950000D02*
X80996100Y-122741800D01*
X78204300Y-96946700D02*
X78204300Y-119950000D01*
X77337800Y-96080200D02*
X78204300Y-96946700D01*
X77337800Y-90530100D02*
X77337800Y-96080200D01*
X73000300Y-86192600D02*
X77337800Y-90530100D01*
%TO.N,/A5*%
X79766000Y-125227000D02*
X79766000Y-124051700D01*
X71475000Y-88732600D02*
X71823200Y-88732600D01*
X71823200Y-88732600D02*
X73000300Y-88732600D01*
X80264000Y-43180000D02*
X81534000Y-44450000D01*
X80264000Y-41690700D02*
X80264000Y-43180000D01*
X79433300Y-40860000D02*
X80264000Y-41690700D01*
X76029300Y-40860000D02*
X79433300Y-40860000D01*
X67609100Y-49280200D02*
X76029300Y-40860000D01*
X67609100Y-84518500D02*
X67609100Y-49280200D01*
X71823200Y-88732600D02*
X67609100Y-84518500D01*
X77754000Y-122039700D02*
X79766000Y-124051700D01*
X77754000Y-97188500D02*
X77754000Y-122039700D01*
X73000300Y-92434800D02*
X77754000Y-97188500D01*
X73000300Y-88732600D02*
X73000300Y-92434800D01*
%TO.N,/A4*%
X79766000Y-127767000D02*
X79766000Y-126591700D01*
X67157800Y-88480700D02*
X69949700Y-91272600D01*
X67157800Y-49084500D02*
X67157800Y-88480700D01*
X75834700Y-40407600D02*
X67157800Y-49084500D01*
X80031600Y-40407600D02*
X75834700Y-40407600D01*
X81534000Y-41910000D02*
X80031600Y-40407600D01*
X71475000Y-91272600D02*
X69949700Y-91272600D01*
X79398600Y-126591700D02*
X79766000Y-126591700D01*
X78590700Y-125783800D02*
X79398600Y-126591700D01*
X78590700Y-123996000D02*
X78590700Y-125783800D01*
X77094900Y-122500200D02*
X78590700Y-123996000D01*
X77094900Y-97166400D02*
X77094900Y-122500200D01*
X71475000Y-91546500D02*
X77094900Y-97166400D01*
X71475000Y-91272600D02*
X71475000Y-91546500D01*
%TO.N,/A3*%
X77226000Y-125227000D02*
X77226000Y-124051700D01*
X71475000Y-93812600D02*
X69949700Y-93812600D01*
X82587200Y-42963200D02*
X84074000Y-44450000D01*
X82587200Y-41459600D02*
X82587200Y-42963200D01*
X81084800Y-39957200D02*
X82587200Y-41459600D01*
X75648200Y-39957200D02*
X81084800Y-39957200D01*
X66707400Y-48898000D02*
X75648200Y-39957200D01*
X66707400Y-90570300D02*
X66707400Y-48898000D01*
X69949700Y-93812600D02*
X66707400Y-90570300D01*
X71475000Y-93812600D02*
X73000300Y-93812600D01*
X76644600Y-123470300D02*
X77226000Y-124051700D01*
X76644500Y-123470300D02*
X76644600Y-123470300D01*
X76644500Y-97456800D02*
X76644500Y-123470300D01*
X73000300Y-93812600D02*
X76644500Y-97456800D01*
%TO.N,/A2*%
X77226000Y-127767000D02*
X77226000Y-126591700D01*
X76858500Y-126591700D02*
X77226000Y-126591700D01*
X75996200Y-125729400D02*
X76858500Y-126591700D01*
X75996200Y-100786700D02*
X75996200Y-125729400D01*
X71562100Y-96352600D02*
X75996200Y-100786700D01*
X71475000Y-96352600D02*
X71518600Y-96352600D01*
X71518600Y-96352600D02*
X71562100Y-96352600D01*
X83037500Y-41231100D02*
X83037500Y-41910000D01*
X81309400Y-39503000D02*
X83037500Y-41231100D01*
X75465500Y-39503000D02*
X81309400Y-39503000D01*
X66203500Y-48765000D02*
X75465500Y-39503000D01*
X66203500Y-91037500D02*
X66203500Y-48765000D01*
X71518600Y-96352600D02*
X66203500Y-91037500D01*
X84074000Y-41910000D02*
X83037500Y-41910000D01*
%TO.N,/A1*%
X71475000Y-98892600D02*
X71823200Y-98892600D01*
X74686000Y-101755400D02*
X74686000Y-125227000D01*
X71823200Y-98892600D02*
X74686000Y-101755400D01*
X65753200Y-92822600D02*
X71823200Y-98892600D01*
X65753200Y-48578400D02*
X65753200Y-92822600D01*
X75278900Y-39052700D02*
X65753200Y-48578400D01*
X83115400Y-39052700D02*
X75278900Y-39052700D01*
X85184700Y-41122000D02*
X83115400Y-39052700D01*
X85184700Y-43020700D02*
X85184700Y-41122000D01*
X86614000Y-44450000D02*
X85184700Y-43020700D01*
%TO.N,/A0*%
X123947000Y-43688000D02*
X122821700Y-43688000D01*
X74318600Y-126591700D02*
X74686000Y-126591700D01*
X73510700Y-125783800D02*
X74318600Y-126591700D01*
X73510700Y-101943000D02*
X73510700Y-125783800D01*
X73000300Y-101432600D02*
X73510700Y-101943000D01*
X71475000Y-101432600D02*
X73000300Y-101432600D01*
X74686000Y-127767000D02*
X74686000Y-126591700D01*
X71475000Y-101432600D02*
X69949700Y-101432600D01*
X65302900Y-96785800D02*
X69949700Y-101432600D01*
X65302900Y-48391800D02*
X65302900Y-96785800D01*
X75092300Y-38602400D02*
X65302900Y-48391800D01*
X83306400Y-38602400D02*
X75092300Y-38602400D01*
X86614000Y-41910000D02*
X83306400Y-38602400D01*
X115412100Y-43688000D02*
X110162300Y-48937800D01*
X122821700Y-43688000D02*
X115412100Y-43688000D01*
X89058200Y-39465800D02*
X86614000Y-41910000D01*
X100690300Y-39465800D02*
X89058200Y-39465800D01*
X110162300Y-48937800D02*
X100690300Y-39465800D01*
%TO.N,GND*%
X154940000Y-100180000D02*
X154940000Y-106680000D01*
X157112700Y-115664700D02*
X157480000Y-115664700D01*
X154940000Y-113492000D02*
X157112700Y-115664700D01*
X154940000Y-106680000D02*
X154940000Y-113492000D01*
X157480000Y-116840000D02*
X157480000Y-115664700D01*
X71475000Y-123380700D02*
X72146000Y-124051700D01*
X71475000Y-111592600D02*
X71475000Y-123380700D01*
X72146000Y-125227000D02*
X72146000Y-124051700D01*
X138905600Y-67673300D02*
X139187000Y-67673300D01*
X138061700Y-68517200D02*
X138905600Y-67673300D01*
X138061700Y-69554500D02*
X138061700Y-68517200D01*
X138771200Y-70264000D02*
X138061700Y-69554500D01*
X144495700Y-70264000D02*
X138771200Y-70264000D01*
X145153700Y-69606000D02*
X144495700Y-70264000D01*
X146329000Y-69606000D02*
X145153700Y-69606000D01*
X139187000Y-66548000D02*
X139187000Y-67673300D01*
X100052800Y-63101300D02*
X100930200Y-63978700D01*
X100052800Y-61492900D02*
X100052800Y-63101300D01*
X94439900Y-55880000D02*
X100052800Y-61492900D01*
X92964000Y-55880000D02*
X94439900Y-55880000D01*
X91694000Y-54610000D02*
X92964000Y-55880000D01*
X100930200Y-77816200D02*
X100930200Y-63978700D01*
X102616000Y-79502000D02*
X100930200Y-77816200D01*
%TO.N,VCC*%
X86715000Y-78572600D02*
X86715000Y-81112600D01*
X146329000Y-67066000D02*
X146329000Y-68241300D01*
X141159000Y-68241300D02*
X146329000Y-68241300D01*
X140312300Y-69088000D02*
X141159000Y-68241300D01*
X139187000Y-69088000D02*
X140312300Y-69088000D01*
X155966000Y-127767000D02*
X155966000Y-125227000D01*
X155966000Y-125227000D02*
X155966000Y-124051700D01*
X146696400Y-68241300D02*
X146329000Y-68241300D01*
X157480000Y-79024900D02*
X146696400Y-68241300D01*
X157480000Y-111760000D02*
X157480000Y-79024900D01*
X158694100Y-121323600D02*
X155966000Y-124051700D01*
X158694100Y-113782100D02*
X158694100Y-121323600D01*
X157847300Y-112935300D02*
X158694100Y-113782100D01*
X157480000Y-112935300D02*
X157847300Y-112935300D01*
X157480000Y-111760000D02*
X157480000Y-112935300D01*
%TD*%
M02*
