M48
; DRILL file {KiCad (6.0.2)} date Tue Jun 21 22:07:00 2022
; FORMAT={-:-/ absolute / inch / decimal}
; #@! TF.CreationDate,2022-06-21T22:07:00-07:00
; #@! TF.GenerationSoftware,Kicad,Pcbnew,(6.0.2)
; #@! TF.FileFunction,Plated,1,2,PTH
FMAT,2
INCH
; #@! TA.AperFunction,Plated,PTH,ViaDrill
T1C0.0157
; #@! TA.AperFunction,Plated,PTH,ComponentDrill
T2C0.0315
; #@! TA.AperFunction,Plated,PTH,ComponentDrill
T3C0.0394
; #@! TA.AperFunction,Plated,PTH,ComponentDrill
T4C0.0433
%
G90
G05
T1
X2.6428Y-3.5798
X2.874Y-4.2
X3.0528Y-2.9815
X3.0801Y-3.0712
X3.1647Y-4.647
X3.2047Y-3.6299
X3.2969Y-3.4487
X3.5043Y-3.2345
X3.5249Y-3.8149
X3.5452Y-2.7828
X3.5824Y-2.7493
X3.6184Y-4.7621
X3.6965Y-2.7124
X3.7798Y-4.7808
X3.8212Y-3.313
X3.9052Y-4.5038
X3.9225Y-3.568
X3.9695Y-3.9975
X3.9742Y-4.0958
X3.9855Y-2.8148
X4.0634Y-3.502
X4.0795Y-2.6478
X4.1124Y-3.0715
X4.1509Y-2.8365
X4.1661Y-3.1115
X4.1941Y-2.3193
X4.2475Y-2.7025
X4.2608Y-3.7513
X4.271Y-4.4815
X4.313Y-2.5117
X4.3193Y-4.4327
X4.3285Y-4.2217
X4.3457Y-2.4881
X4.3477Y-4.2797
X4.3615Y-3.492
X4.3928Y-3.8408
X4.4095Y-4.0477
X4.4151Y-3.6045
X4.4479Y-2.5321
X4.462Y-4.6345
X4.4689Y-4.3831
X4.4816Y-4.4545
X4.4947Y-4.3355
X4.5156Y-4.1977
X4.5207Y-2.5368
X4.5312Y-3.7838
X4.54Y-2.9283
X4.5468Y-4.0719
X4.6639Y-3.5877
X4.6669Y-2.5709
X4.6956Y-4.604
X4.7195Y-4.7889
X4.7208Y-4.699
X4.7284Y-1.9944
X4.7561Y-2.633
X4.789Y-3.1861
X4.8176Y-3.2598
X4.8335Y-4.6675
X4.8505Y-3.5761
X4.9147Y-2.2717
X4.9617Y-4.6212
X4.9803Y-4.4537
X5.019Y-3.2922
X5.0545Y-4.3134
X5.1195Y-3.8053
X5.129Y-4.434
X5.2423Y-3.338
X5.3857Y-1.7782
X5.3857Y-2.1643
X5.5075Y-2.1326
X5.56Y-3.955
X5.571Y-3.643
X6.092Y-3.96
X6.095Y-3.64
X6.208Y-3.541
T2
X2.814Y-3.15
X2.814Y-3.25
X2.814Y-3.35
X2.814Y-3.45
X2.814Y-3.55
X2.814Y-3.65
X2.814Y-3.75
X2.814Y-3.85
X2.814Y-3.95
X2.814Y-4.05
X2.814Y-4.15
X2.814Y-4.25
X2.814Y-4.35
X2.814Y-4.45
X3.071Y-1.849
X3.071Y-1.949
X3.071Y-2.049
X3.071Y-2.149
X3.071Y-2.249
X3.071Y-2.349
X3.071Y-2.449
X3.171Y-1.749
X3.171Y-1.849
X3.171Y-1.949
X3.171Y-2.049
X3.171Y-2.149
X3.171Y-2.249
X3.171Y-2.349
X3.171Y-2.449
X3.171Y-2.549
X3.271Y-1.749
X3.271Y-1.849
X3.271Y-2.449
X3.271Y-2.549
X3.371Y-1.749
X3.371Y-1.849
X3.371Y-2.449
X3.371Y-2.549
X3.414Y-3.15
X3.414Y-3.25
X3.414Y-3.35
X3.414Y-3.45
X3.414Y-3.55
X3.414Y-3.65
X3.414Y-3.75
X3.414Y-3.85
X3.414Y-3.95
X3.414Y-4.05
X3.414Y-4.15
X3.414Y-4.25
X3.414Y-4.35
X3.414Y-4.45
X3.471Y-1.749
X3.471Y-1.849
X3.471Y-2.449
X3.471Y-2.549
X3.571Y-1.749
X3.571Y-1.849
X3.571Y-2.449
X3.571Y-2.549
X3.671Y-1.749
X3.671Y-1.849
X3.671Y-2.449
X3.671Y-2.549
X3.7634Y-2.9839
X3.7634Y-3.2839
X3.771Y-1.749
X3.771Y-1.849
X3.771Y-1.949
X3.771Y-2.049
X3.771Y-2.149
X3.771Y-2.249
X3.771Y-2.349
X3.771Y-2.449
X3.771Y-2.549
X3.806Y-3.659
X3.806Y-3.759
X3.806Y-3.859
X3.806Y-3.959
X3.806Y-4.059
X3.806Y-4.159
X3.806Y-4.259
X3.806Y-4.359
X3.806Y-4.459
X3.806Y-4.559
X3.871Y-1.849
X3.871Y-1.949
X3.871Y-2.049
X3.871Y-2.149
X3.871Y-2.249
X3.871Y-2.349
X3.871Y-2.449
X4.0634Y-2.9839
X4.0634Y-3.2839
X4.106Y-3.659
X4.106Y-3.759
X4.106Y-3.859
X4.106Y-3.959
X4.106Y-4.059
X4.106Y-4.159
X4.106Y-4.259
X4.106Y-4.359
X4.106Y-4.459
X4.106Y-4.559
X4.478Y-1.86
X4.478Y-1.96
X4.478Y-2.06
X4.478Y-2.16
X4.478Y-2.26
X4.478Y-2.36
X4.578Y-1.76
X4.578Y-1.86
X4.578Y-1.96
X4.578Y-2.06
X4.578Y-2.16
X4.578Y-2.26
X4.578Y-2.36
X4.578Y-2.46
X4.678Y-1.76
X4.678Y-1.86
X4.678Y-2.36
X4.678Y-2.46
X4.778Y-1.76
X4.778Y-1.86
X4.778Y-2.36
X4.778Y-2.46
X4.878Y-1.76
X4.878Y-1.86
X4.878Y-2.36
X4.878Y-2.46
X4.978Y-1.76
X4.978Y-1.86
X4.978Y-2.36
X4.978Y-2.46
X5.078Y-1.76
X5.078Y-1.86
X5.078Y-1.96
X5.078Y-2.06
X5.078Y-2.16
X5.078Y-2.26
X5.078Y-2.36
X5.078Y-2.46
X5.178Y-1.86
X5.178Y-1.96
X5.178Y-2.06
X5.178Y-2.16
X5.178Y-2.26
X5.178Y-2.36
X5.484Y-1.7669
X5.484Y-1.959
T3
X2.6732Y-1.815
X2.6732Y-1.915
X2.6732Y-2.015
X2.798Y-4.986
X2.798Y-5.086
X2.898Y-4.986
X2.898Y-5.086
X2.998Y-4.986
X2.998Y-5.086
X3.098Y-4.986
X3.098Y-5.086
X3.198Y-4.986
X3.198Y-5.086
X3.298Y-4.986
X3.298Y-5.086
X3.398Y-4.986
X3.398Y-5.086
X3.498Y-4.986
X3.498Y-5.086
X3.598Y-4.986
X3.598Y-5.086
X3.698Y-4.986
X3.698Y-5.086
X3.798Y-4.986
X3.798Y-5.086
X3.898Y-4.986
X3.898Y-5.086
X3.998Y-4.986
X3.998Y-5.086
X4.098Y-4.986
X4.098Y-5.086
X4.198Y-4.986
X4.198Y-5.086
X4.298Y-4.986
X4.298Y-5.086
X4.398Y-4.986
X4.398Y-5.086
X4.498Y-4.986
X4.498Y-5.086
X4.598Y-4.986
X4.598Y-5.086
X4.698Y-4.986
X4.698Y-5.086
X4.798Y-4.986
X4.798Y-5.086
X4.898Y-4.986
X4.898Y-5.086
X4.998Y-4.986
X4.998Y-5.086
X5.098Y-4.986
X5.098Y-5.086
X5.198Y-4.986
X5.198Y-5.086
X5.298Y-4.986
X5.298Y-5.086
X5.398Y-4.986
X5.398Y-5.086
X5.498Y-4.986
X5.498Y-5.086
X5.598Y-4.986
X5.598Y-5.086
X5.698Y-4.986
X5.698Y-5.086
X5.798Y-4.986
X5.798Y-5.086
X5.898Y-4.986
X5.898Y-5.086
X5.929Y-1.886
X5.929Y-1.986
X5.929Y-2.086
X5.929Y-2.186
X5.929Y-2.286
X5.929Y-2.386
X6.257Y-1.886
X6.257Y-1.986
X6.257Y-2.086
X6.257Y-2.186
X6.257Y-2.286
X6.257Y-2.386
T4
X5.405Y-4.3194
X5.405Y-4.4966
X5.661Y-4.3194
X5.661Y-4.4966
X6.2834Y-3.695
X6.2834Y-3.795
X6.2834Y-3.895
T3
G00X5.8528Y-4.4541
M15
G01X5.8528Y-4.3753
M16
G05
G00X6.0103Y-4.2297
M15
G01X5.9315Y-4.2297
M16
G05
G00X6.089Y-4.4541
M15
G01X6.089Y-4.3753
M16
G05
T0
M30
