%TF.GenerationSoftware,KiCad,Pcbnew,(6.0.2)*%
%TF.CreationDate,2022-09-05T19:25:54-07:00*%
%TF.ProjectId,Steve 68k,53746576-6520-4363-986b-2e6b69636164,rev?*%
%TF.SameCoordinates,Original*%
%TF.FileFunction,Copper,L1,Top*%
%TF.FilePolarity,Positive*%
%FSLAX46Y46*%
G04 Gerber Fmt 4.6, Leading zero omitted, Abs format (unit mm)*
G04 Created by KiCad (PCBNEW (6.0.2)) date 2022-09-05 19:25:54*
%MOMM*%
%LPD*%
G01*
G04 APERTURE LIST*
G04 Aperture macros list*
%AMRoundRect*
0 Rectangle with rounded corners*
0 $1 Rounding radius*
0 $2 $3 $4 $5 $6 $7 $8 $9 X,Y pos of 4 corners*
0 Add a 4 corners polygon primitive as box body*
4,1,4,$2,$3,$4,$5,$6,$7,$8,$9,$2,$3,0*
0 Add four circle primitives for the rounded corners*
1,1,$1+$1,$2,$3*
1,1,$1+$1,$4,$5*
1,1,$1+$1,$6,$7*
1,1,$1+$1,$8,$9*
0 Add four rect primitives between the rounded corners*
20,1,$1+$1,$2,$3,$4,$5,0*
20,1,$1+$1,$4,$5,$6,$7,0*
20,1,$1+$1,$6,$7,$8,$9,0*
20,1,$1+$1,$8,$9,$2,$3,0*%
G04 Aperture macros list end*
%TA.AperFunction,SMDPad,CuDef*%
%ADD10RoundRect,0.225000X-0.225000X-0.250000X0.225000X-0.250000X0.225000X0.250000X-0.225000X0.250000X0*%
%TD*%
%TA.AperFunction,ComponentPad*%
%ADD11R,1.600000X1.600000*%
%TD*%
%TA.AperFunction,ComponentPad*%
%ADD12C,1.600000*%
%TD*%
%TA.AperFunction,SMDPad,CuDef*%
%ADD13RoundRect,0.150000X-0.825000X-0.150000X0.825000X-0.150000X0.825000X0.150000X-0.825000X0.150000X0*%
%TD*%
%TA.AperFunction,ComponentPad*%
%ADD14O,1.600000X1.600000*%
%TD*%
%TA.AperFunction,SMDPad,CuDef*%
%ADD15RoundRect,0.150000X-0.875000X-0.150000X0.875000X-0.150000X0.875000X0.150000X-0.875000X0.150000X0*%
%TD*%
%TA.AperFunction,ComponentPad*%
%ADD16C,2.000000*%
%TD*%
%TA.AperFunction,SMDPad,CuDef*%
%ADD17RoundRect,0.200000X0.200000X0.275000X-0.200000X0.275000X-0.200000X-0.275000X0.200000X-0.275000X0*%
%TD*%
%TA.AperFunction,SMDPad,CuDef*%
%ADD18RoundRect,0.200000X-0.200000X-0.275000X0.200000X-0.275000X0.200000X0.275000X-0.200000X0.275000X0*%
%TD*%
%TA.AperFunction,ComponentPad*%
%ADD19R,1.700000X1.700000*%
%TD*%
%TA.AperFunction,ComponentPad*%
%ADD20O,1.700000X1.700000*%
%TD*%
%TA.AperFunction,ComponentPad*%
%ADD21R,1.422400X1.422400*%
%TD*%
%TA.AperFunction,ComponentPad*%
%ADD22C,1.422400*%
%TD*%
%TA.AperFunction,SMDPad,CuDef*%
%ADD23RoundRect,0.250000X-0.375000X-0.625000X0.375000X-0.625000X0.375000X0.625000X-0.375000X0.625000X0*%
%TD*%
%TA.AperFunction,SMDPad,CuDef*%
%ADD24RoundRect,0.250000X0.375000X0.625000X-0.375000X0.625000X-0.375000X-0.625000X0.375000X-0.625000X0*%
%TD*%
%TA.AperFunction,SMDPad,CuDef*%
%ADD25RoundRect,0.250000X-0.550000X1.050000X-0.550000X-1.050000X0.550000X-1.050000X0.550000X1.050000X0*%
%TD*%
%TA.AperFunction,SMDPad,CuDef*%
%ADD26RoundRect,0.225000X0.250000X-0.225000X0.250000X0.225000X-0.250000X0.225000X-0.250000X-0.225000X0*%
%TD*%
%TA.AperFunction,SMDPad,CuDef*%
%ADD27RoundRect,0.225000X0.225000X0.250000X-0.225000X0.250000X-0.225000X-0.250000X0.225000X-0.250000X0*%
%TD*%
%TA.AperFunction,SMDPad,CuDef*%
%ADD28RoundRect,0.225000X-0.250000X0.225000X-0.250000X-0.225000X0.250000X-0.225000X0.250000X0.225000X0*%
%TD*%
%TA.AperFunction,ComponentPad*%
%ADD29R,2.400000X1.600000*%
%TD*%
%TA.AperFunction,ComponentPad*%
%ADD30O,2.400000X1.600000*%
%TD*%
%TA.AperFunction,ViaPad*%
%ADD31C,0.800000*%
%TD*%
%TA.AperFunction,Conductor*%
%ADD32C,0.250000*%
%TD*%
G04 APERTURE END LIST*
D10*
%TO.P,C12,1*%
%TO.N,VCC*%
X130797000Y-39370000D03*
%TO.P,C12,2*%
%TO.N,GND*%
X132347000Y-39370000D03*
%TD*%
D11*
%TO.P,X1,1,EN*%
%TO.N,unconnected-(X1-Pad1)*%
X94996000Y-79502000D03*
D12*
%TO.P,X1,4,GND*%
%TO.N,GND*%
X102616000Y-79502000D03*
%TO.P,X1,5,OUT*%
%TO.N,/CLK*%
X102616000Y-71882000D03*
%TO.P,X1,8,Vcc*%
%TO.N,VCC*%
X94996000Y-71882000D03*
%TD*%
D13*
%TO.P,U8,1,~{MR}*%
%TO.N,Net-(C1-Pad1)*%
X140019000Y-105577000D03*
%TO.P,U8,2,Vcc*%
%TO.N,VCC*%
X140019000Y-106847000D03*
%TO.P,U8,3,GND*%
%TO.N,GND*%
X140019000Y-108117000D03*
%TO.P,U8,4,PFI*%
X140019000Y-109387000D03*
%TO.P,U8,5,~{PFO}*%
%TO.N,unconnected-(U8-Pad5)*%
X144969000Y-109387000D03*
%TO.P,U8,6,WDI*%
%TO.N,unconnected-(U8-Pad6)*%
X144969000Y-108117000D03*
%TO.P,U8,7,~{RESET}*%
%TO.N,/~{RESET}*%
X144969000Y-106847000D03*
%TO.P,U8,8,~{WDO}*%
%TO.N,unconnected-(U8-Pad8)*%
X144969000Y-105577000D03*
%TD*%
D14*
%TO.P,U7,40,PA0*%
%TO.N,/D0*%
X139187000Y-43688000D03*
%TO.P,U7,39,PA1*%
%TO.N,/D1*%
X139187000Y-46228000D03*
%TO.P,U7,38,PA2*%
%TO.N,/D2*%
X139187000Y-48768000D03*
%TO.P,U7,37,PA3*%
%TO.N,/D3*%
X139187000Y-51308000D03*
%TO.P,U7,36,PA4*%
%TO.N,/D4*%
X139187000Y-53848000D03*
%TO.P,U7,35,PA5*%
%TO.N,/D5*%
X139187000Y-56388000D03*
%TO.P,U7,34,PA6*%
%TO.N,/D6*%
X139187000Y-58928000D03*
%TO.P,U7,33,PA7*%
%TO.N,/D7*%
X139187000Y-61468000D03*
%TO.P,U7,32,AREF*%
%TO.N,unconnected-(U7-Pad32)*%
X139187000Y-64008000D03*
%TO.P,U7,31,GND*%
%TO.N,GND*%
X139187000Y-66548000D03*
%TO.P,U7,30,AVCC*%
%TO.N,VCC*%
X139187000Y-69088000D03*
%TO.P,U7,29,PC7*%
%TO.N,/~{AVRSEL}*%
X139187000Y-71628000D03*
%TO.P,U7,28,PC6*%
%TO.N,/~{DTACK_AVR}*%
X139187000Y-74168000D03*
%TO.P,U7,27,PC5*%
%TO.N,/A8*%
X139187000Y-76708000D03*
%TO.P,U7,26,PC4*%
%TO.N,/A7*%
X139187000Y-79248000D03*
%TO.P,U7,25,PC3*%
%TO.N,/A6*%
X139187000Y-81788000D03*
%TO.P,U7,24,PC2*%
%TO.N,/A5*%
X139187000Y-84328000D03*
%TO.P,U7,23,PC1*%
%TO.N,/SDA*%
X139187000Y-86868000D03*
%TO.P,U7,22,PC0*%
%TO.N,/SCL*%
X139187000Y-89408000D03*
%TO.P,U7,21,PD7*%
%TO.N,/IPL2*%
X139187000Y-91948000D03*
%TO.P,U7,20,PD6*%
%TO.N,/IPL1*%
X123947000Y-91948000D03*
%TO.P,U7,19,PD5*%
%TO.N,/IPL0*%
X123947000Y-89408000D03*
%TO.P,U7,18,PD4*%
%TO.N,Net-(D2-Pad2)*%
X123947000Y-86868000D03*
%TO.P,U7,17,PD3*%
%TO.N,/A9*%
X123947000Y-84328000D03*
%TO.P,U7,16,PD2*%
%TO.N,/R~{W}*%
X123947000Y-81788000D03*
%TO.P,U7,15,PD1*%
%TO.N,/TXD0*%
X123947000Y-79248000D03*
%TO.P,U7,14,PD0*%
%TO.N,/RXD0*%
X123947000Y-76708000D03*
%TO.P,U7,13,XTAL1*%
%TO.N,/CLK*%
X123947000Y-74168000D03*
%TO.P,U7,12,XTAL2*%
%TO.N,unconnected-(U7-Pad12)*%
X123947000Y-71628000D03*
%TO.P,U7,11,GND*%
%TO.N,GND*%
X123947000Y-69088000D03*
%TO.P,U7,10,VCC*%
%TO.N,VCC*%
X123947000Y-66548000D03*
%TO.P,U7,9,~{RESET}*%
%TO.N,/~{RESET}*%
X123947000Y-64008000D03*
%TO.P,U7,8,PB7*%
%TO.N,/SCK*%
X123947000Y-61468000D03*
%TO.P,U7,7,PB6*%
%TO.N,/MISO*%
X123947000Y-58928000D03*
%TO.P,U7,6,PB5*%
%TO.N,/MOSI*%
X123947000Y-56388000D03*
%TO.P,U7,5,PB4*%
%TO.N,/A4*%
X123947000Y-53848000D03*
%TO.P,U7,4,PB3*%
%TO.N,/A3*%
X123947000Y-51308000D03*
%TO.P,U7,3,PB2*%
%TO.N,/A2*%
X123947000Y-48768000D03*
%TO.P,U7,2,PB1*%
%TO.N,/A1*%
X123947000Y-46228000D03*
D11*
%TO.P,U7,1,PB0*%
%TO.N,/A0*%
X123947000Y-43688000D03*
%TD*%
D15*
%TO.P,U5,1,A18*%
%TO.N,/A18*%
X106734000Y-43307000D03*
%TO.P,U5,2,A16*%
%TO.N,/A16*%
X106734000Y-44577000D03*
%TO.P,U5,3,A14*%
%TO.N,/A14*%
X106734000Y-45847000D03*
%TO.P,U5,4,A12*%
%TO.N,/A12*%
X106734000Y-47117000D03*
%TO.P,U5,5,A7*%
%TO.N,/A7*%
X106734000Y-48387000D03*
%TO.P,U5,6,A6*%
%TO.N,/A6*%
X106734000Y-49657000D03*
%TO.P,U5,7,A5*%
%TO.N,/A5*%
X106734000Y-50927000D03*
%TO.P,U5,8,A4*%
%TO.N,/A4*%
X106734000Y-52197000D03*
%TO.P,U5,9,A3*%
%TO.N,/A3*%
X106734000Y-53467000D03*
%TO.P,U5,10,A2*%
%TO.N,/A2*%
X106734000Y-54737000D03*
%TO.P,U5,11,A1*%
%TO.N,/A1*%
X106734000Y-56007000D03*
%TO.P,U5,12,A0*%
%TO.N,/A0*%
X106734000Y-57277000D03*
%TO.P,U5,13,DQ0*%
%TO.N,/D0*%
X106734000Y-58547000D03*
%TO.P,U5,14,DQ1*%
%TO.N,/D1*%
X106734000Y-59817000D03*
%TO.P,U5,15,DQ2*%
%TO.N,/D2*%
X106734000Y-61087000D03*
%TO.P,U5,16,VSS*%
%TO.N,GND*%
X106734000Y-62357000D03*
%TO.P,U5,17,DQ3*%
%TO.N,/D3*%
X119834000Y-62357000D03*
%TO.P,U5,18,DQ4*%
%TO.N,/D4*%
X119834000Y-61087000D03*
%TO.P,U5,19,DQ5*%
%TO.N,/D5*%
X119834000Y-59817000D03*
%TO.P,U5,20,DQ6*%
%TO.N,/D6*%
X119834000Y-58547000D03*
%TO.P,U5,21,DQ7*%
%TO.N,/D7*%
X119834000Y-57277000D03*
%TO.P,U5,22,CE#*%
%TO.N,/~{RAMSEL}*%
X119834000Y-56007000D03*
%TO.P,U5,23,A10*%
%TO.N,/A10*%
X119834000Y-54737000D03*
%TO.P,U5,24,OE#*%
%TO.N,/~{OE}*%
X119834000Y-53467000D03*
%TO.P,U5,25,A11*%
%TO.N,/A11*%
X119834000Y-52197000D03*
%TO.P,U5,26,A9*%
%TO.N,/A9*%
X119834000Y-50927000D03*
%TO.P,U5,27,A8*%
%TO.N,/A8*%
X119834000Y-49657000D03*
%TO.P,U5,28,A13*%
%TO.N,/A13*%
X119834000Y-48387000D03*
%TO.P,U5,29,WE#*%
%TO.N,/~{RAM_WE}*%
X119834000Y-47117000D03*
%TO.P,U5,30,A17*%
%TO.N,/A17*%
X119834000Y-45847000D03*
%TO.P,U5,31,A15*%
%TO.N,/A15*%
X119834000Y-44577000D03*
%TO.P,U5,32,VCC*%
%TO.N,VCC*%
X119834000Y-43307000D03*
%TD*%
D13*
%TO.P,U4,1,S*%
%TO.N,/~{AVRSEL}*%
X128843000Y-105537000D03*
%TO.P,U4,2,I0a*%
%TO.N,/~{DTACK_AVR}*%
X128843000Y-106807000D03*
%TO.P,U4,3,I1a*%
%TO.N,/~{AS}*%
X128843000Y-108077000D03*
%TO.P,U4,4,Za*%
%TO.N,/~{DTACK_CPU}*%
X128843000Y-109347000D03*
%TO.P,U4,5,I0b*%
%TO.N,GND*%
X128843000Y-110617000D03*
%TO.P,U4,6,I1b*%
X128843000Y-111887000D03*
%TO.P,U4,7,Zb*%
%TO.N,unconnected-(U4-Pad7)*%
X128843000Y-113157000D03*
%TO.P,U4,8,GND*%
%TO.N,GND*%
X128843000Y-114427000D03*
%TO.P,U4,9,Zd*%
%TO.N,unconnected-(U4-Pad9)*%
X133793000Y-114427000D03*
%TO.P,U4,10,I1d*%
%TO.N,GND*%
X133793000Y-113157000D03*
%TO.P,U4,11,I0d*%
X133793000Y-111887000D03*
%TO.P,U4,12,Zc*%
%TO.N,unconnected-(U4-Pad12)*%
X133793000Y-110617000D03*
%TO.P,U4,13,I1c*%
%TO.N,GND*%
X133793000Y-109347000D03*
%TO.P,U4,14,I0c*%
X133793000Y-108077000D03*
%TO.P,U4,15,OE*%
X133793000Y-106807000D03*
%TO.P,U4,16,VCC*%
%TO.N,VCC*%
X133793000Y-105537000D03*
%TD*%
%TO.P,U3,1,A0*%
%TO.N,/A19*%
X113857000Y-105537000D03*
%TO.P,U3,2,A1*%
%TO.N,/A20*%
X113857000Y-106807000D03*
%TO.P,U3,3,A2*%
%TO.N,/A21*%
X113857000Y-108077000D03*
%TO.P,U3,4,E1*%
%TO.N,GND*%
X113857000Y-109347000D03*
%TO.P,U3,5,E2*%
X113857000Y-110617000D03*
%TO.P,U3,6,E3*%
%TO.N,VCC*%
X113857000Y-111887000D03*
%TO.P,U3,7,O7*%
%TO.N,unconnected-(U3-Pad7)*%
X113857000Y-113157000D03*
%TO.P,U3,8,GND*%
%TO.N,GND*%
X113857000Y-114427000D03*
%TO.P,U3,9,O6*%
%TO.N,unconnected-(U3-Pad9)*%
X118807000Y-114427000D03*
%TO.P,U3,10,O5*%
%TO.N,unconnected-(U3-Pad10)*%
X118807000Y-113157000D03*
%TO.P,U3,11,O4*%
%TO.N,unconnected-(U3-Pad11)*%
X118807000Y-111887000D03*
%TO.P,U3,12,O3*%
%TO.N,unconnected-(U3-Pad12)*%
X118807000Y-110617000D03*
%TO.P,U3,13,O2*%
%TO.N,/~{AVRSEL}*%
X118807000Y-109347000D03*
%TO.P,U3,14,O1*%
%TO.N,/~{RAMSEL}*%
X118807000Y-108077000D03*
%TO.P,U3,15,O0*%
%TO.N,/~{ROMSEL}*%
X118807000Y-106807000D03*
%TO.P,U3,16,VCC*%
%TO.N,VCC*%
X118807000Y-105537000D03*
%TD*%
%TO.P,U2,1*%
%TO.N,/R~{W}*%
X103443000Y-105552000D03*
%TO.P,U2,2*%
%TO.N,/~{DS}*%
X103443000Y-106822000D03*
%TO.P,U2,3*%
%TO.N,/~{RAM_WE}*%
X103443000Y-108092000D03*
%TO.P,U2,4*%
%TO.N,Net-(U1-Pad2)*%
X103443000Y-109362000D03*
%TO.P,U2,5*%
%TO.N,/~{DS}*%
X103443000Y-110632000D03*
%TO.P,U2,6*%
%TO.N,/~{OE}*%
X103443000Y-111902000D03*
%TO.P,U2,7,GND*%
%TO.N,GND*%
X103443000Y-113172000D03*
%TO.P,U2,8*%
%TO.N,unconnected-(U2-Pad8)*%
X108393000Y-113172000D03*
%TO.P,U2,9*%
%TO.N,GND*%
X108393000Y-111902000D03*
%TO.P,U2,10*%
X108393000Y-110632000D03*
%TO.P,U2,11*%
%TO.N,unconnected-(U2-Pad11)*%
X108393000Y-109362000D03*
%TO.P,U2,12*%
%TO.N,GND*%
X108393000Y-108092000D03*
%TO.P,U2,13*%
X108393000Y-106822000D03*
%TO.P,U2,14,VCC*%
%TO.N,VCC*%
X108393000Y-105552000D03*
%TD*%
%TO.P,U1,1*%
%TO.N,/R~{W}*%
X92775000Y-105552000D03*
%TO.P,U1,2*%
%TO.N,Net-(U1-Pad2)*%
X92775000Y-106822000D03*
%TO.P,U1,3*%
%TO.N,GND*%
X92775000Y-108092000D03*
%TO.P,U1,4*%
%TO.N,unconnected-(U1-Pad4)*%
X92775000Y-109362000D03*
%TO.P,U1,5*%
%TO.N,GND*%
X92775000Y-110632000D03*
%TO.P,U1,6*%
%TO.N,unconnected-(U1-Pad6)*%
X92775000Y-111902000D03*
%TO.P,U1,7,GND*%
%TO.N,GND*%
X92775000Y-113172000D03*
%TO.P,U1,8*%
%TO.N,unconnected-(U1-Pad8)*%
X97725000Y-113172000D03*
%TO.P,U1,9*%
%TO.N,GND*%
X97725000Y-111902000D03*
%TO.P,U1,10*%
%TO.N,unconnected-(U1-Pad10)*%
X97725000Y-110632000D03*
%TO.P,U1,11*%
%TO.N,GND*%
X97725000Y-109362000D03*
%TO.P,U1,12*%
%TO.N,unconnected-(U1-Pad12)*%
X97725000Y-108092000D03*
%TO.P,U1,13*%
%TO.N,GND*%
X97725000Y-106822000D03*
%TO.P,U1,14,VCC*%
%TO.N,VCC*%
X97725000Y-105552000D03*
%TD*%
D16*
%TO.P,SW1,1,1*%
%TO.N,GND*%
X154940000Y-100180000D03*
X154940000Y-106680000D03*
%TO.P,SW1,2,2*%
%TO.N,Net-(C1-Pad1)*%
X159440000Y-100180000D03*
X159440000Y-106680000D03*
%TD*%
D17*
%TO.P,R13,1*%
%TO.N,GND*%
X111823000Y-68834000D03*
%TO.P,R13,2*%
%TO.N,Net-(D2-Pad1)*%
X110173000Y-68834000D03*
%TD*%
%TO.P,R12,1*%
%TO.N,GND*%
X145605000Y-115316000D03*
%TO.P,R12,2*%
%TO.N,Net-(D1-Pad1)*%
X143955000Y-115316000D03*
%TD*%
D18*
%TO.P,R11,1*%
%TO.N,VCC*%
X124143000Y-109982000D03*
%TO.P,R11,2*%
%TO.N,/~{DTACK_CPU}*%
X125793000Y-109982000D03*
%TD*%
%TO.P,R10,1*%
%TO.N,VCC*%
X124143000Y-108204000D03*
%TO.P,R10,2*%
%TO.N,/~{AS}*%
X125793000Y-108204000D03*
%TD*%
%TO.P,R9,1*%
%TO.N,VCC*%
X124143000Y-106426000D03*
%TO.P,R9,2*%
%TO.N,/~{DTACK_AVR}*%
X125793000Y-106426000D03*
%TD*%
D17*
%TO.P,R8,1*%
%TO.N,VCC*%
X101155000Y-60198000D03*
%TO.P,R8,2*%
%TO.N,/~{BGACK}*%
X99505000Y-60198000D03*
%TD*%
%TO.P,R7,1*%
%TO.N,VCC*%
X101155000Y-58420000D03*
%TO.P,R7,2*%
%TO.N,/~{BR}*%
X99505000Y-58420000D03*
%TD*%
%TO.P,R6,1*%
%TO.N,VCC*%
X101155000Y-56642000D03*
%TO.P,R6,2*%
%TO.N,/~{HALT}*%
X99505000Y-56642000D03*
%TD*%
%TO.P,R5,1*%
%TO.N,VCC*%
X101155000Y-54864000D03*
%TO.P,R5,2*%
%TO.N,/~{VPA}*%
X99505000Y-54864000D03*
%TD*%
%TO.P,R4,1*%
%TO.N,VCC*%
X101155000Y-53086000D03*
%TO.P,R4,2*%
%TO.N,/~{BERR}*%
X99505000Y-53086000D03*
%TD*%
%TO.P,R3,1*%
%TO.N,VCC*%
X101155000Y-51308000D03*
%TO.P,R3,2*%
%TO.N,/~{IPL1}*%
X99505000Y-51308000D03*
%TD*%
%TO.P,R2,1*%
%TO.N,VCC*%
X101155000Y-49530000D03*
%TO.P,R2,2*%
%TO.N,/~{IPL2}*%
X99505000Y-49530000D03*
%TD*%
%TO.P,R1,1*%
%TO.N,VCC*%
X101155000Y-47752000D03*
%TO.P,R1,2*%
%TO.N,/~{IPL0}*%
X99505000Y-47752000D03*
%TD*%
D19*
%TO.P,J5,1,Pin_1*%
%TO.N,unconnected-(J5-Pad1)*%
X156972000Y-43942000D03*
D20*
%TO.P,J5,2,Pin_2*%
%TO.N,/TXD0*%
X154432000Y-43942000D03*
%TO.P,J5,3,Pin_3*%
%TO.N,/RXD0*%
X151892000Y-43942000D03*
%TO.P,J5,4,Pin_4*%
%TO.N,VCC*%
X149352000Y-43942000D03*
%TO.P,J5,5,Pin_5*%
%TO.N,unconnected-(J5-Pad5)*%
X146812000Y-43942000D03*
%TO.P,J5,6,Pin_6*%
%TO.N,GND*%
X144272000Y-43942000D03*
%TD*%
D19*
%TO.P,J4,1,Pin_1*%
%TO.N,/MISO*%
X115590000Y-75961000D03*
D20*
%TO.P,J4,2,Pin_2*%
%TO.N,/SCK*%
X113050000Y-75961000D03*
%TO.P,J4,3,Pin_3*%
%TO.N,/~{RESET}*%
X115590000Y-78501000D03*
%TO.P,J4,4,Pin_4*%
%TO.N,GND*%
X113050000Y-78501000D03*
%TO.P,J4,5,Pin_5*%
%TO.N,/MOSI*%
X115590000Y-81041000D03*
%TO.P,J4,6,Pin_6*%
%TO.N,VCC*%
X113050000Y-81041000D03*
%TD*%
D19*
%TO.P,J3,1,Pin_1*%
%TO.N,GND*%
X72146000Y-127767000D03*
D20*
%TO.P,J3,2,Pin_2*%
X72146000Y-125227000D03*
%TO.P,J3,3,Pin_3*%
%TO.N,/A0*%
X74686000Y-127767000D03*
%TO.P,J3,4,Pin_4*%
%TO.N,/A1*%
X74686000Y-125227000D03*
%TO.P,J3,5,Pin_5*%
%TO.N,/A2*%
X77226000Y-127767000D03*
%TO.P,J3,6,Pin_6*%
%TO.N,/A3*%
X77226000Y-125227000D03*
%TO.P,J3,7,Pin_7*%
%TO.N,/A4*%
X79766000Y-127767000D03*
%TO.P,J3,8,Pin_8*%
%TO.N,/A5*%
X79766000Y-125227000D03*
%TO.P,J3,9,Pin_9*%
%TO.N,/A6*%
X82306000Y-127767000D03*
%TO.P,J3,10,Pin_10*%
%TO.N,/A7*%
X82306000Y-125227000D03*
%TO.P,J3,11,Pin_11*%
%TO.N,/A8*%
X84846000Y-127767000D03*
%TO.P,J3,12,Pin_12*%
%TO.N,/A9*%
X84846000Y-125227000D03*
%TO.P,J3,13,Pin_13*%
%TO.N,/A10*%
X87386000Y-127767000D03*
%TO.P,J3,14,Pin_14*%
%TO.N,/A11*%
X87386000Y-125227000D03*
%TO.P,J3,15,Pin_15*%
%TO.N,/A12*%
X89926000Y-127767000D03*
%TO.P,J3,16,Pin_16*%
%TO.N,/A13*%
X89926000Y-125227000D03*
%TO.P,J3,17,Pin_17*%
%TO.N,/A14*%
X92466000Y-127767000D03*
%TO.P,J3,18,Pin_18*%
%TO.N,/A15*%
X92466000Y-125227000D03*
%TO.P,J3,19,Pin_19*%
%TO.N,/A16*%
X95006000Y-127767000D03*
%TO.P,J3,20,Pin_20*%
%TO.N,/A17*%
X95006000Y-125227000D03*
%TO.P,J3,21,Pin_21*%
%TO.N,/A18*%
X97546000Y-127767000D03*
%TO.P,J3,22,Pin_22*%
%TO.N,/A19*%
X97546000Y-125227000D03*
%TO.P,J3,23,Pin_23*%
%TO.N,/A20*%
X100086000Y-127767000D03*
%TO.P,J3,24,Pin_24*%
%TO.N,/A21*%
X100086000Y-125227000D03*
%TO.P,J3,25,Pin_25*%
%TO.N,unconnected-(J3-Pad25)*%
X102626000Y-127767000D03*
%TO.P,J3,26,Pin_26*%
%TO.N,unconnected-(J3-Pad26)*%
X102626000Y-125227000D03*
%TO.P,J3,27,Pin_27*%
%TO.N,/D0*%
X105166000Y-127767000D03*
%TO.P,J3,28,Pin_28*%
%TO.N,/D1*%
X105166000Y-125227000D03*
%TO.P,J3,29,Pin_29*%
%TO.N,/D2*%
X107706000Y-127767000D03*
%TO.P,J3,30,Pin_30*%
%TO.N,/D3*%
X107706000Y-125227000D03*
%TO.P,J3,31,Pin_31*%
%TO.N,/D4*%
X110246000Y-127767000D03*
%TO.P,J3,32,Pin_32*%
%TO.N,/D5*%
X110246000Y-125227000D03*
%TO.P,J3,33,Pin_33*%
%TO.N,/D6*%
X112786000Y-127767000D03*
%TO.P,J3,34,Pin_34*%
%TO.N,/D7*%
X112786000Y-125227000D03*
%TO.P,J3,35,Pin_35*%
%TO.N,unconnected-(J3-Pad35)*%
X115326000Y-127767000D03*
%TO.P,J3,36,Pin_36*%
%TO.N,unconnected-(J3-Pad36)*%
X115326000Y-125227000D03*
%TO.P,J3,37,Pin_37*%
%TO.N,unconnected-(J3-Pad37)*%
X117866000Y-127767000D03*
%TO.P,J3,38,Pin_38*%
%TO.N,unconnected-(J3-Pad38)*%
X117866000Y-125227000D03*
%TO.P,J3,39,Pin_39*%
%TO.N,unconnected-(J3-Pad39)*%
X120406000Y-127767000D03*
%TO.P,J3,40,Pin_40*%
%TO.N,unconnected-(J3-Pad40)*%
X120406000Y-125227000D03*
%TO.P,J3,41,Pin_41*%
%TO.N,unconnected-(J3-Pad41)*%
X122946000Y-127767000D03*
%TO.P,J3,42,Pin_42*%
%TO.N,/CLK*%
X122946000Y-125227000D03*
%TO.P,J3,43,Pin_43*%
%TO.N,/R~{W}*%
X125486000Y-127767000D03*
%TO.P,J3,44,Pin_44*%
%TO.N,/~{AS}*%
X125486000Y-125227000D03*
%TO.P,J3,45,Pin_45*%
%TO.N,unconnected-(J3-Pad45)*%
X128026000Y-127767000D03*
%TO.P,J3,46,Pin_46*%
%TO.N,/~{DS}*%
X128026000Y-125227000D03*
%TO.P,J3,47,Pin_47*%
%TO.N,/~{RESET}*%
X130566000Y-127767000D03*
%TO.P,J3,48,Pin_48*%
%TO.N,/~{HALT}*%
X130566000Y-125227000D03*
%TO.P,J3,49,Pin_49*%
%TO.N,/~{BERR}*%
X133106000Y-127767000D03*
%TO.P,J3,50,Pin_50*%
%TO.N,/~{DTACK_CPU}*%
X133106000Y-125227000D03*
%TO.P,J3,51,Pin_51*%
%TO.N,/E*%
X135646000Y-127767000D03*
%TO.P,J3,52,Pin_52*%
%TO.N,unconnected-(J3-Pad52)*%
X135646000Y-125227000D03*
%TO.P,J3,53,Pin_53*%
%TO.N,/~{BGACK}*%
X138186000Y-127767000D03*
%TO.P,J3,54,Pin_54*%
%TO.N,/~{VPA}*%
X138186000Y-125227000D03*
%TO.P,J3,55,Pin_55*%
%TO.N,/~{BR}*%
X140726000Y-127767000D03*
%TO.P,J3,56,Pin_56*%
%TO.N,/~{BG}*%
X140726000Y-125227000D03*
%TO.P,J3,57,Pin_57*%
%TO.N,/~{IPL0}*%
X143266000Y-127767000D03*
%TO.P,J3,58,Pin_58*%
%TO.N,/~{IPL1}*%
X143266000Y-125227000D03*
%TO.P,J3,59,Pin_59*%
%TO.N,/~{IPL2}*%
X145806000Y-127767000D03*
%TO.P,J3,60,Pin_60*%
%TO.N,/FC0*%
X145806000Y-125227000D03*
%TO.P,J3,61,Pin_61*%
%TO.N,/FC1*%
X148346000Y-127767000D03*
%TO.P,J3,62,Pin_62*%
%TO.N,/FC2*%
X148346000Y-125227000D03*
%TO.P,J3,63,Pin_63*%
%TO.N,/~{ROMSEL}*%
X150886000Y-127767000D03*
%TO.P,J3,64,Pin_64*%
%TO.N,/~{RAMSEL}*%
X150886000Y-125227000D03*
%TO.P,J3,65,Pin_65*%
%TO.N,/~{AVRSEL}*%
X153426000Y-127767000D03*
%TO.P,J3,66,Pin_66*%
%TO.N,unconnected-(J3-Pad66)*%
X153426000Y-125227000D03*
%TO.P,J3,67,Pin_67*%
%TO.N,VCC*%
X155966000Y-127767000D03*
%TO.P,J3,68,Pin_68*%
X155966000Y-125227000D03*
%TD*%
%TO.P,J2,4,Pin_4*%
%TO.N,/SCL*%
X146329000Y-74686000D03*
%TO.P,J2,3,Pin_3*%
%TO.N,/SDA*%
X146329000Y-72146000D03*
%TO.P,J2,2,Pin_2*%
%TO.N,GND*%
X146329000Y-69606000D03*
D19*
%TO.P,J2,1,Pin_1*%
%TO.N,VCC*%
X146329000Y-67066000D03*
%TD*%
D20*
%TO.P,J1,3,Pin_3*%
%TO.N,GND*%
X157480000Y-116840000D03*
%TO.P,J1,2,Pin_2*%
%TO.N,unconnected-(J1-Pad2)*%
X157480000Y-114300000D03*
D19*
%TO.P,J1,1,Pin_1*%
%TO.N,VCC*%
X157480000Y-111760000D03*
%TD*%
D21*
%TO.P,IC1,1,A2*%
%TO.N,/A2*%
X84074000Y-41910000D03*
D22*
%TO.P,IC1,2,A3*%
%TO.N,/A3*%
X84074000Y-44450000D03*
%TO.P,IC1,3,A4*%
%TO.N,/A4*%
X81534000Y-41910000D03*
%TO.P,IC1,4,A5*%
%TO.N,/A5*%
X81534000Y-44450000D03*
%TO.P,IC1,5,A6*%
%TO.N,/A6*%
X78994000Y-41910000D03*
%TO.P,IC1,6,A7*%
%TO.N,/A7*%
X78994000Y-44450000D03*
%TO.P,IC1,7,A8*%
%TO.N,/A8*%
X76454000Y-41910000D03*
%TO.P,IC1,8,A9*%
%TO.N,/A9*%
X73914000Y-44450000D03*
%TO.P,IC1,9,A10*%
%TO.N,/A10*%
X76454000Y-44450000D03*
%TO.P,IC1,10,A11*%
%TO.N,/A11*%
X73914000Y-46990000D03*
%TO.P,IC1,11,A12*%
%TO.N,/A12*%
X76454000Y-46990000D03*
%TO.P,IC1,12,A13*%
%TO.N,/A13*%
X73914000Y-49530000D03*
%TO.P,IC1,13,A21*%
%TO.N,/A21*%
X76454000Y-49530000D03*
%TO.P,IC1,14,A14*%
%TO.N,/A14*%
X73914000Y-52070000D03*
%TO.P,IC1,15,VCC*%
%TO.N,VCC*%
X76454000Y-52070000D03*
%TO.P,IC1,16,A15*%
%TO.N,/A15*%
X73914000Y-54610000D03*
%TO.P,IC1,17,GND_1*%
%TO.N,GND*%
X76454000Y-54610000D03*
%TO.P,IC1,18,A16*%
%TO.N,/A16*%
X73914000Y-57150000D03*
%TO.P,IC1,19,A17*%
%TO.N,/A17*%
X76454000Y-57150000D03*
%TO.P,IC1,20,A18*%
%TO.N,/A18*%
X73914000Y-59690000D03*
%TO.P,IC1,21,A19*%
%TO.N,/A19*%
X76454000Y-62230000D03*
%TO.P,IC1,22,A20*%
%TO.N,/A20*%
X76454000Y-59690000D03*
%TO.P,IC1,23,D7*%
%TO.N,/D7*%
X78994000Y-62230000D03*
%TO.P,IC1,24,D6*%
%TO.N,/D6*%
X78994000Y-59690000D03*
%TO.P,IC1,25,D5*%
%TO.N,/D5*%
X81534000Y-62230000D03*
%TO.P,IC1,26,D4*%
%TO.N,/D4*%
X81534000Y-59690000D03*
%TO.P,IC1,27,D3*%
%TO.N,/D3*%
X84074000Y-62230000D03*
%TO.P,IC1,28,D2*%
%TO.N,/D2*%
X84074000Y-59690000D03*
%TO.P,IC1,29,D1*%
%TO.N,/D1*%
X86614000Y-62230000D03*
%TO.P,IC1,30,D0*%
%TO.N,/D0*%
X86614000Y-59690000D03*
%TO.P,IC1,31,~{AS}*%
%TO.N,/~{AS}*%
X89154000Y-62230000D03*
%TO.P,IC1,32,~{DS}*%
%TO.N,/~{DS}*%
X89154000Y-59690000D03*
%TO.P,IC1,33,R/~{W}*%
%TO.N,/R~{W}*%
X91694000Y-62230000D03*
%TO.P,IC1,34,~{DTACK}*%
%TO.N,/~{DTACK_CPU}*%
X94234000Y-59690000D03*
%TO.P,IC1,35,~{BG}*%
%TO.N,/~{BG}*%
X91694000Y-59690000D03*
%TO.P,IC1,36,~{BGACK}*%
%TO.N,/~{BGACK}*%
X94234000Y-57150000D03*
%TO.P,IC1,37,~{BR}*%
%TO.N,/~{BR}*%
X91694000Y-57150000D03*
%TO.P,IC1,38,CLK*%
%TO.N,/CLK*%
X94234000Y-54610000D03*
%TO.P,IC1,39,GND_2*%
%TO.N,GND*%
X91694000Y-54610000D03*
%TO.P,IC1,40,~{HALT}*%
%TO.N,/~{HALT}*%
X94234000Y-52070000D03*
%TO.P,IC1,41,~{RESET}*%
%TO.N,/~{RESET}*%
X91694000Y-52070000D03*
%TO.P,IC1,42,E*%
%TO.N,/E*%
X94234000Y-49530000D03*
%TO.P,IC1,43,~{VPA}*%
%TO.N,/~{VPA}*%
X91694000Y-49530000D03*
%TO.P,IC1,44,~{BERR}*%
%TO.N,/~{BERR}*%
X94234000Y-46990000D03*
%TO.P,IC1,45,~{IPL1}*%
%TO.N,/~{IPL1}*%
X91694000Y-46990000D03*
%TO.P,IC1,46,~{IPL2}*%
%TO.N,/~{IPL2}*%
X94234000Y-44450000D03*
%TO.P,IC1,47,~{IPL0}*%
%TO.N,/~{IPL0}*%
X91694000Y-41910000D03*
%TO.P,IC1,48,FC2*%
%TO.N,/FC2*%
X91694000Y-44450000D03*
%TO.P,IC1,49,FC1*%
%TO.N,/FC1*%
X89154000Y-41910000D03*
%TO.P,IC1,50,FC0*%
%TO.N,/FC0*%
X89154000Y-44450000D03*
%TO.P,IC1,51,A0*%
%TO.N,/A0*%
X86614000Y-41910000D03*
%TO.P,IC1,52,A1*%
%TO.N,/A1*%
X86614000Y-44450000D03*
%TD*%
D23*
%TO.P,D2,2,A*%
%TO.N,Net-(D2-Pad2)*%
X117732000Y-68834000D03*
%TO.P,D2,1,K*%
%TO.N,Net-(D2-Pad1)*%
X114932000Y-68834000D03*
%TD*%
D24*
%TO.P,D1,1,K*%
%TO.N,Net-(D1-Pad1)*%
X141354000Y-115316000D03*
%TO.P,D1,2,A*%
%TO.N,VCC*%
X138554000Y-115316000D03*
%TD*%
D25*
%TO.P,C11,1*%
%TO.N,VCC*%
X151384000Y-110976000D03*
%TO.P,C11,2*%
%TO.N,GND*%
X151384000Y-114576000D03*
%TD*%
D10*
%TO.P,C10,1*%
%TO.N,VCC*%
X105143000Y-102362000D03*
%TO.P,C10,2*%
%TO.N,GND*%
X106693000Y-102362000D03*
%TD*%
%TO.P,C9,1*%
%TO.N,VCC*%
X94475000Y-102362000D03*
%TO.P,C9,2*%
%TO.N,GND*%
X96025000Y-102362000D03*
%TD*%
%TO.P,C8,1*%
%TO.N,VCC*%
X112509000Y-39370000D03*
%TO.P,C8,2*%
%TO.N,GND*%
X114059000Y-39370000D03*
%TD*%
D26*
%TO.P,C7,1*%
%TO.N,VCC*%
X65278000Y-87389000D03*
%TO.P,C7,2*%
%TO.N,GND*%
X65278000Y-85839000D03*
%TD*%
D10*
%TO.P,C6,1*%
%TO.N,VCC*%
X130543000Y-102362000D03*
%TO.P,C6,2*%
%TO.N,GND*%
X132093000Y-102362000D03*
%TD*%
%TO.P,C5,1*%
%TO.N,VCC*%
X141719000Y-102362000D03*
%TO.P,C5,2*%
%TO.N,GND*%
X143269000Y-102362000D03*
%TD*%
%TO.P,C4,1*%
%TO.N,VCC*%
X98018000Y-85090000D03*
%TO.P,C4,2*%
%TO.N,GND*%
X99568000Y-85090000D03*
%TD*%
D27*
%TO.P,C3,1*%
%TO.N,VCC*%
X117107000Y-102362000D03*
%TO.P,C3,2*%
%TO.N,GND*%
X115557000Y-102362000D03*
%TD*%
D28*
%TO.P,C2,1*%
%TO.N,VCC*%
X67818000Y-49263000D03*
%TO.P,C2,2*%
%TO.N,GND*%
X67818000Y-50813000D03*
%TD*%
D10*
%TO.P,C1,1*%
%TO.N,Net-(C1-Pad1)*%
X146037000Y-102362000D03*
%TO.P,C1,2*%
%TO.N,GND*%
X147587000Y-102362000D03*
%TD*%
D29*
%TO.P,U6,1,A14*%
%TO.N,/A14*%
X71475000Y-78572600D03*
D30*
%TO.P,U6,2,A12*%
%TO.N,/A12*%
X71475000Y-81112600D03*
%TO.P,U6,3,A7*%
%TO.N,/A7*%
X71475000Y-83652600D03*
%TO.P,U6,4,A6*%
%TO.N,/A6*%
X71475000Y-86192600D03*
%TO.P,U6,5,A5*%
%TO.N,/A5*%
X71475000Y-88732600D03*
%TO.P,U6,6,A4*%
%TO.N,/A4*%
X71475000Y-91272600D03*
%TO.P,U6,7,A3*%
%TO.N,/A3*%
X71475000Y-93812600D03*
%TO.P,U6,8,A2*%
%TO.N,/A2*%
X71475000Y-96352600D03*
%TO.P,U6,9,A1*%
%TO.N,/A1*%
X71475000Y-98892600D03*
%TO.P,U6,10,A0*%
%TO.N,/A0*%
X71475000Y-101432600D03*
%TO.P,U6,11,D0*%
%TO.N,/D0*%
X71475000Y-103972600D03*
%TO.P,U6,12,D1*%
%TO.N,/D1*%
X71475000Y-106512600D03*
%TO.P,U6,13,D2*%
%TO.N,/D2*%
X71475000Y-109052600D03*
%TO.P,U6,14,GND*%
%TO.N,GND*%
X71475000Y-111592600D03*
%TO.P,U6,15,D3*%
%TO.N,/D3*%
X86715000Y-111592600D03*
%TO.P,U6,16,D4*%
%TO.N,/D4*%
X86715000Y-109052600D03*
%TO.P,U6,17,D5*%
%TO.N,/D5*%
X86715000Y-106512600D03*
%TO.P,U6,18,D6*%
%TO.N,/D6*%
X86715000Y-103972600D03*
%TO.P,U6,19,D7*%
%TO.N,/D7*%
X86715000Y-101432600D03*
%TO.P,U6,20,~{CS}*%
%TO.N,/~{ROMSEL}*%
X86715000Y-98892600D03*
%TO.P,U6,21,A10*%
%TO.N,/A10*%
X86715000Y-96352600D03*
%TO.P,U6,22,~{OE}*%
%TO.N,/~{OE}*%
X86715000Y-93812600D03*
%TO.P,U6,23,A11*%
%TO.N,/A11*%
X86715000Y-91272600D03*
%TO.P,U6,24,A9*%
%TO.N,/A9*%
X86715000Y-88732600D03*
%TO.P,U6,25,A8*%
%TO.N,/A8*%
X86715000Y-86192600D03*
%TO.P,U6,26,A13*%
%TO.N,/A13*%
X86715000Y-83652600D03*
%TO.P,U6,27,~{WE}*%
%TO.N,VCC*%
X86715000Y-81112600D03*
%TO.P,U6,28,VCC*%
X86715000Y-78572600D03*
%TD*%
D31*
%TO.N,/~{OE}*%
X126492000Y-94234000D03*
X121920000Y-52578000D03*
%TO.N,/~{BGACK}*%
X103969100Y-58866500D03*
%TO.N,/SCK*%
X116689900Y-73975100D03*
%TO.N,/~{RAMSEL}*%
X114046000Y-60706000D03*
%TO.N,Net-(D2-Pad2)*%
X118923100Y-71192300D03*
%TO.N,/~{DTACK_CPU}*%
X133107400Y-116615400D03*
X122821400Y-109097500D03*
%TO.N,/~{RAM_WE}*%
X100838000Y-107950000D03*
X103892600Y-92046700D03*
X112037800Y-85919700D03*
X117821400Y-47183000D03*
%TO.N,/~{OE}*%
X94234000Y-93726000D03*
X100076000Y-110490000D03*
%TO.N,/~{BG}*%
X121109400Y-111348200D03*
%TO.N,/~{RESET}*%
X104245200Y-73439600D03*
X148082000Y-106934000D03*
%TO.N,/~{DS}*%
X100838000Y-106680000D03*
%TO.N,/~{AS}*%
X127000000Y-108712000D03*
X102718200Y-63078100D03*
%TO.N,/R~{W}*%
X102491700Y-85906200D03*
%TO.N,/D5*%
X121957500Y-60537477D03*
%TO.N,/D4*%
X116840000Y-60960000D03*
%TO.N,/D2*%
X82175100Y-110598400D03*
X116332000Y-57150000D03*
%TO.N,/D1*%
X93982100Y-117555200D03*
%TO.N,/D0*%
X114907900Y-55295300D03*
%TO.N,/A21*%
X84902100Y-53927300D03*
X110744000Y-108712000D03*
%TO.N,/A20*%
X92061200Y-73217000D03*
X110744000Y-106426000D03*
%TO.N,/A19*%
X88267300Y-72613100D03*
X98806000Y-103378000D03*
%TO.N,/A18*%
X81470300Y-111402600D03*
X76615700Y-37485200D03*
X96973700Y-38471700D03*
%TO.N,/A17*%
X109959900Y-59180200D03*
X116434400Y-45948500D03*
%TO.N,/A16*%
X99221900Y-41356800D03*
%TO.N,/A15*%
X84103500Y-117639100D03*
%TO.N,/A14*%
X80730900Y-116449300D03*
X102375400Y-42877100D03*
%TO.N,/A13*%
X81311500Y-74171200D03*
%TO.N,/A11*%
X78587800Y-90434800D03*
%TO.N,/A10*%
X79989500Y-94151200D03*
X121920000Y-94996000D03*
X112776000Y-57150000D03*
%TO.N,/A9*%
X110490000Y-52062811D03*
X98040900Y-46780500D03*
X110139000Y-84657800D03*
%TO.N,/A7*%
X77844200Y-88885400D03*
%TO.N,/A4*%
X114183400Y-50613800D03*
%TO.N,/A3*%
X93063700Y-43085700D03*
X109474000Y-52832000D03*
%TO.N,/A1*%
X116078000Y-52101020D03*
%TO.N,/A0*%
X111224151Y-55090151D03*
%TO.N,GND*%
X100930200Y-63978700D03*
%TD*%
D32*
%TO.N,/~{RESET}*%
X152115600Y-106934000D02*
X153187000Y-108005400D01*
X148082000Y-106934000D02*
X152115600Y-106934000D01*
X147995000Y-106847000D02*
X148082000Y-106934000D01*
X144969000Y-106847000D02*
X147995000Y-106847000D01*
%TO.N,VCC*%
X143222600Y-109286672D02*
X143222600Y-110647400D01*
X140782928Y-106847000D02*
X143222600Y-109286672D01*
X140019000Y-106847000D02*
X140782928Y-106847000D01*
%TO.N,/~{AS}*%
X127635000Y-108077000D02*
X128843000Y-108077000D01*
X127000000Y-108712000D02*
X127635000Y-108077000D01*
X127000000Y-108712000D02*
X126301000Y-108712000D01*
X126301000Y-108712000D02*
X125793000Y-108204000D01*
%TO.N,/A19*%
X112725500Y-104405500D02*
X113857000Y-105537000D01*
X99833500Y-104405500D02*
X112725500Y-104405500D01*
X98806000Y-103378000D02*
X99833500Y-104405500D01*
%TO.N,VCC*%
X96523700Y-101555300D02*
X96523700Y-101603700D01*
X95281700Y-101555300D02*
X96523700Y-101555300D01*
X94475000Y-102362000D02*
X95281700Y-101555300D01*
X96523700Y-101603700D02*
X97725000Y-102805000D01*
X97725000Y-102805000D02*
X97725000Y-105552000D01*
X105143000Y-102362000D02*
X97330400Y-102362000D01*
%TO.N,/A20*%
X111125000Y-106807000D02*
X113857000Y-106807000D01*
X110744000Y-106426000D02*
X111125000Y-106807000D01*
%TO.N,/A21*%
X111324600Y-108131400D02*
X113802600Y-108131400D01*
X110744000Y-108712000D02*
X111324600Y-108131400D01*
X113802600Y-108131400D02*
X113857000Y-108077000D01*
%TO.N,/~{DS}*%
X103301000Y-106680000D02*
X103443000Y-106822000D01*
X100838000Y-106680000D02*
X103301000Y-106680000D01*
%TO.N,/R~{W}*%
X96426900Y-107457000D02*
X94521900Y-105552000D01*
X94521900Y-105552000D02*
X92775000Y-105552000D01*
X99024520Y-107168552D02*
X98736072Y-107457000D01*
X99024520Y-106715480D02*
X99024520Y-107168552D01*
X100188000Y-105552000D02*
X99024520Y-106715480D01*
X98736072Y-107457000D02*
X96426900Y-107457000D01*
X103443000Y-105552000D02*
X100188000Y-105552000D01*
%TO.N,/~{RAM_WE}*%
X100980000Y-108092000D02*
X103443000Y-108092000D01*
X100838000Y-107950000D02*
X100980000Y-108092000D01*
%TO.N,/~{OE}*%
X100076000Y-110490000D02*
X101488000Y-111902000D01*
X101488000Y-111902000D02*
X103443000Y-111902000D01*
%TO.N,/D5*%
X84911200Y-65607200D02*
X81534000Y-62230000D01*
X121659700Y-62886600D02*
X118939100Y-65607200D01*
X121659700Y-60835277D02*
X121659700Y-62886600D01*
X121957500Y-60537477D02*
X121659700Y-60835277D01*
X121237023Y-59817000D02*
X119834000Y-59817000D01*
X121957500Y-60537477D02*
X121237023Y-59817000D01*
X118939100Y-65607200D02*
X84911200Y-65607200D01*
%TO.N,/D6*%
X138061700Y-58928000D02*
X139187000Y-58928000D01*
X136820600Y-60169100D02*
X138061700Y-58928000D01*
X122653100Y-60169100D02*
X136820600Y-60169100D01*
X119100400Y-66107800D02*
X122682000Y-62526200D01*
X122682000Y-60198000D02*
X122653100Y-60169100D01*
X83904900Y-66107800D02*
X119100400Y-66107800D01*
X80264000Y-62466900D02*
X83904900Y-66107800D01*
X122682000Y-62526200D02*
X122682000Y-60198000D01*
X80264000Y-60960000D02*
X80264000Y-62466900D01*
X78994000Y-59690000D02*
X80264000Y-60960000D01*
X121793000Y-58547000D02*
X119834000Y-58547000D01*
X122682000Y-60452000D02*
X122682000Y-59436000D01*
X122682000Y-59436000D02*
X121793000Y-58547000D01*
%TO.N,/D4*%
X119301400Y-61087000D02*
X119834000Y-61087000D01*
X119174400Y-60960000D02*
X119301400Y-61087000D01*
X116840000Y-60960000D02*
X119174400Y-60960000D01*
%TO.N,/D3*%
X135245200Y-55249800D02*
X139187000Y-51308000D01*
X122369300Y-55249800D02*
X135245200Y-55249800D01*
X120977100Y-56642000D02*
X122369300Y-55249800D01*
X118484480Y-56930448D02*
X118772928Y-56642000D01*
X117950611Y-58579389D02*
X118484480Y-58045520D01*
X117929097Y-58579389D02*
X117950611Y-58579389D01*
X116078000Y-60430486D02*
X117929097Y-58579389D01*
X116078000Y-62357000D02*
X116078000Y-60430486D01*
X118772928Y-56642000D02*
X120977100Y-56642000D01*
X117461700Y-62357000D02*
X116078000Y-62357000D01*
X118484480Y-58045520D02*
X118484480Y-56930448D01*
%TO.N,/D2*%
X113402386Y-61087000D02*
X106734000Y-61087000D01*
X113321489Y-61006103D02*
X113402386Y-61087000D01*
X113745897Y-59981489D02*
X113321489Y-60405897D01*
X115255561Y-59981489D02*
X113745897Y-59981489D01*
X113321489Y-60405897D02*
X113321489Y-61006103D01*
X116332000Y-58905050D02*
X115255561Y-59981489D01*
X116332000Y-57150000D02*
X116332000Y-58905050D01*
%TO.N,/~{RAMSEL}*%
X118772210Y-56007000D02*
X119834000Y-56007000D01*
X115166768Y-60706000D02*
X118034960Y-57837808D01*
X114046000Y-60706000D02*
X115166768Y-60706000D01*
X118034960Y-57837808D02*
X118034960Y-56744250D01*
X118034960Y-56744250D02*
X118772210Y-56007000D01*
%TO.N,/D1*%
X106847100Y-59930100D02*
X106734000Y-59817000D01*
X112283818Y-59930100D02*
X106847100Y-59930100D01*
X115357420Y-56856498D02*
X112283818Y-59930100D01*
X115357420Y-56092580D02*
X115357420Y-56856498D01*
X116032100Y-55417900D02*
X115357420Y-56092580D01*
X117123100Y-55417900D02*
X116032100Y-55417900D01*
X117548000Y-54993000D02*
X117123100Y-55417900D01*
X118148900Y-54993000D02*
X117548000Y-54993000D01*
X120927500Y-55381000D02*
X118536900Y-55381000D01*
X118536900Y-55381000D02*
X118148900Y-54993000D01*
X122278900Y-54029600D02*
X120927500Y-55381000D01*
X122278900Y-53848000D02*
X122278900Y-54029600D01*
X138061700Y-46228000D02*
X131711700Y-52578000D01*
X123548900Y-52578000D02*
X122278900Y-53848000D01*
X139187000Y-46228000D02*
X138061700Y-46228000D01*
X131711700Y-52578000D02*
X123548900Y-52578000D01*
%TO.N,/D0*%
X113123400Y-58454800D02*
X106826200Y-58454800D01*
X114907900Y-56670300D02*
X113123400Y-58454800D01*
X114907900Y-55295300D02*
X114907900Y-56670300D01*
X106826200Y-58454800D02*
X106734000Y-58547000D01*
%TO.N,/A10*%
X119639700Y-54542700D02*
X119834000Y-54737000D01*
X112776000Y-55753000D02*
X113986300Y-54542700D01*
X112776000Y-57150000D02*
X112776000Y-55753000D01*
X113986300Y-54542700D02*
X119639700Y-54542700D01*
%TO.N,/A11*%
X117103300Y-52197000D02*
X119834000Y-52197000D01*
X115289000Y-54011300D02*
X117103300Y-52197000D01*
X113327600Y-54011300D02*
X115289000Y-54011300D01*
X109426900Y-57912000D02*
X113327600Y-54011300D01*
X105662900Y-57912000D02*
X109426900Y-57912000D01*
X101881200Y-54130300D02*
X105662900Y-57912000D01*
X101881200Y-47242700D02*
X101881200Y-54130300D01*
X101575300Y-46936800D02*
X101881200Y-47242700D01*
X100684600Y-46936800D02*
X101575300Y-46936800D01*
X100330000Y-47291400D02*
X100684600Y-46936800D01*
X95652000Y-50517100D02*
X99049400Y-53914500D01*
X95652000Y-49471700D02*
X95652000Y-50517100D01*
X99049400Y-53914500D02*
X99906300Y-53914500D01*
X99906300Y-53914500D02*
X100330000Y-53490800D01*
X100330000Y-53490800D02*
X100330000Y-47291400D01*
X94673600Y-48493300D02*
X95652000Y-49471700D01*
X75417300Y-48493300D02*
X94673600Y-48493300D01*
X73914000Y-46990000D02*
X75417300Y-48493300D01*
%TO.N,/A1*%
X110649057Y-54640631D02*
X109407151Y-54640631D01*
X112003788Y-53285900D02*
X110649057Y-54640631D01*
X114893120Y-53285900D02*
X112003788Y-53285900D01*
X108040782Y-56007000D02*
X106734000Y-56007000D01*
X116078000Y-52101020D02*
X114893120Y-53285900D01*
X109407151Y-54640631D02*
X108040782Y-56007000D01*
%TO.N,/A3*%
X122821700Y-51308000D02*
X123947000Y-51308000D01*
X122567700Y-51054000D02*
X122821700Y-51308000D01*
X121403072Y-51054000D02*
X122567700Y-51054000D01*
X120905552Y-51551520D02*
X121403072Y-51054000D01*
X115755480Y-51376520D02*
X118587448Y-51376520D01*
X114296400Y-52835600D02*
X115755480Y-51376520D01*
X109479400Y-52832000D02*
X109483000Y-52835600D01*
X118587448Y-51376520D02*
X118762448Y-51551520D01*
X109474000Y-52832000D02*
X109479400Y-52832000D01*
X109483000Y-52835600D02*
X114296400Y-52835600D01*
X118762448Y-51551520D02*
X120905552Y-51551520D01*
%TO.N,/A9*%
X115530532Y-50927000D02*
X119834000Y-50927000D01*
X110615689Y-52188500D02*
X114269032Y-52188500D01*
X114269032Y-52188500D02*
X115530532Y-50927000D01*
X110490000Y-52062811D02*
X110615689Y-52188500D01*
%TO.N,/A3*%
X108839000Y-53467000D02*
X106734000Y-53467000D01*
X109474000Y-52832000D02*
X108839000Y-53467000D01*
%TO.N,/A0*%
X107406500Y-57277000D02*
X106734000Y-57277000D01*
X109593349Y-55090151D02*
X107406500Y-57277000D01*
X111224151Y-55090151D02*
X109593349Y-55090151D01*
%TO.N,/A2*%
X107831100Y-52832000D02*
X105604200Y-52832000D01*
X108261300Y-52401800D02*
X107831100Y-52832000D01*
X108261300Y-51888100D02*
X108261300Y-52401800D01*
X114483503Y-51338311D02*
X108811089Y-51338311D01*
X108811089Y-51338311D02*
X108261300Y-51888100D01*
X120905552Y-50302480D02*
X115519334Y-50302480D01*
X121096386Y-50493314D02*
X120905552Y-50302480D01*
X122821700Y-48768000D02*
X121096386Y-50493314D01*
X115519334Y-50302480D02*
X114483503Y-51338311D01*
X123947000Y-48768000D02*
X122821700Y-48768000D01*
%TO.N,/A4*%
X109321100Y-50038000D02*
X107162100Y-52197000D01*
X113607600Y-50038000D02*
X109321100Y-50038000D01*
X114183400Y-50613800D02*
X113607600Y-50038000D01*
X107162100Y-52197000D02*
X106734000Y-52197000D01*
%TO.N,/A5*%
X135847511Y-87667489D02*
X139187000Y-84328000D01*
X128985897Y-87667489D02*
X135847511Y-87667489D01*
X128515386Y-88138000D02*
X128985897Y-87667489D01*
X122745392Y-88138000D02*
X128515386Y-88138000D01*
X110689311Y-91731489D02*
X119151903Y-91731489D01*
X119151903Y-91731489D02*
X122745392Y-88138000D01*
X103224000Y-92403800D02*
X103592200Y-92772000D01*
X103592200Y-92772000D02*
X109648800Y-92772000D01*
X109648800Y-92772000D02*
X110689311Y-91731489D01*
X76671500Y-92403800D02*
X103224000Y-92403800D01*
X73000300Y-88732600D02*
X76671500Y-92403800D01*
X71475000Y-88732600D02*
X73000300Y-88732600D01*
%TO.N,/A10*%
X88240300Y-96352600D02*
X86715000Y-96352600D01*
X89012911Y-97140911D02*
X88240300Y-96368300D01*
X88240300Y-96368300D02*
X88240300Y-96352600D01*
X113248400Y-97028000D02*
X99599523Y-97028000D01*
X99599523Y-97028000D02*
X99486612Y-97140911D01*
X115280400Y-94996000D02*
X113248400Y-97028000D01*
X121920000Y-94996000D02*
X115280400Y-94996000D01*
X99486612Y-97140911D02*
X89012911Y-97140911D01*
%TO.N,/~{OE}*%
X126070600Y-93812600D02*
X86715000Y-93812600D01*
X126492000Y-94234000D02*
X126070600Y-93812600D01*
%TO.N,/~{DTACK_AVR}*%
X140311511Y-75292511D02*
X139187000Y-74168000D01*
X140311511Y-89873789D02*
X140311511Y-75292511D01*
X139652789Y-90532511D02*
X140311511Y-89873789D01*
X138829489Y-90532511D02*
X139652789Y-90532511D01*
X129764500Y-104078900D02*
X129764500Y-99597500D01*
X130176800Y-104491200D02*
X129764500Y-104078900D01*
X130176800Y-105910600D02*
X130176800Y-104491200D01*
X129764500Y-99597500D02*
X138829489Y-90532511D01*
X128843000Y-106807000D02*
X129280400Y-106807000D01*
X129280400Y-106807000D02*
X130176800Y-105910600D01*
%TO.N,/~{OE}*%
X121031000Y-53467000D02*
X121920000Y-52578000D01*
X119834000Y-53467000D02*
X121031000Y-53467000D01*
%TO.N,/~{BR}*%
X97583500Y-58420000D02*
X99505000Y-58420000D01*
X95270500Y-56107000D02*
X97583500Y-58420000D01*
X92737000Y-56107000D02*
X95270500Y-56107000D01*
X91694000Y-57150000D02*
X92737000Y-56107000D01*
%TO.N,/~{BGACK}*%
X97282000Y-60198000D02*
X99505000Y-60198000D01*
X94234000Y-57150000D02*
X97282000Y-60198000D01*
X100308900Y-61001900D02*
X99505000Y-60198000D01*
X101833700Y-61001900D02*
X100308900Y-61001900D01*
X103969100Y-58866500D02*
X101833700Y-61001900D01*
%TO.N,/~{BERR}*%
X96261600Y-49017600D02*
X94234000Y-46990000D01*
X96261600Y-49842600D02*
X96261600Y-49017600D01*
X99505000Y-53086000D02*
X96261600Y-49842600D01*
%TO.N,/~{VPA}*%
X98868200Y-54864000D02*
X99505000Y-54864000D01*
X95007400Y-51003200D02*
X98868200Y-54864000D01*
X93167200Y-51003200D02*
X95007400Y-51003200D01*
X91694000Y-49530000D02*
X93167200Y-51003200D01*
%TO.N,/~{IPL2}*%
X99314000Y-49530000D02*
X99505000Y-49530000D01*
X94234000Y-44450000D02*
X99314000Y-49530000D01*
%TO.N,Net-(U1-Pad2)*%
X102807900Y-108726900D02*
X103443000Y-109362000D01*
X96594700Y-108726900D02*
X102807900Y-108726900D01*
X94689800Y-106822000D02*
X96594700Y-108726900D01*
X92775000Y-106822000D02*
X94689800Y-106822000D01*
%TO.N,/~{DTACK_AVR}*%
X128462000Y-106426000D02*
X128843000Y-106807000D01*
X125793000Y-106426000D02*
X128462000Y-106426000D01*
%TO.N,/SCK*%
X115403200Y-73975100D02*
X116689900Y-73975100D01*
X114225300Y-75153000D02*
X115403200Y-73975100D01*
X114225300Y-75961000D02*
X114225300Y-75153000D01*
X113050000Y-75961000D02*
X114225300Y-75961000D01*
%TO.N,/~{ROMSEL}*%
X150886000Y-127767000D02*
X149710700Y-127767000D01*
X118383900Y-106807000D02*
X118807000Y-106807000D01*
X117035600Y-108155300D02*
X118383900Y-106807000D01*
X117035600Y-110519800D02*
X117035600Y-108155300D01*
X117767800Y-111252000D02*
X117035600Y-110519800D01*
X119906000Y-111252000D02*
X117767800Y-111252000D01*
X120563300Y-110594700D02*
X119906000Y-111252000D01*
X121382100Y-110594700D02*
X120563300Y-110594700D01*
X130501700Y-119714300D02*
X121382100Y-110594700D01*
X142026200Y-119714300D02*
X130501700Y-119714300D01*
X147076000Y-124764100D02*
X142026200Y-119714300D01*
X147076000Y-125658000D02*
X147076000Y-124764100D01*
X148009700Y-126591700D02*
X147076000Y-125658000D01*
X148902800Y-126591700D02*
X148009700Y-126591700D01*
X149710700Y-127399600D02*
X148902800Y-126591700D01*
X149710700Y-127767000D02*
X149710700Y-127399600D01*
X119204600Y-106807000D02*
X118807000Y-106807000D01*
X120153400Y-105858200D02*
X119204600Y-106807000D01*
X120153400Y-104141300D02*
X120153400Y-105858200D01*
X114904700Y-98892600D02*
X120153400Y-104141300D01*
X86715000Y-98892600D02*
X114904700Y-98892600D01*
%TO.N,/~{RAMSEL}*%
X150886000Y-125227000D02*
X149710700Y-125227000D01*
X118391000Y-108077000D02*
X118807000Y-108077000D01*
X117502600Y-108965400D02*
X118391000Y-108077000D01*
X117502600Y-109710000D02*
X117502600Y-108965400D01*
X117774600Y-109982000D02*
X117502600Y-109710000D01*
X121406400Y-109982000D02*
X117774600Y-109982000D01*
X129224200Y-117799800D02*
X121406400Y-109982000D01*
X142650800Y-117799800D02*
X129224200Y-117799800D01*
X149710700Y-124859700D02*
X142650800Y-117799800D01*
X149710700Y-125227000D02*
X149710700Y-124859700D01*
%TO.N,/~{AVRSEL}*%
X153426000Y-127767000D02*
X153426000Y-126591700D01*
X121993700Y-109347000D02*
X118807000Y-109347000D01*
X121993700Y-109905900D02*
X121993700Y-109347000D01*
X129437300Y-117349500D02*
X121993700Y-109905900D01*
X144689600Y-117349500D02*
X129437300Y-117349500D01*
X152250700Y-124910600D02*
X144689600Y-117349500D01*
X152250700Y-125783800D02*
X152250700Y-124910600D01*
X153058600Y-126591700D02*
X152250700Y-125783800D01*
X153426000Y-126591700D02*
X153058600Y-126591700D01*
X123778800Y-105537000D02*
X128843000Y-105537000D01*
X121993700Y-107322100D02*
X123778800Y-105537000D01*
X121993700Y-109347000D02*
X121993700Y-107322100D01*
%TO.N,Net-(D2-Pad2)*%
X117732000Y-70001200D02*
X118923100Y-71192300D01*
X117732000Y-68834000D02*
X117732000Y-70001200D01*
%TO.N,/~{DTACK_CPU}*%
X128208000Y-109982000D02*
X125793000Y-109982000D01*
X128843000Y-109347000D02*
X128208000Y-109982000D01*
X124953100Y-112212600D02*
X124953100Y-110821900D01*
X129355900Y-116615400D02*
X124953100Y-112212600D01*
X133107400Y-116615400D02*
X129355900Y-116615400D01*
X124953100Y-110821900D02*
X125793000Y-109982000D01*
X122821400Y-109894300D02*
X122821400Y-109097500D01*
X123749000Y-110821900D02*
X122821400Y-109894300D01*
X124953100Y-110821900D02*
X123749000Y-110821900D01*
%TO.N,/~{RAM_WE}*%
X119768000Y-47183000D02*
X119834000Y-47117000D01*
X117821400Y-47183000D02*
X119768000Y-47183000D01*
X105910800Y-92046700D02*
X112037800Y-85919700D01*
X103892600Y-92046700D02*
X105910800Y-92046700D01*
%TO.N,Net-(D2-Pad1)*%
X114125500Y-68027500D02*
X114932000Y-68834000D01*
X110979500Y-68027500D02*
X114125500Y-68027500D01*
X110173000Y-68834000D02*
X110979500Y-68027500D01*
%TO.N,Net-(D1-Pad1)*%
X141354000Y-115316000D02*
X143955000Y-115316000D01*
%TO.N,Net-(C1-Pad1)*%
X159440000Y-106146600D02*
X156456700Y-103163300D01*
X159440000Y-106680000D02*
X159440000Y-106146600D01*
X159440000Y-100180000D02*
X156456700Y-103163300D01*
X146838300Y-103163300D02*
X146037000Y-102362000D01*
X156456700Y-103163300D02*
X146838300Y-103163300D01*
X142822000Y-105577000D02*
X140019000Y-105577000D01*
X146037000Y-102362000D02*
X142822000Y-105577000D01*
%TO.N,/~{IPL1}*%
X99505000Y-50749200D02*
X99505000Y-51308000D01*
X94674100Y-45918300D02*
X99505000Y-50749200D01*
X92765700Y-45918300D02*
X94674100Y-45918300D01*
X91694000Y-46990000D02*
X92765700Y-45918300D01*
%TO.N,/~{IPL0}*%
X99505000Y-47171400D02*
X99505000Y-47752000D01*
X94243600Y-41910000D02*
X99505000Y-47171400D01*
X91694000Y-41910000D02*
X94243600Y-41910000D01*
%TO.N,/~{BG}*%
X139550700Y-124859600D02*
X139550700Y-125227000D01*
X138742800Y-124051700D02*
X139550700Y-124859600D01*
X133812900Y-124051700D02*
X138742800Y-124051700D01*
X121109400Y-111348200D02*
X133812900Y-124051700D01*
X140726000Y-125227000D02*
X139550700Y-125227000D01*
%TO.N,/~{HALT}*%
X98806000Y-56642000D02*
X99505000Y-56642000D01*
X94234000Y-52070000D02*
X98806000Y-56642000D01*
%TO.N,/~{RESET}*%
X130566000Y-127767000D02*
X131741300Y-127767000D01*
X155921300Y-108005400D02*
X153187000Y-108005400D01*
X158696400Y-110780500D02*
X155921300Y-108005400D01*
X158696400Y-119657600D02*
X158696400Y-110780500D01*
X154696000Y-123658000D02*
X158696400Y-119657600D01*
X154696000Y-128176600D02*
X154696000Y-123658000D01*
X153907200Y-128965400D02*
X154696000Y-128176600D01*
X132572400Y-128965400D02*
X153907200Y-128965400D01*
X131741300Y-128134300D02*
X132572400Y-128965400D01*
X131741300Y-127767000D02*
X131741300Y-128134300D01*
X115590000Y-78501000D02*
X114414700Y-78501000D01*
X108131300Y-77325700D02*
X104245200Y-73439600D01*
X113606800Y-77325700D02*
X108131300Y-77325700D01*
X114414700Y-78133600D02*
X113606800Y-77325700D01*
X114414700Y-78501000D02*
X114414700Y-78133600D01*
%TO.N,/~{DS}*%
X128026000Y-125227000D02*
X128026000Y-126402300D01*
X111890800Y-118385900D02*
X104136900Y-110632000D01*
X112724000Y-118385900D02*
X111890800Y-118385900D01*
X119136000Y-124797900D02*
X112724000Y-118385900D01*
X119136000Y-125658000D02*
X119136000Y-124797900D01*
X119880400Y-126402400D02*
X119136000Y-125658000D01*
X120705600Y-126402400D02*
X119880400Y-126402400D01*
X121770600Y-127467400D02*
X120705600Y-126402400D01*
X121770600Y-128270100D02*
X121770600Y-127467400D01*
X122503000Y-129002500D02*
X121770600Y-128270100D01*
X125931800Y-129002500D02*
X122503000Y-129002500D01*
X126850700Y-128083600D02*
X125931800Y-129002500D01*
X126850700Y-127210200D02*
X126850700Y-128083600D01*
X127658600Y-126402300D02*
X126850700Y-127210200D01*
X128026000Y-126402300D02*
X127658600Y-126402300D01*
X104136900Y-110632000D02*
X103443000Y-110632000D01*
X104759000Y-110009900D02*
X104136900Y-110632000D01*
X104759000Y-107720300D02*
X104759000Y-110009900D01*
X103860700Y-106822000D02*
X104759000Y-107720300D01*
X103443000Y-106822000D02*
X103860700Y-106822000D01*
%TO.N,/~{AS}*%
X102443200Y-62803100D02*
X102718200Y-63078100D01*
X99565800Y-62803100D02*
X102443200Y-62803100D01*
X99062300Y-63306600D02*
X99565800Y-62803100D01*
X90230600Y-63306600D02*
X99062300Y-63306600D01*
X89154000Y-62230000D02*
X90230600Y-63306600D01*
%TO.N,/R~{W}*%
X125486000Y-127767000D02*
X125486000Y-126591700D01*
X121857500Y-82752200D02*
X122821700Y-81788000D01*
X105645700Y-82752200D02*
X121857500Y-82752200D01*
X102491700Y-85906200D02*
X105645700Y-82752200D01*
X123947000Y-81788000D02*
X122821700Y-81788000D01*
X103840700Y-105552000D02*
X103443000Y-105552000D01*
X105378100Y-107089400D02*
X103840700Y-105552000D01*
X105378100Y-110602900D02*
X105378100Y-107089400D01*
X107312200Y-112537000D02*
X105378100Y-110602900D01*
X110263900Y-112537000D02*
X107312200Y-112537000D01*
X113344200Y-115617300D02*
X110263900Y-112537000D01*
X115037200Y-115617300D02*
X113344200Y-115617300D01*
X124310700Y-124890800D02*
X115037200Y-115617300D01*
X124310700Y-125783800D02*
X124310700Y-124890800D01*
X125118600Y-126591700D02*
X124310700Y-125783800D01*
X125486000Y-126591700D02*
X125118600Y-126591700D01*
%TO.N,/CLK*%
X123947000Y-74168000D02*
X122821700Y-74168000D01*
X103448300Y-72714300D02*
X102616000Y-71882000D01*
X121368000Y-72714300D02*
X103448300Y-72714300D01*
X122821700Y-74168000D02*
X121368000Y-72714300D01*
%TO.N,/D7*%
X139187000Y-61468000D02*
X139187000Y-60342700D01*
X120315400Y-57758400D02*
X119834000Y-57277000D01*
X139609200Y-57758400D02*
X120315400Y-57758400D01*
X140312300Y-58461500D02*
X139609200Y-57758400D01*
X140312300Y-59498800D02*
X140312300Y-58461500D01*
X139468400Y-60342700D02*
X140312300Y-59498800D01*
X139187000Y-60342700D02*
X139468400Y-60342700D01*
X139187000Y-61468000D02*
X138061700Y-61468000D01*
X83350400Y-66586400D02*
X78994000Y-62230000D01*
X121140300Y-66586400D02*
X83350400Y-66586400D01*
X122448700Y-65278000D02*
X121140300Y-66586400D01*
X134251700Y-65278000D02*
X122448700Y-65278000D01*
X138061700Y-61468000D02*
X134251700Y-65278000D01*
%TO.N,/D6*%
X112418600Y-126591700D02*
X112786000Y-126591700D01*
X111610700Y-125783800D02*
X112418600Y-126591700D01*
X111610700Y-124912400D02*
X111610700Y-125783800D01*
X100496300Y-113798000D02*
X111610700Y-124912400D01*
X91719600Y-113798000D02*
X100496300Y-113798000D01*
X90812900Y-112891300D02*
X91719600Y-113798000D01*
X90812900Y-106545200D02*
X90812900Y-112891300D01*
X88240300Y-103972600D02*
X90812900Y-106545200D01*
X86715000Y-103972600D02*
X88240300Y-103972600D01*
X112786000Y-127767000D02*
X112786000Y-126591700D01*
%TO.N,/D5*%
X86715000Y-106512600D02*
X88240300Y-106512600D01*
X99948100Y-114929100D02*
X110246000Y-125227000D01*
X92213800Y-114929100D02*
X99948100Y-114929100D01*
X90019900Y-112735200D02*
X92213800Y-114929100D01*
X90019900Y-108292200D02*
X90019900Y-112735200D01*
X88240300Y-106512600D02*
X90019900Y-108292200D01*
%TO.N,/D4*%
X110246000Y-127767000D02*
X110246000Y-126591700D01*
X86715000Y-109052600D02*
X88240300Y-109052600D01*
X109878600Y-126591700D02*
X110246000Y-126591700D01*
X109070700Y-125783800D02*
X109878600Y-126591700D01*
X109070700Y-124925300D02*
X109070700Y-125783800D01*
X99524900Y-115379500D02*
X109070700Y-124925300D01*
X92027300Y-115379500D02*
X99524900Y-115379500D01*
X89569600Y-112921800D02*
X92027300Y-115379500D01*
X89569600Y-110381900D02*
X89569600Y-112921800D01*
X88240300Y-109052600D02*
X89569600Y-110381900D01*
X120264500Y-61087000D02*
X119834000Y-61087000D01*
X121209300Y-62031800D02*
X120264500Y-61087000D01*
X121209300Y-62700100D02*
X121209300Y-62031800D01*
X118754900Y-65154500D02*
X121209300Y-62700100D01*
X85503200Y-65154500D02*
X118754900Y-65154500D01*
X82804000Y-62455300D02*
X85503200Y-65154500D01*
X82804000Y-60960000D02*
X82804000Y-62455300D01*
X81534000Y-59690000D02*
X82804000Y-60960000D01*
%TO.N,/D3*%
X86715000Y-111592600D02*
X88240300Y-111592600D01*
X107706000Y-125227000D02*
X106530700Y-125227000D01*
X117461700Y-62357000D02*
X119834000Y-62357000D01*
X106530700Y-124859700D02*
X106530700Y-125227000D01*
X97951000Y-116280000D02*
X106530700Y-124859700D01*
X92290900Y-116280000D02*
X97951000Y-116280000D01*
X88240300Y-112229400D02*
X92290900Y-116280000D01*
X88240300Y-111592600D02*
X88240300Y-112229400D01*
X86548100Y-64704100D02*
X84074000Y-62230000D01*
X115114600Y-64704100D02*
X86548100Y-64704100D01*
X117461700Y-62357000D02*
X115114600Y-64704100D01*
%TO.N,/D2*%
X107706000Y-127767000D02*
X106530700Y-127767000D01*
X71475000Y-109052600D02*
X73000300Y-109052600D01*
X94609100Y-123032400D02*
X82175100Y-110598400D01*
X97016300Y-123032400D02*
X94609100Y-123032400D01*
X98910600Y-124926700D02*
X97016300Y-123032400D01*
X98910600Y-125752600D02*
X98910600Y-124926700D01*
X99672900Y-126514900D02*
X98910600Y-125752600D01*
X100584100Y-126514900D02*
X99672900Y-126514900D01*
X101356000Y-127286800D02*
X100584100Y-126514900D01*
X101356000Y-128223100D02*
X101356000Y-127286800D01*
X102091200Y-128958300D02*
X101356000Y-128223100D01*
X105704700Y-128958300D02*
X102091200Y-128958300D01*
X106530700Y-128132300D02*
X105704700Y-128958300D01*
X106530700Y-127767000D02*
X106530700Y-128132300D01*
X80629300Y-109052600D02*
X73000300Y-109052600D01*
X82175100Y-110598400D02*
X80629300Y-109052600D01*
X105735100Y-61087000D02*
X106734000Y-61087000D01*
X103018600Y-63803500D02*
X105735100Y-61087000D01*
X102399300Y-63803500D02*
X103018600Y-63803500D01*
X101849200Y-63253400D02*
X102399300Y-63803500D01*
X99752400Y-63253400D02*
X101849200Y-63253400D01*
X99178800Y-63827000D02*
X99752400Y-63253400D01*
X86740200Y-63827000D02*
X99178800Y-63827000D01*
X85344000Y-62430800D02*
X86740200Y-63827000D01*
X85344000Y-60960000D02*
X85344000Y-62430800D01*
X84074000Y-59690000D02*
X85344000Y-60960000D01*
%TO.N,/D1*%
X105166000Y-125227000D02*
X103990700Y-125227000D01*
X87651700Y-61192300D02*
X86614000Y-62230000D01*
X92759000Y-61192300D02*
X87651700Y-61192300D01*
X93919500Y-62352800D02*
X92759000Y-61192300D01*
X103213100Y-62352800D02*
X93919500Y-62352800D01*
X105748900Y-59817000D02*
X103213100Y-62352800D01*
X106734000Y-59817000D02*
X105748900Y-59817000D01*
X103990700Y-124859700D02*
X103990700Y-125227000D01*
X96686200Y-117555200D02*
X103990700Y-124859700D01*
X93982100Y-117555200D02*
X96686200Y-117555200D01*
X90682800Y-117555200D02*
X93982100Y-117555200D01*
X83350800Y-110223200D02*
X90682800Y-117555200D01*
X83350800Y-110109400D02*
X83350800Y-110223200D01*
X79754000Y-106512600D02*
X83350800Y-110109400D01*
X71475000Y-106512600D02*
X79754000Y-106512600D01*
%TO.N,/D0*%
X71475000Y-103972600D02*
X69949700Y-103972600D01*
X105166000Y-127767000D02*
X103990700Y-127767000D01*
X103990700Y-127399600D02*
X103990700Y-127767000D01*
X103182800Y-126591700D02*
X103990700Y-127399600D01*
X102289700Y-126591700D02*
X103182800Y-126591700D01*
X101450600Y-125752600D02*
X102289700Y-126591700D01*
X101450600Y-124916100D02*
X101450600Y-125752600D01*
X98416000Y-121881500D02*
X101450600Y-124916100D01*
X94371200Y-121881500D02*
X98416000Y-121881500D01*
X82900400Y-110410700D02*
X94371200Y-121881500D01*
X82900400Y-110297900D02*
X82900400Y-110410700D01*
X80459000Y-107856500D02*
X82900400Y-110297900D01*
X70811300Y-107856500D02*
X80459000Y-107856500D01*
X69949700Y-106994900D02*
X70811300Y-107856500D01*
X69949700Y-103972600D02*
X69949700Y-106994900D01*
X88100800Y-58203200D02*
X86614000Y-59690000D01*
X94317500Y-58203200D02*
X88100800Y-58203200D01*
X97566500Y-61452200D02*
X94317500Y-58203200D01*
X102409200Y-61452200D02*
X97566500Y-61452200D01*
X105314300Y-58547100D02*
X102409200Y-61452200D01*
X105314300Y-58547000D02*
X105314300Y-58547100D01*
X106734000Y-58547000D02*
X105314300Y-58547000D01*
%TO.N,/A21*%
X80504800Y-49530000D02*
X84902100Y-53927300D01*
X76454000Y-49530000D02*
X80504800Y-49530000D01*
%TO.N,/A20*%
X88452900Y-69608700D02*
X92061200Y-73217000D01*
X84840200Y-69608700D02*
X88452900Y-69608700D01*
X77724000Y-62492500D02*
X84840200Y-69608700D01*
X77724000Y-60960000D02*
X77724000Y-62492500D01*
X76454000Y-59690000D02*
X77724000Y-60960000D01*
%TO.N,/A19*%
X86837100Y-72613100D02*
X76454000Y-62230000D01*
X88267300Y-72613100D02*
X86837100Y-72613100D01*
%TO.N,/A18*%
X97546000Y-127767000D02*
X97546000Y-126591700D01*
X97178600Y-126591700D02*
X97546000Y-126591700D01*
X96370700Y-125783800D02*
X97178600Y-126591700D01*
X96370700Y-124923000D02*
X96370700Y-125783800D01*
X95150100Y-123702400D02*
X96370700Y-124923000D01*
X93770100Y-123702400D02*
X95150100Y-123702400D01*
X81470300Y-111402600D02*
X93770100Y-123702400D01*
X101898700Y-38471700D02*
X96973700Y-38471700D01*
X106734000Y-43307000D02*
X101898700Y-38471700D01*
X67707500Y-53483500D02*
X73914000Y-59690000D01*
X67248000Y-53483500D02*
X67707500Y-53483500D01*
X65648500Y-51884000D02*
X67248000Y-53483500D01*
X65648500Y-49702000D02*
X65648500Y-51884000D01*
X66011900Y-49338600D02*
X65648500Y-49702000D01*
X66011900Y-48089000D02*
X66011900Y-49338600D01*
X76615700Y-37485200D02*
X66011900Y-48089000D01*
%TO.N,/A17*%
X119732500Y-45948500D02*
X116434400Y-45948500D01*
X119834000Y-45847000D02*
X119732500Y-45948500D01*
X83013500Y-57150000D02*
X76454000Y-57150000D01*
X85344000Y-59480500D02*
X83013500Y-57150000D01*
X85344000Y-59901800D02*
X85344000Y-59480500D01*
X86168800Y-60726600D02*
X85344000Y-59901800D01*
X89587400Y-60726600D02*
X86168800Y-60726600D01*
X90457800Y-59856200D02*
X89587400Y-60726600D01*
X90457800Y-59460400D02*
X90457800Y-59856200D01*
X91264700Y-58653500D02*
X90457800Y-59460400D01*
X92123400Y-58653500D02*
X91264700Y-58653500D01*
X92730500Y-59260600D02*
X92123400Y-58653500D01*
X92730500Y-59690100D02*
X92730500Y-59260600D01*
X94942900Y-61902500D02*
X92730500Y-59690100D01*
X102595800Y-61902500D02*
X94942900Y-61902500D01*
X105318100Y-59180200D02*
X102595800Y-61902500D01*
X109959900Y-59180200D02*
X105318100Y-59180200D01*
%TO.N,/A16*%
X105163400Y-44577000D02*
X106734000Y-44577000D01*
X101943200Y-41356800D02*
X105163400Y-44577000D01*
X99221900Y-41356800D02*
X101943200Y-41356800D01*
%TO.N,/A15*%
X91290700Y-124826300D02*
X91290700Y-125227000D01*
X84103500Y-117639100D02*
X91290700Y-124826300D01*
X92466000Y-125227000D02*
X91290700Y-125227000D01*
X69645300Y-54610000D02*
X73914000Y-54610000D01*
X68068500Y-53033200D02*
X69645300Y-54610000D01*
X67434600Y-53033200D02*
X68068500Y-53033200D01*
X66098800Y-51697400D02*
X67434600Y-53033200D01*
X66098800Y-49888600D02*
X66098800Y-51697400D01*
X66516600Y-49470800D02*
X66098800Y-49888600D01*
X66516600Y-48597400D02*
X66516600Y-49470800D01*
X67582200Y-47531800D02*
X66516600Y-48597400D01*
X68219100Y-47531800D02*
X67582200Y-47531800D01*
X78952900Y-36798000D02*
X68219100Y-47531800D01*
X107629700Y-36798000D02*
X78952900Y-36798000D01*
X115408700Y-44577000D02*
X107629700Y-36798000D01*
X119834000Y-44577000D02*
X115408700Y-44577000D01*
%TO.N,/A14*%
X92466000Y-127767000D02*
X91290700Y-127767000D01*
X102771000Y-42877100D02*
X102375400Y-42877100D01*
X105740900Y-45847000D02*
X102771000Y-42877100D01*
X106734000Y-45847000D02*
X105740900Y-45847000D01*
X88656000Y-124374400D02*
X80730900Y-116449300D01*
X88656000Y-125658000D02*
X88656000Y-124374400D01*
X89589700Y-126591700D02*
X88656000Y-125658000D01*
X90482800Y-126591700D02*
X89589700Y-126591700D01*
X91290700Y-127399600D02*
X90482800Y-126591700D01*
X91290700Y-127767000D02*
X91290700Y-127399600D01*
%TO.N,/A13*%
X73914000Y-49530000D02*
X72832700Y-48448700D01*
X74967000Y-67826700D02*
X81311500Y-74171200D01*
X74967000Y-54147000D02*
X74967000Y-67826700D01*
X74377100Y-53557100D02*
X74967000Y-54147000D01*
X69232300Y-53557100D02*
X74377100Y-53557100D01*
X68258000Y-52582800D02*
X69232300Y-53557100D01*
X67621100Y-52582800D02*
X68258000Y-52582800D01*
X66549100Y-51510800D02*
X67621100Y-52582800D01*
X66549100Y-50075200D02*
X66549100Y-51510800D01*
X66999400Y-49624900D02*
X66549100Y-50075200D01*
X66999400Y-48824500D02*
X66999400Y-49624900D01*
X67375200Y-48448700D02*
X66999400Y-48824500D01*
X72832700Y-48448700D02*
X67375200Y-48448700D01*
X114539100Y-48387000D02*
X119834000Y-48387000D01*
X103400500Y-37248400D02*
X114539100Y-48387000D01*
X79623000Y-37248400D02*
X103400500Y-37248400D01*
X72832700Y-44038700D02*
X79623000Y-37248400D01*
X72832700Y-48448700D02*
X72832700Y-44038700D01*
%TO.N,/A12*%
X77501900Y-45942100D02*
X76454000Y-46990000D01*
X77501900Y-41289300D02*
X77501900Y-45942100D01*
X80641800Y-38149400D02*
X77501900Y-41289300D01*
X94988700Y-38149400D02*
X80641800Y-38149400D01*
X100441800Y-43602500D02*
X94988700Y-38149400D01*
X102703100Y-43602500D02*
X100441800Y-43602500D01*
X106217600Y-47117000D02*
X102703100Y-43602500D01*
X106734000Y-47117000D02*
X106217600Y-47117000D01*
%TO.N,/A11*%
X79425600Y-91272600D02*
X78587800Y-90434800D01*
X86715000Y-91272600D02*
X79425600Y-91272600D01*
%TO.N,/A10*%
X82190900Y-96352600D02*
X79989500Y-94151200D01*
X86715000Y-96352600D02*
X82190900Y-96352600D01*
%TO.N,/A9*%
X94650200Y-43389800D02*
X98040900Y-46780500D01*
X93806900Y-43389800D02*
X94650200Y-43389800D01*
X92964000Y-44232700D02*
X93806900Y-43389800D01*
X92964000Y-44657900D02*
X92964000Y-44232700D01*
X91669500Y-45952400D02*
X92964000Y-44657900D01*
X79114200Y-45952400D02*
X91669500Y-45952400D01*
X77023700Y-48042900D02*
X79114200Y-45952400D01*
X76031000Y-48042900D02*
X77023700Y-48042900D01*
X75184000Y-47195900D02*
X76031000Y-48042900D01*
X75184000Y-45720000D02*
X75184000Y-47195900D01*
X73914000Y-44450000D02*
X75184000Y-45720000D01*
X123947000Y-84328000D02*
X122821700Y-84328000D01*
X110468800Y-84328000D02*
X110139000Y-84657800D01*
X122821700Y-84328000D02*
X110468800Y-84328000D01*
X106064200Y-88732600D02*
X110139000Y-84657800D01*
X86715000Y-88732600D02*
X106064200Y-88732600D01*
%TO.N,/A8*%
X86715000Y-86192600D02*
X88240300Y-86192600D01*
X139187000Y-76708000D02*
X138061700Y-76708000D01*
X119834000Y-49657000D02*
X119834000Y-49586600D01*
X113452600Y-49586600D02*
X119834000Y-49586600D01*
X107808000Y-43942000D02*
X113452600Y-49586600D01*
X105501600Y-43942000D02*
X107808000Y-43942000D01*
X101223700Y-39664100D02*
X105501600Y-43942000D01*
X97140300Y-39664100D02*
X101223700Y-39664100D01*
X95175000Y-37698800D02*
X97140300Y-39664100D01*
X80452000Y-37698800D02*
X95175000Y-37698800D01*
X76454000Y-41696800D02*
X80452000Y-37698800D01*
X76454000Y-41910000D02*
X76454000Y-41696800D01*
X138061700Y-73683700D02*
X138061700Y-76708000D01*
X138847400Y-72898000D02*
X138061700Y-73683700D01*
X139512400Y-72898000D02*
X138847400Y-72898000D01*
X140800100Y-71610300D02*
X139512400Y-72898000D01*
X140800100Y-46221700D02*
X140800100Y-71610300D01*
X139616100Y-45037700D02*
X140800100Y-46221700D01*
X132147700Y-45037700D02*
X139616100Y-45037700D01*
X129687400Y-47498000D02*
X132147700Y-45037700D01*
X123200500Y-47498000D02*
X129687400Y-47498000D01*
X121111900Y-49586600D02*
X123200500Y-47498000D01*
X119834000Y-49586600D02*
X121111900Y-49586600D01*
X88389400Y-86341700D02*
X88240300Y-86192600D01*
X101030500Y-86341700D02*
X88389400Y-86341700D01*
X105070400Y-82301800D02*
X101030500Y-86341700D01*
X121633000Y-82301800D02*
X105070400Y-82301800D01*
X123416800Y-80518000D02*
X121633000Y-82301800D01*
X134251700Y-80518000D02*
X123416800Y-80518000D01*
X138061700Y-76708000D02*
X134251700Y-80518000D01*
%TO.N,/A7*%
X77952200Y-43408200D02*
X78994000Y-44450000D01*
X77952200Y-41475900D02*
X77952200Y-43408200D01*
X80828400Y-38599700D02*
X77952200Y-41475900D01*
X94802000Y-38599700D02*
X80828400Y-38599700D01*
X100255100Y-44052800D02*
X94802000Y-38599700D01*
X102516500Y-44052800D02*
X100255100Y-44052800D01*
X104808200Y-46344500D02*
X102516500Y-44052800D01*
X104808200Y-46910100D02*
X104808200Y-46344500D01*
X106285100Y-48387000D02*
X104808200Y-46910100D01*
X106734000Y-48387000D02*
X106285100Y-48387000D01*
X139187000Y-79248000D02*
X138061700Y-79248000D01*
X134107100Y-83202600D02*
X138061700Y-79248000D01*
X108442000Y-83202600D02*
X134107100Y-83202600D01*
X104085300Y-87559300D02*
X108442000Y-83202600D01*
X79170300Y-87559300D02*
X104085300Y-87559300D01*
X77844200Y-88885400D02*
X79170300Y-87559300D01*
%TO.N,/A6*%
X81854000Y-39050000D02*
X78994000Y-41910000D01*
X94615400Y-39050000D02*
X81854000Y-39050000D01*
X100068500Y-44503100D02*
X94615400Y-39050000D01*
X102329900Y-44503100D02*
X100068500Y-44503100D01*
X104357900Y-46531100D02*
X102329900Y-44503100D01*
X104357900Y-47791400D02*
X104357900Y-46531100D01*
X106223500Y-49657000D02*
X104357900Y-47791400D01*
X106734000Y-49657000D02*
X106223500Y-49657000D01*
X71475000Y-86192600D02*
X73000300Y-86192600D01*
X139187000Y-81788000D02*
X138061700Y-81788000D01*
X76419100Y-89611400D02*
X73000300Y-86192600D01*
X79066600Y-89611400D02*
X76419100Y-89611400D01*
X79360000Y-89904800D02*
X79066600Y-89611400D01*
X106867800Y-89904800D02*
X79360000Y-89904800D01*
X111578200Y-85194400D02*
X106867800Y-89904800D01*
X112338300Y-85194400D02*
X111578200Y-85194400D01*
X112669700Y-85525800D02*
X112338300Y-85194400D01*
X134323900Y-85525800D02*
X112669700Y-85525800D01*
X138061700Y-81788000D02*
X134323900Y-85525800D01*
%TO.N,/A5*%
X80480800Y-43396800D02*
X81534000Y-44450000D01*
X80480800Y-41459600D02*
X80480800Y-43396800D01*
X82417900Y-39522500D02*
X80480800Y-41459600D01*
X94450900Y-39522500D02*
X82417900Y-39522500D01*
X99881800Y-44953400D02*
X94450900Y-39522500D01*
X102143300Y-44953400D02*
X99881800Y-44953400D01*
X103907600Y-46717700D02*
X102143300Y-44953400D01*
X103907600Y-48604000D02*
X103907600Y-46717700D01*
X106230600Y-50927000D02*
X103907600Y-48604000D01*
X106734000Y-50927000D02*
X106230600Y-50927000D01*
%TO.N,/A4*%
X83471200Y-39972800D02*
X81534000Y-41910000D01*
X94264300Y-39972800D02*
X83471200Y-39972800D01*
X99695200Y-45403700D02*
X94264300Y-39972800D01*
X101956700Y-45403700D02*
X99695200Y-45403700D01*
X103457300Y-46904300D02*
X101956700Y-45403700D01*
X103457300Y-49444200D02*
X103457300Y-46904300D01*
X106210100Y-52197000D02*
X103457300Y-49444200D01*
X106734000Y-52197000D02*
X106210100Y-52197000D01*
%TO.N,/A3*%
X91573500Y-43085700D02*
X93063700Y-43085700D01*
X90649100Y-44010100D02*
X91573500Y-43085700D01*
X90649100Y-44423400D02*
X90649100Y-44010100D01*
X89570500Y-45502000D02*
X90649100Y-44423400D01*
X85126000Y-45502000D02*
X89570500Y-45502000D01*
X84074000Y-44450000D02*
X85126000Y-45502000D01*
%TO.N,/A2*%
X84074000Y-41910000D02*
X85110500Y-41910000D01*
X106208900Y-54737000D02*
X106734000Y-54737000D01*
X105335800Y-53863900D02*
X106208900Y-54737000D01*
X105335800Y-53100400D02*
X105335800Y-53863900D01*
X105604200Y-52832000D02*
X105335800Y-53100400D01*
X86597400Y-40423100D02*
X85110500Y-41910000D01*
X94077700Y-40423100D02*
X86597400Y-40423100D01*
X99508600Y-45854000D02*
X94077700Y-40423100D01*
X101770100Y-45854000D02*
X99508600Y-45854000D01*
X103007000Y-47090900D02*
X101770100Y-45854000D01*
X103007000Y-50234800D02*
X103007000Y-47090900D01*
X105604200Y-52832000D02*
X103007000Y-50234800D01*
%TO.N,/A1*%
X106231200Y-56007000D02*
X106734000Y-56007000D01*
X102331600Y-52107400D02*
X106231200Y-56007000D01*
X102331600Y-47052400D02*
X102331600Y-52107400D01*
X101583500Y-46304300D02*
X102331600Y-47052400D01*
X99322000Y-46304300D02*
X101583500Y-46304300D01*
X93891100Y-40873400D02*
X99322000Y-46304300D01*
X91228400Y-40873400D02*
X93891100Y-40873400D01*
X90424100Y-41677700D02*
X91228400Y-40873400D01*
X90424100Y-42160400D02*
X90424100Y-41677700D01*
X89637900Y-42946600D02*
X90424100Y-42160400D01*
X88117400Y-42946600D02*
X89637900Y-42946600D01*
X86614000Y-44450000D02*
X88117400Y-42946600D01*
%TO.N,GND*%
X138524700Y-39370000D02*
X143096700Y-43942000D01*
X132347000Y-39370000D02*
X138524700Y-39370000D01*
X97342600Y-109362000D02*
X96052100Y-110652500D01*
X97725000Y-109362000D02*
X97342600Y-109362000D01*
X131515400Y-40201600D02*
X132347000Y-39370000D01*
X114890600Y-40201600D02*
X131515400Y-40201600D01*
X114059000Y-39370000D02*
X114890600Y-40201600D01*
X110898100Y-111902000D02*
X108393000Y-111902000D01*
X111527700Y-112531600D02*
X110898100Y-111902000D01*
X113423100Y-114427000D02*
X113857000Y-114427000D01*
X111527700Y-112531600D02*
X113423100Y-114427000D01*
X130494400Y-113157000D02*
X133793000Y-113157000D01*
X129224400Y-114427000D02*
X128843000Y-114427000D01*
X130494400Y-113157000D02*
X129224400Y-114427000D01*
X72146000Y-125227000D02*
X72146000Y-127767000D01*
X133793000Y-109347000D02*
X133793000Y-108077000D01*
X133793000Y-108077000D02*
X133793000Y-106807000D01*
X113857000Y-110617000D02*
X113857000Y-109347000D01*
X129224400Y-111887000D02*
X130494400Y-113157000D01*
X128843000Y-111887000D02*
X129224400Y-111887000D01*
X128843000Y-111887000D02*
X128843000Y-110617000D01*
X110873700Y-79502000D02*
X111874700Y-78501000D01*
X102616000Y-79502000D02*
X110873700Y-79502000D01*
X113442300Y-110617000D02*
X111527700Y-112531600D01*
X113857000Y-110617000D02*
X113442300Y-110617000D01*
X123947000Y-69088000D02*
X125072300Y-69088000D01*
X119992000Y-71917700D02*
X122821700Y-69088000D01*
X114906700Y-71917700D02*
X119992000Y-71917700D01*
X111823000Y-68834000D02*
X114906700Y-71917700D01*
X123947000Y-69088000D02*
X122821700Y-69088000D01*
X134224700Y-109347000D02*
X133793000Y-109347000D01*
X135094000Y-110216300D02*
X134224700Y-109347000D01*
X154040700Y-114576000D02*
X151384000Y-114576000D01*
X156304700Y-116840000D02*
X154040700Y-114576000D01*
X157480000Y-116840000D02*
X156304700Y-116840000D01*
X71475000Y-111592600D02*
X69949700Y-111592600D01*
X69497800Y-103739100D02*
X70389700Y-102847200D01*
X69497800Y-111140700D02*
X69497800Y-103739100D01*
X69949700Y-111592600D02*
X69497800Y-111140700D01*
X144272000Y-43942000D02*
X143096700Y-43942000D01*
X113050000Y-78501000D02*
X112575000Y-78501000D01*
X112575000Y-78501000D02*
X111874700Y-78501000D01*
X146329000Y-69606000D02*
X146329000Y-68430700D01*
X144077000Y-101554000D02*
X143269000Y-102362000D01*
X147587000Y-101554000D02*
X144077000Y-101554000D01*
X147587000Y-101554000D02*
X147587000Y-102362000D01*
X146329000Y-69606000D02*
X146329000Y-70781300D01*
X146696300Y-70781300D02*
X146329000Y-70781300D01*
X148961000Y-73046000D02*
X146696300Y-70781300D01*
X148961000Y-100180000D02*
X148961000Y-73046000D01*
X154940000Y-100180000D02*
X148961000Y-100180000D01*
X148961000Y-100180000D02*
X147587000Y-101554000D01*
X144272000Y-67181700D02*
X144272000Y-43942000D01*
X145521000Y-68430700D02*
X144272000Y-67181700D01*
X146329000Y-68430700D02*
X145521000Y-68430700D01*
X139187000Y-66548000D02*
X139187000Y-67673300D01*
X139468400Y-67673300D02*
X139187000Y-67673300D01*
X140312300Y-68517200D02*
X139468400Y-67673300D01*
X140312300Y-69575400D02*
X140312300Y-68517200D01*
X139613500Y-70274200D02*
X140312300Y-69575400D01*
X125892300Y-70274200D02*
X139613500Y-70274200D01*
X125892300Y-73826600D02*
X125892300Y-70274200D01*
X124280900Y-75438000D02*
X125892300Y-73826600D01*
X120334600Y-75438000D02*
X124280900Y-75438000D01*
X116068700Y-79703900D02*
X120334600Y-75438000D01*
X113777900Y-79703900D02*
X116068700Y-79703900D01*
X112575000Y-78501000D02*
X113777900Y-79703900D01*
X125892300Y-69908000D02*
X125072300Y-69088000D01*
X125892300Y-70274200D02*
X125892300Y-69908000D01*
X108393000Y-108092000D02*
X108393000Y-106822000D01*
X132905500Y-101549500D02*
X132093000Y-102362000D01*
X142456500Y-101549500D02*
X132905500Y-101549500D01*
X143269000Y-102362000D02*
X142456500Y-101549500D01*
X135094000Y-110968300D02*
X135094000Y-110216300D01*
X134175300Y-111887000D02*
X135094000Y-110968300D01*
X133793000Y-111887000D02*
X134175300Y-111887000D01*
X133793000Y-111887000D02*
X133793000Y-113157000D01*
X146345000Y-114576000D02*
X145605000Y-115316000D01*
X151384000Y-114576000D02*
X146345000Y-114576000D01*
X134509700Y-113157000D02*
X133793000Y-113157000D01*
X137883600Y-116530900D02*
X134509700Y-113157000D01*
X144390100Y-116530900D02*
X137883600Y-116530900D01*
X145605000Y-115316000D02*
X144390100Y-116530900D01*
X97301600Y-111902000D02*
X97725000Y-111902000D01*
X96052100Y-110652500D02*
X97301600Y-111902000D01*
X102799000Y-112528000D02*
X103443000Y-113172000D01*
X98351000Y-112528000D02*
X102799000Y-112528000D01*
X97725000Y-111902000D02*
X98351000Y-112528000D01*
X139189700Y-110216300D02*
X140019000Y-109387000D01*
X135094000Y-110216300D02*
X139189700Y-110216300D01*
X140019000Y-109387000D02*
X140019000Y-108117000D01*
X77516200Y-54610000D02*
X76454000Y-54610000D01*
X77558800Y-54652600D02*
X77516200Y-54610000D01*
X91651400Y-54652600D02*
X77558800Y-54652600D01*
X91694000Y-54610000D02*
X91651400Y-54652600D01*
X76685600Y-50813000D02*
X67818000Y-50813000D01*
X77516200Y-51643600D02*
X76685600Y-50813000D01*
X77516200Y-54610000D02*
X77516200Y-51643600D01*
X89171300Y-102847200D02*
X70389700Y-102847200D01*
X91474000Y-105149900D02*
X89171300Y-102847200D01*
X92320400Y-108092000D02*
X92775000Y-108092000D01*
X91474000Y-107245600D02*
X92320400Y-108092000D01*
X91474000Y-105149900D02*
X91474000Y-107245600D01*
X94076000Y-110632000D02*
X92775000Y-110632000D01*
X94076000Y-109012100D02*
X94076000Y-110632000D01*
X93155900Y-108092000D02*
X94076000Y-109012100D01*
X92775000Y-108092000D02*
X93155900Y-108092000D01*
X93188900Y-113172000D02*
X92775000Y-113172000D01*
X94096500Y-112264400D02*
X93188900Y-113172000D01*
X94096500Y-110652500D02*
X94096500Y-112264400D01*
X94076000Y-110632000D02*
X94096500Y-110652500D01*
X94096500Y-110652500D02*
X96052100Y-110652500D01*
X64466400Y-86650600D02*
X65278000Y-85839000D01*
X64466400Y-96923900D02*
X64466400Y-86650600D01*
X70389700Y-102847200D02*
X64466400Y-96923900D01*
X90314600Y-82550000D02*
X99568000Y-82550000D01*
X87720500Y-79955900D02*
X90314600Y-82550000D01*
X83856200Y-79955900D02*
X87720500Y-79955900D01*
X81429500Y-82382600D02*
X83856200Y-79955900D01*
X68734400Y-82382600D02*
X81429500Y-82382600D01*
X65278000Y-85839000D02*
X68734400Y-82382600D01*
X99568000Y-85090000D02*
X99568000Y-82550000D01*
X99568000Y-82550000D02*
X102616000Y-79502000D01*
X107961300Y-108092000D02*
X108393000Y-108092000D01*
X107092000Y-108961300D02*
X107961300Y-108092000D01*
X107092000Y-109722100D02*
X107092000Y-108961300D01*
X108001900Y-110632000D02*
X107092000Y-109722100D01*
X108393000Y-110632000D02*
X108001900Y-110632000D01*
X108393000Y-110632000D02*
X108393000Y-111902000D01*
X95435000Y-102952000D02*
X96025000Y-102362000D01*
X95435000Y-104910200D02*
X95435000Y-102952000D01*
X91713700Y-104910200D02*
X95435000Y-104910200D01*
X91474000Y-105149900D02*
X91713700Y-104910200D01*
X97346800Y-106822000D02*
X97725000Y-106822000D01*
X95435000Y-104910200D02*
X97346800Y-106822000D01*
X107982400Y-106822000D02*
X106689200Y-105528800D01*
X108393000Y-106822000D02*
X107982400Y-106822000D01*
X98114600Y-106822000D02*
X97725000Y-106822000D01*
X100014600Y-104922000D02*
X98114600Y-106822000D01*
X106082400Y-104922000D02*
X100014600Y-104922000D01*
X106689200Y-105528800D02*
X106082400Y-104922000D01*
X107327100Y-104890900D02*
X106689200Y-105528800D01*
X111082400Y-104890900D02*
X107327100Y-104890900D01*
X112363500Y-106172000D02*
X111082400Y-104890900D01*
X114935900Y-106172000D02*
X112363500Y-106172000D01*
X115229400Y-105878500D02*
X114935900Y-106172000D01*
X115229400Y-102362000D02*
X115229400Y-105878500D01*
X115557000Y-102362000D02*
X115229400Y-102362000D01*
X115229400Y-102362000D02*
X106693000Y-102362000D01*
X101205300Y-64253800D02*
X100930200Y-63978700D01*
X104837200Y-64253800D02*
X101205300Y-64253800D01*
X106734000Y-62357000D02*
X104837200Y-64253800D01*
%TO.N,VCC*%
X157480000Y-111760000D02*
X156304700Y-111760000D01*
X101155000Y-47752000D02*
X101155000Y-49530000D01*
X101155000Y-49530000D02*
X101155000Y-51308000D01*
X101155000Y-51308000D02*
X101155000Y-53086000D01*
X124143000Y-108204000D02*
X124143000Y-109982000D01*
X112797000Y-39370000D02*
X112509000Y-39370000D01*
X116734000Y-43307000D02*
X112797000Y-39370000D01*
X119834000Y-43307000D02*
X116734000Y-43307000D01*
X113050000Y-81041000D02*
X111874700Y-81041000D01*
X101155000Y-58420000D02*
X101155000Y-60198000D01*
X116268100Y-101523100D02*
X117107000Y-102362000D01*
X105981900Y-101523100D02*
X116268100Y-101523100D01*
X105143000Y-102362000D02*
X105981900Y-101523100D01*
X135521700Y-66548000D02*
X123947000Y-66548000D01*
X138061700Y-69088000D02*
X135521700Y-66548000D01*
X139187000Y-69088000D02*
X138061700Y-69088000D01*
X129995700Y-38568700D02*
X130797000Y-39370000D01*
X113598300Y-38568700D02*
X129995700Y-38568700D01*
X112797000Y-39370000D02*
X113598300Y-38568700D01*
X149352000Y-43942000D02*
X148176700Y-43942000D01*
X131598300Y-38568700D02*
X130797000Y-39370000D01*
X143170700Y-38568700D02*
X131598300Y-38568700D01*
X148176700Y-43574700D02*
X143170700Y-38568700D01*
X148176700Y-43942000D02*
X148176700Y-43574700D01*
X148176700Y-64043000D02*
X148176700Y-43942000D01*
X146329000Y-65890700D02*
X148176700Y-64043000D01*
X146329000Y-67066000D02*
X146329000Y-65890700D01*
X155520700Y-110976000D02*
X151384000Y-110976000D01*
X156304700Y-111760000D02*
X155520700Y-110976000D01*
X151055400Y-110647400D02*
X143222600Y-110647400D01*
X151384000Y-110976000D02*
X151055400Y-110647400D01*
X138554000Y-115316000D02*
X143222600Y-110647400D01*
X101155000Y-54864000D02*
X101155000Y-53086000D01*
X123947000Y-66548000D02*
X122821700Y-66548000D01*
X138454000Y-105537000D02*
X133793000Y-105537000D01*
X138454000Y-105663600D02*
X138454000Y-105537000D01*
X139637400Y-106847000D02*
X138454000Y-105663600D01*
X140019000Y-106847000D02*
X139637400Y-106847000D01*
X141569500Y-102362000D02*
X141719000Y-102362000D01*
X138454000Y-105477500D02*
X141569500Y-102362000D01*
X138454000Y-105537000D02*
X138454000Y-105477500D01*
X122132600Y-67237100D02*
X122821700Y-66548000D01*
X99640900Y-67237100D02*
X122132600Y-67237100D01*
X94996000Y-71882000D02*
X99640900Y-67237100D01*
X101155000Y-54864000D02*
X101155000Y-56642000D01*
X117107000Y-102362000D02*
X117107000Y-105537000D01*
X118807000Y-105537000D02*
X117107000Y-105537000D01*
X117107000Y-105537000D02*
X115065200Y-107578800D01*
X114235300Y-111887000D02*
X113857000Y-111887000D01*
X115162600Y-110959700D02*
X114235300Y-111887000D01*
X115162600Y-107676300D02*
X115162600Y-110959700D01*
X115065200Y-107578800D02*
X115162600Y-107676300D01*
X69948400Y-87389000D02*
X65278000Y-87389000D01*
X92217700Y-85090000D02*
X98018000Y-85090000D01*
X88240300Y-81112600D02*
X92217700Y-85090000D01*
X114928300Y-107442000D02*
X115065200Y-107578800D01*
X112605700Y-107442000D02*
X114928300Y-107442000D01*
X112366600Y-107681100D02*
X112605700Y-107442000D01*
X111765700Y-107681100D02*
X112366600Y-107681100D01*
X111526600Y-107442000D02*
X111765700Y-107681100D01*
X110791400Y-107442000D02*
X111526600Y-107442000D01*
X110610200Y-107260800D02*
X110791400Y-107442000D01*
X110484600Y-107260800D02*
X110610200Y-107260800D01*
X108775800Y-105552000D02*
X110484600Y-107260800D01*
X108393000Y-105552000D02*
X108775800Y-105552000D01*
X133700100Y-105444100D02*
X133793000Y-105537000D01*
X131868200Y-105444100D02*
X133700100Y-105444100D01*
X130543000Y-104118900D02*
X131868200Y-105444100D01*
X130543000Y-102362000D02*
X130543000Y-104118900D01*
X127454200Y-107315000D02*
X125032000Y-107315000D01*
X127581200Y-107442000D02*
X127454200Y-107315000D01*
X129870300Y-107442000D02*
X127581200Y-107442000D01*
X131868200Y-105444100D02*
X129870300Y-107442000D01*
X125032000Y-107315000D02*
X124143000Y-106426000D01*
X125032000Y-107315000D02*
X124143000Y-108204000D01*
X98819300Y-85891300D02*
X98018000Y-85090000D01*
X100531000Y-85891300D02*
X98819300Y-85891300D01*
X105381300Y-81041000D02*
X100531000Y-85891300D01*
X111874700Y-81041000D02*
X105381300Y-81041000D01*
X87477700Y-81112600D02*
X88240300Y-81112600D01*
X87477700Y-81112600D02*
X86715000Y-81112600D01*
X69948400Y-85694100D02*
X69948400Y-87389000D01*
X70718700Y-84923800D02*
X69948400Y-85694100D01*
X81378500Y-84923800D02*
X70718700Y-84923800D01*
X85189700Y-81112600D02*
X81378500Y-84923800D01*
X86715000Y-81112600D02*
X85189700Y-81112600D01*
X92275600Y-100162600D02*
X94475000Y-102362000D01*
X82357600Y-100162600D02*
X92275600Y-100162600D01*
X72197600Y-90002600D02*
X82357600Y-100162600D01*
X70704900Y-90002600D02*
X72197600Y-90002600D01*
X69948400Y-89246100D02*
X70704900Y-90002600D01*
X69948400Y-87389000D02*
X69948400Y-89246100D01*
X92348200Y-74529800D02*
X87287900Y-74529800D01*
X94996000Y-71882000D02*
X92348200Y-74529800D01*
X86715000Y-75102700D02*
X86715000Y-78572600D01*
X87287900Y-74529800D02*
X86715000Y-75102700D01*
X72877300Y-53106600D02*
X75417400Y-53106600D01*
X71744200Y-51973500D02*
X72877300Y-53106600D01*
X67648700Y-51973500D02*
X71744200Y-51973500D01*
X66999400Y-51324200D02*
X67648700Y-51973500D01*
X66999400Y-50374500D02*
X66999400Y-51324200D01*
X67818000Y-49555900D02*
X66999400Y-50374500D01*
X67818000Y-49263000D02*
X67818000Y-49555900D01*
X75417400Y-53106600D02*
X76454000Y-52070000D01*
X100321600Y-57586600D02*
X101155000Y-58420000D01*
X100321600Y-57475400D02*
X100321600Y-57586600D01*
X100321600Y-57475400D02*
X101155000Y-56642000D01*
X75417400Y-62659300D02*
X75417400Y-55656600D01*
X87287900Y-74529800D02*
X75417400Y-62659300D01*
X75417400Y-55656600D02*
X75417400Y-53106600D01*
X95801200Y-55656600D02*
X75417400Y-55656600D01*
X97620000Y-57475400D02*
X95801200Y-55656600D01*
X100321600Y-57475400D02*
X97620000Y-57475400D01*
%TD*%
M02*
