%TF.GenerationSoftware,KiCad,Pcbnew,(6.0.2)*%
%TF.CreationDate,2022-06-21T22:06:57-07:00*%
%TF.ProjectId,Steve 68k,53746576-6520-4363-986b-2e6b69636164,rev?*%
%TF.SameCoordinates,Original*%
%TF.FileFunction,Soldermask,Bot*%
%TF.FilePolarity,Negative*%
%FSLAX46Y46*%
G04 Gerber Fmt 4.6, Leading zero omitted, Abs format (unit mm)*
G04 Created by KiCad (PCBNEW (6.0.2)) date 2022-06-21 22:06:57*
%MOMM*%
%LPD*%
G01*
G04 APERTURE LIST*
G04 Aperture macros list*
%AMRoundRect*
0 Rectangle with rounded corners*
0 $1 Rounding radius*
0 $2 $3 $4 $5 $6 $7 $8 $9 X,Y pos of 4 corners*
0 Add a 4 corners polygon primitive as box body*
4,1,4,$2,$3,$4,$5,$6,$7,$8,$9,$2,$3,0*
0 Add four circle primitives for the rounded corners*
1,1,$1+$1,$2,$3*
1,1,$1+$1,$4,$5*
1,1,$1+$1,$6,$7*
1,1,$1+$1,$8,$9*
0 Add four rect primitives between the rounded corners*
20,1,$1+$1,$2,$3,$4,$5,0*
20,1,$1+$1,$4,$5,$6,$7,0*
20,1,$1+$1,$6,$7,$8,$9,0*
20,1,$1+$1,$8,$9,$2,$3,0*%
G04 Aperture macros list end*
%ADD10C,1.500000*%
%ADD11O,3.500000X3.500000*%
%ADD12R,2.000000X1.905000*%
%ADD13O,2.000000X1.905000*%
%ADD14R,1.700000X1.700000*%
%ADD15O,1.700000X1.700000*%
%ADD16RoundRect,0.875000X0.875000X0.875000X-0.875000X0.875000X-0.875000X-0.875000X0.875000X-0.875000X0*%
%ADD17RoundRect,0.750000X0.750000X1.000000X-0.750000X1.000000X-0.750000X-1.000000X0.750000X-1.000000X0*%
%ADD18R,3.500000X3.500000*%
%ADD19R,1.422400X1.422400*%
%ADD20C,1.422400*%
%ADD21R,2.400000X1.600000*%
%ADD22O,2.400000X1.600000*%
%ADD23R,1.600000X1.600000*%
%ADD24C,1.600000*%
%ADD25C,2.000000*%
G04 APERTURE END LIST*
D10*
%TO.C,Y1*%
X139293600Y-49758600D03*
X139293600Y-44878600D03*
%TD*%
D11*
%TO.C,U6*%
X142938000Y-96393000D03*
D12*
X159598000Y-93853000D03*
D13*
X159598000Y-96393000D03*
X159598000Y-98933000D03*
%TD*%
D14*
%TO.C,J6*%
X150596200Y-47904400D03*
D15*
X150596200Y-50444400D03*
X150596200Y-52984400D03*
X150596200Y-55524400D03*
X150596200Y-58064400D03*
X150596200Y-60604400D03*
%TD*%
D14*
%TO.C,J3*%
X158927800Y-47904400D03*
D15*
X158927800Y-50444400D03*
X158927800Y-52984400D03*
X158927800Y-55524400D03*
X158927800Y-58064400D03*
X158927800Y-60604400D03*
%TD*%
D16*
%TO.C,J2*%
X151660600Y-107433300D03*
D17*
X154660600Y-112133300D03*
D18*
X148660600Y-112133300D03*
%TD*%
D19*
%TO.C,IC1*%
X88163400Y-44424600D03*
D20*
X88163400Y-46964600D03*
X85623400Y-44424600D03*
X85623400Y-46964600D03*
X83083400Y-44424600D03*
X83083400Y-46964600D03*
X80543400Y-44424600D03*
X78003400Y-46964600D03*
X80543400Y-46964600D03*
X78003400Y-49504600D03*
X80543400Y-49504600D03*
X78003400Y-52044600D03*
X80543400Y-52044600D03*
X78003400Y-54584600D03*
X80543400Y-54584600D03*
X78003400Y-57124600D03*
X80543400Y-57124600D03*
X78003400Y-59664600D03*
X80543400Y-59664600D03*
X78003400Y-62204600D03*
X80543400Y-64744600D03*
X80543400Y-62204600D03*
X83083400Y-64744600D03*
X83083400Y-62204600D03*
X85623400Y-64744600D03*
X85623400Y-62204600D03*
X88163400Y-64744600D03*
X88163400Y-62204600D03*
X90703400Y-64744600D03*
X90703400Y-62204600D03*
X93243400Y-64744600D03*
X93243400Y-62204600D03*
X95783400Y-64744600D03*
X98323400Y-62204600D03*
X95783400Y-62204600D03*
X98323400Y-59664600D03*
X95783400Y-59664600D03*
X98323400Y-57124600D03*
X95783400Y-57124600D03*
X98323400Y-54584600D03*
X95783400Y-54584600D03*
X98323400Y-52044600D03*
X95783400Y-52044600D03*
X98323400Y-49504600D03*
X95783400Y-49504600D03*
X98323400Y-46964600D03*
X95783400Y-44424600D03*
X95783400Y-46964600D03*
X93243400Y-44424600D03*
X93243400Y-46964600D03*
X90703400Y-44424600D03*
X90703400Y-46964600D03*
%TD*%
D21*
%TO.C,U2*%
X71475000Y-80010000D03*
D22*
X71475000Y-82550000D03*
X71475000Y-85090000D03*
X71475000Y-87630000D03*
X71475000Y-90170000D03*
X71475000Y-92710000D03*
X71475000Y-95250000D03*
X71475000Y-97790000D03*
X71475000Y-100330000D03*
X71475000Y-102870000D03*
X71475000Y-105410000D03*
X71475000Y-107950000D03*
X71475000Y-110490000D03*
X71475000Y-113030000D03*
X86715000Y-113030000D03*
X86715000Y-110490000D03*
X86715000Y-107950000D03*
X86715000Y-105410000D03*
X86715000Y-102870000D03*
X86715000Y-100330000D03*
X86715000Y-97790000D03*
X86715000Y-95250000D03*
X86715000Y-92710000D03*
X86715000Y-90170000D03*
X86715000Y-87630000D03*
X86715000Y-85090000D03*
X86715000Y-82550000D03*
X86715000Y-80010000D03*
%TD*%
D14*
%TO.C,J4*%
X67900000Y-46100000D03*
D15*
X67900000Y-48640000D03*
X67900000Y-51180000D03*
%TD*%
D21*
%TO.C,U3*%
X96672400Y-92938600D03*
D22*
X96672400Y-95478600D03*
X96672400Y-98018600D03*
X96672400Y-100558600D03*
X96672400Y-103098600D03*
X96672400Y-105638600D03*
X96672400Y-108178600D03*
X96672400Y-110718600D03*
X96672400Y-113258600D03*
X96672400Y-115798600D03*
X104292400Y-115798600D03*
X104292400Y-113258600D03*
X104292400Y-110718600D03*
X104292400Y-108178600D03*
X104292400Y-105638600D03*
X104292400Y-103098600D03*
X104292400Y-100558600D03*
X104292400Y-98018600D03*
X104292400Y-95478600D03*
X104292400Y-92938600D03*
%TD*%
D23*
%TO.C,X1*%
X95590000Y-83410000D03*
D24*
X103210000Y-83410000D03*
X103210000Y-75790000D03*
X95590000Y-75790000D03*
%TD*%
D19*
%TO.C,U5*%
X123901200Y-47244000D03*
D20*
X121361200Y-44704000D03*
X121361200Y-47244000D03*
X118821200Y-44704000D03*
X118821200Y-47244000D03*
X116281200Y-44704000D03*
X113741200Y-47244000D03*
X116281200Y-47244000D03*
X113741200Y-49784000D03*
X116281200Y-49784000D03*
X113741200Y-52324000D03*
X116281200Y-52324000D03*
X113741200Y-54864000D03*
X116281200Y-54864000D03*
X113741200Y-57404000D03*
X116281200Y-57404000D03*
X113741200Y-59944000D03*
X116281200Y-62484000D03*
X116281200Y-59944000D03*
X118821200Y-62484000D03*
X118821200Y-59944000D03*
X121361200Y-62484000D03*
X121361200Y-59944000D03*
X123901200Y-62484000D03*
X123901200Y-59944000D03*
X126441200Y-62484000D03*
X126441200Y-59944000D03*
X128981200Y-62484000D03*
X131521200Y-59944000D03*
X128981200Y-59944000D03*
X131521200Y-57404000D03*
X128981200Y-57404000D03*
X131521200Y-54864000D03*
X128981200Y-54864000D03*
X131521200Y-52324000D03*
X128981200Y-52324000D03*
X131521200Y-49784000D03*
X128981200Y-49784000D03*
X131521200Y-47244000D03*
X128981200Y-44704000D03*
X128981200Y-47244000D03*
X126441200Y-44704000D03*
X126441200Y-47244000D03*
X123901200Y-44704000D03*
%TD*%
D15*
%TO.C,J1*%
X149809200Y-126644400D03*
X149809200Y-129184400D03*
X147269200Y-126644400D03*
X147269200Y-129184400D03*
X144729200Y-126644400D03*
X144729200Y-129184400D03*
X142189200Y-126644400D03*
X142189200Y-129184400D03*
X139649200Y-126644400D03*
X139649200Y-129184400D03*
X137109200Y-126644400D03*
X137109200Y-129184400D03*
X134569200Y-126644400D03*
X134569200Y-129184400D03*
X132029200Y-126644400D03*
X132029200Y-129184400D03*
X129489200Y-126644400D03*
X129489200Y-129184400D03*
X126949200Y-126644400D03*
X126949200Y-129184400D03*
X124409200Y-126644400D03*
X124409200Y-129184400D03*
X121869200Y-126644400D03*
X121869200Y-129184400D03*
X119329200Y-126644400D03*
X119329200Y-129184400D03*
X116789200Y-126644400D03*
X116789200Y-129184400D03*
X114249200Y-126644400D03*
X114249200Y-129184400D03*
X111709200Y-126644400D03*
X111709200Y-129184400D03*
X109169200Y-126644400D03*
X109169200Y-129184400D03*
X106629200Y-126644400D03*
X106629200Y-129184400D03*
X104089200Y-126644400D03*
X104089200Y-129184400D03*
X101549200Y-126644400D03*
X101549200Y-129184400D03*
X99009200Y-126644400D03*
X99009200Y-129184400D03*
X96469200Y-126644400D03*
X96469200Y-129184400D03*
X93929200Y-126644400D03*
X93929200Y-129184400D03*
X91389200Y-126644400D03*
X91389200Y-129184400D03*
X88849200Y-126644400D03*
X88849200Y-129184400D03*
X86309200Y-126644400D03*
X86309200Y-129184400D03*
X83769200Y-126644400D03*
X83769200Y-129184400D03*
X81229200Y-126644400D03*
X81229200Y-129184400D03*
X78689200Y-126644400D03*
X78689200Y-129184400D03*
X76149200Y-126644400D03*
X76149200Y-129184400D03*
X73609200Y-126644400D03*
X73609200Y-129184400D03*
X71069200Y-126644400D03*
D14*
X71069200Y-129184400D03*
%TD*%
D25*
%TO.C,SW1*%
X137288200Y-109713200D03*
X143788200Y-109713200D03*
X137288200Y-114213200D03*
X143788200Y-114213200D03*
%TD*%
M02*
