%TF.GenerationSoftware,KiCad,Pcbnew,(6.0.2)*%
%TF.CreationDate,2022-06-21T22:06:57-07:00*%
%TF.ProjectId,Steve 68k,53746576-6520-4363-986b-2e6b69636164,rev?*%
%TF.SameCoordinates,Original*%
%TF.FileFunction,Paste,Top*%
%TF.FilePolarity,Positive*%
%FSLAX46Y46*%
G04 Gerber Fmt 4.6, Leading zero omitted, Abs format (unit mm)*
G04 Created by KiCad (PCBNEW (6.0.2)) date 2022-06-21 22:06:57*
%MOMM*%
%LPD*%
G01*
G04 APERTURE LIST*
G04 Aperture macros list*
%AMRoundRect*
0 Rectangle with rounded corners*
0 $1 Rounding radius*
0 $2 $3 $4 $5 $6 $7 $8 $9 X,Y pos of 4 corners*
0 Add a 4 corners polygon primitive as box body*
4,1,4,$2,$3,$4,$5,$6,$7,$8,$9,$2,$3,0*
0 Add four circle primitives for the rounded corners*
1,1,$1+$1,$2,$3*
1,1,$1+$1,$4,$5*
1,1,$1+$1,$6,$7*
1,1,$1+$1,$8,$9*
0 Add four rect primitives between the rounded corners*
20,1,$1+$1,$2,$3,$4,$5,0*
20,1,$1+$1,$4,$5,$6,$7,0*
20,1,$1+$1,$6,$7,$8,$9,0*
20,1,$1+$1,$8,$9,$2,$3,0*%
G04 Aperture macros list end*
%ADD10RoundRect,0.200000X-0.200000X-0.275000X0.200000X-0.275000X0.200000X0.275000X-0.200000X0.275000X0*%
%ADD11RoundRect,0.250000X-0.375000X-0.625000X0.375000X-0.625000X0.375000X0.625000X-0.375000X0.625000X0*%
%ADD12RoundRect,0.200000X0.200000X0.275000X-0.200000X0.275000X-0.200000X-0.275000X0.200000X-0.275000X0*%
%ADD13RoundRect,0.250000X0.375000X0.625000X-0.375000X0.625000X-0.375000X-0.625000X0.375000X-0.625000X0*%
%ADD14RoundRect,0.150000X-0.825000X-0.150000X0.825000X-0.150000X0.825000X0.150000X-0.825000X0.150000X0*%
%ADD15RoundRect,0.150000X-0.875000X-0.150000X0.875000X-0.150000X0.875000X0.150000X-0.875000X0.150000X0*%
%ADD16RoundRect,0.250000X-0.550000X1.050000X-0.550000X-1.050000X0.550000X-1.050000X0.550000X1.050000X0*%
%ADD17RoundRect,0.225000X-0.225000X-0.250000X0.225000X-0.250000X0.225000X0.250000X-0.225000X0.250000X0*%
%ADD18RoundRect,0.225000X0.250000X-0.225000X0.250000X0.225000X-0.250000X0.225000X-0.250000X-0.225000X0*%
%ADD19RoundRect,0.250000X0.550000X-1.050000X0.550000X1.050000X-0.550000X1.050000X-0.550000X-1.050000X0*%
%ADD20RoundRect,0.150000X0.150000X-0.875000X0.150000X0.875000X-0.150000X0.875000X-0.150000X-0.875000X0*%
G04 APERTURE END LIST*
D10*
%TO.C,R18*%
X151194000Y-65862200D03*
X152844000Y-65862200D03*
%TD*%
D11*
%TO.C,D7*%
X155216400Y-65862200D03*
X158016400Y-65862200D03*
%TD*%
D12*
%TO.C,R17*%
X131101600Y-102920800D03*
X129451600Y-102920800D03*
%TD*%
D13*
%TO.C,D6*%
X136502600Y-102920800D03*
X133702600Y-102920800D03*
%TD*%
D14*
%TO.C,U8*%
X123737600Y-111023400D03*
X123737600Y-112293400D03*
X123737600Y-113563400D03*
X123737600Y-114833400D03*
X128687600Y-114833400D03*
X128687600Y-113563400D03*
X128687600Y-112293400D03*
X128687600Y-111023400D03*
%TD*%
D15*
%TO.C,U4*%
X109853200Y-95580200D03*
X109853200Y-96850200D03*
X109853200Y-98120200D03*
X109853200Y-99390200D03*
X109853200Y-100660200D03*
X109853200Y-101930200D03*
X109853200Y-103200200D03*
X119153200Y-103200200D03*
X119153200Y-101930200D03*
X119153200Y-100660200D03*
X119153200Y-99390200D03*
X119153200Y-98120200D03*
X119153200Y-96850200D03*
X119153200Y-95580200D03*
%TD*%
D10*
%TO.C,R16*%
X91758000Y-112420400D03*
X93408000Y-112420400D03*
%TD*%
%TO.C,R15*%
X91758000Y-108102400D03*
X93408000Y-108102400D03*
%TD*%
%TO.C,R14*%
X91758000Y-103682800D03*
X93408000Y-103682800D03*
%TD*%
D16*
%TO.C,C13*%
X133527800Y-94008800D03*
X133527800Y-97608800D03*
%TD*%
D17*
%TO.C,C9*%
X138493200Y-55397400D03*
X140043200Y-55397400D03*
%TD*%
%TO.C,C5*%
X138493200Y-39166800D03*
X140043200Y-39166800D03*
%TD*%
%TO.C,C3*%
X98825000Y-70700000D03*
X100375000Y-70700000D03*
%TD*%
%TO.C,C11*%
X113956800Y-92354400D03*
X115506800Y-92354400D03*
%TD*%
D18*
%TO.C,C6*%
X65300000Y-91650000D03*
X65300000Y-90100000D03*
%TD*%
D10*
%TO.C,R11*%
X104635800Y-60014600D03*
X106285800Y-60014600D03*
%TD*%
%TO.C,R1*%
X104635800Y-41914600D03*
X106285800Y-41914600D03*
%TD*%
%TO.C,R10*%
X104635800Y-56394600D03*
X106285800Y-56394600D03*
%TD*%
D17*
%TO.C,C1*%
X99797400Y-88963600D03*
X101347400Y-88963600D03*
%TD*%
D10*
%TO.C,R2*%
X104635800Y-45534600D03*
X106285800Y-45534600D03*
%TD*%
%TO.C,R7*%
X151079200Y-70776800D03*
X152729200Y-70776800D03*
%TD*%
D13*
%TO.C,D3*%
X157800000Y-74713800D03*
X155000000Y-74713800D03*
%TD*%
D19*
%TO.C,C15*%
X156100000Y-125600000D03*
X156100000Y-129200000D03*
%TD*%
D18*
%TO.C,C10*%
X109575600Y-115913200D03*
X109575600Y-114363200D03*
%TD*%
D14*
%TO.C,U1*%
X112079000Y-108153200D03*
X112079000Y-109423200D03*
X112079000Y-110693200D03*
X112079000Y-111963200D03*
X112079000Y-113233200D03*
X112079000Y-114503200D03*
X112079000Y-115773200D03*
X117029000Y-115773200D03*
X117029000Y-114503200D03*
X117029000Y-113233200D03*
X117029000Y-111963200D03*
X117029000Y-110693200D03*
X117029000Y-109423200D03*
X117029000Y-108153200D03*
%TD*%
D18*
%TO.C,C7*%
X109194600Y-79464200D03*
X109194600Y-77914200D03*
%TD*%
D10*
%TO.C,R5*%
X151075000Y-82600000D03*
X152725000Y-82600000D03*
%TD*%
D17*
%TO.C,C8*%
X121881600Y-39166800D03*
X123431600Y-39166800D03*
%TD*%
D18*
%TO.C,C12*%
X134391400Y-112789000D03*
X134391400Y-111239000D03*
%TD*%
D13*
%TO.C,D5*%
X157800000Y-86550000D03*
X155000000Y-86550000D03*
%TD*%
D10*
%TO.C,R4*%
X104635800Y-52774600D03*
X106285800Y-52774600D03*
%TD*%
%TO.C,R13*%
X104635800Y-67254600D03*
X106285800Y-67254600D03*
%TD*%
D20*
%TO.C,U7*%
X112750600Y-85340800D03*
X114020600Y-85340800D03*
X115290600Y-85340800D03*
X116560600Y-85340800D03*
X117830600Y-85340800D03*
X119100600Y-85340800D03*
X120370600Y-85340800D03*
X121640600Y-85340800D03*
X122910600Y-85340800D03*
X124180600Y-85340800D03*
X125450600Y-85340800D03*
X126720600Y-85340800D03*
X127990600Y-85340800D03*
X129260600Y-85340800D03*
X130530600Y-85340800D03*
X131800600Y-85340800D03*
X131800600Y-72240800D03*
X130530600Y-72240800D03*
X129260600Y-72240800D03*
X127990600Y-72240800D03*
X126720600Y-72240800D03*
X125450600Y-72240800D03*
X124180600Y-72240800D03*
X122910600Y-72240800D03*
X121640600Y-72240800D03*
X120370600Y-72240800D03*
X119100600Y-72240800D03*
X117830600Y-72240800D03*
X116560600Y-72240800D03*
X115290600Y-72240800D03*
X114020600Y-72240800D03*
X112750600Y-72240800D03*
%TD*%
D10*
%TO.C,R6*%
X151075000Y-86550000D03*
X152725000Y-86550000D03*
%TD*%
%TO.C,R8*%
X151079200Y-74688400D03*
X152729200Y-74688400D03*
%TD*%
D17*
%TO.C,C4*%
X125463000Y-107924600D03*
X127013000Y-107924600D03*
%TD*%
D13*
%TO.C,D2*%
X157800000Y-70776800D03*
X155000000Y-70776800D03*
%TD*%
D12*
%TO.C,R9*%
X152729200Y-78549200D03*
X151079200Y-78549200D03*
%TD*%
D17*
%TO.C,C2*%
X87413800Y-38938200D03*
X88963800Y-38938200D03*
%TD*%
D10*
%TO.C,R3*%
X104635800Y-49154600D03*
X106285800Y-49154600D03*
%TD*%
%TO.C,R12*%
X104635800Y-63634600D03*
X106285800Y-63634600D03*
%TD*%
D13*
%TO.C,D4*%
X157800000Y-78600000D03*
X155000000Y-78600000D03*
%TD*%
%TO.C,D1*%
X157800000Y-82600000D03*
X155000000Y-82600000D03*
%TD*%
M02*
