%TF.GenerationSoftware,KiCad,Pcbnew,(6.0.2)*%
%TF.CreationDate,2022-09-05T19:25:54-07:00*%
%TF.ProjectId,Steve 68k,53746576-6520-4363-986b-2e6b69636164,rev?*%
%TF.SameCoordinates,Original*%
%TF.FileFunction,Legend,Top*%
%TF.FilePolarity,Positive*%
%FSLAX46Y46*%
G04 Gerber Fmt 4.6, Leading zero omitted, Abs format (unit mm)*
G04 Created by KiCad (PCBNEW (6.0.2)) date 2022-09-05 19:25:54*
%MOMM*%
%LPD*%
G01*
G04 APERTURE LIST*
%ADD10C,0.150000*%
%ADD11C,0.800000*%
%ADD12C,0.300000*%
%ADD13C,0.120000*%
G04 APERTURE END LIST*
D10*
X154021285Y-41487071D02*
X154021285Y-41058500D01*
X154771285Y-41272785D02*
X154021285Y-41272785D01*
X154021285Y-40879928D02*
X154771285Y-40379928D01*
X154021285Y-40379928D02*
X154771285Y-40879928D01*
X152231285Y-40951357D02*
X151874142Y-41201357D01*
X152231285Y-41379928D02*
X151481285Y-41379928D01*
X151481285Y-41094214D01*
X151517000Y-41022785D01*
X151552714Y-40987071D01*
X151624142Y-40951357D01*
X151731285Y-40951357D01*
X151802714Y-40987071D01*
X151838428Y-41022785D01*
X151874142Y-41094214D01*
X151874142Y-41379928D01*
X151481285Y-40701357D02*
X152231285Y-40201357D01*
X151481285Y-40201357D02*
X152231285Y-40701357D01*
X148941285Y-41487071D02*
X149691285Y-41237071D01*
X148941285Y-40987071D01*
X149619857Y-40308500D02*
X149655571Y-40344214D01*
X149691285Y-40451357D01*
X149691285Y-40522785D01*
X149655571Y-40629928D01*
X149584142Y-40701357D01*
X149512714Y-40737071D01*
X149369857Y-40772785D01*
X149262714Y-40772785D01*
X149119857Y-40737071D01*
X149048428Y-40701357D01*
X148977000Y-40629928D01*
X148941285Y-40522785D01*
X148941285Y-40451357D01*
X148977000Y-40344214D01*
X149012714Y-40308500D01*
X149619857Y-39558500D02*
X149655571Y-39594214D01*
X149691285Y-39701357D01*
X149691285Y-39772785D01*
X149655571Y-39879928D01*
X149584142Y-39951357D01*
X149512714Y-39987071D01*
X149369857Y-40022785D01*
X149262714Y-40022785D01*
X149119857Y-39987071D01*
X149048428Y-39951357D01*
X148977000Y-39879928D01*
X148941285Y-39772785D01*
X148941285Y-39701357D01*
X148977000Y-39594214D01*
X149012714Y-39558500D01*
X143897000Y-40987071D02*
X143861285Y-41058500D01*
X143861285Y-41165642D01*
X143897000Y-41272785D01*
X143968428Y-41344214D01*
X144039857Y-41379928D01*
X144182714Y-41415642D01*
X144289857Y-41415642D01*
X144432714Y-41379928D01*
X144504142Y-41344214D01*
X144575571Y-41272785D01*
X144611285Y-41165642D01*
X144611285Y-41094214D01*
X144575571Y-40987071D01*
X144539857Y-40951357D01*
X144289857Y-40951357D01*
X144289857Y-41094214D01*
X144611285Y-40629928D02*
X143861285Y-40629928D01*
X144611285Y-40201357D01*
X143861285Y-40201357D01*
X144611285Y-39844214D02*
X143861285Y-39844214D01*
X143861285Y-39665642D01*
X143897000Y-39558500D01*
X143968428Y-39487071D01*
X144039857Y-39451357D01*
X144182714Y-39415642D01*
X144289857Y-39415642D01*
X144432714Y-39451357D01*
X144504142Y-39487071D01*
X144575571Y-39558500D01*
X144611285Y-39665642D01*
X144611285Y-39844214D01*
X148845357Y-74989571D02*
X148952500Y-75025285D01*
X149131071Y-75025285D01*
X149202500Y-74989571D01*
X149238214Y-74953857D01*
X149273928Y-74882428D01*
X149273928Y-74811000D01*
X149238214Y-74739571D01*
X149202500Y-74703857D01*
X149131071Y-74668142D01*
X148988214Y-74632428D01*
X148916785Y-74596714D01*
X148881071Y-74561000D01*
X148845357Y-74489571D01*
X148845357Y-74418142D01*
X148881071Y-74346714D01*
X148916785Y-74311000D01*
X148988214Y-74275285D01*
X149166785Y-74275285D01*
X149273928Y-74311000D01*
X150023928Y-74953857D02*
X149988214Y-74989571D01*
X149881071Y-75025285D01*
X149809642Y-75025285D01*
X149702500Y-74989571D01*
X149631071Y-74918142D01*
X149595357Y-74846714D01*
X149559642Y-74703857D01*
X149559642Y-74596714D01*
X149595357Y-74453857D01*
X149631071Y-74382428D01*
X149702500Y-74311000D01*
X149809642Y-74275285D01*
X149881071Y-74275285D01*
X149988214Y-74311000D01*
X150023928Y-74346714D01*
X150702500Y-75025285D02*
X150345357Y-75025285D01*
X150345357Y-74275285D01*
X148845357Y-72449571D02*
X148952500Y-72485285D01*
X149131071Y-72485285D01*
X149202500Y-72449571D01*
X149238214Y-72413857D01*
X149273928Y-72342428D01*
X149273928Y-72271000D01*
X149238214Y-72199571D01*
X149202500Y-72163857D01*
X149131071Y-72128142D01*
X148988214Y-72092428D01*
X148916785Y-72056714D01*
X148881071Y-72021000D01*
X148845357Y-71949571D01*
X148845357Y-71878142D01*
X148881071Y-71806714D01*
X148916785Y-71771000D01*
X148988214Y-71735285D01*
X149166785Y-71735285D01*
X149273928Y-71771000D01*
X149595357Y-72485285D02*
X149595357Y-71735285D01*
X149773928Y-71735285D01*
X149881071Y-71771000D01*
X149952500Y-71842428D01*
X149988214Y-71913857D01*
X150023928Y-72056714D01*
X150023928Y-72163857D01*
X149988214Y-72306714D01*
X149952500Y-72378142D01*
X149881071Y-72449571D01*
X149773928Y-72485285D01*
X149595357Y-72485285D01*
X150309642Y-72271000D02*
X150666785Y-72271000D01*
X150238214Y-72485285D02*
X150488214Y-71735285D01*
X150738214Y-72485285D01*
X149273928Y-69231000D02*
X149202500Y-69195285D01*
X149095357Y-69195285D01*
X148988214Y-69231000D01*
X148916785Y-69302428D01*
X148881071Y-69373857D01*
X148845357Y-69516714D01*
X148845357Y-69623857D01*
X148881071Y-69766714D01*
X148916785Y-69838142D01*
X148988214Y-69909571D01*
X149095357Y-69945285D01*
X149166785Y-69945285D01*
X149273928Y-69909571D01*
X149309642Y-69873857D01*
X149309642Y-69623857D01*
X149166785Y-69623857D01*
X149631071Y-69945285D02*
X149631071Y-69195285D01*
X150059642Y-69945285D01*
X150059642Y-69195285D01*
X150416785Y-69945285D02*
X150416785Y-69195285D01*
X150595357Y-69195285D01*
X150702500Y-69231000D01*
X150773928Y-69302428D01*
X150809642Y-69373857D01*
X150845357Y-69516714D01*
X150845357Y-69623857D01*
X150809642Y-69766714D01*
X150773928Y-69838142D01*
X150702500Y-69909571D01*
X150595357Y-69945285D01*
X150416785Y-69945285D01*
X148773928Y-66655285D02*
X149023928Y-67405285D01*
X149273928Y-66655285D01*
X149952500Y-67333857D02*
X149916785Y-67369571D01*
X149809642Y-67405285D01*
X149738214Y-67405285D01*
X149631071Y-67369571D01*
X149559642Y-67298142D01*
X149523928Y-67226714D01*
X149488214Y-67083857D01*
X149488214Y-66976714D01*
X149523928Y-66833857D01*
X149559642Y-66762428D01*
X149631071Y-66691000D01*
X149738214Y-66655285D01*
X149809642Y-66655285D01*
X149916785Y-66691000D01*
X149952500Y-66726714D01*
X150702500Y-67333857D02*
X150666785Y-67369571D01*
X150559642Y-67405285D01*
X150488214Y-67405285D01*
X150381071Y-67369571D01*
X150309642Y-67298142D01*
X150273928Y-67226714D01*
X150238214Y-67083857D01*
X150238214Y-66976714D01*
X150273928Y-66833857D01*
X150309642Y-66762428D01*
X150381071Y-66691000D01*
X150488214Y-66655285D01*
X150559642Y-66655285D01*
X150666785Y-66691000D01*
X150702500Y-66726714D01*
X118152071Y-81380285D02*
X118152071Y-80630285D01*
X118402071Y-81166000D01*
X118652071Y-80630285D01*
X118652071Y-81380285D01*
X119152071Y-80630285D02*
X119294928Y-80630285D01*
X119366357Y-80666000D01*
X119437785Y-80737428D01*
X119473500Y-80880285D01*
X119473500Y-81130285D01*
X119437785Y-81273142D01*
X119366357Y-81344571D01*
X119294928Y-81380285D01*
X119152071Y-81380285D01*
X119080642Y-81344571D01*
X119009214Y-81273142D01*
X118973500Y-81130285D01*
X118973500Y-80880285D01*
X119009214Y-80737428D01*
X119080642Y-80666000D01*
X119152071Y-80630285D01*
X119759214Y-81344571D02*
X119866357Y-81380285D01*
X120044928Y-81380285D01*
X120116357Y-81344571D01*
X120152071Y-81308857D01*
X120187785Y-81237428D01*
X120187785Y-81166000D01*
X120152071Y-81094571D01*
X120116357Y-81058857D01*
X120044928Y-81023142D01*
X119902071Y-80987428D01*
X119830642Y-80951714D01*
X119794928Y-80916000D01*
X119759214Y-80844571D01*
X119759214Y-80773142D01*
X119794928Y-80701714D01*
X119830642Y-80666000D01*
X119902071Y-80630285D01*
X120080642Y-80630285D01*
X120187785Y-80666000D01*
X120509214Y-81380285D02*
X120509214Y-80630285D01*
X118152071Y-76554285D02*
X118152071Y-75804285D01*
X118402071Y-76340000D01*
X118652071Y-75804285D01*
X118652071Y-76554285D01*
X119009214Y-76554285D02*
X119009214Y-75804285D01*
X119330642Y-76518571D02*
X119437785Y-76554285D01*
X119616357Y-76554285D01*
X119687785Y-76518571D01*
X119723500Y-76482857D01*
X119759214Y-76411428D01*
X119759214Y-76340000D01*
X119723500Y-76268571D01*
X119687785Y-76232857D01*
X119616357Y-76197142D01*
X119473500Y-76161428D01*
X119402071Y-76125714D01*
X119366357Y-76090000D01*
X119330642Y-76018571D01*
X119330642Y-75947142D01*
X119366357Y-75875714D01*
X119402071Y-75840000D01*
X119473500Y-75804285D01*
X119652071Y-75804285D01*
X119759214Y-75840000D01*
X120223500Y-75804285D02*
X120366357Y-75804285D01*
X120437785Y-75840000D01*
X120509214Y-75911428D01*
X120544928Y-76054285D01*
X120544928Y-76304285D01*
X120509214Y-76447142D01*
X120437785Y-76518571D01*
X120366357Y-76554285D01*
X120223500Y-76554285D01*
X120152071Y-76518571D01*
X120080642Y-76447142D01*
X120044928Y-76304285D01*
X120044928Y-76054285D01*
X120080642Y-75911428D01*
X120152071Y-75840000D01*
X120223500Y-75804285D01*
X108595071Y-76264571D02*
X108702214Y-76300285D01*
X108880785Y-76300285D01*
X108952214Y-76264571D01*
X108987928Y-76228857D01*
X109023642Y-76157428D01*
X109023642Y-76086000D01*
X108987928Y-76014571D01*
X108952214Y-75978857D01*
X108880785Y-75943142D01*
X108737928Y-75907428D01*
X108666500Y-75871714D01*
X108630785Y-75836000D01*
X108595071Y-75764571D01*
X108595071Y-75693142D01*
X108630785Y-75621714D01*
X108666500Y-75586000D01*
X108737928Y-75550285D01*
X108916500Y-75550285D01*
X109023642Y-75586000D01*
X109773642Y-76228857D02*
X109737928Y-76264571D01*
X109630785Y-76300285D01*
X109559357Y-76300285D01*
X109452214Y-76264571D01*
X109380785Y-76193142D01*
X109345071Y-76121714D01*
X109309357Y-75978857D01*
X109309357Y-75871714D01*
X109345071Y-75728857D01*
X109380785Y-75657428D01*
X109452214Y-75586000D01*
X109559357Y-75550285D01*
X109630785Y-75550285D01*
X109737928Y-75586000D01*
X109773642Y-75621714D01*
X110095071Y-76300285D02*
X110095071Y-75550285D01*
X110523642Y-76300285D02*
X110202214Y-75871714D01*
X110523642Y-75550285D02*
X110095071Y-75978857D01*
X117973500Y-77878500D02*
X118723500Y-77878500D01*
X118580642Y-78840285D02*
X118330642Y-78483142D01*
X118152071Y-78840285D02*
X118152071Y-78090285D01*
X118437785Y-78090285D01*
X118509214Y-78126000D01*
X118544928Y-78161714D01*
X118580642Y-78233142D01*
X118580642Y-78340285D01*
X118544928Y-78411714D01*
X118509214Y-78447428D01*
X118437785Y-78483142D01*
X118152071Y-78483142D01*
X118723500Y-77878500D02*
X119402071Y-77878500D01*
X118902071Y-78447428D02*
X119152071Y-78447428D01*
X119259214Y-78840285D02*
X118902071Y-78840285D01*
X118902071Y-78090285D01*
X119259214Y-78090285D01*
X119402071Y-77878500D02*
X120116357Y-77878500D01*
X119544928Y-78804571D02*
X119652071Y-78840285D01*
X119830642Y-78840285D01*
X119902071Y-78804571D01*
X119937785Y-78768857D01*
X119973500Y-78697428D01*
X119973500Y-78626000D01*
X119937785Y-78554571D01*
X119902071Y-78518857D01*
X119830642Y-78483142D01*
X119687785Y-78447428D01*
X119616357Y-78411714D01*
X119580642Y-78376000D01*
X119544928Y-78304571D01*
X119544928Y-78233142D01*
X119580642Y-78161714D01*
X119616357Y-78126000D01*
X119687785Y-78090285D01*
X119866357Y-78090285D01*
X119973500Y-78126000D01*
X120116357Y-77878500D02*
X120794928Y-77878500D01*
X120294928Y-78447428D02*
X120544928Y-78447428D01*
X120652071Y-78840285D02*
X120294928Y-78840285D01*
X120294928Y-78090285D01*
X120652071Y-78090285D01*
X120794928Y-77878500D02*
X121366357Y-77878500D01*
X120866357Y-78090285D02*
X121294928Y-78090285D01*
X121080642Y-78840285D02*
X121080642Y-78090285D01*
X108952214Y-78126000D02*
X108880785Y-78090285D01*
X108773642Y-78090285D01*
X108666500Y-78126000D01*
X108595071Y-78197428D01*
X108559357Y-78268857D01*
X108523642Y-78411714D01*
X108523642Y-78518857D01*
X108559357Y-78661714D01*
X108595071Y-78733142D01*
X108666500Y-78804571D01*
X108773642Y-78840285D01*
X108845071Y-78840285D01*
X108952214Y-78804571D01*
X108987928Y-78768857D01*
X108987928Y-78518857D01*
X108845071Y-78518857D01*
X109309357Y-78840285D02*
X109309357Y-78090285D01*
X109737928Y-78840285D01*
X109737928Y-78090285D01*
X110095071Y-78840285D02*
X110095071Y-78090285D01*
X110273642Y-78090285D01*
X110380785Y-78126000D01*
X110452214Y-78197428D01*
X110487928Y-78268857D01*
X110523642Y-78411714D01*
X110523642Y-78518857D01*
X110487928Y-78661714D01*
X110452214Y-78733142D01*
X110380785Y-78804571D01*
X110273642Y-78840285D01*
X110095071Y-78840285D01*
X108595071Y-80630285D02*
X108845071Y-81380285D01*
X109095071Y-80630285D01*
X109773642Y-81308857D02*
X109737928Y-81344571D01*
X109630785Y-81380285D01*
X109559357Y-81380285D01*
X109452214Y-81344571D01*
X109380785Y-81273142D01*
X109345071Y-81201714D01*
X109309357Y-81058857D01*
X109309357Y-80951714D01*
X109345071Y-80808857D01*
X109380785Y-80737428D01*
X109452214Y-80666000D01*
X109559357Y-80630285D01*
X109630785Y-80630285D01*
X109737928Y-80666000D01*
X109773642Y-80701714D01*
X110523642Y-81308857D02*
X110487928Y-81344571D01*
X110380785Y-81380285D01*
X110309357Y-81380285D01*
X110202214Y-81344571D01*
X110130785Y-81273142D01*
X110095071Y-81201714D01*
X110059357Y-81058857D01*
X110059357Y-80951714D01*
X110095071Y-80808857D01*
X110130785Y-80737428D01*
X110202214Y-80666000D01*
X110309357Y-80630285D01*
X110380785Y-80630285D01*
X110487928Y-80666000D01*
X110523642Y-80701714D01*
X160434928Y-116465000D02*
X160363500Y-116429285D01*
X160256357Y-116429285D01*
X160149214Y-116465000D01*
X160077785Y-116536428D01*
X160042071Y-116607857D01*
X160006357Y-116750714D01*
X160006357Y-116857857D01*
X160042071Y-117000714D01*
X160077785Y-117072142D01*
X160149214Y-117143571D01*
X160256357Y-117179285D01*
X160327785Y-117179285D01*
X160434928Y-117143571D01*
X160470642Y-117107857D01*
X160470642Y-116857857D01*
X160327785Y-116857857D01*
X160792071Y-117179285D02*
X160792071Y-116429285D01*
X161220642Y-117179285D01*
X161220642Y-116429285D01*
X161577785Y-117179285D02*
X161577785Y-116429285D01*
X161756357Y-116429285D01*
X161863500Y-116465000D01*
X161934928Y-116536428D01*
X161970642Y-116607857D01*
X162006357Y-116750714D01*
X162006357Y-116857857D01*
X161970642Y-117000714D01*
X161934928Y-117072142D01*
X161863500Y-117143571D01*
X161756357Y-117179285D01*
X161577785Y-117179285D01*
X159934928Y-111349285D02*
X160184928Y-112099285D01*
X160434928Y-111349285D01*
X161113500Y-112027857D02*
X161077785Y-112063571D01*
X160970642Y-112099285D01*
X160899214Y-112099285D01*
X160792071Y-112063571D01*
X160720642Y-111992142D01*
X160684928Y-111920714D01*
X160649214Y-111777857D01*
X160649214Y-111670714D01*
X160684928Y-111527857D01*
X160720642Y-111456428D01*
X160792071Y-111385000D01*
X160899214Y-111349285D01*
X160970642Y-111349285D01*
X161077785Y-111385000D01*
X161113500Y-111420714D01*
X161863500Y-112027857D02*
X161827785Y-112063571D01*
X161720642Y-112099285D01*
X161649214Y-112099285D01*
X161542071Y-112063571D01*
X161470642Y-111992142D01*
X161434928Y-111920714D01*
X161399214Y-111777857D01*
X161399214Y-111670714D01*
X161434928Y-111527857D01*
X161470642Y-111456428D01*
X161542071Y-111385000D01*
X161649214Y-111349285D01*
X161720642Y-111349285D01*
X161827785Y-111385000D01*
X161863500Y-111420714D01*
X152793500Y-134181214D02*
X152793500Y-133538357D01*
X153541000Y-134038357D02*
X153541000Y-133681214D01*
X153755285Y-134109785D02*
X153005285Y-133859785D01*
X153755285Y-133609785D01*
X152793500Y-133538357D02*
X152793500Y-132895500D01*
X153005285Y-133466928D02*
X153755285Y-133216928D01*
X153005285Y-132966928D01*
X152793500Y-132895500D02*
X152793500Y-132145500D01*
X153755285Y-132288357D02*
X153398142Y-132538357D01*
X153755285Y-132716928D02*
X153005285Y-132716928D01*
X153005285Y-132431214D01*
X153041000Y-132359785D01*
X153076714Y-132324071D01*
X153148142Y-132288357D01*
X153255285Y-132288357D01*
X153326714Y-132324071D01*
X153362428Y-132359785D01*
X153398142Y-132431214D01*
X153398142Y-132716928D01*
X152793500Y-132145500D02*
X152793500Y-131431214D01*
X153719571Y-132002642D02*
X153755285Y-131895500D01*
X153755285Y-131716928D01*
X153719571Y-131645500D01*
X153683857Y-131609785D01*
X153612428Y-131574071D01*
X153541000Y-131574071D01*
X153469571Y-131609785D01*
X153433857Y-131645500D01*
X153398142Y-131716928D01*
X153362428Y-131859785D01*
X153326714Y-131931214D01*
X153291000Y-131966928D01*
X153219571Y-132002642D01*
X153148142Y-132002642D01*
X153076714Y-131966928D01*
X153041000Y-131931214D01*
X153005285Y-131859785D01*
X153005285Y-131681214D01*
X153041000Y-131574071D01*
X152793500Y-131431214D02*
X152793500Y-130752642D01*
X153362428Y-131252642D02*
X153362428Y-131002642D01*
X153755285Y-130895500D02*
X153755285Y-131252642D01*
X153005285Y-131252642D01*
X153005285Y-130895500D01*
X152793500Y-130752642D02*
X152793500Y-130145500D01*
X153755285Y-130216928D02*
X153755285Y-130574071D01*
X153005285Y-130574071D01*
X150253500Y-134538357D02*
X150253500Y-133788357D01*
X151215285Y-133931214D02*
X150858142Y-134181214D01*
X151215285Y-134359785D02*
X150465285Y-134359785D01*
X150465285Y-134074071D01*
X150501000Y-134002642D01*
X150536714Y-133966928D01*
X150608142Y-133931214D01*
X150715285Y-133931214D01*
X150786714Y-133966928D01*
X150822428Y-134002642D01*
X150858142Y-134074071D01*
X150858142Y-134359785D01*
X150253500Y-133788357D02*
X150253500Y-133002642D01*
X150465285Y-133466928D02*
X150465285Y-133324071D01*
X150501000Y-133252642D01*
X150572428Y-133181214D01*
X150715285Y-133145500D01*
X150965285Y-133145500D01*
X151108142Y-133181214D01*
X151179571Y-133252642D01*
X151215285Y-133324071D01*
X151215285Y-133466928D01*
X151179571Y-133538357D01*
X151108142Y-133609785D01*
X150965285Y-133645500D01*
X150715285Y-133645500D01*
X150572428Y-133609785D01*
X150501000Y-133538357D01*
X150465285Y-133466928D01*
X150253500Y-133002642D02*
X150253500Y-132145500D01*
X151215285Y-132824071D02*
X150465285Y-132824071D01*
X151001000Y-132574071D01*
X150465285Y-132324071D01*
X151215285Y-132324071D01*
X150253500Y-132145500D02*
X150253500Y-131431214D01*
X151179571Y-132002642D02*
X151215285Y-131895500D01*
X151215285Y-131716928D01*
X151179571Y-131645500D01*
X151143857Y-131609785D01*
X151072428Y-131574071D01*
X151001000Y-131574071D01*
X150929571Y-131609785D01*
X150893857Y-131645500D01*
X150858142Y-131716928D01*
X150822428Y-131859785D01*
X150786714Y-131931214D01*
X150751000Y-131966928D01*
X150679571Y-132002642D01*
X150608142Y-132002642D01*
X150536714Y-131966928D01*
X150501000Y-131931214D01*
X150465285Y-131859785D01*
X150465285Y-131681214D01*
X150501000Y-131574071D01*
X150253500Y-131431214D02*
X150253500Y-130752642D01*
X150822428Y-131252642D02*
X150822428Y-131002642D01*
X151215285Y-130895500D02*
X151215285Y-131252642D01*
X150465285Y-131252642D01*
X150465285Y-130895500D01*
X150253500Y-130752642D02*
X150253500Y-130145500D01*
X151215285Y-130216928D02*
X151215285Y-130574071D01*
X150465285Y-130574071D01*
X148282428Y-131824071D02*
X148282428Y-132074071D01*
X148675285Y-132074071D02*
X147925285Y-132074071D01*
X147925285Y-131716928D01*
X148603857Y-131002642D02*
X148639571Y-131038357D01*
X148675285Y-131145500D01*
X148675285Y-131216928D01*
X148639571Y-131324071D01*
X148568142Y-131395500D01*
X148496714Y-131431214D01*
X148353857Y-131466928D01*
X148246714Y-131466928D01*
X148103857Y-131431214D01*
X148032428Y-131395500D01*
X147961000Y-131324071D01*
X147925285Y-131216928D01*
X147925285Y-131145500D01*
X147961000Y-131038357D01*
X147996714Y-131002642D01*
X148675285Y-130288357D02*
X148675285Y-130716928D01*
X148675285Y-130502642D02*
X147925285Y-130502642D01*
X148032428Y-130574071D01*
X148103857Y-130645500D01*
X148139571Y-130716928D01*
X150253500Y-122584500D02*
X150253500Y-121834500D01*
X151215285Y-121977357D02*
X150858142Y-122227357D01*
X151215285Y-122405928D02*
X150465285Y-122405928D01*
X150465285Y-122120214D01*
X150501000Y-122048785D01*
X150536714Y-122013071D01*
X150608142Y-121977357D01*
X150715285Y-121977357D01*
X150786714Y-122013071D01*
X150822428Y-122048785D01*
X150858142Y-122120214D01*
X150858142Y-122405928D01*
X150253500Y-121834500D02*
X150253500Y-121191642D01*
X151001000Y-121691642D02*
X151001000Y-121334500D01*
X151215285Y-121763071D02*
X150465285Y-121513071D01*
X151215285Y-121263071D01*
X150253500Y-121191642D02*
X150253500Y-120334500D01*
X151215285Y-121013071D02*
X150465285Y-121013071D01*
X151001000Y-120763071D01*
X150465285Y-120513071D01*
X151215285Y-120513071D01*
X150253500Y-120334500D02*
X150253500Y-119620214D01*
X151179571Y-120191642D02*
X151215285Y-120084500D01*
X151215285Y-119905928D01*
X151179571Y-119834500D01*
X151143857Y-119798785D01*
X151072428Y-119763071D01*
X151001000Y-119763071D01*
X150929571Y-119798785D01*
X150893857Y-119834500D01*
X150858142Y-119905928D01*
X150822428Y-120048785D01*
X150786714Y-120120214D01*
X150751000Y-120155928D01*
X150679571Y-120191642D01*
X150608142Y-120191642D01*
X150536714Y-120155928D01*
X150501000Y-120120214D01*
X150465285Y-120048785D01*
X150465285Y-119870214D01*
X150501000Y-119763071D01*
X150253500Y-119620214D02*
X150253500Y-118941642D01*
X150822428Y-119441642D02*
X150822428Y-119191642D01*
X151215285Y-119084500D02*
X151215285Y-119441642D01*
X150465285Y-119441642D01*
X150465285Y-119084500D01*
X150253500Y-118941642D02*
X150253500Y-118334500D01*
X151215285Y-118405928D02*
X151215285Y-118763071D01*
X150465285Y-118763071D01*
X148282428Y-122155928D02*
X148282428Y-122405928D01*
X148675285Y-122405928D02*
X147925285Y-122405928D01*
X147925285Y-122048785D01*
X148603857Y-121334500D02*
X148639571Y-121370214D01*
X148675285Y-121477357D01*
X148675285Y-121548785D01*
X148639571Y-121655928D01*
X148568142Y-121727357D01*
X148496714Y-121763071D01*
X148353857Y-121798785D01*
X148246714Y-121798785D01*
X148103857Y-121763071D01*
X148032428Y-121727357D01*
X147961000Y-121655928D01*
X147925285Y-121548785D01*
X147925285Y-121477357D01*
X147961000Y-121370214D01*
X147996714Y-121334500D01*
X147996714Y-121048785D02*
X147961000Y-121013071D01*
X147925285Y-120941642D01*
X147925285Y-120763071D01*
X147961000Y-120691642D01*
X147996714Y-120655928D01*
X148068142Y-120620214D01*
X148139571Y-120620214D01*
X148246714Y-120655928D01*
X148675285Y-121084500D01*
X148675285Y-120620214D01*
X145742428Y-122155928D02*
X145742428Y-122405928D01*
X146135285Y-122405928D02*
X145385285Y-122405928D01*
X145385285Y-122048785D01*
X146063857Y-121334500D02*
X146099571Y-121370214D01*
X146135285Y-121477357D01*
X146135285Y-121548785D01*
X146099571Y-121655928D01*
X146028142Y-121727357D01*
X145956714Y-121763071D01*
X145813857Y-121798785D01*
X145706714Y-121798785D01*
X145563857Y-121763071D01*
X145492428Y-121727357D01*
X145421000Y-121655928D01*
X145385285Y-121548785D01*
X145385285Y-121477357D01*
X145421000Y-121370214D01*
X145456714Y-121334500D01*
X145385285Y-120870214D02*
X145385285Y-120798785D01*
X145421000Y-120727357D01*
X145456714Y-120691642D01*
X145528142Y-120655928D01*
X145671000Y-120620214D01*
X145849571Y-120620214D01*
X145992428Y-120655928D01*
X146063857Y-120691642D01*
X146099571Y-120727357D01*
X146135285Y-120798785D01*
X146135285Y-120870214D01*
X146099571Y-120941642D01*
X146063857Y-120977357D01*
X145992428Y-121013071D01*
X145849571Y-121048785D01*
X145671000Y-121048785D01*
X145528142Y-121013071D01*
X145456714Y-120977357D01*
X145421000Y-120941642D01*
X145385285Y-120870214D01*
X132473500Y-122584500D02*
X132473500Y-121834500D01*
X133435285Y-122405928D02*
X132685285Y-122405928D01*
X132685285Y-122227357D01*
X132721000Y-122120214D01*
X132792428Y-122048785D01*
X132863857Y-122013071D01*
X133006714Y-121977357D01*
X133113857Y-121977357D01*
X133256714Y-122013071D01*
X133328142Y-122048785D01*
X133399571Y-122120214D01*
X133435285Y-122227357D01*
X133435285Y-122405928D01*
X132473500Y-121834500D02*
X132473500Y-121263071D01*
X132685285Y-121763071D02*
X132685285Y-121334500D01*
X133435285Y-121548785D02*
X132685285Y-121548785D01*
X132473500Y-121263071D02*
X132473500Y-120620214D01*
X133221000Y-121120214D02*
X133221000Y-120763071D01*
X133435285Y-121191642D02*
X132685285Y-120941642D01*
X133435285Y-120691642D01*
X132473500Y-120620214D02*
X132473500Y-119870214D01*
X133363857Y-120013071D02*
X133399571Y-120048785D01*
X133435285Y-120155928D01*
X133435285Y-120227357D01*
X133399571Y-120334500D01*
X133328142Y-120405928D01*
X133256714Y-120441642D01*
X133113857Y-120477357D01*
X133006714Y-120477357D01*
X132863857Y-120441642D01*
X132792428Y-120405928D01*
X132721000Y-120334500D01*
X132685285Y-120227357D01*
X132685285Y-120155928D01*
X132721000Y-120048785D01*
X132756714Y-120013071D01*
X132473500Y-119870214D02*
X132473500Y-119120214D01*
X133435285Y-119691642D02*
X132685285Y-119691642D01*
X133435285Y-119263071D02*
X133006714Y-119584500D01*
X132685285Y-119263071D02*
X133113857Y-119691642D01*
X137807500Y-122584500D02*
X137807500Y-121941642D01*
X138019285Y-122513071D02*
X138769285Y-122263071D01*
X138019285Y-122013071D01*
X137807500Y-121941642D02*
X137807500Y-121191642D01*
X138769285Y-121763071D02*
X138019285Y-121763071D01*
X138019285Y-121477357D01*
X138055000Y-121405928D01*
X138090714Y-121370214D01*
X138162142Y-121334500D01*
X138269285Y-121334500D01*
X138340714Y-121370214D01*
X138376428Y-121405928D01*
X138412142Y-121477357D01*
X138412142Y-121763071D01*
X137807500Y-121191642D02*
X137807500Y-120548785D01*
X138555000Y-121048785D02*
X138555000Y-120691642D01*
X138769285Y-121120214D02*
X138019285Y-120870214D01*
X138769285Y-120620214D01*
X140093500Y-122584500D02*
X140093500Y-121834500D01*
X140662428Y-122155928D02*
X140698142Y-122048785D01*
X140733857Y-122013071D01*
X140805285Y-121977357D01*
X140912428Y-121977357D01*
X140983857Y-122013071D01*
X141019571Y-122048785D01*
X141055285Y-122120214D01*
X141055285Y-122405928D01*
X140305285Y-122405928D01*
X140305285Y-122155928D01*
X140341000Y-122084500D01*
X140376714Y-122048785D01*
X140448142Y-122013071D01*
X140519571Y-122013071D01*
X140591000Y-122048785D01*
X140626714Y-122084500D01*
X140662428Y-122155928D01*
X140662428Y-122405928D01*
X140093500Y-121834500D02*
X140093500Y-121084500D01*
X140341000Y-121263071D02*
X140305285Y-121334500D01*
X140305285Y-121441642D01*
X140341000Y-121548785D01*
X140412428Y-121620214D01*
X140483857Y-121655928D01*
X140626714Y-121691642D01*
X140733857Y-121691642D01*
X140876714Y-121655928D01*
X140948142Y-121620214D01*
X141019571Y-121548785D01*
X141055285Y-121441642D01*
X141055285Y-121370214D01*
X141019571Y-121263071D01*
X140983857Y-121227357D01*
X140733857Y-121227357D01*
X140733857Y-121370214D01*
X140093500Y-131645500D02*
X140093500Y-130895500D01*
X140662428Y-131216928D02*
X140698142Y-131109785D01*
X140733857Y-131074071D01*
X140805285Y-131038357D01*
X140912428Y-131038357D01*
X140983857Y-131074071D01*
X141019571Y-131109785D01*
X141055285Y-131181214D01*
X141055285Y-131466928D01*
X140305285Y-131466928D01*
X140305285Y-131216928D01*
X140341000Y-131145500D01*
X140376714Y-131109785D01*
X140448142Y-131074071D01*
X140519571Y-131074071D01*
X140591000Y-131109785D01*
X140626714Y-131145500D01*
X140662428Y-131216928D01*
X140662428Y-131466928D01*
X140093500Y-130895500D02*
X140093500Y-130145500D01*
X141055285Y-130288357D02*
X140698142Y-130538357D01*
X141055285Y-130716928D02*
X140305285Y-130716928D01*
X140305285Y-130431214D01*
X140341000Y-130359785D01*
X140376714Y-130324071D01*
X140448142Y-130288357D01*
X140555285Y-130288357D01*
X140626714Y-130324071D01*
X140662428Y-130359785D01*
X140698142Y-130431214D01*
X140698142Y-130716928D01*
X155545285Y-132002642D02*
X156295285Y-131752642D01*
X155545285Y-131502642D01*
X156259571Y-130931214D02*
X156295285Y-131002642D01*
X156295285Y-131145500D01*
X156259571Y-131216928D01*
X156223857Y-131252642D01*
X156152428Y-131288357D01*
X155938142Y-131288357D01*
X155866714Y-131252642D01*
X155831000Y-131216928D01*
X155795285Y-131145500D01*
X155795285Y-131002642D01*
X155831000Y-130931214D01*
X156259571Y-130288357D02*
X156295285Y-130359785D01*
X156295285Y-130502642D01*
X156259571Y-130574071D01*
X156223857Y-130609785D01*
X156152428Y-130645500D01*
X155938142Y-130645500D01*
X155866714Y-130609785D01*
X155831000Y-130574071D01*
X155795285Y-130502642D01*
X155795285Y-130359785D01*
X155831000Y-130288357D01*
X155545285Y-122604642D02*
X156295285Y-122354642D01*
X155545285Y-122104642D01*
X156259571Y-121533214D02*
X156295285Y-121604642D01*
X156295285Y-121747500D01*
X156259571Y-121818928D01*
X156223857Y-121854642D01*
X156152428Y-121890357D01*
X155938142Y-121890357D01*
X155866714Y-121854642D01*
X155831000Y-121818928D01*
X155795285Y-121747500D01*
X155795285Y-121604642D01*
X155831000Y-121533214D01*
X156259571Y-120890357D02*
X156295285Y-120961785D01*
X156295285Y-121104642D01*
X156259571Y-121176071D01*
X156223857Y-121211785D01*
X156152428Y-121247500D01*
X155938142Y-121247500D01*
X155866714Y-121211785D01*
X155831000Y-121176071D01*
X155795285Y-121104642D01*
X155795285Y-120961785D01*
X155831000Y-120890357D01*
X71761000Y-131665071D02*
X71725285Y-131736500D01*
X71725285Y-131843642D01*
X71761000Y-131950785D01*
X71832428Y-132022214D01*
X71903857Y-132057928D01*
X72046714Y-132093642D01*
X72153857Y-132093642D01*
X72296714Y-132057928D01*
X72368142Y-132022214D01*
X72439571Y-131950785D01*
X72475285Y-131843642D01*
X72475285Y-131772214D01*
X72439571Y-131665071D01*
X72403857Y-131629357D01*
X72153857Y-131629357D01*
X72153857Y-131772214D01*
X72475285Y-131307928D02*
X71725285Y-131307928D01*
X72475285Y-130879357D01*
X71725285Y-130879357D01*
X72475285Y-130522214D02*
X71725285Y-130522214D01*
X71725285Y-130343642D01*
X71761000Y-130236500D01*
X71832428Y-130165071D01*
X71903857Y-130129357D01*
X72046714Y-130093642D01*
X72153857Y-130093642D01*
X72296714Y-130129357D01*
X72368142Y-130165071D01*
X72439571Y-130236500D01*
X72475285Y-130343642D01*
X72475285Y-130522214D01*
X71761000Y-122267071D02*
X71725285Y-122338500D01*
X71725285Y-122445642D01*
X71761000Y-122552785D01*
X71832428Y-122624214D01*
X71903857Y-122659928D01*
X72046714Y-122695642D01*
X72153857Y-122695642D01*
X72296714Y-122659928D01*
X72368142Y-122624214D01*
X72439571Y-122552785D01*
X72475285Y-122445642D01*
X72475285Y-122374214D01*
X72439571Y-122267071D01*
X72403857Y-122231357D01*
X72153857Y-122231357D01*
X72153857Y-122374214D01*
X72475285Y-121909928D02*
X71725285Y-121909928D01*
X72475285Y-121481357D01*
X71725285Y-121481357D01*
X72475285Y-121124214D02*
X71725285Y-121124214D01*
X71725285Y-120945642D01*
X71761000Y-120838500D01*
X71832428Y-120767071D01*
X71903857Y-120731357D01*
X72046714Y-120695642D01*
X72153857Y-120695642D01*
X72296714Y-120731357D01*
X72368142Y-120767071D01*
X72439571Y-120838500D01*
X72475285Y-120945642D01*
X72475285Y-121124214D01*
X67619200Y-68326000D02*
X90326800Y-68326000D01*
X90326800Y-68326000D02*
X90326800Y-118821200D01*
X90326800Y-118821200D02*
X67619200Y-118821200D01*
X67619200Y-118821200D02*
X67619200Y-68326000D01*
X69448000Y-68326000D02*
X64749000Y-68326000D01*
X64749000Y-68326000D02*
X64749000Y-52806600D01*
X64749000Y-52806600D02*
X69448000Y-52806600D01*
X69448000Y-52806600D02*
X69448000Y-68326000D01*
X87551800Y-132074071D02*
X87551800Y-131716928D01*
X87766085Y-132145500D02*
X87016085Y-131895500D01*
X87766085Y-131645500D01*
X87766085Y-131002642D02*
X87766085Y-131431214D01*
X87766085Y-131216928D02*
X87016085Y-131216928D01*
X87123228Y-131288357D01*
X87194657Y-131359785D01*
X87230371Y-131431214D01*
X87016085Y-130538357D02*
X87016085Y-130466928D01*
X87051800Y-130395500D01*
X87087514Y-130359785D01*
X87158942Y-130324071D01*
X87301800Y-130288357D01*
X87480371Y-130288357D01*
X87623228Y-130324071D01*
X87694657Y-130359785D01*
X87730371Y-130395500D01*
X87766085Y-130466928D01*
X87766085Y-130538357D01*
X87730371Y-130609785D01*
X87694657Y-130645500D01*
X87623228Y-130681214D01*
X87480371Y-130716928D01*
X87301800Y-130716928D01*
X87158942Y-130681214D01*
X87087514Y-130645500D01*
X87051800Y-130609785D01*
X87016085Y-130538357D01*
X85037200Y-131359785D02*
X85037200Y-131002642D01*
X85251485Y-131431214D02*
X84501485Y-131181214D01*
X85251485Y-130931214D01*
X84822914Y-130574071D02*
X84787200Y-130645500D01*
X84751485Y-130681214D01*
X84680057Y-130716928D01*
X84644342Y-130716928D01*
X84572914Y-130681214D01*
X84537200Y-130645500D01*
X84501485Y-130574071D01*
X84501485Y-130431214D01*
X84537200Y-130359785D01*
X84572914Y-130324071D01*
X84644342Y-130288357D01*
X84680057Y-130288357D01*
X84751485Y-130324071D01*
X84787200Y-130359785D01*
X84822914Y-130431214D01*
X84822914Y-130574071D01*
X84858628Y-130645500D01*
X84894342Y-130681214D01*
X84965771Y-130716928D01*
X85108628Y-130716928D01*
X85180057Y-130681214D01*
X85215771Y-130645500D01*
X85251485Y-130574071D01*
X85251485Y-130431214D01*
X85215771Y-130359785D01*
X85180057Y-130324071D01*
X85108628Y-130288357D01*
X84965771Y-130288357D01*
X84894342Y-130324071D01*
X84858628Y-130359785D01*
X84822914Y-130431214D01*
X77341000Y-131359785D02*
X77341000Y-131002642D01*
X77555285Y-131431214D02*
X76805285Y-131181214D01*
X77555285Y-130931214D01*
X76876714Y-130716928D02*
X76841000Y-130681214D01*
X76805285Y-130609785D01*
X76805285Y-130431214D01*
X76841000Y-130359785D01*
X76876714Y-130324071D01*
X76948142Y-130288357D01*
X77019571Y-130288357D01*
X77126714Y-130324071D01*
X77555285Y-130752642D01*
X77555285Y-130288357D01*
X64704980Y-129441057D02*
X65704980Y-129107723D01*
X64704980Y-128774390D01*
X64800219Y-128488676D02*
X64752600Y-128441057D01*
X64704980Y-128345819D01*
X64704980Y-128107723D01*
X64752600Y-128012485D01*
X64800219Y-127964866D01*
X64895457Y-127917247D01*
X64990695Y-127917247D01*
X65133552Y-127964866D01*
X65704980Y-128536295D01*
X65704980Y-127917247D01*
X64704980Y-127298200D02*
X64704980Y-127202961D01*
X64752600Y-127107723D01*
X64800219Y-127060104D01*
X64895457Y-127012485D01*
X65085933Y-126964866D01*
X65324028Y-126964866D01*
X65514504Y-127012485D01*
X65609742Y-127060104D01*
X65657361Y-127107723D01*
X65704980Y-127202961D01*
X65704980Y-127298200D01*
X65657361Y-127393438D01*
X65609742Y-127441057D01*
X65514504Y-127488676D01*
X65324028Y-127536295D01*
X65085933Y-127536295D01*
X64895457Y-127488676D01*
X64800219Y-127441057D01*
X64752600Y-127393438D01*
X64704980Y-127298200D01*
X64800219Y-126583914D02*
X64752600Y-126536295D01*
X64704980Y-126441057D01*
X64704980Y-126202961D01*
X64752600Y-126107723D01*
X64800219Y-126060104D01*
X64895457Y-126012485D01*
X64990695Y-126012485D01*
X65133552Y-126060104D01*
X65704980Y-126631533D01*
X65704980Y-126012485D01*
X64800219Y-125631533D02*
X64752600Y-125583914D01*
X64704980Y-125488676D01*
X64704980Y-125250580D01*
X64752600Y-125155342D01*
X64800219Y-125107723D01*
X64895457Y-125060104D01*
X64990695Y-125060104D01*
X65133552Y-125107723D01*
X65704980Y-125679152D01*
X65704980Y-125060104D01*
X64704980Y-124441057D02*
X64704980Y-124345819D01*
X64752600Y-124250580D01*
X64800219Y-124202961D01*
X64895457Y-124155342D01*
X65085933Y-124107723D01*
X65324028Y-124107723D01*
X65514504Y-124155342D01*
X65609742Y-124202961D01*
X65657361Y-124250580D01*
X65704980Y-124345819D01*
X65704980Y-124441057D01*
X65657361Y-124536295D01*
X65609742Y-124583914D01*
X65514504Y-124631533D01*
X65324028Y-124679152D01*
X65085933Y-124679152D01*
X64895457Y-124631533D01*
X64800219Y-124583914D01*
X64752600Y-124536295D01*
X64704980Y-124441057D01*
X65704980Y-123631533D02*
X65704980Y-123441057D01*
X65657361Y-123345819D01*
X65609742Y-123298200D01*
X65466885Y-123202961D01*
X65276409Y-123155342D01*
X64895457Y-123155342D01*
X64800219Y-123202961D01*
X64752600Y-123250580D01*
X64704980Y-123345819D01*
X64704980Y-123536295D01*
X64752600Y-123631533D01*
X64800219Y-123679152D01*
X64895457Y-123726771D01*
X65133552Y-123726771D01*
X65228790Y-123679152D01*
X65276409Y-123631533D01*
X65324028Y-123536295D01*
X65324028Y-123345819D01*
X65276409Y-123250580D01*
X65228790Y-123202961D01*
X65133552Y-123155342D01*
X64704980Y-122536295D02*
X64704980Y-122441057D01*
X64752600Y-122345819D01*
X64800219Y-122298200D01*
X64895457Y-122250580D01*
X65085933Y-122202961D01*
X65324028Y-122202961D01*
X65514504Y-122250580D01*
X65609742Y-122298200D01*
X65657361Y-122345819D01*
X65704980Y-122441057D01*
X65704980Y-122536295D01*
X65657361Y-122631533D01*
X65609742Y-122679152D01*
X65514504Y-122726771D01*
X65324028Y-122774390D01*
X65085933Y-122774390D01*
X64895457Y-122726771D01*
X64800219Y-122679152D01*
X64752600Y-122631533D01*
X64704980Y-122536295D01*
X64704980Y-121298200D02*
X64704980Y-121774390D01*
X65181171Y-121822009D01*
X65133552Y-121774390D01*
X65085933Y-121679152D01*
X65085933Y-121441057D01*
X65133552Y-121345819D01*
X65181171Y-121298200D01*
X65276409Y-121250580D01*
X65514504Y-121250580D01*
X65609742Y-121298200D01*
X65657361Y-121345819D01*
X65704980Y-121441057D01*
X65704980Y-121679152D01*
X65657361Y-121774390D01*
X65609742Y-121822009D01*
X79906400Y-131359785D02*
X79906400Y-131002642D01*
X80120685Y-131431214D02*
X79370685Y-131181214D01*
X80120685Y-130931214D01*
X79620685Y-130359785D02*
X80120685Y-130359785D01*
X79334971Y-130538357D02*
X79870685Y-130716928D01*
X79870685Y-130252642D01*
X137553500Y-133788357D02*
X137553500Y-133038357D01*
X138122428Y-133359785D02*
X138158142Y-133252642D01*
X138193857Y-133216928D01*
X138265285Y-133181214D01*
X138372428Y-133181214D01*
X138443857Y-133216928D01*
X138479571Y-133252642D01*
X138515285Y-133324071D01*
X138515285Y-133609785D01*
X137765285Y-133609785D01*
X137765285Y-133359785D01*
X137801000Y-133288357D01*
X137836714Y-133252642D01*
X137908142Y-133216928D01*
X137979571Y-133216928D01*
X138051000Y-133252642D01*
X138086714Y-133288357D01*
X138122428Y-133359785D01*
X138122428Y-133609785D01*
X137553500Y-133038357D02*
X137553500Y-132288357D01*
X137801000Y-132466928D02*
X137765285Y-132538357D01*
X137765285Y-132645500D01*
X137801000Y-132752642D01*
X137872428Y-132824071D01*
X137943857Y-132859785D01*
X138086714Y-132895500D01*
X138193857Y-132895500D01*
X138336714Y-132859785D01*
X138408142Y-132824071D01*
X138479571Y-132752642D01*
X138515285Y-132645500D01*
X138515285Y-132574071D01*
X138479571Y-132466928D01*
X138443857Y-132431214D01*
X138193857Y-132431214D01*
X138193857Y-132574071D01*
X137553500Y-132288357D02*
X137553500Y-131645500D01*
X138301000Y-132145500D02*
X138301000Y-131788357D01*
X138515285Y-132216928D02*
X137765285Y-131966928D01*
X138515285Y-131716928D01*
X137553500Y-131645500D02*
X137553500Y-130895500D01*
X138443857Y-131038357D02*
X138479571Y-131074071D01*
X138515285Y-131181214D01*
X138515285Y-131252642D01*
X138479571Y-131359785D01*
X138408142Y-131431214D01*
X138336714Y-131466928D01*
X138193857Y-131502642D01*
X138086714Y-131502642D01*
X137943857Y-131466928D01*
X137872428Y-131431214D01*
X137801000Y-131359785D01*
X137765285Y-131252642D01*
X137765285Y-131181214D01*
X137801000Y-131074071D01*
X137836714Y-131038357D01*
X137553500Y-130895500D02*
X137553500Y-130145500D01*
X138515285Y-130716928D02*
X137765285Y-130716928D01*
X138515285Y-130288357D02*
X138086714Y-130609785D01*
X137765285Y-130288357D02*
X138193857Y-130716928D01*
X82446400Y-122441642D02*
X82446400Y-122084500D01*
X82660685Y-122513071D02*
X81910685Y-122263071D01*
X82660685Y-122013071D01*
X81910685Y-121834500D02*
X81910685Y-121334500D01*
X82660685Y-121655928D01*
X97686400Y-132074071D02*
X97686400Y-131716928D01*
X97900685Y-132145500D02*
X97150685Y-131895500D01*
X97900685Y-131645500D01*
X97900685Y-131002642D02*
X97900685Y-131431214D01*
X97900685Y-131216928D02*
X97150685Y-131216928D01*
X97257828Y-131288357D01*
X97329257Y-131359785D01*
X97364971Y-131431214D01*
X97472114Y-130574071D02*
X97436400Y-130645500D01*
X97400685Y-130681214D01*
X97329257Y-130716928D01*
X97293542Y-130716928D01*
X97222114Y-130681214D01*
X97186400Y-130645500D01*
X97150685Y-130574071D01*
X97150685Y-130431214D01*
X97186400Y-130359785D01*
X97222114Y-130324071D01*
X97293542Y-130288357D01*
X97329257Y-130288357D01*
X97400685Y-130324071D01*
X97436400Y-130359785D01*
X97472114Y-130431214D01*
X97472114Y-130574071D01*
X97507828Y-130645500D01*
X97543542Y-130681214D01*
X97614971Y-130716928D01*
X97757828Y-130716928D01*
X97829257Y-130681214D01*
X97864971Y-130645500D01*
X97900685Y-130574071D01*
X97900685Y-130431214D01*
X97864971Y-130359785D01*
X97829257Y-130324071D01*
X97757828Y-130288357D01*
X97614971Y-130288357D01*
X97543542Y-130324071D01*
X97507828Y-130359785D01*
X97472114Y-130431214D01*
X105495285Y-122405928D02*
X104745285Y-122405928D01*
X104745285Y-122227357D01*
X104781000Y-122120214D01*
X104852428Y-122048785D01*
X104923857Y-122013071D01*
X105066714Y-121977357D01*
X105173857Y-121977357D01*
X105316714Y-122013071D01*
X105388142Y-122048785D01*
X105459571Y-122120214D01*
X105495285Y-122227357D01*
X105495285Y-122405928D01*
X105495285Y-121263071D02*
X105495285Y-121691642D01*
X105495285Y-121477357D02*
X104745285Y-121477357D01*
X104852428Y-121548785D01*
X104923857Y-121620214D01*
X104959571Y-121691642D01*
X125815285Y-131145500D02*
X125458142Y-131395500D01*
X125815285Y-131574071D02*
X125065285Y-131574071D01*
X125065285Y-131288357D01*
X125101000Y-131216928D01*
X125136714Y-131181214D01*
X125208142Y-131145500D01*
X125315285Y-131145500D01*
X125386714Y-131181214D01*
X125422428Y-131216928D01*
X125458142Y-131288357D01*
X125458142Y-131574071D01*
X124853500Y-131002642D02*
X124853500Y-130145500D01*
X125065285Y-130895500D02*
X125815285Y-130716928D01*
X125279571Y-130574071D01*
X125815285Y-130431214D01*
X125065285Y-130252642D01*
X129933500Y-133538357D02*
X129933500Y-132788357D01*
X130895285Y-132931214D02*
X130538142Y-133181214D01*
X130895285Y-133359785D02*
X130145285Y-133359785D01*
X130145285Y-133074071D01*
X130181000Y-133002642D01*
X130216714Y-132966928D01*
X130288142Y-132931214D01*
X130395285Y-132931214D01*
X130466714Y-132966928D01*
X130502428Y-133002642D01*
X130538142Y-133074071D01*
X130538142Y-133359785D01*
X129933500Y-132788357D02*
X129933500Y-132109785D01*
X130502428Y-132609785D02*
X130502428Y-132359785D01*
X130895285Y-132252642D02*
X130895285Y-132609785D01*
X130145285Y-132609785D01*
X130145285Y-132252642D01*
X129933500Y-132109785D02*
X129933500Y-131395500D01*
X130859571Y-131966928D02*
X130895285Y-131859785D01*
X130895285Y-131681214D01*
X130859571Y-131609785D01*
X130823857Y-131574071D01*
X130752428Y-131538357D01*
X130681000Y-131538357D01*
X130609571Y-131574071D01*
X130573857Y-131609785D01*
X130538142Y-131681214D01*
X130502428Y-131824071D01*
X130466714Y-131895500D01*
X130431000Y-131931214D01*
X130359571Y-131966928D01*
X130288142Y-131966928D01*
X130216714Y-131931214D01*
X130181000Y-131895500D01*
X130145285Y-131824071D01*
X130145285Y-131645500D01*
X130181000Y-131538357D01*
X129933500Y-131395500D02*
X129933500Y-130716928D01*
X130502428Y-131216928D02*
X130502428Y-130966928D01*
X130895285Y-130859785D02*
X130895285Y-131216928D01*
X130145285Y-131216928D01*
X130145285Y-130859785D01*
X129933500Y-130716928D02*
X129933500Y-130145500D01*
X130145285Y-130645500D02*
X130145285Y-130216928D01*
X130895285Y-130431214D02*
X130145285Y-130431214D01*
X100226400Y-132074071D02*
X100226400Y-131716928D01*
X100440685Y-132145500D02*
X99690685Y-131895500D01*
X100440685Y-131645500D01*
X99762114Y-131431214D02*
X99726400Y-131395500D01*
X99690685Y-131324071D01*
X99690685Y-131145500D01*
X99726400Y-131074071D01*
X99762114Y-131038357D01*
X99833542Y-131002642D01*
X99904971Y-131002642D01*
X100012114Y-131038357D01*
X100440685Y-131466928D01*
X100440685Y-131002642D01*
X99690685Y-130538357D02*
X99690685Y-130466928D01*
X99726400Y-130395500D01*
X99762114Y-130359785D01*
X99833542Y-130324071D01*
X99976400Y-130288357D01*
X100154971Y-130288357D01*
X100297828Y-130324071D01*
X100369257Y-130359785D01*
X100404971Y-130395500D01*
X100440685Y-130466928D01*
X100440685Y-130538357D01*
X100404971Y-130609785D01*
X100369257Y-130645500D01*
X100297828Y-130681214D01*
X100154971Y-130716928D01*
X99976400Y-130716928D01*
X99833542Y-130681214D01*
X99762114Y-130645500D01*
X99726400Y-130609785D01*
X99690685Y-130538357D01*
X123153057Y-121977357D02*
X123188771Y-122013071D01*
X123224485Y-122120214D01*
X123224485Y-122191642D01*
X123188771Y-122298785D01*
X123117342Y-122370214D01*
X123045914Y-122405928D01*
X122903057Y-122441642D01*
X122795914Y-122441642D01*
X122653057Y-122405928D01*
X122581628Y-122370214D01*
X122510200Y-122298785D01*
X122474485Y-122191642D01*
X122474485Y-122120214D01*
X122510200Y-122013071D01*
X122545914Y-121977357D01*
X123224485Y-121298785D02*
X123224485Y-121655928D01*
X122474485Y-121655928D01*
X123224485Y-121048785D02*
X122474485Y-121048785D01*
X123224485Y-120620214D02*
X122795914Y-120941642D01*
X122474485Y-120620214D02*
X122903057Y-121048785D01*
X95095600Y-122441642D02*
X95095600Y-122084500D01*
X95309885Y-122513071D02*
X94559885Y-122263071D01*
X95309885Y-122013071D01*
X95309885Y-121370214D02*
X95309885Y-121798785D01*
X95309885Y-121584500D02*
X94559885Y-121584500D01*
X94667028Y-121655928D01*
X94738457Y-121727357D01*
X94774171Y-121798785D01*
X94559885Y-121120214D02*
X94559885Y-120620214D01*
X95309885Y-120941642D01*
X92606400Y-122441642D02*
X92606400Y-122084500D01*
X92820685Y-122513071D02*
X92070685Y-122263071D01*
X92820685Y-122013071D01*
X92820685Y-121370214D02*
X92820685Y-121798785D01*
X92820685Y-121584500D02*
X92070685Y-121584500D01*
X92177828Y-121655928D01*
X92249257Y-121727357D01*
X92284971Y-121798785D01*
X92070685Y-120691642D02*
X92070685Y-121048785D01*
X92427828Y-121084500D01*
X92392114Y-121048785D01*
X92356400Y-120977357D01*
X92356400Y-120798785D01*
X92392114Y-120727357D01*
X92427828Y-120691642D01*
X92499257Y-120655928D01*
X92677828Y-120655928D01*
X92749257Y-120691642D01*
X92784971Y-120727357D01*
X92820685Y-120798785D01*
X92820685Y-120977357D01*
X92784971Y-121048785D01*
X92749257Y-121084500D01*
X124853500Y-122584500D02*
X124853500Y-121941642D01*
X125601000Y-122441642D02*
X125601000Y-122084500D01*
X125815285Y-122513071D02*
X125065285Y-122263071D01*
X125815285Y-122013071D01*
X124853500Y-121941642D02*
X124853500Y-121227357D01*
X125779571Y-121798785D02*
X125815285Y-121691642D01*
X125815285Y-121513071D01*
X125779571Y-121441642D01*
X125743857Y-121405928D01*
X125672428Y-121370214D01*
X125601000Y-121370214D01*
X125529571Y-121405928D01*
X125493857Y-121441642D01*
X125458142Y-121513071D01*
X125422428Y-121655928D01*
X125386714Y-121727357D01*
X125351000Y-121763071D01*
X125279571Y-121798785D01*
X125208142Y-121798785D01*
X125136714Y-121763071D01*
X125101000Y-121727357D01*
X125065285Y-121655928D01*
X125065285Y-121477357D01*
X125101000Y-121370214D01*
X74877200Y-131359785D02*
X74877200Y-131002642D01*
X75091485Y-131431214D02*
X74341485Y-131181214D01*
X75091485Y-130931214D01*
X74341485Y-130538357D02*
X74341485Y-130466928D01*
X74377200Y-130395500D01*
X74412914Y-130359785D01*
X74484342Y-130324071D01*
X74627200Y-130288357D01*
X74805771Y-130288357D01*
X74948628Y-130324071D01*
X75020057Y-130359785D01*
X75055771Y-130395500D01*
X75091485Y-130466928D01*
X75091485Y-130538357D01*
X75055771Y-130609785D01*
X75020057Y-130645500D01*
X74948628Y-130681214D01*
X74805771Y-130716928D01*
X74627200Y-130716928D01*
X74484342Y-130681214D01*
X74412914Y-130645500D01*
X74377200Y-130609785D01*
X74341485Y-130538357D01*
X135582428Y-130645500D02*
X135582428Y-130395500D01*
X135975285Y-130288357D02*
X135975285Y-130645500D01*
X135225285Y-130645500D01*
X135225285Y-130288357D01*
X142633500Y-132574071D02*
X142633500Y-132216928D01*
X143595285Y-132395500D02*
X142845285Y-132395500D01*
X142633500Y-132216928D02*
X142633500Y-131466928D01*
X143595285Y-132038357D02*
X142845285Y-132038357D01*
X142845285Y-131752642D01*
X142881000Y-131681214D01*
X142916714Y-131645500D01*
X142988142Y-131609785D01*
X143095285Y-131609785D01*
X143166714Y-131645500D01*
X143202428Y-131681214D01*
X143238142Y-131752642D01*
X143238142Y-132038357D01*
X142633500Y-131466928D02*
X142633500Y-130859785D01*
X143595285Y-130931214D02*
X143595285Y-131288357D01*
X142845285Y-131288357D01*
X142633500Y-130859785D02*
X142633500Y-130145500D01*
X142845285Y-130538357D02*
X142845285Y-130466928D01*
X142881000Y-130395500D01*
X142916714Y-130359785D01*
X142988142Y-130324071D01*
X143131000Y-130288357D01*
X143309571Y-130288357D01*
X143452428Y-130324071D01*
X143523857Y-130359785D01*
X143559571Y-130395500D01*
X143595285Y-130466928D01*
X143595285Y-130538357D01*
X143559571Y-130609785D01*
X143523857Y-130645500D01*
X143452428Y-130681214D01*
X143309571Y-130716928D01*
X143131000Y-130716928D01*
X142988142Y-130681214D01*
X142916714Y-130645500D01*
X142881000Y-130609785D01*
X142845285Y-130538357D01*
X110524485Y-122405928D02*
X109774485Y-122405928D01*
X109774485Y-122227357D01*
X109810200Y-122120214D01*
X109881628Y-122048785D01*
X109953057Y-122013071D01*
X110095914Y-121977357D01*
X110203057Y-121977357D01*
X110345914Y-122013071D01*
X110417342Y-122048785D01*
X110488771Y-122120214D01*
X110524485Y-122227357D01*
X110524485Y-122405928D01*
X109774485Y-121298785D02*
X109774485Y-121655928D01*
X110131628Y-121691642D01*
X110095914Y-121655928D01*
X110060200Y-121584500D01*
X110060200Y-121405928D01*
X110095914Y-121334500D01*
X110131628Y-121298785D01*
X110203057Y-121263071D01*
X110381628Y-121263071D01*
X110453057Y-121298785D01*
X110488771Y-121334500D01*
X110524485Y-121405928D01*
X110524485Y-121584500D01*
X110488771Y-121655928D01*
X110453057Y-121691642D01*
X82471800Y-131359785D02*
X82471800Y-131002642D01*
X82686085Y-131431214D02*
X81936085Y-131181214D01*
X82686085Y-130931214D01*
X81936085Y-130359785D02*
X81936085Y-130502642D01*
X81971800Y-130574071D01*
X82007514Y-130609785D01*
X82114657Y-130681214D01*
X82257514Y-130716928D01*
X82543228Y-130716928D01*
X82614657Y-130681214D01*
X82650371Y-130645500D01*
X82686085Y-130574071D01*
X82686085Y-130431214D01*
X82650371Y-130359785D01*
X82614657Y-130324071D01*
X82543228Y-130288357D01*
X82364657Y-130288357D01*
X82293228Y-130324071D01*
X82257514Y-130359785D01*
X82221800Y-130431214D01*
X82221800Y-130574071D01*
X82257514Y-130645500D01*
X82293228Y-130681214D01*
X82364657Y-130716928D01*
X84910200Y-122441642D02*
X84910200Y-122084500D01*
X85124485Y-122513071D02*
X84374485Y-122263071D01*
X85124485Y-122013071D01*
X85124485Y-121727357D02*
X85124485Y-121584500D01*
X85088771Y-121513071D01*
X85053057Y-121477357D01*
X84945914Y-121405928D01*
X84803057Y-121370214D01*
X84517342Y-121370214D01*
X84445914Y-121405928D01*
X84410200Y-121441642D01*
X84374485Y-121513071D01*
X84374485Y-121655928D01*
X84410200Y-121727357D01*
X84445914Y-121763071D01*
X84517342Y-121798785D01*
X84695914Y-121798785D01*
X84767342Y-121763071D01*
X84803057Y-121727357D01*
X84838771Y-121655928D01*
X84838771Y-121513071D01*
X84803057Y-121441642D01*
X84767342Y-121405928D01*
X84695914Y-121370214D01*
X129908100Y-122584500D02*
X129908100Y-121798785D01*
X130869885Y-122405928D02*
X130119885Y-122405928D01*
X130477028Y-122405928D02*
X130477028Y-121977357D01*
X130869885Y-121977357D02*
X130119885Y-121977357D01*
X129908100Y-121798785D02*
X129908100Y-121155928D01*
X130655600Y-121655928D02*
X130655600Y-121298785D01*
X130869885Y-121727357D02*
X130119885Y-121477357D01*
X130869885Y-121227357D01*
X129908100Y-121155928D02*
X129908100Y-120548785D01*
X130869885Y-120620214D02*
X130869885Y-120977357D01*
X130119885Y-120977357D01*
X129908100Y-120548785D02*
X129908100Y-119977357D01*
X130119885Y-120477357D02*
X130119885Y-120048785D01*
X130869885Y-120263071D02*
X130119885Y-120263071D01*
D11*
X92235523Y-92805047D02*
X92806952Y-92995523D01*
X93759333Y-92995523D01*
X94140285Y-92805047D01*
X94330761Y-92614571D01*
X94521238Y-92233619D01*
X94521238Y-91852666D01*
X94330761Y-91471714D01*
X94140285Y-91281238D01*
X93759333Y-91090761D01*
X92997428Y-90900285D01*
X92616476Y-90709809D01*
X92426000Y-90519333D01*
X92235523Y-90138380D01*
X92235523Y-89757428D01*
X92426000Y-89376476D01*
X92616476Y-89186000D01*
X92997428Y-88995523D01*
X93949809Y-88995523D01*
X94521238Y-89186000D01*
X95664095Y-90328857D02*
X97187904Y-90328857D01*
X96235523Y-88995523D02*
X96235523Y-92424095D01*
X96426000Y-92805047D01*
X96806952Y-92995523D01*
X97187904Y-92995523D01*
X100045047Y-92805047D02*
X99664095Y-92995523D01*
X98902190Y-92995523D01*
X98521238Y-92805047D01*
X98330761Y-92424095D01*
X98330761Y-90900285D01*
X98521238Y-90519333D01*
X98902190Y-90328857D01*
X99664095Y-90328857D01*
X100045047Y-90519333D01*
X100235523Y-90900285D01*
X100235523Y-91281238D01*
X98330761Y-91662190D01*
X101568857Y-90328857D02*
X102521238Y-92995523D01*
X103473619Y-90328857D01*
X106521238Y-92805047D02*
X106140285Y-92995523D01*
X105378380Y-92995523D01*
X104997428Y-92805047D01*
X104806952Y-92424095D01*
X104806952Y-90900285D01*
X104997428Y-90519333D01*
X105378380Y-90328857D01*
X106140285Y-90328857D01*
X106521238Y-90519333D01*
X106711714Y-90900285D01*
X106711714Y-91281238D01*
X104806952Y-91662190D01*
X113187904Y-88995523D02*
X112426000Y-88995523D01*
X112045047Y-89186000D01*
X111854571Y-89376476D01*
X111473619Y-89947904D01*
X111283142Y-90709809D01*
X111283142Y-92233619D01*
X111473619Y-92614571D01*
X111664095Y-92805047D01*
X112045047Y-92995523D01*
X112806952Y-92995523D01*
X113187904Y-92805047D01*
X113378380Y-92614571D01*
X113568857Y-92233619D01*
X113568857Y-91281238D01*
X113378380Y-90900285D01*
X113187904Y-90709809D01*
X112806952Y-90519333D01*
X112045047Y-90519333D01*
X111664095Y-90709809D01*
X111473619Y-90900285D01*
X111283142Y-91281238D01*
X115854571Y-90709809D02*
X115473619Y-90519333D01*
X115283142Y-90328857D01*
X115092666Y-89947904D01*
X115092666Y-89757428D01*
X115283142Y-89376476D01*
X115473619Y-89186000D01*
X115854571Y-88995523D01*
X116616476Y-88995523D01*
X116997428Y-89186000D01*
X117187904Y-89376476D01*
X117378380Y-89757428D01*
X117378380Y-89947904D01*
X117187904Y-90328857D01*
X116997428Y-90519333D01*
X116616476Y-90709809D01*
X115854571Y-90709809D01*
X115473619Y-90900285D01*
X115283142Y-91090761D01*
X115092666Y-91471714D01*
X115092666Y-92233619D01*
X115283142Y-92614571D01*
X115473619Y-92805047D01*
X115854571Y-92995523D01*
X116616476Y-92995523D01*
X116997428Y-92805047D01*
X117187904Y-92614571D01*
X117378380Y-92233619D01*
X117378380Y-91471714D01*
X117187904Y-91090761D01*
X116997428Y-90900285D01*
X116616476Y-90709809D01*
X119092666Y-92995523D02*
X119092666Y-88995523D01*
X119473619Y-91471714D02*
X120616476Y-92995523D01*
X120616476Y-90328857D02*
X119092666Y-91852666D01*
D10*
X87501000Y-122441642D02*
X87501000Y-122084500D01*
X87715285Y-122513071D02*
X86965285Y-122263071D01*
X87715285Y-122013071D01*
X87715285Y-121370214D02*
X87715285Y-121798785D01*
X87715285Y-121584500D02*
X86965285Y-121584500D01*
X87072428Y-121655928D01*
X87143857Y-121727357D01*
X87179571Y-121798785D01*
X87715285Y-120655928D02*
X87715285Y-121084500D01*
X87715285Y-120870214D02*
X86965285Y-120870214D01*
X87072428Y-120941642D01*
X87143857Y-121013071D01*
X87179571Y-121084500D01*
X113089885Y-122405928D02*
X112339885Y-122405928D01*
X112339885Y-122227357D01*
X112375600Y-122120214D01*
X112447028Y-122048785D01*
X112518457Y-122013071D01*
X112661314Y-121977357D01*
X112768457Y-121977357D01*
X112911314Y-122013071D01*
X112982742Y-122048785D01*
X113054171Y-122120214D01*
X113089885Y-122227357D01*
X113089885Y-122405928D01*
X112339885Y-121727357D02*
X112339885Y-121227357D01*
X113089885Y-121548785D01*
X142633500Y-122584500D02*
X142633500Y-122227357D01*
X143595285Y-122405928D02*
X142845285Y-122405928D01*
X142633500Y-122227357D02*
X142633500Y-121477357D01*
X143595285Y-122048785D02*
X142845285Y-122048785D01*
X142845285Y-121763071D01*
X142881000Y-121691642D01*
X142916714Y-121655928D01*
X142988142Y-121620214D01*
X143095285Y-121620214D01*
X143166714Y-121655928D01*
X143202428Y-121691642D01*
X143238142Y-121763071D01*
X143238142Y-122048785D01*
X142633500Y-121477357D02*
X142633500Y-120870214D01*
X143595285Y-120941642D02*
X143595285Y-121298785D01*
X142845285Y-121298785D01*
X142633500Y-120870214D02*
X142633500Y-120155928D01*
X143595285Y-120298785D02*
X143595285Y-120727357D01*
X143595285Y-120513071D02*
X142845285Y-120513071D01*
X142952428Y-120584500D01*
X143023857Y-120655928D01*
X143059571Y-120727357D01*
X92606400Y-132074071D02*
X92606400Y-131716928D01*
X92820685Y-132145500D02*
X92070685Y-131895500D01*
X92820685Y-131645500D01*
X92820685Y-131002642D02*
X92820685Y-131431214D01*
X92820685Y-131216928D02*
X92070685Y-131216928D01*
X92177828Y-131288357D01*
X92249257Y-131359785D01*
X92284971Y-131431214D01*
X92320685Y-130359785D02*
X92820685Y-130359785D01*
X92034971Y-130538357D02*
X92570685Y-130716928D01*
X92570685Y-130252642D01*
X145173500Y-132574071D02*
X145173500Y-132216928D01*
X146135285Y-132395500D02*
X145385285Y-132395500D01*
X145173500Y-132216928D02*
X145173500Y-131466928D01*
X146135285Y-132038357D02*
X145385285Y-132038357D01*
X145385285Y-131752642D01*
X145421000Y-131681214D01*
X145456714Y-131645500D01*
X145528142Y-131609785D01*
X145635285Y-131609785D01*
X145706714Y-131645500D01*
X145742428Y-131681214D01*
X145778142Y-131752642D01*
X145778142Y-132038357D01*
X145173500Y-131466928D02*
X145173500Y-130859785D01*
X146135285Y-130931214D02*
X146135285Y-131288357D01*
X145385285Y-131288357D01*
X145173500Y-130859785D02*
X145173500Y-130145500D01*
X145456714Y-130716928D02*
X145421000Y-130681214D01*
X145385285Y-130609785D01*
X145385285Y-130431214D01*
X145421000Y-130359785D01*
X145456714Y-130324071D01*
X145528142Y-130288357D01*
X145599571Y-130288357D01*
X145706714Y-130324071D01*
X146135285Y-130752642D01*
X146135285Y-130288357D01*
X108035285Y-131431214D02*
X107285285Y-131431214D01*
X107285285Y-131252642D01*
X107321000Y-131145500D01*
X107392428Y-131074071D01*
X107463857Y-131038357D01*
X107606714Y-131002642D01*
X107713857Y-131002642D01*
X107856714Y-131038357D01*
X107928142Y-131074071D01*
X107999571Y-131145500D01*
X108035285Y-131252642D01*
X108035285Y-131431214D01*
X107356714Y-130716928D02*
X107321000Y-130681214D01*
X107285285Y-130609785D01*
X107285285Y-130431214D01*
X107321000Y-130359785D01*
X107356714Y-130324071D01*
X107428142Y-130288357D01*
X107499571Y-130288357D01*
X107606714Y-130324071D01*
X108035285Y-130752642D01*
X108035285Y-130288357D01*
X74750200Y-122441642D02*
X74750200Y-122084500D01*
X74964485Y-122513071D02*
X74214485Y-122263071D01*
X74964485Y-122013071D01*
X74964485Y-121370214D02*
X74964485Y-121798785D01*
X74964485Y-121584500D02*
X74214485Y-121584500D01*
X74321628Y-121655928D01*
X74393057Y-121727357D01*
X74428771Y-121798785D01*
D12*
X92148285Y-96436571D02*
X92148285Y-94936571D01*
X92505428Y-94936571D01*
X92719714Y-95008000D01*
X92862571Y-95150857D01*
X92934000Y-95293714D01*
X93005428Y-95579428D01*
X93005428Y-95793714D01*
X92934000Y-96079428D01*
X92862571Y-96222285D01*
X92719714Y-96365142D01*
X92505428Y-96436571D01*
X92148285Y-96436571D01*
X94219714Y-96365142D02*
X94076857Y-96436571D01*
X93791142Y-96436571D01*
X93648285Y-96365142D01*
X93576857Y-96222285D01*
X93576857Y-95650857D01*
X93648285Y-95508000D01*
X93791142Y-95436571D01*
X94076857Y-95436571D01*
X94219714Y-95508000D01*
X94291142Y-95650857D01*
X94291142Y-95793714D01*
X93576857Y-95936571D01*
X94862571Y-96365142D02*
X95005428Y-96436571D01*
X95291142Y-96436571D01*
X95434000Y-96365142D01*
X95505428Y-96222285D01*
X95505428Y-96150857D01*
X95434000Y-96008000D01*
X95291142Y-95936571D01*
X95076857Y-95936571D01*
X94934000Y-95865142D01*
X94862571Y-95722285D01*
X94862571Y-95650857D01*
X94934000Y-95508000D01*
X95076857Y-95436571D01*
X95291142Y-95436571D01*
X95434000Y-95508000D01*
X96148285Y-96436571D02*
X96148285Y-95436571D01*
X96148285Y-94936571D02*
X96076857Y-95008000D01*
X96148285Y-95079428D01*
X96219714Y-95008000D01*
X96148285Y-94936571D01*
X96148285Y-95079428D01*
X97505428Y-95436571D02*
X97505428Y-96650857D01*
X97434000Y-96793714D01*
X97362571Y-96865142D01*
X97219714Y-96936571D01*
X97005428Y-96936571D01*
X96862571Y-96865142D01*
X97505428Y-96365142D02*
X97362571Y-96436571D01*
X97076857Y-96436571D01*
X96934000Y-96365142D01*
X96862571Y-96293714D01*
X96791142Y-96150857D01*
X96791142Y-95722285D01*
X96862571Y-95579428D01*
X96934000Y-95508000D01*
X97076857Y-95436571D01*
X97362571Y-95436571D01*
X97505428Y-95508000D01*
X98219714Y-95436571D02*
X98219714Y-96436571D01*
X98219714Y-95579428D02*
X98291142Y-95508000D01*
X98434000Y-95436571D01*
X98648285Y-95436571D01*
X98791142Y-95508000D01*
X98862571Y-95650857D01*
X98862571Y-96436571D01*
X100148285Y-96365142D02*
X100005428Y-96436571D01*
X99719714Y-96436571D01*
X99576857Y-96365142D01*
X99505428Y-96222285D01*
X99505428Y-95650857D01*
X99576857Y-95508000D01*
X99719714Y-95436571D01*
X100005428Y-95436571D01*
X100148285Y-95508000D01*
X100219714Y-95650857D01*
X100219714Y-95793714D01*
X99505428Y-95936571D01*
X101505428Y-96436571D02*
X101505428Y-94936571D01*
X101505428Y-96365142D02*
X101362571Y-96436571D01*
X101076857Y-96436571D01*
X100934000Y-96365142D01*
X100862571Y-96293714D01*
X100791142Y-96150857D01*
X100791142Y-95722285D01*
X100862571Y-95579428D01*
X100934000Y-95508000D01*
X101076857Y-95436571D01*
X101362571Y-95436571D01*
X101505428Y-95508000D01*
X103362571Y-96436571D02*
X103362571Y-94936571D01*
X103362571Y-95508000D02*
X103505428Y-95436571D01*
X103791142Y-95436571D01*
X103934000Y-95508000D01*
X104005428Y-95579428D01*
X104076857Y-95722285D01*
X104076857Y-96150857D01*
X104005428Y-96293714D01*
X103934000Y-96365142D01*
X103791142Y-96436571D01*
X103505428Y-96436571D01*
X103362571Y-96365142D01*
X104576857Y-95436571D02*
X104933999Y-96436571D01*
X105291142Y-95436571D02*
X104933999Y-96436571D01*
X104791142Y-96793714D01*
X104719714Y-96865142D01*
X104576857Y-96936571D01*
X106933999Y-96365142D02*
X107148285Y-96436571D01*
X107505428Y-96436571D01*
X107648285Y-96365142D01*
X107719714Y-96293714D01*
X107791142Y-96150857D01*
X107791142Y-96008000D01*
X107719714Y-95865142D01*
X107648285Y-95793714D01*
X107505428Y-95722285D01*
X107219714Y-95650857D01*
X107076857Y-95579428D01*
X107005428Y-95508000D01*
X106933999Y-95365142D01*
X106933999Y-95222285D01*
X107005428Y-95079428D01*
X107076857Y-95008000D01*
X107219714Y-94936571D01*
X107576857Y-94936571D01*
X107791142Y-95008000D01*
X108219714Y-95436571D02*
X108791142Y-95436571D01*
X108433999Y-94936571D02*
X108433999Y-96222285D01*
X108505428Y-96365142D01*
X108648285Y-96436571D01*
X108791142Y-96436571D01*
X109862571Y-96365142D02*
X109719714Y-96436571D01*
X109434000Y-96436571D01*
X109291142Y-96365142D01*
X109219714Y-96222285D01*
X109219714Y-95650857D01*
X109291142Y-95508000D01*
X109434000Y-95436571D01*
X109719714Y-95436571D01*
X109862571Y-95508000D01*
X109934000Y-95650857D01*
X109934000Y-95793714D01*
X109219714Y-95936571D01*
X110434000Y-95436571D02*
X110791142Y-96436571D01*
X111148285Y-95436571D01*
X112291142Y-96365142D02*
X112148285Y-96436571D01*
X111862571Y-96436571D01*
X111719714Y-96365142D01*
X111648285Y-96222285D01*
X111648285Y-95650857D01*
X111719714Y-95508000D01*
X111862571Y-95436571D01*
X112148285Y-95436571D01*
X112291142Y-95508000D01*
X112362571Y-95650857D01*
X112362571Y-95793714D01*
X111648285Y-95936571D01*
X114934000Y-95008000D02*
X114791142Y-94936571D01*
X114576857Y-94936571D01*
X114362571Y-95008000D01*
X114219714Y-95150857D01*
X114148285Y-95293714D01*
X114076857Y-95579428D01*
X114076857Y-95793714D01*
X114148285Y-96079428D01*
X114219714Y-96222285D01*
X114362571Y-96365142D01*
X114576857Y-96436571D01*
X114719714Y-96436571D01*
X114934000Y-96365142D01*
X115005428Y-96293714D01*
X115005428Y-95793714D01*
X114719714Y-95793714D01*
X115862571Y-96436571D02*
X115719714Y-96365142D01*
X115648285Y-96293714D01*
X115576857Y-96150857D01*
X115576857Y-95722285D01*
X115648285Y-95579428D01*
X115719714Y-95508000D01*
X115862571Y-95436571D01*
X116076857Y-95436571D01*
X116219714Y-95508000D01*
X116291142Y-95579428D01*
X116362571Y-95722285D01*
X116362571Y-96150857D01*
X116291142Y-96293714D01*
X116219714Y-96365142D01*
X116076857Y-96436571D01*
X115862571Y-96436571D01*
X116862571Y-95436571D02*
X117219714Y-96436571D01*
X117576857Y-95436571D02*
X117219714Y-96436571D01*
X117076857Y-96793714D01*
X117005428Y-96865142D01*
X116862571Y-96936571D01*
X118719714Y-96365142D02*
X118576857Y-96436571D01*
X118291142Y-96436571D01*
X118148285Y-96365142D01*
X118076857Y-96222285D01*
X118076857Y-95650857D01*
X118148285Y-95508000D01*
X118291142Y-95436571D01*
X118576857Y-95436571D01*
X118719714Y-95508000D01*
X118791142Y-95650857D01*
X118791142Y-95793714D01*
X118076857Y-95936571D01*
X119219714Y-95436571D02*
X119791142Y-95436571D01*
X119434000Y-94936571D02*
X119434000Y-96222285D01*
X119505428Y-96365142D01*
X119648285Y-96436571D01*
X119791142Y-96436571D01*
X120076857Y-95436571D02*
X120648285Y-95436571D01*
X120291142Y-94936571D02*
X120291142Y-96222285D01*
X120362571Y-96365142D01*
X120505428Y-96436571D01*
X120648285Y-96436571D01*
X121719714Y-96365142D02*
X121576857Y-96436571D01*
X121291142Y-96436571D01*
X121148285Y-96365142D01*
X121076857Y-96222285D01*
X121076857Y-95650857D01*
X121148285Y-95508000D01*
X121291142Y-95436571D01*
X121576857Y-95436571D01*
X121719714Y-95508000D01*
X121791142Y-95650857D01*
X121791142Y-95793714D01*
X121076857Y-95936571D01*
D10*
X100277200Y-122441642D02*
X100277200Y-122084500D01*
X100491485Y-122513071D02*
X99741485Y-122263071D01*
X100491485Y-122013071D01*
X99812914Y-121798785D02*
X99777200Y-121763071D01*
X99741485Y-121691642D01*
X99741485Y-121513071D01*
X99777200Y-121441642D01*
X99812914Y-121405928D01*
X99884342Y-121370214D01*
X99955771Y-121370214D01*
X100062914Y-121405928D01*
X100491485Y-121834500D01*
X100491485Y-121370214D01*
X100491485Y-120655928D02*
X100491485Y-121084500D01*
X100491485Y-120870214D02*
X99741485Y-120870214D01*
X99848628Y-120941642D01*
X99920057Y-121013071D01*
X99955771Y-121084500D01*
X107984485Y-122405928D02*
X107234485Y-122405928D01*
X107234485Y-122227357D01*
X107270200Y-122120214D01*
X107341628Y-122048785D01*
X107413057Y-122013071D01*
X107555914Y-121977357D01*
X107663057Y-121977357D01*
X107805914Y-122013071D01*
X107877342Y-122048785D01*
X107948771Y-122120214D01*
X107984485Y-122227357D01*
X107984485Y-122405928D01*
X107234485Y-121727357D02*
X107234485Y-121263071D01*
X107520200Y-121513071D01*
X107520200Y-121405928D01*
X107555914Y-121334500D01*
X107591628Y-121298785D01*
X107663057Y-121263071D01*
X107841628Y-121263071D01*
X107913057Y-121298785D01*
X107948771Y-121334500D01*
X107984485Y-121405928D01*
X107984485Y-121620214D01*
X107948771Y-121691642D01*
X107913057Y-121727357D01*
X113064485Y-131431214D02*
X112314485Y-131431214D01*
X112314485Y-131252642D01*
X112350200Y-131145500D01*
X112421628Y-131074071D01*
X112493057Y-131038357D01*
X112635914Y-131002642D01*
X112743057Y-131002642D01*
X112885914Y-131038357D01*
X112957342Y-131074071D01*
X113028771Y-131145500D01*
X113064485Y-131252642D01*
X113064485Y-131431214D01*
X112314485Y-130359785D02*
X112314485Y-130502642D01*
X112350200Y-130574071D01*
X112385914Y-130609785D01*
X112493057Y-130681214D01*
X112635914Y-130716928D01*
X112921628Y-130716928D01*
X112993057Y-130681214D01*
X113028771Y-130645500D01*
X113064485Y-130574071D01*
X113064485Y-130431214D01*
X113028771Y-130359785D01*
X112993057Y-130324071D01*
X112921628Y-130288357D01*
X112743057Y-130288357D01*
X112671628Y-130324071D01*
X112635914Y-130359785D01*
X112600200Y-130431214D01*
X112600200Y-130574071D01*
X112635914Y-130645500D01*
X112671628Y-130681214D01*
X112743057Y-130716928D01*
X90091800Y-132074071D02*
X90091800Y-131716928D01*
X90306085Y-132145500D02*
X89556085Y-131895500D01*
X90306085Y-131645500D01*
X90306085Y-131002642D02*
X90306085Y-131431214D01*
X90306085Y-131216928D02*
X89556085Y-131216928D01*
X89663228Y-131288357D01*
X89734657Y-131359785D01*
X89770371Y-131431214D01*
X89627514Y-130716928D02*
X89591800Y-130681214D01*
X89556085Y-130609785D01*
X89556085Y-130431214D01*
X89591800Y-130359785D01*
X89627514Y-130324071D01*
X89698942Y-130288357D01*
X89770371Y-130288357D01*
X89877514Y-130324071D01*
X90306085Y-130752642D01*
X90306085Y-130288357D01*
X132473500Y-133074071D02*
X132473500Y-132324071D01*
X133042428Y-132645500D02*
X133078142Y-132538357D01*
X133113857Y-132502642D01*
X133185285Y-132466928D01*
X133292428Y-132466928D01*
X133363857Y-132502642D01*
X133399571Y-132538357D01*
X133435285Y-132609785D01*
X133435285Y-132895500D01*
X132685285Y-132895500D01*
X132685285Y-132645500D01*
X132721000Y-132574071D01*
X132756714Y-132538357D01*
X132828142Y-132502642D01*
X132899571Y-132502642D01*
X132971000Y-132538357D01*
X133006714Y-132574071D01*
X133042428Y-132645500D01*
X133042428Y-132895500D01*
X132473500Y-132324071D02*
X132473500Y-131645500D01*
X133042428Y-132145500D02*
X133042428Y-131895500D01*
X133435285Y-131788357D02*
X133435285Y-132145500D01*
X132685285Y-132145500D01*
X132685285Y-131788357D01*
X132473500Y-131645500D02*
X132473500Y-130895500D01*
X133435285Y-131038357D02*
X133078142Y-131288357D01*
X133435285Y-131466928D02*
X132685285Y-131466928D01*
X132685285Y-131181214D01*
X132721000Y-131109785D01*
X132756714Y-131074071D01*
X132828142Y-131038357D01*
X132935285Y-131038357D01*
X133006714Y-131074071D01*
X133042428Y-131109785D01*
X133078142Y-131181214D01*
X133078142Y-131466928D01*
X132473500Y-130895500D02*
X132473500Y-130145500D01*
X133435285Y-130288357D02*
X133078142Y-130538357D01*
X133435285Y-130716928D02*
X132685285Y-130716928D01*
X132685285Y-130431214D01*
X132721000Y-130359785D01*
X132756714Y-130324071D01*
X132828142Y-130288357D01*
X132935285Y-130288357D01*
X133006714Y-130324071D01*
X133042428Y-130359785D01*
X133078142Y-130431214D01*
X133078142Y-130716928D01*
X97686400Y-122441642D02*
X97686400Y-122084500D01*
X97900685Y-122513071D02*
X97150685Y-122263071D01*
X97900685Y-122013071D01*
X97900685Y-121370214D02*
X97900685Y-121798785D01*
X97900685Y-121584500D02*
X97150685Y-121584500D01*
X97257828Y-121655928D01*
X97329257Y-121727357D01*
X97364971Y-121798785D01*
X97900685Y-121013071D02*
X97900685Y-120870214D01*
X97864971Y-120798785D01*
X97829257Y-120763071D01*
X97722114Y-120691642D01*
X97579257Y-120655928D01*
X97293542Y-120655928D01*
X97222114Y-120691642D01*
X97186400Y-120727357D01*
X97150685Y-120798785D01*
X97150685Y-120941642D01*
X97186400Y-121013071D01*
X97222114Y-121048785D01*
X97293542Y-121084500D01*
X97472114Y-121084500D01*
X97543542Y-121048785D01*
X97579257Y-121013071D01*
X97614971Y-120941642D01*
X97614971Y-120798785D01*
X97579257Y-120727357D01*
X97543542Y-120691642D01*
X97472114Y-120655928D01*
X110524485Y-131431214D02*
X109774485Y-131431214D01*
X109774485Y-131252642D01*
X109810200Y-131145500D01*
X109881628Y-131074071D01*
X109953057Y-131038357D01*
X110095914Y-131002642D01*
X110203057Y-131002642D01*
X110345914Y-131038357D01*
X110417342Y-131074071D01*
X110488771Y-131145500D01*
X110524485Y-131252642D01*
X110524485Y-131431214D01*
X110024485Y-130359785D02*
X110524485Y-130359785D01*
X109738771Y-130538357D02*
X110274485Y-130716928D01*
X110274485Y-130252642D01*
X105419085Y-131431214D02*
X104669085Y-131431214D01*
X104669085Y-131252642D01*
X104704800Y-131145500D01*
X104776228Y-131074071D01*
X104847657Y-131038357D01*
X104990514Y-131002642D01*
X105097657Y-131002642D01*
X105240514Y-131038357D01*
X105311942Y-131074071D01*
X105383371Y-131145500D01*
X105419085Y-131252642D01*
X105419085Y-131431214D01*
X104669085Y-130538357D02*
X104669085Y-130466928D01*
X104704800Y-130395500D01*
X104740514Y-130359785D01*
X104811942Y-130324071D01*
X104954800Y-130288357D01*
X105133371Y-130288357D01*
X105276228Y-130324071D01*
X105347657Y-130359785D01*
X105383371Y-130395500D01*
X105419085Y-130466928D01*
X105419085Y-130538357D01*
X105383371Y-130609785D01*
X105347657Y-130645500D01*
X105276228Y-130681214D01*
X105133371Y-130716928D01*
X104954800Y-130716928D01*
X104811942Y-130681214D01*
X104740514Y-130645500D01*
X104704800Y-130609785D01*
X104669085Y-130538357D01*
X95171800Y-132074071D02*
X95171800Y-131716928D01*
X95386085Y-132145500D02*
X94636085Y-131895500D01*
X95386085Y-131645500D01*
X95386085Y-131002642D02*
X95386085Y-131431214D01*
X95386085Y-131216928D02*
X94636085Y-131216928D01*
X94743228Y-131288357D01*
X94814657Y-131359785D01*
X94850371Y-131431214D01*
X94636085Y-130359785D02*
X94636085Y-130502642D01*
X94671800Y-130574071D01*
X94707514Y-130609785D01*
X94814657Y-130681214D01*
X94957514Y-130716928D01*
X95243228Y-130716928D01*
X95314657Y-130681214D01*
X95350371Y-130645500D01*
X95386085Y-130574071D01*
X95386085Y-130431214D01*
X95350371Y-130359785D01*
X95314657Y-130324071D01*
X95243228Y-130288357D01*
X95064657Y-130288357D01*
X94993228Y-130324071D01*
X94957514Y-130359785D01*
X94921800Y-130431214D01*
X94921800Y-130574071D01*
X94957514Y-130645500D01*
X94993228Y-130681214D01*
X95064657Y-130716928D01*
X77239400Y-122441642D02*
X77239400Y-122084500D01*
X77453685Y-122513071D02*
X76703685Y-122263071D01*
X77453685Y-122013071D01*
X76703685Y-121834500D02*
X76703685Y-121370214D01*
X76989400Y-121620214D01*
X76989400Y-121513071D01*
X77025114Y-121441642D01*
X77060828Y-121405928D01*
X77132257Y-121370214D01*
X77310828Y-121370214D01*
X77382257Y-121405928D01*
X77417971Y-121441642D01*
X77453685Y-121513071D01*
X77453685Y-121727357D01*
X77417971Y-121798785D01*
X77382257Y-121834500D01*
X89990200Y-122441642D02*
X89990200Y-122084500D01*
X90204485Y-122513071D02*
X89454485Y-122263071D01*
X90204485Y-122013071D01*
X90204485Y-121370214D02*
X90204485Y-121798785D01*
X90204485Y-121584500D02*
X89454485Y-121584500D01*
X89561628Y-121655928D01*
X89633057Y-121727357D01*
X89668771Y-121798785D01*
X89454485Y-121120214D02*
X89454485Y-120655928D01*
X89740200Y-120905928D01*
X89740200Y-120798785D01*
X89775914Y-120727357D01*
X89811628Y-120691642D01*
X89883057Y-120655928D01*
X90061628Y-120655928D01*
X90133057Y-120691642D01*
X90168771Y-120727357D01*
X90204485Y-120798785D01*
X90204485Y-121013071D01*
X90168771Y-121084500D01*
X90133057Y-121120214D01*
X127317300Y-122584500D02*
X127317300Y-121834500D01*
X128279085Y-122405928D02*
X127529085Y-122405928D01*
X127529085Y-122227357D01*
X127564800Y-122120214D01*
X127636228Y-122048785D01*
X127707657Y-122013071D01*
X127850514Y-121977357D01*
X127957657Y-121977357D01*
X128100514Y-122013071D01*
X128171942Y-122048785D01*
X128243371Y-122120214D01*
X128279085Y-122227357D01*
X128279085Y-122405928D01*
X127317300Y-121834500D02*
X127317300Y-121120214D01*
X128243371Y-121691642D02*
X128279085Y-121584500D01*
X128279085Y-121405928D01*
X128243371Y-121334500D01*
X128207657Y-121298785D01*
X128136228Y-121263071D01*
X128064800Y-121263071D01*
X127993371Y-121298785D01*
X127957657Y-121334500D01*
X127921942Y-121405928D01*
X127886228Y-121548785D01*
X127850514Y-121620214D01*
X127814800Y-121655928D01*
X127743371Y-121691642D01*
X127671942Y-121691642D01*
X127600514Y-121655928D01*
X127564800Y-121620214D01*
X127529085Y-121548785D01*
X127529085Y-121370214D01*
X127564800Y-121263071D01*
X79931800Y-122441642D02*
X79931800Y-122084500D01*
X80146085Y-122513071D02*
X79396085Y-122263071D01*
X80146085Y-122013071D01*
X79396085Y-121405928D02*
X79396085Y-121763071D01*
X79753228Y-121798785D01*
X79717514Y-121763071D01*
X79681800Y-121691642D01*
X79681800Y-121513071D01*
X79717514Y-121441642D01*
X79753228Y-121405928D01*
X79824657Y-121370214D01*
X80003228Y-121370214D01*
X80074657Y-121405928D01*
X80110371Y-121441642D01*
X80146085Y-121513071D01*
X80146085Y-121691642D01*
X80110371Y-121763071D01*
X80074657Y-121798785D01*
%TO.C,C12*%
X130929142Y-38297142D02*
X130881523Y-38344761D01*
X130738666Y-38392380D01*
X130643428Y-38392380D01*
X130500571Y-38344761D01*
X130405333Y-38249523D01*
X130357714Y-38154285D01*
X130310095Y-37963809D01*
X130310095Y-37820952D01*
X130357714Y-37630476D01*
X130405333Y-37535238D01*
X130500571Y-37440000D01*
X130643428Y-37392380D01*
X130738666Y-37392380D01*
X130881523Y-37440000D01*
X130929142Y-37487619D01*
X131881523Y-38392380D02*
X131310095Y-38392380D01*
X131595809Y-38392380D02*
X131595809Y-37392380D01*
X131500571Y-37535238D01*
X131405333Y-37630476D01*
X131310095Y-37678095D01*
X132262476Y-37487619D02*
X132310095Y-37440000D01*
X132405333Y-37392380D01*
X132643428Y-37392380D01*
X132738666Y-37440000D01*
X132786285Y-37487619D01*
X132833904Y-37582857D01*
X132833904Y-37678095D01*
X132786285Y-37820952D01*
X132214857Y-38392380D01*
X132833904Y-38392380D01*
%TO.C,X1*%
X97996476Y-67694380D02*
X98663142Y-68694380D01*
X98663142Y-67694380D02*
X97996476Y-68694380D01*
X99567904Y-68694380D02*
X98996476Y-68694380D01*
X99282190Y-68694380D02*
X99282190Y-67694380D01*
X99186952Y-67837238D01*
X99091714Y-67932476D01*
X98996476Y-67980095D01*
X97282190Y-83122952D02*
X97186952Y-83075333D01*
X97139333Y-83027714D01*
X97091714Y-82932476D01*
X97091714Y-82884857D01*
X97139333Y-82789619D01*
X97186952Y-82742000D01*
X97282190Y-82694380D01*
X97472666Y-82694380D01*
X97567904Y-82742000D01*
X97615523Y-82789619D01*
X97663142Y-82884857D01*
X97663142Y-82932476D01*
X97615523Y-83027714D01*
X97567904Y-83075333D01*
X97472666Y-83122952D01*
X97282190Y-83122952D01*
X97186952Y-83170571D01*
X97139333Y-83218190D01*
X97091714Y-83313428D01*
X97091714Y-83503904D01*
X97139333Y-83599142D01*
X97186952Y-83646761D01*
X97282190Y-83694380D01*
X97472666Y-83694380D01*
X97567904Y-83646761D01*
X97615523Y-83599142D01*
X97663142Y-83503904D01*
X97663142Y-83313428D01*
X97615523Y-83218190D01*
X97567904Y-83170571D01*
X97472666Y-83122952D01*
X98091714Y-83694380D02*
X98091714Y-82694380D01*
X98425047Y-83408666D01*
X98758380Y-82694380D01*
X98758380Y-83694380D01*
X99234571Y-83694380D02*
X99234571Y-82694380D01*
X99663142Y-83694380D02*
X99663142Y-83170571D01*
X99615523Y-83075333D01*
X99520285Y-83027714D01*
X99377428Y-83027714D01*
X99282190Y-83075333D01*
X99234571Y-83122952D01*
X100044095Y-83027714D02*
X100567904Y-83027714D01*
X100044095Y-83694380D01*
X100567904Y-83694380D01*
%TO.C,U8*%
X141732095Y-103534380D02*
X141732095Y-104343904D01*
X141779714Y-104439142D01*
X141827333Y-104486761D01*
X141922571Y-104534380D01*
X142113047Y-104534380D01*
X142208285Y-104486761D01*
X142255904Y-104439142D01*
X142303523Y-104343904D01*
X142303523Y-103534380D01*
X142922571Y-103962952D02*
X142827333Y-103915333D01*
X142779714Y-103867714D01*
X142732095Y-103772476D01*
X142732095Y-103724857D01*
X142779714Y-103629619D01*
X142827333Y-103582000D01*
X142922571Y-103534380D01*
X143113047Y-103534380D01*
X143208285Y-103582000D01*
X143255904Y-103629619D01*
X143303523Y-103724857D01*
X143303523Y-103772476D01*
X143255904Y-103867714D01*
X143208285Y-103915333D01*
X143113047Y-103962952D01*
X142922571Y-103962952D01*
X142827333Y-104010571D01*
X142779714Y-104058190D01*
X142732095Y-104153428D01*
X142732095Y-104343904D01*
X142779714Y-104439142D01*
X142827333Y-104486761D01*
X142922571Y-104534380D01*
X143113047Y-104534380D01*
X143208285Y-104486761D01*
X143255904Y-104439142D01*
X143303523Y-104343904D01*
X143303523Y-104153428D01*
X143255904Y-104058190D01*
X143208285Y-104010571D01*
X143113047Y-103962952D01*
X139874952Y-111334380D02*
X139874952Y-110334380D01*
X140208285Y-111048666D01*
X140541619Y-110334380D01*
X140541619Y-111334380D01*
X141446380Y-111334380D02*
X141446380Y-110810571D01*
X141398761Y-110715333D01*
X141303523Y-110667714D01*
X141113047Y-110667714D01*
X141017809Y-110715333D01*
X141446380Y-111286761D02*
X141351142Y-111334380D01*
X141113047Y-111334380D01*
X141017809Y-111286761D01*
X140970190Y-111191523D01*
X140970190Y-111096285D01*
X141017809Y-111001047D01*
X141113047Y-110953428D01*
X141351142Y-110953428D01*
X141446380Y-110905809D01*
X141827333Y-111334380D02*
X142351142Y-110667714D01*
X141827333Y-110667714D02*
X142351142Y-111334380D01*
X142636857Y-110334380D02*
X143303523Y-110334380D01*
X142874952Y-111334380D01*
X143874952Y-110334380D02*
X143970190Y-110334380D01*
X144065428Y-110382000D01*
X144113047Y-110429619D01*
X144160666Y-110524857D01*
X144208285Y-110715333D01*
X144208285Y-110953428D01*
X144160666Y-111143904D01*
X144113047Y-111239142D01*
X144065428Y-111286761D01*
X143970190Y-111334380D01*
X143874952Y-111334380D01*
X143779714Y-111286761D01*
X143732095Y-111239142D01*
X143684476Y-111143904D01*
X143636857Y-110953428D01*
X143636857Y-110715333D01*
X143684476Y-110524857D01*
X143732095Y-110429619D01*
X143779714Y-110382000D01*
X143874952Y-110334380D01*
X145113047Y-110334380D02*
X144636857Y-110334380D01*
X144589238Y-110810571D01*
X144636857Y-110762952D01*
X144732095Y-110715333D01*
X144970190Y-110715333D01*
X145065428Y-110762952D01*
X145113047Y-110810571D01*
X145160666Y-110905809D01*
X145160666Y-111143904D01*
X145113047Y-111239142D01*
X145065428Y-111286761D01*
X144970190Y-111334380D01*
X144732095Y-111334380D01*
X144636857Y-111286761D01*
X144589238Y-111239142D01*
%TO.C,U7*%
X130805095Y-40810380D02*
X130805095Y-41619904D01*
X130852714Y-41715142D01*
X130900333Y-41762761D01*
X130995571Y-41810380D01*
X131186047Y-41810380D01*
X131281285Y-41762761D01*
X131328904Y-41715142D01*
X131376523Y-41619904D01*
X131376523Y-40810380D01*
X131757476Y-40810380D02*
X132424142Y-40810380D01*
X131995571Y-41810380D01*
X125424142Y-94444666D02*
X125900333Y-94444666D01*
X125328904Y-94730380D02*
X125662238Y-93730380D01*
X125995571Y-94730380D01*
X126186047Y-93730380D02*
X126757476Y-93730380D01*
X126471761Y-94730380D02*
X126471761Y-93730380D01*
X127090809Y-94730380D02*
X127090809Y-94063714D01*
X127090809Y-94158952D02*
X127138428Y-94111333D01*
X127233666Y-94063714D01*
X127376523Y-94063714D01*
X127471761Y-94111333D01*
X127519380Y-94206571D01*
X127519380Y-94730380D01*
X127519380Y-94206571D02*
X127567000Y-94111333D01*
X127662238Y-94063714D01*
X127805095Y-94063714D01*
X127900333Y-94111333D01*
X127947952Y-94206571D01*
X127947952Y-94730380D01*
X128805095Y-94682761D02*
X128709857Y-94730380D01*
X128519380Y-94730380D01*
X128424142Y-94682761D01*
X128376523Y-94587523D01*
X128376523Y-94206571D01*
X128424142Y-94111333D01*
X128519380Y-94063714D01*
X128709857Y-94063714D01*
X128805095Y-94111333D01*
X128852714Y-94206571D01*
X128852714Y-94301809D01*
X128376523Y-94397047D01*
X129709857Y-94063714D02*
X129709857Y-94873238D01*
X129662238Y-94968476D01*
X129614619Y-95016095D01*
X129519380Y-95063714D01*
X129376523Y-95063714D01*
X129281285Y-95016095D01*
X129709857Y-94682761D02*
X129614619Y-94730380D01*
X129424142Y-94730380D01*
X129328904Y-94682761D01*
X129281285Y-94635142D01*
X129233666Y-94539904D01*
X129233666Y-94254190D01*
X129281285Y-94158952D01*
X129328904Y-94111333D01*
X129424142Y-94063714D01*
X129614619Y-94063714D01*
X129709857Y-94111333D01*
X130614619Y-94730380D02*
X130614619Y-94206571D01*
X130567000Y-94111333D01*
X130471761Y-94063714D01*
X130281285Y-94063714D01*
X130186047Y-94111333D01*
X130614619Y-94682761D02*
X130519380Y-94730380D01*
X130281285Y-94730380D01*
X130186047Y-94682761D01*
X130138428Y-94587523D01*
X130138428Y-94492285D01*
X130186047Y-94397047D01*
X130281285Y-94349428D01*
X130519380Y-94349428D01*
X130614619Y-94301809D01*
X131614619Y-94730380D02*
X131043190Y-94730380D01*
X131328904Y-94730380D02*
X131328904Y-93730380D01*
X131233666Y-93873238D01*
X131138428Y-93968476D01*
X131043190Y-94016095D01*
X131995571Y-93825619D02*
X132043190Y-93778000D01*
X132138428Y-93730380D01*
X132376523Y-93730380D01*
X132471761Y-93778000D01*
X132519380Y-93825619D01*
X132567000Y-93920857D01*
X132567000Y-94016095D01*
X132519380Y-94158952D01*
X131947952Y-94730380D01*
X132567000Y-94730380D01*
X133138428Y-94158952D02*
X133043190Y-94111333D01*
X132995571Y-94063714D01*
X132947952Y-93968476D01*
X132947952Y-93920857D01*
X132995571Y-93825619D01*
X133043190Y-93778000D01*
X133138428Y-93730380D01*
X133328904Y-93730380D01*
X133424142Y-93778000D01*
X133471761Y-93825619D01*
X133519380Y-93920857D01*
X133519380Y-93968476D01*
X133471761Y-94063714D01*
X133424142Y-94111333D01*
X133328904Y-94158952D01*
X133138428Y-94158952D01*
X133043190Y-94206571D01*
X132995571Y-94254190D01*
X132947952Y-94349428D01*
X132947952Y-94539904D01*
X132995571Y-94635142D01*
X133043190Y-94682761D01*
X133138428Y-94730380D01*
X133328904Y-94730380D01*
X133424142Y-94682761D01*
X133471761Y-94635142D01*
X133519380Y-94539904D01*
X133519380Y-94349428D01*
X133471761Y-94254190D01*
X133424142Y-94206571D01*
X133328904Y-94158952D01*
X134376523Y-94063714D02*
X134376523Y-94730380D01*
X134138428Y-93682761D02*
X133900333Y-94397047D01*
X134519380Y-94397047D01*
X134900333Y-94730380D02*
X134900333Y-93730380D01*
X135281285Y-93730380D01*
X135376523Y-93778000D01*
X135424142Y-93825619D01*
X135471761Y-93920857D01*
X135471761Y-94063714D01*
X135424142Y-94158952D01*
X135376523Y-94206571D01*
X135281285Y-94254190D01*
X134900333Y-94254190D01*
X135900333Y-94349428D02*
X136662238Y-94349428D01*
X137138428Y-94730380D02*
X137138428Y-93730380D01*
X137519380Y-93730380D01*
X137614619Y-93778000D01*
X137662238Y-93825619D01*
X137709857Y-93920857D01*
X137709857Y-94063714D01*
X137662238Y-94158952D01*
X137614619Y-94206571D01*
X137519380Y-94254190D01*
X137138428Y-94254190D01*
%TO.C,U5*%
X112522095Y-41084380D02*
X112522095Y-41893904D01*
X112569714Y-41989142D01*
X112617333Y-42036761D01*
X112712571Y-42084380D01*
X112903047Y-42084380D01*
X112998285Y-42036761D01*
X113045904Y-41989142D01*
X113093523Y-41893904D01*
X113093523Y-41084380D01*
X114045904Y-41084380D02*
X113569714Y-41084380D01*
X113522095Y-41560571D01*
X113569714Y-41512952D01*
X113664952Y-41465333D01*
X113903047Y-41465333D01*
X113998285Y-41512952D01*
X114045904Y-41560571D01*
X114093523Y-41655809D01*
X114093523Y-41893904D01*
X114045904Y-41989142D01*
X113998285Y-42036761D01*
X113903047Y-42084380D01*
X113664952Y-42084380D01*
X113569714Y-42036761D01*
X113522095Y-41989142D01*
X106593523Y-64198666D02*
X107069714Y-64198666D01*
X106498285Y-64484380D02*
X106831619Y-63484380D01*
X107164952Y-64484380D01*
X107450666Y-64436761D02*
X107593523Y-64484380D01*
X107831619Y-64484380D01*
X107926857Y-64436761D01*
X107974476Y-64389142D01*
X108022095Y-64293904D01*
X108022095Y-64198666D01*
X107974476Y-64103428D01*
X107926857Y-64055809D01*
X107831619Y-64008190D01*
X107641142Y-63960571D01*
X107545904Y-63912952D01*
X107498285Y-63865333D01*
X107450666Y-63770095D01*
X107450666Y-63674857D01*
X107498285Y-63579619D01*
X107545904Y-63532000D01*
X107641142Y-63484380D01*
X107879238Y-63484380D01*
X108022095Y-63532000D01*
X108879238Y-63484380D02*
X108688761Y-63484380D01*
X108593523Y-63532000D01*
X108545904Y-63579619D01*
X108450666Y-63722476D01*
X108403047Y-63912952D01*
X108403047Y-64293904D01*
X108450666Y-64389142D01*
X108498285Y-64436761D01*
X108593523Y-64484380D01*
X108784000Y-64484380D01*
X108879238Y-64436761D01*
X108926857Y-64389142D01*
X108974476Y-64293904D01*
X108974476Y-64055809D01*
X108926857Y-63960571D01*
X108879238Y-63912952D01*
X108784000Y-63865333D01*
X108593523Y-63865333D01*
X108498285Y-63912952D01*
X108450666Y-63960571D01*
X108403047Y-64055809D01*
X109974476Y-64389142D02*
X109926857Y-64436761D01*
X109784000Y-64484380D01*
X109688761Y-64484380D01*
X109545904Y-64436761D01*
X109450666Y-64341523D01*
X109403047Y-64246285D01*
X109355428Y-64055809D01*
X109355428Y-63912952D01*
X109403047Y-63722476D01*
X109450666Y-63627238D01*
X109545904Y-63532000D01*
X109688761Y-63484380D01*
X109784000Y-63484380D01*
X109926857Y-63532000D01*
X109974476Y-63579619D01*
X110831619Y-63817714D02*
X110831619Y-64484380D01*
X110593523Y-63436761D02*
X110355428Y-64151047D01*
X110974476Y-64151047D01*
X111545904Y-63484380D02*
X111641142Y-63484380D01*
X111736380Y-63532000D01*
X111784000Y-63579619D01*
X111831619Y-63674857D01*
X111879238Y-63865333D01*
X111879238Y-64103428D01*
X111831619Y-64293904D01*
X111784000Y-64389142D01*
X111736380Y-64436761D01*
X111641142Y-64484380D01*
X111545904Y-64484380D01*
X111450666Y-64436761D01*
X111403047Y-64389142D01*
X111355428Y-64293904D01*
X111307809Y-64103428D01*
X111307809Y-63865333D01*
X111355428Y-63674857D01*
X111403047Y-63579619D01*
X111450666Y-63532000D01*
X111545904Y-63484380D01*
X112498285Y-63484380D02*
X112593523Y-63484380D01*
X112688761Y-63532000D01*
X112736380Y-63579619D01*
X112784000Y-63674857D01*
X112831619Y-63865333D01*
X112831619Y-64103428D01*
X112784000Y-64293904D01*
X112736380Y-64389142D01*
X112688761Y-64436761D01*
X112593523Y-64484380D01*
X112498285Y-64484380D01*
X112403047Y-64436761D01*
X112355428Y-64389142D01*
X112307809Y-64293904D01*
X112260190Y-64103428D01*
X112260190Y-63865333D01*
X112307809Y-63674857D01*
X112355428Y-63579619D01*
X112403047Y-63532000D01*
X112498285Y-63484380D01*
X113403047Y-63912952D02*
X113307809Y-63865333D01*
X113260190Y-63817714D01*
X113212571Y-63722476D01*
X113212571Y-63674857D01*
X113260190Y-63579619D01*
X113307809Y-63532000D01*
X113403047Y-63484380D01*
X113593523Y-63484380D01*
X113688761Y-63532000D01*
X113736380Y-63579619D01*
X113784000Y-63674857D01*
X113784000Y-63722476D01*
X113736380Y-63817714D01*
X113688761Y-63865333D01*
X113593523Y-63912952D01*
X113403047Y-63912952D01*
X113307809Y-63960571D01*
X113260190Y-64008190D01*
X113212571Y-64103428D01*
X113212571Y-64293904D01*
X113260190Y-64389142D01*
X113307809Y-64436761D01*
X113403047Y-64484380D01*
X113593523Y-64484380D01*
X113688761Y-64436761D01*
X113736380Y-64389142D01*
X113784000Y-64293904D01*
X113784000Y-64103428D01*
X113736380Y-64008190D01*
X113688761Y-63960571D01*
X113593523Y-63912952D01*
X114212571Y-64103428D02*
X114974476Y-64103428D01*
X115926857Y-63484380D02*
X115450666Y-63484380D01*
X115403047Y-63960571D01*
X115450666Y-63912952D01*
X115545904Y-63865333D01*
X115784000Y-63865333D01*
X115879238Y-63912952D01*
X115926857Y-63960571D01*
X115974476Y-64055809D01*
X115974476Y-64293904D01*
X115926857Y-64389142D01*
X115879238Y-64436761D01*
X115784000Y-64484380D01*
X115545904Y-64484380D01*
X115450666Y-64436761D01*
X115403047Y-64389142D01*
X116879238Y-63484380D02*
X116403047Y-63484380D01*
X116355428Y-63960571D01*
X116403047Y-63912952D01*
X116498285Y-63865333D01*
X116736380Y-63865333D01*
X116831619Y-63912952D01*
X116879238Y-63960571D01*
X116926857Y-64055809D01*
X116926857Y-64293904D01*
X116879238Y-64389142D01*
X116831619Y-64436761D01*
X116736380Y-64484380D01*
X116498285Y-64484380D01*
X116403047Y-64436761D01*
X116355428Y-64389142D01*
X117355428Y-64484380D02*
X117355428Y-63484380D01*
X117736380Y-63484380D01*
X117831619Y-63532000D01*
X117879238Y-63579619D01*
X117926857Y-63674857D01*
X117926857Y-63817714D01*
X117879238Y-63912952D01*
X117831619Y-63960571D01*
X117736380Y-64008190D01*
X117355428Y-64008190D01*
X118926857Y-64389142D02*
X118879238Y-64436761D01*
X118736380Y-64484380D01*
X118641142Y-64484380D01*
X118498285Y-64436761D01*
X118403047Y-64341523D01*
X118355428Y-64246285D01*
X118307809Y-64055809D01*
X118307809Y-63912952D01*
X118355428Y-63722476D01*
X118403047Y-63627238D01*
X118498285Y-63532000D01*
X118641142Y-63484380D01*
X118736380Y-63484380D01*
X118879238Y-63532000D01*
X118926857Y-63579619D01*
X119355428Y-64484380D02*
X119355428Y-63484380D01*
X119926857Y-64484380D01*
X119926857Y-63484380D01*
%TO.C,U4*%
X130556095Y-103534380D02*
X130556095Y-104343904D01*
X130603714Y-104439142D01*
X130651333Y-104486761D01*
X130746571Y-104534380D01*
X130937047Y-104534380D01*
X131032285Y-104486761D01*
X131079904Y-104439142D01*
X131127523Y-104343904D01*
X131127523Y-103534380D01*
X132032285Y-103867714D02*
X132032285Y-104534380D01*
X131794190Y-103486761D02*
X131556095Y-104201047D01*
X132175142Y-104201047D01*
X128056095Y-115334380D02*
X128722761Y-115334380D01*
X128294190Y-116334380D01*
X129532285Y-115667714D02*
X129532285Y-116334380D01*
X129294190Y-115286761D02*
X129056095Y-116001047D01*
X129675142Y-116001047D01*
X130056095Y-116334380D02*
X130056095Y-115334380D01*
X130056095Y-115810571D02*
X130627523Y-115810571D01*
X130627523Y-116334380D02*
X130627523Y-115334380D01*
X131675142Y-116239142D02*
X131627523Y-116286761D01*
X131484666Y-116334380D01*
X131389428Y-116334380D01*
X131246571Y-116286761D01*
X131151333Y-116191523D01*
X131103714Y-116096285D01*
X131056095Y-115905809D01*
X131056095Y-115762952D01*
X131103714Y-115572476D01*
X131151333Y-115477238D01*
X131246571Y-115382000D01*
X131389428Y-115334380D01*
X131484666Y-115334380D01*
X131627523Y-115382000D01*
X131675142Y-115429619D01*
X132056095Y-115429619D02*
X132103714Y-115382000D01*
X132198952Y-115334380D01*
X132437047Y-115334380D01*
X132532285Y-115382000D01*
X132579904Y-115429619D01*
X132627523Y-115524857D01*
X132627523Y-115620095D01*
X132579904Y-115762952D01*
X132008476Y-116334380D01*
X132627523Y-116334380D01*
X133532285Y-115334380D02*
X133056095Y-115334380D01*
X133008476Y-115810571D01*
X133056095Y-115762952D01*
X133151333Y-115715333D01*
X133389428Y-115715333D01*
X133484666Y-115762952D01*
X133532285Y-115810571D01*
X133579904Y-115905809D01*
X133579904Y-116143904D01*
X133532285Y-116239142D01*
X133484666Y-116286761D01*
X133389428Y-116334380D01*
X133151333Y-116334380D01*
X133056095Y-116286761D01*
X133008476Y-116239142D01*
X133913238Y-115334380D02*
X134579904Y-115334380D01*
X134151333Y-116334380D01*
%TO.C,U3*%
X115570095Y-103534380D02*
X115570095Y-104343904D01*
X115617714Y-104439142D01*
X115665333Y-104486761D01*
X115760571Y-104534380D01*
X115951047Y-104534380D01*
X116046285Y-104486761D01*
X116093904Y-104439142D01*
X116141523Y-104343904D01*
X116141523Y-103534380D01*
X116522476Y-103534380D02*
X117141523Y-103534380D01*
X116808190Y-103915333D01*
X116951047Y-103915333D01*
X117046285Y-103962952D01*
X117093904Y-104010571D01*
X117141523Y-104105809D01*
X117141523Y-104343904D01*
X117093904Y-104439142D01*
X117046285Y-104486761D01*
X116951047Y-104534380D01*
X116665333Y-104534380D01*
X116570095Y-104486761D01*
X116522476Y-104439142D01*
X113070095Y-115334380D02*
X113736761Y-115334380D01*
X113308190Y-116334380D01*
X114546285Y-115667714D02*
X114546285Y-116334380D01*
X114308190Y-115286761D02*
X114070095Y-116001047D01*
X114689142Y-116001047D01*
X115070095Y-116334380D02*
X115070095Y-115334380D01*
X115070095Y-115810571D02*
X115641523Y-115810571D01*
X115641523Y-116334380D02*
X115641523Y-115334380D01*
X116689142Y-116239142D02*
X116641523Y-116286761D01*
X116498666Y-116334380D01*
X116403428Y-116334380D01*
X116260571Y-116286761D01*
X116165333Y-116191523D01*
X116117714Y-116096285D01*
X116070095Y-115905809D01*
X116070095Y-115762952D01*
X116117714Y-115572476D01*
X116165333Y-115477238D01*
X116260571Y-115382000D01*
X116403428Y-115334380D01*
X116498666Y-115334380D01*
X116641523Y-115382000D01*
X116689142Y-115429619D01*
X117641523Y-116334380D02*
X117070095Y-116334380D01*
X117355809Y-116334380D02*
X117355809Y-115334380D01*
X117260571Y-115477238D01*
X117165333Y-115572476D01*
X117070095Y-115620095D01*
X117974857Y-115334380D02*
X118593904Y-115334380D01*
X118260571Y-115715333D01*
X118403428Y-115715333D01*
X118498666Y-115762952D01*
X118546285Y-115810571D01*
X118593904Y-115905809D01*
X118593904Y-116143904D01*
X118546285Y-116239142D01*
X118498666Y-116286761D01*
X118403428Y-116334380D01*
X118117714Y-116334380D01*
X118022476Y-116286761D01*
X117974857Y-116239142D01*
X119165333Y-115762952D02*
X119070095Y-115715333D01*
X119022476Y-115667714D01*
X118974857Y-115572476D01*
X118974857Y-115524857D01*
X119022476Y-115429619D01*
X119070095Y-115382000D01*
X119165333Y-115334380D01*
X119355809Y-115334380D01*
X119451047Y-115382000D01*
X119498666Y-115429619D01*
X119546285Y-115524857D01*
X119546285Y-115572476D01*
X119498666Y-115667714D01*
X119451047Y-115715333D01*
X119355809Y-115762952D01*
X119165333Y-115762952D01*
X119070095Y-115810571D01*
X119022476Y-115858190D01*
X118974857Y-115953428D01*
X118974857Y-116143904D01*
X119022476Y-116239142D01*
X119070095Y-116286761D01*
X119165333Y-116334380D01*
X119355809Y-116334380D01*
X119451047Y-116286761D01*
X119498666Y-116239142D01*
X119546285Y-116143904D01*
X119546285Y-115953428D01*
X119498666Y-115858190D01*
X119451047Y-115810571D01*
X119355809Y-115762952D01*
%TO.C,U2*%
X105156095Y-103534380D02*
X105156095Y-104343904D01*
X105203714Y-104439142D01*
X105251333Y-104486761D01*
X105346571Y-104534380D01*
X105537047Y-104534380D01*
X105632285Y-104486761D01*
X105679904Y-104439142D01*
X105727523Y-104343904D01*
X105727523Y-103534380D01*
X106156095Y-103629619D02*
X106203714Y-103582000D01*
X106298952Y-103534380D01*
X106537047Y-103534380D01*
X106632285Y-103582000D01*
X106679904Y-103629619D01*
X106727523Y-103724857D01*
X106727523Y-103820095D01*
X106679904Y-103962952D01*
X106108476Y-104534380D01*
X106727523Y-104534380D01*
X103132285Y-114094380D02*
X103798952Y-114094380D01*
X103370380Y-115094380D01*
X104608476Y-114427714D02*
X104608476Y-115094380D01*
X104370380Y-114046761D02*
X104132285Y-114761047D01*
X104751333Y-114761047D01*
X105132285Y-115094380D02*
X105132285Y-114094380D01*
X105132285Y-114570571D02*
X105703714Y-114570571D01*
X105703714Y-115094380D02*
X105703714Y-114094380D01*
X106751333Y-114999142D02*
X106703714Y-115046761D01*
X106560857Y-115094380D01*
X106465619Y-115094380D01*
X106322761Y-115046761D01*
X106227523Y-114951523D01*
X106179904Y-114856285D01*
X106132285Y-114665809D01*
X106132285Y-114522952D01*
X106179904Y-114332476D01*
X106227523Y-114237238D01*
X106322761Y-114142000D01*
X106465619Y-114094380D01*
X106560857Y-114094380D01*
X106703714Y-114142000D01*
X106751333Y-114189619D01*
X107084666Y-114094380D02*
X107703714Y-114094380D01*
X107370380Y-114475333D01*
X107513238Y-114475333D01*
X107608476Y-114522952D01*
X107656095Y-114570571D01*
X107703714Y-114665809D01*
X107703714Y-114903904D01*
X107656095Y-114999142D01*
X107608476Y-115046761D01*
X107513238Y-115094380D01*
X107227523Y-115094380D01*
X107132285Y-115046761D01*
X107084666Y-114999142D01*
X108084666Y-114189619D02*
X108132285Y-114142000D01*
X108227523Y-114094380D01*
X108465619Y-114094380D01*
X108560857Y-114142000D01*
X108608476Y-114189619D01*
X108656095Y-114284857D01*
X108656095Y-114380095D01*
X108608476Y-114522952D01*
X108037047Y-115094380D01*
X108656095Y-115094380D01*
%TO.C,U1*%
X94488095Y-103534380D02*
X94488095Y-104343904D01*
X94535714Y-104439142D01*
X94583333Y-104486761D01*
X94678571Y-104534380D01*
X94869047Y-104534380D01*
X94964285Y-104486761D01*
X95011904Y-104439142D01*
X95059523Y-104343904D01*
X95059523Y-103534380D01*
X96059523Y-104534380D02*
X95488095Y-104534380D01*
X95773809Y-104534380D02*
X95773809Y-103534380D01*
X95678571Y-103677238D01*
X95583333Y-103772476D01*
X95488095Y-103820095D01*
X92464285Y-114094380D02*
X93130952Y-114094380D01*
X92702380Y-115094380D01*
X93940476Y-114427714D02*
X93940476Y-115094380D01*
X93702380Y-114046761D02*
X93464285Y-114761047D01*
X94083333Y-114761047D01*
X94464285Y-115094380D02*
X94464285Y-114094380D01*
X94464285Y-114570571D02*
X95035714Y-114570571D01*
X95035714Y-115094380D02*
X95035714Y-114094380D01*
X96083333Y-114999142D02*
X96035714Y-115046761D01*
X95892857Y-115094380D01*
X95797619Y-115094380D01*
X95654761Y-115046761D01*
X95559523Y-114951523D01*
X95511904Y-114856285D01*
X95464285Y-114665809D01*
X95464285Y-114522952D01*
X95511904Y-114332476D01*
X95559523Y-114237238D01*
X95654761Y-114142000D01*
X95797619Y-114094380D01*
X95892857Y-114094380D01*
X96035714Y-114142000D01*
X96083333Y-114189619D01*
X96702380Y-114094380D02*
X96797619Y-114094380D01*
X96892857Y-114142000D01*
X96940476Y-114189619D01*
X96988095Y-114284857D01*
X97035714Y-114475333D01*
X97035714Y-114713428D01*
X96988095Y-114903904D01*
X96940476Y-114999142D01*
X96892857Y-115046761D01*
X96797619Y-115094380D01*
X96702380Y-115094380D01*
X96607142Y-115046761D01*
X96559523Y-114999142D01*
X96511904Y-114903904D01*
X96464285Y-114713428D01*
X96464285Y-114475333D01*
X96511904Y-114284857D01*
X96559523Y-114189619D01*
X96607142Y-114142000D01*
X96702380Y-114094380D01*
X97892857Y-114427714D02*
X97892857Y-115094380D01*
X97654761Y-114046761D02*
X97416666Y-114761047D01*
X98035714Y-114761047D01*
%TO.C,SW1*%
X153344761Y-104763333D02*
X153392380Y-104620476D01*
X153392380Y-104382380D01*
X153344761Y-104287142D01*
X153297142Y-104239523D01*
X153201904Y-104191904D01*
X153106666Y-104191904D01*
X153011428Y-104239523D01*
X152963809Y-104287142D01*
X152916190Y-104382380D01*
X152868571Y-104572857D01*
X152820952Y-104668095D01*
X152773333Y-104715714D01*
X152678095Y-104763333D01*
X152582857Y-104763333D01*
X152487619Y-104715714D01*
X152440000Y-104668095D01*
X152392380Y-104572857D01*
X152392380Y-104334761D01*
X152440000Y-104191904D01*
X152392380Y-103858571D02*
X153392380Y-103620476D01*
X152678095Y-103430000D01*
X153392380Y-103239523D01*
X152392380Y-103001428D01*
X153392380Y-102096666D02*
X153392380Y-102668095D01*
X153392380Y-102382380D02*
X152392380Y-102382380D01*
X152535238Y-102477619D01*
X152630476Y-102572857D01*
X152678095Y-102668095D01*
X162092380Y-104168095D02*
X161616190Y-104501428D01*
X162092380Y-104739523D02*
X161092380Y-104739523D01*
X161092380Y-104358571D01*
X161140000Y-104263333D01*
X161187619Y-104215714D01*
X161282857Y-104168095D01*
X161425714Y-104168095D01*
X161520952Y-104215714D01*
X161568571Y-104263333D01*
X161616190Y-104358571D01*
X161616190Y-104739523D01*
X162044761Y-103358571D02*
X162092380Y-103453809D01*
X162092380Y-103644285D01*
X162044761Y-103739523D01*
X161949523Y-103787142D01*
X161568571Y-103787142D01*
X161473333Y-103739523D01*
X161425714Y-103644285D01*
X161425714Y-103453809D01*
X161473333Y-103358571D01*
X161568571Y-103310952D01*
X161663809Y-103310952D01*
X161759047Y-103787142D01*
X162044761Y-102930000D02*
X162092380Y-102834761D01*
X162092380Y-102644285D01*
X162044761Y-102549047D01*
X161949523Y-102501428D01*
X161901904Y-102501428D01*
X161806666Y-102549047D01*
X161759047Y-102644285D01*
X161759047Y-102787142D01*
X161711428Y-102882380D01*
X161616190Y-102930000D01*
X161568571Y-102930000D01*
X161473333Y-102882380D01*
X161425714Y-102787142D01*
X161425714Y-102644285D01*
X161473333Y-102549047D01*
X162044761Y-101691904D02*
X162092380Y-101787142D01*
X162092380Y-101977619D01*
X162044761Y-102072857D01*
X161949523Y-102120476D01*
X161568571Y-102120476D01*
X161473333Y-102072857D01*
X161425714Y-101977619D01*
X161425714Y-101787142D01*
X161473333Y-101691904D01*
X161568571Y-101644285D01*
X161663809Y-101644285D01*
X161759047Y-102120476D01*
X161425714Y-101358571D02*
X161425714Y-100977619D01*
X161092380Y-101215714D02*
X161949523Y-101215714D01*
X162044761Y-101168095D01*
X162092380Y-101072857D01*
X162092380Y-100977619D01*
%TO.C,R13*%
X110355142Y-67508380D02*
X110021809Y-67032190D01*
X109783714Y-67508380D02*
X109783714Y-66508380D01*
X110164666Y-66508380D01*
X110259904Y-66556000D01*
X110307523Y-66603619D01*
X110355142Y-66698857D01*
X110355142Y-66841714D01*
X110307523Y-66936952D01*
X110259904Y-66984571D01*
X110164666Y-67032190D01*
X109783714Y-67032190D01*
X111307523Y-67508380D02*
X110736095Y-67508380D01*
X111021809Y-67508380D02*
X111021809Y-66508380D01*
X110926571Y-66651238D01*
X110831333Y-66746476D01*
X110736095Y-66794095D01*
X111640857Y-66508380D02*
X112259904Y-66508380D01*
X111926571Y-66889333D01*
X112069428Y-66889333D01*
X112164666Y-66936952D01*
X112212285Y-66984571D01*
X112259904Y-67079809D01*
X112259904Y-67317904D01*
X112212285Y-67413142D01*
X112164666Y-67460761D01*
X112069428Y-67508380D01*
X111783714Y-67508380D01*
X111688476Y-67460761D01*
X111640857Y-67413142D01*
%TO.C,R12*%
X144137142Y-114244380D02*
X143803809Y-113768190D01*
X143565714Y-114244380D02*
X143565714Y-113244380D01*
X143946666Y-113244380D01*
X144041904Y-113292000D01*
X144089523Y-113339619D01*
X144137142Y-113434857D01*
X144137142Y-113577714D01*
X144089523Y-113672952D01*
X144041904Y-113720571D01*
X143946666Y-113768190D01*
X143565714Y-113768190D01*
X145089523Y-114244380D02*
X144518095Y-114244380D01*
X144803809Y-114244380D02*
X144803809Y-113244380D01*
X144708571Y-113387238D01*
X144613333Y-113482476D01*
X144518095Y-113530095D01*
X145470476Y-113339619D02*
X145518095Y-113292000D01*
X145613333Y-113244380D01*
X145851428Y-113244380D01*
X145946666Y-113292000D01*
X145994285Y-113339619D01*
X146041904Y-113434857D01*
X146041904Y-113530095D01*
X145994285Y-113672952D01*
X145422857Y-114244380D01*
X146041904Y-114244380D01*
%TO.C,R11*%
X121277142Y-110434380D02*
X120943809Y-109958190D01*
X120705714Y-110434380D02*
X120705714Y-109434380D01*
X121086666Y-109434380D01*
X121181904Y-109482000D01*
X121229523Y-109529619D01*
X121277142Y-109624857D01*
X121277142Y-109767714D01*
X121229523Y-109862952D01*
X121181904Y-109910571D01*
X121086666Y-109958190D01*
X120705714Y-109958190D01*
X122229523Y-110434380D02*
X121658095Y-110434380D01*
X121943809Y-110434380D02*
X121943809Y-109434380D01*
X121848571Y-109577238D01*
X121753333Y-109672476D01*
X121658095Y-109720095D01*
X123181904Y-110434380D02*
X122610476Y-110434380D01*
X122896190Y-110434380D02*
X122896190Y-109434380D01*
X122800952Y-109577238D01*
X122705714Y-109672476D01*
X122610476Y-109720095D01*
%TO.C,R10*%
X121277142Y-108656380D02*
X120943809Y-108180190D01*
X120705714Y-108656380D02*
X120705714Y-107656380D01*
X121086666Y-107656380D01*
X121181904Y-107704000D01*
X121229523Y-107751619D01*
X121277142Y-107846857D01*
X121277142Y-107989714D01*
X121229523Y-108084952D01*
X121181904Y-108132571D01*
X121086666Y-108180190D01*
X120705714Y-108180190D01*
X122229523Y-108656380D02*
X121658095Y-108656380D01*
X121943809Y-108656380D02*
X121943809Y-107656380D01*
X121848571Y-107799238D01*
X121753333Y-107894476D01*
X121658095Y-107942095D01*
X122848571Y-107656380D02*
X122943809Y-107656380D01*
X123039047Y-107704000D01*
X123086666Y-107751619D01*
X123134285Y-107846857D01*
X123181904Y-108037333D01*
X123181904Y-108275428D01*
X123134285Y-108465904D01*
X123086666Y-108561142D01*
X123039047Y-108608761D01*
X122943809Y-108656380D01*
X122848571Y-108656380D01*
X122753333Y-108608761D01*
X122705714Y-108561142D01*
X122658095Y-108465904D01*
X122610476Y-108275428D01*
X122610476Y-108037333D01*
X122658095Y-107846857D01*
X122705714Y-107751619D01*
X122753333Y-107704000D01*
X122848571Y-107656380D01*
%TO.C,R9*%
X122261333Y-106878380D02*
X121928000Y-106402190D01*
X121689904Y-106878380D02*
X121689904Y-105878380D01*
X122070857Y-105878380D01*
X122166095Y-105926000D01*
X122213714Y-105973619D01*
X122261333Y-106068857D01*
X122261333Y-106211714D01*
X122213714Y-106306952D01*
X122166095Y-106354571D01*
X122070857Y-106402190D01*
X121689904Y-106402190D01*
X122737523Y-106878380D02*
X122928000Y-106878380D01*
X123023238Y-106830761D01*
X123070857Y-106783142D01*
X123166095Y-106640285D01*
X123213714Y-106449809D01*
X123213714Y-106068857D01*
X123166095Y-105973619D01*
X123118476Y-105926000D01*
X123023238Y-105878380D01*
X122832761Y-105878380D01*
X122737523Y-105926000D01*
X122689904Y-105973619D01*
X122642285Y-106068857D01*
X122642285Y-106306952D01*
X122689904Y-106402190D01*
X122737523Y-106449809D01*
X122832761Y-106497428D01*
X123023238Y-106497428D01*
X123118476Y-106449809D01*
X123166095Y-106402190D01*
X123213714Y-106306952D01*
%TO.C,R8*%
X102957333Y-60650380D02*
X102624000Y-60174190D01*
X102385904Y-60650380D02*
X102385904Y-59650380D01*
X102766857Y-59650380D01*
X102862095Y-59698000D01*
X102909714Y-59745619D01*
X102957333Y-59840857D01*
X102957333Y-59983714D01*
X102909714Y-60078952D01*
X102862095Y-60126571D01*
X102766857Y-60174190D01*
X102385904Y-60174190D01*
X103528761Y-60078952D02*
X103433523Y-60031333D01*
X103385904Y-59983714D01*
X103338285Y-59888476D01*
X103338285Y-59840857D01*
X103385904Y-59745619D01*
X103433523Y-59698000D01*
X103528761Y-59650380D01*
X103719238Y-59650380D01*
X103814476Y-59698000D01*
X103862095Y-59745619D01*
X103909714Y-59840857D01*
X103909714Y-59888476D01*
X103862095Y-59983714D01*
X103814476Y-60031333D01*
X103719238Y-60078952D01*
X103528761Y-60078952D01*
X103433523Y-60126571D01*
X103385904Y-60174190D01*
X103338285Y-60269428D01*
X103338285Y-60459904D01*
X103385904Y-60555142D01*
X103433523Y-60602761D01*
X103528761Y-60650380D01*
X103719238Y-60650380D01*
X103814476Y-60602761D01*
X103862095Y-60555142D01*
X103909714Y-60459904D01*
X103909714Y-60269428D01*
X103862095Y-60174190D01*
X103814476Y-60126571D01*
X103719238Y-60078952D01*
%TO.C,R7*%
X102957333Y-58872380D02*
X102624000Y-58396190D01*
X102385904Y-58872380D02*
X102385904Y-57872380D01*
X102766857Y-57872380D01*
X102862095Y-57920000D01*
X102909714Y-57967619D01*
X102957333Y-58062857D01*
X102957333Y-58205714D01*
X102909714Y-58300952D01*
X102862095Y-58348571D01*
X102766857Y-58396190D01*
X102385904Y-58396190D01*
X103290666Y-57872380D02*
X103957333Y-57872380D01*
X103528761Y-58872380D01*
%TO.C,R6*%
X102957333Y-57094380D02*
X102624000Y-56618190D01*
X102385904Y-57094380D02*
X102385904Y-56094380D01*
X102766857Y-56094380D01*
X102862095Y-56142000D01*
X102909714Y-56189619D01*
X102957333Y-56284857D01*
X102957333Y-56427714D01*
X102909714Y-56522952D01*
X102862095Y-56570571D01*
X102766857Y-56618190D01*
X102385904Y-56618190D01*
X103814476Y-56094380D02*
X103624000Y-56094380D01*
X103528761Y-56142000D01*
X103481142Y-56189619D01*
X103385904Y-56332476D01*
X103338285Y-56522952D01*
X103338285Y-56903904D01*
X103385904Y-56999142D01*
X103433523Y-57046761D01*
X103528761Y-57094380D01*
X103719238Y-57094380D01*
X103814476Y-57046761D01*
X103862095Y-56999142D01*
X103909714Y-56903904D01*
X103909714Y-56665809D01*
X103862095Y-56570571D01*
X103814476Y-56522952D01*
X103719238Y-56475333D01*
X103528761Y-56475333D01*
X103433523Y-56522952D01*
X103385904Y-56570571D01*
X103338285Y-56665809D01*
%TO.C,R5*%
X102957333Y-55316380D02*
X102624000Y-54840190D01*
X102385904Y-55316380D02*
X102385904Y-54316380D01*
X102766857Y-54316380D01*
X102862095Y-54364000D01*
X102909714Y-54411619D01*
X102957333Y-54506857D01*
X102957333Y-54649714D01*
X102909714Y-54744952D01*
X102862095Y-54792571D01*
X102766857Y-54840190D01*
X102385904Y-54840190D01*
X103862095Y-54316380D02*
X103385904Y-54316380D01*
X103338285Y-54792571D01*
X103385904Y-54744952D01*
X103481142Y-54697333D01*
X103719238Y-54697333D01*
X103814476Y-54744952D01*
X103862095Y-54792571D01*
X103909714Y-54887809D01*
X103909714Y-55125904D01*
X103862095Y-55221142D01*
X103814476Y-55268761D01*
X103719238Y-55316380D01*
X103481142Y-55316380D01*
X103385904Y-55268761D01*
X103338285Y-55221142D01*
%TO.C,R4*%
X102957333Y-53538380D02*
X102624000Y-53062190D01*
X102385904Y-53538380D02*
X102385904Y-52538380D01*
X102766857Y-52538380D01*
X102862095Y-52586000D01*
X102909714Y-52633619D01*
X102957333Y-52728857D01*
X102957333Y-52871714D01*
X102909714Y-52966952D01*
X102862095Y-53014571D01*
X102766857Y-53062190D01*
X102385904Y-53062190D01*
X103814476Y-52871714D02*
X103814476Y-53538380D01*
X103576380Y-52490761D02*
X103338285Y-53205047D01*
X103957333Y-53205047D01*
%TO.C,R3*%
X102957333Y-51760380D02*
X102624000Y-51284190D01*
X102385904Y-51760380D02*
X102385904Y-50760380D01*
X102766857Y-50760380D01*
X102862095Y-50808000D01*
X102909714Y-50855619D01*
X102957333Y-50950857D01*
X102957333Y-51093714D01*
X102909714Y-51188952D01*
X102862095Y-51236571D01*
X102766857Y-51284190D01*
X102385904Y-51284190D01*
X103290666Y-50760380D02*
X103909714Y-50760380D01*
X103576380Y-51141333D01*
X103719238Y-51141333D01*
X103814476Y-51188952D01*
X103862095Y-51236571D01*
X103909714Y-51331809D01*
X103909714Y-51569904D01*
X103862095Y-51665142D01*
X103814476Y-51712761D01*
X103719238Y-51760380D01*
X103433523Y-51760380D01*
X103338285Y-51712761D01*
X103290666Y-51665142D01*
%TO.C,R2*%
X102957333Y-49982380D02*
X102624000Y-49506190D01*
X102385904Y-49982380D02*
X102385904Y-48982380D01*
X102766857Y-48982380D01*
X102862095Y-49030000D01*
X102909714Y-49077619D01*
X102957333Y-49172857D01*
X102957333Y-49315714D01*
X102909714Y-49410952D01*
X102862095Y-49458571D01*
X102766857Y-49506190D01*
X102385904Y-49506190D01*
X103338285Y-49077619D02*
X103385904Y-49030000D01*
X103481142Y-48982380D01*
X103719238Y-48982380D01*
X103814476Y-49030000D01*
X103862095Y-49077619D01*
X103909714Y-49172857D01*
X103909714Y-49268095D01*
X103862095Y-49410952D01*
X103290666Y-49982380D01*
X103909714Y-49982380D01*
%TO.C,R1*%
X102957333Y-48204380D02*
X102624000Y-47728190D01*
X102385904Y-48204380D02*
X102385904Y-47204380D01*
X102766857Y-47204380D01*
X102862095Y-47252000D01*
X102909714Y-47299619D01*
X102957333Y-47394857D01*
X102957333Y-47537714D01*
X102909714Y-47632952D01*
X102862095Y-47680571D01*
X102766857Y-47728190D01*
X102385904Y-47728190D01*
X103909714Y-48204380D02*
X103338285Y-48204380D01*
X103624000Y-48204380D02*
X103624000Y-47204380D01*
X103528761Y-47347238D01*
X103433523Y-47442476D01*
X103338285Y-47490095D01*
%TO.C,J5*%
X140930380Y-44275333D02*
X141644666Y-44275333D01*
X141787523Y-44322952D01*
X141882761Y-44418190D01*
X141930380Y-44561047D01*
X141930380Y-44656285D01*
X140930380Y-43322952D02*
X140930380Y-43799142D01*
X141406571Y-43846761D01*
X141358952Y-43799142D01*
X141311333Y-43703904D01*
X141311333Y-43465809D01*
X141358952Y-43370571D01*
X141406571Y-43322952D01*
X141501809Y-43275333D01*
X141739904Y-43275333D01*
X141835142Y-43322952D01*
X141882761Y-43370571D01*
X141930380Y-43465809D01*
X141930380Y-43703904D01*
X141882761Y-43799142D01*
X141835142Y-43846761D01*
X147813666Y-47115761D02*
X147956523Y-47163380D01*
X148194619Y-47163380D01*
X148289857Y-47115761D01*
X148337476Y-47068142D01*
X148385095Y-46972904D01*
X148385095Y-46877666D01*
X148337476Y-46782428D01*
X148289857Y-46734809D01*
X148194619Y-46687190D01*
X148004142Y-46639571D01*
X147908904Y-46591952D01*
X147861285Y-46544333D01*
X147813666Y-46449095D01*
X147813666Y-46353857D01*
X147861285Y-46258619D01*
X147908904Y-46211000D01*
X148004142Y-46163380D01*
X148242238Y-46163380D01*
X148385095Y-46211000D01*
X149194619Y-47115761D02*
X149099380Y-47163380D01*
X148908904Y-47163380D01*
X148813666Y-47115761D01*
X148766047Y-47020523D01*
X148766047Y-46639571D01*
X148813666Y-46544333D01*
X148908904Y-46496714D01*
X149099380Y-46496714D01*
X149194619Y-46544333D01*
X149242238Y-46639571D01*
X149242238Y-46734809D01*
X148766047Y-46830047D01*
X149670809Y-47163380D02*
X149670809Y-46496714D01*
X149670809Y-46687190D02*
X149718428Y-46591952D01*
X149766047Y-46544333D01*
X149861285Y-46496714D01*
X149956523Y-46496714D01*
X150289857Y-47163380D02*
X150289857Y-46496714D01*
X150289857Y-46163380D02*
X150242238Y-46211000D01*
X150289857Y-46258619D01*
X150337476Y-46211000D01*
X150289857Y-46163380D01*
X150289857Y-46258619D01*
X151194619Y-47163380D02*
X151194619Y-46639571D01*
X151147000Y-46544333D01*
X151051761Y-46496714D01*
X150861285Y-46496714D01*
X150766047Y-46544333D01*
X151194619Y-47115761D02*
X151099380Y-47163380D01*
X150861285Y-47163380D01*
X150766047Y-47115761D01*
X150718428Y-47020523D01*
X150718428Y-46925285D01*
X150766047Y-46830047D01*
X150861285Y-46782428D01*
X151099380Y-46782428D01*
X151194619Y-46734809D01*
X151813666Y-47163380D02*
X151718428Y-47115761D01*
X151670809Y-47020523D01*
X151670809Y-46163380D01*
X153480333Y-47163380D02*
X152908904Y-47163380D01*
X153194619Y-47163380D02*
X153194619Y-46163380D01*
X153099380Y-46306238D01*
X153004142Y-46401476D01*
X152908904Y-46449095D01*
%TO.C,J4*%
X113986666Y-72643380D02*
X113986666Y-73357666D01*
X113939047Y-73500523D01*
X113843809Y-73595761D01*
X113700952Y-73643380D01*
X113605714Y-73643380D01*
X114891428Y-72976714D02*
X114891428Y-73643380D01*
X114653333Y-72595761D02*
X114415238Y-73310047D01*
X115034285Y-73310047D01*
X112843809Y-84263380D02*
X112843809Y-83263380D01*
X113891428Y-84168142D02*
X113843809Y-84215761D01*
X113700952Y-84263380D01*
X113605714Y-84263380D01*
X113462857Y-84215761D01*
X113367619Y-84120523D01*
X113320000Y-84025285D01*
X113272380Y-83834809D01*
X113272380Y-83691952D01*
X113320000Y-83501476D01*
X113367619Y-83406238D01*
X113462857Y-83311000D01*
X113605714Y-83263380D01*
X113700952Y-83263380D01*
X113843809Y-83311000D01*
X113891428Y-83358619D01*
X114272380Y-84215761D02*
X114415238Y-84263380D01*
X114653333Y-84263380D01*
X114748571Y-84215761D01*
X114796190Y-84168142D01*
X114843809Y-84072904D01*
X114843809Y-83977666D01*
X114796190Y-83882428D01*
X114748571Y-83834809D01*
X114653333Y-83787190D01*
X114462857Y-83739571D01*
X114367619Y-83691952D01*
X114320000Y-83644333D01*
X114272380Y-83549095D01*
X114272380Y-83453857D01*
X114320000Y-83358619D01*
X114367619Y-83311000D01*
X114462857Y-83263380D01*
X114700952Y-83263380D01*
X114843809Y-83311000D01*
X115272380Y-84263380D02*
X115272380Y-83263380D01*
X115653333Y-83263380D01*
X115748571Y-83311000D01*
X115796190Y-83358619D01*
X115843809Y-83453857D01*
X115843809Y-83596714D01*
X115796190Y-83691952D01*
X115748571Y-83739571D01*
X115653333Y-83787190D01*
X115272380Y-83787190D01*
%TO.C,J3*%
X69268380Y-126830333D02*
X69982666Y-126830333D01*
X70125523Y-126877952D01*
X70220761Y-126973190D01*
X70268380Y-127116047D01*
X70268380Y-127211285D01*
X69268380Y-126449380D02*
X69268380Y-125830333D01*
X69649333Y-126163666D01*
X69649333Y-126020809D01*
X69696952Y-125925571D01*
X69744571Y-125877952D01*
X69839809Y-125830333D01*
X70077904Y-125830333D01*
X70173142Y-125877952D01*
X70220761Y-125925571D01*
X70268380Y-126020809D01*
X70268380Y-126306523D01*
X70220761Y-126401761D01*
X70173142Y-126449380D01*
X159456380Y-128793619D02*
X158456380Y-128793619D01*
X158456380Y-128555523D01*
X158504000Y-128412666D01*
X158599238Y-128317428D01*
X158694476Y-128269809D01*
X158884952Y-128222190D01*
X159027809Y-128222190D01*
X159218285Y-128269809D01*
X159313523Y-128317428D01*
X159408761Y-128412666D01*
X159456380Y-128555523D01*
X159456380Y-128793619D01*
X159408761Y-127412666D02*
X159456380Y-127507904D01*
X159456380Y-127698380D01*
X159408761Y-127793619D01*
X159313523Y-127841238D01*
X158932571Y-127841238D01*
X158837333Y-127793619D01*
X158789714Y-127698380D01*
X158789714Y-127507904D01*
X158837333Y-127412666D01*
X158932571Y-127365047D01*
X159027809Y-127365047D01*
X159123047Y-127841238D01*
X159456380Y-126936476D02*
X158456380Y-126936476D01*
X158837333Y-126936476D02*
X158789714Y-126841238D01*
X158789714Y-126650761D01*
X158837333Y-126555523D01*
X158884952Y-126507904D01*
X158980190Y-126460285D01*
X159265904Y-126460285D01*
X159361142Y-126507904D01*
X159408761Y-126555523D01*
X159456380Y-126650761D01*
X159456380Y-126841238D01*
X159408761Y-126936476D01*
X158789714Y-125603142D02*
X159456380Y-125603142D01*
X158789714Y-126031714D02*
X159313523Y-126031714D01*
X159408761Y-125984095D01*
X159456380Y-125888857D01*
X159456380Y-125746000D01*
X159408761Y-125650761D01*
X159361142Y-125603142D01*
X158789714Y-124698380D02*
X159599238Y-124698380D01*
X159694476Y-124746000D01*
X159742095Y-124793619D01*
X159789714Y-124888857D01*
X159789714Y-125031714D01*
X159742095Y-125126952D01*
X159408761Y-124698380D02*
X159456380Y-124793619D01*
X159456380Y-124984095D01*
X159408761Y-125079333D01*
X159361142Y-125126952D01*
X159265904Y-125174571D01*
X158980190Y-125174571D01*
X158884952Y-125126952D01*
X158837333Y-125079333D01*
X158789714Y-124984095D01*
X158789714Y-124793619D01*
X158837333Y-124698380D01*
%TO.C,J2*%
X145995666Y-63748380D02*
X145995666Y-64462666D01*
X145948047Y-64605523D01*
X145852809Y-64700761D01*
X145709952Y-64748380D01*
X145614714Y-64748380D01*
X146424238Y-63843619D02*
X146471857Y-63796000D01*
X146567095Y-63748380D01*
X146805190Y-63748380D01*
X146900428Y-63796000D01*
X146948047Y-63843619D01*
X146995666Y-63938857D01*
X146995666Y-64034095D01*
X146948047Y-64176952D01*
X146376619Y-64748380D01*
X146995666Y-64748380D01*
X145352809Y-77908380D02*
X145352809Y-76908380D01*
X145781380Y-77003619D02*
X145829000Y-76956000D01*
X145924238Y-76908380D01*
X146162333Y-76908380D01*
X146257571Y-76956000D01*
X146305190Y-77003619D01*
X146352809Y-77098857D01*
X146352809Y-77194095D01*
X146305190Y-77336952D01*
X145733761Y-77908380D01*
X146352809Y-77908380D01*
X147352809Y-77813142D02*
X147305190Y-77860761D01*
X147162333Y-77908380D01*
X147067095Y-77908380D01*
X146924238Y-77860761D01*
X146829000Y-77765523D01*
X146781380Y-77670285D01*
X146733761Y-77479809D01*
X146733761Y-77336952D01*
X146781380Y-77146476D01*
X146829000Y-77051238D01*
X146924238Y-76956000D01*
X147067095Y-76908380D01*
X147162333Y-76908380D01*
X147305190Y-76956000D01*
X147352809Y-77003619D01*
%TO.C,J1*%
X157146666Y-108882380D02*
X157146666Y-109596666D01*
X157099047Y-109739523D01*
X157003809Y-109834761D01*
X156860952Y-109882380D01*
X156765714Y-109882380D01*
X158146666Y-109882380D02*
X157575238Y-109882380D01*
X157860952Y-109882380D02*
X157860952Y-108882380D01*
X157765714Y-109025238D01*
X157670476Y-109120476D01*
X157575238Y-109168095D01*
X155503809Y-119622380D02*
X155503809Y-118622380D01*
X155884761Y-118622380D01*
X155980000Y-118670000D01*
X156027619Y-118717619D01*
X156075238Y-118812857D01*
X156075238Y-118955714D01*
X156027619Y-119050952D01*
X155980000Y-119098571D01*
X155884761Y-119146190D01*
X155503809Y-119146190D01*
X156646666Y-119622380D02*
X156551428Y-119574761D01*
X156503809Y-119527142D01*
X156456190Y-119431904D01*
X156456190Y-119146190D01*
X156503809Y-119050952D01*
X156551428Y-119003333D01*
X156646666Y-118955714D01*
X156789523Y-118955714D01*
X156884761Y-119003333D01*
X156932380Y-119050952D01*
X156980000Y-119146190D01*
X156980000Y-119431904D01*
X156932380Y-119527142D01*
X156884761Y-119574761D01*
X156789523Y-119622380D01*
X156646666Y-119622380D01*
X157313333Y-118955714D02*
X157503809Y-119622380D01*
X157694285Y-119146190D01*
X157884761Y-119622380D01*
X158075238Y-118955714D01*
X158837142Y-119574761D02*
X158741904Y-119622380D01*
X158551428Y-119622380D01*
X158456190Y-119574761D01*
X158408571Y-119479523D01*
X158408571Y-119098571D01*
X158456190Y-119003333D01*
X158551428Y-118955714D01*
X158741904Y-118955714D01*
X158837142Y-119003333D01*
X158884761Y-119098571D01*
X158884761Y-119193809D01*
X158408571Y-119289047D01*
X159313333Y-119622380D02*
X159313333Y-118955714D01*
X159313333Y-119146190D02*
X159360952Y-119050952D01*
X159408571Y-119003333D01*
X159503809Y-118955714D01*
X159599047Y-118955714D01*
%TO.C,IC1*%
X83097809Y-38582380D02*
X83097809Y-37582380D01*
X84145428Y-38487142D02*
X84097809Y-38534761D01*
X83954952Y-38582380D01*
X83859714Y-38582380D01*
X83716857Y-38534761D01*
X83621619Y-38439523D01*
X83574000Y-38344285D01*
X83526380Y-38153809D01*
X83526380Y-38010952D01*
X83574000Y-37820476D01*
X83621619Y-37725238D01*
X83716857Y-37630000D01*
X83859714Y-37582380D01*
X83954952Y-37582380D01*
X84097809Y-37630000D01*
X84145428Y-37677619D01*
X85097809Y-38582380D02*
X84526380Y-38582380D01*
X84812095Y-38582380D02*
X84812095Y-37582380D01*
X84716857Y-37725238D01*
X84621619Y-37820476D01*
X84526380Y-37868095D01*
X79431142Y-66462380D02*
X79431142Y-65462380D01*
X79764476Y-66176666D01*
X80097809Y-65462380D01*
X80097809Y-66462380D01*
X81145428Y-66367142D02*
X81097809Y-66414761D01*
X80954952Y-66462380D01*
X80859714Y-66462380D01*
X80716857Y-66414761D01*
X80621619Y-66319523D01*
X80574000Y-66224285D01*
X80526380Y-66033809D01*
X80526380Y-65890952D01*
X80574000Y-65700476D01*
X80621619Y-65605238D01*
X80716857Y-65510000D01*
X80859714Y-65462380D01*
X80954952Y-65462380D01*
X81097809Y-65510000D01*
X81145428Y-65557619D01*
X82002571Y-65462380D02*
X81812095Y-65462380D01*
X81716857Y-65510000D01*
X81669238Y-65557619D01*
X81574000Y-65700476D01*
X81526380Y-65890952D01*
X81526380Y-66271904D01*
X81574000Y-66367142D01*
X81621619Y-66414761D01*
X81716857Y-66462380D01*
X81907333Y-66462380D01*
X82002571Y-66414761D01*
X82050190Y-66367142D01*
X82097809Y-66271904D01*
X82097809Y-66033809D01*
X82050190Y-65938571D01*
X82002571Y-65890952D01*
X81907333Y-65843333D01*
X81716857Y-65843333D01*
X81621619Y-65890952D01*
X81574000Y-65938571D01*
X81526380Y-66033809D01*
X82669238Y-65890952D02*
X82574000Y-65843333D01*
X82526380Y-65795714D01*
X82478761Y-65700476D01*
X82478761Y-65652857D01*
X82526380Y-65557619D01*
X82574000Y-65510000D01*
X82669238Y-65462380D01*
X82859714Y-65462380D01*
X82954952Y-65510000D01*
X83002571Y-65557619D01*
X83050190Y-65652857D01*
X83050190Y-65700476D01*
X83002571Y-65795714D01*
X82954952Y-65843333D01*
X82859714Y-65890952D01*
X82669238Y-65890952D01*
X82574000Y-65938571D01*
X82526380Y-65986190D01*
X82478761Y-66081428D01*
X82478761Y-66271904D01*
X82526380Y-66367142D01*
X82574000Y-66414761D01*
X82669238Y-66462380D01*
X82859714Y-66462380D01*
X82954952Y-66414761D01*
X83002571Y-66367142D01*
X83050190Y-66271904D01*
X83050190Y-66081428D01*
X83002571Y-65986190D01*
X82954952Y-65938571D01*
X82859714Y-65890952D01*
X83669238Y-65462380D02*
X83764476Y-65462380D01*
X83859714Y-65510000D01*
X83907333Y-65557619D01*
X83954952Y-65652857D01*
X84002571Y-65843333D01*
X84002571Y-66081428D01*
X83954952Y-66271904D01*
X83907333Y-66367142D01*
X83859714Y-66414761D01*
X83764476Y-66462380D01*
X83669238Y-66462380D01*
X83574000Y-66414761D01*
X83526380Y-66367142D01*
X83478761Y-66271904D01*
X83431142Y-66081428D01*
X83431142Y-65843333D01*
X83478761Y-65652857D01*
X83526380Y-65557619D01*
X83574000Y-65510000D01*
X83669238Y-65462380D01*
X84621619Y-65462380D02*
X84716857Y-65462380D01*
X84812095Y-65510000D01*
X84859714Y-65557619D01*
X84907333Y-65652857D01*
X84954952Y-65843333D01*
X84954952Y-66081428D01*
X84907333Y-66271904D01*
X84859714Y-66367142D01*
X84812095Y-66414761D01*
X84716857Y-66462380D01*
X84621619Y-66462380D01*
X84526380Y-66414761D01*
X84478761Y-66367142D01*
X84431142Y-66271904D01*
X84383523Y-66081428D01*
X84383523Y-65843333D01*
X84431142Y-65652857D01*
X84478761Y-65557619D01*
X84526380Y-65510000D01*
X84621619Y-65462380D01*
X85526380Y-65890952D02*
X85431142Y-65843333D01*
X85383523Y-65795714D01*
X85335904Y-65700476D01*
X85335904Y-65652857D01*
X85383523Y-65557619D01*
X85431142Y-65510000D01*
X85526380Y-65462380D01*
X85716857Y-65462380D01*
X85812095Y-65510000D01*
X85859714Y-65557619D01*
X85907333Y-65652857D01*
X85907333Y-65700476D01*
X85859714Y-65795714D01*
X85812095Y-65843333D01*
X85716857Y-65890952D01*
X85526380Y-65890952D01*
X85431142Y-65938571D01*
X85383523Y-65986190D01*
X85335904Y-66081428D01*
X85335904Y-66271904D01*
X85383523Y-66367142D01*
X85431142Y-66414761D01*
X85526380Y-66462380D01*
X85716857Y-66462380D01*
X85812095Y-66414761D01*
X85859714Y-66367142D01*
X85907333Y-66271904D01*
X85907333Y-66081428D01*
X85859714Y-65986190D01*
X85812095Y-65938571D01*
X85716857Y-65890952D01*
X86669238Y-65938571D02*
X86335904Y-65938571D01*
X86335904Y-66462380D02*
X86335904Y-65462380D01*
X86812095Y-65462380D01*
X87193047Y-66462380D02*
X87193047Y-65462380D01*
X87764476Y-66462380D01*
X87764476Y-65462380D01*
X88383523Y-65890952D02*
X88288285Y-65843333D01*
X88240666Y-65795714D01*
X88193047Y-65700476D01*
X88193047Y-65652857D01*
X88240666Y-65557619D01*
X88288285Y-65510000D01*
X88383523Y-65462380D01*
X88574000Y-65462380D01*
X88669238Y-65510000D01*
X88716857Y-65557619D01*
X88764476Y-65652857D01*
X88764476Y-65700476D01*
X88716857Y-65795714D01*
X88669238Y-65843333D01*
X88574000Y-65890952D01*
X88383523Y-65890952D01*
X88288285Y-65938571D01*
X88240666Y-65986190D01*
X88193047Y-66081428D01*
X88193047Y-66271904D01*
X88240666Y-66367142D01*
X88288285Y-66414761D01*
X88383523Y-66462380D01*
X88574000Y-66462380D01*
X88669238Y-66414761D01*
X88716857Y-66367142D01*
X88764476Y-66271904D01*
X88764476Y-66081428D01*
X88716857Y-65986190D01*
X88669238Y-65938571D01*
X88574000Y-65890952D01*
%TO.C,D2*%
X115593904Y-67466380D02*
X115593904Y-66466380D01*
X115832000Y-66466380D01*
X115974857Y-66514000D01*
X116070095Y-66609238D01*
X116117714Y-66704476D01*
X116165333Y-66894952D01*
X116165333Y-67037809D01*
X116117714Y-67228285D01*
X116070095Y-67323523D01*
X115974857Y-67418761D01*
X115832000Y-67466380D01*
X115593904Y-67466380D01*
X116546285Y-66561619D02*
X116593904Y-66514000D01*
X116689142Y-66466380D01*
X116927238Y-66466380D01*
X117022476Y-66514000D01*
X117070095Y-66561619D01*
X117117714Y-66656857D01*
X117117714Y-66752095D01*
X117070095Y-66894952D01*
X116498666Y-67466380D01*
X117117714Y-67466380D01*
X112998666Y-70582571D02*
X113141523Y-70630190D01*
X113189142Y-70677809D01*
X113236761Y-70773047D01*
X113236761Y-70915904D01*
X113189142Y-71011142D01*
X113141523Y-71058761D01*
X113046285Y-71106380D01*
X112665333Y-71106380D01*
X112665333Y-70106380D01*
X112998666Y-70106380D01*
X113093904Y-70154000D01*
X113141523Y-70201619D01*
X113189142Y-70296857D01*
X113189142Y-70392095D01*
X113141523Y-70487333D01*
X113093904Y-70534952D01*
X112998666Y-70582571D01*
X112665333Y-70582571D01*
X114141523Y-71106380D02*
X113665333Y-71106380D01*
X113665333Y-70106380D01*
X114474857Y-71106380D02*
X114474857Y-70106380D01*
X114951047Y-71106380D02*
X114951047Y-70106380D01*
X115522476Y-71106380D01*
X115522476Y-70106380D01*
X115998666Y-71106380D02*
X115998666Y-70106380D01*
X116570095Y-71106380D02*
X116141523Y-70534952D01*
X116570095Y-70106380D02*
X115998666Y-70677809D01*
X118236761Y-71106380D02*
X117760571Y-71106380D01*
X117760571Y-70106380D01*
X118570095Y-70582571D02*
X118903428Y-70582571D01*
X119046285Y-71106380D02*
X118570095Y-71106380D01*
X118570095Y-70106380D01*
X119046285Y-70106380D01*
X119474857Y-71106380D02*
X119474857Y-70106380D01*
X119712952Y-70106380D01*
X119855809Y-70154000D01*
X119951047Y-70249238D01*
X119998666Y-70344476D01*
X120046285Y-70534952D01*
X120046285Y-70677809D01*
X119998666Y-70868285D01*
X119951047Y-70963523D01*
X119855809Y-71058761D01*
X119712952Y-71106380D01*
X119474857Y-71106380D01*
%TO.C,D1*%
X139469904Y-113736380D02*
X139469904Y-112736380D01*
X139708000Y-112736380D01*
X139850857Y-112784000D01*
X139946095Y-112879238D01*
X139993714Y-112974476D01*
X140041333Y-113164952D01*
X140041333Y-113307809D01*
X139993714Y-113498285D01*
X139946095Y-113593523D01*
X139850857Y-113688761D01*
X139708000Y-113736380D01*
X139469904Y-113736380D01*
X140993714Y-113736380D02*
X140422285Y-113736380D01*
X140708000Y-113736380D02*
X140708000Y-112736380D01*
X140612761Y-112879238D01*
X140517523Y-112974476D01*
X140422285Y-113022095D01*
X136882571Y-117800380D02*
X136882571Y-116800380D01*
X137263523Y-116800380D01*
X137358761Y-116848000D01*
X137406380Y-116895619D01*
X137454000Y-116990857D01*
X137454000Y-117133714D01*
X137406380Y-117228952D01*
X137358761Y-117276571D01*
X137263523Y-117324190D01*
X136882571Y-117324190D01*
X137787333Y-116800380D02*
X138025428Y-117800380D01*
X138215904Y-117086095D01*
X138406380Y-117800380D01*
X138644476Y-116800380D01*
X139596857Y-117800380D02*
X139263523Y-117324190D01*
X139025428Y-117800380D02*
X139025428Y-116800380D01*
X139406380Y-116800380D01*
X139501619Y-116848000D01*
X139549238Y-116895619D01*
X139596857Y-116990857D01*
X139596857Y-117133714D01*
X139549238Y-117228952D01*
X139501619Y-117276571D01*
X139406380Y-117324190D01*
X139025428Y-117324190D01*
X141263523Y-117800380D02*
X140787333Y-117800380D01*
X140787333Y-116800380D01*
X141596857Y-117276571D02*
X141930190Y-117276571D01*
X142073047Y-117800380D02*
X141596857Y-117800380D01*
X141596857Y-116800380D01*
X142073047Y-116800380D01*
X142501619Y-117800380D02*
X142501619Y-116800380D01*
X142739714Y-116800380D01*
X142882571Y-116848000D01*
X142977809Y-116943238D01*
X143025428Y-117038476D01*
X143073047Y-117228952D01*
X143073047Y-117371809D01*
X143025428Y-117562285D01*
X142977809Y-117657523D01*
X142882571Y-117752761D01*
X142739714Y-117800380D01*
X142501619Y-117800380D01*
%TO.C,C11*%
X154941142Y-113418857D02*
X154988761Y-113466476D01*
X155036380Y-113609333D01*
X155036380Y-113704571D01*
X154988761Y-113847428D01*
X154893523Y-113942666D01*
X154798285Y-113990285D01*
X154607809Y-114037904D01*
X154464952Y-114037904D01*
X154274476Y-113990285D01*
X154179238Y-113942666D01*
X154084000Y-113847428D01*
X154036380Y-113704571D01*
X154036380Y-113609333D01*
X154084000Y-113466476D01*
X154131619Y-113418857D01*
X155036380Y-112466476D02*
X155036380Y-113037904D01*
X155036380Y-112752190D02*
X154036380Y-112752190D01*
X154179238Y-112847428D01*
X154274476Y-112942666D01*
X154322095Y-113037904D01*
X155036380Y-111514095D02*
X155036380Y-112085523D01*
X155036380Y-111799809D02*
X154036380Y-111799809D01*
X154179238Y-111895047D01*
X154274476Y-111990285D01*
X154322095Y-112085523D01*
%TO.C,C10*%
X105275142Y-101289142D02*
X105227523Y-101336761D01*
X105084666Y-101384380D01*
X104989428Y-101384380D01*
X104846571Y-101336761D01*
X104751333Y-101241523D01*
X104703714Y-101146285D01*
X104656095Y-100955809D01*
X104656095Y-100812952D01*
X104703714Y-100622476D01*
X104751333Y-100527238D01*
X104846571Y-100432000D01*
X104989428Y-100384380D01*
X105084666Y-100384380D01*
X105227523Y-100432000D01*
X105275142Y-100479619D01*
X106227523Y-101384380D02*
X105656095Y-101384380D01*
X105941809Y-101384380D02*
X105941809Y-100384380D01*
X105846571Y-100527238D01*
X105751333Y-100622476D01*
X105656095Y-100670095D01*
X106846571Y-100384380D02*
X106941809Y-100384380D01*
X107037047Y-100432000D01*
X107084666Y-100479619D01*
X107132285Y-100574857D01*
X107179904Y-100765333D01*
X107179904Y-101003428D01*
X107132285Y-101193904D01*
X107084666Y-101289142D01*
X107037047Y-101336761D01*
X106941809Y-101384380D01*
X106846571Y-101384380D01*
X106751333Y-101336761D01*
X106703714Y-101289142D01*
X106656095Y-101193904D01*
X106608476Y-101003428D01*
X106608476Y-100765333D01*
X106656095Y-100574857D01*
X106703714Y-100479619D01*
X106751333Y-100432000D01*
X106846571Y-100384380D01*
%TO.C,C9*%
X95083333Y-101289142D02*
X95035714Y-101336761D01*
X94892857Y-101384380D01*
X94797619Y-101384380D01*
X94654761Y-101336761D01*
X94559523Y-101241523D01*
X94511904Y-101146285D01*
X94464285Y-100955809D01*
X94464285Y-100812952D01*
X94511904Y-100622476D01*
X94559523Y-100527238D01*
X94654761Y-100432000D01*
X94797619Y-100384380D01*
X94892857Y-100384380D01*
X95035714Y-100432000D01*
X95083333Y-100479619D01*
X95559523Y-101384380D02*
X95750000Y-101384380D01*
X95845238Y-101336761D01*
X95892857Y-101289142D01*
X95988095Y-101146285D01*
X96035714Y-100955809D01*
X96035714Y-100574857D01*
X95988095Y-100479619D01*
X95940476Y-100432000D01*
X95845238Y-100384380D01*
X95654761Y-100384380D01*
X95559523Y-100432000D01*
X95511904Y-100479619D01*
X95464285Y-100574857D01*
X95464285Y-100812952D01*
X95511904Y-100908190D01*
X95559523Y-100955809D01*
X95654761Y-101003428D01*
X95845238Y-101003428D01*
X95940476Y-100955809D01*
X95988095Y-100908190D01*
X96035714Y-100812952D01*
%TO.C,C8*%
X113117333Y-38297142D02*
X113069714Y-38344761D01*
X112926857Y-38392380D01*
X112831619Y-38392380D01*
X112688761Y-38344761D01*
X112593523Y-38249523D01*
X112545904Y-38154285D01*
X112498285Y-37963809D01*
X112498285Y-37820952D01*
X112545904Y-37630476D01*
X112593523Y-37535238D01*
X112688761Y-37440000D01*
X112831619Y-37392380D01*
X112926857Y-37392380D01*
X113069714Y-37440000D01*
X113117333Y-37487619D01*
X113688761Y-37820952D02*
X113593523Y-37773333D01*
X113545904Y-37725714D01*
X113498285Y-37630476D01*
X113498285Y-37582857D01*
X113545904Y-37487619D01*
X113593523Y-37440000D01*
X113688761Y-37392380D01*
X113879238Y-37392380D01*
X113974476Y-37440000D01*
X114022095Y-37487619D01*
X114069714Y-37582857D01*
X114069714Y-37630476D01*
X114022095Y-37725714D01*
X113974476Y-37773333D01*
X113879238Y-37820952D01*
X113688761Y-37820952D01*
X113593523Y-37868571D01*
X113545904Y-37916190D01*
X113498285Y-38011428D01*
X113498285Y-38201904D01*
X113545904Y-38297142D01*
X113593523Y-38344761D01*
X113688761Y-38392380D01*
X113879238Y-38392380D01*
X113974476Y-38344761D01*
X114022095Y-38297142D01*
X114069714Y-38201904D01*
X114069714Y-38011428D01*
X114022095Y-37916190D01*
X113974476Y-37868571D01*
X113879238Y-37820952D01*
%TO.C,C7*%
X65635142Y-89574666D02*
X65682761Y-89622285D01*
X65730380Y-89765142D01*
X65730380Y-89860380D01*
X65682761Y-90003238D01*
X65587523Y-90098476D01*
X65492285Y-90146095D01*
X65301809Y-90193714D01*
X65158952Y-90193714D01*
X64968476Y-90146095D01*
X64873238Y-90098476D01*
X64778000Y-90003238D01*
X64730380Y-89860380D01*
X64730380Y-89765142D01*
X64778000Y-89622285D01*
X64825619Y-89574666D01*
X64730380Y-89241333D02*
X64730380Y-88574666D01*
X65730380Y-89003238D01*
%TO.C,C6*%
X131151333Y-101289142D02*
X131103714Y-101336761D01*
X130960857Y-101384380D01*
X130865619Y-101384380D01*
X130722761Y-101336761D01*
X130627523Y-101241523D01*
X130579904Y-101146285D01*
X130532285Y-100955809D01*
X130532285Y-100812952D01*
X130579904Y-100622476D01*
X130627523Y-100527238D01*
X130722761Y-100432000D01*
X130865619Y-100384380D01*
X130960857Y-100384380D01*
X131103714Y-100432000D01*
X131151333Y-100479619D01*
X132008476Y-100384380D02*
X131818000Y-100384380D01*
X131722761Y-100432000D01*
X131675142Y-100479619D01*
X131579904Y-100622476D01*
X131532285Y-100812952D01*
X131532285Y-101193904D01*
X131579904Y-101289142D01*
X131627523Y-101336761D01*
X131722761Y-101384380D01*
X131913238Y-101384380D01*
X132008476Y-101336761D01*
X132056095Y-101289142D01*
X132103714Y-101193904D01*
X132103714Y-100955809D01*
X132056095Y-100860571D01*
X132008476Y-100812952D01*
X131913238Y-100765333D01*
X131722761Y-100765333D01*
X131627523Y-100812952D01*
X131579904Y-100860571D01*
X131532285Y-100955809D01*
%TO.C,C5*%
X142327333Y-101289142D02*
X142279714Y-101336761D01*
X142136857Y-101384380D01*
X142041619Y-101384380D01*
X141898761Y-101336761D01*
X141803523Y-101241523D01*
X141755904Y-101146285D01*
X141708285Y-100955809D01*
X141708285Y-100812952D01*
X141755904Y-100622476D01*
X141803523Y-100527238D01*
X141898761Y-100432000D01*
X142041619Y-100384380D01*
X142136857Y-100384380D01*
X142279714Y-100432000D01*
X142327333Y-100479619D01*
X143232095Y-100384380D02*
X142755904Y-100384380D01*
X142708285Y-100860571D01*
X142755904Y-100812952D01*
X142851142Y-100765333D01*
X143089238Y-100765333D01*
X143184476Y-100812952D01*
X143232095Y-100860571D01*
X143279714Y-100955809D01*
X143279714Y-101193904D01*
X143232095Y-101289142D01*
X143184476Y-101336761D01*
X143089238Y-101384380D01*
X142851142Y-101384380D01*
X142755904Y-101336761D01*
X142708285Y-101289142D01*
%TO.C,C4*%
X101179333Y-85447142D02*
X101131714Y-85494761D01*
X100988857Y-85542380D01*
X100893619Y-85542380D01*
X100750761Y-85494761D01*
X100655523Y-85399523D01*
X100607904Y-85304285D01*
X100560285Y-85113809D01*
X100560285Y-84970952D01*
X100607904Y-84780476D01*
X100655523Y-84685238D01*
X100750761Y-84590000D01*
X100893619Y-84542380D01*
X100988857Y-84542380D01*
X101131714Y-84590000D01*
X101179333Y-84637619D01*
X102036476Y-84875714D02*
X102036476Y-85542380D01*
X101798380Y-84494761D02*
X101560285Y-85209047D01*
X102179333Y-85209047D01*
%TO.C,C3*%
X116165333Y-101195142D02*
X116117714Y-101242761D01*
X115974857Y-101290380D01*
X115879619Y-101290380D01*
X115736761Y-101242761D01*
X115641523Y-101147523D01*
X115593904Y-101052285D01*
X115546285Y-100861809D01*
X115546285Y-100718952D01*
X115593904Y-100528476D01*
X115641523Y-100433238D01*
X115736761Y-100338000D01*
X115879619Y-100290380D01*
X115974857Y-100290380D01*
X116117714Y-100338000D01*
X116165333Y-100385619D01*
X116498666Y-100290380D02*
X117117714Y-100290380D01*
X116784380Y-100671333D01*
X116927238Y-100671333D01*
X117022476Y-100718952D01*
X117070095Y-100766571D01*
X117117714Y-100861809D01*
X117117714Y-101099904D01*
X117070095Y-101195142D01*
X117022476Y-101242761D01*
X116927238Y-101290380D01*
X116641523Y-101290380D01*
X116546285Y-101242761D01*
X116498666Y-101195142D01*
%TO.C,C2*%
X69605142Y-50204666D02*
X69652761Y-50252285D01*
X69700380Y-50395142D01*
X69700380Y-50490380D01*
X69652761Y-50633238D01*
X69557523Y-50728476D01*
X69462285Y-50776095D01*
X69271809Y-50823714D01*
X69128952Y-50823714D01*
X68938476Y-50776095D01*
X68843238Y-50728476D01*
X68748000Y-50633238D01*
X68700380Y-50490380D01*
X68700380Y-50395142D01*
X68748000Y-50252285D01*
X68795619Y-50204666D01*
X68795619Y-49823714D02*
X68748000Y-49776095D01*
X68700380Y-49680857D01*
X68700380Y-49442761D01*
X68748000Y-49347523D01*
X68795619Y-49299904D01*
X68890857Y-49252285D01*
X68986095Y-49252285D01*
X69128952Y-49299904D01*
X69700380Y-49871333D01*
X69700380Y-49252285D01*
%TO.C,C1*%
X146645333Y-101289142D02*
X146597714Y-101336761D01*
X146454857Y-101384380D01*
X146359619Y-101384380D01*
X146216761Y-101336761D01*
X146121523Y-101241523D01*
X146073904Y-101146285D01*
X146026285Y-100955809D01*
X146026285Y-100812952D01*
X146073904Y-100622476D01*
X146121523Y-100527238D01*
X146216761Y-100432000D01*
X146359619Y-100384380D01*
X146454857Y-100384380D01*
X146597714Y-100432000D01*
X146645333Y-100479619D01*
X147597714Y-101384380D02*
X147026285Y-101384380D01*
X147312000Y-101384380D02*
X147312000Y-100384380D01*
X147216761Y-100527238D01*
X147121523Y-100622476D01*
X147026285Y-100670095D01*
%TO.C,U6*%
X78333095Y-75694980D02*
X78333095Y-76504504D01*
X78380714Y-76599742D01*
X78428333Y-76647361D01*
X78523571Y-76694980D01*
X78714047Y-76694980D01*
X78809285Y-76647361D01*
X78856904Y-76599742D01*
X78904523Y-76504504D01*
X78904523Y-75694980D01*
X79809285Y-75694980D02*
X79618809Y-75694980D01*
X79523571Y-75742600D01*
X79475952Y-75790219D01*
X79380714Y-75933076D01*
X79333095Y-76123552D01*
X79333095Y-76504504D01*
X79380714Y-76599742D01*
X79428333Y-76647361D01*
X79523571Y-76694980D01*
X79714047Y-76694980D01*
X79809285Y-76647361D01*
X79856904Y-76599742D01*
X79904523Y-76504504D01*
X79904523Y-76266409D01*
X79856904Y-76171171D01*
X79809285Y-76123552D01*
X79714047Y-76075933D01*
X79523571Y-76075933D01*
X79428333Y-76123552D01*
X79380714Y-76171171D01*
X79333095Y-76266409D01*
X66147619Y-97753076D02*
X66100000Y-97705457D01*
X66052380Y-97610219D01*
X66052380Y-97372123D01*
X66100000Y-97276885D01*
X66147619Y-97229266D01*
X66242857Y-97181647D01*
X66338095Y-97181647D01*
X66480952Y-97229266D01*
X67052380Y-97800695D01*
X67052380Y-97181647D01*
X66480952Y-96610219D02*
X66433333Y-96705457D01*
X66385714Y-96753076D01*
X66290476Y-96800695D01*
X66242857Y-96800695D01*
X66147619Y-96753076D01*
X66100000Y-96705457D01*
X66052380Y-96610219D01*
X66052380Y-96419742D01*
X66100000Y-96324504D01*
X66147619Y-96276885D01*
X66242857Y-96229266D01*
X66290476Y-96229266D01*
X66385714Y-96276885D01*
X66433333Y-96324504D01*
X66480952Y-96419742D01*
X66480952Y-96610219D01*
X66528571Y-96705457D01*
X66576190Y-96753076D01*
X66671428Y-96800695D01*
X66861904Y-96800695D01*
X66957142Y-96753076D01*
X67004761Y-96705457D01*
X67052380Y-96610219D01*
X67052380Y-96419742D01*
X67004761Y-96324504D01*
X66957142Y-96276885D01*
X66861904Y-96229266D01*
X66671428Y-96229266D01*
X66576190Y-96276885D01*
X66528571Y-96324504D01*
X66480952Y-96419742D01*
X66957142Y-95229266D02*
X67004761Y-95276885D01*
X67052380Y-95419742D01*
X67052380Y-95514980D01*
X67004761Y-95657838D01*
X66909523Y-95753076D01*
X66814285Y-95800695D01*
X66623809Y-95848314D01*
X66480952Y-95848314D01*
X66290476Y-95800695D01*
X66195238Y-95753076D01*
X66100000Y-95657838D01*
X66052380Y-95514980D01*
X66052380Y-95419742D01*
X66100000Y-95276885D01*
X66147619Y-95229266D01*
X66147619Y-94848314D02*
X66100000Y-94800695D01*
X66052380Y-94705457D01*
X66052380Y-94467361D01*
X66100000Y-94372123D01*
X66147619Y-94324504D01*
X66242857Y-94276885D01*
X66338095Y-94276885D01*
X66480952Y-94324504D01*
X67052380Y-94895933D01*
X67052380Y-94276885D01*
X66052380Y-93372123D02*
X66052380Y-93848314D01*
X66528571Y-93895933D01*
X66480952Y-93848314D01*
X66433333Y-93753076D01*
X66433333Y-93514980D01*
X66480952Y-93419742D01*
X66528571Y-93372123D01*
X66623809Y-93324504D01*
X66861904Y-93324504D01*
X66957142Y-93372123D01*
X67004761Y-93419742D01*
X67052380Y-93514980D01*
X67052380Y-93753076D01*
X67004761Y-93848314D01*
X66957142Y-93895933D01*
X66052380Y-92467361D02*
X66052380Y-92657838D01*
X66100000Y-92753076D01*
X66147619Y-92800695D01*
X66290476Y-92895933D01*
X66480952Y-92943552D01*
X66861904Y-92943552D01*
X66957142Y-92895933D01*
X67004761Y-92848314D01*
X67052380Y-92753076D01*
X67052380Y-92562600D01*
X67004761Y-92467361D01*
X66957142Y-92419742D01*
X66861904Y-92372123D01*
X66623809Y-92372123D01*
X66528571Y-92419742D01*
X66480952Y-92467361D01*
X66433333Y-92562600D01*
X66433333Y-92753076D01*
X66480952Y-92848314D01*
X66528571Y-92895933D01*
X66623809Y-92943552D01*
D13*
%TO.C,C12*%
X131431420Y-39880000D02*
X131712580Y-39880000D01*
X131431420Y-38860000D02*
X131712580Y-38860000D01*
%TO.C,X1*%
X92356000Y-69992000D02*
X92356000Y-82142000D01*
X105256000Y-81392000D02*
X105256000Y-69992000D01*
X92356000Y-82142000D02*
X104506000Y-82142000D01*
X104506000Y-69242000D02*
X93106000Y-69242000D01*
X104506000Y-82142000D02*
G75*
G03*
X105256000Y-81392000I0J750000D01*
G01*
X93106000Y-69242000D02*
G75*
G03*
X92356000Y-69992000I0J-750000D01*
G01*
X105256000Y-69992000D02*
G75*
G03*
X104506000Y-69242000I-750000J0D01*
G01*
%TO.C,U8*%
X142494000Y-104922000D02*
X144444000Y-104922000D01*
X142494000Y-110042000D02*
X144444000Y-110042000D01*
X142494000Y-104922000D02*
X139044000Y-104922000D01*
X142494000Y-110042000D02*
X140544000Y-110042000D01*
%TO.C,U7*%
X130567000Y-42358000D02*
G75*
G03*
X132567000Y-42358000I1000000J0D01*
G01*
X130567000Y-42358000D02*
X125107000Y-42358000D01*
X138027000Y-42358000D02*
X132567000Y-42358000D01*
X125107000Y-42358000D02*
X125107000Y-93278000D01*
X125107000Y-93278000D02*
X138027000Y-93278000D01*
X138027000Y-93278000D02*
X138027000Y-42358000D01*
%TO.C,U5*%
X107521500Y-63189500D02*
X107521500Y-62917000D01*
X113284000Y-63189500D02*
X107521500Y-63189500D01*
X119046500Y-63189500D02*
X119046500Y-62917000D01*
X113284000Y-42474500D02*
X119046500Y-42474500D01*
X119046500Y-42474500D02*
X119046500Y-42747000D01*
X113284000Y-63189500D02*
X119046500Y-63189500D01*
X107521500Y-42747000D02*
X105709000Y-42747000D01*
X113284000Y-42474500D02*
X107521500Y-42474500D01*
X107521500Y-42474500D02*
X107521500Y-42747000D01*
%TO.C,U4*%
X131318000Y-115042000D02*
X129368000Y-115042000D01*
X131318000Y-104922000D02*
X133268000Y-104922000D01*
X131318000Y-115042000D02*
X133268000Y-115042000D01*
X131318000Y-104922000D02*
X127868000Y-104922000D01*
%TO.C,U3*%
X116332000Y-115042000D02*
X114382000Y-115042000D01*
X116332000Y-104922000D02*
X118282000Y-104922000D01*
X116332000Y-115042000D02*
X118282000Y-115042000D01*
X116332000Y-104922000D02*
X112882000Y-104922000D01*
%TO.C,U2*%
X105918000Y-104927000D02*
X107868000Y-104927000D01*
X105918000Y-113797000D02*
X107868000Y-113797000D01*
X105918000Y-104927000D02*
X102468000Y-104927000D01*
X105918000Y-113797000D02*
X103968000Y-113797000D01*
%TO.C,U1*%
X95250000Y-104927000D02*
X97200000Y-104927000D01*
X95250000Y-113797000D02*
X97200000Y-113797000D01*
X95250000Y-104927000D02*
X91800000Y-104927000D01*
X95250000Y-113797000D02*
X93300000Y-113797000D01*
%TO.C,SW1*%
X157940000Y-99930000D02*
X156440000Y-99930000D01*
X153940000Y-101180000D02*
X153940000Y-105680000D01*
X156440000Y-106930000D02*
X157940000Y-106930000D01*
X160440000Y-105680000D02*
X160440000Y-101180000D01*
%TO.C,R13*%
X111235258Y-68311500D02*
X110760742Y-68311500D01*
X111235258Y-69356500D02*
X110760742Y-69356500D01*
%TO.C,R12*%
X145017258Y-114793500D02*
X144542742Y-114793500D01*
X145017258Y-115838500D02*
X144542742Y-115838500D01*
%TO.C,R11*%
X124730742Y-110504500D02*
X125205258Y-110504500D01*
X124730742Y-109459500D02*
X125205258Y-109459500D01*
%TO.C,R10*%
X124730742Y-108726500D02*
X125205258Y-108726500D01*
X124730742Y-107681500D02*
X125205258Y-107681500D01*
%TO.C,R9*%
X124730742Y-106948500D02*
X125205258Y-106948500D01*
X124730742Y-105903500D02*
X125205258Y-105903500D01*
%TO.C,R8*%
X100567258Y-59675500D02*
X100092742Y-59675500D01*
X100567258Y-60720500D02*
X100092742Y-60720500D01*
%TO.C,R7*%
X100567258Y-57897500D02*
X100092742Y-57897500D01*
X100567258Y-58942500D02*
X100092742Y-58942500D01*
%TO.C,R6*%
X100567258Y-56119500D02*
X100092742Y-56119500D01*
X100567258Y-57164500D02*
X100092742Y-57164500D01*
%TO.C,R5*%
X100567258Y-54341500D02*
X100092742Y-54341500D01*
X100567258Y-55386500D02*
X100092742Y-55386500D01*
%TO.C,R4*%
X100567258Y-52563500D02*
X100092742Y-52563500D01*
X100567258Y-53608500D02*
X100092742Y-53608500D01*
%TO.C,R3*%
X100567258Y-50785500D02*
X100092742Y-50785500D01*
X100567258Y-51830500D02*
X100092742Y-51830500D01*
%TO.C,R2*%
X100567258Y-49007500D02*
X100092742Y-49007500D01*
X100567258Y-50052500D02*
X100092742Y-50052500D01*
%TO.C,R1*%
X100567258Y-47229500D02*
X100092742Y-47229500D01*
X100567258Y-48274500D02*
X100092742Y-48274500D01*
%TO.C,J5*%
X142942000Y-42612000D02*
X142942000Y-45272000D01*
X155702000Y-42612000D02*
X142942000Y-42612000D01*
X158302000Y-45272000D02*
X156972000Y-45272000D01*
X155702000Y-45272000D02*
X142942000Y-45272000D01*
X155702000Y-42612000D02*
X155702000Y-45272000D01*
X158302000Y-43942000D02*
X158302000Y-45272000D01*
%TO.C,J4*%
X111720000Y-82371000D02*
X116920000Y-82371000D01*
X114320000Y-77231000D02*
X116920000Y-77231000D01*
X111720000Y-74631000D02*
X111720000Y-82371000D01*
X115590000Y-74631000D02*
X116920000Y-74631000D01*
X116920000Y-77231000D02*
X116920000Y-82371000D01*
X111720000Y-74631000D02*
X114320000Y-74631000D01*
X114320000Y-74631000D02*
X114320000Y-77231000D01*
X116920000Y-74631000D02*
X116920000Y-75961000D01*
%TO.C,J3*%
X72146000Y-129097000D02*
X70816000Y-129097000D01*
X70816000Y-123897000D02*
X157296000Y-123897000D01*
X73416000Y-129097000D02*
X73416000Y-126497000D01*
X157296000Y-129097000D02*
X157296000Y-123897000D01*
X73416000Y-129097000D02*
X157296000Y-129097000D01*
X70816000Y-129097000D02*
X70816000Y-127767000D01*
X73416000Y-126497000D02*
X70816000Y-126497000D01*
X70816000Y-126497000D02*
X70816000Y-123897000D01*
%TO.C,J2*%
X144999000Y-76016000D02*
X147659000Y-76016000D01*
X147659000Y-68336000D02*
X147659000Y-76016000D01*
X144999000Y-68336000D02*
X147659000Y-68336000D01*
X144999000Y-68336000D02*
X144999000Y-76016000D01*
X147659000Y-65736000D02*
X147659000Y-67066000D01*
X146329000Y-65736000D02*
X147659000Y-65736000D01*
%TO.C,J1*%
X156150000Y-113030000D02*
X158810000Y-113030000D01*
X156150000Y-110430000D02*
X157480000Y-110430000D01*
X158810000Y-113030000D02*
X158810000Y-118170000D01*
X156150000Y-111760000D02*
X156150000Y-110430000D01*
X156150000Y-113030000D02*
X156150000Y-118170000D01*
X156150000Y-118170000D02*
X158810000Y-118170000D01*
%TO.C,IC1*%
X97114000Y-65110000D02*
X97114000Y-39030000D01*
X97114000Y-39030000D02*
X85074000Y-39030000D01*
X71034000Y-65110000D02*
X97114000Y-65110000D01*
X72034000Y-39030000D02*
X71034000Y-40030000D01*
X71034000Y-40030000D02*
X71034000Y-65110000D01*
X83074000Y-39030000D02*
X72034000Y-39030000D01*
%TO.C,D2*%
X114047000Y-69969000D02*
X117932000Y-69969000D01*
X117932000Y-67699000D02*
X114047000Y-67699000D01*
X114047000Y-67699000D02*
X114047000Y-69969000D01*
%TO.C,D1*%
X142239000Y-116451000D02*
X142239000Y-114181000D01*
X138354000Y-116451000D02*
X142239000Y-116451000D01*
X142239000Y-114181000D02*
X138354000Y-114181000D01*
%TO.C,C11*%
X152579563Y-110516000D02*
X153644000Y-111580437D01*
X149124000Y-115036000D02*
X150324000Y-115036000D01*
X152944000Y-109776000D02*
X152944000Y-110276000D01*
X149124000Y-111580437D02*
X149124000Y-115036000D01*
X153644000Y-111580437D02*
X153644000Y-115036000D01*
X153644000Y-115036000D02*
X152444000Y-115036000D01*
X152579563Y-110516000D02*
X152444000Y-110516000D01*
X150188437Y-110516000D02*
X150324000Y-110516000D01*
X150188437Y-110516000D02*
X149124000Y-111580437D01*
X153194000Y-110026000D02*
X152694000Y-110026000D01*
%TO.C,C10*%
X105777420Y-102872000D02*
X106058580Y-102872000D01*
X105777420Y-101852000D02*
X106058580Y-101852000D01*
%TO.C,C9*%
X95109420Y-102872000D02*
X95390580Y-102872000D01*
X95109420Y-101852000D02*
X95390580Y-101852000D01*
%TO.C,C8*%
X113143420Y-39880000D02*
X113424580Y-39880000D01*
X113143420Y-38860000D02*
X113424580Y-38860000D01*
%TO.C,C7*%
X65788000Y-86754580D02*
X65788000Y-86473420D01*
X64768000Y-86754580D02*
X64768000Y-86473420D01*
%TO.C,C6*%
X131177420Y-102872000D02*
X131458580Y-102872000D01*
X131177420Y-101852000D02*
X131458580Y-101852000D01*
%TO.C,C5*%
X142353420Y-102872000D02*
X142634580Y-102872000D01*
X142353420Y-101852000D02*
X142634580Y-101852000D01*
%TO.C,C4*%
X98652420Y-85600000D02*
X98933580Y-85600000D01*
X98652420Y-84580000D02*
X98933580Y-84580000D01*
%TO.C,C3*%
X116472580Y-101852000D02*
X116191420Y-101852000D01*
X116472580Y-102872000D02*
X116191420Y-102872000D01*
%TO.C,C2*%
X67308000Y-49897420D02*
X67308000Y-50178580D01*
X68328000Y-49897420D02*
X68328000Y-50178580D01*
%TO.C,C1*%
X146671420Y-102872000D02*
X146952580Y-102872000D01*
X146671420Y-101852000D02*
X146952580Y-101852000D01*
%TO.C,U6*%
X73035000Y-77242600D02*
X73035000Y-112922600D01*
X85155000Y-77242600D02*
X80095000Y-77242600D01*
X88155000Y-112982600D02*
X88155000Y-77182600D01*
X88155000Y-77182600D02*
X70035000Y-77182600D01*
X73035000Y-112922600D02*
X85155000Y-112922600D01*
X70035000Y-77182600D02*
X70035000Y-112982600D01*
X70035000Y-112982600D02*
X88155000Y-112982600D01*
X78095000Y-77242600D02*
X73035000Y-77242600D01*
X85155000Y-112922600D02*
X85155000Y-77242600D01*
X78095000Y-77242600D02*
G75*
G03*
X80095000Y-77242600I1000000J0D01*
G01*
%TD*%
M02*
