M48
; DRILL file {KiCad (6.0.2)} date Mon Sep  5 19:25:58 2022
; FORMAT={-:-/ absolute / inch / decimal}
; #@! TF.CreationDate,2022-09-05T19:25:58-07:00
; #@! TF.GenerationSoftware,Kicad,Pcbnew,(6.0.2)
; #@! TF.FileFunction,Plated,1,2,PTH
FMAT,2
INCH
; #@! TA.AperFunction,Plated,PTH,ViaDrill
T1C0.0157
; #@! TA.AperFunction,Plated,PTH,ComponentDrill
T2C0.0315
; #@! TA.AperFunction,Plated,PTH,ComponentDrill
T3C0.0394
; #@! TA.AperFunction,Plated,PTH,ComponentDrill
T4C0.0433
%
G90
G05
T1
X3.0164Y-1.4758
X3.0647Y-3.4994
X3.094Y-3.5604
X3.1492Y-3.7067
X3.1784Y-4.5846
X3.2012Y-2.9201
X3.2075Y-4.3859
X3.2352Y-4.3543
X3.3112Y-4.6315
X3.3426Y-2.1231
X3.4751Y-2.8588
X3.6245Y-2.8826
X3.6639Y-1.6963
X3.7001Y-4.6282
X3.71Y-3.69
X3.8179Y-1.5146
X3.8599Y-1.8418
X3.89Y-4.07
X3.9064Y-1.6282
X3.94Y-4.35
X3.97Y-4.2
X3.97Y-4.25
X3.9736Y-2.5188
X4.0305Y-1.6881
X4.0351Y-3.3821
X4.044Y-2.4834
X4.0903Y-3.6239
X4.0933Y-2.3176
X4.1041Y-2.8913
X4.31Y-2.08
X4.3291Y-2.3299
X4.3362Y-3.333
X4.35Y-2.0497
X4.36Y-4.19
X4.36Y-4.28
X4.3789Y-2.1689
X4.4109Y-3.3827
X4.44Y-2.25
X4.49Y-2.39
X4.4954Y-1.9927
X4.5239Y-2.177
X4.57Y-2.0512
X4.58Y-2.25
X4.584Y-1.809
X4.5941Y-2.9124
X4.6Y-2.4
X4.6386Y-1.8576
X4.682Y-2.8028
X4.7681Y-4.3838
X4.8Y-2.07
X4.8Y-3.74
X4.8015Y-2.3834
X4.8355Y-4.2952
X4.98Y-3.71
X5.0Y-4.28
X5.2404Y-4.5912
X5.83Y-4.21
T2
X2.814Y-3.0934
X2.814Y-3.1934
X2.814Y-3.2934
X2.814Y-3.3934
X2.814Y-3.4934
X2.814Y-3.5934
X2.814Y-3.6934
X2.814Y-3.7934
X2.814Y-3.8934
X2.814Y-3.9934
X2.814Y-4.0934
X2.814Y-4.1934
X2.814Y-4.2934
X2.814Y-4.3934
X2.91Y-1.75
X2.91Y-1.85
X2.91Y-1.95
X2.91Y-2.05
X2.91Y-2.15
X2.91Y-2.25
X2.91Y-2.35
X3.01Y-1.65
X3.01Y-1.75
X3.01Y-1.85
X3.01Y-1.95
X3.01Y-2.05
X3.01Y-2.15
X3.01Y-2.25
X3.01Y-2.35
X3.01Y-2.45
X3.11Y-1.65
X3.11Y-1.75
X3.11Y-2.35
X3.11Y-2.45
X3.21Y-1.65
X3.21Y-1.75
X3.21Y-2.35
X3.21Y-2.45
X3.31Y-1.65
X3.31Y-1.75
X3.31Y-2.35
X3.31Y-2.45
X3.41Y-1.65
X3.41Y-1.75
X3.41Y-2.35
X3.41Y-2.45
X3.414Y-3.0934
X3.414Y-3.1934
X3.414Y-3.2934
X3.414Y-3.3934
X3.414Y-3.4934
X3.414Y-3.5934
X3.414Y-3.6934
X3.414Y-3.7934
X3.414Y-3.8934
X3.414Y-3.9934
X3.414Y-4.0934
X3.414Y-4.1934
X3.414Y-4.2934
X3.414Y-4.3934
X3.51Y-1.65
X3.51Y-1.75
X3.51Y-2.35
X3.51Y-2.45
X3.61Y-1.65
X3.61Y-1.75
X3.61Y-1.85
X3.61Y-1.95
X3.61Y-2.05
X3.61Y-2.15
X3.61Y-2.25
X3.61Y-2.35
X3.61Y-2.45
X3.71Y-1.75
X3.71Y-1.85
X3.71Y-1.95
X3.71Y-2.05
X3.71Y-2.15
X3.71Y-2.25
X3.71Y-2.35
X3.74Y-2.83
X3.74Y-3.13
X4.04Y-2.83
X4.04Y-3.13
X4.8798Y-1.72
X4.8798Y-1.82
X4.8798Y-1.92
X4.8798Y-2.02
X4.8798Y-2.12
X4.8798Y-2.22
X4.8798Y-2.32
X4.8798Y-2.42
X4.8798Y-2.52
X4.8798Y-2.62
X4.8798Y-2.72
X4.8798Y-2.82
X4.8798Y-2.92
X4.8798Y-3.02
X4.8798Y-3.12
X4.8798Y-3.22
X4.8798Y-3.32
X4.8798Y-3.42
X4.8798Y-3.52
X4.8798Y-3.62
X5.4798Y-1.72
X5.4798Y-1.82
X5.4798Y-1.92
X5.4798Y-2.02
X5.4798Y-2.12
X5.4798Y-2.22
X5.4798Y-2.32
X5.4798Y-2.42
X5.4798Y-2.52
X5.4798Y-2.62
X5.4798Y-2.72
X5.4798Y-2.82
X5.4798Y-2.92
X5.4798Y-3.02
X5.4798Y-3.12
X5.4798Y-3.22
X5.4798Y-3.32
X5.4798Y-3.42
X5.4798Y-3.52
X5.4798Y-3.62
T3
X2.8404Y-4.9302
X2.8404Y-5.0302
X2.9404Y-4.9302
X2.9404Y-5.0302
X3.0404Y-4.9302
X3.0404Y-5.0302
X3.1404Y-4.9302
X3.1404Y-5.0302
X3.2404Y-4.9302
X3.2404Y-5.0302
X3.3404Y-4.9302
X3.3404Y-5.0302
X3.4404Y-4.9302
X3.4404Y-5.0302
X3.5404Y-4.9302
X3.5404Y-5.0302
X3.6404Y-4.9302
X3.6404Y-5.0302
X3.7404Y-4.9302
X3.7404Y-5.0302
X3.8404Y-4.9302
X3.8404Y-5.0302
X3.9404Y-4.9302
X3.9404Y-5.0302
X4.0404Y-4.9302
X4.0404Y-5.0302
X4.1404Y-4.9302
X4.1404Y-5.0302
X4.2404Y-4.9302
X4.2404Y-5.0302
X4.3404Y-4.9302
X4.3404Y-5.0302
X4.4404Y-4.9302
X4.4404Y-5.0302
X4.4508Y-2.9906
X4.4508Y-3.0906
X4.4508Y-3.1906
X4.5404Y-4.9302
X4.5404Y-5.0302
X4.5508Y-2.9906
X4.5508Y-3.0906
X4.5508Y-3.1906
X4.6404Y-4.9302
X4.6404Y-5.0302
X4.7404Y-4.9302
X4.7404Y-5.0302
X4.8404Y-4.9302
X4.8404Y-5.0302
X4.9404Y-4.9302
X4.9404Y-5.0302
X5.0404Y-4.9302
X5.0404Y-5.0302
X5.1404Y-4.9302
X5.1404Y-5.0302
X5.2404Y-4.9302
X5.2404Y-5.0302
X5.3404Y-4.9302
X5.3404Y-5.0302
X5.4404Y-4.9302
X5.4404Y-5.0302
X5.5404Y-4.9302
X5.5404Y-5.0302
X5.6404Y-4.9302
X5.6404Y-5.0302
X5.68Y-1.73
X5.7404Y-4.9302
X5.7404Y-5.0302
X5.761Y-2.6404
X5.761Y-2.7404
X5.761Y-2.8404
X5.761Y-2.9404
X5.78Y-1.73
X5.8404Y-4.9302
X5.8404Y-5.0302
X5.88Y-1.73
X5.9404Y-4.9302
X5.9404Y-5.0302
X5.98Y-1.73
X6.0404Y-4.9302
X6.0404Y-5.0302
X6.08Y-1.73
X6.1404Y-4.9302
X6.1404Y-5.0302
X6.18Y-1.73
X6.2Y-4.4
X6.2Y-4.5
X6.2Y-4.6
T4
X6.1Y-3.9441
X6.1Y-4.2
X6.2772Y-3.9441
X6.2772Y-4.2
T0
M30
