%TF.GenerationSoftware,KiCad,Pcbnew,(6.0.2)*%
%TF.CreationDate,2022-05-05T17:12:40-07:00*%
%TF.ProjectId,Steve 68k,53746576-6520-4363-986b-2e6b69636164,rev?*%
%TF.SameCoordinates,Original*%
%TF.FileFunction,Copper,L1,Top*%
%TF.FilePolarity,Positive*%
%FSLAX46Y46*%
G04 Gerber Fmt 4.6, Leading zero omitted, Abs format (unit mm)*
G04 Created by KiCad (PCBNEW (6.0.2)) date 2022-05-05 17:12:40*
%MOMM*%
%LPD*%
G01*
G04 APERTURE LIST*
G04 Aperture macros list*
%AMRoundRect*
0 Rectangle with rounded corners*
0 $1 Rounding radius*
0 $2 $3 $4 $5 $6 $7 $8 $9 X,Y pos of 4 corners*
0 Add a 4 corners polygon primitive as box body*
4,1,4,$2,$3,$4,$5,$6,$7,$8,$9,$2,$3,0*
0 Add four circle primitives for the rounded corners*
1,1,$1+$1,$2,$3*
1,1,$1+$1,$4,$5*
1,1,$1+$1,$6,$7*
1,1,$1+$1,$8,$9*
0 Add four rect primitives between the rounded corners*
20,1,$1+$1,$2,$3,$4,$5,0*
20,1,$1+$1,$4,$5,$6,$7,0*
20,1,$1+$1,$6,$7,$8,$9,0*
20,1,$1+$1,$8,$9,$2,$3,0*%
G04 Aperture macros list end*
%TA.AperFunction,SMDPad,CuDef*%
%ADD10RoundRect,0.200000X0.200000X0.275000X-0.200000X0.275000X-0.200000X-0.275000X0.200000X-0.275000X0*%
%TD*%
%TA.AperFunction,SMDPad,CuDef*%
%ADD11RoundRect,0.250000X-0.375000X-0.625000X0.375000X-0.625000X0.375000X0.625000X-0.375000X0.625000X0*%
%TD*%
%TA.AperFunction,SMDPad,CuDef*%
%ADD12R,1.550000X1.300000*%
%TD*%
%TA.AperFunction,SMDPad,CuDef*%
%ADD13RoundRect,0.200000X-0.200000X-0.275000X0.200000X-0.275000X0.200000X0.275000X-0.200000X0.275000X0*%
%TD*%
%TA.AperFunction,SMDPad,CuDef*%
%ADD14RoundRect,0.225000X0.250000X-0.225000X0.250000X0.225000X-0.250000X0.225000X-0.250000X-0.225000X0*%
%TD*%
%TA.AperFunction,SMDPad,CuDef*%
%ADD15RoundRect,0.250000X-1.050000X-0.550000X1.050000X-0.550000X1.050000X0.550000X-1.050000X0.550000X0*%
%TD*%
%TA.AperFunction,SMDPad,CuDef*%
%ADD16RoundRect,0.225000X-0.250000X0.225000X-0.250000X-0.225000X0.250000X-0.225000X0.250000X0.225000X0*%
%TD*%
%TA.AperFunction,SMDPad,CuDef*%
%ADD17RoundRect,0.225000X-0.225000X-0.250000X0.225000X-0.250000X0.225000X0.250000X-0.225000X0.250000X0*%
%TD*%
%TA.AperFunction,ComponentPad*%
%ADD18R,1.600000X2.400000*%
%TD*%
%TA.AperFunction,ComponentPad*%
%ADD19O,1.600000X2.400000*%
%TD*%
%TA.AperFunction,ComponentPad*%
%ADD20R,1.422400X1.422400*%
%TD*%
%TA.AperFunction,ComponentPad*%
%ADD21C,1.422400*%
%TD*%
%TA.AperFunction,ComponentPad*%
%ADD22R,2.400000X1.600000*%
%TD*%
%TA.AperFunction,ComponentPad*%
%ADD23O,2.400000X1.600000*%
%TD*%
%TA.AperFunction,ComponentPad*%
%ADD24O,1.700000X1.700000*%
%TD*%
%TA.AperFunction,ComponentPad*%
%ADD25R,1.700000X1.700000*%
%TD*%
%TA.AperFunction,ComponentPad*%
%ADD26C,1.600000*%
%TD*%
%TA.AperFunction,ComponentPad*%
%ADD27R,1.600000X1.600000*%
%TD*%
%TA.AperFunction,ViaPad*%
%ADD28C,0.800000*%
%TD*%
%TA.AperFunction,Conductor*%
%ADD29C,0.250000*%
%TD*%
G04 APERTURE END LIST*
D10*
%TO.P,R7,1*%
%TO.N,Net-(U4-Pad4)*%
X154079800Y-100457000D03*
%TO.P,R7,2*%
%TO.N,Net-(D2-Pad2)*%
X152429800Y-100457000D03*
%TD*%
D11*
%TO.P,D2,1,K*%
%TO.N,GND*%
X156410200Y-100457000D03*
%TO.P,D2,2,A*%
%TO.N,Net-(D2-Pad2)*%
X159210200Y-100457000D03*
%TD*%
D12*
%TO.P,SW1,1,1*%
%TO.N,GND*%
X160642200Y-114894800D03*
X152692200Y-114894800D03*
%TO.P,SW1,2,2*%
%TO.N,Net-(C12-Pad1)*%
X152692200Y-119394800D03*
X160642200Y-119394800D03*
%TD*%
D13*
%TO.P,R10,1*%
%TO.N,VCC*%
X98768400Y-44043600D03*
%TO.P,R10,2*%
%TO.N,/~{HALT}*%
X100418400Y-44043600D03*
%TD*%
D10*
%TO.P,R9,1*%
%TO.N,Net-(U4-Pad8)*%
X154079800Y-108127800D03*
%TO.P,R9,2*%
%TO.N,Net-(D4-Pad2)*%
X152429800Y-108127800D03*
%TD*%
D13*
%TO.P,R8,1*%
%TO.N,Net-(U4-Pad6)*%
X152429800Y-104368600D03*
%TO.P,R8,2*%
%TO.N,Net-(D3-Pad2)*%
X154079800Y-104368600D03*
%TD*%
D10*
%TO.P,R6,1*%
%TO.N,Net-(R6-Pad1)*%
X141588000Y-66776600D03*
%TO.P,R6,2*%
%TO.N,Net-(D1-Pad2)*%
X139938000Y-66776600D03*
%TD*%
%TO.P,R5,1*%
%TO.N,/~{DTACK_UART}*%
X97253400Y-95326400D03*
%TO.P,R5,2*%
%TO.N,VCC*%
X95603400Y-95326400D03*
%TD*%
D13*
%TO.P,R4,1*%
%TO.N,VCC*%
X98870000Y-60960100D03*
%TO.P,R4,2*%
%TO.N,/68681_Int*%
X100520000Y-60960100D03*
%TD*%
%TO.P,R3,1*%
%TO.N,VCC*%
X98870000Y-56705500D03*
%TO.P,R3,2*%
%TO.N,/~{IPL1}*%
X100520000Y-56705500D03*
%TD*%
%TO.P,R2,1*%
%TO.N,VCC*%
X98870000Y-52451000D03*
%TO.P,R2,2*%
%TO.N,/68681_Int*%
X100520000Y-52451000D03*
%TD*%
%TO.P,R1,1*%
%TO.N,VCC*%
X98870000Y-48196500D03*
%TO.P,R1,2*%
%TO.N,/~{IPL0}*%
X100520000Y-48196500D03*
%TD*%
D11*
%TO.P,D4,1,K*%
%TO.N,GND*%
X156410200Y-108178600D03*
%TO.P,D4,2,A*%
%TO.N,Net-(D4-Pad2)*%
X159210200Y-108178600D03*
%TD*%
%TO.P,D3,1,K*%
%TO.N,GND*%
X156410200Y-104394000D03*
%TO.P,D3,2,A*%
%TO.N,Net-(D3-Pad2)*%
X159210200Y-104394000D03*
%TD*%
%TO.P,D1,1,K*%
%TO.N,GND*%
X145132600Y-66776600D03*
%TO.P,D1,2,A*%
%TO.N,Net-(D1-Pad2)*%
X147932600Y-66776600D03*
%TD*%
D14*
%TO.P,C16,1*%
%TO.N,GND*%
X151013000Y-77610200D03*
%TO.P,C16,2*%
%TO.N,VCC*%
X151013000Y-76060200D03*
%TD*%
D15*
%TO.P,C15,1*%
%TO.N,VCC*%
X139652600Y-119126000D03*
%TO.P,C15,2*%
%TO.N,GND*%
X143252600Y-119126000D03*
%TD*%
D14*
%TO.P,C14,1*%
%TO.N,GND*%
X141919800Y-77610200D03*
%TO.P,C14,2*%
%TO.N,VCC*%
X141919800Y-76060200D03*
%TD*%
D16*
%TO.P,C13,1*%
%TO.N,VCC*%
X134543800Y-103517400D03*
%TO.P,C13,2*%
%TO.N,GND*%
X134543800Y-105067400D03*
%TD*%
%TO.P,C12,1*%
%TO.N,Net-(C12-Pad1)*%
X135610600Y-109321600D03*
%TO.P,C12,2*%
%TO.N,GND*%
X135610600Y-110871600D03*
%TD*%
%TO.P,C11,1*%
%TO.N,VCC*%
X87706200Y-105778000D03*
%TO.P,C11,2*%
%TO.N,GND*%
X87706200Y-107328000D03*
%TD*%
D14*
%TO.P,C10,2*%
%TO.N,GND*%
X153466800Y-126885400D03*
%TO.P,C10,1*%
%TO.N,VCC*%
X153466800Y-128435400D03*
%TD*%
D17*
%TO.P,C9,1*%
%TO.N,VCC*%
X95577200Y-72085400D03*
%TO.P,C9,2*%
%TO.N,GND*%
X97127200Y-72085400D03*
%TD*%
%TO.P,C8,1*%
%TO.N,VCC*%
X107896200Y-72085400D03*
%TO.P,C8,2*%
%TO.N,GND*%
X109446200Y-72085400D03*
%TD*%
%TO.P,C7,1*%
%TO.N,VCC*%
X133067600Y-72085400D03*
%TO.P,C7,2*%
%TO.N,GND*%
X134617600Y-72085400D03*
%TD*%
%TO.P,C6,2*%
%TO.N,GND*%
X144793000Y-39319200D03*
%TO.P,C6,1*%
%TO.N,VCC*%
X143243000Y-39319200D03*
%TD*%
%TO.P,C5,1*%
%TO.N,VCC*%
X120545400Y-72085400D03*
%TO.P,C5,2*%
%TO.N,GND*%
X122095400Y-72085400D03*
%TD*%
%TO.P,C4,1*%
%TO.N,VCC*%
X121932400Y-39319200D03*
%TO.P,C4,2*%
%TO.N,GND*%
X123482400Y-39319200D03*
%TD*%
D14*
%TO.P,C3,2*%
%TO.N,GND*%
X83820000Y-103847600D03*
%TO.P,C3,1*%
%TO.N,VCC*%
X83820000Y-105397600D03*
%TD*%
D17*
%TO.P,C2,1*%
%TO.N,VCC*%
X77644800Y-72085400D03*
%TO.P,C2,2*%
%TO.N,GND*%
X79194800Y-72085400D03*
%TD*%
%TO.P,C1,1*%
%TO.N,VCC*%
X81470200Y-39319200D03*
%TO.P,C1,2*%
%TO.N,GND*%
X83020200Y-39319200D03*
%TD*%
D18*
%TO.P,U7,1,A18*%
%TO.N,/A18*%
X91948000Y-114203400D03*
D19*
%TO.P,U7,2,A16*%
%TO.N,/A16*%
X94488000Y-114203400D03*
%TO.P,U7,3,A14*%
%TO.N,/A14*%
X97028000Y-114203400D03*
%TO.P,U7,4,A12*%
%TO.N,/A12*%
X99568000Y-114203400D03*
%TO.P,U7,5,A7*%
%TO.N,/A7*%
X102108000Y-114203400D03*
%TO.P,U7,6,A6*%
%TO.N,/A6*%
X104648000Y-114203400D03*
%TO.P,U7,7,A5*%
%TO.N,/A5*%
X107188000Y-114203400D03*
%TO.P,U7,8,A4*%
%TO.N,/A4*%
X109728000Y-114203400D03*
%TO.P,U7,9,A3*%
%TO.N,/A3*%
X112268000Y-114203400D03*
%TO.P,U7,10,A2*%
%TO.N,/A2*%
X114808000Y-114203400D03*
%TO.P,U7,11,A1*%
%TO.N,/A1*%
X117348000Y-114203400D03*
%TO.P,U7,12,A0*%
%TO.N,/A0*%
X119888000Y-114203400D03*
%TO.P,U7,13,DQ0*%
%TO.N,/D0*%
X122428000Y-114203400D03*
%TO.P,U7,14,DQ1*%
%TO.N,/D1*%
X124968000Y-114203400D03*
%TO.P,U7,15,DQ2*%
%TO.N,/D2*%
X127508000Y-114203400D03*
%TO.P,U7,16,VSS*%
%TO.N,GND*%
X130048000Y-114203400D03*
%TO.P,U7,17,DQ3*%
%TO.N,/D3*%
X130048000Y-98963400D03*
%TO.P,U7,18,DQ4*%
%TO.N,/D4*%
X127508000Y-98963400D03*
%TO.P,U7,19,DQ5*%
%TO.N,/D5*%
X124968000Y-98963400D03*
%TO.P,U7,20,DQ6*%
%TO.N,/D6*%
X122428000Y-98963400D03*
%TO.P,U7,21,DQ7*%
%TO.N,/D7*%
X119888000Y-98963400D03*
%TO.P,U7,22,CE#*%
%TO.N,/~{RAMSEL}*%
X117348000Y-98963400D03*
%TO.P,U7,23,A10*%
%TO.N,/A10*%
X114808000Y-98963400D03*
%TO.P,U7,24,OE#*%
%TO.N,/~{OE}*%
X112268000Y-98963400D03*
%TO.P,U7,25,A11*%
%TO.N,/A11*%
X109728000Y-98963400D03*
%TO.P,U7,26,A9*%
%TO.N,/A9*%
X107188000Y-98963400D03*
%TO.P,U7,27,A8*%
%TO.N,/A8*%
X104648000Y-98963400D03*
%TO.P,U7,28,A13*%
%TO.N,/A13*%
X102108000Y-98963400D03*
%TO.P,U7,29,WE#*%
%TO.N,/~{RAM_WE}*%
X99568000Y-98963400D03*
%TO.P,U7,30,A17*%
%TO.N,/A17*%
X97028000Y-98963400D03*
%TO.P,U7,31,A15*%
%TO.N,/A15*%
X94488000Y-98963400D03*
%TO.P,U7,32,VCC*%
%TO.N,VCC*%
X91948000Y-98963400D03*
%TD*%
D20*
%TO.P,U5,1,NC*%
%TO.N,unconnected-(U5-Pad1)*%
X123977400Y-47313200D03*
D21*
%TO.P,U5,2,RS1*%
%TO.N,/A0*%
X121437400Y-44773200D03*
%TO.P,U5,3,IP3*%
%TO.N,/IP3*%
X121437400Y-47313200D03*
%TO.P,U5,4,RS2*%
%TO.N,/A1*%
X118897400Y-44773200D03*
%TO.P,U5,5,IP1*%
%TO.N,/IP1*%
X118897400Y-47313200D03*
%TO.P,U5,6,RS3*%
%TO.N,/A2*%
X116357400Y-44773200D03*
%TO.P,U5,7,RS4*%
%TO.N,/A3*%
X113817400Y-47313200D03*
%TO.P,U5,8,IP0*%
%TO.N,/IP0*%
X116357400Y-47313200D03*
%TO.P,U5,9,R/~{W}*%
%TO.N,/R~{W}*%
X113817400Y-49853200D03*
%TO.P,U5,10,~{DTACK}*%
%TO.N,/~{DTACK_UART}*%
X116357400Y-49853200D03*
%TO.P,U5,11,RxDB*%
%TO.N,/RxDB*%
X113817400Y-52393200D03*
%TO.P,U5,12,NC*%
%TO.N,unconnected-(U5-Pad12)*%
X116357400Y-52393200D03*
%TO.P,U5,13,TxDB*%
%TO.N,/TxDB*%
X113817400Y-54933200D03*
%TO.P,U5,14,OP1*%
%TO.N,/OP1*%
X116357400Y-54933200D03*
%TO.P,U5,15,OP3*%
%TO.N,/OP3*%
X113817400Y-57473200D03*
%TO.P,U5,16,OP5*%
%TO.N,/OP5*%
X116357400Y-57473200D03*
%TO.P,U5,17,OP7*%
%TO.N,/OP7*%
X113817400Y-60013200D03*
%TO.P,U5,18,D1*%
%TO.N,/D1*%
X116357400Y-62553200D03*
%TO.P,U5,19,D3*%
%TO.N,/D3*%
X116357400Y-60013200D03*
%TO.P,U5,20,D5*%
%TO.N,/D5*%
X118897400Y-62553200D03*
%TO.P,U5,21,D7*%
%TO.N,/D7*%
X118897400Y-60013200D03*
%TO.P,U5,22,GND*%
%TO.N,GND*%
X121437400Y-62553200D03*
%TO.P,U5,23,NC*%
%TO.N,unconnected-(U5-Pad23)*%
X121437400Y-60013200D03*
%TO.P,U5,24,~{IRQ}*%
%TO.N,/68681_Int*%
X123977400Y-62553200D03*
%TO.P,U5,25,D6*%
%TO.N,/D6*%
X123977400Y-60013200D03*
%TO.P,U5,26,D4*%
%TO.N,/D4*%
X126517400Y-62553200D03*
%TO.P,U5,27,D2*%
%TO.N,/D2*%
X126517400Y-60013200D03*
%TO.P,U5,28,D0*%
%TO.N,/D0*%
X129057400Y-62553200D03*
%TO.P,U5,29,OP6*%
%TO.N,/OP6*%
X131597400Y-60013200D03*
%TO.P,U5,30,OP4*%
%TO.N,/OP4*%
X129057400Y-60013200D03*
%TO.P,U5,31,OP2*%
%TO.N,/OP2*%
X131597400Y-57473200D03*
%TO.P,U5,32,OP0*%
%TO.N,/OP0*%
X129057400Y-57473200D03*
%TO.P,U5,33,TxDA*%
%TO.N,/TxDA*%
X131597400Y-54933200D03*
%TO.P,U5,34,NC*%
%TO.N,unconnected-(U5-Pad34)*%
X129057400Y-54933200D03*
%TO.P,U5,35,RxDA*%
%TO.N,/RxDA*%
X131597400Y-52393200D03*
%TO.P,U5,36,X1/CLK*%
%TO.N,Net-(X2-Pad8)*%
X129057400Y-52393200D03*
%TO.P,U5,37,X2*%
%TO.N,unconnected-(U5-Pad37)*%
X131597400Y-49853200D03*
%TO.P,U5,38,~{RESET}*%
%TO.N,/~{RESET}*%
X129057400Y-49853200D03*
%TO.P,U5,39,~{CS}*%
%TO.N,/~{UARTSEL}*%
X131597400Y-47313200D03*
%TO.P,U5,40,IP2*%
%TO.N,/IP2*%
X129057400Y-44773200D03*
%TO.P,U5,41,~{IACK}*%
%TO.N,unconnected-(U5-Pad41)*%
X129057400Y-47313200D03*
%TO.P,U5,42,IP5*%
%TO.N,/IP5*%
X126517400Y-44773200D03*
%TO.P,U5,43,IP4*%
%TO.N,/IP4*%
X126517400Y-47313200D03*
%TO.P,U5,44,Vcc*%
%TO.N,VCC*%
X123977400Y-44773200D03*
%TD*%
D22*
%TO.P,U3,1,S*%
%TO.N,/~{UARTSEL}*%
X104886600Y-75991800D03*
D23*
%TO.P,U3,2,I0a*%
%TO.N,/~{DTACK_UART}*%
X104886600Y-78531800D03*
%TO.P,U3,3,I1a*%
%TO.N,/~{AS}*%
X104886600Y-81071800D03*
%TO.P,U3,4,Za*%
%TO.N,/~{CPU_DTACK}*%
X104886600Y-83611800D03*
%TO.P,U3,5,I0b*%
%TO.N,unconnected-(U3-Pad5)*%
X104886600Y-86151800D03*
%TO.P,U3,6,I1b*%
%TO.N,unconnected-(U3-Pad6)*%
X104886600Y-88691800D03*
%TO.P,U3,7,Zb*%
%TO.N,unconnected-(U3-Pad7)*%
X104886600Y-91231800D03*
%TO.P,U3,8,GND*%
%TO.N,GND*%
X104886600Y-93771800D03*
%TO.P,U3,9,Zd*%
%TO.N,unconnected-(U3-Pad9)*%
X112506600Y-93771800D03*
%TO.P,U3,10,I1d*%
%TO.N,unconnected-(U3-Pad10)*%
X112506600Y-91231800D03*
%TO.P,U3,11,I0d*%
%TO.N,unconnected-(U3-Pad11)*%
X112506600Y-88691800D03*
%TO.P,U3,12,Zc*%
%TO.N,unconnected-(U3-Pad12)*%
X112506600Y-86151800D03*
%TO.P,U3,13,I1c*%
%TO.N,unconnected-(U3-Pad13)*%
X112506600Y-83611800D03*
%TO.P,U3,14,I0c*%
%TO.N,unconnected-(U3-Pad14)*%
X112506600Y-81071800D03*
%TO.P,U3,15,OE*%
%TO.N,VCC*%
X112506600Y-78531800D03*
%TO.P,U3,16,VCC*%
X112506600Y-75991800D03*
%TD*%
D24*
%TO.P,J7,4,Pin_4*%
%TO.N,VCC*%
X157302200Y-51028600D03*
%TO.P,J7,3,Pin_3*%
%TO.N,/TxDB*%
X157302200Y-48488600D03*
%TO.P,J7,2,Pin_2*%
%TO.N,/RxDB*%
X157302200Y-45948600D03*
D25*
%TO.P,J7,1,Pin_1*%
%TO.N,GND*%
X157302200Y-43408600D03*
%TD*%
D21*
%TO.P,U2,32,Vcc*%
%TO.N,VCC*%
X79655200Y-77571800D03*
%TO.P,U2,31,PGM*%
X82195200Y-80111800D03*
%TO.P,U2,30,A17*%
%TO.N,/A17*%
X82195200Y-77571800D03*
%TO.P,U2,29,A14*%
%TO.N,/A14*%
X84735200Y-80111800D03*
%TO.P,U2,28,A13*%
%TO.N,/A13*%
X82195200Y-82651800D03*
%TO.P,U2,27,A8*%
%TO.N,/A8*%
X84735200Y-82651800D03*
%TO.P,U2,26,A9*%
%TO.N,/A9*%
X82195200Y-85191800D03*
%TO.P,U2,25,A11*%
%TO.N,/A11*%
X84735200Y-85191800D03*
%TO.P,U2,24,OE*%
%TO.N,/~{OE}*%
X82195200Y-87731800D03*
%TO.P,U2,23,A10*%
%TO.N,/A10*%
X84735200Y-87731800D03*
%TO.P,U2,22,CE*%
%TO.N,/~{ROMSEL}*%
X82195200Y-90271800D03*
%TO.P,U2,21,D7*%
%TO.N,/D7*%
X84735200Y-90271800D03*
%TO.P,U2,20,D6*%
%TO.N,/D6*%
X82195200Y-92811800D03*
%TO.P,U2,19,D5*%
%TO.N,/D5*%
X79655200Y-90271800D03*
%TO.P,U2,18,D4*%
%TO.N,/D4*%
X79655200Y-92811800D03*
%TO.P,U2,17,D3*%
%TO.N,/D3*%
X77115200Y-90271800D03*
%TO.P,U2,16,GND*%
%TO.N,GND*%
X77115200Y-92811800D03*
%TO.P,U2,15,D2*%
%TO.N,/D2*%
X74575200Y-90271800D03*
%TO.P,U2,14,D1*%
%TO.N,/D1*%
X74575200Y-92811800D03*
%TO.P,U2,13,D0*%
%TO.N,/D0*%
X72035200Y-90271800D03*
%TO.P,U2,12,A0*%
%TO.N,/A0*%
X74575200Y-87731800D03*
%TO.P,U2,11,A1*%
%TO.N,/A1*%
X72035200Y-87731800D03*
%TO.P,U2,10,A2*%
%TO.N,/A2*%
X74575200Y-85191800D03*
%TO.P,U2,9,A3*%
%TO.N,/A3*%
X72035200Y-85191800D03*
%TO.P,U2,8,A4*%
%TO.N,/A4*%
X74575200Y-82651800D03*
%TO.P,U2,7,A5*%
%TO.N,/A5*%
X72035200Y-82651800D03*
%TO.P,U2,6,A6*%
%TO.N,/A6*%
X74575200Y-80111800D03*
%TO.P,U2,5,A7*%
%TO.N,/A7*%
X72035200Y-80111800D03*
%TO.P,U2,4,A12*%
%TO.N,/A12*%
X74575200Y-77571800D03*
%TO.P,U2,3,A15*%
%TO.N,/A15*%
X77115200Y-80111800D03*
%TO.P,U2,2,A16*%
%TO.N,/A16*%
X77115200Y-77571800D03*
D20*
%TO.P,U2,1,A18*%
%TO.N,/A18*%
X79655200Y-80111800D03*
%TD*%
%TO.P,IC1,1,A2*%
%TO.N,/A2*%
X82092800Y-44653200D03*
D21*
%TO.P,IC1,2,A3*%
%TO.N,/A3*%
X82092800Y-47193200D03*
%TO.P,IC1,3,A4*%
%TO.N,/A4*%
X79552800Y-44653200D03*
%TO.P,IC1,4,A5*%
%TO.N,/A5*%
X79552800Y-47193200D03*
%TO.P,IC1,5,A6*%
%TO.N,/A6*%
X77012800Y-44653200D03*
%TO.P,IC1,6,A7*%
%TO.N,/A7*%
X77012800Y-47193200D03*
%TO.P,IC1,7,A8*%
%TO.N,/A8*%
X74472800Y-44653200D03*
%TO.P,IC1,8,A9*%
%TO.N,/A9*%
X71932800Y-47193200D03*
%TO.P,IC1,9,A10*%
%TO.N,/A10*%
X74472800Y-47193200D03*
%TO.P,IC1,10,A11*%
%TO.N,/A11*%
X71932800Y-49733200D03*
%TO.P,IC1,11,A12*%
%TO.N,/A12*%
X74472800Y-49733200D03*
%TO.P,IC1,12,A13*%
%TO.N,/A13*%
X71932800Y-52273200D03*
%TO.P,IC1,13,A21*%
%TO.N,/A21*%
X74472800Y-52273200D03*
%TO.P,IC1,14,A14*%
%TO.N,/A14*%
X71932800Y-54813200D03*
%TO.P,IC1,15,VCC*%
%TO.N,VCC*%
X74472800Y-54813200D03*
%TO.P,IC1,16,A15*%
%TO.N,/A15*%
X71932800Y-57353200D03*
%TO.P,IC1,17,GND_1*%
%TO.N,GND*%
X74472800Y-57353200D03*
%TO.P,IC1,18,A16*%
%TO.N,/A16*%
X71932800Y-59893200D03*
%TO.P,IC1,19,A17*%
%TO.N,/A17*%
X74472800Y-59893200D03*
%TO.P,IC1,20,A18*%
%TO.N,/A18*%
X71932800Y-62433200D03*
%TO.P,IC1,21,A19*%
%TO.N,/A19*%
X74472800Y-64973200D03*
%TO.P,IC1,22,A20*%
%TO.N,/A20*%
X74472800Y-62433200D03*
%TO.P,IC1,23,D7*%
%TO.N,/D7*%
X77012800Y-64973200D03*
%TO.P,IC1,24,D6*%
%TO.N,/D6*%
X77012800Y-62433200D03*
%TO.P,IC1,25,D5*%
%TO.N,/D5*%
X79552800Y-64973200D03*
%TO.P,IC1,26,D4*%
%TO.N,/D4*%
X79552800Y-62433200D03*
%TO.P,IC1,27,D3*%
%TO.N,/D3*%
X82092800Y-64973200D03*
%TO.P,IC1,28,D2*%
%TO.N,/D2*%
X82092800Y-62433200D03*
%TO.P,IC1,29,D1*%
%TO.N,/D1*%
X84632800Y-64973200D03*
%TO.P,IC1,30,D0*%
%TO.N,/D0*%
X84632800Y-62433200D03*
%TO.P,IC1,31,~{AS}*%
%TO.N,/~{AS}*%
X87172800Y-64973200D03*
%TO.P,IC1,32,~{DS}*%
%TO.N,/~{DS}*%
X87172800Y-62433200D03*
%TO.P,IC1,33,R/~{W}*%
%TO.N,/R~{W}*%
X89712800Y-64973200D03*
%TO.P,IC1,34,~{DTACK}*%
%TO.N,/~{CPU_DTACK}*%
X92252800Y-62433200D03*
%TO.P,IC1,35,~{BG}*%
%TO.N,/~{BG}*%
X89712800Y-62433200D03*
%TO.P,IC1,36,~{BGACK}*%
%TO.N,VCC*%
X92252800Y-59893200D03*
%TO.P,IC1,37,~{BR}*%
X89712800Y-59893200D03*
%TO.P,IC1,38,CLK*%
%TO.N,/CLK*%
X92252800Y-57353200D03*
%TO.P,IC1,39,GND_2*%
%TO.N,GND*%
X89712800Y-57353200D03*
%TO.P,IC1,40,~{HALT}*%
%TO.N,/~{HALT}*%
X92252800Y-54813200D03*
%TO.P,IC1,41,~{RESET}*%
%TO.N,/~{RESET}*%
X89712800Y-54813200D03*
%TO.P,IC1,42,E*%
%TO.N,/E*%
X92252800Y-52273200D03*
%TO.P,IC1,43,~{VPA}*%
%TO.N,/68681_Int*%
X89712800Y-52273200D03*
%TO.P,IC1,44,~{BERR}*%
%TO.N,VCC*%
X92252800Y-49733200D03*
%TO.P,IC1,45,~{IPL1}*%
%TO.N,/~{IPL1}*%
X89712800Y-49733200D03*
%TO.P,IC1,46,~{IPL2}*%
%TO.N,/68681_Int*%
X92252800Y-47193200D03*
%TO.P,IC1,47,~{IPL0}*%
%TO.N,/~{IPL0}*%
X89712800Y-44653200D03*
%TO.P,IC1,48,FC2*%
%TO.N,/FC2*%
X89712800Y-47193200D03*
%TO.P,IC1,49,FC1*%
%TO.N,/FC1*%
X87172800Y-44653200D03*
%TO.P,IC1,50,FC0*%
%TO.N,/FC0*%
X87172800Y-47193200D03*
%TO.P,IC1,51,A0*%
%TO.N,/A0*%
X84632800Y-44653200D03*
%TO.P,IC1,52,A1*%
%TO.N,/A1*%
X84632800Y-47193200D03*
%TD*%
D24*
%TO.P,J6,10,Pin_10*%
%TO.N,VCC*%
X146339400Y-72575200D03*
%TO.P,J6,9,Pin_9*%
%TO.N,GND*%
X146339400Y-75115200D03*
%TO.P,J6,8,Pin_8*%
%TO.N,unconnected-(J6-Pad8)*%
X146339400Y-77655200D03*
%TO.P,J6,7,Pin_7*%
%TO.N,unconnected-(J6-Pad7)*%
X146339400Y-80195200D03*
%TO.P,J6,6,Pin_6*%
%TO.N,/IP5*%
X146339400Y-82735200D03*
%TO.P,J6,5,Pin_5*%
%TO.N,/IP4*%
X146339400Y-85275200D03*
%TO.P,J6,4,Pin_4*%
%TO.N,/IP3*%
X146339400Y-87815200D03*
%TO.P,J6,3,Pin_3*%
%TO.N,/IP2*%
X146339400Y-90355200D03*
%TO.P,J6,2,Pin_2*%
%TO.N,/IP1*%
X146339400Y-92895200D03*
D25*
%TO.P,J6,1,Pin_1*%
%TO.N,/IP0*%
X146339400Y-95435200D03*
%TD*%
D24*
%TO.P,J5,10,Pin_10*%
%TO.N,VCC*%
X155432600Y-72575200D03*
%TO.P,J5,9,Pin_9*%
%TO.N,GND*%
X155432600Y-75115200D03*
%TO.P,J5,8,Pin_8*%
%TO.N,/OP7*%
X155432600Y-77655200D03*
%TO.P,J5,7,Pin_7*%
%TO.N,/OP6*%
X155432600Y-80195200D03*
%TO.P,J5,6,Pin_6*%
%TO.N,/OP5*%
X155432600Y-82735200D03*
%TO.P,J5,5,Pin_5*%
%TO.N,/OP4*%
X155432600Y-85275200D03*
%TO.P,J5,4,Pin_4*%
%TO.N,/OP3*%
X155432600Y-87815200D03*
%TO.P,J5,3,Pin_3*%
%TO.N,/OP2*%
X155432600Y-90355200D03*
%TO.P,J5,2,Pin_2*%
%TO.N,/OP1*%
X155432600Y-92895200D03*
D25*
%TO.P,J5,1,Pin_1*%
%TO.N,/OP0*%
X155432600Y-95435200D03*
%TD*%
D23*
%TO.P,U4,14,VCC*%
%TO.N,VCC*%
X125130400Y-75991800D03*
%TO.P,U4,13*%
%TO.N,GND*%
X125130400Y-78531800D03*
%TO.P,U4,12*%
%TO.N,unconnected-(U4-Pad12)*%
X125130400Y-81071800D03*
%TO.P,U4,11*%
%TO.N,GND*%
X125130400Y-83611800D03*
%TO.P,U4,10*%
%TO.N,unconnected-(U4-Pad10)*%
X125130400Y-86151800D03*
%TO.P,U4,9*%
%TO.N,/~{UARTSEL}*%
X125130400Y-88691800D03*
%TO.P,U4,8*%
%TO.N,Net-(U4-Pad8)*%
X125130400Y-91231800D03*
%TO.P,U4,7,GND*%
%TO.N,GND*%
X117510400Y-91231800D03*
%TO.P,U4,6*%
%TO.N,Net-(U4-Pad6)*%
X117510400Y-88691800D03*
%TO.P,U4,5*%
%TO.N,/~{RAMSEL}*%
X117510400Y-86151800D03*
%TO.P,U4,4*%
%TO.N,Net-(U4-Pad4)*%
X117510400Y-83611800D03*
%TO.P,U4,3*%
%TO.N,/~{ROMSEL}*%
X117510400Y-81071800D03*
%TO.P,U4,2*%
%TO.N,Net-(U1-Pad4)*%
X117510400Y-78531800D03*
D22*
%TO.P,U4,1*%
%TO.N,/R~{W}*%
X117510400Y-75991800D03*
%TD*%
D25*
%TO.P,J4,1,Pin_1*%
%TO.N,GND*%
X79146400Y-114884200D03*
D24*
%TO.P,J4,2,Pin_2*%
%TO.N,/CLK_EXTERNAL*%
X79146400Y-117424200D03*
%TD*%
D25*
%TO.P,J3,1,Pin_1*%
%TO.N,/CLK_ONBOARD*%
X70891400Y-114884200D03*
D24*
%TO.P,J3,2,Pin_2*%
%TO.N,/CLK*%
X70891400Y-117424200D03*
%TO.P,J3,3,Pin_3*%
%TO.N,/CLK_EXTERNAL*%
X70891400Y-119964200D03*
%TD*%
D19*
%TO.P,U8,8,~{WDO}*%
%TO.N,unconnected-(U8-Pad8)*%
X138694000Y-100599400D03*
%TO.P,U8,7,~{RESET}*%
%TO.N,/~{RESET}*%
X141234000Y-100599400D03*
%TO.P,U8,6,WDI*%
%TO.N,unconnected-(U8-Pad6)*%
X143774000Y-100599400D03*
%TO.P,U8,5,~{PFO}*%
%TO.N,unconnected-(U8-Pad5)*%
X146314000Y-100599400D03*
%TO.P,U8,4,PFI*%
%TO.N,GND*%
X146314000Y-108219400D03*
%TO.P,U8,3,GND*%
X143774000Y-108219400D03*
%TO.P,U8,2,Vcc*%
%TO.N,VCC*%
X141234000Y-108219400D03*
D18*
%TO.P,U8,1,~{MR}*%
%TO.N,Net-(C12-Pad1)*%
X138694000Y-108219400D03*
%TD*%
D26*
%TO.P,X1,8,Vcc*%
%TO.N,VCC*%
X71704200Y-100609400D03*
%TO.P,X1,5,OUT*%
%TO.N,/CLK_ONBOARD*%
X79324200Y-100609400D03*
%TO.P,X1,4,GND*%
%TO.N,GND*%
X79324200Y-108229400D03*
D27*
%TO.P,X1,1,EN*%
%TO.N,unconnected-(X1-Pad1)*%
X71704200Y-108229400D03*
%TD*%
%TO.P,X2,1,EN*%
%TO.N,unconnected-(X2-Pad1)*%
X140030200Y-44393200D03*
D26*
%TO.P,X2,7,GND*%
%TO.N,GND*%
X140030200Y-59633200D03*
%TO.P,X2,8,OUT*%
%TO.N,Net-(X2-Pad8)*%
X147650200Y-59633200D03*
%TO.P,X2,14,Vcc*%
%TO.N,VCC*%
X147650200Y-44393200D03*
%TD*%
D22*
%TO.P,U1,1*%
%TO.N,/R~{W}*%
X92516800Y-75991800D03*
D23*
%TO.P,U1,2*%
%TO.N,/~{DS}*%
X92516800Y-78531800D03*
%TO.P,U1,3*%
%TO.N,/~{RAM_WE}*%
X92516800Y-81071800D03*
%TO.P,U1,4*%
%TO.N,Net-(U1-Pad4)*%
X92516800Y-83611800D03*
%TO.P,U1,5*%
%TO.N,/~{DS}*%
X92516800Y-86151800D03*
%TO.P,U1,6*%
%TO.N,/~{OE}*%
X92516800Y-88691800D03*
%TO.P,U1,7,GND*%
%TO.N,GND*%
X92516800Y-91231800D03*
%TO.P,U1,8*%
%TO.N,Net-(R6-Pad1)*%
X100136800Y-91231800D03*
%TO.P,U1,9*%
%TO.N,/OP0*%
X100136800Y-88691800D03*
%TO.P,U1,10*%
X100136800Y-86151800D03*
%TO.P,U1,11*%
%TO.N,unconnected-(U1-Pad11)*%
X100136800Y-83611800D03*
%TO.P,U1,12*%
%TO.N,GND*%
X100136800Y-81071800D03*
%TO.P,U1,13*%
X100136800Y-78531800D03*
%TO.P,U1,14,VCC*%
%TO.N,VCC*%
X100136800Y-75991800D03*
%TD*%
D22*
%TO.P,U6,1,A0*%
%TO.N,/A19*%
X130007200Y-75991800D03*
D23*
%TO.P,U6,2,A1*%
%TO.N,/A20*%
X130007200Y-78531800D03*
%TO.P,U6,3,A2*%
%TO.N,/A21*%
X130007200Y-81071800D03*
%TO.P,U6,4,E1*%
%TO.N,GND*%
X130007200Y-83611800D03*
%TO.P,U6,5,E2*%
X130007200Y-86151800D03*
%TO.P,U6,6,E3*%
%TO.N,VCC*%
X130007200Y-88691800D03*
%TO.P,U6,7,O7*%
%TO.N,unconnected-(U6-Pad7)*%
X130007200Y-91231800D03*
%TO.P,U6,8,GND*%
%TO.N,GND*%
X130007200Y-93771800D03*
%TO.P,U6,9,O6*%
%TO.N,unconnected-(U6-Pad9)*%
X137627200Y-93771800D03*
%TO.P,U6,10,O5*%
%TO.N,unconnected-(U6-Pad10)*%
X137627200Y-91231800D03*
%TO.P,U6,11,O4*%
%TO.N,unconnected-(U6-Pad11)*%
X137627200Y-88691800D03*
%TO.P,U6,12,O3*%
%TO.N,unconnected-(U6-Pad12)*%
X137627200Y-86151800D03*
%TO.P,U6,13,O2*%
%TO.N,/~{UARTSEL}*%
X137627200Y-83611800D03*
%TO.P,U6,14,O1*%
%TO.N,/~{RAMSEL}*%
X137627200Y-81071800D03*
%TO.P,U6,15,O0*%
%TO.N,/~{ROMSEL}*%
X137627200Y-78531800D03*
%TO.P,U6,16,VCC*%
%TO.N,VCC*%
X137627200Y-75991800D03*
%TD*%
D24*
%TO.P,J1,4,Pin_4*%
%TO.N,VCC*%
X157276800Y-64043400D03*
%TO.P,J1,3,Pin_3*%
%TO.N,/TxDA*%
X157276800Y-61503400D03*
%TO.P,J1,2,Pin_2*%
%TO.N,/RxDA*%
X157276800Y-58963400D03*
D25*
%TO.P,J1,1,Pin_1*%
%TO.N,GND*%
X157276800Y-56423400D03*
%TD*%
%TO.P,J2,1,Pin_1*%
%TO.N,/A0*%
X71501000Y-128955800D03*
D24*
%TO.P,J2,2,Pin_2*%
%TO.N,/A1*%
X71501000Y-126415800D03*
%TO.P,J2,3,Pin_3*%
%TO.N,/A2*%
X74041000Y-128955800D03*
%TO.P,J2,4,Pin_4*%
%TO.N,/A3*%
X74041000Y-126415800D03*
%TO.P,J2,5,Pin_5*%
%TO.N,/A4*%
X76581000Y-128955800D03*
%TO.P,J2,6,Pin_6*%
%TO.N,/A5*%
X76581000Y-126415800D03*
%TO.P,J2,7,Pin_7*%
%TO.N,/A6*%
X79121000Y-128955800D03*
%TO.P,J2,8,Pin_8*%
%TO.N,/A7*%
X79121000Y-126415800D03*
%TO.P,J2,9,Pin_9*%
%TO.N,/A8*%
X81661000Y-128955800D03*
%TO.P,J2,10,Pin_10*%
%TO.N,/A9*%
X81661000Y-126415800D03*
%TO.P,J2,11,Pin_11*%
%TO.N,/A10*%
X84201000Y-128955800D03*
%TO.P,J2,12,Pin_12*%
%TO.N,/A11*%
X84201000Y-126415800D03*
%TO.P,J2,13,Pin_13*%
%TO.N,/A12*%
X86741000Y-128955800D03*
%TO.P,J2,14,Pin_14*%
%TO.N,/A13*%
X86741000Y-126415800D03*
%TO.P,J2,15,Pin_15*%
%TO.N,/A14*%
X89281000Y-128955800D03*
%TO.P,J2,16,Pin_16*%
%TO.N,/A15*%
X89281000Y-126415800D03*
%TO.P,J2,17,Pin_17*%
%TO.N,/A16*%
X91821000Y-128955800D03*
%TO.P,J2,18,Pin_18*%
%TO.N,/A17*%
X91821000Y-126415800D03*
%TO.P,J2,19,Pin_19*%
%TO.N,/A18*%
X94361000Y-128955800D03*
%TO.P,J2,20,Pin_20*%
%TO.N,/A19*%
X94361000Y-126415800D03*
%TO.P,J2,21,Pin_21*%
%TO.N,/A20*%
X96901000Y-128955800D03*
%TO.P,J2,22,Pin_22*%
%TO.N,/A21*%
X96901000Y-126415800D03*
%TO.P,J2,23,Pin_23*%
%TO.N,/D0*%
X99441000Y-128955800D03*
%TO.P,J2,24,Pin_24*%
%TO.N,/D1*%
X99441000Y-126415800D03*
%TO.P,J2,25,Pin_25*%
%TO.N,/D2*%
X101981000Y-128955800D03*
%TO.P,J2,26,Pin_26*%
%TO.N,/D3*%
X101981000Y-126415800D03*
%TO.P,J2,27,Pin_27*%
%TO.N,/D4*%
X104521000Y-128955800D03*
%TO.P,J2,28,Pin_28*%
%TO.N,/D5*%
X104521000Y-126415800D03*
%TO.P,J2,29,Pin_29*%
%TO.N,/D6*%
X107061000Y-128955800D03*
%TO.P,J2,30,Pin_30*%
%TO.N,/D7*%
X107061000Y-126415800D03*
%TO.P,J2,31,Pin_31*%
%TO.N,/CLK*%
X109601000Y-128955800D03*
%TO.P,J2,32,Pin_32*%
%TO.N,/~{CLK}*%
X109601000Y-126415800D03*
%TO.P,J2,33,Pin_33*%
%TO.N,/R~{W}*%
X112141000Y-128955800D03*
%TO.P,J2,34,Pin_34*%
%TO.N,/~{AS}*%
X112141000Y-126415800D03*
%TO.P,J2,35,Pin_35*%
%TO.N,/~{DS}*%
X114681000Y-128955800D03*
%TO.P,J2,36,Pin_36*%
%TO.N,/~{RAMSEL}*%
X114681000Y-126415800D03*
%TO.P,J2,37,Pin_37*%
%TO.N,/~{ROMSEL}*%
X117221000Y-128955800D03*
%TO.P,J2,38,Pin_38*%
%TO.N,VCC*%
X117221000Y-126415800D03*
%TO.P,J2,39,Pin_39*%
%TO.N,/68681_Int*%
X119761000Y-128955800D03*
%TO.P,J2,40,Pin_40*%
%TO.N,/~{CPU_DTACK}*%
X119761000Y-126415800D03*
%TO.P,J2,41,Pin_41*%
%TO.N,/E*%
X122301000Y-128955800D03*
%TO.P,J2,42,Pin_42*%
%TO.N,/FC0*%
X122301000Y-126415800D03*
%TO.P,J2,43,Pin_43*%
%TO.N,/FC1*%
X124841000Y-128955800D03*
%TO.P,J2,44,Pin_44*%
%TO.N,/FC2*%
X124841000Y-126415800D03*
%TO.P,J2,45,Pin_45*%
%TO.N,/~{RESET}*%
X127381000Y-128955800D03*
%TO.P,J2,46,Pin_46*%
%TO.N,/~{HALT}*%
X127381000Y-126415800D03*
%TO.P,J2,47,Pin_47*%
%TO.N,VCC*%
X129921000Y-128955800D03*
%TO.P,J2,48,Pin_48*%
X129921000Y-126415800D03*
%TO.P,J2,49,Pin_49*%
%TO.N,/~{BG}*%
X132461000Y-128955800D03*
%TO.P,J2,50,Pin_50*%
%TO.N,/~{IPL0}*%
X132461000Y-126415800D03*
%TO.P,J2,51,Pin_51*%
%TO.N,/~{IPL1}*%
X135001000Y-128955800D03*
%TO.P,J2,52,Pin_52*%
%TO.N,/68681_Int*%
X135001000Y-126415800D03*
%TO.P,J2,53,Pin_53*%
%TO.N,/~{UARTSEL}*%
X137541000Y-128955800D03*
%TO.P,J2,54,Pin_54*%
%TO.N,/RES1*%
X137541000Y-126415800D03*
%TO.P,J2,55,Pin_55*%
%TO.N,/RES2*%
X140081000Y-128955800D03*
%TO.P,J2,56,Pin_56*%
%TO.N,/RES3*%
X140081000Y-126415800D03*
%TO.P,J2,57,Pin_57*%
%TO.N,/RES4*%
X142621000Y-128955800D03*
%TO.P,J2,58,Pin_58*%
%TO.N,/RES5*%
X142621000Y-126415800D03*
%TO.P,J2,59,Pin_59*%
%TO.N,/RES6*%
X145161000Y-128955800D03*
%TO.P,J2,60,Pin_60*%
%TO.N,/RES7*%
X145161000Y-126415800D03*
%TO.P,J2,61,Pin_61*%
%TO.N,/RES8*%
X147701000Y-128955800D03*
%TO.P,J2,62,Pin_62*%
%TO.N,/RES9*%
X147701000Y-126415800D03*
%TO.P,J2,63,Pin_63*%
%TO.N,VCC*%
X150241000Y-128955800D03*
%TO.P,J2,64,Pin_64*%
%TO.N,GND*%
X150241000Y-126415800D03*
%TD*%
D28*
%TO.N,Net-(R6-Pad1)*%
X97246200Y-70427100D03*
%TO.N,/~{DTACK_UART}*%
X107389900Y-93848500D03*
X113149000Y-71559600D03*
%TO.N,/OP0*%
X142295100Y-83923300D03*
X102552600Y-86151800D03*
X101977800Y-79032700D03*
X140814000Y-71340100D03*
%TO.N,/OP1*%
X119473300Y-70005900D03*
%TO.N,/~{UARTSEL}*%
X131164100Y-84928400D03*
X144462500Y-71006800D03*
%TO.N,/~{ROMSEL}*%
X133098800Y-105167800D03*
%TO.N,/~{RAMSEL}*%
X119383700Y-118954000D03*
%TO.N,/~{CPU_DTACK}*%
X108461600Y-87198500D03*
%TO.N,/~{OE}*%
X100783100Y-101213900D03*
%TO.N,/~{IPL1}*%
X127190100Y-92423500D03*
X114665500Y-87833300D03*
X99824300Y-55786500D03*
%TO.N,/~{BG}*%
X131619400Y-105794900D03*
X106744700Y-95279100D03*
%TO.N,/~{HALT}*%
X126593300Y-119063800D03*
X126873700Y-117283300D03*
X124093000Y-101173600D03*
X115424400Y-97197200D03*
%TO.N,/~{RESET}*%
X133690100Y-96496200D03*
X110004300Y-91007000D03*
%TO.N,/FC0*%
X77674000Y-48759300D03*
%TO.N,/~{AS}*%
X95933700Y-82197100D03*
%TO.N,/D7*%
X99348500Y-111056400D03*
%TO.N,/D5*%
X122998400Y-64686100D03*
X95943400Y-112180200D03*
%TO.N,/D3*%
X115312500Y-63522100D03*
X81966600Y-73558100D03*
%TO.N,/D2*%
X123725100Y-68497100D03*
X80422700Y-69055000D03*
%TO.N,/D1*%
X83682200Y-95121200D03*
%TO.N,/D0*%
X100655600Y-124952300D03*
X120167400Y-61803500D03*
%TO.N,/A21*%
X131679500Y-68293600D03*
X79627700Y-69956200D03*
X132172100Y-97095400D03*
%TO.N,/A20*%
X125340900Y-66508900D03*
%TO.N,/A19*%
X75726300Y-106912700D03*
X126068900Y-68515000D03*
%TO.N,/A18*%
X91817900Y-118853500D03*
%TO.N,/A17*%
X87306800Y-77742900D03*
%TO.N,/A16*%
X93563200Y-116914500D03*
%TO.N,/A14*%
X92524300Y-124717000D03*
%TO.N,/A13*%
X94502200Y-101702000D03*
X71222700Y-58505700D03*
X88609800Y-87590500D03*
%TO.N,/A12*%
X93743000Y-122939300D03*
X88378500Y-101910700D03*
%TO.N,/A11*%
X93598200Y-102266800D03*
X86534000Y-86990600D03*
X102743000Y-101378400D03*
%TO.N,/A10*%
X97385700Y-105827800D03*
X89593300Y-119608300D03*
%TO.N,/A9*%
X72515800Y-63822400D03*
%TO.N,/A8*%
X89593300Y-118331200D03*
X96290600Y-88779800D03*
%TO.N,/A7*%
X92720600Y-103864200D03*
%TO.N,/A5*%
X97353000Y-124892000D03*
%TO.N,/A4*%
X72553100Y-91769000D03*
%TO.N,/A3*%
X107733300Y-131616500D03*
%TO.N,/A2*%
X114856400Y-119918600D03*
%TO.N,/A1*%
X70653500Y-96558500D03*
%TO.N,/A0*%
X120384100Y-118114600D03*
X70647500Y-85860100D03*
%TO.N,GND*%
X83397300Y-102592700D03*
X121320400Y-72968100D03*
%TO.N,VCC*%
X92495000Y-94911500D03*
X87884500Y-79274100D03*
%TD*%
D29*
%TO.N,Net-(R6-Pad1)*%
X140761300Y-65949900D02*
X141588000Y-66776600D01*
X139397000Y-65949900D02*
X140761300Y-65949900D01*
X135934800Y-69412100D02*
X139397000Y-65949900D01*
X126834500Y-69412100D02*
X135934800Y-69412100D01*
X126556000Y-69690600D02*
X126834500Y-69412100D01*
X123129600Y-69690600D02*
X126556000Y-69690600D01*
X122719500Y-69280500D02*
X123129600Y-69690600D01*
X98392800Y-69280500D02*
X122719500Y-69280500D01*
X97246200Y-70427100D02*
X98392800Y-69280500D01*
%TO.N,Net-(X2-Pad8)*%
X130327400Y-53663200D02*
X129057400Y-52393200D01*
X141680200Y-53663200D02*
X130327400Y-53663200D01*
X147650200Y-59633200D02*
X141680200Y-53663200D01*
%TO.N,Net-(U4-Pad8)*%
X125130400Y-91231800D02*
X126655700Y-91231800D01*
X127251000Y-91231800D02*
X126655700Y-91231800D01*
X128510700Y-92491500D02*
X127251000Y-91231800D01*
X132027000Y-92491500D02*
X128510700Y-92491500D01*
X137461200Y-97925700D02*
X132027000Y-92491500D01*
X140617400Y-97925700D02*
X137461200Y-97925700D01*
X142504000Y-99812300D02*
X140617400Y-97925700D01*
X142504000Y-101329900D02*
X142504000Y-99812300D01*
X148215500Y-107041400D02*
X142504000Y-101329900D01*
X152993400Y-107041400D02*
X148215500Y-107041400D01*
X154079800Y-108127800D02*
X152993400Y-107041400D01*
%TO.N,Net-(U4-Pad6)*%
X140563000Y-92501800D02*
X152429800Y-104368600D01*
X135728900Y-92501800D02*
X140563000Y-92501800D01*
X133188900Y-89961800D02*
X135728900Y-92501800D01*
X120305700Y-89961800D02*
X133188900Y-89961800D01*
X119035700Y-88691800D02*
X120305700Y-89961800D01*
X117510400Y-88691800D02*
X119035700Y-88691800D01*
%TO.N,Net-(U4-Pad4)*%
X147716000Y-94093200D02*
X154079800Y-100457000D01*
X144101100Y-94093200D02*
X147716000Y-94093200D01*
X139969700Y-89961800D02*
X144101100Y-94093200D01*
X136697000Y-89961800D02*
X139969700Y-89961800D01*
X134156800Y-87421600D02*
X136697000Y-89961800D01*
X122845500Y-87421600D02*
X134156800Y-87421600D01*
X119035700Y-83611800D02*
X122845500Y-87421600D01*
X117510400Y-83611800D02*
X119035700Y-83611800D01*
%TO.N,/~{DTACK_UART}*%
X107389900Y-93848600D02*
X107389900Y-93848500D01*
X107050700Y-93848600D02*
X107389900Y-93848600D01*
X105572900Y-95326400D02*
X107050700Y-93848600D01*
X97253400Y-95326400D02*
X105572900Y-95326400D01*
X106411900Y-78296700D02*
X113149000Y-71559600D01*
X106411900Y-78531800D02*
X106411900Y-78296700D01*
X104886600Y-78531800D02*
X106411900Y-78531800D01*
%TO.N,/RxDB*%
X157302200Y-45948600D02*
X156126900Y-45948600D01*
X115087400Y-51123200D02*
X113817400Y-52393200D01*
X118841800Y-51123200D02*
X115087400Y-51123200D01*
X121545300Y-48419700D02*
X118841800Y-51123200D01*
X153655800Y-48419700D02*
X121545300Y-48419700D01*
X156126900Y-45948600D02*
X153655800Y-48419700D01*
%TO.N,/TxDB*%
X114859100Y-55974900D02*
X113817400Y-54933200D01*
X123966200Y-55974900D02*
X114859100Y-55974900D01*
X128817900Y-51123200D02*
X123966200Y-55974900D01*
X153492300Y-51123200D02*
X128817900Y-51123200D01*
X156126900Y-48488600D02*
X153492300Y-51123200D01*
X157302200Y-48488600D02*
X156126900Y-48488600D01*
%TO.N,/OP0*%
X155432600Y-95435200D02*
X155432600Y-94259900D01*
X100136800Y-86151800D02*
X102552600Y-86151800D01*
X146661000Y-83923300D02*
X142295100Y-83923300D01*
X147514800Y-84777100D02*
X146661000Y-83923300D01*
X147514800Y-86709400D02*
X147514800Y-84777100D01*
X155065300Y-94259900D02*
X147514800Y-86709400D01*
X155432600Y-94259900D02*
X155065300Y-94259900D01*
X103629300Y-77381200D02*
X101977800Y-79032700D01*
X106147200Y-77381200D02*
X103629300Y-77381200D01*
X112694100Y-70834300D02*
X106147200Y-77381200D01*
X113449500Y-70834300D02*
X112694100Y-70834300D01*
X113796700Y-71181500D02*
X113449500Y-70834300D01*
X126975800Y-71181500D02*
X113796700Y-71181500D01*
X127337100Y-70820200D02*
X126975800Y-71181500D01*
X140294100Y-70820200D02*
X127337100Y-70820200D01*
X140814000Y-71340100D02*
X140294100Y-70820200D01*
%TO.N,/OP1*%
X155432600Y-92895200D02*
X155432600Y-91719900D01*
X155065300Y-91719900D02*
X155432600Y-91719900D01*
X148898000Y-85552600D02*
X155065300Y-91719900D01*
X148898000Y-72741200D02*
X148898000Y-85552600D01*
X146047300Y-69890500D02*
X148898000Y-72741200D01*
X126993000Y-69890500D02*
X146047300Y-69890500D01*
X126679000Y-70204500D02*
X126993000Y-69890500D01*
X119671900Y-70204500D02*
X126679000Y-70204500D01*
X119473300Y-70005900D02*
X119671900Y-70204500D01*
%TO.N,/OP2*%
X155432600Y-90355200D02*
X155432600Y-89179900D01*
X155065300Y-89179900D02*
X155432600Y-89179900D01*
X154255800Y-88370400D02*
X155065300Y-89179900D01*
X154255800Y-84785800D02*
X154255800Y-88370400D01*
X155036400Y-84005200D02*
X154255800Y-84785800D01*
X155920500Y-84005200D02*
X155036400Y-84005200D01*
X158021700Y-81904000D02*
X155920500Y-84005200D01*
X158021700Y-71582400D02*
X158021700Y-81904000D01*
X148568800Y-62129500D02*
X158021700Y-71582400D01*
X146685100Y-62129500D02*
X148568800Y-62129500D01*
X141657100Y-57101500D02*
X146685100Y-62129500D01*
X131969100Y-57101500D02*
X141657100Y-57101500D01*
X131597400Y-57473200D02*
X131969100Y-57101500D01*
%TO.N,/OP3*%
X155432600Y-87815200D02*
X155432600Y-86639900D01*
X155799900Y-86639900D02*
X155432600Y-86639900D01*
X158472000Y-83967800D02*
X155799900Y-86639900D01*
X158472000Y-71352700D02*
X158472000Y-83967800D01*
X148677700Y-61558400D02*
X158472000Y-71352700D01*
X146750900Y-61558400D02*
X148677700Y-61558400D01*
X141617800Y-56425300D02*
X146750900Y-61558400D01*
X114865300Y-56425300D02*
X141617800Y-56425300D01*
X113817400Y-57473200D02*
X114865300Y-56425300D01*
%TO.N,/OP5*%
X155432600Y-82735200D02*
X155432600Y-81559900D01*
X121146200Y-57473200D02*
X116357400Y-57473200D01*
X122196000Y-58523000D02*
X121146200Y-57473200D01*
X133642600Y-58523000D02*
X122196000Y-58523000D01*
X134607700Y-57557900D02*
X133642600Y-58523000D01*
X140839700Y-57557900D02*
X134607700Y-57557900D01*
X146086700Y-62804900D02*
X140839700Y-57557900D01*
X148607300Y-62804900D02*
X146086700Y-62804900D01*
X157571300Y-71768900D02*
X148607300Y-62804900D01*
X157571300Y-79788500D02*
X157571300Y-71768900D01*
X155799900Y-81559900D02*
X157571300Y-79788500D01*
X155432600Y-81559900D02*
X155799900Y-81559900D01*
%TO.N,/OP6*%
X155432600Y-80195200D02*
X155432600Y-79019900D01*
X133967600Y-60013200D02*
X131597400Y-60013200D01*
X135972500Y-58008300D02*
X133967600Y-60013200D01*
X140653200Y-58008300D02*
X135972500Y-58008300D01*
X146106600Y-63461700D02*
X140653200Y-58008300D01*
X148618300Y-63461700D02*
X146106600Y-63461700D01*
X157073500Y-71916900D02*
X148618300Y-63461700D01*
X157073500Y-77746300D02*
X157073500Y-71916900D01*
X155799900Y-79019900D02*
X157073500Y-77746300D01*
X155432600Y-79019900D02*
X155799900Y-79019900D01*
%TO.N,/OP7*%
X114858000Y-61053800D02*
X113817400Y-60013200D01*
X134200300Y-61053800D02*
X114858000Y-61053800D01*
X136795400Y-58458700D02*
X134200300Y-61053800D01*
X140466700Y-58458700D02*
X136795400Y-58458700D01*
X146452400Y-64444400D02*
X140466700Y-58458700D01*
X148964100Y-64444400D02*
X146452400Y-64444400D01*
X156623100Y-72103400D02*
X148964100Y-64444400D01*
X156623100Y-75656700D02*
X156623100Y-72103400D01*
X155799900Y-76479900D02*
X156623100Y-75656700D01*
X155432600Y-76479900D02*
X155799900Y-76479900D01*
X155432600Y-77655200D02*
X155432600Y-76479900D01*
%TO.N,/~{UARTSEL}*%
X134785300Y-84928400D02*
X131164100Y-84928400D01*
X136101900Y-83611800D02*
X134785300Y-84928400D01*
X136977200Y-83611800D02*
X136101900Y-83611800D01*
X136977200Y-83611800D02*
X137627200Y-83611800D01*
X137627200Y-83611800D02*
X139152500Y-83611800D01*
X139152500Y-83111300D02*
X139152500Y-83611800D01*
X145878600Y-76385200D02*
X139152500Y-83111300D01*
X146766400Y-76385200D02*
X145878600Y-76385200D01*
X147559700Y-75591900D02*
X146766400Y-76385200D01*
X147559700Y-72087600D02*
X147559700Y-75591900D01*
X146478900Y-71006800D02*
X147559700Y-72087600D01*
X144462500Y-71006800D02*
X146478900Y-71006800D01*
X106899600Y-75991800D02*
X104886600Y-75991800D01*
X112507400Y-70384000D02*
X106899600Y-75991800D01*
X118825700Y-70384000D02*
X112507400Y-70384000D01*
X119172900Y-70731200D02*
X118825700Y-70384000D01*
X126789200Y-70731200D02*
X119172900Y-70731200D01*
X127151400Y-70369000D02*
X126789200Y-70731200D01*
X143824700Y-70369000D02*
X127151400Y-70369000D01*
X144462500Y-71006800D02*
X143824700Y-70369000D01*
%TO.N,/~{ROMSEL}*%
X117221000Y-128955800D02*
X117221000Y-127780500D01*
X133098800Y-105341300D02*
X133098800Y-105167800D01*
X128851900Y-109588200D02*
X133098800Y-105341300D01*
X128851900Y-114934100D02*
X128851900Y-109588200D01*
X127271000Y-116515000D02*
X128851900Y-114934100D01*
X126519700Y-116515000D02*
X127271000Y-116515000D01*
X118030000Y-125004700D02*
X126519700Y-116515000D01*
X116909700Y-125004700D02*
X118030000Y-125004700D01*
X116009900Y-125904500D02*
X116909700Y-125004700D01*
X116009900Y-126936700D02*
X116009900Y-125904500D01*
X116853700Y-127780500D02*
X116009900Y-126936700D01*
X117221000Y-127780500D02*
X116853700Y-127780500D01*
X117510400Y-81071800D02*
X115985100Y-81071800D01*
X120305700Y-79801800D02*
X119035700Y-81071800D01*
X134831900Y-79801800D02*
X120305700Y-79801800D01*
X136101900Y-78531800D02*
X134831900Y-79801800D01*
X137627200Y-78531800D02*
X136101900Y-78531800D01*
X117510400Y-81071800D02*
X119035700Y-81071800D01*
X115985100Y-82175800D02*
X115985100Y-81071800D01*
X113279100Y-84881800D02*
X115985100Y-82175800D01*
X111782200Y-84881800D02*
X113279100Y-84881800D01*
X109186900Y-87477100D02*
X111782200Y-84881800D01*
X109186900Y-87499000D02*
X109186900Y-87477100D01*
X106852600Y-89833300D02*
X109186900Y-87499000D01*
X88532700Y-89833300D02*
X106852600Y-89833300D01*
X87919100Y-89219700D02*
X88532700Y-89833300D01*
X83247300Y-89219700D02*
X87919100Y-89219700D01*
X82195200Y-90271800D02*
X83247300Y-89219700D01*
%TO.N,/~{RAMSEL}*%
X114681000Y-126415800D02*
X114681000Y-125240500D01*
X119383700Y-120537800D02*
X119383700Y-118954000D01*
X114681000Y-125240500D02*
X119383700Y-120537800D01*
X134687300Y-82486400D02*
X136101900Y-81071800D01*
X116642300Y-82486400D02*
X134687300Y-82486400D01*
X115985100Y-83143600D02*
X116642300Y-82486400D01*
X115985100Y-86151800D02*
X115985100Y-83143600D01*
X117510400Y-86151800D02*
X115985100Y-86151800D01*
X137627200Y-81071800D02*
X136101900Y-81071800D01*
%TO.N,/RxDA*%
X149531300Y-52393200D02*
X131597400Y-52393200D01*
X156101500Y-58963400D02*
X149531300Y-52393200D01*
X157276800Y-58963400D02*
X156101500Y-58963400D01*
%TO.N,/TxDA*%
X157276800Y-61503400D02*
X156101500Y-61503400D01*
X155442500Y-60844400D02*
X156101500Y-61503400D01*
X146673800Y-60844400D02*
X155442500Y-60844400D01*
X140762600Y-54933200D02*
X146673800Y-60844400D01*
X131597400Y-54933200D02*
X140762600Y-54933200D01*
%TO.N,/68681_Int*%
X120936300Y-128588400D02*
X120936300Y-128955800D01*
X121744200Y-127780500D02*
X120936300Y-128588400D01*
X132828400Y-127780500D02*
X121744200Y-127780500D01*
X133825700Y-126783200D02*
X132828400Y-127780500D01*
X133825700Y-126415800D02*
X133825700Y-126783200D01*
X135001000Y-126415800D02*
X133825700Y-126415800D01*
X119761000Y-128955800D02*
X120936300Y-128955800D01*
X99228000Y-59668100D02*
X100520000Y-60960100D01*
X98557700Y-59668100D02*
X99228000Y-59668100D01*
X97304900Y-58415300D02*
X98557700Y-59668100D01*
X91781500Y-58415300D02*
X97304900Y-58415300D01*
X91216200Y-57850000D02*
X91781500Y-58415300D01*
X91216200Y-57385900D02*
X91216200Y-57850000D01*
X90138600Y-56308300D02*
X91216200Y-57385900D01*
X89703400Y-56308300D02*
X90138600Y-56308300D01*
X88669400Y-55274300D02*
X89703400Y-56308300D01*
X88669400Y-53316600D02*
X88669400Y-55274300D01*
X89712800Y-52273200D02*
X88669400Y-53316600D01*
X98244700Y-50175700D02*
X100520000Y-52451000D01*
X93289400Y-50175700D02*
X98244700Y-50175700D01*
X93289400Y-48229800D02*
X93289400Y-50175700D01*
X92252800Y-47193200D02*
X93289400Y-48229800D01*
X90982800Y-51003200D02*
X89712800Y-52273200D01*
X92461900Y-51003200D02*
X90982800Y-51003200D01*
X93289400Y-50175700D02*
X92461900Y-51003200D01*
%TO.N,/~{CPU_DTACK}*%
X106411900Y-85148800D02*
X106411900Y-83611800D01*
X108461600Y-87198500D02*
X106411900Y-85148800D01*
X104886600Y-83611800D02*
X106411900Y-83611800D01*
%TO.N,Net-(D4-Pad2)*%
X157989900Y-109398900D02*
X159210200Y-108178600D01*
X153700900Y-109398900D02*
X157989900Y-109398900D01*
X152429800Y-108127800D02*
X153700900Y-109398900D01*
%TO.N,Net-(D3-Pad2)*%
X155354100Y-105642900D02*
X154079800Y-104368600D01*
X157961300Y-105642900D02*
X155354100Y-105642900D01*
X159210200Y-104394000D02*
X157961300Y-105642900D01*
%TO.N,Net-(D2-Pad2)*%
X153287100Y-101314300D02*
X152429800Y-100457000D01*
X154488400Y-101314300D02*
X153287100Y-101314300D01*
X155044300Y-100758400D02*
X154488400Y-101314300D01*
X155044300Y-99989900D02*
X155044300Y-100758400D01*
X155794400Y-99239800D02*
X155044300Y-99989900D01*
X157993000Y-99239800D02*
X155794400Y-99239800D01*
X159210200Y-100457000D02*
X157993000Y-99239800D01*
%TO.N,Net-(D1-Pad2)*%
X141146300Y-67984900D02*
X139938000Y-66776600D01*
X146724300Y-67984900D02*
X141146300Y-67984900D01*
X147932600Y-66776600D02*
X146724300Y-67984900D01*
%TO.N,/CLK_EXTERNAL*%
X75431100Y-119964200D02*
X77971100Y-117424200D01*
X70891400Y-119964200D02*
X75431100Y-119964200D01*
X79146400Y-117424200D02*
X77971100Y-117424200D01*
%TO.N,/CLK_ONBOARD*%
X76451600Y-103482000D02*
X79324200Y-100609400D01*
X76451600Y-108148700D02*
X76451600Y-103482000D01*
X70891400Y-113708900D02*
X76451600Y-108148700D01*
X70891400Y-114884200D02*
X70891400Y-113708900D01*
%TO.N,Net-(U1-Pad4)*%
X114715100Y-79801800D02*
X115985100Y-78531800D01*
X109886600Y-79801800D02*
X114715100Y-79801800D01*
X107346600Y-82341800D02*
X109886600Y-79801800D01*
X103473000Y-82341800D02*
X107346600Y-82341800D01*
X101047300Y-84767500D02*
X103473000Y-82341800D01*
X95197800Y-84767500D02*
X101047300Y-84767500D01*
X94042100Y-83611800D02*
X95197800Y-84767500D01*
X92516800Y-83611800D02*
X94042100Y-83611800D01*
X117510400Y-78531800D02*
X115985100Y-78531800D01*
%TO.N,Net-(C12-Pad1)*%
X160642200Y-119394800D02*
X152692200Y-119394800D01*
X138694000Y-108219400D02*
X138694000Y-109632100D01*
X148456700Y-119394800D02*
X152692200Y-119394800D01*
X138694000Y-109632100D02*
X148456700Y-119394800D01*
X135921100Y-109632100D02*
X135610600Y-109321600D01*
X138694000Y-109632100D02*
X135921100Y-109632100D01*
%TO.N,/~{OE}*%
X92516800Y-88691800D02*
X90991500Y-88691800D01*
X110643600Y-102113100D02*
X112268000Y-100488700D01*
X101682300Y-102113100D02*
X110643600Y-102113100D01*
X100783100Y-101213900D02*
X101682300Y-102113100D01*
X112268000Y-98963400D02*
X112268000Y-100488700D01*
X90914000Y-88769300D02*
X90991500Y-88691800D01*
X83232700Y-88769300D02*
X90914000Y-88769300D01*
X82195200Y-87731800D02*
X83232700Y-88769300D01*
%TO.N,/~{IPL1}*%
X100520000Y-56482200D02*
X99824300Y-55786500D01*
X100520000Y-56705500D02*
X100520000Y-56482200D01*
X127190100Y-92423400D02*
X127190100Y-92423500D01*
X121824100Y-92423400D02*
X127190100Y-92423400D01*
X119362500Y-89961800D02*
X121824100Y-92423400D01*
X116739600Y-89961800D02*
X119362500Y-89961800D01*
X114665500Y-87887700D02*
X116739600Y-89961800D01*
X114665500Y-87833300D02*
X114665500Y-87887700D01*
%TO.N,/~{IPL0}*%
X96976700Y-44653200D02*
X100520000Y-48196500D01*
X89712800Y-44653200D02*
X96976700Y-44653200D01*
%TO.N,/~{BG}*%
X128352300Y-95279100D02*
X106744700Y-95279100D01*
X129443300Y-96370100D02*
X128352300Y-95279100D01*
X132472600Y-96370100D02*
X129443300Y-96370100D01*
X132936700Y-96834200D02*
X132472600Y-96370100D01*
X132936700Y-98748500D02*
X132936700Y-96834200D01*
X131619400Y-100065800D02*
X132936700Y-98748500D01*
X131619400Y-105794900D02*
X131619400Y-100065800D01*
%TO.N,/~{HALT}*%
X120123800Y-97197200D02*
X115424400Y-97197200D01*
X121158000Y-98231400D02*
X120123800Y-97197200D01*
X121158000Y-99746100D02*
X121158000Y-98231400D01*
X122585500Y-101173600D02*
X121158000Y-99746100D01*
X124093000Y-101173600D02*
X122585500Y-101173600D01*
X126593300Y-117563700D02*
X126873700Y-117283300D01*
X126593300Y-119063800D02*
X126593300Y-117563700D01*
X101737200Y-45362400D02*
X100418400Y-44043600D01*
X101737200Y-56708400D02*
X101737200Y-45362400D01*
X100928800Y-57516800D02*
X101737200Y-56708400D01*
X97845900Y-57516800D02*
X100928800Y-57516800D01*
X95142300Y-54813200D02*
X97845900Y-57516800D01*
X92252800Y-54813200D02*
X95142300Y-54813200D01*
%TO.N,/~{RESET}*%
X111499100Y-92501800D02*
X110004300Y-91007000D01*
X113436800Y-92501800D02*
X111499100Y-92501800D01*
X115763700Y-94828700D02*
X113436800Y-92501800D01*
X129031000Y-94828700D02*
X115763700Y-94828700D01*
X129256300Y-95054000D02*
X129031000Y-94828700D01*
X132247900Y-95054000D02*
X129256300Y-95054000D01*
X133690100Y-96496200D02*
X132247900Y-95054000D01*
X125234800Y-53675800D02*
X129057400Y-49853200D01*
X106081500Y-53675800D02*
X125234800Y-53675800D01*
X101780000Y-57977300D02*
X106081500Y-53675800D01*
X97503800Y-57977300D02*
X101780000Y-57977300D01*
X95796300Y-56269800D02*
X97503800Y-57977300D01*
X91169400Y-56269800D02*
X95796300Y-56269800D01*
X89712800Y-54813200D02*
X91169400Y-56269800D01*
%TO.N,/FC1*%
X124841000Y-128955800D02*
X123665700Y-128955800D01*
X123665700Y-129323100D02*
X123665700Y-128955800D01*
X119118700Y-133870100D02*
X123665700Y-129323100D01*
X72237700Y-133870100D02*
X119118700Y-133870100D01*
X67455700Y-129088100D02*
X72237700Y-133870100D01*
X67455700Y-49509200D02*
X67455700Y-129088100D01*
X78955600Y-38009300D02*
X67455700Y-49509200D01*
X83636800Y-38009300D02*
X78955600Y-38009300D01*
X84346200Y-38718700D02*
X83636800Y-38009300D01*
X84346200Y-40163900D02*
X84346200Y-38718700D01*
X81056300Y-43453800D02*
X84346200Y-40163900D01*
X81056300Y-45499200D02*
X81056300Y-43453800D01*
X81246800Y-45689700D02*
X81056300Y-45499200D01*
X86136300Y-45689700D02*
X81246800Y-45689700D01*
X87172800Y-44653200D02*
X86136300Y-45689700D01*
%TO.N,/FC0*%
X122301000Y-126415800D02*
X121125700Y-126415800D01*
X121125700Y-126783200D02*
X121125700Y-126415800D01*
X120317800Y-127591100D02*
X121125700Y-126783200D01*
X119424700Y-127591100D02*
X120317800Y-127591100D01*
X118491000Y-128524800D02*
X119424700Y-127591100D01*
X118491000Y-129428500D02*
X118491000Y-128524800D01*
X114564200Y-133355300D02*
X118491000Y-129428500D01*
X72359800Y-133355300D02*
X114564200Y-133355300D01*
X67956000Y-128951500D02*
X72359800Y-133355300D01*
X67956000Y-49645800D02*
X67956000Y-128951500D01*
X71480000Y-46121800D02*
X67956000Y-49645800D01*
X74947000Y-46121800D02*
X71480000Y-46121800D01*
X75509400Y-46684200D02*
X74947000Y-46121800D01*
X75509400Y-47166800D02*
X75509400Y-46684200D01*
X77101900Y-48759300D02*
X75509400Y-47166800D01*
X77674000Y-48759300D02*
X77101900Y-48759300D01*
%TO.N,/~{DS}*%
X90991500Y-86151800D02*
X90991500Y-78531800D01*
X92516800Y-86151800D02*
X90991500Y-86151800D01*
X92516800Y-78531800D02*
X90991500Y-78531800D01*
%TO.N,/~{AS}*%
X104886600Y-81071800D02*
X103361300Y-81071800D01*
X102236000Y-82197100D02*
X95933700Y-82197100D01*
X103361300Y-81071800D02*
X102236000Y-82197100D01*
%TO.N,/R~{W}*%
X114859800Y-77117100D02*
X115985100Y-75991800D01*
X109971300Y-77117100D02*
X114859800Y-77117100D01*
X107330400Y-79758000D02*
X109971300Y-77117100D01*
X97808300Y-79758000D02*
X107330400Y-79758000D01*
X94042100Y-75991800D02*
X97808300Y-79758000D01*
X92516800Y-75991800D02*
X94042100Y-75991800D01*
X117510400Y-75991800D02*
X115985100Y-75991800D01*
%TO.N,/CLK*%
X70891400Y-117424200D02*
X70891400Y-118599500D01*
X109601000Y-130835200D02*
X109601000Y-128955800D01*
X107531200Y-132905000D02*
X109601000Y-130835200D01*
X72546400Y-132905000D02*
X107531200Y-132905000D01*
X69716100Y-130074700D02*
X72546400Y-132905000D01*
X69716100Y-119407400D02*
X69716100Y-130074700D01*
X70524000Y-118599500D02*
X69716100Y-119407400D01*
X70891400Y-118599500D02*
X70524000Y-118599500D01*
%TO.N,/D7*%
X119888000Y-98963400D02*
X119888000Y-100488700D01*
X78065800Y-63920200D02*
X77012800Y-64973200D01*
X78065800Y-62454300D02*
X78065800Y-63920200D01*
X79125600Y-61394500D02*
X78065800Y-62454300D01*
X96311200Y-61394500D02*
X79125600Y-61394500D01*
X97179400Y-62262700D02*
X96311200Y-61394500D01*
X102028600Y-62262700D02*
X97179400Y-62262700D01*
X105314600Y-58976700D02*
X102028600Y-62262700D01*
X117860900Y-58976700D02*
X105314600Y-58976700D01*
X118897400Y-60013200D02*
X117860900Y-58976700D01*
X103851700Y-106553200D02*
X99348500Y-111056400D01*
X113823500Y-106553200D02*
X103851700Y-106553200D01*
X119888000Y-100488700D02*
X113823500Y-106553200D01*
%TO.N,/D6*%
X121461800Y-96471900D02*
X122428000Y-97438100D01*
X114727600Y-96471900D02*
X121461800Y-96471900D01*
X114572000Y-96627500D02*
X114727600Y-96471900D01*
X93653800Y-96627500D02*
X114572000Y-96627500D01*
X93172300Y-96146000D02*
X93653800Y-96627500D01*
X87282600Y-96146000D02*
X93172300Y-96146000D01*
X83948400Y-92811800D02*
X87282600Y-96146000D01*
X82195200Y-92811800D02*
X83948400Y-92811800D01*
X122428000Y-98963400D02*
X122428000Y-97438100D01*
X78501900Y-60944100D02*
X77012800Y-62433200D01*
X97301100Y-60944100D02*
X78501900Y-60944100D01*
X98143800Y-61786800D02*
X97301100Y-60944100D01*
X101615400Y-61786800D02*
X98143800Y-61786800D01*
X104879200Y-58523000D02*
X101615400Y-61786800D01*
X121413200Y-58523000D02*
X104879200Y-58523000D01*
X122903400Y-60013200D02*
X121413200Y-58523000D01*
X123977400Y-60013200D02*
X122903400Y-60013200D01*
%TO.N,/D5*%
X118897400Y-62553200D02*
X118897400Y-63095500D01*
X81101600Y-66522000D02*
X79552800Y-64973200D01*
X115470900Y-66522000D02*
X81101600Y-66522000D01*
X118897400Y-63095500D02*
X115470900Y-66522000D01*
X102445100Y-112180200D02*
X95943400Y-112180200D01*
X106368100Y-108257200D02*
X102445100Y-112180200D01*
X118040000Y-108257200D02*
X106368100Y-108257200D01*
X124968000Y-101329200D02*
X118040000Y-108257200D01*
X124968000Y-98963400D02*
X124968000Y-101329200D01*
X120488000Y-64686100D02*
X122998400Y-64686100D01*
X118897400Y-63095500D02*
X120488000Y-64686100D01*
%TO.N,/D4*%
X127508000Y-98963400D02*
X127508000Y-97438100D01*
X80691700Y-91775300D02*
X79655200Y-92811800D01*
X86767700Y-91775300D02*
X80691700Y-91775300D01*
X90629300Y-95636900D02*
X86767700Y-91775300D01*
X93936800Y-95636900D02*
X90629300Y-95636900D01*
X94446000Y-96146100D02*
X93936800Y-95636900D01*
X114176100Y-96146100D02*
X94446000Y-96146100D01*
X114362600Y-95959600D02*
X114176100Y-96146100D01*
X126029500Y-95959600D02*
X114362600Y-95959600D01*
X127508000Y-97438100D02*
X126029500Y-95959600D01*
X79552800Y-63119000D02*
X79552800Y-62433200D01*
X78509000Y-64162800D02*
X79552800Y-63119000D01*
X78509000Y-65401400D02*
X78509000Y-64162800D01*
X80136500Y-67028900D02*
X78509000Y-65401400D01*
X120702500Y-67028900D02*
X80136500Y-67028900D01*
X122117400Y-65614000D02*
X120702500Y-67028900D01*
X123456600Y-65614000D02*
X122117400Y-65614000D01*
X126517400Y-62553200D02*
X123456600Y-65614000D01*
%TO.N,/D3*%
X101981000Y-126415800D02*
X103156300Y-126415800D01*
X80691800Y-74832900D02*
X81966600Y-73558100D01*
X80691800Y-86695200D02*
X80691800Y-74832900D01*
X77115200Y-90271800D02*
X80691800Y-86695200D01*
X130048000Y-98963400D02*
X130048000Y-100488700D01*
X83170200Y-66050600D02*
X82092800Y-64973200D01*
X112784000Y-66050600D02*
X83170200Y-66050600D01*
X115312500Y-63522100D02*
X112784000Y-66050600D01*
X126238000Y-104298700D02*
X130048000Y-100488700D01*
X126238000Y-114945100D02*
X126238000Y-104298700D01*
X124305400Y-116877700D02*
X126238000Y-114945100D01*
X112327100Y-116877700D02*
X124305400Y-116877700D01*
X103156300Y-126048500D02*
X112327100Y-116877700D01*
X103156300Y-126415800D02*
X103156300Y-126048500D01*
%TO.N,/D2*%
X101981000Y-128955800D02*
X103156300Y-128955800D01*
X79389800Y-69055000D02*
X80422700Y-69055000D01*
X76078700Y-72366100D02*
X79389800Y-69055000D01*
X76078700Y-82408800D02*
X76078700Y-72366100D01*
X76529000Y-82859100D02*
X76078700Y-82408800D01*
X76529000Y-88563900D02*
X76529000Y-82859100D01*
X74821100Y-90271800D02*
X76529000Y-88563900D01*
X74575200Y-90271800D02*
X74821100Y-90271800D01*
X123607900Y-68379900D02*
X123725100Y-68497100D01*
X81097800Y-68379900D02*
X123607900Y-68379900D01*
X80422700Y-69055000D02*
X81097800Y-68379900D01*
X127508000Y-114321000D02*
X127508000Y-114203400D01*
X124501000Y-117328000D02*
X127508000Y-114321000D01*
X114466600Y-117328000D02*
X124501000Y-117328000D01*
X105791000Y-126003600D02*
X114466600Y-117328000D01*
X105791000Y-126810000D02*
X105791000Y-126003600D01*
X104820500Y-127780500D02*
X105791000Y-126810000D01*
X103964200Y-127780500D02*
X104820500Y-127780500D01*
X103156300Y-128588400D02*
X103964200Y-127780500D01*
X103156300Y-128955800D02*
X103156300Y-128588400D01*
%TO.N,/D1*%
X76538900Y-95121200D02*
X83682200Y-95121200D01*
X74575200Y-93157500D02*
X76538900Y-95121200D01*
X74575200Y-92811800D02*
X74575200Y-93157500D01*
X104500900Y-62553200D02*
X116357400Y-62553200D01*
X103117400Y-63936700D02*
X104500900Y-62553200D01*
X85669300Y-63936700D02*
X103117400Y-63936700D01*
X84632800Y-64973200D02*
X85669300Y-63936700D01*
X122744100Y-116427300D02*
X124968000Y-114203400D01*
X110306100Y-116427300D02*
X122744100Y-116427300D01*
X100616300Y-126117100D02*
X110306100Y-116427300D01*
X100616300Y-126415800D02*
X100616300Y-126117100D01*
X99441000Y-126415800D02*
X100616300Y-126415800D01*
%TO.N,/D0*%
X122428000Y-114203400D02*
X122428000Y-115728700D01*
X120167400Y-61803500D02*
X120167400Y-61504200D01*
X104594800Y-61504200D02*
X120167400Y-61504200D01*
X102629300Y-63469700D02*
X104594800Y-61504200D01*
X85669300Y-63469700D02*
X102629300Y-63469700D01*
X84632800Y-62433200D02*
X85669300Y-63469700D01*
X128008400Y-61504200D02*
X129057400Y-62553200D01*
X120167400Y-61504200D02*
X128008400Y-61504200D01*
X109879200Y-115728700D02*
X100655600Y-124952300D01*
X122428000Y-115728700D02*
X109879200Y-115728700D01*
%TO.N,/A21*%
X127316100Y-68293600D02*
X131679500Y-68293600D01*
X126369400Y-69240300D02*
X127316100Y-68293600D01*
X123316200Y-69240300D02*
X126369400Y-69240300D01*
X122906100Y-68830200D02*
X123316200Y-69240300D01*
X92698100Y-68830200D02*
X122906100Y-68830200D01*
X91572100Y-69956200D02*
X92698100Y-68830200D01*
X79627700Y-69956200D02*
X91572100Y-69956200D01*
X129896700Y-97095400D02*
X132172100Y-97095400D01*
X128778000Y-98214100D02*
X129896700Y-97095400D01*
X128778000Y-99692300D02*
X128778000Y-98214100D01*
X117667500Y-110802800D02*
X128778000Y-99692300D01*
X108493400Y-110802800D02*
X117667500Y-110802800D01*
X105918000Y-113378200D02*
X108493400Y-110802800D01*
X105918000Y-115254000D02*
X105918000Y-113378200D01*
X96586200Y-124585800D02*
X105918000Y-115254000D01*
X96586200Y-126101000D02*
X96586200Y-124585800D01*
X96901000Y-126415800D02*
X96586200Y-126101000D01*
%TO.N,/A20*%
X74472800Y-62932000D02*
X74472800Y-62433200D01*
X74496100Y-62955300D02*
X74472800Y-62932000D01*
X74496100Y-63464300D02*
X74496100Y-62955300D01*
X75742800Y-64711100D02*
X74496100Y-63464300D01*
X75742800Y-65220100D02*
X75742800Y-64711100D01*
X78002000Y-67479300D02*
X75742800Y-65220100D01*
X121591400Y-67479300D02*
X78002000Y-67479300D01*
X122561800Y-66508900D02*
X121591400Y-67479300D01*
X125340900Y-66508900D02*
X122561800Y-66508900D01*
X95264000Y-130592800D02*
X96901000Y-128955800D01*
X79023800Y-130592800D02*
X95264000Y-130592800D01*
X77906100Y-129475100D02*
X79023800Y-130592800D01*
X77906100Y-128616700D02*
X77906100Y-129475100D01*
X76880600Y-127591200D02*
X77906100Y-128616700D01*
X76055400Y-127591200D02*
X76880600Y-127591200D01*
X75404000Y-126939800D02*
X76055400Y-127591200D01*
X75404000Y-123093900D02*
X75404000Y-126939800D01*
X80327200Y-118170700D02*
X75404000Y-123093900D01*
X80327200Y-116914900D02*
X80327200Y-118170700D01*
X79471900Y-116059600D02*
X80327200Y-116914900D01*
X69906600Y-116059600D02*
X79471900Y-116059600D01*
X68449700Y-114602700D02*
X69906600Y-116059600D01*
X68449700Y-69510700D02*
X68449700Y-114602700D01*
X74496100Y-63464300D02*
X68449700Y-69510700D01*
%TO.N,/A19*%
X74472800Y-64973200D02*
X74472800Y-67929600D01*
X68944900Y-73457500D02*
X74472800Y-67929600D01*
X68944900Y-100803700D02*
X68944900Y-73457500D01*
X75053900Y-106912700D02*
X68944900Y-100803700D01*
X75726300Y-106912700D02*
X75053900Y-106912700D01*
X125309700Y-67755800D02*
X126068900Y-68515000D01*
X123428700Y-67755800D02*
X125309700Y-67755800D01*
X123254900Y-67929600D02*
X123428700Y-67755800D01*
X74472800Y-67929600D02*
X123254900Y-67929600D01*
%TO.N,/A18*%
X91948000Y-114203400D02*
X91948000Y-115728700D01*
X91817900Y-115858800D02*
X91948000Y-115728700D01*
X91817900Y-118853500D02*
X91817900Y-115858800D01*
%TO.N,/A17*%
X82366300Y-77742900D02*
X82195200Y-77571800D01*
X87306800Y-77742900D02*
X82366300Y-77742900D01*
X96561700Y-100955000D02*
X97028000Y-100488700D01*
X96561700Y-104245700D02*
X96561700Y-100955000D01*
X88830300Y-111977100D02*
X96561700Y-104245700D01*
X88830300Y-122249800D02*
X88830300Y-111977100D01*
X91821000Y-125240500D02*
X88830300Y-122249800D01*
X91821000Y-126415800D02*
X91821000Y-125240500D01*
X97028000Y-98963400D02*
X97028000Y-100488700D01*
%TO.N,/A16*%
X94488000Y-114203400D02*
X94488000Y-115728700D01*
X91821000Y-128955800D02*
X91821000Y-127780500D01*
X92996300Y-117481400D02*
X93563200Y-116914500D01*
X92996300Y-124163200D02*
X92996300Y-117481400D01*
X93249600Y-124416500D02*
X92996300Y-124163200D01*
X93249600Y-125017500D02*
X93249600Y-124416500D01*
X92996300Y-125270800D02*
X93249600Y-125017500D01*
X92996300Y-126972600D02*
X92996300Y-125270800D01*
X92188400Y-127780500D02*
X92996300Y-126972600D01*
X91821000Y-127780500D02*
X92188400Y-127780500D01*
X93563200Y-116653500D02*
X93563200Y-116914500D01*
X94488000Y-115728700D02*
X93563200Y-116653500D01*
%TO.N,/A15*%
X77115200Y-88614600D02*
X77115200Y-80111800D01*
X75611800Y-90118000D02*
X77115200Y-88614600D01*
X75611800Y-93503900D02*
X75611800Y-90118000D01*
X76447300Y-94339400D02*
X75611800Y-93503900D01*
X83938700Y-94339400D02*
X76447300Y-94339400D01*
X87037400Y-97438100D02*
X83938700Y-94339400D01*
X92962700Y-97438100D02*
X87037400Y-97438100D01*
X94488000Y-98963400D02*
X92962700Y-97438100D01*
X89281000Y-126415800D02*
X89281000Y-125240500D01*
X94488000Y-98963400D02*
X94488000Y-100488700D01*
X87882100Y-123841600D02*
X89281000Y-125240500D01*
X87882100Y-111639300D02*
X87882100Y-123841600D01*
X95227500Y-104293900D02*
X87882100Y-111639300D01*
X95227500Y-101228200D02*
X95227500Y-104293900D01*
X94488000Y-100488700D02*
X95227500Y-101228200D01*
%TO.N,/A14*%
X97028000Y-114203400D02*
X97028000Y-112678100D01*
X96562600Y-112678100D02*
X97028000Y-112678100D01*
X96335200Y-112905500D02*
X96562600Y-112678100D01*
X95632300Y-112905500D02*
X96335200Y-112905500D01*
X95404700Y-112677900D02*
X95632300Y-112905500D01*
X94013800Y-112677900D02*
X95404700Y-112677900D01*
X93073400Y-113618300D02*
X94013800Y-112677900D01*
X93073400Y-115553900D02*
X93073400Y-113618300D01*
X92545700Y-116081600D02*
X93073400Y-115553900D01*
X92545700Y-124695600D02*
X92545700Y-116081600D01*
X92524300Y-124717000D02*
X92545700Y-124695600D01*
%TO.N,/A13*%
X86741000Y-126415800D02*
X86741000Y-125240500D01*
X70826000Y-53380000D02*
X71932800Y-52273200D01*
X70826000Y-58109000D02*
X70826000Y-53380000D01*
X71222700Y-58505700D02*
X70826000Y-58109000D01*
X83465200Y-83921800D02*
X82195200Y-82651800D01*
X84941100Y-83921800D02*
X83465200Y-83921800D01*
X88609800Y-87590500D02*
X84941100Y-83921800D01*
X86741000Y-111506600D02*
X86741000Y-125240500D01*
X94502200Y-103745400D02*
X86741000Y-111506600D01*
X94502200Y-101702000D02*
X94502200Y-103745400D01*
%TO.N,/A12*%
X99568000Y-114203400D02*
X99568000Y-115728700D01*
X93743000Y-121553700D02*
X93743000Y-122939300D01*
X99568000Y-115728700D02*
X93743000Y-121553700D01*
X75628300Y-78624900D02*
X74575200Y-77571800D01*
X75628300Y-82820600D02*
X75628300Y-78624900D01*
X76078600Y-83270900D02*
X75628300Y-82820600D01*
X76078600Y-88377400D02*
X76078600Y-83270900D01*
X75237400Y-89218600D02*
X76078600Y-88377400D01*
X74154500Y-89218600D02*
X75237400Y-89218600D01*
X73538600Y-89834500D02*
X74154500Y-89218600D01*
X73538600Y-93292100D02*
X73538600Y-89834500D01*
X77093500Y-96847000D02*
X73538600Y-93292100D01*
X83314800Y-96847000D02*
X77093500Y-96847000D01*
X88378500Y-101910700D02*
X83314800Y-96847000D01*
%TO.N,/A11*%
X84201000Y-126415800D02*
X84201000Y-125240500D01*
X86534000Y-86990600D02*
X84735200Y-85191800D01*
X108838300Y-101378400D02*
X109728000Y-100488700D01*
X102743000Y-101378400D02*
X108838300Y-101378400D01*
X109728000Y-98963400D02*
X109728000Y-100488700D01*
X84201000Y-113409700D02*
X84201000Y-125240500D01*
X93598200Y-104012500D02*
X84201000Y-113409700D01*
X93598200Y-102266800D02*
X93598200Y-104012500D01*
%TO.N,/A10*%
X114808000Y-98963400D02*
X114808000Y-100488700D01*
X109468900Y-105827800D02*
X97385700Y-105827800D01*
X114808000Y-100488700D02*
X109468900Y-105827800D01*
X90318600Y-112894900D02*
X97385700Y-105827800D01*
X90318600Y-118883000D02*
X90318600Y-112894900D01*
X89593300Y-119608300D02*
X90318600Y-118883000D01*
%TO.N,/A9*%
X107188000Y-98963400D02*
X107188000Y-97438100D01*
X81661000Y-126415800D02*
X82836300Y-126415800D01*
X107188000Y-97438100D02*
X95677800Y-97438100D01*
X82195200Y-85871500D02*
X82195200Y-85191800D01*
X78385200Y-89681500D02*
X82195200Y-85871500D01*
X78385200Y-90496700D02*
X78385200Y-89681500D01*
X77556700Y-91325200D02*
X78385200Y-90496700D01*
X77094600Y-91325200D02*
X77556700Y-91325200D01*
X76062200Y-92357600D02*
X77094600Y-91325200D01*
X76062200Y-93240400D02*
X76062200Y-92357600D01*
X76710800Y-93889000D02*
X76062200Y-93240400D01*
X84388700Y-93889000D02*
X76710800Y-93889000D01*
X87262400Y-96762700D02*
X84388700Y-93889000D01*
X93152100Y-96762700D02*
X87262400Y-96762700D01*
X93827500Y-97438100D02*
X93152100Y-96762700D01*
X95677800Y-97438100D02*
X93827500Y-97438100D01*
X72969400Y-63368800D02*
X72515800Y-63822400D01*
X72969400Y-48229800D02*
X72969400Y-63368800D01*
X71932800Y-47193200D02*
X72969400Y-48229800D01*
X82836300Y-126783100D02*
X82836300Y-126415800D01*
X83644400Y-127591200D02*
X82836300Y-126783100D01*
X89806600Y-127591200D02*
X83644400Y-127591200D01*
X90461600Y-126936200D02*
X89806600Y-127591200D01*
X90461600Y-125123600D02*
X90461600Y-126936200D01*
X88334100Y-122996100D02*
X90461600Y-125123600D01*
X88334100Y-111824200D02*
X88334100Y-122996100D01*
X95677800Y-104480500D02*
X88334100Y-111824200D01*
X95677800Y-97438100D02*
X95677800Y-104480500D01*
%TO.N,/A8*%
X104648000Y-98963400D02*
X104648000Y-100488700D01*
X94788000Y-87277200D02*
X96290600Y-88779800D01*
X89360600Y-87277200D02*
X94788000Y-87277200D01*
X84735200Y-82651800D02*
X89360600Y-87277200D01*
X101083700Y-100488700D02*
X104648000Y-100488700D01*
X101083600Y-100488600D02*
X101083700Y-100488700D01*
X100457200Y-100488600D02*
X101083600Y-100488600D01*
X97246000Y-103699800D02*
X100457200Y-100488600D01*
X97246000Y-104198500D02*
X97246000Y-103699800D01*
X89593300Y-111851200D02*
X97246000Y-104198500D01*
X89593300Y-118331200D02*
X89593300Y-111851200D01*
%TO.N,/A7*%
X79121000Y-126415800D02*
X80296300Y-126415800D01*
X80296300Y-119587900D02*
X80296300Y-126415800D01*
X81278500Y-118605700D02*
X80296300Y-119587900D01*
X81278500Y-109864700D02*
X81278500Y-118605700D01*
X79280400Y-109864700D02*
X81278500Y-109864700D01*
X78179400Y-108763700D02*
X79280400Y-109864700D01*
X78179400Y-107782700D02*
X78179400Y-108763700D01*
X80899800Y-105062300D02*
X78179400Y-107782700D01*
X80899800Y-99952700D02*
X80899800Y-105062300D01*
X79922200Y-98975100D02*
X80899800Y-99952700D01*
X78692600Y-98975100D02*
X79922200Y-98975100D01*
X75901300Y-101766400D02*
X78692600Y-98975100D01*
X71240800Y-101766400D02*
X75901300Y-101766400D01*
X69914000Y-100439600D02*
X71240800Y-101766400D01*
X69914000Y-82233000D02*
X69914000Y-100439600D01*
X72035200Y-80111800D02*
X69914000Y-82233000D01*
X86720100Y-109864700D02*
X92720600Y-103864200D01*
X81278500Y-109864700D02*
X86720100Y-109864700D01*
%TO.N,/A6*%
X104648000Y-114203400D02*
X104648000Y-115728700D01*
X95556900Y-124819800D02*
X104648000Y-115728700D01*
X95556900Y-129445100D02*
X95556900Y-124819800D01*
X94870800Y-130131200D02*
X95556900Y-129445100D01*
X81104400Y-130131200D02*
X94870800Y-130131200D01*
X80296300Y-129323100D02*
X81104400Y-130131200D01*
X80296300Y-128955800D02*
X80296300Y-129323100D01*
X73481700Y-79018300D02*
X74575200Y-80111800D01*
X71644700Y-79018300D02*
X73481700Y-79018300D01*
X69434200Y-81228800D02*
X71644700Y-79018300D01*
X69434200Y-100656100D02*
X69434200Y-81228800D01*
X71028000Y-102249900D02*
X69434200Y-100656100D01*
X76054800Y-102249900D02*
X71028000Y-102249900D01*
X78879300Y-99425400D02*
X76054800Y-102249900D01*
X79735600Y-99425400D02*
X78879300Y-99425400D01*
X80449500Y-100139300D02*
X79735600Y-99425400D01*
X80449500Y-104238800D02*
X80449500Y-100139300D01*
X77687200Y-107001100D02*
X80449500Y-104238800D01*
X77687200Y-111188000D02*
X77687200Y-107001100D01*
X80828200Y-114329000D02*
X77687200Y-111188000D01*
X80828200Y-118401500D02*
X80828200Y-114329000D01*
X77905500Y-121324200D02*
X80828200Y-118401500D01*
X77905500Y-126932300D02*
X77905500Y-121324200D01*
X78753700Y-127780500D02*
X77905500Y-126932300D01*
X79121000Y-127780500D02*
X78753700Y-127780500D01*
X79121000Y-128955800D02*
X79121000Y-127780500D01*
X79121000Y-128955800D02*
X80296300Y-128955800D01*
%TO.N,/A5*%
X107188000Y-114203400D02*
X107188000Y-115728700D01*
X98024700Y-124892000D02*
X97353000Y-124892000D01*
X107188000Y-115728700D02*
X98024700Y-124892000D01*
%TO.N,/A4*%
X73088300Y-91233800D02*
X72553100Y-91769000D01*
X73088300Y-89647900D02*
X73088300Y-91233800D01*
X73967900Y-88768300D02*
X73088300Y-89647900D01*
X75050800Y-88768300D02*
X73967900Y-88768300D01*
X75628300Y-88190800D02*
X75050800Y-88768300D01*
X75628300Y-83704900D02*
X75628300Y-88190800D01*
X74575200Y-82651800D02*
X75628300Y-83704900D01*
X98171000Y-125760400D02*
X109728000Y-114203400D01*
X98171000Y-129389900D02*
X98171000Y-125760400D01*
X96510700Y-131050200D02*
X98171000Y-129389900D01*
X78675400Y-131050200D02*
X96510700Y-131050200D01*
X76581000Y-128955800D02*
X78675400Y-131050200D01*
%TO.N,/A3*%
X83129400Y-46156600D02*
X82092800Y-47193200D01*
X87148500Y-46156600D02*
X83129400Y-46156600D01*
X88442800Y-44862300D02*
X87148500Y-46156600D01*
X88442800Y-44457200D02*
X88442800Y-44862300D01*
X90107900Y-42792100D02*
X88442800Y-44457200D01*
X101953000Y-42792100D02*
X90107900Y-42792100D01*
X106474100Y-47313200D02*
X101953000Y-42792100D01*
X113817400Y-47313200D02*
X106474100Y-47313200D01*
X74041000Y-126415800D02*
X72865700Y-126415800D01*
X106895100Y-132454700D02*
X107733300Y-131616500D01*
X72783600Y-132454700D02*
X106895100Y-132454700D01*
X70325600Y-129996700D02*
X72783600Y-132454700D01*
X70325600Y-127956200D02*
X70325600Y-129996700D01*
X70690700Y-127591100D02*
X70325600Y-127956200D01*
X72057800Y-127591100D02*
X70690700Y-127591100D01*
X72865700Y-126783200D02*
X72057800Y-127591100D01*
X72865700Y-126415800D02*
X72865700Y-126783200D01*
%TO.N,/A2*%
X82092800Y-44653200D02*
X83129300Y-44653200D01*
X85891000Y-41891500D02*
X83129300Y-44653200D01*
X113475700Y-41891500D02*
X85891000Y-41891500D01*
X116357400Y-44773200D02*
X113475700Y-41891500D01*
X74041000Y-128955800D02*
X75216300Y-128955800D01*
X114405000Y-119918600D02*
X114856400Y-119918600D01*
X108331000Y-125992600D02*
X114405000Y-119918600D01*
X108331000Y-126846800D02*
X108331000Y-125992600D01*
X107586600Y-127591200D02*
X108331000Y-126846800D01*
X106761300Y-127591200D02*
X107586600Y-127591200D01*
X105696400Y-128656100D02*
X106761300Y-127591200D01*
X105696400Y-129497200D02*
X105696400Y-128656100D01*
X103639500Y-131554100D02*
X105696400Y-129497200D01*
X77481700Y-131554100D02*
X103639500Y-131554100D01*
X75216300Y-129288700D02*
X77481700Y-131554100D01*
X75216300Y-128955800D02*
X75216300Y-129288700D01*
%TO.N,/A1*%
X70653500Y-89113500D02*
X72035200Y-87731800D01*
X70653500Y-96558500D02*
X70653500Y-89113500D01*
%TO.N,/A0*%
X71501000Y-128955800D02*
X72676300Y-128955800D01*
X86944200Y-42341800D02*
X84632800Y-44653200D01*
X102139600Y-42341800D02*
X86944200Y-42341800D01*
X105612700Y-45814900D02*
X102139600Y-42341800D01*
X120395700Y-45814900D02*
X105612700Y-45814900D01*
X121437400Y-44773200D02*
X120395700Y-45814900D01*
X71249200Y-86461800D02*
X70647500Y-85860100D01*
X73305200Y-86461800D02*
X71249200Y-86461800D01*
X74575200Y-87731800D02*
X73305200Y-86461800D01*
X120384100Y-118114700D02*
X120384100Y-118114600D01*
X118738900Y-118114700D02*
X120384100Y-118114700D01*
X110791300Y-126062300D02*
X118738900Y-118114700D01*
X110791300Y-126926500D02*
X110791300Y-126062300D01*
X110126600Y-127591200D02*
X110791300Y-126926500D01*
X109301400Y-127591200D02*
X110126600Y-127591200D01*
X108330800Y-128561800D02*
X109301400Y-127591200D01*
X108330800Y-129372100D02*
X108330800Y-128561800D01*
X105698500Y-132004400D02*
X108330800Y-129372100D01*
X75357600Y-132004400D02*
X105698500Y-132004400D01*
X72676300Y-129323100D02*
X75357600Y-132004400D01*
X72676300Y-128955800D02*
X72676300Y-129323100D01*
%TO.N,GND*%
X92516800Y-91231800D02*
X94042100Y-91231800D01*
X125130400Y-83611800D02*
X130007200Y-83611800D01*
X92516800Y-91231800D02*
X90991500Y-91231800D01*
X152037500Y-39319200D02*
X144793000Y-39319200D01*
X156126900Y-43408600D02*
X152037500Y-39319200D01*
X157302200Y-43408600D02*
X156126900Y-43408600D01*
X130007200Y-86151800D02*
X130007200Y-83611800D01*
X143983900Y-38510100D02*
X144793000Y-39319200D01*
X124291500Y-38510100D02*
X143983900Y-38510100D01*
X123482400Y-39319200D02*
X124291500Y-38510100D01*
X152692200Y-114894800D02*
X159541900Y-114894800D01*
X152692200Y-114894800D02*
X151591900Y-114894800D01*
X146441800Y-109744700D02*
X151591900Y-114894800D01*
X146314000Y-109744700D02*
X146441800Y-109744700D01*
X146314000Y-108219400D02*
X146314000Y-109744700D01*
X104886600Y-93771800D02*
X103361300Y-93771800D01*
X143774000Y-108219400D02*
X146314000Y-108219400D01*
X143774000Y-108219400D02*
X143774000Y-106694100D01*
X160642200Y-114894800D02*
X160092100Y-114894800D01*
X160092100Y-114894800D02*
X159541900Y-114894800D01*
X90898300Y-91325000D02*
X90991500Y-91231800D01*
X78602000Y-91325000D02*
X90898300Y-91325000D01*
X77115200Y-92811800D02*
X78602000Y-91325000D01*
X83820000Y-103015400D02*
X83820000Y-103847600D01*
X83397300Y-102592700D02*
X83820000Y-103015400D01*
X83820000Y-103847600D02*
X82417700Y-105249900D01*
X82303700Y-105249900D02*
X82417700Y-105249900D01*
X79324200Y-108229400D02*
X82303700Y-105249900D01*
X84495800Y-107328000D02*
X87706200Y-107328000D01*
X82417700Y-105249900D02*
X84495800Y-107328000D01*
X146339400Y-75115200D02*
X145164100Y-75115200D01*
X143252600Y-118513600D02*
X143252600Y-119126000D01*
X135610600Y-110871600D02*
X143252600Y-118513600D01*
X96582100Y-93771800D02*
X94042100Y-91231800D01*
X103361300Y-93771800D02*
X96582100Y-93771800D01*
X96318600Y-71276800D02*
X97127200Y-72085400D01*
X80003400Y-71276800D02*
X96318600Y-71276800D01*
X79194800Y-72085400D02*
X80003400Y-71276800D01*
X107674000Y-73616600D02*
X109178000Y-72112600D01*
X104777800Y-73616600D02*
X107674000Y-73616600D01*
X100136800Y-78257600D02*
X104777800Y-73616600D01*
X100136800Y-78531800D02*
X100136800Y-78257600D01*
X109419000Y-72112600D02*
X109178000Y-72112600D01*
X109446200Y-72085400D02*
X109419000Y-72112600D01*
X97943500Y-71269100D02*
X97127200Y-72085400D01*
X108334500Y-71269100D02*
X97943500Y-71269100D01*
X109178000Y-72112600D02*
X108334500Y-71269100D01*
X144414800Y-75115200D02*
X141919800Y-77610200D01*
X145164100Y-75115200D02*
X144414800Y-75115200D01*
X125130400Y-78531800D02*
X126655700Y-78531800D01*
X126655700Y-78531800D02*
X126655700Y-75521100D01*
X129364700Y-72812100D02*
X132278900Y-72812100D01*
X126655700Y-75521100D02*
X129364700Y-72812100D01*
X132278900Y-71564300D02*
X132278900Y-72812100D01*
X132565900Y-71277300D02*
X132278900Y-71564300D01*
X133809500Y-71277300D02*
X132565900Y-71277300D01*
X134617600Y-72085400D02*
X133809500Y-71277300D01*
X141571400Y-77261800D02*
X141919800Y-77610200D01*
X136728600Y-77261800D02*
X141571400Y-77261800D01*
X132278900Y-72812100D02*
X136728600Y-77261800D01*
X151762300Y-77610200D02*
X151013000Y-77610200D01*
X154257300Y-75115200D02*
X151762300Y-77610200D01*
X155432600Y-75115200D02*
X154257300Y-75115200D01*
X89712800Y-57353200D02*
X74472800Y-57353200D01*
X78427400Y-43912000D02*
X83020200Y-39319200D01*
X78427400Y-49785900D02*
X78427400Y-43912000D01*
X74670100Y-53543200D02*
X78427400Y-49785900D01*
X74234300Y-53543200D02*
X74670100Y-53543200D01*
X73436200Y-54341300D02*
X74234300Y-53543200D01*
X73436200Y-56316600D02*
X73436200Y-54341300D01*
X74472800Y-57353200D02*
X73436200Y-56316600D01*
X117510400Y-91231800D02*
X115985100Y-91231800D01*
X104886600Y-93771800D02*
X106411900Y-93771800D01*
X160642200Y-114894800D02*
X160642200Y-115870100D01*
X153466800Y-126650600D02*
X153466800Y-126885400D01*
X161742600Y-116970500D02*
X160642200Y-115870100D01*
X161742600Y-120193300D02*
X161742600Y-116970500D01*
X155285300Y-126650600D02*
X161742600Y-120193300D01*
X153466800Y-126650600D02*
X155285300Y-126650600D01*
X130048000Y-114203400D02*
X130048000Y-112678100D01*
X134327200Y-105067400D02*
X134543800Y-105067400D01*
X134327200Y-108398900D02*
X130048000Y-112678100D01*
X134327200Y-105067400D02*
X134327200Y-108398900D01*
X153232000Y-126415800D02*
X153466800Y-126650600D01*
X150241000Y-126415800D02*
X153232000Y-126415800D01*
X149367100Y-125240500D02*
X143252600Y-119126000D01*
X150241000Y-125240500D02*
X149367100Y-125240500D01*
X150241000Y-126415800D02*
X150241000Y-125240500D01*
X160185000Y-107284200D02*
X159854800Y-106954000D01*
X160185000Y-114801900D02*
X160185000Y-107284200D01*
X160092100Y-114894800D02*
X160185000Y-114801900D01*
X157634800Y-106954000D02*
X156410200Y-108178600D01*
X159854800Y-106954000D02*
X157634800Y-106954000D01*
X157615500Y-101662300D02*
X156410200Y-100457000D01*
X157615500Y-103188700D02*
X157615500Y-101662300D01*
X159843900Y-103188700D02*
X157615500Y-103188700D01*
X160202600Y-103547400D02*
X159843900Y-103188700D01*
X160202600Y-106606200D02*
X160202600Y-103547400D01*
X159854800Y-106954000D02*
X160202600Y-106606200D01*
X157615500Y-103188700D02*
X156410200Y-104394000D01*
X121575700Y-93771800D02*
X119035700Y-91231800D01*
X128481900Y-93771800D02*
X121575700Y-93771800D01*
X130007200Y-93771800D02*
X128481900Y-93771800D01*
X146153100Y-65756100D02*
X140030200Y-59633200D01*
X146350000Y-65559200D02*
X146153100Y-65756100D01*
X148540800Y-65559200D02*
X146350000Y-65559200D01*
X149917700Y-66936100D02*
X148540800Y-65559200D01*
X149917700Y-76514900D02*
X149917700Y-66936100D01*
X151013000Y-77610200D02*
X149917700Y-76514900D01*
X146153100Y-65756100D02*
X145132600Y-66776600D01*
X106411900Y-93518400D02*
X106411900Y-93771800D01*
X109881900Y-90048400D02*
X106411900Y-93518400D01*
X114801700Y-90048400D02*
X109881900Y-90048400D01*
X115985100Y-91231800D02*
X114801700Y-90048400D01*
X117510400Y-91231800D02*
X119035700Y-91231800D01*
X130007200Y-93771800D02*
X131532500Y-93771800D01*
X139339400Y-102259500D02*
X134546100Y-102259500D01*
X143774000Y-106694100D02*
X139339400Y-102259500D01*
X133700800Y-104441000D02*
X134327200Y-105067400D01*
X133700800Y-103104800D02*
X133700800Y-104441000D01*
X134546100Y-102259500D02*
X133700800Y-103104800D01*
X131991500Y-93771800D02*
X131532500Y-93771800D01*
X134546100Y-96326400D02*
X131991500Y-93771800D01*
X134546100Y-102259500D02*
X134546100Y-96326400D01*
X123220000Y-72085400D02*
X122095400Y-72085400D01*
X126655700Y-75521100D02*
X123220000Y-72085400D01*
X122095400Y-72193100D02*
X121320400Y-72968100D01*
X122095400Y-72085400D02*
X122095400Y-72193100D01*
%TO.N,VCC*%
X145164100Y-72679100D02*
X145164100Y-72575200D01*
X141851400Y-75991800D02*
X145164100Y-72679100D01*
X141851400Y-75991800D02*
X141919800Y-76060200D01*
X146339400Y-72575200D02*
X145164100Y-72575200D01*
X118396300Y-126048400D02*
X118396300Y-126415800D01*
X119204200Y-125240500D02*
X118396300Y-126048400D01*
X127907600Y-125240500D02*
X119204200Y-125240500D01*
X128745700Y-126078600D02*
X127907600Y-125240500D01*
X128745700Y-126415800D02*
X128745700Y-126078600D01*
X129921000Y-126415800D02*
X128745700Y-126415800D01*
X117221000Y-126415800D02*
X118396300Y-126415800D01*
X141234000Y-108219400D02*
X141234000Y-106694100D01*
X89712800Y-59893200D02*
X92252800Y-59893200D01*
X97803100Y-59893200D02*
X98870000Y-60960100D01*
X92252800Y-59893200D02*
X97803100Y-59893200D01*
X129921000Y-126415800D02*
X131096300Y-126415800D01*
X125130400Y-75991800D02*
X123605100Y-75991800D01*
X152946400Y-128955800D02*
X150241000Y-128955800D01*
X153466800Y-128435400D02*
X152946400Y-128955800D01*
X146431000Y-125904400D02*
X139652600Y-119126000D01*
X146431000Y-126810100D02*
X146431000Y-125904400D01*
X147401400Y-127780500D02*
X146431000Y-126810100D01*
X148257800Y-127780500D02*
X147401400Y-127780500D01*
X149065700Y-128588400D02*
X148257800Y-127780500D01*
X149065700Y-128955800D02*
X149065700Y-128588400D01*
X150241000Y-128955800D02*
X149065700Y-128955800D01*
X112506600Y-75991800D02*
X114031900Y-75991800D01*
X91948000Y-98963400D02*
X91948000Y-100488700D01*
X87706200Y-104730500D02*
X87706200Y-105778000D01*
X87546000Y-104570300D02*
X87706200Y-104730500D01*
X84647300Y-104570300D02*
X87546000Y-104570300D01*
X84647300Y-104570300D02*
X83820000Y-105397600D01*
X141851400Y-75991800D02*
X137627200Y-75991800D01*
X136101900Y-75119700D02*
X133067600Y-72085400D01*
X136101900Y-75991800D02*
X136101900Y-75119700D01*
X137627200Y-75991800D02*
X136101900Y-75991800D01*
X95188500Y-94911500D02*
X92495000Y-94911500D01*
X95603400Y-95326400D02*
X95188500Y-94911500D01*
X87706200Y-104730500D02*
X91948000Y-100488700D01*
X98611500Y-75119700D02*
X95577200Y-72085400D01*
X98611500Y-75991800D02*
X98611500Y-75119700D01*
X105568500Y-72085400D02*
X107896200Y-72085400D01*
X101662100Y-75991800D02*
X105568500Y-72085400D01*
X100136800Y-75991800D02*
X101662100Y-75991800D01*
X100136800Y-75991800D02*
X98611500Y-75991800D01*
X123977400Y-41364200D02*
X121932400Y-39319200D01*
X141864800Y-41364200D02*
X143243000Y-39986000D01*
X123977400Y-41364200D02*
X141864800Y-41364200D01*
X147650200Y-44393200D02*
X143243000Y-39986000D01*
X143243000Y-39986000D02*
X143243000Y-39319200D01*
X139652600Y-119126000D02*
X138018800Y-119126000D01*
X131096300Y-126048500D02*
X131096300Y-126415800D01*
X138018800Y-119126000D02*
X131096300Y-126048500D01*
X134797800Y-108807900D02*
X137316100Y-106289600D01*
X134797800Y-115905000D02*
X134797800Y-108807900D01*
X138018800Y-119126000D02*
X134797800Y-115905000D01*
X137720500Y-106694100D02*
X137316100Y-106289600D01*
X141234000Y-106694100D02*
X137720500Y-106694100D01*
X137316100Y-106289600D02*
X134543800Y-103517400D01*
X123977400Y-41364200D02*
X123977400Y-44773200D01*
X99917400Y-43242400D02*
X99116200Y-44043600D01*
X101541400Y-43242400D02*
X99917400Y-43242400D01*
X106686900Y-48387900D02*
X101541400Y-43242400D01*
X116808200Y-48387900D02*
X106686900Y-48387900D01*
X117394000Y-47802100D02*
X116808200Y-48387900D01*
X117394000Y-47333300D02*
X117394000Y-47802100D01*
X118462000Y-46265300D02*
X117394000Y-47333300D01*
X122485300Y-46265300D02*
X118462000Y-46265300D01*
X123977400Y-44773200D02*
X122485300Y-46265300D01*
X99116200Y-44043600D02*
X98768400Y-44043600D01*
X116550500Y-73473200D02*
X114031900Y-75991800D01*
X120473200Y-73473200D02*
X116550500Y-73473200D01*
X120473200Y-72157600D02*
X120473200Y-73473200D01*
X120545400Y-72085400D02*
X120473200Y-72157600D01*
X122991800Y-75991800D02*
X123605100Y-75991800D01*
X120473200Y-73473200D02*
X122991800Y-75991800D01*
X73788800Y-98524800D02*
X71704200Y-100609400D01*
X80376400Y-98524800D02*
X73788800Y-98524800D01*
X84647300Y-102795700D02*
X80376400Y-98524800D01*
X84647300Y-104570300D02*
X84647300Y-102795700D01*
X77644800Y-75561400D02*
X77644800Y-72085400D01*
X79655200Y-77571800D02*
X77644800Y-75561400D01*
X91188700Y-46769100D02*
X91188700Y-48336800D01*
X91806500Y-46151300D02*
X91188700Y-46769100D01*
X96824800Y-46151300D02*
X91806500Y-46151300D01*
X98870000Y-48196500D02*
X96824800Y-46151300D01*
X91188700Y-48669100D02*
X92252800Y-49733200D01*
X91188700Y-48336800D02*
X91188700Y-48669100D01*
X82300600Y-38488800D02*
X81470200Y-39319200D01*
X83479400Y-38488800D02*
X82300600Y-38488800D01*
X83846200Y-38855600D02*
X83479400Y-38488800D01*
X83846200Y-40027000D02*
X83846200Y-38855600D01*
X80605900Y-43267300D02*
X83846200Y-40027000D01*
X80605900Y-47993500D02*
X80605900Y-43267300D01*
X80949200Y-48336800D02*
X80605900Y-47993500D01*
X91188700Y-48336800D02*
X80949200Y-48336800D01*
X80949200Y-48336800D02*
X74472800Y-54813200D01*
X154257300Y-72815900D02*
X151013000Y-76060200D01*
X154257300Y-72575200D02*
X154257300Y-72815900D01*
X155432600Y-72575200D02*
X154257300Y-72575200D01*
X87884500Y-79066500D02*
X87884500Y-79274100D01*
X83240500Y-79066500D02*
X87884500Y-79066500D01*
X82195200Y-80111800D02*
X83240500Y-79066500D01*
X93902600Y-72085400D02*
X95577200Y-72085400D01*
X89345600Y-76642400D02*
X93902600Y-72085400D01*
X89345600Y-77605400D02*
X89345600Y-76642400D01*
X87884500Y-79066500D02*
X89345600Y-77605400D01*
X101281200Y-48661400D02*
X100932700Y-49009900D01*
X101281200Y-46208600D02*
X101281200Y-48661400D01*
X99116200Y-44043600D02*
X101281200Y-46208600D01*
X99683400Y-49009900D02*
X98870000Y-48196500D01*
X100932700Y-49009900D02*
X99683400Y-49009900D01*
X98870000Y-54087200D02*
X98870000Y-56705500D01*
X99688100Y-53269100D02*
X98870000Y-54087200D01*
X100932800Y-53269100D02*
X99688100Y-53269100D01*
X101274600Y-52927300D02*
X100932800Y-53269100D01*
X101274600Y-49351800D02*
X101274600Y-52927300D01*
X100932700Y-49009900D02*
X101274600Y-49351800D01*
X99688100Y-53269100D02*
X98870000Y-52451000D01*
%TD*%
M02*
