M48
; DRILL file {KiCad (6.0.2)} date Wed Jun  1 08:48:51 2022
; FORMAT={-:-/ absolute / inch / decimal}
; #@! TF.CreationDate,2022-06-01T08:48:51-07:00
; #@! TF.GenerationSoftware,Kicad,Pcbnew,(6.0.2)
; #@! TF.FileFunction,Plated,1,2,PTH
FMAT,2
INCH
; #@! TA.AperFunction,Plated,PTH,ViaDrill
T1C0.0157
; #@! TA.AperFunction,Plated,PTH,ComponentDrill
T2C0.0315
; #@! TA.AperFunction,Plated,PTH,ComponentDrill
T3C0.0394
; #@! TA.AperFunction,Plated,PTH,ComponentDrill
T4C0.0433
%
G90
G05
T1
X2.725Y-3.4161
X3.0478Y-3.551
X3.0697Y-3.4917
X3.1965Y-3.6556
X3.2064Y-4.6275
X3.2073Y-2.0905
X3.2109Y-4.5029
X3.2539Y-3.1128
X3.3256Y-4.5869
X3.378Y-4.6307
X3.4958Y-4.6888
X3.5296Y-4.6197
X3.5411Y-4.665
X3.5908Y-3.7266
X3.6006Y-3.8104
X3.6259Y-3.7045
X3.6291Y-2.7242
X3.6722Y-2.9632
X3.7264Y-3.1726
X3.7363Y-2.6557
X3.7618Y-4.8711
X3.9664Y-3.6633
X3.9816Y-2.8338
X3.993Y-3.5326
X4.0008Y-2.2324
X4.0634Y-3.5082
X4.0885Y-2.3965
X4.0972Y-2.5766
X4.1031Y-2.8778
X4.1688Y-1.998
X4.1873Y-3.3637
X4.2277Y-2.372
X4.2326Y-4.251
X4.2463Y-3.7054
X4.2688Y-2.2209
X4.3125Y-2.5624
X4.4199Y-2.5643
X4.4513Y-3.3321
X4.5102Y-3.3184
X4.5137Y-3.043
X4.551Y-4.0634
X4.6521Y-1.9487
X4.659Y-3.4252
X4.7435Y-3.4447
X4.7643Y-3.584
X4.805Y-3.438
X4.9614Y-3.4875
X4.9696Y-3.3878
X4.9743Y-3.5876
X5.0636Y-3.5707
X5.3371Y-2.9878
X5.3499Y-3.0477
X5.415Y-3.0188
X5.5093Y-3.5494
X5.5119Y-3.1809
X5.5201Y-2.8594
X5.7576Y-5.0387
T2
X2.814Y-3.15
X2.814Y-3.25
X2.814Y-3.35
X2.814Y-3.45
X2.814Y-3.55
X2.814Y-3.65
X2.814Y-3.75
X2.814Y-3.85
X2.814Y-3.95
X2.814Y-4.05
X2.814Y-4.15
X2.814Y-4.25
X2.814Y-4.35
X2.814Y-4.45
X3.071Y-1.849
X3.071Y-1.949
X3.071Y-2.049
X3.071Y-2.149
X3.071Y-2.249
X3.071Y-2.349
X3.071Y-2.449
X3.171Y-1.749
X3.171Y-1.849
X3.171Y-1.949
X3.171Y-2.049
X3.171Y-2.149
X3.171Y-2.249
X3.171Y-2.349
X3.171Y-2.449
X3.171Y-2.549
X3.271Y-1.749
X3.271Y-1.849
X3.271Y-2.449
X3.271Y-2.549
X3.371Y-1.749
X3.371Y-1.849
X3.371Y-2.449
X3.371Y-2.549
X3.414Y-3.15
X3.414Y-3.25
X3.414Y-3.35
X3.414Y-3.45
X3.414Y-3.55
X3.414Y-3.65
X3.414Y-3.75
X3.414Y-3.85
X3.414Y-3.95
X3.414Y-4.05
X3.414Y-4.15
X3.414Y-4.25
X3.414Y-4.35
X3.414Y-4.45
X3.471Y-1.749
X3.471Y-1.849
X3.471Y-2.449
X3.471Y-2.549
X3.571Y-1.749
X3.571Y-1.849
X3.571Y-2.449
X3.571Y-2.549
X3.671Y-1.749
X3.671Y-1.849
X3.671Y-2.449
X3.671Y-2.549
X3.7634Y-2.9839
X3.7634Y-3.2839
X3.7677Y-3.6644
X3.7677Y-3.7644
X3.7677Y-3.8644
X3.7677Y-3.9644
X3.7677Y-4.0644
X3.7677Y-4.1644
X3.7677Y-4.2644
X3.7677Y-4.3644
X3.7677Y-4.4644
X3.7677Y-4.5644
X3.771Y-1.749
X3.771Y-1.849
X3.771Y-1.949
X3.771Y-2.049
X3.771Y-2.149
X3.771Y-2.249
X3.771Y-2.349
X3.771Y-2.449
X3.771Y-2.549
X3.871Y-1.849
X3.871Y-1.949
X3.871Y-2.049
X3.871Y-2.149
X3.871Y-2.249
X3.871Y-2.349
X3.871Y-2.449
X4.0634Y-2.9839
X4.0634Y-3.2839
X4.0677Y-3.6644
X4.0677Y-3.7644
X4.0677Y-3.8644
X4.0677Y-3.9644
X4.0677Y-4.0644
X4.0677Y-4.1644
X4.0677Y-4.2644
X4.0677Y-4.3644
X4.0677Y-4.4644
X4.0677Y-4.5644
X4.478Y-1.86
X4.478Y-1.96
X4.478Y-2.06
X4.478Y-2.16
X4.478Y-2.26
X4.478Y-2.36
X4.578Y-1.76
X4.578Y-1.86
X4.578Y-1.96
X4.578Y-2.06
X4.578Y-2.16
X4.578Y-2.26
X4.578Y-2.36
X4.578Y-2.46
X4.678Y-1.76
X4.678Y-1.86
X4.678Y-2.36
X4.678Y-2.46
X4.778Y-1.76
X4.778Y-1.86
X4.778Y-2.36
X4.778Y-2.46
X4.878Y-1.76
X4.878Y-1.86
X4.878Y-2.36
X4.878Y-2.46
X4.978Y-1.76
X4.978Y-1.86
X4.978Y-2.36
X4.978Y-2.46
X5.078Y-1.76
X5.078Y-1.86
X5.078Y-1.96
X5.078Y-2.06
X5.078Y-2.16
X5.078Y-2.26
X5.078Y-2.36
X5.078Y-2.46
X5.178Y-1.86
X5.178Y-1.96
X5.178Y-2.06
X5.178Y-2.16
X5.178Y-2.26
X5.178Y-2.36
X5.513Y-1.7478
X5.513Y-2.3478
X5.813Y-1.7478
X5.813Y-2.3478
X5.975Y-3.6606
X5.975Y-3.9606
X6.075Y-3.6606
X6.075Y-3.9606
X6.175Y-3.6606
X6.175Y-3.9606
X6.275Y-3.6606
X6.275Y-3.9606
T3
X2.6732Y-1.815
X2.6732Y-1.915
X2.6732Y-2.015
X2.815Y-4.977
X2.815Y-5.077
X2.915Y-4.977
X2.915Y-5.077
X3.015Y-4.977
X3.015Y-5.077
X3.115Y-4.977
X3.115Y-5.077
X3.215Y-4.977
X3.215Y-5.077
X3.315Y-4.977
X3.315Y-5.077
X3.415Y-4.977
X3.415Y-5.077
X3.515Y-4.977
X3.515Y-5.077
X3.615Y-4.977
X3.615Y-5.077
X3.715Y-4.977
X3.715Y-5.077
X3.815Y-4.977
X3.815Y-5.077
X3.915Y-4.977
X3.915Y-5.077
X4.015Y-4.977
X4.015Y-5.077
X4.115Y-4.977
X4.115Y-5.077
X4.215Y-4.977
X4.215Y-5.077
X4.315Y-4.977
X4.315Y-5.077
X4.415Y-4.977
X4.415Y-5.077
X4.515Y-4.977
X4.515Y-5.077
X4.615Y-4.977
X4.615Y-5.077
X4.715Y-4.977
X4.715Y-5.077
X4.815Y-4.977
X4.815Y-5.077
X4.915Y-4.977
X4.915Y-5.077
X5.015Y-4.977
X5.015Y-5.077
X5.115Y-4.977
X5.115Y-5.077
X5.215Y-4.977
X5.215Y-5.077
X5.315Y-4.977
X5.315Y-5.077
X5.415Y-4.977
X5.415Y-5.077
X5.515Y-4.977
X5.515Y-5.077
X5.615Y-4.977
X5.615Y-5.077
X5.715Y-4.977
X5.715Y-5.077
X5.815Y-4.977
X5.815Y-5.077
X5.915Y-4.977
X5.915Y-5.077
X6.152Y-1.7516
X6.152Y-1.8516
X6.152Y-1.9516
X6.152Y-2.0516
X6.152Y-2.264
X6.152Y-2.364
X6.152Y-2.464
X6.152Y-2.564
T4
X6.0217Y-4.2539
X6.0217Y-4.4311
X6.2776Y-4.2539
X6.2776Y-4.4311
T0
M30
