%TF.GenerationSoftware,KiCad,Pcbnew,(6.0.2)*%
%TF.CreationDate,2022-06-01T08:48:44-07:00*%
%TF.ProjectId,Steve 68k,53746576-6520-4363-986b-2e6b69636164,rev?*%
%TF.SameCoordinates,Original*%
%TF.FileFunction,Paste,Top*%
%TF.FilePolarity,Positive*%
%FSLAX46Y46*%
G04 Gerber Fmt 4.6, Leading zero omitted, Abs format (unit mm)*
G04 Created by KiCad (PCBNEW (6.0.2)) date 2022-06-01 08:48:44*
%MOMM*%
%LPD*%
G01*
G04 APERTURE LIST*
G04 Aperture macros list*
%AMRoundRect*
0 Rectangle with rounded corners*
0 $1 Rounding radius*
0 $2 $3 $4 $5 $6 $7 $8 $9 X,Y pos of 4 corners*
0 Add a 4 corners polygon primitive as box body*
4,1,4,$2,$3,$4,$5,$6,$7,$8,$9,$2,$3,0*
0 Add four circle primitives for the rounded corners*
1,1,$1+$1,$2,$3*
1,1,$1+$1,$4,$5*
1,1,$1+$1,$6,$7*
1,1,$1+$1,$8,$9*
0 Add four rect primitives between the rounded corners*
20,1,$1+$1,$2,$3,$4,$5,0*
20,1,$1+$1,$4,$5,$6,$7,0*
20,1,$1+$1,$6,$7,$8,$9,0*
20,1,$1+$1,$8,$9,$2,$3,0*%
G04 Aperture macros list end*
%ADD10RoundRect,0.200000X-0.200000X-0.275000X0.200000X-0.275000X0.200000X0.275000X-0.200000X0.275000X0*%
%ADD11RoundRect,0.250000X0.375000X0.625000X-0.375000X0.625000X-0.375000X-0.625000X0.375000X-0.625000X0*%
%ADD12RoundRect,0.225000X-0.225000X-0.250000X0.225000X-0.250000X0.225000X0.250000X-0.225000X0.250000X0*%
%ADD13RoundRect,0.225000X0.250000X-0.225000X0.250000X0.225000X-0.250000X0.225000X-0.250000X-0.225000X0*%
%ADD14RoundRect,0.250000X0.550000X-1.050000X0.550000X1.050000X-0.550000X1.050000X-0.550000X-1.050000X0*%
%ADD15RoundRect,0.150000X0.150000X-0.825000X0.150000X0.825000X-0.150000X0.825000X-0.150000X-0.825000X0*%
%ADD16RoundRect,0.150000X-0.875000X-0.150000X0.875000X-0.150000X0.875000X0.150000X-0.875000X0.150000X0*%
%ADD17RoundRect,0.200000X0.200000X0.275000X-0.200000X0.275000X-0.200000X-0.275000X0.200000X-0.275000X0*%
G04 APERTURE END LIST*
D10*
%TO.C,R6*%
X151075000Y-86550000D03*
X152725000Y-86550000D03*
%TD*%
%TO.C,R5*%
X152725000Y-82600000D03*
X151075000Y-82600000D03*
%TD*%
D11*
%TO.C,D5*%
X157800000Y-86550000D03*
X155000000Y-86550000D03*
%TD*%
%TO.C,D1*%
X157800000Y-82600000D03*
X155000000Y-82600000D03*
%TD*%
D12*
%TO.C,C1*%
X98825000Y-89100000D03*
X100375000Y-89100000D03*
%TD*%
%TO.C,C9*%
X143370000Y-39166800D03*
X144920000Y-39166800D03*
%TD*%
%TO.C,C3*%
X98825000Y-70700000D03*
X100375000Y-70700000D03*
%TD*%
D13*
%TO.C,C11*%
X130500000Y-77475000D03*
X130500000Y-75925000D03*
%TD*%
%TO.C,C6*%
X65300000Y-91650000D03*
X65300000Y-90100000D03*
%TD*%
D10*
%TO.C,R11*%
X104635800Y-60014600D03*
X106285800Y-60014600D03*
%TD*%
%TO.C,R1*%
X104635800Y-41914600D03*
X106285800Y-41914600D03*
%TD*%
%TO.C,R10*%
X104635800Y-56394600D03*
X106285800Y-56394600D03*
%TD*%
%TO.C,R2*%
X104635800Y-45534600D03*
X106285800Y-45534600D03*
%TD*%
%TO.C,R7*%
X151079200Y-70776800D03*
X152729200Y-70776800D03*
%TD*%
D11*
%TO.C,D3*%
X157800000Y-74713800D03*
X155000000Y-74713800D03*
%TD*%
D14*
%TO.C,C15*%
X156100000Y-129200000D03*
X156100000Y-125600000D03*
%TD*%
D13*
%TO.C,C10*%
X130500000Y-86875000D03*
X130500000Y-85325000D03*
%TD*%
D15*
%TO.C,U1*%
X133690000Y-88550000D03*
X134960000Y-88550000D03*
X136230000Y-88550000D03*
X137500000Y-88550000D03*
X138770000Y-88550000D03*
X140040000Y-88550000D03*
X141310000Y-88550000D03*
X141310000Y-83600000D03*
X140040000Y-83600000D03*
X138770000Y-83600000D03*
X137500000Y-83600000D03*
X136230000Y-83600000D03*
X134960000Y-83600000D03*
X133690000Y-83600000D03*
%TD*%
D12*
%TO.C,C7*%
X117275800Y-70700000D03*
X118825800Y-70700000D03*
%TD*%
%TO.C,C8*%
X121881600Y-39166800D03*
X123431600Y-39166800D03*
%TD*%
D13*
%TO.C,C12*%
X150079800Y-110983200D03*
X150079800Y-109433200D03*
%TD*%
D10*
%TO.C,R4*%
X104635800Y-52774600D03*
X106285800Y-52774600D03*
%TD*%
D15*
%TO.C,U4*%
X133690000Y-79175000D03*
X134960000Y-79175000D03*
X136230000Y-79175000D03*
X137500000Y-79175000D03*
X138770000Y-79175000D03*
X140040000Y-79175000D03*
X141310000Y-79175000D03*
X141310000Y-74225000D03*
X140040000Y-74225000D03*
X138770000Y-74225000D03*
X137500000Y-74225000D03*
X136230000Y-74225000D03*
X134960000Y-74225000D03*
X133690000Y-74225000D03*
%TD*%
D10*
%TO.C,R13*%
X104635800Y-67254600D03*
X106285800Y-67254600D03*
%TD*%
D16*
%TO.C,U7*%
X124550000Y-73975000D03*
X124550000Y-75245000D03*
X124550000Y-76515000D03*
X124550000Y-77785000D03*
X124550000Y-79055000D03*
X124550000Y-80325000D03*
X124550000Y-81595000D03*
X124550000Y-82865000D03*
X124550000Y-84135000D03*
X124550000Y-85405000D03*
X124550000Y-86675000D03*
X124550000Y-87945000D03*
X124550000Y-89215000D03*
X124550000Y-90485000D03*
X124550000Y-91755000D03*
X124550000Y-93025000D03*
X111450000Y-93025000D03*
X111450000Y-91755000D03*
X111450000Y-90485000D03*
X111450000Y-89215000D03*
X111450000Y-87945000D03*
X111450000Y-86675000D03*
X111450000Y-85405000D03*
X111450000Y-84135000D03*
X111450000Y-82865000D03*
X111450000Y-81595000D03*
X111450000Y-80325000D03*
X111450000Y-79055000D03*
X111450000Y-77785000D03*
X111450000Y-76515000D03*
X111450000Y-75245000D03*
X111450000Y-73975000D03*
%TD*%
D10*
%TO.C,R8*%
X151079200Y-74688400D03*
X152729200Y-74688400D03*
%TD*%
D13*
%TO.C,C4*%
X147869600Y-97524200D03*
X147869600Y-95974200D03*
%TD*%
D11*
%TO.C,D2*%
X157800000Y-70776800D03*
X155000000Y-70776800D03*
%TD*%
D17*
%TO.C,R9*%
X152729200Y-78549200D03*
X151079200Y-78549200D03*
%TD*%
D12*
%TO.C,C2*%
X87413800Y-38938200D03*
X88963800Y-38938200D03*
%TD*%
D10*
%TO.C,R3*%
X104635800Y-49154600D03*
X106285800Y-49154600D03*
%TD*%
%TO.C,R12*%
X104635800Y-63634600D03*
X106285800Y-63634600D03*
%TD*%
D11*
%TO.C,D4*%
X157800000Y-78600000D03*
X155000000Y-78600000D03*
%TD*%
M02*
