%TF.GenerationSoftware,KiCad,Pcbnew,(6.0.2)*%
%TF.CreationDate,2022-06-01T08:48:44-07:00*%
%TF.ProjectId,Steve 68k,53746576-6520-4363-986b-2e6b69636164,rev?*%
%TF.SameCoordinates,Original*%
%TF.FileFunction,Copper,L1,Top*%
%TF.FilePolarity,Positive*%
%FSLAX46Y46*%
G04 Gerber Fmt 4.6, Leading zero omitted, Abs format (unit mm)*
G04 Created by KiCad (PCBNEW (6.0.2)) date 2022-06-01 08:48:44*
%MOMM*%
%LPD*%
G01*
G04 APERTURE LIST*
G04 Aperture macros list*
%AMRoundRect*
0 Rectangle with rounded corners*
0 $1 Rounding radius*
0 $2 $3 $4 $5 $6 $7 $8 $9 X,Y pos of 4 corners*
0 Add a 4 corners polygon primitive as box body*
4,1,4,$2,$3,$4,$5,$6,$7,$8,$9,$2,$3,0*
0 Add four circle primitives for the rounded corners*
1,1,$1+$1,$2,$3*
1,1,$1+$1,$4,$5*
1,1,$1+$1,$6,$7*
1,1,$1+$1,$8,$9*
0 Add four rect primitives between the rounded corners*
20,1,$1+$1,$2,$3,$4,$5,0*
20,1,$1+$1,$4,$5,$6,$7,0*
20,1,$1+$1,$6,$7,$8,$9,0*
20,1,$1+$1,$8,$9,$2,$3,0*%
G04 Aperture macros list end*
%TA.AperFunction,ComponentPad*%
%ADD10R,2.400000X1.600000*%
%TD*%
%TA.AperFunction,ComponentPad*%
%ADD11O,2.400000X1.600000*%
%TD*%
%TA.AperFunction,SMDPad,CuDef*%
%ADD12RoundRect,0.200000X-0.200000X-0.275000X0.200000X-0.275000X0.200000X0.275000X-0.200000X0.275000X0*%
%TD*%
%TA.AperFunction,SMDPad,CuDef*%
%ADD13RoundRect,0.250000X0.375000X0.625000X-0.375000X0.625000X-0.375000X-0.625000X0.375000X-0.625000X0*%
%TD*%
%TA.AperFunction,SMDPad,CuDef*%
%ADD14RoundRect,0.225000X-0.225000X-0.250000X0.225000X-0.250000X0.225000X0.250000X-0.225000X0.250000X0*%
%TD*%
%TA.AperFunction,ComponentPad*%
%ADD15R,1.700000X1.700000*%
%TD*%
%TA.AperFunction,ComponentPad*%
%ADD16O,1.700000X1.700000*%
%TD*%
%TA.AperFunction,SMDPad,CuDef*%
%ADD17RoundRect,0.225000X0.250000X-0.225000X0.250000X0.225000X-0.250000X0.225000X-0.250000X-0.225000X0*%
%TD*%
%TA.AperFunction,ComponentPad*%
%ADD18R,1.422400X1.422400*%
%TD*%
%TA.AperFunction,ComponentPad*%
%ADD19C,1.422400*%
%TD*%
%TA.AperFunction,SMDPad,CuDef*%
%ADD20RoundRect,0.250000X0.550000X-1.050000X0.550000X1.050000X-0.550000X1.050000X-0.550000X-1.050000X0*%
%TD*%
%TA.AperFunction,SMDPad,CuDef*%
%ADD21RoundRect,0.150000X0.150000X-0.825000X0.150000X0.825000X-0.150000X0.825000X-0.150000X-0.825000X0*%
%TD*%
%TA.AperFunction,ComponentPad*%
%ADD22R,1.600000X2.400000*%
%TD*%
%TA.AperFunction,ComponentPad*%
%ADD23O,1.600000X2.400000*%
%TD*%
%TA.AperFunction,ComponentPad*%
%ADD24R,1.600000X1.600000*%
%TD*%
%TA.AperFunction,ComponentPad*%
%ADD25C,1.600000*%
%TD*%
%TA.AperFunction,SMDPad,CuDef*%
%ADD26RoundRect,0.150000X-0.875000X-0.150000X0.875000X-0.150000X0.875000X0.150000X-0.875000X0.150000X0*%
%TD*%
%TA.AperFunction,SMDPad,CuDef*%
%ADD27RoundRect,0.200000X0.200000X0.275000X-0.200000X0.275000X-0.200000X-0.275000X0.200000X-0.275000X0*%
%TD*%
%TA.AperFunction,ComponentPad*%
%ADD28C,2.000000*%
%TD*%
%TA.AperFunction,ViaPad*%
%ADD29C,0.800000*%
%TD*%
%TA.AperFunction,Conductor*%
%ADD30C,0.250000*%
%TD*%
G04 APERTURE END LIST*
D10*
%TO.P,U3,1,I1/CLK*%
%TO.N,/CLK*%
X95700000Y-93075000D03*
D11*
%TO.P,U3,2,I2*%
%TO.N,/A19*%
X95700000Y-95615000D03*
%TO.P,U3,3,I3*%
%TO.N,/A20*%
X95700000Y-98155000D03*
%TO.P,U3,4,I4*%
%TO.N,/A21*%
X95700000Y-100695000D03*
%TO.P,U3,5,I5*%
%TO.N,/~{AS}*%
X95700000Y-103235000D03*
%TO.P,U3,6,I6*%
%TO.N,/~{DTACK_UART}*%
X95700000Y-105775000D03*
%TO.P,U3,7,I7*%
%TO.N,/DTACK_I2C*%
X95700000Y-108315000D03*
%TO.P,U3,8,I8*%
%TO.N,/~{DTACK_USER}*%
X95700000Y-110855000D03*
%TO.P,U3,9,I9*%
%TO.N,/~{USERSEL}*%
X95700000Y-113395000D03*
%TO.P,U3,10,GND*%
%TO.N,GND*%
X95700000Y-115935000D03*
%TO.P,U3,11,I10/~{OE}*%
X103320000Y-115935000D03*
%TO.P,U3,12,IO8*%
%TO.N,/~{ROMSEL}*%
X103320000Y-113395000D03*
%TO.P,U3,13,IO7*%
%TO.N,/~{RAMSEL}*%
X103320000Y-110855000D03*
%TO.P,U3,14,IO6*%
%TO.N,/~{UARTSEL}*%
X103320000Y-108315000D03*
%TO.P,U3,15,IO5*%
%TO.N,/~{I2CSEL}*%
X103320000Y-105775000D03*
%TO.P,U3,16,IO4*%
%TO.N,/~{DTACK_CPU}*%
X103320000Y-103235000D03*
%TO.P,U3,17,I03*%
%TO.N,unconnected-(U3-Pad17)*%
X103320000Y-100695000D03*
%TO.P,U3,18,IO2*%
%TO.N,unconnected-(U3-Pad18)*%
X103320000Y-98155000D03*
%TO.P,U3,19,IO1*%
%TO.N,unconnected-(U3-Pad19)*%
X103320000Y-95615000D03*
%TO.P,U3,20,VCC*%
%TO.N,VCC*%
X103320000Y-93075000D03*
%TD*%
D12*
%TO.P,R6,1*%
%TO.N,Net-(U4-Pad12)*%
X151075000Y-86550000D03*
%TO.P,R6,2*%
%TO.N,Net-(D5-Pad2)*%
X152725000Y-86550000D03*
%TD*%
%TO.P,R5,2*%
%TO.N,Net-(D1-Pad2)*%
X152725000Y-82600000D03*
%TO.P,R5,1*%
%TO.N,Net-(U4-Pad10)*%
X151075000Y-82600000D03*
%TD*%
D13*
%TO.P,D5,1,K*%
%TO.N,GND*%
X157800000Y-86550000D03*
%TO.P,D5,2,A*%
%TO.N,Net-(D5-Pad2)*%
X155000000Y-86550000D03*
%TD*%
%TO.P,D1,1,K*%
%TO.N,GND*%
X157800000Y-82600000D03*
%TO.P,D1,2,A*%
%TO.N,Net-(D1-Pad2)*%
X155000000Y-82600000D03*
%TD*%
D14*
%TO.P,C1,1*%
%TO.N,VCC*%
X98825000Y-89100000D03*
%TO.P,C1,2*%
%TO.N,GND*%
X100375000Y-89100000D03*
%TD*%
D15*
%TO.P,J2,1,Pin_1*%
%TO.N,GND*%
X156260800Y-57505600D03*
D16*
%TO.P,J2,2,Pin_2*%
%TO.N,/RxDA*%
X156260800Y-60045600D03*
%TO.P,J2,3,Pin_3*%
%TO.N,/TxDA*%
X156260800Y-62585600D03*
%TO.P,J2,4,Pin_4*%
%TO.N,VCC*%
X156260800Y-65125600D03*
%TD*%
D14*
%TO.P,C9,1*%
%TO.N,VCC*%
X143370000Y-39166800D03*
%TO.P,C9,2*%
%TO.N,GND*%
X144920000Y-39166800D03*
%TD*%
%TO.P,C3,1*%
%TO.N,VCC*%
X98825000Y-70700000D03*
%TO.P,C3,2*%
%TO.N,GND*%
X100375000Y-70700000D03*
%TD*%
D17*
%TO.P,C11,1*%
%TO.N,VCC*%
X130500000Y-77475000D03*
%TO.P,C11,2*%
%TO.N,GND*%
X130500000Y-75925000D03*
%TD*%
%TO.P,C6,1*%
%TO.N,VCC*%
X65300000Y-91650000D03*
%TO.P,C6,2*%
%TO.N,GND*%
X65300000Y-90100000D03*
%TD*%
D12*
%TO.P,R11,1*%
%TO.N,VCC*%
X104635800Y-60014600D03*
%TO.P,R11,2*%
%TO.N,/~{BERR}*%
X106285800Y-60014600D03*
%TD*%
D18*
%TO.P,IC1,1,A2*%
%TO.N,/A2*%
X88163400Y-44424600D03*
D19*
%TO.P,IC1,2,A3*%
%TO.N,/A3*%
X88163400Y-46964600D03*
%TO.P,IC1,3,A4*%
%TO.N,/A4*%
X85623400Y-44424600D03*
%TO.P,IC1,4,A5*%
%TO.N,/A5*%
X85623400Y-46964600D03*
%TO.P,IC1,5,A6*%
%TO.N,/A6*%
X83083400Y-44424600D03*
%TO.P,IC1,6,A7*%
%TO.N,/A7*%
X83083400Y-46964600D03*
%TO.P,IC1,7,A8*%
%TO.N,/A8*%
X80543400Y-44424600D03*
%TO.P,IC1,8,A9*%
%TO.N,/A9*%
X78003400Y-46964600D03*
%TO.P,IC1,9,A10*%
%TO.N,/A10*%
X80543400Y-46964600D03*
%TO.P,IC1,10,A11*%
%TO.N,/A11*%
X78003400Y-49504600D03*
%TO.P,IC1,11,A12*%
%TO.N,/A12*%
X80543400Y-49504600D03*
%TO.P,IC1,12,A13*%
%TO.N,/A13*%
X78003400Y-52044600D03*
%TO.P,IC1,13,A21*%
%TO.N,/A21*%
X80543400Y-52044600D03*
%TO.P,IC1,14,A14*%
%TO.N,/A14*%
X78003400Y-54584600D03*
%TO.P,IC1,15,VCC*%
%TO.N,VCC*%
X80543400Y-54584600D03*
%TO.P,IC1,16,A15*%
%TO.N,/A15*%
X78003400Y-57124600D03*
%TO.P,IC1,17,GND_1*%
%TO.N,GND*%
X80543400Y-57124600D03*
%TO.P,IC1,18,A16*%
%TO.N,/A16*%
X78003400Y-59664600D03*
%TO.P,IC1,19,A17*%
%TO.N,/A17*%
X80543400Y-59664600D03*
%TO.P,IC1,20,A18*%
%TO.N,/A18*%
X78003400Y-62204600D03*
%TO.P,IC1,21,A19*%
%TO.N,/A19*%
X80543400Y-64744600D03*
%TO.P,IC1,22,A20*%
%TO.N,/A20*%
X80543400Y-62204600D03*
%TO.P,IC1,23,D7*%
%TO.N,/D7*%
X83083400Y-64744600D03*
%TO.P,IC1,24,D6*%
%TO.N,/D6*%
X83083400Y-62204600D03*
%TO.P,IC1,25,D5*%
%TO.N,/D5*%
X85623400Y-64744600D03*
%TO.P,IC1,26,D4*%
%TO.N,/D4*%
X85623400Y-62204600D03*
%TO.P,IC1,27,D3*%
%TO.N,/D3*%
X88163400Y-64744600D03*
%TO.P,IC1,28,D2*%
%TO.N,/D2*%
X88163400Y-62204600D03*
%TO.P,IC1,29,D1*%
%TO.N,/D1*%
X90703400Y-64744600D03*
%TO.P,IC1,30,D0*%
%TO.N,/D0*%
X90703400Y-62204600D03*
%TO.P,IC1,31,~{AS}*%
%TO.N,/~{AS}*%
X93243400Y-64744600D03*
%TO.P,IC1,32,~{DS}*%
%TO.N,/~{DS}*%
X93243400Y-62204600D03*
%TO.P,IC1,33,R/~{W}*%
%TO.N,/R~{W}*%
X95783400Y-64744600D03*
%TO.P,IC1,34,~{DTACK}*%
%TO.N,/~{DTACK_CPU}*%
X98323400Y-62204600D03*
%TO.P,IC1,35,~{BG}*%
%TO.N,/~{BG}*%
X95783400Y-62204600D03*
%TO.P,IC1,36,~{BGACK}*%
%TO.N,/~{BGACK}*%
X98323400Y-59664600D03*
%TO.P,IC1,37,~{BR}*%
%TO.N,/~{BR}*%
X95783400Y-59664600D03*
%TO.P,IC1,38,CLK*%
%TO.N,/CLK*%
X98323400Y-57124600D03*
%TO.P,IC1,39,GND_2*%
%TO.N,GND*%
X95783400Y-57124600D03*
%TO.P,IC1,40,~{HALT}*%
%TO.N,/~{HALT}*%
X98323400Y-54584600D03*
%TO.P,IC1,41,~{RESET}*%
%TO.N,/~{RESET}*%
X95783400Y-54584600D03*
%TO.P,IC1,42,E*%
%TO.N,/E*%
X98323400Y-52044600D03*
%TO.P,IC1,43,~{VPA}*%
%TO.N,/68681_Int*%
X95783400Y-52044600D03*
%TO.P,IC1,44,~{BERR}*%
%TO.N,/~{BERR}*%
X98323400Y-49504600D03*
%TO.P,IC1,45,~{IPL1}*%
%TO.N,/~{IPL1}*%
X95783400Y-49504600D03*
%TO.P,IC1,46,~{IPL2}*%
%TO.N,/68681_Int*%
X98323400Y-46964600D03*
%TO.P,IC1,47,~{IPL0}*%
%TO.N,/~{IPL0}*%
X95783400Y-44424600D03*
%TO.P,IC1,48,FC2*%
%TO.N,/FC2*%
X95783400Y-46964600D03*
%TO.P,IC1,49,FC1*%
%TO.N,/FC1*%
X93243400Y-44424600D03*
%TO.P,IC1,50,FC0*%
%TO.N,/FC0*%
X93243400Y-46964600D03*
%TO.P,IC1,51,A0*%
%TO.N,/A0*%
X90703400Y-44424600D03*
%TO.P,IC1,52,A1*%
%TO.N,/A1*%
X90703400Y-46964600D03*
%TD*%
D12*
%TO.P,R1,1*%
%TO.N,VCC*%
X104635800Y-41914600D03*
%TO.P,R1,2*%
%TO.N,/~{IPL0}*%
X106285800Y-41914600D03*
%TD*%
%TO.P,R10,1*%
%TO.N,VCC*%
X104635800Y-56394600D03*
%TO.P,R10,2*%
%TO.N,/~{HALT}*%
X106285800Y-56394600D03*
%TD*%
%TO.P,R2,1*%
%TO.N,VCC*%
X104635800Y-45534600D03*
%TO.P,R2,2*%
%TO.N,/68681_Int*%
X106285800Y-45534600D03*
%TD*%
D10*
%TO.P,U2,1,A14*%
%TO.N,/A14*%
X71475000Y-80010000D03*
D11*
%TO.P,U2,2,A12*%
%TO.N,/A12*%
X71475000Y-82550000D03*
%TO.P,U2,3,A7*%
%TO.N,/A7*%
X71475000Y-85090000D03*
%TO.P,U2,4,A6*%
%TO.N,/A6*%
X71475000Y-87630000D03*
%TO.P,U2,5,A5*%
%TO.N,/A5*%
X71475000Y-90170000D03*
%TO.P,U2,6,A4*%
%TO.N,/A4*%
X71475000Y-92710000D03*
%TO.P,U2,7,A3*%
%TO.N,/A3*%
X71475000Y-95250000D03*
%TO.P,U2,8,A2*%
%TO.N,/A2*%
X71475000Y-97790000D03*
%TO.P,U2,9,A1*%
%TO.N,/A1*%
X71475000Y-100330000D03*
%TO.P,U2,10,A0*%
%TO.N,/A0*%
X71475000Y-102870000D03*
%TO.P,U2,11,D0*%
%TO.N,/D0*%
X71475000Y-105410000D03*
%TO.P,U2,12,D1*%
%TO.N,/D1*%
X71475000Y-107950000D03*
%TO.P,U2,13,D2*%
%TO.N,/D2*%
X71475000Y-110490000D03*
%TO.P,U2,14,GND*%
%TO.N,GND*%
X71475000Y-113030000D03*
%TO.P,U2,15,D3*%
%TO.N,/D3*%
X86715000Y-113030000D03*
%TO.P,U2,16,D4*%
%TO.N,/D4*%
X86715000Y-110490000D03*
%TO.P,U2,17,D5*%
%TO.N,/D5*%
X86715000Y-107950000D03*
%TO.P,U2,18,D6*%
%TO.N,/D6*%
X86715000Y-105410000D03*
%TO.P,U2,19,D7*%
%TO.N,/D7*%
X86715000Y-102870000D03*
%TO.P,U2,20,~{CS}*%
%TO.N,/~{ROMSEL}*%
X86715000Y-100330000D03*
%TO.P,U2,21,A10*%
%TO.N,/A10*%
X86715000Y-97790000D03*
%TO.P,U2,22,~{OE}*%
%TO.N,/~{OE}*%
X86715000Y-95250000D03*
%TO.P,U2,23,A11*%
%TO.N,/A11*%
X86715000Y-92710000D03*
%TO.P,U2,24,A9*%
%TO.N,/A9*%
X86715000Y-90170000D03*
%TO.P,U2,25,A8*%
%TO.N,/A8*%
X86715000Y-87630000D03*
%TO.P,U2,26,A13*%
%TO.N,/A13*%
X86715000Y-85090000D03*
%TO.P,U2,27,~{WE}*%
%TO.N,VCC*%
X86715000Y-82550000D03*
%TO.P,U2,28,VCC*%
X86715000Y-80010000D03*
%TD*%
D12*
%TO.P,R7,1*%
%TO.N,Net-(R7-Pad1)*%
X151079200Y-70776800D03*
%TO.P,R7,2*%
%TO.N,Net-(D2-Pad2)*%
X152729200Y-70776800D03*
%TD*%
D13*
%TO.P,D3,1,K*%
%TO.N,GND*%
X157800000Y-74713800D03*
%TO.P,D3,2,A*%
%TO.N,Net-(D3-Pad2)*%
X155000000Y-74713800D03*
%TD*%
D20*
%TO.P,C15,1*%
%TO.N,VCC*%
X156100000Y-129200000D03*
%TO.P,C15,2*%
%TO.N,GND*%
X156100000Y-125600000D03*
%TD*%
D17*
%TO.P,C10,1*%
%TO.N,VCC*%
X130500000Y-86875000D03*
%TO.P,C10,2*%
%TO.N,GND*%
X130500000Y-85325000D03*
%TD*%
D15*
%TO.P,J4,1,Pin_1*%
%TO.N,/CLK_ONBOARD*%
X67900000Y-46100000D03*
D16*
%TO.P,J4,2,Pin_2*%
%TO.N,/CLK*%
X67900000Y-48640000D03*
%TO.P,J4,3,Pin_3*%
%TO.N,/CLK_EXTERNAL*%
X67900000Y-51180000D03*
%TD*%
D15*
%TO.P,J3,1,Pin_1*%
%TO.N,GND*%
X156260800Y-44490800D03*
D16*
%TO.P,J3,2,Pin_2*%
%TO.N,/RxDB*%
X156260800Y-47030800D03*
%TO.P,J3,3,Pin_3*%
%TO.N,/TxDB*%
X156260800Y-49570800D03*
%TO.P,J3,4,Pin_4*%
%TO.N,VCC*%
X156260800Y-52110800D03*
%TD*%
D21*
%TO.P,U1,1*%
%TO.N,/R~{W}*%
X133690000Y-88550000D03*
%TO.P,U1,2*%
%TO.N,/~{DS}*%
X134960000Y-88550000D03*
%TO.P,U1,3*%
%TO.N,/~{RAM_WE}*%
X136230000Y-88550000D03*
%TO.P,U1,4*%
%TO.N,Net-(U1-Pad4)*%
X137500000Y-88550000D03*
%TO.P,U1,5*%
%TO.N,/~{DS}*%
X138770000Y-88550000D03*
%TO.P,U1,6*%
%TO.N,/~{OE}*%
X140040000Y-88550000D03*
%TO.P,U1,7,GND*%
%TO.N,GND*%
X141310000Y-88550000D03*
%TO.P,U1,8*%
%TO.N,unconnected-(U1-Pad8)*%
X141310000Y-83600000D03*
%TO.P,U1,9*%
%TO.N,GND*%
X140040000Y-83600000D03*
%TO.P,U1,10*%
X138770000Y-83600000D03*
%TO.P,U1,11*%
%TO.N,unconnected-(U1-Pad11)*%
X137500000Y-83600000D03*
%TO.P,U1,12*%
%TO.N,GND*%
X136230000Y-83600000D03*
%TO.P,U1,13*%
X134960000Y-83600000D03*
%TO.P,U1,14,VCC*%
%TO.N,VCC*%
X133690000Y-83600000D03*
%TD*%
D14*
%TO.P,C7,1*%
%TO.N,VCC*%
X117275800Y-70700000D03*
%TO.P,C7,2*%
%TO.N,GND*%
X118825800Y-70700000D03*
%TD*%
%TO.P,C8,1*%
%TO.N,VCC*%
X121881600Y-39166800D03*
%TO.P,C8,2*%
%TO.N,GND*%
X123431600Y-39166800D03*
%TD*%
D17*
%TO.P,C12,1*%
%TO.N,Net-(C12-Pad1)*%
X150079800Y-110983200D03*
%TO.P,C12,2*%
%TO.N,GND*%
X150079800Y-109433200D03*
%TD*%
D12*
%TO.P,R4,1*%
%TO.N,VCC*%
X104635800Y-52774600D03*
%TO.P,R4,2*%
%TO.N,/68681_Int*%
X106285800Y-52774600D03*
%TD*%
D22*
%TO.P,U8,1,~{MR}*%
%TO.N,Net-(C12-Pad1)*%
X151765800Y-100600000D03*
D23*
%TO.P,U8,2,Vcc*%
%TO.N,VCC*%
X154305800Y-100600000D03*
%TO.P,U8,3,GND*%
%TO.N,GND*%
X156845800Y-100600000D03*
%TO.P,U8,4,PFI*%
X159385800Y-100600000D03*
%TO.P,U8,5,~{PFO}*%
%TO.N,unconnected-(U8-Pad5)*%
X159385800Y-92980000D03*
%TO.P,U8,6,WDI*%
%TO.N,unconnected-(U8-Pad6)*%
X156845800Y-92980000D03*
%TO.P,U8,7,~{RESET}*%
%TO.N,/~{RESET}*%
X154305800Y-92980000D03*
%TO.P,U8,8,~{WDO}*%
%TO.N,unconnected-(U8-Pad8)*%
X151765800Y-92980000D03*
%TD*%
D21*
%TO.P,U4,1*%
%TO.N,/R~{W}*%
X133690000Y-79175000D03*
%TO.P,U4,2*%
%TO.N,Net-(U1-Pad4)*%
X134960000Y-79175000D03*
%TO.P,U4,3*%
%TO.N,/~{ROMSEL}*%
X136230000Y-79175000D03*
%TO.P,U4,4*%
%TO.N,Net-(R7-Pad1)*%
X137500000Y-79175000D03*
%TO.P,U4,5*%
%TO.N,/~{RAMSEL}*%
X138770000Y-79175000D03*
%TO.P,U4,6*%
%TO.N,Net-(R8-Pad1)*%
X140040000Y-79175000D03*
%TO.P,U4,7,GND*%
%TO.N,GND*%
X141310000Y-79175000D03*
%TO.P,U4,8*%
%TO.N,Net-(R9-Pad1)*%
X141310000Y-74225000D03*
%TO.P,U4,9*%
%TO.N,/~{UARTSEL}*%
X140040000Y-74225000D03*
%TO.P,U4,10*%
%TO.N,Net-(U4-Pad10)*%
X138770000Y-74225000D03*
%TO.P,U4,11*%
%TO.N,/~{I2CSEL}*%
X137500000Y-74225000D03*
%TO.P,U4,12*%
%TO.N,Net-(U4-Pad12)*%
X136230000Y-74225000D03*
%TO.P,U4,13*%
%TO.N,/~{USERSEL}*%
X134960000Y-74225000D03*
%TO.P,U4,14,VCC*%
%TO.N,VCC*%
X133690000Y-74225000D03*
%TD*%
D24*
%TO.P,X1,1,EN*%
%TO.N,unconnected-(X1-Pad1)*%
X95590000Y-83410000D03*
D25*
%TO.P,X1,4,GND*%
%TO.N,GND*%
X103210000Y-83410000D03*
%TO.P,X1,5,OUT*%
%TO.N,/CLK_ONBOARD*%
X103210000Y-75790000D03*
%TO.P,X1,8,Vcc*%
%TO.N,VCC*%
X95590000Y-75790000D03*
%TD*%
D24*
%TO.P,X2,1,EN*%
%TO.N,unconnected-(X2-Pad1)*%
X140030200Y-44393200D03*
D25*
%TO.P,X2,7,GND*%
%TO.N,GND*%
X140030200Y-59633200D03*
%TO.P,X2,8,OUT*%
%TO.N,/UART_CLK*%
X147650200Y-59633200D03*
%TO.P,X2,14,Vcc*%
%TO.N,VCC*%
X147650200Y-44393200D03*
%TD*%
D12*
%TO.P,R13,1*%
%TO.N,VCC*%
X104635800Y-67254600D03*
%TO.P,R13,2*%
%TO.N,/~{BGACK}*%
X106285800Y-67254600D03*
%TD*%
D26*
%TO.P,U7,32,VCC*%
%TO.N,VCC*%
X124550000Y-73975000D03*
%TO.P,U7,31,A15*%
%TO.N,/A15*%
X124550000Y-75245000D03*
%TO.P,U7,30,A17*%
%TO.N,/A17*%
X124550000Y-76515000D03*
%TO.P,U7,29,WE#*%
%TO.N,/~{RAM_WE}*%
X124550000Y-77785000D03*
%TO.P,U7,28,A13*%
%TO.N,/A13*%
X124550000Y-79055000D03*
%TO.P,U7,27,A8*%
%TO.N,/A8*%
X124550000Y-80325000D03*
%TO.P,U7,26,A9*%
%TO.N,/A9*%
X124550000Y-81595000D03*
%TO.P,U7,25,A11*%
%TO.N,/A11*%
X124550000Y-82865000D03*
%TO.P,U7,24,OE#*%
%TO.N,/~{OE}*%
X124550000Y-84135000D03*
%TO.P,U7,23,A10*%
%TO.N,/A10*%
X124550000Y-85405000D03*
%TO.P,U7,22,CE#*%
%TO.N,/~{RAMSEL}*%
X124550000Y-86675000D03*
%TO.P,U7,21,DQ7*%
%TO.N,/D7*%
X124550000Y-87945000D03*
%TO.P,U7,20,DQ6*%
%TO.N,/D6*%
X124550000Y-89215000D03*
%TO.P,U7,19,DQ5*%
%TO.N,/D5*%
X124550000Y-90485000D03*
%TO.P,U7,18,DQ4*%
%TO.N,/D4*%
X124550000Y-91755000D03*
%TO.P,U7,17,DQ3*%
%TO.N,/D3*%
X124550000Y-93025000D03*
%TO.P,U7,16,VSS*%
%TO.N,GND*%
X111450000Y-93025000D03*
%TO.P,U7,15,DQ2*%
%TO.N,/D2*%
X111450000Y-91755000D03*
%TO.P,U7,14,DQ1*%
%TO.N,/D1*%
X111450000Y-90485000D03*
%TO.P,U7,13,DQ0*%
%TO.N,/D0*%
X111450000Y-89215000D03*
%TO.P,U7,12,A0*%
%TO.N,/A0*%
X111450000Y-87945000D03*
%TO.P,U7,11,A1*%
%TO.N,/A1*%
X111450000Y-86675000D03*
%TO.P,U7,10,A2*%
%TO.N,/A2*%
X111450000Y-85405000D03*
%TO.P,U7,9,A3*%
%TO.N,/A3*%
X111450000Y-84135000D03*
%TO.P,U7,8,A4*%
%TO.N,/A4*%
X111450000Y-82865000D03*
%TO.P,U7,7,A5*%
%TO.N,/A5*%
X111450000Y-81595000D03*
%TO.P,U7,6,A6*%
%TO.N,/A6*%
X111450000Y-80325000D03*
%TO.P,U7,5,A7*%
%TO.N,/A7*%
X111450000Y-79055000D03*
%TO.P,U7,4,A12*%
%TO.N,/A12*%
X111450000Y-77785000D03*
%TO.P,U7,3,A14*%
%TO.N,/A14*%
X111450000Y-76515000D03*
%TO.P,U7,2,A16*%
%TO.N,/A16*%
X111450000Y-75245000D03*
%TO.P,U7,1,A18*%
%TO.N,/A18*%
X111450000Y-73975000D03*
%TD*%
D12*
%TO.P,R8,1*%
%TO.N,Net-(R8-Pad1)*%
X151079200Y-74688400D03*
%TO.P,R8,2*%
%TO.N,Net-(D3-Pad2)*%
X152729200Y-74688400D03*
%TD*%
D18*
%TO.P,U5,1,NC*%
%TO.N,unconnected-(U5-Pad1)*%
X123901200Y-47244000D03*
D19*
%TO.P,U5,2,A1*%
%TO.N,/A0*%
X121361200Y-44704000D03*
%TO.P,U5,3,IP3*%
%TO.N,/IP3*%
X121361200Y-47244000D03*
%TO.P,U5,4,A2*%
%TO.N,/A1*%
X118821200Y-44704000D03*
%TO.P,U5,5,IP1*%
%TO.N,/IP1*%
X118821200Y-47244000D03*
%TO.P,U5,6,A3*%
%TO.N,/A2*%
X116281200Y-44704000D03*
%TO.P,U5,7,A4*%
%TO.N,/A3*%
X113741200Y-47244000D03*
%TO.P,U5,8,IP0*%
%TO.N,/IP0*%
X116281200Y-47244000D03*
%TO.P,U5,9,R/~{W}*%
%TO.N,/R~{W}*%
X113741200Y-49784000D03*
%TO.P,U5,10,~{DTACK}*%
%TO.N,/~{DTACK_UART}*%
X116281200Y-49784000D03*
%TO.P,U5,11,RxDB*%
%TO.N,/RxDB*%
X113741200Y-52324000D03*
%TO.P,U5,12,NC*%
%TO.N,unconnected-(U5-Pad12)*%
X116281200Y-52324000D03*
%TO.P,U5,13,TxDB*%
%TO.N,/TxDB*%
X113741200Y-54864000D03*
%TO.P,U5,14,OP1*%
%TO.N,/OP1*%
X116281200Y-54864000D03*
%TO.P,U5,15,OP3*%
%TO.N,/OP3*%
X113741200Y-57404000D03*
%TO.P,U5,16,OP5*%
%TO.N,/OP5*%
X116281200Y-57404000D03*
%TO.P,U5,17,OP7*%
%TO.N,/OP7*%
X113741200Y-59944000D03*
%TO.P,U5,18,D1*%
%TO.N,/D1*%
X116281200Y-62484000D03*
%TO.P,U5,19,D3*%
%TO.N,/D3*%
X116281200Y-59944000D03*
%TO.P,U5,20,D5*%
%TO.N,/D5*%
X118821200Y-62484000D03*
%TO.P,U5,21,D7*%
%TO.N,/D7*%
X118821200Y-59944000D03*
%TO.P,U5,22,GND*%
%TO.N,GND*%
X121361200Y-62484000D03*
%TO.P,U5,23,NC*%
%TO.N,unconnected-(U5-Pad23)*%
X121361200Y-59944000D03*
%TO.P,U5,24,~{INTRN}*%
%TO.N,/68681_Int*%
X123901200Y-62484000D03*
%TO.P,U5,25,D6*%
%TO.N,/D6*%
X123901200Y-59944000D03*
%TO.P,U5,26,D4*%
%TO.N,/D4*%
X126441200Y-62484000D03*
%TO.P,U5,27,D2*%
%TO.N,/D2*%
X126441200Y-59944000D03*
%TO.P,U5,28,D0*%
%TO.N,/D0*%
X128981200Y-62484000D03*
%TO.P,U5,29,OP6*%
%TO.N,/OP6*%
X131521200Y-59944000D03*
%TO.P,U5,30,OP4*%
%TO.N,/OP4*%
X128981200Y-59944000D03*
%TO.P,U5,31,OP2*%
%TO.N,/OP2*%
X131521200Y-57404000D03*
%TO.P,U5,32,OP0*%
%TO.N,/OP0*%
X128981200Y-57404000D03*
%TO.P,U5,33,TxDA*%
%TO.N,/TxDA*%
X131521200Y-54864000D03*
%TO.P,U5,34,NC*%
%TO.N,unconnected-(U5-Pad34)*%
X128981200Y-54864000D03*
%TO.P,U5,35,RxDA*%
%TO.N,/RxDA*%
X131521200Y-52324000D03*
%TO.P,U5,36,X1/CLK*%
%TO.N,/UART_CLK*%
X128981200Y-52324000D03*
%TO.P,U5,37,X2*%
%TO.N,unconnected-(U5-Pad37)*%
X131521200Y-49784000D03*
%TO.P,U5,38,~{RESET}*%
%TO.N,/~{RESET}*%
X128981200Y-49784000D03*
%TO.P,U5,39,~{CS}*%
%TO.N,/~{UARTSEL}*%
X131521200Y-47244000D03*
%TO.P,U5,40,IP2*%
%TO.N,/IP2*%
X128981200Y-44704000D03*
%TO.P,U5,41,~{IACK}*%
%TO.N,unconnected-(U5-Pad41)*%
X128981200Y-47244000D03*
%TO.P,U5,42,IP5*%
%TO.N,/IP5*%
X126441200Y-44704000D03*
%TO.P,U5,43,IP4*%
%TO.N,/IP4*%
X126441200Y-47244000D03*
%TO.P,U5,44,Vcc*%
%TO.N,VCC*%
X123901200Y-44704000D03*
%TD*%
D17*
%TO.P,C4,1*%
%TO.N,VCC*%
X147869600Y-97524200D03*
%TO.P,C4,2*%
%TO.N,GND*%
X147869600Y-95974200D03*
%TD*%
D13*
%TO.P,D2,1,K*%
%TO.N,GND*%
X157800000Y-70776800D03*
%TO.P,D2,2,A*%
%TO.N,Net-(D2-Pad2)*%
X155000000Y-70776800D03*
%TD*%
D27*
%TO.P,R9,1*%
%TO.N,Net-(R9-Pad1)*%
X152729200Y-78549200D03*
%TO.P,R9,2*%
%TO.N,Net-(D4-Pad2)*%
X151079200Y-78549200D03*
%TD*%
D14*
%TO.P,C2,1*%
%TO.N,VCC*%
X87413800Y-38938200D03*
%TO.P,C2,2*%
%TO.N,GND*%
X88963800Y-38938200D03*
%TD*%
D12*
%TO.P,R3,1*%
%TO.N,VCC*%
X104635800Y-49154600D03*
%TO.P,R3,2*%
%TO.N,/~{IPL1}*%
X106285800Y-49154600D03*
%TD*%
D15*
%TO.P,J1,1,Pin_1*%
%TO.N,/A0*%
X71501000Y-128955800D03*
D16*
%TO.P,J1,2,Pin_2*%
%TO.N,/A1*%
X71501000Y-126415800D03*
%TO.P,J1,3,Pin_3*%
%TO.N,/A2*%
X74041000Y-128955800D03*
%TO.P,J1,4,Pin_4*%
%TO.N,/A3*%
X74041000Y-126415800D03*
%TO.P,J1,5,Pin_5*%
%TO.N,/A4*%
X76581000Y-128955800D03*
%TO.P,J1,6,Pin_6*%
%TO.N,/A5*%
X76581000Y-126415800D03*
%TO.P,J1,7,Pin_7*%
%TO.N,/A6*%
X79121000Y-128955800D03*
%TO.P,J1,8,Pin_8*%
%TO.N,/A7*%
X79121000Y-126415800D03*
%TO.P,J1,9,Pin_9*%
%TO.N,/A8*%
X81661000Y-128955800D03*
%TO.P,J1,10,Pin_10*%
%TO.N,/A9*%
X81661000Y-126415800D03*
%TO.P,J1,11,Pin_11*%
%TO.N,/A10*%
X84201000Y-128955800D03*
%TO.P,J1,12,Pin_12*%
%TO.N,/A11*%
X84201000Y-126415800D03*
%TO.P,J1,13,Pin_13*%
%TO.N,/A12*%
X86741000Y-128955800D03*
%TO.P,J1,14,Pin_14*%
%TO.N,/A13*%
X86741000Y-126415800D03*
%TO.P,J1,15,Pin_15*%
%TO.N,/A14*%
X89281000Y-128955800D03*
%TO.P,J1,16,Pin_16*%
%TO.N,/A15*%
X89281000Y-126415800D03*
%TO.P,J1,17,Pin_17*%
%TO.N,/A16*%
X91821000Y-128955800D03*
%TO.P,J1,18,Pin_18*%
%TO.N,/A17*%
X91821000Y-126415800D03*
%TO.P,J1,19,Pin_19*%
%TO.N,/A18*%
X94361000Y-128955800D03*
%TO.P,J1,20,Pin_20*%
%TO.N,/A19*%
X94361000Y-126415800D03*
%TO.P,J1,21,Pin_21*%
%TO.N,/A20*%
X96901000Y-128955800D03*
%TO.P,J1,22,Pin_22*%
%TO.N,/A21*%
X96901000Y-126415800D03*
%TO.P,J1,23,Pin_23*%
%TO.N,/D0*%
X99441000Y-128955800D03*
%TO.P,J1,24,Pin_24*%
%TO.N,/D1*%
X99441000Y-126415800D03*
%TO.P,J1,25,Pin_25*%
%TO.N,/D2*%
X101981000Y-128955800D03*
%TO.P,J1,26,Pin_26*%
%TO.N,/D3*%
X101981000Y-126415800D03*
%TO.P,J1,27,Pin_27*%
%TO.N,/D4*%
X104521000Y-128955800D03*
%TO.P,J1,28,Pin_28*%
%TO.N,/D5*%
X104521000Y-126415800D03*
%TO.P,J1,29,Pin_29*%
%TO.N,/D6*%
X107061000Y-128955800D03*
%TO.P,J1,30,Pin_30*%
%TO.N,/D7*%
X107061000Y-126415800D03*
%TO.P,J1,31,Pin_31*%
%TO.N,/CLK*%
X109601000Y-128955800D03*
%TO.P,J1,32,Pin_32*%
%TO.N,/CLK_EXTERNAL*%
X109601000Y-126415800D03*
%TO.P,J1,33,Pin_33*%
%TO.N,/R~{W}*%
X112141000Y-128955800D03*
%TO.P,J1,34,Pin_34*%
%TO.N,/~{AS}*%
X112141000Y-126415800D03*
%TO.P,J1,35,Pin_35*%
%TO.N,/~{DS}*%
X114681000Y-128955800D03*
%TO.P,J1,36,Pin_36*%
%TO.N,/~{RAMSEL}*%
X114681000Y-126415800D03*
%TO.P,J1,37,Pin_37*%
%TO.N,/~{ROMSEL}*%
X117221000Y-128955800D03*
%TO.P,J1,38,Pin_38*%
%TO.N,/~{BERR}*%
X117221000Y-126415800D03*
%TO.P,J1,39,Pin_39*%
%TO.N,/68681_Int*%
X119761000Y-128955800D03*
%TO.P,J1,40,Pin_40*%
%TO.N,/~{DTACK_CPU}*%
X119761000Y-126415800D03*
%TO.P,J1,41,Pin_41*%
%TO.N,/E*%
X122301000Y-128955800D03*
%TO.P,J1,42,Pin_42*%
%TO.N,/FC0*%
X122301000Y-126415800D03*
%TO.P,J1,43,Pin_43*%
%TO.N,/FC1*%
X124841000Y-128955800D03*
%TO.P,J1,44,Pin_44*%
%TO.N,/FC2*%
X124841000Y-126415800D03*
%TO.P,J1,45,Pin_45*%
%TO.N,/~{RESET}*%
X127381000Y-128955800D03*
%TO.P,J1,46,Pin_46*%
%TO.N,/~{HALT}*%
X127381000Y-126415800D03*
%TO.P,J1,47,Pin_47*%
%TO.N,/~{BR}*%
X129921000Y-128955800D03*
%TO.P,J1,48,Pin_48*%
%TO.N,/~{BGACK}*%
X129921000Y-126415800D03*
%TO.P,J1,49,Pin_49*%
%TO.N,/~{BG}*%
X132461000Y-128955800D03*
%TO.P,J1,50,Pin_50*%
%TO.N,/~{IPL0}*%
X132461000Y-126415800D03*
%TO.P,J1,51,Pin_51*%
%TO.N,/~{IPL1}*%
X135001000Y-128955800D03*
%TO.P,J1,52,Pin_52*%
%TO.N,/68681_Int*%
X135001000Y-126415800D03*
%TO.P,J1,53,Pin_53*%
%TO.N,/~{UARTSEL}*%
X137541000Y-128955800D03*
%TO.P,J1,54,Pin_54*%
%TO.N,/~{I2CSEL}*%
X137541000Y-126415800D03*
%TO.P,J1,55,Pin_55*%
%TO.N,/~{USERSEL}*%
X140081000Y-128955800D03*
%TO.P,J1,56,Pin_56*%
%TO.N,/~{DTACK_USER}*%
X140081000Y-126415800D03*
%TO.P,J1,57,Pin_57*%
%TO.N,unconnected-(J1-Pad57)*%
X142621000Y-128955800D03*
%TO.P,J1,58,Pin_58*%
%TO.N,unconnected-(J1-Pad58)*%
X142621000Y-126415800D03*
%TO.P,J1,59,Pin_59*%
%TO.N,unconnected-(J1-Pad59)*%
X145161000Y-128955800D03*
%TO.P,J1,60,Pin_60*%
%TO.N,unconnected-(J1-Pad60)*%
X145161000Y-126415800D03*
%TO.P,J1,61,Pin_61*%
%TO.N,unconnected-(J1-Pad61)*%
X147701000Y-128955800D03*
%TO.P,J1,62,Pin_62*%
%TO.N,unconnected-(J1-Pad62)*%
X147701000Y-126415800D03*
%TO.P,J1,63,Pin_63*%
%TO.N,VCC*%
X150241000Y-128955800D03*
%TO.P,J1,64,Pin_64*%
%TO.N,GND*%
X150241000Y-126415800D03*
%TD*%
D12*
%TO.P,R12,1*%
%TO.N,VCC*%
X104635800Y-63634600D03*
%TO.P,R12,2*%
%TO.N,/~{BR}*%
X106285800Y-63634600D03*
%TD*%
D28*
%TO.P,SW1,1,1*%
%TO.N,GND*%
X152950000Y-108049200D03*
X159450000Y-108049200D03*
%TO.P,SW1,2,2*%
%TO.N,Net-(C12-Pad1)*%
X152950000Y-112549200D03*
X159450000Y-112549200D03*
%TD*%
D13*
%TO.P,D4,1,K*%
%TO.N,GND*%
X157800000Y-78600000D03*
%TO.P,D4,2,A*%
%TO.N,Net-(D4-Pad2)*%
X155000000Y-78600000D03*
%TD*%
D29*
%TO.N,/~{BGACK}*%
X109537600Y-65086100D03*
%TO.N,/~{BERR}*%
X103847400Y-60871100D03*
X107382500Y-60249500D03*
%TO.N,/~{DTACK_UART}*%
X118338700Y-86999700D03*
%TO.N,/~{UARTSEL}*%
X140209500Y-72628400D03*
%TO.N,/~{ROMSEL}*%
X115594900Y-103209800D03*
X128615500Y-90695500D03*
X135886500Y-77412300D03*
%TO.N,/~{RAMSEL}*%
X139936500Y-90155400D03*
X140001900Y-80793700D03*
%TO.N,/68681_Int*%
X118164300Y-49497400D03*
%TO.N,/~{USERSEL}*%
X135563000Y-75891200D03*
%TO.N,/~{I2CSEL}*%
X137541000Y-76677500D03*
%TO.N,/~{IPL1}*%
X105887200Y-50750200D03*
%TO.N,/~{BG}*%
X107507300Y-107975600D03*
%TO.N,/~{HALT}*%
X108428500Y-56410900D03*
%TO.N,/~{DS}*%
X146244300Y-127981800D03*
%TO.N,/R~{W}*%
X112265800Y-65133400D03*
X114648500Y-77292400D03*
%TO.N,/CLK*%
X100747300Y-93047100D03*
%TO.N,/D7*%
X122046000Y-87325700D03*
%TO.N,/D6*%
X126019100Y-88582200D03*
%TO.N,/D5*%
X120483900Y-87495400D03*
%TO.N,/D4*%
X126346000Y-91123900D03*
%TO.N,/D3*%
X121012600Y-91033700D03*
%TO.N,/D2*%
X89652200Y-117341100D03*
X91455800Y-96784900D03*
X126228100Y-86049000D03*
%TO.N,/D1*%
X91207400Y-94654800D03*
%TO.N,/D0*%
X92098400Y-94093100D03*
X89942900Y-118491300D03*
X92178800Y-69195500D03*
%TO.N,/A21*%
X95548900Y-123725700D03*
%TO.N,/A20*%
X94901500Y-67455700D03*
%TO.N,/A19*%
X93273000Y-75265100D03*
%TO.N,/A18*%
X81557400Y-114374700D03*
%TO.N,/A17*%
X82648600Y-79065500D03*
%TO.N,/A13*%
X81465000Y-53098600D03*
X85801000Y-117620500D03*
%TO.N,/A11*%
X81191500Y-92851900D03*
X81443400Y-117539400D03*
%TO.N,/A10*%
X84470300Y-116506700D03*
%TO.N,/A9*%
X77415200Y-90196400D03*
%TO.N,/A8*%
X77971000Y-88688400D03*
X69214400Y-86769600D03*
%TO.N,/A3*%
X113062300Y-84634800D03*
%TO.N,/A2*%
X114559100Y-84287300D03*
%TO.N,/A1*%
X106356900Y-85437900D03*
%TO.N,GND*%
X88794400Y-119094600D03*
X107855200Y-94116700D03*
X103210000Y-89109300D03*
X104218200Y-73095900D03*
%TO.N,VCC*%
X101423200Y-89727700D03*
X101620000Y-56702800D03*
X94649400Y-80584100D03*
X101131800Y-71979700D03*
X104068300Y-65444600D03*
%TD*%
D30*
%TO.N,/UART_CLK*%
X141611000Y-53594000D02*
X147650200Y-59633200D01*
X130251200Y-53594000D02*
X141611000Y-53594000D01*
X128981200Y-52324000D02*
X130251200Y-53594000D01*
%TO.N,/~{BR}*%
X105381400Y-62730200D02*
X106285800Y-63634600D01*
X104203300Y-62730200D02*
X105381400Y-62730200D01*
X102407700Y-60934600D02*
X104203300Y-62730200D01*
X97053400Y-60934600D02*
X102407700Y-60934600D01*
X95783400Y-59664600D02*
X97053400Y-60934600D01*
%TO.N,/~{BGACK}*%
X109537600Y-65086100D02*
X108147000Y-65086100D01*
X108147000Y-65393400D02*
X108147000Y-65086100D01*
X106285800Y-67254600D02*
X108147000Y-65393400D01*
X102451000Y-59664600D02*
X98323400Y-59664600D01*
X103352500Y-58763100D02*
X102451000Y-59664600D01*
X106921900Y-58763100D02*
X103352500Y-58763100D01*
X108147000Y-59988200D02*
X106921900Y-58763100D01*
X108147000Y-65086100D02*
X108147000Y-59988200D01*
%TO.N,Net-(R9-Pad1)*%
X146436400Y-79351400D02*
X141310000Y-74225000D01*
X151927000Y-79351400D02*
X146436400Y-79351400D01*
X152729200Y-78549200D02*
X151927000Y-79351400D01*
%TO.N,Net-(R8-Pad1)*%
X140040000Y-78745500D02*
X140040000Y-79175000D01*
X140925700Y-77859800D02*
X140040000Y-78745500D01*
X142383000Y-77859800D02*
X140925700Y-77859800D01*
X147937300Y-83414100D02*
X142383000Y-77859800D01*
X151534900Y-83414100D02*
X147937300Y-83414100D01*
X151900000Y-83049000D02*
X151534900Y-83414100D01*
X151900000Y-82196300D02*
X151900000Y-83049000D01*
X152622200Y-81474100D02*
X151900000Y-82196300D01*
X153951500Y-81474100D02*
X152622200Y-81474100D01*
X156000700Y-79424900D02*
X153951500Y-81474100D01*
X156000700Y-77767200D02*
X156000700Y-79424900D01*
X154148700Y-75915200D02*
X156000700Y-77767200D01*
X152306000Y-75915200D02*
X154148700Y-75915200D01*
X151079200Y-74688400D02*
X152306000Y-75915200D01*
%TO.N,Net-(R7-Pad1)*%
X140556200Y-70776800D02*
X151079200Y-70776800D01*
X138135000Y-73198000D02*
X140556200Y-70776800D01*
X138135000Y-76233700D02*
X138135000Y-73198000D01*
X138287200Y-76385900D02*
X138135000Y-76233700D01*
X138287200Y-77797100D02*
X138287200Y-76385900D01*
X137500000Y-78584300D02*
X138287200Y-77797100D01*
X137500000Y-79175000D02*
X137500000Y-78584300D01*
%TO.N,/~{BERR}*%
X105484600Y-59213400D02*
X106285800Y-60014600D01*
X104177300Y-59213400D02*
X105484600Y-59213400D01*
X103847400Y-59543300D02*
X104177300Y-59213400D01*
X103847400Y-60871100D02*
X103847400Y-59543300D01*
X106520700Y-60249500D02*
X107382500Y-60249500D01*
X106285800Y-60014600D02*
X106520700Y-60249500D01*
%TO.N,/~{DTACK_UART}*%
X118338700Y-87903200D02*
X118338700Y-86999700D01*
X106816900Y-99425000D02*
X118338700Y-87903200D01*
X99620500Y-99425000D02*
X106816900Y-99425000D01*
X97080500Y-101965000D02*
X99620500Y-99425000D01*
X94972800Y-101965000D02*
X97080500Y-101965000D01*
X94125300Y-102812500D02*
X94972800Y-101965000D01*
X94125300Y-104200300D02*
X94125300Y-102812500D01*
X95700000Y-105775000D02*
X94125300Y-104200300D01*
%TO.N,/RxDB*%
X153720900Y-48395400D02*
X155085500Y-47030800D01*
X126842400Y-48395400D02*
X153720900Y-48395400D01*
X124183800Y-51054000D02*
X126842400Y-48395400D01*
X115011200Y-51054000D02*
X124183800Y-51054000D01*
X113741200Y-52324000D02*
X115011200Y-51054000D01*
X156260800Y-47030800D02*
X155085500Y-47030800D01*
%TO.N,/TxDB*%
X156260800Y-49570800D02*
X155085500Y-49570800D01*
X153720900Y-50935400D02*
X155085500Y-49570800D01*
X127479200Y-50935400D02*
X153720900Y-50935400D01*
X124595400Y-53819200D02*
X127479200Y-50935400D01*
X114786000Y-53819200D02*
X124595400Y-53819200D01*
X113741200Y-54864000D02*
X114786000Y-53819200D01*
%TO.N,/~{UARTSEL}*%
X140209500Y-74055500D02*
X140040000Y-74225000D01*
X140209500Y-72628400D02*
X140209500Y-74055500D01*
X137541000Y-128955800D02*
X136365700Y-128955800D01*
X136365700Y-129323100D02*
X136365700Y-128955800D01*
X135098500Y-130590300D02*
X136365700Y-129323100D01*
X119704600Y-130590300D02*
X135098500Y-130590300D01*
X118491000Y-129376700D02*
X119704600Y-130590300D01*
X118491000Y-123486000D02*
X118491000Y-129376700D01*
X103320000Y-108315000D02*
X118491000Y-123486000D01*
%TO.N,/~{ROMSEL}*%
X136230000Y-77755800D02*
X136230000Y-79175000D01*
X135886500Y-77412300D02*
X136230000Y-77755800D01*
X116101200Y-103209800D02*
X115594900Y-103209800D01*
X128615500Y-90695500D02*
X116101200Y-103209800D01*
X94955300Y-107045000D02*
X88240300Y-100330000D01*
X96493300Y-107045000D02*
X94955300Y-107045000D01*
X101794700Y-112346400D02*
X96493300Y-107045000D01*
X101794700Y-113395000D02*
X101794700Y-112346400D01*
X103320000Y-113395000D02*
X101794700Y-113395000D01*
X86715000Y-100330000D02*
X88240300Y-100330000D01*
%TO.N,/~{RAMSEL}*%
X103320000Y-110855000D02*
X101794700Y-110855000D01*
X138770000Y-79561800D02*
X140001900Y-80793700D01*
X138770000Y-79175000D02*
X138770000Y-79561800D01*
X114681000Y-120690700D02*
X104845300Y-110855000D01*
X114681000Y-125240500D02*
X114681000Y-120690700D01*
X114681000Y-126415800D02*
X114681000Y-125240500D01*
X103320000Y-110855000D02*
X104845300Y-110855000D01*
X101313400Y-110373700D02*
X101794700Y-110855000D01*
X101313400Y-103017800D02*
X101313400Y-110373700D01*
X102366200Y-101965000D02*
X101313400Y-103017800D01*
X104988600Y-101965000D02*
X102366200Y-101965000D01*
X120353200Y-86600400D02*
X104988600Y-101965000D01*
X124475400Y-86600400D02*
X120353200Y-86600400D01*
X124550000Y-86675000D02*
X124475400Y-86600400D01*
X125673500Y-86675000D02*
X124550000Y-86675000D01*
X128060100Y-89061600D02*
X125673500Y-86675000D01*
X128697000Y-89061600D02*
X128060100Y-89061600D01*
X130873900Y-91238500D02*
X128697000Y-89061600D01*
X138853400Y-91238500D02*
X130873900Y-91238500D01*
X139936500Y-90155400D02*
X138853400Y-91238500D01*
%TO.N,/TxDA*%
X140698100Y-54864000D02*
X131521200Y-54864000D01*
X148419700Y-62585600D02*
X140698100Y-54864000D01*
X156260800Y-62585600D02*
X148419700Y-62585600D01*
%TO.N,/68681_Int*%
X117404200Y-48737300D02*
X107028700Y-48737300D01*
X118164300Y-49497400D02*
X117404200Y-48737300D01*
X107028700Y-52031700D02*
X107028700Y-48737300D01*
X106285800Y-52774600D02*
X107028700Y-52031700D01*
X120936300Y-129262100D02*
X120936300Y-128955800D01*
X121814200Y-130140000D02*
X120936300Y-129262100D01*
X132969800Y-130140000D02*
X121814200Y-130140000D01*
X133825700Y-129284100D02*
X132969800Y-130140000D01*
X133825700Y-128399000D02*
X133825700Y-129284100D01*
X134633600Y-127591100D02*
X133825700Y-128399000D01*
X135001000Y-127591100D02*
X134633600Y-127591100D01*
X135001000Y-126415800D02*
X135001000Y-127591100D01*
X119761000Y-128955800D02*
X120936300Y-128955800D01*
X107028700Y-46277500D02*
X106285800Y-45534600D01*
X107028700Y-48737300D02*
X107028700Y-46277500D01*
X97629100Y-46964600D02*
X98323400Y-46964600D01*
X96127800Y-48465900D02*
X97629100Y-46964600D01*
X95304800Y-48465900D02*
X96127800Y-48465900D01*
X94728300Y-49042400D02*
X95304800Y-48465900D01*
X94728300Y-50989500D02*
X94728300Y-49042400D01*
X95783400Y-52044600D02*
X94728300Y-50989500D01*
X106285800Y-45284600D02*
X106285800Y-45534600D01*
X105278600Y-44277400D02*
X106285800Y-45284600D01*
X104002200Y-44277400D02*
X105278600Y-44277400D01*
X101315000Y-46964600D02*
X104002200Y-44277400D01*
X98323400Y-46964600D02*
X101315000Y-46964600D01*
%TO.N,Net-(D4-Pad2)*%
X151881300Y-77747100D02*
X151079200Y-78549200D01*
X154147100Y-77747100D02*
X151881300Y-77747100D01*
X155000000Y-78600000D02*
X154147100Y-77747100D01*
%TO.N,Net-(D3-Pad2)*%
X154974600Y-74688400D02*
X155000000Y-74713800D01*
X152729200Y-74688400D02*
X154974600Y-74688400D01*
%TO.N,Net-(D2-Pad2)*%
X155000000Y-70776800D02*
X152729200Y-70776800D01*
%TO.N,Net-(D1-Pad2)*%
X155000000Y-82600000D02*
X152725000Y-82600000D01*
%TO.N,/CLK_ONBOARD*%
X67900000Y-46100000D02*
X67900000Y-47275300D01*
X67532600Y-47275300D02*
X67900000Y-47275300D01*
X66724700Y-48083200D02*
X67532600Y-47275300D01*
X66724700Y-54355600D02*
X66724700Y-48083200D01*
X90651700Y-78282600D02*
X66724700Y-54355600D01*
X96983800Y-78282600D02*
X90651700Y-78282600D01*
X99476400Y-75790000D02*
X96983800Y-78282600D01*
X103210000Y-75790000D02*
X99476400Y-75790000D01*
%TO.N,/~{DTACK_CPU}*%
X101794700Y-106250000D02*
X101794700Y-103235000D01*
X102589700Y-107045000D02*
X101794700Y-106250000D01*
X104047500Y-107045000D02*
X102589700Y-107045000D01*
X119761000Y-122758500D02*
X104047500Y-107045000D01*
X119761000Y-126415800D02*
X119761000Y-122758500D01*
X103320000Y-103235000D02*
X101794700Y-103235000D01*
%TO.N,Net-(U4-Pad12)*%
X146465500Y-86550000D02*
X151075000Y-86550000D01*
X141758900Y-81843400D02*
X146465500Y-86550000D01*
X138519200Y-81843400D02*
X141758900Y-81843400D01*
X136856000Y-80180200D02*
X138519200Y-81843400D01*
X136856000Y-78099300D02*
X136856000Y-80180200D01*
X136680400Y-77923700D02*
X136856000Y-78099300D01*
X136680400Y-74675400D02*
X136680400Y-77923700D01*
X136230000Y-74225000D02*
X136680400Y-74675400D01*
%TO.N,Net-(U4-Pad10)*%
X138770000Y-74603100D02*
X138770000Y-74225000D01*
X140463000Y-76296100D02*
X138770000Y-74603100D01*
X141675600Y-76296100D02*
X140463000Y-76296100D01*
X147979500Y-82600000D02*
X141675600Y-76296100D01*
X151075000Y-82600000D02*
X147979500Y-82600000D01*
%TO.N,Net-(U1-Pad4)*%
X137500000Y-87355100D02*
X137500000Y-88550000D01*
X136864900Y-86720000D02*
X137500000Y-87355100D01*
X136864900Y-81487900D02*
X136864900Y-86720000D01*
X134960000Y-79583000D02*
X136864900Y-81487900D01*
X134960000Y-79175000D02*
X134960000Y-79583000D01*
%TO.N,Net-(C12-Pad1)*%
X159450000Y-112549200D02*
X152950000Y-112549200D01*
X151645800Y-112549200D02*
X150079800Y-110983200D01*
X152950000Y-112549200D02*
X151645800Y-112549200D01*
X149254200Y-104636900D02*
X151765800Y-102125300D01*
X149254200Y-110157600D02*
X149254200Y-104636900D01*
X150079800Y-110983200D02*
X149254200Y-110157600D01*
X151765800Y-100600000D02*
X151765800Y-102125300D01*
%TO.N,/~{RAM_WE}*%
X136230000Y-88077500D02*
X136230000Y-88550000D01*
X135400500Y-87248000D02*
X136230000Y-88077500D01*
X133227300Y-87248000D02*
X135400500Y-87248000D01*
X132330000Y-88145300D02*
X133227300Y-87248000D01*
X129827900Y-88145300D02*
X132330000Y-88145300D01*
X128937300Y-87254700D02*
X129827900Y-88145300D01*
X128937300Y-81102400D02*
X128937300Y-87254700D01*
X125619900Y-77785000D02*
X128937300Y-81102400D01*
X124550000Y-77785000D02*
X125619900Y-77785000D01*
%TO.N,/~{OE}*%
X86715000Y-95250000D02*
X88240300Y-95250000D01*
X140040000Y-89026100D02*
X140040000Y-88550000D01*
X138278000Y-90788100D02*
X140040000Y-89026100D01*
X131196900Y-90788100D02*
X138278000Y-90788100D01*
X127999600Y-87590800D02*
X131196900Y-90788100D01*
X127999600Y-86794400D02*
X127999600Y-87590800D01*
X125340200Y-84135000D02*
X127999600Y-86794400D01*
X124550000Y-84135000D02*
X125340200Y-84135000D01*
X93037300Y-90453000D02*
X88240300Y-95250000D01*
X103434300Y-90453000D02*
X93037300Y-90453000D01*
X106577300Y-87310000D02*
X103434300Y-90453000D01*
X113877500Y-87310000D02*
X106577300Y-87310000D01*
X117052500Y-84135000D02*
X113877500Y-87310000D01*
X124550000Y-84135000D02*
X117052500Y-84135000D01*
%TO.N,/~{DTACK_USER}*%
X140081000Y-126415800D02*
X140081000Y-127591100D01*
X95700000Y-110855000D02*
X94174700Y-110855000D01*
X140448300Y-127591100D02*
X140081000Y-127591100D01*
X141259700Y-128402500D02*
X140448300Y-127591100D01*
X141259700Y-129491800D02*
X141259700Y-128402500D01*
X139260600Y-131490900D02*
X141259700Y-129491800D01*
X112996100Y-131490900D02*
X139260600Y-131490900D01*
X110965700Y-129460500D02*
X112996100Y-131490900D01*
X110965700Y-128656300D02*
X110965700Y-129460500D01*
X109900600Y-127591200D02*
X110965700Y-128656300D01*
X109075400Y-127591200D02*
X109900600Y-127591200D01*
X108331000Y-126846800D02*
X109075400Y-127591200D01*
X108331000Y-125943100D02*
X108331000Y-126846800D01*
X100023400Y-117635500D02*
X108331000Y-125943100D01*
X94714300Y-117635500D02*
X100023400Y-117635500D01*
X93679000Y-116600200D02*
X94714300Y-117635500D01*
X93679000Y-111350700D02*
X93679000Y-116600200D01*
X94174700Y-110855000D02*
X93679000Y-111350700D01*
%TO.N,/~{USERSEL}*%
X134960000Y-75288200D02*
X134960000Y-74225000D01*
X135563000Y-75891200D02*
X134960000Y-75288200D01*
X140081000Y-128955800D02*
X138905700Y-128955800D01*
X95700000Y-113395000D02*
X94174700Y-113395000D01*
X138905700Y-129323100D02*
X138905700Y-128955800D01*
X137188200Y-131040600D02*
X138905700Y-129323100D01*
X115017300Y-131040600D02*
X137188200Y-131040600D01*
X113316400Y-129339700D02*
X115017300Y-131040600D01*
X113316400Y-128430200D02*
X113316400Y-129339700D01*
X112477400Y-127591200D02*
X113316400Y-128430200D01*
X111615400Y-127591200D02*
X112477400Y-127591200D01*
X110871000Y-126846800D02*
X111615400Y-127591200D01*
X110871000Y-125998500D02*
X110871000Y-126846800D01*
X102057400Y-117184900D02*
X110871000Y-125998500D01*
X94900600Y-117184900D02*
X102057400Y-117184900D01*
X94174700Y-116459000D02*
X94900600Y-117184900D01*
X94174700Y-113395000D02*
X94174700Y-116459000D01*
%TO.N,/~{I2CSEL}*%
X116092200Y-105775000D02*
X103320000Y-105775000D01*
X136365700Y-126048500D02*
X116092200Y-105775000D01*
X136365700Y-126415800D02*
X136365700Y-126048500D01*
X137541000Y-126415800D02*
X136365700Y-126415800D01*
X137500000Y-76636500D02*
X137541000Y-76677500D01*
X137500000Y-74225000D02*
X137500000Y-76636500D01*
%TO.N,Net-(D5-Pad2)*%
X155000000Y-86550000D02*
X152725000Y-86550000D01*
%TO.N,/~{IPL1}*%
X96937500Y-48350500D02*
X95783400Y-49504600D01*
X100600800Y-48350500D02*
X96937500Y-48350500D01*
X104217800Y-44733500D02*
X100600800Y-48350500D01*
X105053800Y-44733500D02*
X104217800Y-44733500D01*
X105361900Y-45041600D02*
X105053800Y-44733500D01*
X105361900Y-48230700D02*
X105361900Y-45041600D01*
X106285800Y-49154600D02*
X105361900Y-48230700D01*
X105887200Y-49553200D02*
X106285800Y-49154600D01*
X105887200Y-50750200D02*
X105887200Y-49553200D01*
%TO.N,/~{IPL0}*%
X97315900Y-42892100D02*
X95783400Y-44424600D01*
X105308300Y-42892100D02*
X97315900Y-42892100D01*
X106285800Y-41914600D02*
X105308300Y-42892100D01*
%TO.N,/~{BG}*%
X110674500Y-107975600D02*
X107507300Y-107975600D01*
X128651000Y-125952100D02*
X110674500Y-107975600D01*
X128651000Y-126810500D02*
X128651000Y-125952100D01*
X129621000Y-127780500D02*
X128651000Y-126810500D01*
X130477800Y-127780500D02*
X129621000Y-127780500D01*
X131285700Y-128588400D02*
X130477800Y-127780500D01*
X131285700Y-128955800D02*
X131285700Y-128588400D01*
X132461000Y-128955800D02*
X131285700Y-128955800D01*
%TO.N,/~{HALT}*%
X106302100Y-56410900D02*
X108428500Y-56410900D01*
X106285800Y-56394600D02*
X106302100Y-56410900D01*
X101167000Y-57428200D02*
X98323400Y-54584600D01*
X102139800Y-57428200D02*
X101167000Y-57428200D01*
X102233800Y-57334200D02*
X102139800Y-57428200D01*
X105346200Y-57334200D02*
X102233800Y-57334200D01*
X106285800Y-56394600D02*
X105346200Y-57334200D01*
%TO.N,/~{RESET}*%
X96857500Y-54584600D02*
X95783400Y-54584600D01*
X97910600Y-55637700D02*
X96857500Y-54584600D01*
X98673200Y-55637700D02*
X97910600Y-55637700D01*
X100979800Y-57944300D02*
X98673200Y-55637700D01*
X102260600Y-57944300D02*
X100979800Y-57944300D01*
X102417700Y-57787200D02*
X102260600Y-57944300D01*
X108739500Y-57787200D02*
X102417700Y-57787200D01*
X113166100Y-53360600D02*
X108739500Y-57787200D01*
X123690900Y-53360600D02*
X113166100Y-53360600D01*
X127267500Y-49784000D02*
X123690900Y-53360600D01*
X128981200Y-49784000D02*
X127267500Y-49784000D01*
%TO.N,/~{DS}*%
X138770000Y-89656600D02*
X138770000Y-88550000D01*
X138120400Y-90306200D02*
X138770000Y-89656600D01*
X136230900Y-90306200D02*
X138120400Y-90306200D01*
X134960000Y-89035300D02*
X136230900Y-90306200D01*
X134960000Y-88550000D02*
X134960000Y-89035300D01*
X138770000Y-88171600D02*
X138770000Y-88550000D01*
X139692600Y-87249000D02*
X138770000Y-88171600D01*
X140394400Y-87249000D02*
X139692600Y-87249000D01*
X140675000Y-87529600D02*
X140394400Y-87249000D01*
X140675000Y-117343300D02*
X140675000Y-87529600D01*
X146337600Y-123005900D02*
X140675000Y-117343300D01*
X146337600Y-127888500D02*
X146337600Y-123005900D01*
X146244300Y-127981800D02*
X146337600Y-127888500D01*
%TO.N,/~{AS}*%
X97225300Y-106951000D02*
X97225300Y-103235000D01*
X102543900Y-112269600D02*
X97225300Y-106951000D01*
X104219400Y-112269600D02*
X102543900Y-112269600D01*
X112141000Y-120191200D02*
X104219400Y-112269600D01*
X112141000Y-125240500D02*
X112141000Y-120191200D01*
X112141000Y-126415800D02*
X112141000Y-125240500D01*
X95700000Y-103235000D02*
X97225300Y-103235000D01*
%TO.N,/R~{W}*%
X108423700Y-68975500D02*
X112265800Y-65133400D01*
X103533900Y-68975500D02*
X108423700Y-68975500D01*
X99303000Y-64744600D02*
X103533900Y-68975500D01*
X95783400Y-64744600D02*
X99303000Y-64744600D01*
X114648500Y-77292400D02*
X123184400Y-77292400D01*
X123184400Y-78136300D02*
X123184400Y-77292400D01*
X123465600Y-78417500D02*
X123184400Y-78136300D01*
X125615500Y-78417500D02*
X123465600Y-78417500D01*
X128449900Y-81251900D02*
X125615500Y-78417500D01*
X128449900Y-87404200D02*
X128449900Y-81251900D01*
X129641300Y-88595600D02*
X128449900Y-87404200D01*
X133644400Y-88595600D02*
X129641300Y-88595600D01*
X133690000Y-88550000D02*
X133644400Y-88595600D01*
X130817200Y-79175000D02*
X133690000Y-79175000D01*
X128792200Y-77150000D02*
X130817200Y-79175000D01*
X123326800Y-77150000D02*
X128792200Y-77150000D01*
X123184400Y-77292400D02*
X123326800Y-77150000D01*
%TO.N,/CLK*%
X76441900Y-56006600D02*
X69075300Y-48640000D01*
X97205400Y-56006600D02*
X76441900Y-56006600D01*
X98323400Y-57124600D02*
X97205400Y-56006600D01*
X67900000Y-48640000D02*
X69075300Y-48640000D01*
X100719400Y-93075000D02*
X100747300Y-93047100D01*
X95700000Y-93075000D02*
X100719400Y-93075000D01*
%TO.N,/D7*%
X107061000Y-126415800D02*
X105885700Y-126415800D01*
X86715000Y-102870000D02*
X88240300Y-102870000D01*
X123930700Y-87325700D02*
X124550000Y-87945000D01*
X122046000Y-87325700D02*
X123930700Y-87325700D01*
X105885700Y-126048500D02*
X105885700Y-126415800D01*
X98081900Y-118244700D02*
X105885700Y-126048500D01*
X94686600Y-118244700D02*
X98081900Y-118244700D01*
X93013300Y-116571400D02*
X94686600Y-118244700D01*
X93013300Y-107643000D02*
X93013300Y-116571400D01*
X88240300Y-102870000D02*
X93013300Y-107643000D01*
X119865300Y-60988100D02*
X118821200Y-59944000D01*
X119865300Y-62964200D02*
X119865300Y-60988100D01*
X112503100Y-70326400D02*
X119865300Y-62964200D01*
X102974100Y-70326400D02*
X112503100Y-70326400D01*
X101279000Y-68631300D02*
X102974100Y-70326400D01*
X92640600Y-68631300D02*
X101279000Y-68631300D01*
X92342600Y-68333300D02*
X92640600Y-68631300D01*
X86672100Y-68333300D02*
X92342600Y-68333300D01*
X83083400Y-64744600D02*
X86672100Y-68333300D01*
%TO.N,/D6*%
X125182800Y-88582200D02*
X126019100Y-88582200D01*
X124550000Y-89215000D02*
X125182800Y-88582200D01*
X107061000Y-128955800D02*
X105885700Y-128955800D01*
X86715000Y-105410000D02*
X85189700Y-105410000D01*
X105885700Y-128588400D02*
X105885700Y-128955800D01*
X105077800Y-127780500D02*
X105885700Y-128588400D01*
X101680900Y-127780500D02*
X105077800Y-127780500D01*
X100805700Y-126905300D02*
X101680900Y-127780500D01*
X100805700Y-125950000D02*
X100805700Y-126905300D01*
X94451400Y-119595700D02*
X100805700Y-125950000D01*
X93835000Y-119595700D02*
X94451400Y-119595700D01*
X88682000Y-114442700D02*
X93835000Y-119595700D01*
X86134200Y-114442700D02*
X88682000Y-114442700D01*
X85189700Y-113498200D02*
X86134200Y-114442700D01*
X85189700Y-105410000D02*
X85189700Y-113498200D01*
X122863200Y-58906000D02*
X123901200Y-59944000D01*
X115809700Y-58906000D02*
X122863200Y-58906000D01*
X115011200Y-59704500D02*
X115809700Y-58906000D01*
X115011200Y-60638300D02*
X115011200Y-59704500D01*
X107574700Y-68074800D02*
X115011200Y-60638300D01*
X103907000Y-68074800D02*
X107574700Y-68074800D01*
X99073400Y-63241200D02*
X103907000Y-68074800D01*
X84120000Y-63241200D02*
X99073400Y-63241200D01*
X83083400Y-62204600D02*
X84120000Y-63241200D01*
%TO.N,/D5*%
X89329800Y-109039500D02*
X88240300Y-107950000D01*
X89329800Y-113524800D02*
X89329800Y-109039500D01*
X94500000Y-118695000D02*
X89329800Y-113524800D01*
X95992200Y-118695000D02*
X94500000Y-118695000D01*
X103345700Y-126048500D02*
X95992200Y-118695000D01*
X103345700Y-126415800D02*
X103345700Y-126048500D01*
X104521000Y-126415800D02*
X103345700Y-126415800D01*
X86715000Y-107950000D02*
X88240300Y-107950000D01*
X111429100Y-69876100D02*
X118821200Y-62484000D01*
X103160700Y-69876100D02*
X111429100Y-69876100D01*
X101465600Y-68181000D02*
X103160700Y-69876100D01*
X92827200Y-68181000D02*
X101465600Y-68181000D01*
X92327100Y-67680900D02*
X92827200Y-68181000D01*
X88559700Y-67680900D02*
X92327100Y-67680900D01*
X85623400Y-64744600D02*
X88559700Y-67680900D01*
X123473500Y-90485000D02*
X124550000Y-90485000D01*
X120483900Y-87495400D02*
X123473500Y-90485000D01*
%TO.N,/D4*%
X125181100Y-91123900D02*
X124550000Y-91755000D01*
X126346000Y-91123900D02*
X125181100Y-91123900D01*
X127554700Y-89915200D02*
X126346000Y-91123900D01*
X128887400Y-89915200D02*
X127554700Y-89915200D01*
X129340900Y-90368700D02*
X128887400Y-89915200D01*
X129340900Y-111186200D02*
X129340900Y-90368700D01*
X143809600Y-125654900D02*
X129340900Y-111186200D01*
X143809600Y-129433000D02*
X143809600Y-125654900D01*
X141286400Y-131956200D02*
X143809600Y-129433000D01*
X107521400Y-131956200D02*
X141286400Y-131956200D01*
X104521000Y-128955800D02*
X107521400Y-131956200D01*
X89433400Y-58394600D02*
X85623400Y-62204600D01*
X102447200Y-58394600D02*
X89433400Y-58394600D01*
X102553400Y-58288400D02*
X102447200Y-58394600D01*
X113159700Y-58288400D02*
X102553400Y-58288400D01*
X113311900Y-58440600D02*
X113159700Y-58288400D01*
X123920400Y-58440600D02*
X113311900Y-58440600D01*
X125278800Y-59799000D02*
X123920400Y-58440600D01*
X125278800Y-61321600D02*
X125278800Y-59799000D01*
X126441200Y-62484000D02*
X125278800Y-61321600D01*
%TO.N,/D3*%
X86715000Y-113030000D02*
X88240300Y-113030000D01*
X94710600Y-119145400D02*
X101981000Y-126415800D01*
X94270800Y-119145400D02*
X94710600Y-119145400D01*
X88240300Y-113114900D02*
X94270800Y-119145400D01*
X88240300Y-113030000D02*
X88240300Y-113114900D01*
X116281200Y-60015700D02*
X116281200Y-59944000D01*
X107771700Y-68525200D02*
X116281200Y-60015700D01*
X103720500Y-68525200D02*
X107771700Y-68525200D01*
X98898100Y-63702800D02*
X103720500Y-68525200D01*
X89205200Y-63702800D02*
X98898100Y-63702800D01*
X88163400Y-64744600D02*
X89205200Y-63702800D01*
X123003900Y-93025000D02*
X124550000Y-93025000D01*
X121012600Y-91033700D02*
X123003900Y-93025000D01*
%TO.N,/D2*%
X101981000Y-128955800D02*
X100805700Y-128955800D01*
X90190100Y-117341100D02*
X89652200Y-117341100D01*
X98171000Y-125322000D02*
X90190100Y-117341100D01*
X98171000Y-126874000D02*
X98171000Y-125322000D01*
X99077500Y-127780500D02*
X98171000Y-126874000D01*
X99997800Y-127780500D02*
X99077500Y-127780500D01*
X100805700Y-128588400D02*
X99997800Y-127780500D01*
X100805700Y-128955800D02*
X100805700Y-128588400D01*
X109173900Y-91755000D02*
X111450000Y-91755000D01*
X104144000Y-96784900D02*
X109173900Y-91755000D01*
X91455800Y-96784900D02*
X104144000Y-96784900D01*
X80901900Y-110490000D02*
X71475000Y-110490000D01*
X85998000Y-115586100D02*
X80901900Y-110490000D01*
X87897200Y-115586100D02*
X85998000Y-115586100D01*
X89652200Y-117341100D02*
X87897200Y-115586100D01*
X118263500Y-86049000D02*
X126228100Y-86049000D01*
X112557500Y-91755000D02*
X118263500Y-86049000D01*
X111450000Y-91755000D02*
X112557500Y-91755000D01*
%TO.N,/D1*%
X71475000Y-107950000D02*
X73000300Y-107950000D01*
X99441000Y-126415800D02*
X99441000Y-125240500D01*
X73949800Y-107000500D02*
X73000300Y-107950000D01*
X78053200Y-107000500D02*
X73949800Y-107000500D01*
X98804100Y-125240500D02*
X99441000Y-125240500D01*
X88456700Y-114893100D02*
X98804100Y-125240500D01*
X85945800Y-114893100D02*
X88456700Y-114893100D01*
X78053200Y-107000500D02*
X85945800Y-114893100D01*
X109339400Y-69425800D02*
X116281200Y-62484000D01*
X103347300Y-69425800D02*
X109339400Y-69425800D01*
X100651900Y-66730400D02*
X103347300Y-69425800D01*
X92689200Y-66730400D02*
X100651900Y-66730400D01*
X90703400Y-64744600D02*
X92689200Y-66730400D01*
X91207300Y-94654800D02*
X91207400Y-94654800D01*
X91207300Y-95528300D02*
X91207300Y-94654800D01*
X87586800Y-99148800D02*
X91207300Y-95528300D01*
X85767600Y-99148800D02*
X87586800Y-99148800D01*
X78053200Y-106863200D02*
X85767600Y-99148800D01*
X78053200Y-107000500D02*
X78053200Y-106863200D01*
X109553600Y-90485000D02*
X111450000Y-90485000D01*
X105693600Y-94345000D02*
X109553600Y-90485000D01*
X92872300Y-94345000D02*
X105693600Y-94345000D01*
X92398900Y-94818400D02*
X92872300Y-94345000D01*
X91371000Y-94818400D02*
X92398900Y-94818400D01*
X91207400Y-94654800D02*
X91371000Y-94818400D01*
%TO.N,/D0*%
X99441000Y-128955800D02*
X98265700Y-128955800D01*
X89942900Y-118491300D02*
X89761400Y-118672800D01*
X98265700Y-128588400D02*
X98265700Y-128955800D01*
X97457800Y-127780500D02*
X98265700Y-128588400D01*
X96600900Y-127780500D02*
X97457800Y-127780500D01*
X95725600Y-126905200D02*
X96600900Y-127780500D01*
X95725600Y-125000000D02*
X95725600Y-126905200D01*
X89761400Y-119035800D02*
X95725600Y-125000000D01*
X89761400Y-118672800D02*
X89761400Y-119035800D01*
X71475000Y-105410000D02*
X69949700Y-105410000D01*
X69949700Y-111004000D02*
X69949700Y-105410000D01*
X70705700Y-111760000D02*
X69949700Y-111004000D01*
X81535000Y-111760000D02*
X70705700Y-111760000D01*
X86219900Y-116444900D02*
X81535000Y-111760000D01*
X87533500Y-116444900D02*
X86219900Y-116444900D01*
X89761400Y-118672800D02*
X87533500Y-116444900D01*
X127936600Y-63528600D02*
X128981200Y-62484000D01*
X125955700Y-63528600D02*
X127936600Y-63528600D01*
X125171200Y-62744100D02*
X125955700Y-63528600D01*
X125171200Y-62278100D02*
X125171200Y-62744100D01*
X124320300Y-61427200D02*
X125171200Y-62278100D01*
X120928800Y-61427200D02*
X124320300Y-61427200D01*
X120315700Y-62040300D02*
X120928800Y-61427200D01*
X120315700Y-63182600D02*
X120315700Y-62040300D01*
X112721600Y-70776700D02*
X120315700Y-63182600D01*
X102787500Y-70776700D02*
X112721600Y-70776700D01*
X101206300Y-69195500D02*
X102787500Y-70776700D01*
X92178800Y-69195500D02*
X101206300Y-69195500D01*
X109603600Y-89215000D02*
X111450000Y-89215000D01*
X106960000Y-91858600D02*
X109603600Y-89215000D01*
X94332900Y-91858600D02*
X106960000Y-91858600D01*
X92098400Y-94093100D02*
X94332900Y-91858600D01*
%TO.N,/A21*%
X96901000Y-125077800D02*
X95548900Y-123725700D01*
X96901000Y-126415800D02*
X96901000Y-125077800D01*
%TO.N,/A20*%
X82030500Y-63691700D02*
X80543400Y-62204600D01*
X86100600Y-63691700D02*
X82030500Y-63691700D01*
X86893400Y-64484500D02*
X86100600Y-63691700D01*
X86893400Y-64950500D02*
X86893400Y-64484500D01*
X88608000Y-66665100D02*
X86893400Y-64950500D01*
X91987000Y-66665100D02*
X88608000Y-66665100D01*
X92777600Y-67455700D02*
X91987000Y-66665100D01*
X94901500Y-67455700D02*
X92777600Y-67455700D01*
%TO.N,/A19*%
X91063900Y-75265100D02*
X93273000Y-75265100D01*
X80543400Y-64744600D02*
X91063900Y-75265100D01*
%TO.N,/A18*%
X108966000Y-71491000D02*
X111450000Y-73975000D01*
X102771700Y-71491000D02*
X108966000Y-71491000D01*
X101158800Y-69878100D02*
X102771700Y-71491000D01*
X92522000Y-69878100D02*
X101158800Y-69878100D01*
X92479300Y-69920800D02*
X92522000Y-69878100D01*
X86791400Y-69920800D02*
X92479300Y-69920800D01*
X81586400Y-64715800D02*
X86791400Y-69920800D01*
X81586400Y-64280800D02*
X81586400Y-64715800D01*
X80780200Y-63474600D02*
X81586400Y-64280800D01*
X79273400Y-63474600D02*
X80780200Y-63474600D01*
X78003400Y-62204600D02*
X79273400Y-63474600D01*
X80699900Y-115232200D02*
X81557400Y-114374700D01*
X80699900Y-123727800D02*
X80699900Y-115232200D01*
X82931000Y-125958900D02*
X80699900Y-123727800D01*
X82931000Y-129419500D02*
X82931000Y-125958900D01*
X83687000Y-130175500D02*
X82931000Y-129419500D01*
X92333300Y-130175500D02*
X83687000Y-130175500D01*
X93185700Y-129323100D02*
X92333300Y-130175500D01*
X93185700Y-128955800D02*
X93185700Y-129323100D01*
X94361000Y-128955800D02*
X93185700Y-128955800D01*
%TO.N,/A17*%
X82838700Y-78875400D02*
X82648600Y-79065500D01*
X88696800Y-78875400D02*
X82838700Y-78875400D01*
X89490800Y-79669400D02*
X88696800Y-78875400D01*
X100135100Y-79669400D02*
X89490800Y-79669400D01*
X101384600Y-78419900D02*
X100135100Y-79669400D01*
X112622500Y-78419900D02*
X101384600Y-78419900D01*
X113003600Y-78038800D02*
X112622500Y-78419900D01*
X113003600Y-77911600D02*
X113003600Y-78038800D01*
X114400200Y-76515000D02*
X113003600Y-77911600D01*
X124550000Y-76515000D02*
X114400200Y-76515000D01*
%TO.N,/A16*%
X108856400Y-75245000D02*
X111450000Y-75245000D01*
X107809900Y-74198500D02*
X108856400Y-75245000D01*
X99569200Y-74198500D02*
X107809900Y-74198500D01*
X96398200Y-77369500D02*
X99569200Y-74198500D01*
X91012400Y-77369500D02*
X96398200Y-77369500D01*
X76516400Y-62873500D02*
X91012400Y-77369500D01*
X76516400Y-61151600D02*
X76516400Y-62873500D01*
X78003400Y-59664600D02*
X76516400Y-61151600D01*
%TO.N,/A15*%
X76066100Y-59061900D02*
X78003400Y-57124600D01*
X76066100Y-63060100D02*
X76066100Y-59061900D01*
X90825800Y-77819800D02*
X76066100Y-63060100D01*
X96736900Y-77819800D02*
X90825800Y-77819800D01*
X99907700Y-74649000D02*
X96736900Y-77819800D01*
X105227000Y-74649000D02*
X99907700Y-74649000D01*
X106458000Y-75880000D02*
X105227000Y-74649000D01*
X123915000Y-75880000D02*
X106458000Y-75880000D01*
X124550000Y-75245000D02*
X123915000Y-75880000D01*
%TO.N,/A14*%
X71475000Y-80010000D02*
X73000300Y-80010000D01*
X75140600Y-77869700D02*
X73000300Y-80010000D01*
X89601900Y-77869700D02*
X75140600Y-77869700D01*
X90465200Y-78733000D02*
X89601900Y-77869700D01*
X97170300Y-78733000D02*
X90465200Y-78733000D01*
X98793700Y-77109600D02*
X97170300Y-78733000D01*
X110855400Y-77109600D02*
X98793700Y-77109600D01*
X111450000Y-76515000D02*
X110855400Y-77109600D01*
%TO.N,/A13*%
X79057400Y-53098600D02*
X81465000Y-53098600D01*
X78003400Y-52044600D02*
X79057400Y-53098600D01*
X123915000Y-79690000D02*
X124550000Y-79055000D01*
X101415900Y-79690000D02*
X123915000Y-79690000D01*
X99271700Y-81834200D02*
X101415900Y-79690000D01*
X93849600Y-81834200D02*
X99271700Y-81834200D01*
X90593800Y-85090000D02*
X93849600Y-81834200D01*
X86715000Y-85090000D02*
X90593800Y-85090000D01*
X85801000Y-124300500D02*
X85801000Y-117620500D01*
X86741000Y-125240500D02*
X85801000Y-124300500D01*
X86741000Y-126415800D02*
X86741000Y-125240500D01*
%TO.N,/A12*%
X101064400Y-77785000D02*
X111450000Y-77785000D01*
X99630400Y-79219000D02*
X101064400Y-77785000D01*
X89995900Y-79219000D02*
X99630400Y-79219000D01*
X89109300Y-78332400D02*
X89995900Y-79219000D01*
X77217900Y-78332400D02*
X89109300Y-78332400D01*
X73000300Y-82550000D02*
X77217900Y-78332400D01*
X71475000Y-82550000D02*
X73000300Y-82550000D01*
%TO.N,/A11*%
X86715000Y-92710000D02*
X85189700Y-92710000D01*
X86715000Y-92710000D02*
X88240300Y-92710000D01*
X84201000Y-126415800D02*
X84201000Y-125240500D01*
X85047800Y-92851900D02*
X81191500Y-92851900D01*
X85189700Y-92710000D02*
X85047800Y-92851900D01*
X81443400Y-122482900D02*
X81443400Y-117539400D01*
X84201000Y-125240500D02*
X81443400Y-122482900D01*
X89377100Y-92710000D02*
X88240300Y-92710000D01*
X95007200Y-87079900D02*
X89377100Y-92710000D01*
X101778700Y-87079900D02*
X95007200Y-87079900D01*
X105358600Y-83500000D02*
X101778700Y-87079900D01*
X123915000Y-83500000D02*
X105358600Y-83500000D01*
X124550000Y-82865000D02*
X123915000Y-83500000D01*
%TO.N,/A10*%
X84201000Y-128955800D02*
X84201000Y-127780500D01*
X84470300Y-124815000D02*
X84470300Y-116506700D01*
X85418400Y-125763100D02*
X84470300Y-124815000D01*
X85418400Y-126930400D02*
X85418400Y-125763100D01*
X84568300Y-127780500D02*
X85418400Y-126930400D01*
X84201000Y-127780500D02*
X84568300Y-127780500D01*
X88240300Y-96561200D02*
X88240300Y-97790000D01*
X93447700Y-91353800D02*
X88240300Y-96561200D01*
X106827900Y-91353800D02*
X93447700Y-91353800D01*
X109601700Y-88580000D02*
X106827900Y-91353800D01*
X113711300Y-88580000D02*
X109601700Y-88580000D01*
X116886300Y-85405000D02*
X113711300Y-88580000D01*
X124550000Y-85405000D02*
X116886300Y-85405000D01*
X86715000Y-97790000D02*
X88240300Y-97790000D01*
%TO.N,/A9*%
X86715000Y-90170000D02*
X88240300Y-90170000D01*
X86715000Y-90170000D02*
X85189700Y-90170000D01*
X85163300Y-90196400D02*
X77415200Y-90196400D01*
X85189700Y-90170000D02*
X85163300Y-90196400D01*
X90006400Y-90170000D02*
X88240300Y-90170000D01*
X94206500Y-85969900D02*
X90006400Y-90170000D01*
X98817600Y-85969900D02*
X94206500Y-85969900D01*
X102557600Y-82229900D02*
X98817600Y-85969900D01*
X123915100Y-82229900D02*
X102557600Y-82229900D01*
X124550000Y-81595000D02*
X123915100Y-82229900D01*
%TO.N,/A8*%
X86715000Y-87630000D02*
X85189700Y-87630000D01*
X84131300Y-88688400D02*
X77971000Y-88688400D01*
X85189700Y-87630000D02*
X84131300Y-88688400D01*
X69214400Y-87368800D02*
X69214400Y-86769600D01*
X70626900Y-88781300D02*
X69214400Y-87368800D01*
X77878100Y-88781300D02*
X70626900Y-88781300D01*
X77971000Y-88688400D02*
X77878100Y-88781300D01*
X91272600Y-87630000D02*
X86715000Y-87630000D01*
X93833300Y-85069300D02*
X91272600Y-87630000D01*
X97807500Y-85069300D02*
X93833300Y-85069300D01*
X101917100Y-80959700D02*
X97807500Y-85069300D01*
X123915300Y-80959700D02*
X101917100Y-80959700D01*
X124550000Y-80325000D02*
X123915300Y-80959700D01*
%TO.N,/A7*%
X71475000Y-85090000D02*
X73000300Y-85090000D01*
X101386500Y-79055000D02*
X111450000Y-79055000D01*
X99073000Y-81368500D02*
X101386500Y-79055000D01*
X93585300Y-81368500D02*
X99073000Y-81368500D01*
X91241200Y-83712600D02*
X93585300Y-81368500D01*
X74377700Y-83712600D02*
X91241200Y-83712600D01*
X73000300Y-85090000D02*
X74377700Y-83712600D01*
%TO.N,/A6*%
X71475000Y-87630000D02*
X73000300Y-87630000D01*
X74270300Y-86360000D02*
X73000300Y-87630000D01*
X90540800Y-86360000D02*
X74270300Y-86360000D01*
X92281800Y-84619000D02*
X90540800Y-86360000D01*
X97372400Y-84619000D02*
X92281800Y-84619000D01*
X101666400Y-80325000D02*
X97372400Y-84619000D01*
X111450000Y-80325000D02*
X101666400Y-80325000D01*
%TO.N,/A5*%
X71475000Y-90170000D02*
X73000300Y-90170000D01*
X73738200Y-89432100D02*
X73000300Y-90170000D01*
X84024500Y-89432100D02*
X73738200Y-89432100D01*
X84556600Y-88900000D02*
X84024500Y-89432100D01*
X90639500Y-88900000D02*
X84556600Y-88900000D01*
X94019900Y-85519600D02*
X90639500Y-88900000D01*
X98631000Y-85519600D02*
X94019900Y-85519600D01*
X102555600Y-81595000D02*
X98631000Y-85519600D01*
X111450000Y-81595000D02*
X102555600Y-81595000D01*
%TO.N,/A4*%
X71475000Y-92710000D02*
X73000300Y-92710000D01*
X74270300Y-91440000D02*
X73000300Y-92710000D01*
X89373300Y-91440000D02*
X74270300Y-91440000D01*
X94245100Y-86568200D02*
X89373300Y-91440000D01*
X101653300Y-86568200D02*
X94245100Y-86568200D01*
X105356500Y-82865000D02*
X101653300Y-86568200D01*
X111450000Y-82865000D02*
X105356500Y-82865000D01*
%TO.N,/A3*%
X111949800Y-84634800D02*
X111450000Y-84135000D01*
X113062300Y-84634800D02*
X111949800Y-84634800D01*
%TO.N,/A2*%
X88163400Y-44424600D02*
X89199900Y-44424600D01*
X113441400Y-85405000D02*
X111450000Y-85405000D01*
X114559100Y-84287300D02*
X113441400Y-85405000D01*
X90240500Y-45465200D02*
X89199900Y-44424600D01*
X100792800Y-45465200D02*
X90240500Y-45465200D01*
X102881200Y-43376800D02*
X100792800Y-45465200D01*
X114954000Y-43376800D02*
X102881200Y-43376800D01*
X116281200Y-44704000D02*
X114954000Y-43376800D01*
%TO.N,/A1*%
X71475000Y-100330000D02*
X73000300Y-100330000D01*
X79350300Y-93980000D02*
X73000300Y-100330000D01*
X88744000Y-93980000D02*
X79350300Y-93980000D01*
X94968800Y-87755200D02*
X88744000Y-93980000D01*
X104039600Y-87755200D02*
X94968800Y-87755200D01*
X106356900Y-85437900D02*
X104039600Y-87755200D01*
X107594000Y-86675000D02*
X106356900Y-85437900D01*
X111450000Y-86675000D02*
X107594000Y-86675000D01*
X91740000Y-45928000D02*
X90703400Y-46964600D01*
X101489800Y-45928000D02*
X91740000Y-45928000D01*
X103590700Y-43827100D02*
X101489800Y-45928000D01*
X105839000Y-43827100D02*
X103590700Y-43827100D01*
X107757600Y-45745700D02*
X105839000Y-43827100D01*
X117779500Y-45745700D02*
X107757600Y-45745700D01*
X118821200Y-44704000D02*
X117779500Y-45745700D01*
%TO.N,/A0*%
X71475000Y-102870000D02*
X73000300Y-102870000D01*
X79205700Y-96664600D02*
X73000300Y-102870000D01*
X87499900Y-96664600D02*
X79205700Y-96664600D01*
X93261100Y-90903400D02*
X87499900Y-96664600D01*
X106323200Y-90903400D02*
X93261100Y-90903400D01*
X109281600Y-87945000D02*
X106323200Y-90903400D01*
X111450000Y-87945000D02*
X109281600Y-87945000D01*
%TO.N,GND*%
X155284200Y-126415800D02*
X156100000Y-125600000D01*
X150241000Y-126415800D02*
X155284200Y-126415800D01*
X159385800Y-100600000D02*
X156845800Y-100600000D01*
X122621800Y-38357000D02*
X123431600Y-39166800D01*
X89545000Y-38357000D02*
X122621800Y-38357000D01*
X88963800Y-38938200D02*
X89545000Y-38357000D01*
X157800000Y-74713800D02*
X157800000Y-78600000D01*
X141465600Y-88705600D02*
X141310000Y-88550000D01*
X147869600Y-88705600D02*
X141465600Y-88705600D01*
X71582600Y-113030000D02*
X73000300Y-113030000D01*
X71582600Y-113030000D02*
X71475000Y-113030000D01*
X66489200Y-91289200D02*
X65300000Y-90100000D01*
X66489200Y-109569500D02*
X66489200Y-91289200D01*
X69949700Y-113030000D02*
X66489200Y-109569500D01*
X71475000Y-113030000D02*
X69949700Y-113030000D01*
X159450000Y-108049200D02*
X152950000Y-108049200D01*
X151463800Y-108049200D02*
X150079800Y-109433200D01*
X152950000Y-108049200D02*
X151463800Y-108049200D01*
X157800000Y-74713800D02*
X157800000Y-70776800D01*
X103320000Y-115935000D02*
X95700000Y-115935000D01*
X156260800Y-57505600D02*
X156260800Y-58680900D01*
X147869600Y-95974200D02*
X147869600Y-88705600D01*
X156845800Y-100600000D02*
X156845800Y-99074700D01*
X153745300Y-95974200D02*
X156845800Y-99074700D01*
X147869600Y-95974200D02*
X153745300Y-95974200D01*
X157800000Y-78600000D02*
X157800000Y-82600000D01*
X151845400Y-87013900D02*
X151845400Y-85749000D01*
X150153700Y-88705600D02*
X151845400Y-87013900D01*
X147869600Y-88705600D02*
X150153700Y-88705600D01*
X152285700Y-85308700D02*
X157800000Y-85308700D01*
X151845400Y-85749000D02*
X152285700Y-85308700D01*
X157800000Y-82600000D02*
X157800000Y-85308700D01*
X157800000Y-85308700D02*
X157800000Y-86550000D01*
X108946900Y-93025000D02*
X107855200Y-94116700D01*
X111450000Y-93025000D02*
X108946900Y-93025000D01*
X100472600Y-89002400D02*
X100375000Y-89100000D01*
X103103100Y-89002400D02*
X100472600Y-89002400D01*
X103210000Y-89109300D02*
X103103100Y-89002400D01*
X136230000Y-83600000D02*
X134960000Y-83600000D01*
X156628200Y-58680900D02*
X156260800Y-58680900D01*
X157465900Y-59518600D02*
X156628200Y-58680900D01*
X157465900Y-63789600D02*
X157465900Y-59518600D01*
X157800000Y-64123700D02*
X157465900Y-63789600D01*
X157800000Y-70776800D02*
X157800000Y-64123700D01*
X144186600Y-63789600D02*
X140030200Y-59633200D01*
X157465900Y-63789600D02*
X144186600Y-63789600D01*
X141310000Y-87502600D02*
X139699700Y-85892300D01*
X141310000Y-88550000D02*
X141310000Y-87502600D01*
X139699700Y-85892300D02*
X139699700Y-83659600D01*
X138829600Y-83659600D02*
X139699700Y-83659600D01*
X138770000Y-83600000D02*
X138829600Y-83659600D01*
X139980400Y-83659600D02*
X140040000Y-83600000D01*
X139699700Y-83659600D02*
X139980400Y-83659600D01*
X136230000Y-83600000D02*
X136230000Y-86722100D01*
X138125900Y-87466100D02*
X139699700Y-85892300D01*
X138125900Y-89572200D02*
X138125900Y-87466100D01*
X137847200Y-89850900D02*
X138125900Y-89572200D01*
X137152800Y-89850900D02*
X137847200Y-89850900D01*
X136874100Y-89572200D02*
X137152800Y-89850900D01*
X136874100Y-87366200D02*
X136874100Y-89572200D01*
X136230000Y-86722100D02*
X136874100Y-87366200D01*
X150244000Y-44490800D02*
X144920000Y-39166800D01*
X156260800Y-44490800D02*
X150244000Y-44490800D01*
X124232900Y-38365500D02*
X123431600Y-39166800D01*
X144118700Y-38365500D02*
X124232900Y-38365500D01*
X144920000Y-39166800D02*
X144118700Y-38365500D01*
X146360500Y-84225500D02*
X141310000Y-79175000D01*
X150321900Y-84225500D02*
X146360500Y-84225500D01*
X151845400Y-85749000D02*
X150321900Y-84225500D01*
X82160100Y-113030000D02*
X73000300Y-113030000D01*
X86025300Y-116895200D02*
X82160100Y-113030000D01*
X86595000Y-116895200D02*
X86025300Y-116895200D01*
X88794400Y-119094600D02*
X86595000Y-116895200D01*
X80543400Y-57124600D02*
X95783400Y-57124600D01*
X100897700Y-70700000D02*
X100375000Y-70700000D01*
X101857100Y-71659400D02*
X100897700Y-70700000D01*
X101857100Y-72280200D02*
X101857100Y-71659400D01*
X79273400Y-58394600D02*
X80543400Y-57124600D01*
X79273400Y-59922600D02*
X79273400Y-58394600D01*
X78494800Y-60701200D02*
X79273400Y-59922600D01*
X78027500Y-60701200D02*
X78494800Y-60701200D01*
X76966700Y-61762000D02*
X78027500Y-60701200D01*
X76966700Y-62686900D02*
X76966700Y-61762000D01*
X91199000Y-76919200D02*
X76966700Y-62686900D01*
X96138600Y-76919200D02*
X91199000Y-76919200D01*
X100352800Y-72705000D02*
X96138600Y-76919200D01*
X101432300Y-72705000D02*
X100352800Y-72705000D01*
X101857100Y-72280200D02*
X101432300Y-72705000D01*
X121361200Y-62484000D02*
X121361200Y-63979000D01*
X135684400Y-63979000D02*
X140030200Y-59633200D01*
X121361200Y-63979000D02*
X135684400Y-63979000D01*
X103402500Y-72280200D02*
X104218200Y-73095900D01*
X101857100Y-72280200D02*
X103402500Y-72280200D01*
X129672100Y-86152900D02*
X130500000Y-85325000D01*
X129672100Y-87352600D02*
X129672100Y-86152900D01*
X130014500Y-87695000D02*
X129672100Y-87352600D01*
X132143400Y-87695000D02*
X130014500Y-87695000D01*
X133116300Y-86722100D02*
X132143400Y-87695000D01*
X136230000Y-86722100D02*
X133116300Y-86722100D01*
X118825800Y-66514400D02*
X118825800Y-69879000D01*
X121361200Y-63979000D02*
X118825800Y-66514400D01*
X118825800Y-69879000D02*
X118825800Y-70700000D01*
X129185000Y-74610000D02*
X130500000Y-75925000D01*
X119927900Y-74610000D02*
X129185000Y-74610000D01*
X116254600Y-70936600D02*
X119927900Y-74610000D01*
X116311000Y-70880200D02*
X116254600Y-70936600D01*
X116311000Y-70379500D02*
X116311000Y-70880200D01*
X116811500Y-69879000D02*
X116311000Y-70379500D01*
X118825800Y-69879000D02*
X116811500Y-69879000D01*
X108584900Y-73095900D02*
X104218200Y-73095900D01*
X110099000Y-74610000D02*
X108584900Y-73095900D01*
X112581200Y-74610000D02*
X110099000Y-74610000D01*
X116254600Y-70936600D02*
X112581200Y-74610000D01*
%TO.N,VCC*%
X154305800Y-100600000D02*
X154305800Y-99074700D01*
X142999800Y-39537000D02*
X143370000Y-39166800D01*
X142999800Y-39742800D02*
X142999800Y-39537000D01*
X124999300Y-39742800D02*
X123901200Y-40840900D01*
X142999800Y-39742800D02*
X124999300Y-39742800D01*
X142999800Y-39742800D02*
X147650200Y-44393200D01*
X156628200Y-50935500D02*
X156260800Y-50935500D01*
X157436100Y-50127600D02*
X156628200Y-50935500D01*
X157436100Y-46500400D02*
X157436100Y-50127600D01*
X156601900Y-45666200D02*
X157436100Y-46500400D01*
X148923200Y-45666200D02*
X156601900Y-45666200D01*
X147650200Y-44393200D02*
X148923200Y-45666200D01*
X156260800Y-52110800D02*
X156260800Y-50935500D01*
X123555700Y-40840900D02*
X121881600Y-39166800D01*
X123901200Y-40840900D02*
X123555700Y-40840900D01*
X107383600Y-39166800D02*
X104635800Y-41914600D01*
X121881600Y-39166800D02*
X107383600Y-39166800D01*
X155855800Y-128955800D02*
X156100000Y-129200000D01*
X150241000Y-128955800D02*
X155855800Y-128955800D01*
X104635800Y-56394600D02*
X104635800Y-52774600D01*
X104635800Y-49154600D02*
X104635800Y-45534600D01*
X152755300Y-97524200D02*
X154305800Y-99074700D01*
X147869600Y-97524200D02*
X152755300Y-97524200D01*
X99659000Y-89934000D02*
X98825000Y-89100000D01*
X101216900Y-89934000D02*
X99659000Y-89934000D01*
X101423200Y-89727700D02*
X101216900Y-89934000D01*
X133690000Y-83685000D02*
X133690000Y-83600000D01*
X130500000Y-86875000D02*
X133690000Y-83685000D01*
X134325000Y-78146300D02*
X132829900Y-76651200D01*
X134325000Y-82965000D02*
X134325000Y-78146300D01*
X133690000Y-83600000D02*
X134325000Y-82965000D01*
X131323800Y-76651200D02*
X130500000Y-77475000D01*
X132829900Y-76651200D02*
X131323800Y-76651200D01*
X133690000Y-73835100D02*
X133690000Y-74225000D01*
X142399500Y-65125600D02*
X133690000Y-73835100D01*
X156260800Y-65125600D02*
X142399500Y-65125600D01*
X120550800Y-73975000D02*
X124550000Y-73975000D01*
X117275800Y-70700000D02*
X120550800Y-73975000D01*
X131719800Y-73975000D02*
X132829900Y-75085100D01*
X124550000Y-73975000D02*
X131719800Y-73975000D01*
X133690000Y-74225000D02*
X132829900Y-75085100D01*
X132829900Y-75085100D02*
X132829900Y-76651200D01*
X64482800Y-90832800D02*
X65300000Y-91650000D01*
X64482800Y-89646900D02*
X64482800Y-90832800D01*
X70309700Y-83820000D02*
X64482800Y-89646900D01*
X73140300Y-83820000D02*
X70309700Y-83820000D01*
X74410300Y-82550000D02*
X73140300Y-83820000D01*
X86715000Y-82550000D02*
X74410300Y-82550000D01*
X123901200Y-40840900D02*
X123901200Y-44704000D01*
X104635800Y-52774600D02*
X104635800Y-49154600D01*
X103684400Y-40963200D02*
X88679000Y-40963200D01*
X104635800Y-41914600D02*
X103684400Y-40963200D01*
X88679000Y-40203400D02*
X87413800Y-38938200D01*
X88679000Y-40963200D02*
X88679000Y-40203400D01*
X81028000Y-54584600D02*
X87052700Y-48559900D01*
X80543400Y-54584600D02*
X81028000Y-54584600D01*
X87052700Y-42589500D02*
X88679000Y-40963200D01*
X87052700Y-48559900D02*
X87052700Y-42589500D01*
X88814400Y-80584100D02*
X88240300Y-80010000D01*
X94649400Y-80584100D02*
X88814400Y-80584100D01*
X86715000Y-80010000D02*
X88240300Y-80010000D01*
X99401700Y-71979700D02*
X99401000Y-71979000D01*
X101131800Y-71979700D02*
X99401700Y-71979700D01*
X95590000Y-75790000D02*
X99401000Y-71979000D01*
X99401000Y-71276000D02*
X98825000Y-70700000D01*
X99401000Y-71979000D02*
X99401000Y-71276000D01*
X107024900Y-62403700D02*
X104635800Y-60014600D01*
X107024900Y-64129000D02*
X107024900Y-62403700D01*
X106669600Y-64484300D02*
X107024900Y-64129000D01*
X104635800Y-64484300D02*
X106669600Y-64484300D01*
X104635800Y-63634600D02*
X104635800Y-64484300D01*
X104068300Y-65444600D02*
X104635800Y-65444600D01*
X104635800Y-64484300D02*
X104635800Y-65444600D01*
X104635800Y-65444600D02*
X104635800Y-67254600D01*
X104327600Y-56702800D02*
X101620000Y-56702800D01*
X104635800Y-56394600D02*
X104327600Y-56702800D01*
X91866200Y-53373400D02*
X87052700Y-48559900D01*
X98629000Y-53373400D02*
X91866200Y-53373400D01*
X101620000Y-56364400D02*
X98629000Y-53373400D01*
X101620000Y-56702800D02*
X101620000Y-56364400D01*
%TD*%
M02*
