G04 #@! TF.GenerationSoftware,KiCad,Pcbnew,(6.0.2)*
G04 #@! TF.CreationDate,2022-10-15T16:32:30-07:00*
G04 #@! TF.ProjectId,RAM and ROM,52414d20-616e-4642-9052-4f4d2e6b6963,1.0*
G04 #@! TF.SameCoordinates,Original*
G04 #@! TF.FileFunction,Legend,Top*
G04 #@! TF.FilePolarity,Positive*
%FSLAX46Y46*%
G04 Gerber Fmt 4.6, Leading zero omitted, Abs format (unit mm)*
G04 Created by KiCad (PCBNEW (6.0.2)) date 2022-10-15 16:32:30*
%MOMM*%
%LPD*%
G01*
G04 APERTURE LIST*
%ADD10C,0.150000*%
%ADD11C,0.600000*%
%ADD12C,0.120000*%
%ADD13C,3.200000*%
%ADD14R,2.400000X1.600000*%
%ADD15O,2.400000X1.600000*%
%ADD16C,1.600000*%
%ADD17R,1.600000X1.600000*%
%ADD18O,1.600000X1.600000*%
%ADD19R,1.700000X1.700000*%
%ADD20O,1.700000X1.700000*%
G04 APERTURE END LIST*
D10*
X137882380Y-125499428D02*
X137882380Y-125308952D01*
X137930000Y-125213714D01*
X138025238Y-125118476D01*
X138215714Y-125070857D01*
X138549047Y-125070857D01*
X138739523Y-125118476D01*
X138834761Y-125213714D01*
X138882380Y-125308952D01*
X138882380Y-125499428D01*
X138834761Y-125594666D01*
X138739523Y-125689904D01*
X138549047Y-125737523D01*
X138215714Y-125737523D01*
X138025238Y-125689904D01*
X137930000Y-125594666D01*
X137882380Y-125499428D01*
X138882380Y-124642285D02*
X137882380Y-124642285D01*
X137882380Y-124404190D01*
X137930000Y-124261333D01*
X138025238Y-124166095D01*
X138120476Y-124118476D01*
X138310952Y-124070857D01*
X138453809Y-124070857D01*
X138644285Y-124118476D01*
X138739523Y-124166095D01*
X138834761Y-124261333D01*
X138882380Y-124404190D01*
X138882380Y-124642285D01*
X138882380Y-123642285D02*
X137882380Y-123642285D01*
X137882380Y-123404190D01*
X137930000Y-123261333D01*
X138025238Y-123166095D01*
X138120476Y-123118476D01*
X138310952Y-123070857D01*
X138453809Y-123070857D01*
X138644285Y-123118476D01*
X138739523Y-123166095D01*
X138834761Y-123261333D01*
X138882380Y-123404190D01*
X138882380Y-123642285D01*
X138882380Y-121308952D02*
X138406190Y-121642285D01*
X138882380Y-121880380D02*
X137882380Y-121880380D01*
X137882380Y-121499428D01*
X137930000Y-121404190D01*
X137977619Y-121356571D01*
X138072857Y-121308952D01*
X138215714Y-121308952D01*
X138310952Y-121356571D01*
X138358571Y-121404190D01*
X138406190Y-121499428D01*
X138406190Y-121880380D01*
X137882380Y-120689904D02*
X137882380Y-120499428D01*
X137930000Y-120404190D01*
X138025238Y-120308952D01*
X138215714Y-120261333D01*
X138549047Y-120261333D01*
X138739523Y-120308952D01*
X138834761Y-120404190D01*
X138882380Y-120499428D01*
X138882380Y-120689904D01*
X138834761Y-120785142D01*
X138739523Y-120880380D01*
X138549047Y-120928000D01*
X138215714Y-120928000D01*
X138025238Y-120880380D01*
X137930000Y-120785142D01*
X137882380Y-120689904D01*
X138882380Y-119832761D02*
X137882380Y-119832761D01*
X138596666Y-119499428D01*
X137882380Y-119166095D01*
X138882380Y-119166095D01*
X166044571Y-126023238D02*
X166044571Y-125689904D01*
X166568380Y-125547047D02*
X166568380Y-126023238D01*
X165568380Y-126023238D01*
X165568380Y-125547047D01*
X165568380Y-125261333D02*
X166568380Y-124928000D01*
X165568380Y-124594666D01*
X166044571Y-124261333D02*
X166044571Y-123928000D01*
X166568380Y-123785142D02*
X166568380Y-124261333D01*
X165568380Y-124261333D01*
X165568380Y-123785142D01*
X166568380Y-123356571D02*
X165568380Y-123356571D01*
X166568380Y-122785142D01*
X165568380Y-122785142D01*
X166568380Y-120975619D02*
X166092190Y-121308952D01*
X166568380Y-121547047D02*
X165568380Y-121547047D01*
X165568380Y-121166095D01*
X165616000Y-121070857D01*
X165663619Y-121023238D01*
X165758857Y-120975619D01*
X165901714Y-120975619D01*
X165996952Y-121023238D01*
X166044571Y-121070857D01*
X166092190Y-121166095D01*
X166092190Y-121547047D01*
X165568380Y-120356571D02*
X165568380Y-120166095D01*
X165616000Y-120070857D01*
X165711238Y-119975619D01*
X165901714Y-119928000D01*
X166235047Y-119928000D01*
X166425523Y-119975619D01*
X166520761Y-120070857D01*
X166568380Y-120166095D01*
X166568380Y-120356571D01*
X166520761Y-120451809D01*
X166425523Y-120547047D01*
X166235047Y-120594666D01*
X165901714Y-120594666D01*
X165711238Y-120547047D01*
X165616000Y-120451809D01*
X165568380Y-120356571D01*
X166568380Y-119499428D02*
X165568380Y-119499428D01*
X166282666Y-119166095D01*
X165568380Y-118832761D01*
X166568380Y-118832761D01*
D11*
X191825714Y-69091428D02*
X191682857Y-69520000D01*
X191682857Y-70234285D01*
X191825714Y-70520000D01*
X191968571Y-70662857D01*
X192254285Y-70805714D01*
X192540000Y-70805714D01*
X192825714Y-70662857D01*
X192968571Y-70520000D01*
X193111428Y-70234285D01*
X193254285Y-69662857D01*
X193397142Y-69377142D01*
X193540000Y-69234285D01*
X193825714Y-69091428D01*
X194111428Y-69091428D01*
X194397142Y-69234285D01*
X194540000Y-69377142D01*
X194682857Y-69662857D01*
X194682857Y-70377142D01*
X194540000Y-70805714D01*
X193682857Y-71662857D02*
X193682857Y-72805714D01*
X194682857Y-72091428D02*
X192111428Y-72091428D01*
X191825714Y-72234285D01*
X191682857Y-72520000D01*
X191682857Y-72805714D01*
X191825714Y-74948571D02*
X191682857Y-74662857D01*
X191682857Y-74091428D01*
X191825714Y-73805714D01*
X192111428Y-73662857D01*
X193254285Y-73662857D01*
X193540000Y-73805714D01*
X193682857Y-74091428D01*
X193682857Y-74662857D01*
X193540000Y-74948571D01*
X193254285Y-75091428D01*
X192968571Y-75091428D01*
X192682857Y-73662857D01*
X193682857Y-76091428D02*
X191682857Y-76805714D01*
X193682857Y-77520000D01*
X191825714Y-79805714D02*
X191682857Y-79520000D01*
X191682857Y-78948571D01*
X191825714Y-78662857D01*
X192111428Y-78520000D01*
X193254285Y-78520000D01*
X193540000Y-78662857D01*
X193682857Y-78948571D01*
X193682857Y-79520000D01*
X193540000Y-79805714D01*
X193254285Y-79948571D01*
X192968571Y-79948571D01*
X192682857Y-78520000D01*
X194682857Y-84805714D02*
X194682857Y-84234285D01*
X194540000Y-83948571D01*
X194397142Y-83805714D01*
X193968571Y-83520000D01*
X193397142Y-83377142D01*
X192254285Y-83377142D01*
X191968571Y-83520000D01*
X191825714Y-83662857D01*
X191682857Y-83948571D01*
X191682857Y-84520000D01*
X191825714Y-84805714D01*
X191968571Y-84948571D01*
X192254285Y-85091428D01*
X192968571Y-85091428D01*
X193254285Y-84948571D01*
X193397142Y-84805714D01*
X193540000Y-84520000D01*
X193540000Y-83948571D01*
X193397142Y-83662857D01*
X193254285Y-83520000D01*
X192968571Y-83377142D01*
X193397142Y-86805714D02*
X193540000Y-86520000D01*
X193682857Y-86377142D01*
X193968571Y-86234285D01*
X194111428Y-86234285D01*
X194397142Y-86377142D01*
X194540000Y-86520000D01*
X194682857Y-86805714D01*
X194682857Y-87377142D01*
X194540000Y-87662857D01*
X194397142Y-87805714D01*
X194111428Y-87948571D01*
X193968571Y-87948571D01*
X193682857Y-87805714D01*
X193540000Y-87662857D01*
X193397142Y-87377142D01*
X193397142Y-86805714D01*
X193254285Y-86520000D01*
X193111428Y-86377142D01*
X192825714Y-86234285D01*
X192254285Y-86234285D01*
X191968571Y-86377142D01*
X191825714Y-86520000D01*
X191682857Y-86805714D01*
X191682857Y-87377142D01*
X191825714Y-87662857D01*
X191968571Y-87805714D01*
X192254285Y-87948571D01*
X192825714Y-87948571D01*
X193111428Y-87805714D01*
X193254285Y-87662857D01*
X193397142Y-87377142D01*
X191682857Y-89234285D02*
X194682857Y-89234285D01*
X192825714Y-89520000D02*
X191682857Y-90377142D01*
X193682857Y-90377142D02*
X192540000Y-89234285D01*
X191682857Y-95662857D02*
X193111428Y-94662857D01*
X191682857Y-93948571D02*
X194682857Y-93948571D01*
X194682857Y-95091428D01*
X194540000Y-95377142D01*
X194397142Y-95520000D01*
X194111428Y-95662857D01*
X193682857Y-95662857D01*
X193397142Y-95520000D01*
X193254285Y-95377142D01*
X193111428Y-95091428D01*
X193111428Y-93948571D01*
X192540000Y-96805714D02*
X192540000Y-98234285D01*
X191682857Y-96520000D02*
X194682857Y-97520000D01*
X191682857Y-98520000D01*
X191682857Y-99520000D02*
X194682857Y-99520000D01*
X192540000Y-100520000D01*
X194682857Y-101520000D01*
X191682857Y-101520000D01*
X191682857Y-106520000D02*
X193254285Y-106520000D01*
X193540000Y-106377142D01*
X193682857Y-106091428D01*
X193682857Y-105520000D01*
X193540000Y-105234285D01*
X191825714Y-106520000D02*
X191682857Y-106234285D01*
X191682857Y-105520000D01*
X191825714Y-105234285D01*
X192111428Y-105091428D01*
X192397142Y-105091428D01*
X192682857Y-105234285D01*
X192825714Y-105520000D01*
X192825714Y-106234285D01*
X192968571Y-106520000D01*
X193682857Y-107948571D02*
X191682857Y-107948571D01*
X193397142Y-107948571D02*
X193540000Y-108091428D01*
X193682857Y-108377142D01*
X193682857Y-108805714D01*
X193540000Y-109091428D01*
X193254285Y-109234285D01*
X191682857Y-109234285D01*
X191682857Y-111948571D02*
X194682857Y-111948571D01*
X191825714Y-111948571D02*
X191682857Y-111662857D01*
X191682857Y-111091428D01*
X191825714Y-110805714D01*
X191968571Y-110662857D01*
X192254285Y-110520000D01*
X193111428Y-110520000D01*
X193397142Y-110662857D01*
X193540000Y-110805714D01*
X193682857Y-111091428D01*
X193682857Y-111662857D01*
X193540000Y-111948571D01*
X191682857Y-117377142D02*
X193111428Y-116377142D01*
X191682857Y-115662857D02*
X194682857Y-115662857D01*
X194682857Y-116805714D01*
X194540000Y-117091428D01*
X194397142Y-117234285D01*
X194111428Y-117377142D01*
X193682857Y-117377142D01*
X193397142Y-117234285D01*
X193254285Y-117091428D01*
X193111428Y-116805714D01*
X193111428Y-115662857D01*
X194682857Y-119234285D02*
X194682857Y-119805714D01*
X194540000Y-120091428D01*
X194254285Y-120377142D01*
X193682857Y-120520000D01*
X192682857Y-120520000D01*
X192111428Y-120377142D01*
X191825714Y-120091428D01*
X191682857Y-119805714D01*
X191682857Y-119234285D01*
X191825714Y-118948571D01*
X192111428Y-118662857D01*
X192682857Y-118520000D01*
X193682857Y-118520000D01*
X194254285Y-118662857D01*
X194540000Y-118948571D01*
X194682857Y-119234285D01*
X191682857Y-121805714D02*
X194682857Y-121805714D01*
X192540000Y-122805714D01*
X194682857Y-123805714D01*
X191682857Y-123805714D01*
D10*
X122936095Y-57320380D02*
X122936095Y-58129904D01*
X122983714Y-58225142D01*
X123031333Y-58272761D01*
X123126571Y-58320380D01*
X123317047Y-58320380D01*
X123412285Y-58272761D01*
X123459904Y-58225142D01*
X123507523Y-58129904D01*
X123507523Y-57320380D01*
X123888476Y-57320380D02*
X124507523Y-57320380D01*
X124174190Y-57701333D01*
X124317047Y-57701333D01*
X124412285Y-57748952D01*
X124459904Y-57796571D01*
X124507523Y-57891809D01*
X124507523Y-58129904D01*
X124459904Y-58225142D01*
X124412285Y-58272761D01*
X124317047Y-58320380D01*
X124031333Y-58320380D01*
X123936095Y-58272761D01*
X123888476Y-58225142D01*
X123531333Y-53683142D02*
X123483714Y-53730761D01*
X123340857Y-53778380D01*
X123245619Y-53778380D01*
X123102761Y-53730761D01*
X123007523Y-53635523D01*
X122959904Y-53540285D01*
X122912285Y-53349809D01*
X122912285Y-53206952D01*
X122959904Y-53016476D01*
X123007523Y-52921238D01*
X123102761Y-52826000D01*
X123245619Y-52778380D01*
X123340857Y-52778380D01*
X123483714Y-52826000D01*
X123531333Y-52873619D01*
X123864666Y-52778380D02*
X124531333Y-52778380D01*
X124102761Y-53778380D01*
X147803095Y-101770380D02*
X147803095Y-102579904D01*
X147850714Y-102675142D01*
X147898333Y-102722761D01*
X147993571Y-102770380D01*
X148184047Y-102770380D01*
X148279285Y-102722761D01*
X148326904Y-102675142D01*
X148374523Y-102579904D01*
X148374523Y-101770380D01*
X148803095Y-101865619D02*
X148850714Y-101818000D01*
X148945952Y-101770380D01*
X149184047Y-101770380D01*
X149279285Y-101818000D01*
X149326904Y-101865619D01*
X149374523Y-101960857D01*
X149374523Y-102056095D01*
X149326904Y-102198952D01*
X148755476Y-102770380D01*
X149374523Y-102770380D01*
X148403333Y-98133142D02*
X148355714Y-98180761D01*
X148212857Y-98228380D01*
X148117619Y-98228380D01*
X147974761Y-98180761D01*
X147879523Y-98085523D01*
X147831904Y-97990285D01*
X147784285Y-97799809D01*
X147784285Y-97656952D01*
X147831904Y-97466476D01*
X147879523Y-97371238D01*
X147974761Y-97276000D01*
X148117619Y-97228380D01*
X148212857Y-97228380D01*
X148355714Y-97276000D01*
X148403333Y-97323619D01*
X148784285Y-97323619D02*
X148831904Y-97276000D01*
X148927142Y-97228380D01*
X149165238Y-97228380D01*
X149260476Y-97276000D01*
X149308095Y-97323619D01*
X149355714Y-97418857D01*
X149355714Y-97514095D01*
X149308095Y-97656952D01*
X148736666Y-98228380D01*
X149355714Y-98228380D01*
X176368333Y-49111142D02*
X176320714Y-49158761D01*
X176177857Y-49206380D01*
X176082619Y-49206380D01*
X175939761Y-49158761D01*
X175844523Y-49063523D01*
X175796904Y-48968285D01*
X175749285Y-48777809D01*
X175749285Y-48634952D01*
X175796904Y-48444476D01*
X175844523Y-48349238D01*
X175939761Y-48254000D01*
X176082619Y-48206380D01*
X176177857Y-48206380D01*
X176320714Y-48254000D01*
X176368333Y-48301619D01*
X177320714Y-49206380D02*
X176749285Y-49206380D01*
X177035000Y-49206380D02*
X177035000Y-48206380D01*
X176939761Y-48349238D01*
X176844523Y-48444476D01*
X176749285Y-48492095D01*
X176368333Y-98133142D02*
X176320714Y-98180761D01*
X176177857Y-98228380D01*
X176082619Y-98228380D01*
X175939761Y-98180761D01*
X175844523Y-98085523D01*
X175796904Y-97990285D01*
X175749285Y-97799809D01*
X175749285Y-97656952D01*
X175796904Y-97466476D01*
X175844523Y-97371238D01*
X175939761Y-97276000D01*
X176082619Y-97228380D01*
X176177857Y-97228380D01*
X176320714Y-97276000D01*
X176368333Y-97323619D01*
X177225476Y-97561714D02*
X177225476Y-98228380D01*
X176987380Y-97180761D02*
X176749285Y-97895047D01*
X177368333Y-97895047D01*
X148403333Y-49111142D02*
X148355714Y-49158761D01*
X148212857Y-49206380D01*
X148117619Y-49206380D01*
X147974761Y-49158761D01*
X147879523Y-49063523D01*
X147831904Y-48968285D01*
X147784285Y-48777809D01*
X147784285Y-48634952D01*
X147831904Y-48444476D01*
X147879523Y-48349238D01*
X147974761Y-48254000D01*
X148117619Y-48206380D01*
X148212857Y-48206380D01*
X148355714Y-48254000D01*
X148403333Y-48301619D01*
X148736666Y-48206380D02*
X149355714Y-48206380D01*
X149022380Y-48587333D01*
X149165238Y-48587333D01*
X149260476Y-48634952D01*
X149308095Y-48682571D01*
X149355714Y-48777809D01*
X149355714Y-49015904D01*
X149308095Y-49111142D01*
X149260476Y-49158761D01*
X149165238Y-49206380D01*
X148879523Y-49206380D01*
X148784285Y-49158761D01*
X148736666Y-49111142D01*
X147803095Y-52658380D02*
X147803095Y-53467904D01*
X147850714Y-53563142D01*
X147898333Y-53610761D01*
X147993571Y-53658380D01*
X148184047Y-53658380D01*
X148279285Y-53610761D01*
X148326904Y-53563142D01*
X148374523Y-53467904D01*
X148374523Y-52658380D01*
X149279285Y-52991714D02*
X149279285Y-53658380D01*
X149041190Y-52610761D02*
X148803095Y-53325047D01*
X149422142Y-53325047D01*
X97135666Y-137617380D02*
X97135666Y-138331666D01*
X97088047Y-138474523D01*
X96992809Y-138569761D01*
X96849952Y-138617380D01*
X96754714Y-138617380D01*
X98135666Y-138617380D02*
X97564238Y-138617380D01*
X97849952Y-138617380D02*
X97849952Y-137617380D01*
X97754714Y-137760238D01*
X97659476Y-137855476D01*
X97564238Y-137903095D01*
X175768095Y-101770380D02*
X175768095Y-102579904D01*
X175815714Y-102675142D01*
X175863333Y-102722761D01*
X175958571Y-102770380D01*
X176149047Y-102770380D01*
X176244285Y-102722761D01*
X176291904Y-102675142D01*
X176339523Y-102579904D01*
X176339523Y-101770380D01*
X177291904Y-101770380D02*
X176815714Y-101770380D01*
X176768095Y-102246571D01*
X176815714Y-102198952D01*
X176910952Y-102151333D01*
X177149047Y-102151333D01*
X177244285Y-102198952D01*
X177291904Y-102246571D01*
X177339523Y-102341809D01*
X177339523Y-102579904D01*
X177291904Y-102675142D01*
X177244285Y-102722761D01*
X177149047Y-102770380D01*
X176910952Y-102770380D01*
X176815714Y-102722761D01*
X176768095Y-102675142D01*
X175768095Y-52658380D02*
X175768095Y-53467904D01*
X175815714Y-53563142D01*
X175863333Y-53610761D01*
X175958571Y-53658380D01*
X176149047Y-53658380D01*
X176244285Y-53610761D01*
X176291904Y-53563142D01*
X176339523Y-53467904D01*
X176339523Y-52658380D01*
X177339523Y-53658380D02*
X176768095Y-53658380D01*
X177053809Y-53658380D02*
X177053809Y-52658380D01*
X176958571Y-52801238D01*
X176863333Y-52896476D01*
X176768095Y-52944095D01*
D12*
X118448000Y-58808000D02*
X118448000Y-89528000D01*
X122698000Y-58868000D02*
X121448000Y-58868000D01*
X128948000Y-89528000D02*
X128948000Y-58808000D01*
X121448000Y-58868000D02*
X121448000Y-89468000D01*
X125948000Y-89468000D02*
X125948000Y-58868000D01*
X121448000Y-89468000D02*
X125948000Y-89468000D01*
X118448000Y-89528000D02*
X128948000Y-89528000D01*
X128948000Y-58808000D02*
X118448000Y-58808000D01*
X125948000Y-58868000D02*
X124698000Y-58868000D01*
X122698000Y-58868000D02*
G75*
G03*
X124698000Y-58868000I1000000J0D01*
G01*
X121878000Y-56551000D02*
X121878000Y-56796000D01*
X125518000Y-56551000D02*
X125518000Y-56796000D01*
X121878000Y-56796000D02*
X125518000Y-56796000D01*
X121878000Y-54456000D02*
X121878000Y-54701000D01*
X121878000Y-54456000D02*
X125518000Y-54456000D01*
X125518000Y-54456000D02*
X125518000Y-54701000D01*
X142105000Y-103318000D02*
X142105000Y-144078000D01*
X147565000Y-103318000D02*
X142105000Y-103318000D01*
X155025000Y-103318000D02*
X149565000Y-103318000D01*
X142105000Y-144078000D02*
X155025000Y-144078000D01*
X155025000Y-144078000D02*
X155025000Y-103318000D01*
X147565000Y-103318000D02*
G75*
G03*
X149565000Y-103318000I1000000J0D01*
G01*
X146750000Y-98906000D02*
X150390000Y-98906000D01*
X146750000Y-101001000D02*
X146750000Y-101246000D01*
X146750000Y-98906000D02*
X146750000Y-99151000D01*
X150390000Y-101001000D02*
X150390000Y-101246000D01*
X146750000Y-101246000D02*
X150390000Y-101246000D01*
X150390000Y-98906000D02*
X150390000Y-99151000D01*
X174715000Y-49884000D02*
X174715000Y-50129000D01*
X178355000Y-51979000D02*
X178355000Y-52224000D01*
X174715000Y-52224000D02*
X178355000Y-52224000D01*
X174715000Y-49884000D02*
X178355000Y-49884000D01*
X174715000Y-51979000D02*
X174715000Y-52224000D01*
X178355000Y-49884000D02*
X178355000Y-50129000D01*
X178355000Y-101001000D02*
X178355000Y-101246000D01*
X174715000Y-98906000D02*
X178355000Y-98906000D01*
X174715000Y-98906000D02*
X174715000Y-99151000D01*
X178355000Y-98906000D02*
X178355000Y-99151000D01*
X174715000Y-101246000D02*
X178355000Y-101246000D01*
X174715000Y-101001000D02*
X174715000Y-101246000D01*
X146750000Y-49884000D02*
X150390000Y-49884000D01*
X150390000Y-51979000D02*
X150390000Y-52224000D01*
X150390000Y-49884000D02*
X150390000Y-50129000D01*
X146750000Y-49884000D02*
X146750000Y-50129000D01*
X146750000Y-51979000D02*
X146750000Y-52224000D01*
X146750000Y-52224000D02*
X150390000Y-52224000D01*
X155025000Y-94966000D02*
X155025000Y-54206000D01*
X142105000Y-94966000D02*
X155025000Y-94966000D01*
X142105000Y-54206000D02*
X142105000Y-94966000D01*
X147565000Y-54206000D02*
X142105000Y-54206000D01*
X155025000Y-54206000D02*
X149565000Y-54206000D01*
X147565000Y-54206000D02*
G75*
G03*
X149565000Y-54206000I1000000J0D01*
G01*
X102014000Y-136275000D02*
X101626929Y-136275000D01*
X96484000Y-82935000D02*
X90484000Y-82935000D01*
X90484000Y-117735000D02*
X96484000Y-117735000D01*
X96484000Y-128655000D02*
X90484000Y-128655000D01*
X102081071Y-62615000D02*
X101626929Y-62615000D01*
X90484000Y-120275000D02*
X96484000Y-120275000D01*
X102081071Y-125355000D02*
X101626929Y-125355000D01*
X99144000Y-124465000D02*
X96484000Y-124465000D01*
X90484000Y-61855000D02*
X96484000Y-61855000D01*
X99541071Y-64395000D02*
X99144000Y-64395000D01*
X99541071Y-122815000D02*
X99144000Y-122815000D01*
X96484000Y-55825000D02*
X96484000Y-137225000D01*
X96484000Y-72775000D02*
X90484000Y-72775000D01*
X102081071Y-79635000D02*
X101626929Y-79635000D01*
X99541071Y-74555000D02*
X99144000Y-74555000D01*
X99541071Y-115195000D02*
X99144000Y-115195000D01*
X102014000Y-135515000D02*
X101626929Y-135515000D01*
X99144000Y-68585000D02*
X96484000Y-68585000D01*
X90484000Y-97415000D02*
X96484000Y-97415000D01*
X99144000Y-137225000D02*
X99144000Y-55825000D01*
X96484000Y-126115000D02*
X90484000Y-126115000D01*
X102081071Y-93095000D02*
X101626929Y-93095000D01*
X99541071Y-95635000D02*
X99144000Y-95635000D01*
X102081071Y-131195000D02*
X101626929Y-131195000D01*
X102081071Y-77855000D02*
X101626929Y-77855000D01*
X96484000Y-115955000D02*
X90484000Y-115955000D01*
X102081071Y-56775000D02*
X101626929Y-56775000D01*
X90484000Y-72775000D02*
X90484000Y-72015000D01*
X90484000Y-56775000D02*
X96484000Y-56775000D01*
X96484000Y-77855000D02*
X90484000Y-77855000D01*
X96484000Y-121035000D02*
X90484000Y-121035000D01*
X99541071Y-125355000D02*
X99144000Y-125355000D01*
X102081071Y-89795000D02*
X101626929Y-89795000D01*
X102081071Y-110875000D02*
X101626929Y-110875000D01*
X90484000Y-103255000D02*
X90484000Y-102495000D01*
X102081071Y-87255000D02*
X101626929Y-87255000D01*
X102081071Y-84715000D02*
X101626929Y-84715000D01*
X102081071Y-107575000D02*
X101626929Y-107575000D01*
X102081071Y-64395000D02*
X101626929Y-64395000D01*
X90484000Y-115195000D02*
X96484000Y-115195000D01*
X99144000Y-111765000D02*
X96484000Y-111765000D01*
X102081071Y-112655000D02*
X101626929Y-112655000D01*
X96484000Y-118495000D02*
X90484000Y-118495000D01*
X99144000Y-88905000D02*
X96484000Y-88905000D01*
X99541071Y-99955000D02*
X99144000Y-99955000D01*
X102081071Y-110115000D02*
X101626929Y-110115000D01*
X96484000Y-131195000D02*
X90484000Y-131195000D01*
X99541071Y-60075000D02*
X99144000Y-60075000D01*
X96484000Y-93095000D02*
X90484000Y-93095000D01*
X90484000Y-85475000D02*
X90484000Y-84715000D01*
X99144000Y-71125000D02*
X96484000Y-71125000D01*
X90484000Y-127895000D02*
X96484000Y-127895000D01*
X90484000Y-110115000D02*
X96484000Y-110115000D01*
X99541071Y-132975000D02*
X99144000Y-132975000D01*
X99541071Y-75315000D02*
X99144000Y-75315000D01*
X99541071Y-85475000D02*
X99144000Y-85475000D01*
X102081071Y-105035000D02*
X101626929Y-105035000D01*
X99541071Y-66935000D02*
X99144000Y-66935000D01*
X90484000Y-118495000D02*
X90484000Y-117735000D01*
X96484000Y-103255000D02*
X90484000Y-103255000D01*
X102081071Y-75315000D02*
X101626929Y-75315000D01*
X90484000Y-70235000D02*
X90484000Y-69475000D01*
X96484000Y-62615000D02*
X90484000Y-62615000D01*
X99541071Y-56775000D02*
X99144000Y-56775000D01*
X90484000Y-75315000D02*
X90484000Y-74555000D01*
X99541071Y-105035000D02*
X99144000Y-105035000D01*
X102081071Y-115195000D02*
X101626929Y-115195000D01*
X99541071Y-97415000D02*
X99144000Y-97415000D01*
X90484000Y-62615000D02*
X90484000Y-61855000D01*
X99541071Y-133735000D02*
X99144000Y-133735000D01*
X96484000Y-110875000D02*
X90484000Y-110875000D01*
X99541071Y-80395000D02*
X99144000Y-80395000D01*
X90484000Y-79635000D02*
X96484000Y-79635000D01*
X102081071Y-65155000D02*
X101626929Y-65155000D01*
X99541071Y-88015000D02*
X99144000Y-88015000D01*
X96484000Y-60075000D02*
X90484000Y-60075000D01*
X90484000Y-125355000D02*
X96484000Y-125355000D01*
X102081071Y-72015000D02*
X101626929Y-72015000D01*
X90484000Y-126115000D02*
X90484000Y-125355000D01*
X90484000Y-110875000D02*
X90484000Y-110115000D01*
X102081071Y-92335000D02*
X101626929Y-92335000D01*
X99144000Y-134625000D02*
X96484000Y-134625000D01*
X90484000Y-80395000D02*
X90484000Y-79635000D01*
X99144000Y-58425000D02*
X96484000Y-58425000D01*
X102081071Y-90555000D02*
X101626929Y-90555000D01*
X99541071Y-92335000D02*
X99144000Y-92335000D01*
X99144000Y-119385000D02*
X96484000Y-119385000D01*
X99144000Y-78745000D02*
X96484000Y-78745000D01*
X90484000Y-132975000D02*
X96484000Y-132975000D01*
X96484000Y-88015000D02*
X90484000Y-88015000D01*
X99541071Y-72775000D02*
X99144000Y-72775000D01*
X96484000Y-108335000D02*
X90484000Y-108335000D01*
X96484000Y-75315000D02*
X90484000Y-75315000D01*
X96484000Y-70235000D02*
X90484000Y-70235000D01*
X102081071Y-121035000D02*
X101626929Y-121035000D01*
X99541071Y-93095000D02*
X99144000Y-93095000D01*
X99541071Y-82935000D02*
X99144000Y-82935000D01*
X99144000Y-109225000D02*
X96484000Y-109225000D01*
X102081071Y-61855000D02*
X101626929Y-61855000D01*
X102081071Y-77095000D02*
X101626929Y-77095000D01*
X99144000Y-81285000D02*
X96484000Y-81285000D01*
X102081071Y-105795000D02*
X101626929Y-105795000D01*
X96484000Y-137225000D02*
X99144000Y-137225000D01*
X90484000Y-82935000D02*
X90484000Y-82175000D01*
X102081071Y-99955000D02*
X101626929Y-99955000D01*
X99144000Y-132085000D02*
X96484000Y-132085000D01*
X102081071Y-95635000D02*
X101626929Y-95635000D01*
X99144000Y-93985000D02*
X96484000Y-93985000D01*
X90484000Y-66935000D02*
X96484000Y-66935000D01*
X102081071Y-113415000D02*
X101626929Y-113415000D01*
X90484000Y-90555000D02*
X90484000Y-89795000D01*
X102081071Y-103255000D02*
X101626929Y-103255000D01*
X99541071Y-112655000D02*
X99144000Y-112655000D01*
X99541071Y-115955000D02*
X99144000Y-115955000D01*
X99144000Y-114305000D02*
X96484000Y-114305000D01*
X99541071Y-87255000D02*
X99144000Y-87255000D01*
X96484000Y-136215000D02*
X90484000Y-136215000D01*
X90484000Y-59315000D02*
X96484000Y-59315000D01*
X90484000Y-108335000D02*
X90484000Y-107575000D01*
X99144000Y-63505000D02*
X96484000Y-63505000D01*
X99144000Y-73665000D02*
X96484000Y-73665000D01*
X96484000Y-105795000D02*
X90484000Y-105795000D01*
X102081071Y-133735000D02*
X101626929Y-133735000D01*
X99541071Y-131195000D02*
X99144000Y-131195000D01*
X96484000Y-135615000D02*
X90484000Y-135615000D01*
X102081071Y-98175000D02*
X101626929Y-98175000D01*
X99144000Y-104145000D02*
X96484000Y-104145000D01*
X99541071Y-90555000D02*
X99144000Y-90555000D01*
X102081071Y-132975000D02*
X101626929Y-132975000D01*
X99541071Y-94875000D02*
X99144000Y-94875000D01*
X90484000Y-115955000D02*
X90484000Y-115195000D01*
X102081071Y-126115000D02*
X101626929Y-126115000D01*
X90484000Y-67695000D02*
X90484000Y-66935000D01*
X99541071Y-103255000D02*
X99144000Y-103255000D01*
X96484000Y-135975000D02*
X90484000Y-135975000D01*
X102081071Y-117735000D02*
X101626929Y-117735000D01*
X104394000Y-137165000D02*
X103124000Y-137165000D01*
X90484000Y-94875000D02*
X96484000Y-94875000D01*
X102081071Y-85475000D02*
X101626929Y-85475000D01*
X99144000Y-116845000D02*
X96484000Y-116845000D01*
X102081071Y-60075000D02*
X101626929Y-60075000D01*
X99541071Y-108335000D02*
X99144000Y-108335000D01*
X90484000Y-84715000D02*
X96484000Y-84715000D01*
X99144000Y-55825000D02*
X96484000Y-55825000D01*
X96484000Y-95635000D02*
X90484000Y-95635000D01*
X90484000Y-93095000D02*
X90484000Y-92335000D01*
X96484000Y-136095000D02*
X90484000Y-136095000D01*
X99144000Y-66045000D02*
X96484000Y-66045000D01*
X90484000Y-121035000D02*
X90484000Y-120275000D01*
X96484000Y-113415000D02*
X90484000Y-113415000D01*
X90484000Y-136275000D02*
X90484000Y-135515000D01*
X102081071Y-97415000D02*
X101626929Y-97415000D01*
X99541071Y-72015000D02*
X99144000Y-72015000D01*
X99541071Y-102495000D02*
X99144000Y-102495000D01*
X90484000Y-102495000D02*
X96484000Y-102495000D01*
X102081071Y-120275000D02*
X101626929Y-120275000D01*
X99541071Y-65155000D02*
X99144000Y-65155000D01*
X102081071Y-108335000D02*
X101626929Y-108335000D01*
X99541071Y-123575000D02*
X99144000Y-123575000D01*
X99541071Y-70235000D02*
X99144000Y-70235000D01*
X99541071Y-126115000D02*
X99144000Y-126115000D01*
X99541071Y-107575000D02*
X99144000Y-107575000D01*
X102081071Y-67695000D02*
X101626929Y-67695000D01*
X90484000Y-100715000D02*
X90484000Y-99955000D01*
X96484000Y-98175000D02*
X90484000Y-98175000D01*
X96484000Y-90555000D02*
X90484000Y-90555000D01*
X99541071Y-62615000D02*
X99144000Y-62615000D01*
X99144000Y-76205000D02*
X96484000Y-76205000D01*
X99541071Y-89795000D02*
X99144000Y-89795000D01*
X99541071Y-121035000D02*
X99144000Y-121035000D01*
X90484000Y-122815000D02*
X96484000Y-122815000D01*
X102081071Y-130435000D02*
X101626929Y-130435000D01*
X102081071Y-69475000D02*
X101626929Y-69475000D01*
X102081071Y-94875000D02*
X101626929Y-94875000D01*
X90484000Y-82175000D02*
X96484000Y-82175000D01*
X102081071Y-128655000D02*
X101626929Y-128655000D01*
X99541071Y-135515000D02*
X99144000Y-135515000D01*
X99541071Y-118495000D02*
X99144000Y-118495000D01*
X102081071Y-118495000D02*
X101626929Y-118495000D01*
X90484000Y-87255000D02*
X96484000Y-87255000D01*
X90484000Y-77095000D02*
X96484000Y-77095000D01*
X90484000Y-88015000D02*
X90484000Y-87255000D01*
X102081071Y-80395000D02*
X101626929Y-80395000D01*
X99144000Y-99065000D02*
X96484000Y-99065000D01*
X102081071Y-123575000D02*
X101626929Y-123575000D01*
X99144000Y-106685000D02*
X96484000Y-106685000D01*
X102081071Y-70235000D02*
X101626929Y-70235000D01*
X99144000Y-96525000D02*
X96484000Y-96525000D01*
X102081071Y-102495000D02*
X101626929Y-102495000D01*
X102081071Y-100715000D02*
X101626929Y-100715000D01*
X99541071Y-84715000D02*
X99144000Y-84715000D01*
X96484000Y-85475000D02*
X90484000Y-85475000D01*
X99541071Y-67695000D02*
X99144000Y-67695000D01*
X102081071Y-74555000D02*
X101626929Y-74555000D01*
X96484000Y-133735000D02*
X90484000Y-133735000D01*
X90484000Y-77855000D02*
X90484000Y-77095000D01*
X90484000Y-105795000D02*
X90484000Y-105035000D01*
X90484000Y-95635000D02*
X90484000Y-94875000D01*
X102081071Y-82175000D02*
X101626929Y-82175000D01*
X90484000Y-60075000D02*
X90484000Y-59315000D01*
X102081071Y-82935000D02*
X101626929Y-82935000D01*
X96484000Y-136275000D02*
X90484000Y-136275000D01*
X99541071Y-77095000D02*
X99144000Y-77095000D01*
X99541071Y-136275000D02*
X99144000Y-136275000D01*
X102081071Y-72775000D02*
X101626929Y-72775000D01*
X96484000Y-80395000D02*
X90484000Y-80395000D01*
X99144000Y-60965000D02*
X96484000Y-60965000D01*
X99541071Y-120275000D02*
X99144000Y-120275000D01*
X99541071Y-79635000D02*
X99144000Y-79635000D01*
X99541071Y-130435000D02*
X99144000Y-130435000D01*
X99541071Y-117735000D02*
X99144000Y-117735000D01*
X99541071Y-61855000D02*
X99144000Y-61855000D01*
X104394000Y-135895000D02*
X104394000Y-137165000D01*
X99541071Y-128655000D02*
X99144000Y-128655000D01*
X90484000Y-131195000D02*
X90484000Y-130435000D01*
X90484000Y-89795000D02*
X96484000Y-89795000D01*
X99541071Y-82175000D02*
X99144000Y-82175000D01*
X99541071Y-110115000D02*
X99144000Y-110115000D01*
X90484000Y-74555000D02*
X96484000Y-74555000D01*
X90484000Y-105035000D02*
X96484000Y-105035000D01*
X90484000Y-57535000D02*
X90484000Y-56775000D01*
X102081071Y-57535000D02*
X101626929Y-57535000D01*
X99541071Y-69475000D02*
X99144000Y-69475000D01*
X96484000Y-65155000D02*
X90484000Y-65155000D01*
X90484000Y-65155000D02*
X90484000Y-64395000D01*
X99144000Y-121925000D02*
X96484000Y-121925000D01*
X96484000Y-123575000D02*
X90484000Y-123575000D01*
X99144000Y-86365000D02*
X96484000Y-86365000D01*
X90484000Y-135515000D02*
X96484000Y-135515000D01*
X99541071Y-113415000D02*
X99144000Y-113415000D01*
X90484000Y-92335000D02*
X96484000Y-92335000D01*
X90484000Y-98175000D02*
X90484000Y-97415000D01*
X90484000Y-113415000D02*
X90484000Y-112655000D01*
X90484000Y-64395000D02*
X96484000Y-64395000D01*
X102081071Y-122815000D02*
X101626929Y-122815000D01*
X90484000Y-72015000D02*
X96484000Y-72015000D01*
X102081071Y-88015000D02*
X101626929Y-88015000D01*
X102081071Y-59315000D02*
X101626929Y-59315000D01*
X96484000Y-100715000D02*
X90484000Y-100715000D01*
X99541071Y-59315000D02*
X99144000Y-59315000D01*
X90484000Y-128655000D02*
X90484000Y-127895000D01*
X90484000Y-99955000D02*
X96484000Y-99955000D01*
X96484000Y-135855000D02*
X90484000Y-135855000D01*
X90484000Y-130435000D02*
X96484000Y-130435000D01*
X99541071Y-98175000D02*
X99144000Y-98175000D01*
X102081071Y-127895000D02*
X101626929Y-127895000D01*
X99541071Y-77855000D02*
X99144000Y-77855000D01*
X90484000Y-123575000D02*
X90484000Y-122815000D01*
X99144000Y-127005000D02*
X96484000Y-127005000D01*
X99144000Y-129545000D02*
X96484000Y-129545000D01*
X99144000Y-101605000D02*
X96484000Y-101605000D01*
X99541071Y-57535000D02*
X99144000Y-57535000D01*
X96484000Y-135735000D02*
X90484000Y-135735000D01*
X90484000Y-112655000D02*
X96484000Y-112655000D01*
X90484000Y-133735000D02*
X90484000Y-132975000D01*
X99144000Y-83825000D02*
X96484000Y-83825000D01*
X102081071Y-66935000D02*
X101626929Y-66935000D01*
X102081071Y-115955000D02*
X101626929Y-115955000D01*
X99541071Y-110875000D02*
X99144000Y-110875000D01*
X90484000Y-69475000D02*
X96484000Y-69475000D01*
X96484000Y-57535000D02*
X90484000Y-57535000D01*
X90484000Y-107575000D02*
X96484000Y-107575000D01*
X99144000Y-91445000D02*
X96484000Y-91445000D01*
X99541071Y-100715000D02*
X99144000Y-100715000D01*
X99541071Y-105795000D02*
X99144000Y-105795000D01*
X99541071Y-127895000D02*
X99144000Y-127895000D01*
X96484000Y-67695000D02*
X90484000Y-67695000D01*
X170070000Y-144078000D02*
X182990000Y-144078000D01*
X182990000Y-144078000D02*
X182990000Y-103318000D01*
X182990000Y-103318000D02*
X177530000Y-103318000D01*
X175530000Y-103318000D02*
X170070000Y-103318000D01*
X170070000Y-103318000D02*
X170070000Y-144078000D01*
X175530000Y-103318000D02*
G75*
G03*
X177530000Y-103318000I1000000J0D01*
G01*
X170070000Y-54206000D02*
X170070000Y-94966000D01*
X182990000Y-94966000D02*
X182990000Y-54206000D01*
X170070000Y-94966000D02*
X182990000Y-94966000D01*
X175530000Y-54206000D02*
X170070000Y-54206000D01*
X182990000Y-54206000D02*
X177530000Y-54206000D01*
X175530000Y-54206000D02*
G75*
G03*
X177530000Y-54206000I1000000J0D01*
G01*
%LPC*%
D13*
X192532000Y-50419000D03*
X192532000Y-142621000D03*
X106172000Y-50419000D03*
X106172000Y-142621000D03*
D14*
X119888000Y-60198000D03*
D15*
X119888000Y-62738000D03*
X119888000Y-65278000D03*
X119888000Y-67818000D03*
X119888000Y-70358000D03*
X119888000Y-72898000D03*
X119888000Y-75438000D03*
X119888000Y-77978000D03*
X119888000Y-80518000D03*
X119888000Y-83058000D03*
X119888000Y-85598000D03*
X119888000Y-88138000D03*
X127508000Y-88138000D03*
X127508000Y-85598000D03*
X127508000Y-83058000D03*
X127508000Y-80518000D03*
X127508000Y-77978000D03*
X127508000Y-75438000D03*
X127508000Y-72898000D03*
X127508000Y-70358000D03*
X127508000Y-67818000D03*
X127508000Y-65278000D03*
X127508000Y-62738000D03*
X127508000Y-60198000D03*
D16*
X122448000Y-55626000D03*
X124948000Y-55626000D03*
D17*
X140945000Y-104648000D03*
D18*
X140945000Y-107188000D03*
X140945000Y-109728000D03*
X140945000Y-112268000D03*
X140945000Y-114808000D03*
X140945000Y-117348000D03*
X140945000Y-119888000D03*
X140945000Y-122428000D03*
X140945000Y-124968000D03*
X140945000Y-127508000D03*
X140945000Y-130048000D03*
X140945000Y-132588000D03*
X140945000Y-135128000D03*
X140945000Y-137668000D03*
X140945000Y-140208000D03*
X140945000Y-142748000D03*
X156185000Y-142748000D03*
X156185000Y-140208000D03*
X156185000Y-137668000D03*
X156185000Y-135128000D03*
X156185000Y-132588000D03*
X156185000Y-130048000D03*
X156185000Y-127508000D03*
X156185000Y-124968000D03*
X156185000Y-122428000D03*
X156185000Y-119888000D03*
X156185000Y-117348000D03*
X156185000Y-114808000D03*
X156185000Y-112268000D03*
X156185000Y-109728000D03*
X156185000Y-107188000D03*
X156185000Y-104648000D03*
D16*
X147320000Y-100076000D03*
X149820000Y-100076000D03*
X175285000Y-51054000D03*
X177785000Y-51054000D03*
X175285000Y-100076000D03*
X177785000Y-100076000D03*
X147320000Y-51054000D03*
X149820000Y-51054000D03*
D17*
X140945000Y-55536000D03*
D18*
X140945000Y-58076000D03*
X140945000Y-60616000D03*
X140945000Y-63156000D03*
X140945000Y-65696000D03*
X140945000Y-68236000D03*
X140945000Y-70776000D03*
X140945000Y-73316000D03*
X140945000Y-75856000D03*
X140945000Y-78396000D03*
X140945000Y-80936000D03*
X140945000Y-83476000D03*
X140945000Y-86016000D03*
X140945000Y-88556000D03*
X140945000Y-91096000D03*
X140945000Y-93636000D03*
X156185000Y-93636000D03*
X156185000Y-91096000D03*
X156185000Y-88556000D03*
X156185000Y-86016000D03*
X156185000Y-83476000D03*
X156185000Y-80936000D03*
X156185000Y-78396000D03*
X156185000Y-75856000D03*
X156185000Y-73316000D03*
X156185000Y-70776000D03*
X156185000Y-68236000D03*
X156185000Y-65696000D03*
X156185000Y-63156000D03*
X156185000Y-60616000D03*
X156185000Y-58076000D03*
X156185000Y-55536000D03*
D19*
X103124000Y-135895000D03*
D20*
X100584000Y-135895000D03*
X103124000Y-133355000D03*
X100584000Y-133355000D03*
X103124000Y-130815000D03*
X100584000Y-130815000D03*
X103124000Y-128275000D03*
X100584000Y-128275000D03*
X103124000Y-125735000D03*
X100584000Y-125735000D03*
X103124000Y-123195000D03*
X100584000Y-123195000D03*
X103124000Y-120655000D03*
X100584000Y-120655000D03*
X103124000Y-118115000D03*
X100584000Y-118115000D03*
X103124000Y-115575000D03*
X100584000Y-115575000D03*
X103124000Y-113035000D03*
X100584000Y-113035000D03*
X103124000Y-110495000D03*
X100584000Y-110495000D03*
X103124000Y-107955000D03*
X100584000Y-107955000D03*
X103124000Y-105415000D03*
X100584000Y-105415000D03*
X103124000Y-102875000D03*
X100584000Y-102875000D03*
X103124000Y-100335000D03*
X100584000Y-100335000D03*
X103124000Y-97795000D03*
X100584000Y-97795000D03*
X103124000Y-95255000D03*
X100584000Y-95255000D03*
X103124000Y-92715000D03*
X100584000Y-92715000D03*
X103124000Y-90175000D03*
X100584000Y-90175000D03*
X103124000Y-87635000D03*
X100584000Y-87635000D03*
X103124000Y-85095000D03*
X100584000Y-85095000D03*
X103124000Y-82555000D03*
X100584000Y-82555000D03*
X103124000Y-80015000D03*
X100584000Y-80015000D03*
X103124000Y-77475000D03*
X100584000Y-77475000D03*
X103124000Y-74935000D03*
X100584000Y-74935000D03*
X103124000Y-72395000D03*
X100584000Y-72395000D03*
X103124000Y-69855000D03*
X100584000Y-69855000D03*
X103124000Y-67315000D03*
X100584000Y-67315000D03*
X103124000Y-64775000D03*
X100584000Y-64775000D03*
X103124000Y-62235000D03*
X100584000Y-62235000D03*
X103124000Y-59695000D03*
X100584000Y-59695000D03*
X103124000Y-57155000D03*
X100584000Y-57155000D03*
D17*
X168910000Y-104648000D03*
D18*
X168910000Y-107188000D03*
X168910000Y-109728000D03*
X168910000Y-112268000D03*
X168910000Y-114808000D03*
X168910000Y-117348000D03*
X168910000Y-119888000D03*
X168910000Y-122428000D03*
X168910000Y-124968000D03*
X168910000Y-127508000D03*
X168910000Y-130048000D03*
X168910000Y-132588000D03*
X168910000Y-135128000D03*
X168910000Y-137668000D03*
X168910000Y-140208000D03*
X168910000Y-142748000D03*
X184150000Y-142748000D03*
X184150000Y-140208000D03*
X184150000Y-137668000D03*
X184150000Y-135128000D03*
X184150000Y-132588000D03*
X184150000Y-130048000D03*
X184150000Y-127508000D03*
X184150000Y-124968000D03*
X184150000Y-122428000D03*
X184150000Y-119888000D03*
X184150000Y-117348000D03*
X184150000Y-114808000D03*
X184150000Y-112268000D03*
X184150000Y-109728000D03*
X184150000Y-107188000D03*
X184150000Y-104648000D03*
D17*
X168910000Y-55536000D03*
D18*
X168910000Y-58076000D03*
X168910000Y-60616000D03*
X168910000Y-63156000D03*
X168910000Y-65696000D03*
X168910000Y-68236000D03*
X168910000Y-70776000D03*
X168910000Y-73316000D03*
X168910000Y-75856000D03*
X168910000Y-78396000D03*
X168910000Y-80936000D03*
X168910000Y-83476000D03*
X168910000Y-86016000D03*
X168910000Y-88556000D03*
X168910000Y-91096000D03*
X168910000Y-93636000D03*
X184150000Y-93636000D03*
X184150000Y-91096000D03*
X184150000Y-88556000D03*
X184150000Y-86016000D03*
X184150000Y-83476000D03*
X184150000Y-80936000D03*
X184150000Y-78396000D03*
X184150000Y-75856000D03*
X184150000Y-73316000D03*
X184150000Y-70776000D03*
X184150000Y-68236000D03*
X184150000Y-65696000D03*
X184150000Y-63156000D03*
X184150000Y-60616000D03*
X184150000Y-58076000D03*
X184150000Y-55536000D03*
M02*
