M48
; DRILL file {KiCad (6.0.2)} date Sat Oct 15 16:32:33 2022
; FORMAT={-:-/ absolute / inch / decimal}
; #@! TF.CreationDate,2022-10-15T16:32:33-07:00
; #@! TF.GenerationSoftware,Kicad,Pcbnew,(6.0.2)
; #@! TF.FileFunction,Plated,1,2,PTH
FMAT,2
INCH
; #@! TA.AperFunction,Plated,PTH,ViaDrill
T1C0.0157
; #@! TA.AperFunction,Plated,PTH,ComponentDrill
T2C0.0315
; #@! TA.AperFunction,Plated,PTH,ComponentDrill
T3C0.0394
%
G90
G05
T1
X4.0667Y-5.4152
X4.2665Y-3.4752
X4.3571Y-3.2351
X4.4667Y-2.4165
X4.4915Y-4.5917
X4.8332Y-2.693
X4.8744Y-2.6514
X5.369Y-5.0735
X5.5065Y-5.2665
X5.6383Y-5.2874
X5.8438Y-3.6889
X5.9292Y-4.6726
X6.0035Y-3.7164
X6.0547Y-3.1678
X6.7165Y-2.8365
X6.7282Y-3.3765
X6.8735Y-2.2999
X7.1616Y-3.2312
X7.1638Y-3.9343
X7.2859Y-5.07
T2
X4.72Y-2.37
X4.72Y-2.47
X4.72Y-2.57
X4.72Y-2.67
X4.72Y-2.77
X4.72Y-2.87
X4.72Y-2.97
X4.72Y-3.07
X4.72Y-3.17
X4.72Y-3.27
X4.72Y-3.37
X4.72Y-3.47
X4.8208Y-2.19
X4.9192Y-2.19
X5.02Y-2.37
X5.02Y-2.47
X5.02Y-2.57
X5.02Y-2.67
X5.02Y-2.77
X5.02Y-2.87
X5.02Y-2.97
X5.02Y-3.07
X5.02Y-3.17
X5.02Y-3.27
X5.02Y-3.37
X5.02Y-3.47
X5.549Y-2.1865
X5.549Y-2.2865
X5.549Y-2.3865
X5.549Y-2.4865
X5.549Y-2.5865
X5.549Y-2.6865
X5.549Y-2.7865
X5.549Y-2.8865
X5.549Y-2.9865
X5.549Y-3.0865
X5.549Y-3.1865
X5.549Y-3.2865
X5.549Y-3.3865
X5.549Y-3.4865
X5.549Y-3.5865
X5.549Y-3.6865
X5.549Y-4.12
X5.549Y-4.22
X5.549Y-4.32
X5.549Y-4.42
X5.549Y-4.52
X5.549Y-4.62
X5.549Y-4.72
X5.549Y-4.82
X5.549Y-4.92
X5.549Y-5.02
X5.549Y-5.12
X5.549Y-5.22
X5.549Y-5.32
X5.549Y-5.42
X5.549Y-5.52
X5.549Y-5.62
X5.8Y-2.01
X5.8Y-3.94
X5.8984Y-2.01
X5.8984Y-3.94
X6.149Y-2.1865
X6.149Y-2.2865
X6.149Y-2.3865
X6.149Y-2.4865
X6.149Y-2.5865
X6.149Y-2.6865
X6.149Y-2.7865
X6.149Y-2.8865
X6.149Y-2.9865
X6.149Y-3.0865
X6.149Y-3.1865
X6.149Y-3.2865
X6.149Y-3.3865
X6.149Y-3.4865
X6.149Y-3.5865
X6.149Y-3.6865
X6.149Y-4.12
X6.149Y-4.22
X6.149Y-4.32
X6.149Y-4.42
X6.149Y-4.52
X6.149Y-4.62
X6.149Y-4.72
X6.149Y-4.82
X6.149Y-4.92
X6.149Y-5.02
X6.149Y-5.12
X6.149Y-5.22
X6.149Y-5.32
X6.149Y-5.42
X6.149Y-5.52
X6.149Y-5.62
X6.65Y-2.1865
X6.65Y-2.2865
X6.65Y-2.3865
X6.65Y-2.4865
X6.65Y-2.5865
X6.65Y-2.6865
X6.65Y-2.7865
X6.65Y-2.8865
X6.65Y-2.9865
X6.65Y-3.0865
X6.65Y-3.1865
X6.65Y-3.2865
X6.65Y-3.3865
X6.65Y-3.4865
X6.65Y-3.5865
X6.65Y-3.6865
X6.65Y-4.12
X6.65Y-4.22
X6.65Y-4.32
X6.65Y-4.42
X6.65Y-4.52
X6.65Y-4.62
X6.65Y-4.72
X6.65Y-4.82
X6.65Y-4.92
X6.65Y-5.02
X6.65Y-5.12
X6.65Y-5.22
X6.65Y-5.32
X6.65Y-5.42
X6.65Y-5.52
X6.65Y-5.62
X6.901Y-2.01
X6.901Y-3.94
X6.9994Y-2.01
X6.9994Y-3.94
X7.25Y-2.1865
X7.25Y-2.2865
X7.25Y-2.3865
X7.25Y-2.4865
X7.25Y-2.5865
X7.25Y-2.6865
X7.25Y-2.7865
X7.25Y-2.8865
X7.25Y-2.9865
X7.25Y-3.0865
X7.25Y-3.1865
X7.25Y-3.2865
X7.25Y-3.3865
X7.25Y-3.4865
X7.25Y-3.5865
X7.25Y-3.6865
X7.25Y-4.12
X7.25Y-4.22
X7.25Y-4.32
X7.25Y-4.42
X7.25Y-4.52
X7.25Y-4.62
X7.25Y-4.72
X7.25Y-4.82
X7.25Y-4.92
X7.25Y-5.02
X7.25Y-5.12
X7.25Y-5.22
X7.25Y-5.32
X7.25Y-5.42
X7.25Y-5.52
X7.25Y-5.62
T3
X3.96Y-2.2502
X3.96Y-2.3502
X3.96Y-2.4502
X3.96Y-2.5502
X3.96Y-2.6502
X3.96Y-2.7502
X3.96Y-2.8502
X3.96Y-2.9502
X3.96Y-3.0502
X3.96Y-3.1502
X3.96Y-3.2502
X3.96Y-3.3502
X3.96Y-3.4502
X3.96Y-3.5502
X3.96Y-3.6502
X3.96Y-3.7502
X3.96Y-3.8502
X3.96Y-3.9502
X3.96Y-4.0502
X3.96Y-4.1502
X3.96Y-4.2502
X3.96Y-4.3502
X3.96Y-4.4502
X3.96Y-4.5502
X3.96Y-4.6502
X3.96Y-4.7502
X3.96Y-4.8502
X3.96Y-4.9502
X3.96Y-5.0502
X3.96Y-5.1502
X3.96Y-5.2502
X3.96Y-5.3502
X4.06Y-2.2502
X4.06Y-2.3502
X4.06Y-2.4502
X4.06Y-2.5502
X4.06Y-2.6502
X4.06Y-2.7502
X4.06Y-2.8502
X4.06Y-2.9502
X4.06Y-3.0502
X4.06Y-3.1502
X4.06Y-3.2502
X4.06Y-3.3502
X4.06Y-3.4502
X4.06Y-3.5502
X4.06Y-3.6502
X4.06Y-3.7502
X4.06Y-3.8502
X4.06Y-3.9502
X4.06Y-4.0502
X4.06Y-4.1502
X4.06Y-4.2502
X4.06Y-4.3502
X4.06Y-4.4502
X4.06Y-4.5502
X4.06Y-4.6502
X4.06Y-4.7502
X4.06Y-4.8502
X4.06Y-4.9502
X4.06Y-5.0502
X4.06Y-5.1502
X4.06Y-5.2502
X4.06Y-5.3502
T0
M30
