G04 #@! TF.GenerationSoftware,KiCad,Pcbnew,(6.0.2)*
G04 #@! TF.CreationDate,2022-10-15T16:32:30-07:00*
G04 #@! TF.ProjectId,RAM and ROM,52414d20-616e-4642-9052-4f4d2e6b6963,1.0*
G04 #@! TF.SameCoordinates,Original*
G04 #@! TF.FileFunction,Copper,L1,Top*
G04 #@! TF.FilePolarity,Positive*
%FSLAX46Y46*%
G04 Gerber Fmt 4.6, Leading zero omitted, Abs format (unit mm)*
G04 Created by KiCad (PCBNEW (6.0.2)) date 2022-10-15 16:32:30*
%MOMM*%
%LPD*%
G01*
G04 APERTURE LIST*
G04 #@! TA.AperFunction,ComponentPad*
%ADD10R,2.400000X1.600000*%
G04 #@! TD*
G04 #@! TA.AperFunction,ComponentPad*
%ADD11O,2.400000X1.600000*%
G04 #@! TD*
G04 #@! TA.AperFunction,ComponentPad*
%ADD12C,1.600000*%
G04 #@! TD*
G04 #@! TA.AperFunction,ComponentPad*
%ADD13R,1.600000X1.600000*%
G04 #@! TD*
G04 #@! TA.AperFunction,ComponentPad*
%ADD14O,1.600000X1.600000*%
G04 #@! TD*
G04 #@! TA.AperFunction,ComponentPad*
%ADD15R,1.700000X1.700000*%
G04 #@! TD*
G04 #@! TA.AperFunction,ComponentPad*
%ADD16O,1.700000X1.700000*%
G04 #@! TD*
G04 #@! TA.AperFunction,ViaPad*
%ADD17C,0.800000*%
G04 #@! TD*
G04 #@! TA.AperFunction,Conductor*
%ADD18C,0.254000*%
G04 #@! TD*
G04 APERTURE END LIST*
D10*
X119888000Y-60198000D03*
D11*
X119888000Y-62738000D03*
X119888000Y-65278000D03*
X119888000Y-67818000D03*
X119888000Y-70358000D03*
X119888000Y-72898000D03*
X119888000Y-75438000D03*
X119888000Y-77978000D03*
X119888000Y-80518000D03*
X119888000Y-83058000D03*
X119888000Y-85598000D03*
X119888000Y-88138000D03*
X127508000Y-88138000D03*
X127508000Y-85598000D03*
X127508000Y-83058000D03*
X127508000Y-80518000D03*
X127508000Y-77978000D03*
X127508000Y-75438000D03*
X127508000Y-72898000D03*
X127508000Y-70358000D03*
X127508000Y-67818000D03*
X127508000Y-65278000D03*
X127508000Y-62738000D03*
X127508000Y-60198000D03*
D12*
X122448000Y-55626000D03*
X124948000Y-55626000D03*
D13*
X140945000Y-104648000D03*
D14*
X140945000Y-107188000D03*
X140945000Y-109728000D03*
X140945000Y-112268000D03*
X140945000Y-114808000D03*
X140945000Y-117348000D03*
X140945000Y-119888000D03*
X140945000Y-122428000D03*
X140945000Y-124968000D03*
X140945000Y-127508000D03*
X140945000Y-130048000D03*
X140945000Y-132588000D03*
X140945000Y-135128000D03*
X140945000Y-137668000D03*
X140945000Y-140208000D03*
X140945000Y-142748000D03*
X156185000Y-142748000D03*
X156185000Y-140208000D03*
X156185000Y-137668000D03*
X156185000Y-135128000D03*
X156185000Y-132588000D03*
X156185000Y-130048000D03*
X156185000Y-127508000D03*
X156185000Y-124968000D03*
X156185000Y-122428000D03*
X156185000Y-119888000D03*
X156185000Y-117348000D03*
X156185000Y-114808000D03*
X156185000Y-112268000D03*
X156185000Y-109728000D03*
X156185000Y-107188000D03*
X156185000Y-104648000D03*
D12*
X147320000Y-100076000D03*
X149820000Y-100076000D03*
X175285000Y-51054000D03*
X177785000Y-51054000D03*
X175285000Y-100076000D03*
X177785000Y-100076000D03*
X147320000Y-51054000D03*
X149820000Y-51054000D03*
D13*
X140945000Y-55536000D03*
D14*
X140945000Y-58076000D03*
X140945000Y-60616000D03*
X140945000Y-63156000D03*
X140945000Y-65696000D03*
X140945000Y-68236000D03*
X140945000Y-70776000D03*
X140945000Y-73316000D03*
X140945000Y-75856000D03*
X140945000Y-78396000D03*
X140945000Y-80936000D03*
X140945000Y-83476000D03*
X140945000Y-86016000D03*
X140945000Y-88556000D03*
X140945000Y-91096000D03*
X140945000Y-93636000D03*
X156185000Y-93636000D03*
X156185000Y-91096000D03*
X156185000Y-88556000D03*
X156185000Y-86016000D03*
X156185000Y-83476000D03*
X156185000Y-80936000D03*
X156185000Y-78396000D03*
X156185000Y-75856000D03*
X156185000Y-73316000D03*
X156185000Y-70776000D03*
X156185000Y-68236000D03*
X156185000Y-65696000D03*
X156185000Y-63156000D03*
X156185000Y-60616000D03*
X156185000Y-58076000D03*
X156185000Y-55536000D03*
D15*
X103124000Y-135895000D03*
D16*
X100584000Y-135895000D03*
X103124000Y-133355000D03*
X100584000Y-133355000D03*
X103124000Y-130815000D03*
X100584000Y-130815000D03*
X103124000Y-128275000D03*
X100584000Y-128275000D03*
X103124000Y-125735000D03*
X100584000Y-125735000D03*
X103124000Y-123195000D03*
X100584000Y-123195000D03*
X103124000Y-120655000D03*
X100584000Y-120655000D03*
X103124000Y-118115000D03*
X100584000Y-118115000D03*
X103124000Y-115575000D03*
X100584000Y-115575000D03*
X103124000Y-113035000D03*
X100584000Y-113035000D03*
X103124000Y-110495000D03*
X100584000Y-110495000D03*
X103124000Y-107955000D03*
X100584000Y-107955000D03*
X103124000Y-105415000D03*
X100584000Y-105415000D03*
X103124000Y-102875000D03*
X100584000Y-102875000D03*
X103124000Y-100335000D03*
X100584000Y-100335000D03*
X103124000Y-97795000D03*
X100584000Y-97795000D03*
X103124000Y-95255000D03*
X100584000Y-95255000D03*
X103124000Y-92715000D03*
X100584000Y-92715000D03*
X103124000Y-90175000D03*
X100584000Y-90175000D03*
X103124000Y-87635000D03*
X100584000Y-87635000D03*
X103124000Y-85095000D03*
X100584000Y-85095000D03*
X103124000Y-82555000D03*
X100584000Y-82555000D03*
X103124000Y-80015000D03*
X100584000Y-80015000D03*
X103124000Y-77475000D03*
X100584000Y-77475000D03*
X103124000Y-74935000D03*
X100584000Y-74935000D03*
X103124000Y-72395000D03*
X100584000Y-72395000D03*
X103124000Y-69855000D03*
X100584000Y-69855000D03*
X103124000Y-67315000D03*
X100584000Y-67315000D03*
X103124000Y-64775000D03*
X100584000Y-64775000D03*
X103124000Y-62235000D03*
X100584000Y-62235000D03*
X103124000Y-59695000D03*
X100584000Y-59695000D03*
X103124000Y-57155000D03*
X100584000Y-57155000D03*
D13*
X168910000Y-104648000D03*
D14*
X168910000Y-107188000D03*
X168910000Y-109728000D03*
X168910000Y-112268000D03*
X168910000Y-114808000D03*
X168910000Y-117348000D03*
X168910000Y-119888000D03*
X168910000Y-122428000D03*
X168910000Y-124968000D03*
X168910000Y-127508000D03*
X168910000Y-130048000D03*
X168910000Y-132588000D03*
X168910000Y-135128000D03*
X168910000Y-137668000D03*
X168910000Y-140208000D03*
X168910000Y-142748000D03*
X184150000Y-142748000D03*
X184150000Y-140208000D03*
X184150000Y-137668000D03*
X184150000Y-135128000D03*
X184150000Y-132588000D03*
X184150000Y-130048000D03*
X184150000Y-127508000D03*
X184150000Y-124968000D03*
X184150000Y-122428000D03*
X184150000Y-119888000D03*
X184150000Y-117348000D03*
X184150000Y-114808000D03*
X184150000Y-112268000D03*
X184150000Y-109728000D03*
X184150000Y-107188000D03*
X184150000Y-104648000D03*
D13*
X168910000Y-55536000D03*
D14*
X168910000Y-58076000D03*
X168910000Y-60616000D03*
X168910000Y-63156000D03*
X168910000Y-65696000D03*
X168910000Y-68236000D03*
X168910000Y-70776000D03*
X168910000Y-73316000D03*
X168910000Y-75856000D03*
X168910000Y-78396000D03*
X168910000Y-80936000D03*
X168910000Y-83476000D03*
X168910000Y-86016000D03*
X168910000Y-88556000D03*
X168910000Y-91096000D03*
X168910000Y-93636000D03*
X184150000Y-93636000D03*
X184150000Y-91096000D03*
X184150000Y-88556000D03*
X184150000Y-86016000D03*
X184150000Y-83476000D03*
X184150000Y-80936000D03*
X184150000Y-78396000D03*
X184150000Y-75856000D03*
X184150000Y-73316000D03*
X184150000Y-70776000D03*
X184150000Y-68236000D03*
X184150000Y-65696000D03*
X184150000Y-63156000D03*
X184150000Y-60616000D03*
X184150000Y-58076000D03*
X184150000Y-55536000D03*
D17*
X139865100Y-133769300D03*
X136373700Y-128866700D03*
X152488100Y-94395400D03*
X108368900Y-88270000D03*
X170896300Y-85762000D03*
X185062300Y-128778000D03*
X143213100Y-134298800D03*
X181961300Y-99932200D03*
X113454600Y-61379400D03*
X181904500Y-82072700D03*
X122762500Y-68401800D03*
X123810000Y-67344700D03*
X103293200Y-137545300D03*
X110670600Y-82172000D03*
X174586700Y-58416800D03*
X170599000Y-72046000D03*
X150601900Y-118682900D03*
X114083900Y-116629000D03*
X153790600Y-80462500D03*
X148432400Y-93699200D03*
D18*
X125908100Y-66877900D02*
X127508000Y-65278000D01*
X125908100Y-73383600D02*
X125908100Y-66877900D01*
X126692500Y-74168000D02*
X125908100Y-73383600D01*
X129640300Y-74168000D02*
X126692500Y-74168000D01*
X137612700Y-82140400D02*
X129640300Y-74168000D01*
X141529400Y-82140400D02*
X137612700Y-82140400D01*
X141988700Y-81681100D02*
X141529400Y-82140400D01*
X154258600Y-81681100D02*
X141988700Y-81681100D01*
X155003700Y-80936000D02*
X154258600Y-81681100D01*
X156185000Y-80936000D02*
X155003700Y-80936000D01*
X184150000Y-130048000D02*
X182968700Y-130048000D01*
X141617900Y-133769300D02*
X139865100Y-133769300D01*
X141869700Y-133517500D02*
X141617900Y-133769300D01*
X143536700Y-133517500D02*
X141869700Y-133517500D01*
X146417200Y-136398000D02*
X143536700Y-133517500D01*
X176618700Y-136398000D02*
X146417200Y-136398000D01*
X182968700Y-130048000D02*
X176618700Y-136398000D01*
X142464700Y-128866700D02*
X136373700Y-128866700D01*
X143646000Y-130048000D02*
X142464700Y-128866700D01*
X156185000Y-130048000D02*
X143646000Y-130048000D01*
X158556900Y-123777400D02*
X157366300Y-124968000D01*
X181778100Y-123777400D02*
X158556900Y-123777400D01*
X182968700Y-124968000D02*
X181778100Y-123777400D01*
X184150000Y-124968000D02*
X182968700Y-124968000D01*
X156185000Y-124968000D02*
X157366300Y-124968000D01*
X127508000Y-72898000D02*
X129089300Y-72898000D01*
X156185000Y-75856000D02*
X155003700Y-75856000D01*
X158590500Y-74631800D02*
X157366300Y-75856000D01*
X181744500Y-74631800D02*
X158590500Y-74631800D01*
X182968700Y-75856000D02*
X181744500Y-74631800D01*
X184150000Y-75856000D02*
X182968700Y-75856000D01*
X156185000Y-75856000D02*
X157366300Y-75856000D01*
X153645100Y-74497400D02*
X155003700Y-75856000D01*
X130688700Y-74497400D02*
X153645100Y-74497400D01*
X129089300Y-72898000D02*
X130688700Y-74497400D01*
X184150000Y-80936000D02*
X184150000Y-79754700D01*
X127508000Y-62738000D02*
X129089300Y-62738000D01*
X184519200Y-79754700D02*
X184150000Y-79754700D01*
X185367000Y-78906900D02*
X184519200Y-79754700D01*
X185367000Y-60158200D02*
X185367000Y-78906900D01*
X184554800Y-59346000D02*
X185367000Y-60158200D01*
X174411100Y-59346000D02*
X184554800Y-59346000D01*
X171950700Y-56885600D02*
X174411100Y-59346000D01*
X167990000Y-56885600D02*
X171950700Y-56885600D01*
X165431700Y-54327300D02*
X167990000Y-56885600D01*
X145016100Y-54327300D02*
X165431700Y-54327300D01*
X142626000Y-56717400D02*
X145016100Y-54327300D01*
X135109900Y-56717400D02*
X142626000Y-56717400D01*
X129089300Y-62738000D02*
X135109900Y-56717400D01*
X184150000Y-104648000D02*
X182968700Y-104648000D01*
X125926700Y-59104700D02*
X122448000Y-55626000D01*
X125926700Y-60198000D02*
X125926700Y-59104700D01*
X127508000Y-60198000D02*
X125926700Y-60198000D01*
X179767000Y-55536000D02*
X175285000Y-51054000D01*
X184150000Y-55536000D02*
X179767000Y-55536000D01*
X151892000Y-104648000D02*
X155003700Y-104648000D01*
X147320000Y-100076000D02*
X151892000Y-104648000D01*
X156185000Y-104648000D02*
X155003700Y-104648000D01*
X156185000Y-104648000D02*
X157366300Y-104648000D01*
X161938300Y-100076000D02*
X157366300Y-104648000D01*
X175285000Y-100076000D02*
X161938300Y-100076000D01*
X179857000Y-104648000D02*
X175285000Y-100076000D01*
X182968700Y-104648000D02*
X179857000Y-104648000D01*
X103124000Y-64775000D02*
X104355300Y-64775000D01*
X127508000Y-75438000D02*
X125926700Y-75438000D01*
X113748300Y-74168000D02*
X104355300Y-64775000D01*
X124656700Y-74168000D02*
X113748300Y-74168000D01*
X125926700Y-75438000D02*
X124656700Y-74168000D01*
X184150000Y-63156000D02*
X182968700Y-63156000D01*
X158566700Y-61955600D02*
X157366300Y-63156000D01*
X181768300Y-61955600D02*
X158566700Y-61955600D01*
X182968700Y-63156000D02*
X181768300Y-61955600D01*
X156775700Y-63156000D02*
X157366300Y-63156000D01*
X156775700Y-63156000D02*
X156185000Y-63156000D01*
X109938300Y-67818000D02*
X104355300Y-62235000D01*
X119888000Y-67818000D02*
X109938300Y-67818000D01*
X103124000Y-62235000D02*
X104355300Y-62235000D01*
X156775700Y-83476000D02*
X157366300Y-83476000D01*
X182949000Y-133789000D02*
X184150000Y-132588000D01*
X182949000Y-135668700D02*
X182949000Y-133789000D01*
X183593900Y-136313600D02*
X182949000Y-135668700D01*
X184637000Y-136313600D02*
X183593900Y-136313600D01*
X186875500Y-134075100D02*
X184637000Y-136313600D01*
X186875500Y-102845900D02*
X186875500Y-134075100D01*
X170115000Y-86085400D02*
X186875500Y-102845900D01*
X170115000Y-85543200D02*
X170115000Y-86085400D01*
X169229100Y-84657300D02*
X170115000Y-85543200D01*
X158547600Y-84657300D02*
X169229100Y-84657300D01*
X157366300Y-83476000D02*
X158547600Y-84657300D01*
X156775700Y-83476000D02*
X156185000Y-83476000D01*
X100073800Y-88943700D02*
X100584000Y-88943700D01*
X98793200Y-87663100D02*
X100073800Y-88943700D01*
X98793200Y-72438400D02*
X98793200Y-87663100D01*
X100106600Y-71125000D02*
X98793200Y-72438400D01*
X109986300Y-71125000D02*
X100106600Y-71125000D01*
X115647000Y-76785700D02*
X109986300Y-71125000D01*
X131395700Y-76785700D02*
X115647000Y-76785700D01*
X139276600Y-84666600D02*
X131395700Y-76785700D01*
X153813100Y-84666600D02*
X139276600Y-84666600D01*
X155003700Y-83476000D02*
X153813100Y-84666600D01*
X156185000Y-83476000D02*
X155003700Y-83476000D01*
X100584000Y-90175000D02*
X100584000Y-88943700D01*
X184150000Y-135128000D02*
X184150000Y-133946700D01*
X115461800Y-95362900D02*
X108368900Y-88270000D01*
X151520600Y-95362900D02*
X115461800Y-95362900D01*
X152488100Y-94395400D02*
X151520600Y-95362900D01*
X156185000Y-86016000D02*
X157366300Y-86016000D01*
X184519200Y-133946700D02*
X184150000Y-133946700D01*
X186367200Y-132098700D02*
X184519200Y-133946700D01*
X186367200Y-103173700D02*
X186367200Y-132098700D01*
X170568200Y-87374700D02*
X186367200Y-103173700D01*
X158725000Y-87374700D02*
X170568200Y-87374700D01*
X157366300Y-86016000D02*
X158725000Y-87374700D01*
X156185000Y-88556000D02*
X157366300Y-88556000D01*
X100584000Y-85095000D02*
X101815300Y-85095000D01*
X156501400Y-92454600D02*
X157366300Y-91589700D01*
X151868200Y-92454600D02*
X156501400Y-92454600D01*
X149470400Y-94852400D02*
X151868200Y-92454600D01*
X123813100Y-94852400D02*
X149470400Y-94852400D01*
X115321200Y-86360500D02*
X123813100Y-94852400D01*
X102619100Y-86360500D02*
X115321200Y-86360500D01*
X101815300Y-85556700D02*
X102619100Y-86360500D01*
X101815300Y-85095000D02*
X101815300Y-85556700D01*
X157366300Y-91589700D02*
X157366300Y-88556000D01*
X182401800Y-135919800D02*
X184150000Y-137668000D01*
X182401800Y-132624200D02*
X182401800Y-135919800D01*
X183708000Y-131318000D02*
X182401800Y-132624200D01*
X184594600Y-131318000D02*
X183708000Y-131318000D01*
X185858900Y-130053700D02*
X184594600Y-131318000D01*
X185858900Y-103960200D02*
X185858900Y-130053700D01*
X184842100Y-102943400D02*
X185858900Y-103960200D01*
X183867700Y-102943400D02*
X184842100Y-102943400D01*
X173290300Y-92366000D02*
X183867700Y-102943400D01*
X158142600Y-92366000D02*
X173290300Y-92366000D01*
X157366300Y-91589700D02*
X158142600Y-92366000D01*
X101815300Y-83065200D02*
X101815300Y-82555000D01*
X102575100Y-83825000D02*
X101815300Y-83065200D01*
X105415800Y-83825000D02*
X102575100Y-83825000D01*
X107442900Y-85852100D02*
X105415800Y-83825000D01*
X116072200Y-85852100D02*
X107442900Y-85852100D01*
X117176700Y-86956600D02*
X116072200Y-85852100D01*
X122774100Y-86956600D02*
X117176700Y-86956600D01*
X128104100Y-92286600D02*
X122774100Y-86956600D01*
X147084000Y-92286600D02*
X128104100Y-92286600D01*
X148274600Y-91096000D02*
X147084000Y-92286600D01*
X156185000Y-91096000D02*
X148274600Y-91096000D01*
X100584000Y-82555000D02*
X101815300Y-82555000D01*
X187383900Y-102249600D02*
X170896300Y-85762000D01*
X187383900Y-136162000D02*
X187383900Y-102249600D01*
X184519200Y-139026700D02*
X187383900Y-136162000D01*
X184150000Y-139026700D02*
X184519200Y-139026700D01*
X184150000Y-140208000D02*
X184150000Y-139026700D01*
X100584000Y-80015000D02*
X100584000Y-81246300D01*
X156185000Y-93636000D02*
X155003700Y-93636000D01*
X148570000Y-100502700D02*
X148570000Y-95876000D01*
X149363700Y-101296400D02*
X148570000Y-100502700D01*
X150453800Y-101296400D02*
X149363700Y-101296400D01*
X152858300Y-98891900D02*
X150453800Y-101296400D01*
X175772100Y-98891900D02*
X152858300Y-98891900D01*
X176535000Y-99654800D02*
X175772100Y-98891900D01*
X176535000Y-100502700D02*
X176535000Y-99654800D01*
X179484000Y-103451700D02*
X176535000Y-100502700D01*
X184631600Y-103451700D02*
X179484000Y-103451700D01*
X185350600Y-104170700D02*
X184631600Y-103451700D01*
X185350600Y-128489700D02*
X185350600Y-104170700D01*
X185062300Y-128778000D02*
X185350600Y-128489700D01*
X114542300Y-95876000D02*
X148570000Y-95876000D01*
X107563600Y-88897300D02*
X114542300Y-95876000D01*
X102604000Y-88897300D02*
X107563600Y-88897300D01*
X101854000Y-88147300D02*
X102604000Y-88897300D01*
X101854000Y-87077800D02*
X101854000Y-88147300D01*
X101102500Y-86326300D02*
X101854000Y-87077800D01*
X100073000Y-86326300D02*
X101102500Y-86326300D01*
X99318200Y-85571500D02*
X100073000Y-86326300D01*
X99318200Y-82050400D02*
X99318200Y-85571500D01*
X100122300Y-81246300D02*
X99318200Y-82050400D01*
X100584000Y-81246300D02*
X100122300Y-81246300D01*
X152763700Y-95876000D02*
X155003700Y-93636000D01*
X148570000Y-95876000D02*
X152763700Y-95876000D01*
X132907100Y-84239400D02*
X139763700Y-91096000D01*
X110211600Y-84239400D02*
X132907100Y-84239400D01*
X104678500Y-78706300D02*
X110211600Y-84239400D01*
X102584800Y-78706300D02*
X104678500Y-78706300D01*
X101815300Y-77936800D02*
X102584800Y-78706300D01*
X101815300Y-77475000D02*
X101815300Y-77936800D01*
X100584000Y-77475000D02*
X101815300Y-77475000D01*
X140945000Y-91096000D02*
X139763700Y-91096000D01*
X147767800Y-138853500D02*
X143213100Y-134298800D01*
X166543200Y-138853500D02*
X147767800Y-138853500D01*
X167728700Y-137668000D02*
X166543200Y-138853500D01*
X168910000Y-137668000D02*
X167728700Y-137668000D01*
X101815300Y-75445200D02*
X101815300Y-74935000D01*
X102575100Y-76205000D02*
X101815300Y-75445200D01*
X106306900Y-76205000D02*
X102575100Y-76205000D01*
X111889900Y-81788000D02*
X106306900Y-76205000D01*
X132995700Y-81788000D02*
X111889900Y-81788000D01*
X139763700Y-88556000D02*
X132995700Y-81788000D01*
X140945000Y-88556000D02*
X139763700Y-88556000D01*
X100584000Y-74935000D02*
X101815300Y-74935000D01*
X100584000Y-72395000D02*
X101815300Y-72395000D01*
X140354400Y-86016000D02*
X139763700Y-86016000D01*
X140354400Y-86016000D02*
X140945000Y-86016000D01*
X140945000Y-86016000D02*
X142126300Y-86016000D01*
X171855100Y-89826000D02*
X181961300Y-99932200D01*
X159495200Y-89826000D02*
X171855100Y-89826000D01*
X156955200Y-87286000D02*
X159495200Y-89826000D01*
X143396300Y-87286000D02*
X156955200Y-87286000D01*
X142126300Y-86016000D02*
X143396300Y-87286000D01*
X133053100Y-79305400D02*
X139763700Y-86016000D01*
X115586600Y-79305400D02*
X133053100Y-79305400D01*
X109907500Y-73626300D02*
X115586600Y-79305400D01*
X102584800Y-73626300D02*
X109907500Y-73626300D01*
X101815300Y-72856800D02*
X102584800Y-73626300D01*
X101815300Y-72395000D02*
X101815300Y-72856800D01*
X184150000Y-86016000D02*
X184150000Y-84834700D01*
X100584000Y-67315000D02*
X100584000Y-66083700D01*
X101094200Y-66083700D02*
X100584000Y-66083700D01*
X101854000Y-65323900D02*
X101094200Y-66083700D01*
X101854000Y-59197800D02*
X101854000Y-65323900D01*
X101081200Y-58425000D02*
X101854000Y-59197800D01*
X100033000Y-58425000D02*
X101081200Y-58425000D01*
X99323500Y-57715500D02*
X100033000Y-58425000D01*
X99323500Y-56611400D02*
X99323500Y-57715500D01*
X100266100Y-55668800D02*
X99323500Y-56611400D01*
X105139000Y-55668800D02*
X100266100Y-55668800D01*
X111458900Y-49348900D02*
X105139000Y-55668800D01*
X179692600Y-49348900D02*
X111458900Y-49348900D01*
X186397900Y-56054200D02*
X179692600Y-49348900D01*
X186397900Y-82956000D02*
X186397900Y-56054200D01*
X184519200Y-84834700D02*
X186397900Y-82956000D01*
X184150000Y-84834700D02*
X184519200Y-84834700D01*
X184150000Y-88556000D02*
X184150000Y-87374700D01*
X129317400Y-61379400D02*
X113454600Y-61379400D01*
X137386300Y-53310500D02*
X129317400Y-61379400D01*
X171081000Y-53310500D02*
X137386300Y-53310500D01*
X174576500Y-56806000D02*
X171081000Y-53310500D01*
X184550700Y-56806000D02*
X174576500Y-56806000D01*
X185889600Y-58144900D02*
X184550700Y-56806000D01*
X185889600Y-80943200D02*
X185889600Y-58144900D01*
X184626800Y-82206000D02*
X185889600Y-80943200D01*
X183720800Y-82206000D02*
X184626800Y-82206000D01*
X182966100Y-82960700D02*
X183720800Y-82206000D01*
X182966100Y-86560000D02*
X182966100Y-82960700D01*
X183780800Y-87374700D02*
X182966100Y-86560000D01*
X184150000Y-87374700D02*
X183780800Y-87374700D01*
X181904500Y-88038400D02*
X181904500Y-82072700D01*
X183780800Y-89914700D02*
X181904500Y-88038400D01*
X184150000Y-89914700D02*
X183780800Y-89914700D01*
X184150000Y-91096000D02*
X184150000Y-89914700D01*
X184150000Y-93636000D02*
X184150000Y-92454700D01*
X98815100Y-57926100D02*
X100584000Y-59695000D01*
X98815100Y-56400800D02*
X98815100Y-57926100D01*
X101282300Y-53933600D02*
X98815100Y-56400800D01*
X105835600Y-53933600D02*
X101282300Y-53933600D01*
X110961100Y-48808100D02*
X105835600Y-53933600D01*
X179870800Y-48808100D02*
X110961100Y-48808100D01*
X186906200Y-55843500D02*
X179870800Y-48808100D01*
X186906200Y-90067700D02*
X186906200Y-55843500D01*
X184519200Y-92454700D02*
X186906200Y-90067700D01*
X184150000Y-92454700D02*
X184519200Y-92454700D01*
X100584000Y-57155000D02*
X101815300Y-57155000D01*
X120908700Y-66548000D02*
X122762500Y-68401800D01*
X116065200Y-66548000D02*
X120908700Y-66548000D01*
X107980800Y-58463600D02*
X116065200Y-66548000D01*
X102613700Y-58463600D02*
X107980800Y-58463600D01*
X101815300Y-57665200D02*
X102613700Y-58463600D01*
X101815300Y-57155000D02*
X101815300Y-57665200D01*
X123810000Y-67125100D02*
X123810000Y-67344700D01*
X120692900Y-64008000D02*
X123810000Y-67125100D01*
X114244000Y-64008000D02*
X120692900Y-64008000D01*
X107391000Y-57155000D02*
X114244000Y-64008000D01*
X103124000Y-57155000D02*
X107391000Y-57155000D01*
X137346400Y-137545300D02*
X103293200Y-137545300D01*
X139763700Y-135128000D02*
X137346400Y-137545300D01*
X140945000Y-135128000D02*
X139763700Y-135128000D01*
X103124000Y-80015000D02*
X104355300Y-80015000D01*
X109448700Y-85108400D02*
X104355300Y-80015000D01*
X117817100Y-85108400D02*
X109448700Y-85108400D01*
X118306700Y-85598000D02*
X117817100Y-85108400D01*
X119888000Y-85598000D02*
X118306700Y-85598000D01*
X111556600Y-83058000D02*
X110670600Y-82172000D01*
X119888000Y-83058000D02*
X111556600Y-83058000D01*
X168910000Y-55536000D02*
X167728700Y-55536000D01*
X140945000Y-55536000D02*
X142126300Y-55536000D01*
X140354400Y-104648000D02*
X139763700Y-104648000D01*
X118828300Y-104648000D02*
X139763700Y-104648000D01*
X104355300Y-90175000D02*
X118828300Y-104648000D01*
X103124000Y-90175000D02*
X104355300Y-90175000D01*
X140354400Y-104648000D02*
X140945000Y-104648000D01*
X166547400Y-105829300D02*
X167728700Y-104648000D01*
X143307600Y-105829300D02*
X166547400Y-105829300D01*
X142126300Y-104648000D02*
X143307600Y-105829300D01*
X140945000Y-104648000D02*
X142126300Y-104648000D01*
X168910000Y-104648000D02*
X167728700Y-104648000D01*
X166011600Y-53818900D02*
X167728700Y-55536000D01*
X143843400Y-53818900D02*
X166011600Y-53818900D01*
X142126300Y-55536000D02*
X143843400Y-53818900D01*
X158547700Y-108546600D02*
X157366300Y-109728000D01*
X181787300Y-108546600D02*
X158547700Y-108546600D01*
X182968700Y-109728000D02*
X181787300Y-108546600D01*
X184150000Y-109728000D02*
X182968700Y-109728000D01*
X156185000Y-109728000D02*
X157366300Y-109728000D01*
X156185000Y-60616000D02*
X155003700Y-60616000D01*
X119888000Y-72898000D02*
X121469300Y-72898000D01*
X184150000Y-60616000D02*
X182968700Y-60616000D01*
X156185000Y-60616000D02*
X157366300Y-60616000D01*
X153821200Y-59433500D02*
X155003700Y-60616000D01*
X135585300Y-59433500D02*
X153821200Y-59433500D01*
X131010800Y-64008000D02*
X135585300Y-59433500D01*
X126702300Y-64008000D02*
X131010800Y-64008000D01*
X124676300Y-66034000D02*
X126702300Y-64008000D01*
X124676300Y-69691000D02*
X124676300Y-66034000D01*
X121469300Y-72898000D02*
X124676300Y-69691000D01*
X174962300Y-60616000D02*
X182968700Y-60616000D01*
X173765300Y-59419000D02*
X174962300Y-60616000D01*
X158563300Y-59419000D02*
X173765300Y-59419000D01*
X157366300Y-60616000D02*
X158563300Y-59419000D01*
X168910000Y-58076000D02*
X167728700Y-58076000D01*
X140945000Y-58076000D02*
X142126300Y-58076000D01*
X140945000Y-107188000D02*
X139763700Y-107188000D01*
X103124000Y-95255000D02*
X104355300Y-95255000D01*
X166538100Y-56885400D02*
X167728700Y-58076000D01*
X143316900Y-56885400D02*
X166538100Y-56885400D01*
X142126300Y-58076000D02*
X143316900Y-56885400D01*
X116288300Y-107188000D02*
X139763700Y-107188000D01*
X104355300Y-95255000D02*
X116288300Y-107188000D01*
X143315100Y-108376800D02*
X142126300Y-107188000D01*
X157587000Y-108376800D02*
X143315100Y-108376800D01*
X158775800Y-107188000D02*
X157587000Y-108376800D01*
X168910000Y-107188000D02*
X158775800Y-107188000D01*
X140945000Y-107188000D02*
X142126300Y-107188000D01*
X140945000Y-109728000D02*
X142126300Y-109728000D01*
X140945000Y-109728000D02*
X139763700Y-109728000D01*
X103124000Y-97795000D02*
X104355300Y-97795000D01*
X143563900Y-109728000D02*
X142126300Y-109728000D01*
X144754500Y-110918600D02*
X143563900Y-109728000D01*
X157585200Y-110918600D02*
X144754500Y-110918600D01*
X158775800Y-109728000D02*
X157585200Y-110918600D01*
X168910000Y-109728000D02*
X158775800Y-109728000D01*
X116288300Y-109728000D02*
X104355300Y-97795000D01*
X139763700Y-109728000D02*
X116288300Y-109728000D01*
X174927500Y-58076000D02*
X174586700Y-58416800D01*
X184150000Y-58076000D02*
X174927500Y-58076000D01*
X158556900Y-111077400D02*
X157366300Y-112268000D01*
X181778100Y-111077400D02*
X158556900Y-111077400D01*
X182968700Y-112268000D02*
X181778100Y-111077400D01*
X184150000Y-112268000D02*
X182968700Y-112268000D01*
X156775700Y-112268000D02*
X157366300Y-112268000D01*
X156775700Y-112268000D02*
X156185000Y-112268000D01*
X115018300Y-110998000D02*
X104355300Y-100335000D01*
X142710300Y-110998000D02*
X115018300Y-110998000D01*
X143980300Y-112268000D02*
X142710300Y-110998000D01*
X156185000Y-112268000D02*
X143980300Y-112268000D01*
X103124000Y-100335000D02*
X104355300Y-100335000D01*
X143316900Y-61806600D02*
X142126300Y-60616000D01*
X157585200Y-61806600D02*
X143316900Y-61806600D01*
X158775800Y-60616000D02*
X157585200Y-61806600D01*
X168910000Y-60616000D02*
X158775800Y-60616000D01*
X140945000Y-60616000D02*
X142126300Y-60616000D01*
X158556900Y-113617400D02*
X157366300Y-114808000D01*
X181778100Y-113617400D02*
X158556900Y-113617400D01*
X182968700Y-114808000D02*
X181778100Y-113617400D01*
X184150000Y-114808000D02*
X182968700Y-114808000D01*
X156775700Y-114808000D02*
X157366300Y-114808000D01*
X156775700Y-114808000D02*
X156185000Y-114808000D01*
X103124000Y-102875000D02*
X103124000Y-104106300D01*
X143498500Y-114808000D02*
X156185000Y-114808000D01*
X142303000Y-113612500D02*
X143498500Y-114808000D01*
X108892700Y-113612500D02*
X142303000Y-113612500D01*
X104466600Y-109186400D02*
X108892700Y-113612500D01*
X102588800Y-109186400D02*
X104466600Y-109186400D01*
X101854000Y-108451600D02*
X102588800Y-109186400D01*
X101854000Y-104866100D02*
X101854000Y-108451600D01*
X102613800Y-104106300D02*
X101854000Y-104866100D01*
X103124000Y-104106300D02*
X102613800Y-104106300D01*
X158572800Y-64489500D02*
X157366300Y-65696000D01*
X181762200Y-64489500D02*
X158572800Y-64489500D01*
X182968700Y-65696000D02*
X181762200Y-64489500D01*
X184150000Y-65696000D02*
X182968700Y-65696000D01*
X156185000Y-65696000D02*
X157366300Y-65696000D01*
X103124000Y-105415000D02*
X104355300Y-105415000D01*
X140945000Y-112268000D02*
X142126300Y-112268000D01*
X143336000Y-113477700D02*
X142126300Y-112268000D01*
X157566100Y-113477700D02*
X143336000Y-113477700D01*
X158775800Y-112268000D02*
X157566100Y-113477700D01*
X168910000Y-112268000D02*
X158775800Y-112268000D01*
X111208300Y-112268000D02*
X104355300Y-105415000D01*
X139763700Y-112268000D02*
X111208300Y-112268000D01*
X140945000Y-112268000D02*
X139763700Y-112268000D01*
X158556900Y-121237400D02*
X157366300Y-122428000D01*
X181778100Y-121237400D02*
X158556900Y-121237400D01*
X182968700Y-122428000D02*
X181778100Y-121237400D01*
X184150000Y-122428000D02*
X182968700Y-122428000D01*
X156775700Y-122428000D02*
X157366300Y-122428000D01*
X156775700Y-122428000D02*
X156185000Y-122428000D01*
X171869000Y-73316000D02*
X170599000Y-72046000D01*
X184150000Y-73316000D02*
X171869000Y-73316000D01*
X158556900Y-126317400D02*
X157366300Y-127508000D01*
X181778100Y-126317400D02*
X158556900Y-126317400D01*
X182968700Y-127508000D02*
X181778100Y-126317400D01*
X184150000Y-127508000D02*
X182968700Y-127508000D01*
X156185000Y-127508000D02*
X157366300Y-127508000D01*
X164829400Y-78396000D02*
X156185000Y-78396000D01*
X166029800Y-77195600D02*
X164829400Y-78396000D01*
X181768300Y-77195600D02*
X166029800Y-77195600D01*
X182968700Y-78396000D02*
X181768300Y-77195600D01*
X184150000Y-78396000D02*
X182968700Y-78396000D01*
X181744500Y-69551800D02*
X182968700Y-70776000D01*
X158590500Y-69551800D02*
X181744500Y-69551800D01*
X157366300Y-70776000D02*
X158590500Y-69551800D01*
X156185000Y-70776000D02*
X157366300Y-70776000D01*
X156185000Y-119888000D02*
X155003700Y-119888000D01*
X103124000Y-113035000D02*
X103124000Y-114266300D01*
X183559400Y-70776000D02*
X182968700Y-70776000D01*
X158583300Y-118671000D02*
X157366300Y-119888000D01*
X181751700Y-118671000D02*
X158583300Y-118671000D01*
X182968700Y-119888000D02*
X181751700Y-118671000D01*
X184150000Y-119888000D02*
X182968700Y-119888000D01*
X156185000Y-119888000D02*
X157366300Y-119888000D01*
X183559400Y-70776000D02*
X184150000Y-70776000D01*
X139953100Y-118682900D02*
X150601900Y-118682900D01*
X136749600Y-121886400D02*
X139953100Y-118682900D01*
X102580500Y-121886400D02*
X136749600Y-121886400D01*
X101854000Y-121159900D02*
X102580500Y-121886400D01*
X101854000Y-115026100D02*
X101854000Y-121159900D01*
X102613800Y-114266300D02*
X101854000Y-115026100D01*
X103124000Y-114266300D02*
X102613800Y-114266300D01*
X151807000Y-119888000D02*
X155003700Y-119888000D01*
X150601900Y-118682900D02*
X151807000Y-119888000D01*
X184150000Y-117348000D02*
X182968700Y-117348000D01*
X158572800Y-67029500D02*
X157366300Y-68236000D01*
X181762200Y-67029500D02*
X158572800Y-67029500D01*
X182968700Y-68236000D02*
X181762200Y-67029500D01*
X184150000Y-68236000D02*
X182968700Y-68236000D01*
X156185000Y-68236000D02*
X157366300Y-68236000D01*
X156775700Y-117348000D02*
X157366300Y-117348000D01*
X156775700Y-117348000D02*
X156185000Y-117348000D01*
X181778100Y-116157400D02*
X182968700Y-117348000D01*
X159275600Y-116157400D02*
X181778100Y-116157400D01*
X158085000Y-117348000D02*
X159275600Y-116157400D01*
X157366300Y-117348000D02*
X158085000Y-117348000D01*
X105409300Y-116629000D02*
X104355300Y-115575000D01*
X114083900Y-116629000D02*
X105409300Y-116629000D01*
X103124000Y-115575000D02*
X104355300Y-115575000D01*
X140945000Y-65696000D02*
X142126300Y-65696000D01*
X159546900Y-114808000D02*
X168910000Y-114808000D01*
X158346500Y-116008400D02*
X159546900Y-114808000D01*
X143326700Y-116008400D02*
X158346500Y-116008400D01*
X142126300Y-114808000D02*
X143326700Y-116008400D01*
X141535700Y-114808000D02*
X142126300Y-114808000D01*
X158775800Y-65696000D02*
X168910000Y-65696000D01*
X157587000Y-66884800D02*
X158775800Y-65696000D01*
X143315100Y-66884800D02*
X157587000Y-66884800D01*
X142126300Y-65696000D02*
X143315100Y-66884800D01*
X141535700Y-114808000D02*
X140945000Y-114808000D01*
X136456700Y-118115000D02*
X103124000Y-118115000D01*
X139763700Y-114808000D02*
X136456700Y-118115000D01*
X140945000Y-114808000D02*
X139763700Y-114808000D01*
X143315100Y-69424800D02*
X142126300Y-68236000D01*
X157587000Y-69424800D02*
X143315100Y-69424800D01*
X158775800Y-68236000D02*
X157587000Y-69424800D01*
X168910000Y-68236000D02*
X158775800Y-68236000D01*
X140945000Y-68236000D02*
X142126300Y-68236000D01*
X158803900Y-117348000D02*
X167728700Y-117348000D01*
X157618000Y-118533900D02*
X158803900Y-117348000D01*
X152441800Y-118533900D02*
X157618000Y-118533900D01*
X151255900Y-117348000D02*
X152441800Y-118533900D01*
X142126300Y-117348000D02*
X151255900Y-117348000D01*
X168910000Y-117348000D02*
X167728700Y-117348000D01*
X141535700Y-117348000D02*
X142126300Y-117348000D01*
X141535700Y-117348000D02*
X140945000Y-117348000D01*
X136048100Y-120655000D02*
X103124000Y-120655000D01*
X139355100Y-117348000D02*
X136048100Y-120655000D01*
X140945000Y-117348000D02*
X139355100Y-117348000D01*
X140945000Y-119888000D02*
X142126300Y-119888000D01*
X140945000Y-119888000D02*
X139763700Y-119888000D01*
X143316900Y-121078600D02*
X142126300Y-119888000D01*
X157585200Y-121078600D02*
X143316900Y-121078600D01*
X158775800Y-119888000D02*
X157585200Y-121078600D01*
X168910000Y-119888000D02*
X158775800Y-119888000D01*
X104402000Y-123148300D02*
X104355300Y-123195000D01*
X136503400Y-123148300D02*
X104402000Y-123148300D01*
X139763700Y-119888000D02*
X136503400Y-123148300D01*
X103124000Y-123195000D02*
X104355300Y-123195000D01*
X143315100Y-71964800D02*
X142126300Y-70776000D01*
X166539900Y-71964800D02*
X143315100Y-71964800D01*
X167728700Y-70776000D02*
X166539900Y-71964800D01*
X168910000Y-70776000D02*
X167728700Y-70776000D01*
X140945000Y-70776000D02*
X142126300Y-70776000D01*
X143316900Y-123618600D02*
X142126300Y-122428000D01*
X157585200Y-123618600D02*
X143316900Y-123618600D01*
X158775800Y-122428000D02*
X157585200Y-123618600D01*
X168910000Y-122428000D02*
X158775800Y-122428000D01*
X140945000Y-122428000D02*
X142126300Y-122428000D01*
X140945000Y-122428000D02*
X139763700Y-122428000D01*
X103124000Y-125735000D02*
X104355300Y-125735000D01*
X154514300Y-73316000D02*
X140945000Y-73316000D01*
X155716800Y-74518500D02*
X154514300Y-73316000D01*
X157573300Y-74518500D02*
X155716800Y-74518500D01*
X158775800Y-73316000D02*
X157573300Y-74518500D01*
X168910000Y-73316000D02*
X158775800Y-73316000D01*
X106433700Y-123656600D02*
X104355300Y-125735000D01*
X138535100Y-123656600D02*
X106433700Y-123656600D01*
X139763700Y-122428000D02*
X138535100Y-123656600D01*
X168910000Y-75856000D02*
X167728700Y-75856000D01*
X140945000Y-75856000D02*
X142126300Y-75856000D01*
X143316900Y-77046600D02*
X142126300Y-75856000D01*
X165100700Y-77046600D02*
X143316900Y-77046600D01*
X166291300Y-75856000D02*
X165100700Y-77046600D01*
X167728700Y-75856000D02*
X166291300Y-75856000D01*
X103124000Y-128275000D02*
X104355300Y-128275000D01*
X143307600Y-126149300D02*
X142126300Y-124968000D01*
X157112200Y-126149300D02*
X143307600Y-126149300D01*
X158293500Y-124968000D02*
X157112200Y-126149300D01*
X168910000Y-124968000D02*
X158293500Y-124968000D01*
X140945000Y-124968000D02*
X139763700Y-124968000D01*
X140945000Y-124968000D02*
X142126300Y-124968000D01*
X107662300Y-124968000D02*
X104355300Y-128275000D01*
X139763700Y-124968000D02*
X107662300Y-124968000D01*
X168910000Y-78396000D02*
X167728700Y-78396000D01*
X140945000Y-78396000D02*
X142126300Y-78396000D01*
X103124000Y-130815000D02*
X104355300Y-130815000D01*
X107662300Y-127508000D02*
X104355300Y-130815000D01*
X139763700Y-127508000D02*
X107662300Y-127508000D01*
X140354400Y-127508000D02*
X139763700Y-127508000D01*
X140354400Y-127508000D02*
X140945000Y-127508000D01*
X166538100Y-128698600D02*
X167728700Y-127508000D01*
X143316900Y-128698600D02*
X166538100Y-128698600D01*
X142126300Y-127508000D02*
X143316900Y-128698600D01*
X140945000Y-127508000D02*
X142126300Y-127508000D01*
X168910000Y-127508000D02*
X167728700Y-127508000D01*
X143315800Y-79585500D02*
X142126300Y-78396000D01*
X166539200Y-79585500D02*
X143315800Y-79585500D01*
X167728700Y-78396000D02*
X166539200Y-79585500D01*
X140945000Y-80936000D02*
X142126300Y-80936000D01*
X142599800Y-80462500D02*
X153790600Y-80462500D01*
X142126300Y-80936000D02*
X142599800Y-80462500D01*
X166539900Y-131236800D02*
X167728700Y-130048000D01*
X143315100Y-131236800D02*
X166539900Y-131236800D01*
X142126300Y-130048000D02*
X143315100Y-131236800D01*
X168910000Y-130048000D02*
X167728700Y-130048000D01*
X141535700Y-130048000D02*
X142126300Y-130048000D01*
X141535700Y-130048000D02*
X140945000Y-130048000D01*
X107662300Y-130048000D02*
X104355300Y-133355000D01*
X140945000Y-130048000D02*
X107662300Y-130048000D01*
X103124000Y-133355000D02*
X104355300Y-133355000D01*
X168910000Y-132588000D02*
X167728700Y-132588000D01*
X140945000Y-132588000D02*
X139763700Y-132588000D01*
X103124000Y-135895000D02*
X104355300Y-135895000D01*
X150286000Y-132588000D02*
X140945000Y-132588000D01*
X151474800Y-133776800D02*
X150286000Y-132588000D01*
X166539900Y-133776800D02*
X151474800Y-133776800D01*
X167728700Y-132588000D02*
X166539900Y-133776800D01*
X107662300Y-132588000D02*
X139763700Y-132588000D01*
X104355300Y-135895000D02*
X107662300Y-132588000D01*
X143335200Y-82267100D02*
X142126300Y-83476000D01*
X166519800Y-82267100D02*
X143335200Y-82267100D01*
X167728700Y-83476000D02*
X166519800Y-82267100D01*
X168910000Y-83476000D02*
X167728700Y-83476000D01*
X140945000Y-83476000D02*
X142126300Y-83476000D01*
X128058000Y-52516000D02*
X124948000Y-55626000D01*
X148358000Y-52516000D02*
X128058000Y-52516000D01*
X149820000Y-51054000D02*
X148358000Y-52516000D01*
X119888000Y-88138000D02*
X121469300Y-88138000D01*
X140945000Y-93636000D02*
X139763700Y-93636000D01*
X151016700Y-49857300D02*
X149820000Y-51054000D01*
X176588300Y-49857300D02*
X151016700Y-49857300D01*
X177785000Y-51054000D02*
X176588300Y-49857300D01*
X166538100Y-141557400D02*
X167728700Y-142748000D01*
X143316900Y-141557400D02*
X166538100Y-141557400D01*
X142126300Y-142748000D02*
X143316900Y-141557400D01*
X140945000Y-142748000D02*
X142126300Y-142748000D01*
X168910000Y-142748000D02*
X167728700Y-142748000D01*
X126967300Y-93636000D02*
X121469300Y-88138000D01*
X139763700Y-93636000D02*
X126967300Y-93636000D01*
X142189500Y-93699200D02*
X142126300Y-93636000D01*
X148432400Y-93699200D02*
X142189500Y-93699200D01*
X140945000Y-93636000D02*
X142126300Y-93636000D01*
X171345000Y-93636000D02*
X168910000Y-93636000D01*
X177785000Y-100076000D02*
X171345000Y-93636000D01*
X155078700Y-94817300D02*
X149820000Y-100076000D01*
X166547400Y-94817300D02*
X155078700Y-94817300D01*
X167728700Y-93636000D02*
X166547400Y-94817300D01*
X168910000Y-93636000D02*
X167728700Y-93636000D01*
X135498800Y-138483100D02*
X139763700Y-142748000D01*
X103065900Y-138483100D02*
X135498800Y-138483100D01*
X101815300Y-137232500D02*
X103065900Y-138483100D01*
X101815300Y-132815800D02*
X101815300Y-137232500D01*
X101045800Y-132046300D02*
X101815300Y-132815800D01*
X100584000Y-132046300D02*
X101045800Y-132046300D01*
X100584000Y-130815000D02*
X100584000Y-132046300D01*
X140945000Y-142748000D02*
X139763700Y-142748000D01*
M02*
