G04 #@! TF.GenerationSoftware,KiCad,Pcbnew,(6.0.2)*
G04 #@! TF.CreationDate,2022-11-06T15:02:32-08:00*
G04 #@! TF.ProjectId,RAM and ROM,52414d20-616e-4642-9052-4f4d2e6b6963,1.0*
G04 #@! TF.SameCoordinates,Original*
G04 #@! TF.FileFunction,Legend,Top*
G04 #@! TF.FilePolarity,Positive*
%FSLAX46Y46*%
G04 Gerber Fmt 4.6, Leading zero omitted, Abs format (unit mm)*
G04 Created by KiCad (PCBNEW (6.0.2)) date 2022-11-06 15:02:32*
%MOMM*%
%LPD*%
G01*
G04 APERTURE LIST*
%ADD10C,0.250000*%
%ADD11C,0.300000*%
%ADD12C,0.150000*%
%ADD13C,0.600000*%
%ADD14C,0.120000*%
%ADD15R,1.700000X1.700000*%
%ADD16O,1.700000X1.700000*%
%ADD17C,3.200000*%
%ADD18C,1.600000*%
%ADD19O,1.600000X1.600000*%
%ADD20R,1.600000X1.600000*%
%ADD21R,1.800000X1.800000*%
%ADD22C,1.800000*%
%ADD23R,2.400000X1.600000*%
%ADD24O,2.400000X1.600000*%
G04 APERTURE END LIST*
D10*
X108799333Y-60487095D02*
X108799333Y-60963285D01*
X108513619Y-60391857D02*
X109513619Y-60725190D01*
X108513619Y-61058523D01*
X108513619Y-61820428D02*
X109513619Y-61820428D01*
X108561238Y-61820428D02*
X108513619Y-61725190D01*
X108513619Y-61534714D01*
X108561238Y-61439476D01*
X108608857Y-61391857D01*
X108704095Y-61344238D01*
X108989809Y-61344238D01*
X109085047Y-61391857D01*
X109132666Y-61439476D01*
X109180285Y-61534714D01*
X109180285Y-61725190D01*
X109132666Y-61820428D01*
X108513619Y-62725190D02*
X109513619Y-62725190D01*
X108561238Y-62725190D02*
X108513619Y-62629952D01*
X108513619Y-62439476D01*
X108561238Y-62344238D01*
X108608857Y-62296619D01*
X108704095Y-62249000D01*
X108989809Y-62249000D01*
X109085047Y-62296619D01*
X109132666Y-62344238D01*
X109180285Y-62439476D01*
X109180285Y-62629952D01*
X109132666Y-62725190D01*
X108513619Y-63201380D02*
X109180285Y-63201380D01*
X108989809Y-63201380D02*
X109085047Y-63249000D01*
X109132666Y-63296619D01*
X109180285Y-63391857D01*
X109180285Y-63487095D01*
X108561238Y-64201380D02*
X108513619Y-64106142D01*
X108513619Y-63915666D01*
X108561238Y-63820428D01*
X108656476Y-63772809D01*
X109037428Y-63772809D01*
X109132666Y-63820428D01*
X109180285Y-63915666D01*
X109180285Y-64106142D01*
X109132666Y-64201380D01*
X109037428Y-64249000D01*
X108942190Y-64249000D01*
X108846952Y-63772809D01*
X108561238Y-64629952D02*
X108513619Y-64725190D01*
X108513619Y-64915666D01*
X108561238Y-65010904D01*
X108656476Y-65058523D01*
X108704095Y-65058523D01*
X108799333Y-65010904D01*
X108846952Y-64915666D01*
X108846952Y-64772809D01*
X108894571Y-64677571D01*
X108989809Y-64629952D01*
X109037428Y-64629952D01*
X109132666Y-64677571D01*
X109180285Y-64772809D01*
X109180285Y-64915666D01*
X109132666Y-65010904D01*
X108561238Y-65439476D02*
X108513619Y-65534714D01*
X108513619Y-65725190D01*
X108561238Y-65820428D01*
X108656476Y-65868047D01*
X108704095Y-65868047D01*
X108799333Y-65820428D01*
X108846952Y-65725190D01*
X108846952Y-65582333D01*
X108894571Y-65487095D01*
X108989809Y-65439476D01*
X109037428Y-65439476D01*
X109132666Y-65487095D01*
X109180285Y-65582333D01*
X109180285Y-65725190D01*
X109132666Y-65820428D01*
X108513619Y-67058523D02*
X109513619Y-67058523D01*
X109513619Y-67296619D01*
X109466000Y-67439476D01*
X109370761Y-67534714D01*
X109275523Y-67582333D01*
X109085047Y-67629952D01*
X108942190Y-67629952D01*
X108751714Y-67582333D01*
X108656476Y-67534714D01*
X108561238Y-67439476D01*
X108513619Y-67296619D01*
X108513619Y-67058523D01*
X108561238Y-68439476D02*
X108513619Y-68344238D01*
X108513619Y-68153761D01*
X108561238Y-68058523D01*
X108656476Y-68010904D01*
X109037428Y-68010904D01*
X109132666Y-68058523D01*
X109180285Y-68153761D01*
X109180285Y-68344238D01*
X109132666Y-68439476D01*
X109037428Y-68487095D01*
X108942190Y-68487095D01*
X108846952Y-68010904D01*
X108561238Y-69344238D02*
X108513619Y-69249000D01*
X108513619Y-69058523D01*
X108561238Y-68963285D01*
X108608857Y-68915666D01*
X108704095Y-68868047D01*
X108989809Y-68868047D01*
X109085047Y-68915666D01*
X109132666Y-68963285D01*
X109180285Y-69058523D01*
X109180285Y-69249000D01*
X109132666Y-69344238D01*
X108513619Y-69915666D02*
X108561238Y-69820428D01*
X108608857Y-69772809D01*
X108704095Y-69725190D01*
X108989809Y-69725190D01*
X109085047Y-69772809D01*
X109132666Y-69820428D01*
X109180285Y-69915666D01*
X109180285Y-70058523D01*
X109132666Y-70153761D01*
X109085047Y-70201380D01*
X108989809Y-70249000D01*
X108704095Y-70249000D01*
X108608857Y-70201380D01*
X108561238Y-70153761D01*
X108513619Y-70058523D01*
X108513619Y-69915666D01*
X108513619Y-71106142D02*
X109513619Y-71106142D01*
X108561238Y-71106142D02*
X108513619Y-71010904D01*
X108513619Y-70820428D01*
X108561238Y-70725190D01*
X108608857Y-70677571D01*
X108704095Y-70629952D01*
X108989809Y-70629952D01*
X109085047Y-70677571D01*
X109132666Y-70725190D01*
X109180285Y-70820428D01*
X109180285Y-71010904D01*
X109132666Y-71106142D01*
X108561238Y-71963285D02*
X108513619Y-71868047D01*
X108513619Y-71677571D01*
X108561238Y-71582333D01*
X108656476Y-71534714D01*
X109037428Y-71534714D01*
X109132666Y-71582333D01*
X109180285Y-71677571D01*
X109180285Y-71868047D01*
X109132666Y-71963285D01*
X109037428Y-72010904D01*
X108942190Y-72010904D01*
X108846952Y-71534714D01*
X183804404Y-74176000D02*
X183709166Y-74128380D01*
X183566309Y-74128380D01*
X183423452Y-74176000D01*
X183328214Y-74271238D01*
X183280595Y-74366476D01*
X183232976Y-74556952D01*
X183232976Y-74699809D01*
X183280595Y-74890285D01*
X183328214Y-74985523D01*
X183423452Y-75080761D01*
X183566309Y-75128380D01*
X183661547Y-75128380D01*
X183804404Y-75080761D01*
X183852023Y-75033142D01*
X183852023Y-74699809D01*
X183661547Y-74699809D01*
X184280595Y-75128380D02*
X184280595Y-74128380D01*
X184852023Y-75128380D01*
X184852023Y-74128380D01*
X185328214Y-75128380D02*
X185328214Y-74128380D01*
X185566309Y-74128380D01*
X185709166Y-74176000D01*
X185804404Y-74271238D01*
X185852023Y-74366476D01*
X185899642Y-74556952D01*
X185899642Y-74699809D01*
X185852023Y-74890285D01*
X185804404Y-74985523D01*
X185709166Y-75080761D01*
X185566309Y-75128380D01*
X185328214Y-75128380D01*
X183232976Y-72302666D02*
X183709166Y-72302666D01*
X183137738Y-72588380D02*
X183471071Y-71588380D01*
X183804404Y-72588380D01*
X184090119Y-71683619D02*
X184137738Y-71636000D01*
X184232976Y-71588380D01*
X184471071Y-71588380D01*
X184566309Y-71636000D01*
X184613928Y-71683619D01*
X184661547Y-71778857D01*
X184661547Y-71874095D01*
X184613928Y-72016952D01*
X184042500Y-72588380D01*
X184661547Y-72588380D01*
X184994880Y-71588380D02*
X185613928Y-71588380D01*
X185280595Y-71969333D01*
X185423452Y-71969333D01*
X185518690Y-72016952D01*
X185566309Y-72064571D01*
X185613928Y-72159809D01*
X185613928Y-72397904D01*
X185566309Y-72493142D01*
X185518690Y-72540761D01*
X185423452Y-72588380D01*
X185137738Y-72588380D01*
X185042500Y-72540761D01*
X184994880Y-72493142D01*
X183232976Y-69762666D02*
X183709166Y-69762666D01*
X183137738Y-70048380D02*
X183471071Y-69048380D01*
X183804404Y-70048380D01*
X184090119Y-69143619D02*
X184137738Y-69096000D01*
X184232976Y-69048380D01*
X184471071Y-69048380D01*
X184566309Y-69096000D01*
X184613928Y-69143619D01*
X184661547Y-69238857D01*
X184661547Y-69334095D01*
X184613928Y-69476952D01*
X184042500Y-70048380D01*
X184661547Y-70048380D01*
X185042500Y-69143619D02*
X185090119Y-69096000D01*
X185185357Y-69048380D01*
X185423452Y-69048380D01*
X185518690Y-69096000D01*
X185566309Y-69143619D01*
X185613928Y-69238857D01*
X185613928Y-69334095D01*
X185566309Y-69476952D01*
X184994880Y-70048380D01*
X185613928Y-70048380D01*
X183232976Y-67222666D02*
X183709166Y-67222666D01*
X183137738Y-67508380D02*
X183471071Y-66508380D01*
X183804404Y-67508380D01*
X184090119Y-66603619D02*
X184137738Y-66556000D01*
X184232976Y-66508380D01*
X184471071Y-66508380D01*
X184566309Y-66556000D01*
X184613928Y-66603619D01*
X184661547Y-66698857D01*
X184661547Y-66794095D01*
X184613928Y-66936952D01*
X184042500Y-67508380D01*
X184661547Y-67508380D01*
X185613928Y-67508380D02*
X185042500Y-67508380D01*
X185328214Y-67508380D02*
X185328214Y-66508380D01*
X185232976Y-66651238D01*
X185137738Y-66746476D01*
X185042500Y-66794095D01*
X183232976Y-64682666D02*
X183709166Y-64682666D01*
X183137738Y-64968380D02*
X183471071Y-63968380D01*
X183804404Y-64968380D01*
X184090119Y-64063619D02*
X184137738Y-64016000D01*
X184232976Y-63968380D01*
X184471071Y-63968380D01*
X184566309Y-64016000D01*
X184613928Y-64063619D01*
X184661547Y-64158857D01*
X184661547Y-64254095D01*
X184613928Y-64396952D01*
X184042500Y-64968380D01*
X184661547Y-64968380D01*
X185280595Y-63968380D02*
X185375833Y-63968380D01*
X185471071Y-64016000D01*
X185518690Y-64063619D01*
X185566309Y-64158857D01*
X185613928Y-64349333D01*
X185613928Y-64587428D01*
X185566309Y-64777904D01*
X185518690Y-64873142D01*
X185471071Y-64920761D01*
X185375833Y-64968380D01*
X185280595Y-64968380D01*
X185185357Y-64920761D01*
X185137738Y-64873142D01*
X185090119Y-64777904D01*
X185042500Y-64587428D01*
X185042500Y-64349333D01*
X185090119Y-64158857D01*
X185137738Y-64063619D01*
X185185357Y-64016000D01*
X185280595Y-63968380D01*
X183471071Y-61428380D02*
X183661547Y-61428380D01*
X183756785Y-61476000D01*
X183852023Y-61571238D01*
X183899642Y-61761714D01*
X183899642Y-62095047D01*
X183852023Y-62285523D01*
X183756785Y-62380761D01*
X183661547Y-62428380D01*
X183471071Y-62428380D01*
X183375833Y-62380761D01*
X183280595Y-62285523D01*
X183232976Y-62095047D01*
X183232976Y-61761714D01*
X183280595Y-61571238D01*
X183375833Y-61476000D01*
X183471071Y-61428380D01*
X184756785Y-62428380D02*
X184756785Y-61428380D01*
X184756785Y-62380761D02*
X184661547Y-62428380D01*
X184471071Y-62428380D01*
X184375833Y-62380761D01*
X184328214Y-62333142D01*
X184280595Y-62237904D01*
X184280595Y-61952190D01*
X184328214Y-61856952D01*
X184375833Y-61809333D01*
X184471071Y-61761714D01*
X184661547Y-61761714D01*
X184756785Y-61809333D01*
X185661547Y-62428380D02*
X185661547Y-61428380D01*
X185661547Y-62380761D02*
X185566309Y-62428380D01*
X185375833Y-62428380D01*
X185280595Y-62380761D01*
X185232976Y-62333142D01*
X185185357Y-62237904D01*
X185185357Y-61952190D01*
X185232976Y-61856952D01*
X185280595Y-61809333D01*
X185375833Y-61761714D01*
X185566309Y-61761714D01*
X185661547Y-61809333D01*
X187471071Y-62428380D02*
X187137738Y-61952190D01*
X186899642Y-62428380D02*
X186899642Y-61428380D01*
X187280595Y-61428380D01*
X187375833Y-61476000D01*
X187423452Y-61523619D01*
X187471071Y-61618857D01*
X187471071Y-61761714D01*
X187423452Y-61856952D01*
X187375833Y-61904571D01*
X187280595Y-61952190D01*
X186899642Y-61952190D01*
X187852023Y-62142666D02*
X188328214Y-62142666D01*
X187756785Y-62428380D02*
X188090119Y-61428380D01*
X188423452Y-62428380D01*
X188756785Y-62428380D02*
X188756785Y-61428380D01*
X189090119Y-62142666D01*
X189423452Y-61428380D01*
X189423452Y-62428380D01*
X183280595Y-59364571D02*
X183613928Y-59364571D01*
X183756785Y-59888380D02*
X183280595Y-59888380D01*
X183280595Y-58888380D01*
X183756785Y-58888380D01*
X184090119Y-59221714D02*
X184328214Y-59888380D01*
X184566309Y-59221714D01*
X185328214Y-59840761D02*
X185232976Y-59888380D01*
X185042500Y-59888380D01*
X184947261Y-59840761D01*
X184899642Y-59745523D01*
X184899642Y-59364571D01*
X184947261Y-59269333D01*
X185042500Y-59221714D01*
X185232976Y-59221714D01*
X185328214Y-59269333D01*
X185375833Y-59364571D01*
X185375833Y-59459809D01*
X184899642Y-59555047D01*
X185804404Y-59221714D02*
X185804404Y-59888380D01*
X185804404Y-59316952D02*
X185852023Y-59269333D01*
X185947261Y-59221714D01*
X186090119Y-59221714D01*
X186185357Y-59269333D01*
X186232976Y-59364571D01*
X186232976Y-59888380D01*
X188042500Y-59888380D02*
X187709166Y-59412190D01*
X187471071Y-59888380D02*
X187471071Y-58888380D01*
X187852023Y-58888380D01*
X187947261Y-58936000D01*
X187994880Y-58983619D01*
X188042500Y-59078857D01*
X188042500Y-59221714D01*
X187994880Y-59316952D01*
X187947261Y-59364571D01*
X187852023Y-59412190D01*
X187471071Y-59412190D01*
X188423452Y-59602666D02*
X188899642Y-59602666D01*
X188328214Y-59888380D02*
X188661547Y-58888380D01*
X188994880Y-59888380D01*
X189328214Y-59888380D02*
X189328214Y-58888380D01*
X189661547Y-59602666D01*
X189994880Y-58888380D01*
X189994880Y-59888380D01*
X183471071Y-56348380D02*
X183661547Y-56348380D01*
X183756785Y-56396000D01*
X183852023Y-56491238D01*
X183899642Y-56681714D01*
X183899642Y-57015047D01*
X183852023Y-57205523D01*
X183756785Y-57300761D01*
X183661547Y-57348380D01*
X183471071Y-57348380D01*
X183375833Y-57300761D01*
X183280595Y-57205523D01*
X183232976Y-57015047D01*
X183232976Y-56681714D01*
X183280595Y-56491238D01*
X183375833Y-56396000D01*
X183471071Y-56348380D01*
X184756785Y-57348380D02*
X184756785Y-56348380D01*
X184756785Y-57300761D02*
X184661547Y-57348380D01*
X184471071Y-57348380D01*
X184375833Y-57300761D01*
X184328214Y-57253142D01*
X184280595Y-57157904D01*
X184280595Y-56872190D01*
X184328214Y-56776952D01*
X184375833Y-56729333D01*
X184471071Y-56681714D01*
X184661547Y-56681714D01*
X184756785Y-56729333D01*
X185661547Y-57348380D02*
X185661547Y-56348380D01*
X185661547Y-57300761D02*
X185566309Y-57348380D01*
X185375833Y-57348380D01*
X185280595Y-57300761D01*
X185232976Y-57253142D01*
X185185357Y-57157904D01*
X185185357Y-56872190D01*
X185232976Y-56776952D01*
X185280595Y-56729333D01*
X185375833Y-56681714D01*
X185566309Y-56681714D01*
X185661547Y-56729333D01*
X187471071Y-57348380D02*
X187137738Y-56872190D01*
X186899642Y-57348380D02*
X186899642Y-56348380D01*
X187280595Y-56348380D01*
X187375833Y-56396000D01*
X187423452Y-56443619D01*
X187471071Y-56538857D01*
X187471071Y-56681714D01*
X187423452Y-56776952D01*
X187375833Y-56824571D01*
X187280595Y-56872190D01*
X186899642Y-56872190D01*
X188090119Y-56348380D02*
X188280595Y-56348380D01*
X188375833Y-56396000D01*
X188471071Y-56491238D01*
X188518690Y-56681714D01*
X188518690Y-57015047D01*
X188471071Y-57205523D01*
X188375833Y-57300761D01*
X188280595Y-57348380D01*
X188090119Y-57348380D01*
X187994880Y-57300761D01*
X187899642Y-57205523D01*
X187852023Y-57015047D01*
X187852023Y-56681714D01*
X187899642Y-56491238D01*
X187994880Y-56396000D01*
X188090119Y-56348380D01*
X188947261Y-57348380D02*
X188947261Y-56348380D01*
X189280595Y-57062666D01*
X189613928Y-56348380D01*
X189613928Y-57348380D01*
X183280595Y-54284571D02*
X183613928Y-54284571D01*
X183756785Y-54808380D02*
X183280595Y-54808380D01*
X183280595Y-53808380D01*
X183756785Y-53808380D01*
X184090119Y-54141714D02*
X184328214Y-54808380D01*
X184566309Y-54141714D01*
X185328214Y-54760761D02*
X185232976Y-54808380D01*
X185042500Y-54808380D01*
X184947261Y-54760761D01*
X184899642Y-54665523D01*
X184899642Y-54284571D01*
X184947261Y-54189333D01*
X185042500Y-54141714D01*
X185232976Y-54141714D01*
X185328214Y-54189333D01*
X185375833Y-54284571D01*
X185375833Y-54379809D01*
X184899642Y-54475047D01*
X185804404Y-54141714D02*
X185804404Y-54808380D01*
X185804404Y-54236952D02*
X185852023Y-54189333D01*
X185947261Y-54141714D01*
X186090119Y-54141714D01*
X186185357Y-54189333D01*
X186232976Y-54284571D01*
X186232976Y-54808380D01*
X188042500Y-54808380D02*
X187709166Y-54332190D01*
X187471071Y-54808380D02*
X187471071Y-53808380D01*
X187852023Y-53808380D01*
X187947261Y-53856000D01*
X187994880Y-53903619D01*
X188042500Y-53998857D01*
X188042500Y-54141714D01*
X187994880Y-54236952D01*
X187947261Y-54284571D01*
X187852023Y-54332190D01*
X187471071Y-54332190D01*
X188661547Y-53808380D02*
X188852023Y-53808380D01*
X188947261Y-53856000D01*
X189042500Y-53951238D01*
X189090119Y-54141714D01*
X189090119Y-54475047D01*
X189042500Y-54665523D01*
X188947261Y-54760761D01*
X188852023Y-54808380D01*
X188661547Y-54808380D01*
X188566309Y-54760761D01*
X188471071Y-54665523D01*
X188423452Y-54475047D01*
X188423452Y-54141714D01*
X188471071Y-53951238D01*
X188566309Y-53856000D01*
X188661547Y-53808380D01*
X189518690Y-54808380D02*
X189518690Y-53808380D01*
X189852023Y-54522666D01*
X190185357Y-53808380D01*
X190185357Y-54808380D01*
D11*
X107501428Y-124087714D02*
X106001428Y-124587714D01*
X107501428Y-125087714D01*
X107358571Y-125516285D02*
X107430000Y-125587714D01*
X107501428Y-125730571D01*
X107501428Y-126087714D01*
X107430000Y-126230571D01*
X107358571Y-126302000D01*
X107215714Y-126373428D01*
X107072857Y-126373428D01*
X106858571Y-126302000D01*
X106001428Y-125444857D01*
X106001428Y-126373428D01*
X107501428Y-127302000D02*
X107501428Y-127444857D01*
X107430000Y-127587714D01*
X107358571Y-127659142D01*
X107215714Y-127730571D01*
X106930000Y-127802000D01*
X106572857Y-127802000D01*
X106287142Y-127730571D01*
X106144285Y-127659142D01*
X106072857Y-127587714D01*
X106001428Y-127444857D01*
X106001428Y-127302000D01*
X106072857Y-127159142D01*
X106144285Y-127087714D01*
X106287142Y-127016285D01*
X106572857Y-126944857D01*
X106930000Y-126944857D01*
X107215714Y-127016285D01*
X107358571Y-127087714D01*
X107430000Y-127159142D01*
X107501428Y-127302000D01*
X107358571Y-128373428D02*
X107430000Y-128444857D01*
X107501428Y-128587714D01*
X107501428Y-128944857D01*
X107430000Y-129087714D01*
X107358571Y-129159142D01*
X107215714Y-129230571D01*
X107072857Y-129230571D01*
X106858571Y-129159142D01*
X106001428Y-128302000D01*
X106001428Y-129230571D01*
X107358571Y-129802000D02*
X107430000Y-129873428D01*
X107501428Y-130016285D01*
X107501428Y-130373428D01*
X107430000Y-130516285D01*
X107358571Y-130587714D01*
X107215714Y-130659142D01*
X107072857Y-130659142D01*
X106858571Y-130587714D01*
X106001428Y-129730571D01*
X106001428Y-130659142D01*
X106001428Y-132087714D02*
X106001428Y-131230571D01*
X106001428Y-131659142D02*
X107501428Y-131659142D01*
X107287142Y-131516285D01*
X107144285Y-131373428D01*
X107072857Y-131230571D01*
X106001428Y-133516285D02*
X106001428Y-132659142D01*
X106001428Y-133087714D02*
X107501428Y-133087714D01*
X107287142Y-132944857D01*
X107144285Y-132802000D01*
X107072857Y-132659142D01*
X107501428Y-134444857D02*
X107501428Y-134587714D01*
X107430000Y-134730571D01*
X107358571Y-134802000D01*
X107215714Y-134873428D01*
X106930000Y-134944857D01*
X106572857Y-134944857D01*
X106287142Y-134873428D01*
X106144285Y-134802000D01*
X106072857Y-134730571D01*
X106001428Y-134587714D01*
X106001428Y-134444857D01*
X106072857Y-134302000D01*
X106144285Y-134230571D01*
X106287142Y-134159142D01*
X106572857Y-134087714D01*
X106930000Y-134087714D01*
X107215714Y-134159142D01*
X107358571Y-134230571D01*
X107430000Y-134302000D01*
X107501428Y-134444857D01*
X107501428Y-136230571D02*
X107501428Y-135944857D01*
X107430000Y-135802000D01*
X107358571Y-135730571D01*
X107144285Y-135587714D01*
X106858571Y-135516285D01*
X106287142Y-135516285D01*
X106144285Y-135587714D01*
X106072857Y-135659142D01*
X106001428Y-135802000D01*
X106001428Y-136087714D01*
X106072857Y-136230571D01*
X106144285Y-136302000D01*
X106287142Y-136373428D01*
X106644285Y-136373428D01*
X106787142Y-136302000D01*
X106858571Y-136230571D01*
X106930000Y-136087714D01*
X106930000Y-135802000D01*
X106858571Y-135659142D01*
X106787142Y-135587714D01*
X106644285Y-135516285D01*
D12*
X127717380Y-124827428D02*
X127717380Y-124636952D01*
X127765000Y-124541714D01*
X127860238Y-124446476D01*
X128050714Y-124398857D01*
X128384047Y-124398857D01*
X128574523Y-124446476D01*
X128669761Y-124541714D01*
X128717380Y-124636952D01*
X128717380Y-124827428D01*
X128669761Y-124922666D01*
X128574523Y-125017904D01*
X128384047Y-125065523D01*
X128050714Y-125065523D01*
X127860238Y-125017904D01*
X127765000Y-124922666D01*
X127717380Y-124827428D01*
X128717380Y-123970285D02*
X127717380Y-123970285D01*
X127717380Y-123732190D01*
X127765000Y-123589333D01*
X127860238Y-123494095D01*
X127955476Y-123446476D01*
X128145952Y-123398857D01*
X128288809Y-123398857D01*
X128479285Y-123446476D01*
X128574523Y-123494095D01*
X128669761Y-123589333D01*
X128717380Y-123732190D01*
X128717380Y-123970285D01*
X128717380Y-122970285D02*
X127717380Y-122970285D01*
X127717380Y-122732190D01*
X127765000Y-122589333D01*
X127860238Y-122494095D01*
X127955476Y-122446476D01*
X128145952Y-122398857D01*
X128288809Y-122398857D01*
X128479285Y-122446476D01*
X128574523Y-122494095D01*
X128669761Y-122589333D01*
X128717380Y-122732190D01*
X128717380Y-122970285D01*
X128717380Y-120636952D02*
X128241190Y-120970285D01*
X128717380Y-121208380D02*
X127717380Y-121208380D01*
X127717380Y-120827428D01*
X127765000Y-120732190D01*
X127812619Y-120684571D01*
X127907857Y-120636952D01*
X128050714Y-120636952D01*
X128145952Y-120684571D01*
X128193571Y-120732190D01*
X128241190Y-120827428D01*
X128241190Y-121208380D01*
X127717380Y-120017904D02*
X127717380Y-119827428D01*
X127765000Y-119732190D01*
X127860238Y-119636952D01*
X128050714Y-119589333D01*
X128384047Y-119589333D01*
X128574523Y-119636952D01*
X128669761Y-119732190D01*
X128717380Y-119827428D01*
X128717380Y-120017904D01*
X128669761Y-120113142D01*
X128574523Y-120208380D01*
X128384047Y-120256000D01*
X128050714Y-120256000D01*
X127860238Y-120208380D01*
X127765000Y-120113142D01*
X127717380Y-120017904D01*
X128717380Y-119160761D02*
X127717380Y-119160761D01*
X128431666Y-118827428D01*
X127717380Y-118494095D01*
X128717380Y-118494095D01*
X150804571Y-125261238D02*
X150804571Y-124927904D01*
X151328380Y-124785047D02*
X151328380Y-125261238D01*
X150328380Y-125261238D01*
X150328380Y-124785047D01*
X150328380Y-124499333D02*
X151328380Y-124166000D01*
X150328380Y-123832666D01*
X150804571Y-123499333D02*
X150804571Y-123166000D01*
X151328380Y-123023142D02*
X151328380Y-123499333D01*
X150328380Y-123499333D01*
X150328380Y-123023142D01*
X151328380Y-122594571D02*
X150328380Y-122594571D01*
X151328380Y-122023142D01*
X150328380Y-122023142D01*
X151328380Y-120213619D02*
X150852190Y-120546952D01*
X151328380Y-120785047D02*
X150328380Y-120785047D01*
X150328380Y-120404095D01*
X150376000Y-120308857D01*
X150423619Y-120261238D01*
X150518857Y-120213619D01*
X150661714Y-120213619D01*
X150756952Y-120261238D01*
X150804571Y-120308857D01*
X150852190Y-120404095D01*
X150852190Y-120785047D01*
X150328380Y-119594571D02*
X150328380Y-119404095D01*
X150376000Y-119308857D01*
X150471238Y-119213619D01*
X150661714Y-119166000D01*
X150995047Y-119166000D01*
X151185523Y-119213619D01*
X151280761Y-119308857D01*
X151328380Y-119404095D01*
X151328380Y-119594571D01*
X151280761Y-119689809D01*
X151185523Y-119785047D01*
X150995047Y-119832666D01*
X150661714Y-119832666D01*
X150471238Y-119785047D01*
X150376000Y-119689809D01*
X150328380Y-119594571D01*
X151328380Y-118737428D02*
X150328380Y-118737428D01*
X151042666Y-118404095D01*
X150328380Y-118070761D01*
X151328380Y-118070761D01*
D13*
X191825714Y-69091428D02*
X191682857Y-69520000D01*
X191682857Y-70234285D01*
X191825714Y-70520000D01*
X191968571Y-70662857D01*
X192254285Y-70805714D01*
X192540000Y-70805714D01*
X192825714Y-70662857D01*
X192968571Y-70520000D01*
X193111428Y-70234285D01*
X193254285Y-69662857D01*
X193397142Y-69377142D01*
X193540000Y-69234285D01*
X193825714Y-69091428D01*
X194111428Y-69091428D01*
X194397142Y-69234285D01*
X194540000Y-69377142D01*
X194682857Y-69662857D01*
X194682857Y-70377142D01*
X194540000Y-70805714D01*
X193682857Y-71662857D02*
X193682857Y-72805714D01*
X194682857Y-72091428D02*
X192111428Y-72091428D01*
X191825714Y-72234285D01*
X191682857Y-72520000D01*
X191682857Y-72805714D01*
X191825714Y-74948571D02*
X191682857Y-74662857D01*
X191682857Y-74091428D01*
X191825714Y-73805714D01*
X192111428Y-73662857D01*
X193254285Y-73662857D01*
X193540000Y-73805714D01*
X193682857Y-74091428D01*
X193682857Y-74662857D01*
X193540000Y-74948571D01*
X193254285Y-75091428D01*
X192968571Y-75091428D01*
X192682857Y-73662857D01*
X193682857Y-76091428D02*
X191682857Y-76805714D01*
X193682857Y-77520000D01*
X191825714Y-79805714D02*
X191682857Y-79520000D01*
X191682857Y-78948571D01*
X191825714Y-78662857D01*
X192111428Y-78520000D01*
X193254285Y-78520000D01*
X193540000Y-78662857D01*
X193682857Y-78948571D01*
X193682857Y-79520000D01*
X193540000Y-79805714D01*
X193254285Y-79948571D01*
X192968571Y-79948571D01*
X192682857Y-78520000D01*
X194682857Y-84805714D02*
X194682857Y-84234285D01*
X194540000Y-83948571D01*
X194397142Y-83805714D01*
X193968571Y-83520000D01*
X193397142Y-83377142D01*
X192254285Y-83377142D01*
X191968571Y-83520000D01*
X191825714Y-83662857D01*
X191682857Y-83948571D01*
X191682857Y-84520000D01*
X191825714Y-84805714D01*
X191968571Y-84948571D01*
X192254285Y-85091428D01*
X192968571Y-85091428D01*
X193254285Y-84948571D01*
X193397142Y-84805714D01*
X193540000Y-84520000D01*
X193540000Y-83948571D01*
X193397142Y-83662857D01*
X193254285Y-83520000D01*
X192968571Y-83377142D01*
X193397142Y-86805714D02*
X193540000Y-86520000D01*
X193682857Y-86377142D01*
X193968571Y-86234285D01*
X194111428Y-86234285D01*
X194397142Y-86377142D01*
X194540000Y-86520000D01*
X194682857Y-86805714D01*
X194682857Y-87377142D01*
X194540000Y-87662857D01*
X194397142Y-87805714D01*
X194111428Y-87948571D01*
X193968571Y-87948571D01*
X193682857Y-87805714D01*
X193540000Y-87662857D01*
X193397142Y-87377142D01*
X193397142Y-86805714D01*
X193254285Y-86520000D01*
X193111428Y-86377142D01*
X192825714Y-86234285D01*
X192254285Y-86234285D01*
X191968571Y-86377142D01*
X191825714Y-86520000D01*
X191682857Y-86805714D01*
X191682857Y-87377142D01*
X191825714Y-87662857D01*
X191968571Y-87805714D01*
X192254285Y-87948571D01*
X192825714Y-87948571D01*
X193111428Y-87805714D01*
X193254285Y-87662857D01*
X193397142Y-87377142D01*
X191682857Y-89234285D02*
X194682857Y-89234285D01*
X192825714Y-89520000D02*
X191682857Y-90377142D01*
X193682857Y-90377142D02*
X192540000Y-89234285D01*
X191682857Y-95662857D02*
X193111428Y-94662857D01*
X191682857Y-93948571D02*
X194682857Y-93948571D01*
X194682857Y-95091428D01*
X194540000Y-95377142D01*
X194397142Y-95520000D01*
X194111428Y-95662857D01*
X193682857Y-95662857D01*
X193397142Y-95520000D01*
X193254285Y-95377142D01*
X193111428Y-95091428D01*
X193111428Y-93948571D01*
X192540000Y-96805714D02*
X192540000Y-98234285D01*
X191682857Y-96520000D02*
X194682857Y-97520000D01*
X191682857Y-98520000D01*
X191682857Y-99520000D02*
X194682857Y-99520000D01*
X192540000Y-100520000D01*
X194682857Y-101520000D01*
X191682857Y-101520000D01*
X191682857Y-106520000D02*
X193254285Y-106520000D01*
X193540000Y-106377142D01*
X193682857Y-106091428D01*
X193682857Y-105520000D01*
X193540000Y-105234285D01*
X191825714Y-106520000D02*
X191682857Y-106234285D01*
X191682857Y-105520000D01*
X191825714Y-105234285D01*
X192111428Y-105091428D01*
X192397142Y-105091428D01*
X192682857Y-105234285D01*
X192825714Y-105520000D01*
X192825714Y-106234285D01*
X192968571Y-106520000D01*
X193682857Y-107948571D02*
X191682857Y-107948571D01*
X193397142Y-107948571D02*
X193540000Y-108091428D01*
X193682857Y-108377142D01*
X193682857Y-108805714D01*
X193540000Y-109091428D01*
X193254285Y-109234285D01*
X191682857Y-109234285D01*
X191682857Y-111948571D02*
X194682857Y-111948571D01*
X191825714Y-111948571D02*
X191682857Y-111662857D01*
X191682857Y-111091428D01*
X191825714Y-110805714D01*
X191968571Y-110662857D01*
X192254285Y-110520000D01*
X193111428Y-110520000D01*
X193397142Y-110662857D01*
X193540000Y-110805714D01*
X193682857Y-111091428D01*
X193682857Y-111662857D01*
X193540000Y-111948571D01*
X191682857Y-117377142D02*
X193111428Y-116377142D01*
X191682857Y-115662857D02*
X194682857Y-115662857D01*
X194682857Y-116805714D01*
X194540000Y-117091428D01*
X194397142Y-117234285D01*
X194111428Y-117377142D01*
X193682857Y-117377142D01*
X193397142Y-117234285D01*
X193254285Y-117091428D01*
X193111428Y-116805714D01*
X193111428Y-115662857D01*
X194682857Y-119234285D02*
X194682857Y-119805714D01*
X194540000Y-120091428D01*
X194254285Y-120377142D01*
X193682857Y-120520000D01*
X192682857Y-120520000D01*
X192111428Y-120377142D01*
X191825714Y-120091428D01*
X191682857Y-119805714D01*
X191682857Y-119234285D01*
X191825714Y-118948571D01*
X192111428Y-118662857D01*
X192682857Y-118520000D01*
X193682857Y-118520000D01*
X194254285Y-118662857D01*
X194540000Y-118948571D01*
X194682857Y-119234285D01*
X191682857Y-121805714D02*
X194682857Y-121805714D01*
X192540000Y-122805714D01*
X194682857Y-123805714D01*
X191682857Y-123805714D01*
D12*
X180006666Y-51478380D02*
X180006666Y-52192666D01*
X179959047Y-52335523D01*
X179863809Y-52430761D01*
X179720952Y-52478380D01*
X179625714Y-52478380D01*
X180435238Y-51573619D02*
X180482857Y-51526000D01*
X180578095Y-51478380D01*
X180816190Y-51478380D01*
X180911428Y-51526000D01*
X180959047Y-51573619D01*
X181006666Y-51668857D01*
X181006666Y-51764095D01*
X180959047Y-51906952D01*
X180387619Y-52478380D01*
X181006666Y-52478380D01*
X174129619Y-87209333D02*
X174605809Y-86876000D01*
X174129619Y-86637904D02*
X175129619Y-86637904D01*
X175129619Y-87018857D01*
X175082000Y-87114095D01*
X175034380Y-87161714D01*
X174939142Y-87209333D01*
X174796285Y-87209333D01*
X174701047Y-87161714D01*
X174653428Y-87114095D01*
X174605809Y-87018857D01*
X174605809Y-86637904D01*
X175129619Y-87542666D02*
X175129619Y-88161714D01*
X174748666Y-87828380D01*
X174748666Y-87971238D01*
X174701047Y-88066476D01*
X174653428Y-88114095D01*
X174558190Y-88161714D01*
X174320095Y-88161714D01*
X174224857Y-88114095D01*
X174177238Y-88066476D01*
X174129619Y-87971238D01*
X174129619Y-87685523D01*
X174177238Y-87590285D01*
X174224857Y-87542666D01*
X174129619Y-102955633D02*
X174605809Y-102622300D01*
X174129619Y-102384204D02*
X175129619Y-102384204D01*
X175129619Y-102765157D01*
X175082000Y-102860395D01*
X175034380Y-102908014D01*
X174939142Y-102955633D01*
X174796285Y-102955633D01*
X174701047Y-102908014D01*
X174653428Y-102860395D01*
X174605809Y-102765157D01*
X174605809Y-102384204D01*
X174129619Y-103908014D02*
X174129619Y-103336585D01*
X174129619Y-103622300D02*
X175129619Y-103622300D01*
X174986761Y-103527061D01*
X174891523Y-103431823D01*
X174843904Y-103336585D01*
X115642333Y-48349142D02*
X115594714Y-48396761D01*
X115451857Y-48444380D01*
X115356619Y-48444380D01*
X115213761Y-48396761D01*
X115118523Y-48301523D01*
X115070904Y-48206285D01*
X115023285Y-48015809D01*
X115023285Y-47872952D01*
X115070904Y-47682476D01*
X115118523Y-47587238D01*
X115213761Y-47492000D01*
X115356619Y-47444380D01*
X115451857Y-47444380D01*
X115594714Y-47492000D01*
X115642333Y-47539619D01*
X115975666Y-47444380D02*
X116642333Y-47444380D01*
X116213761Y-48444380D01*
X115642333Y-97371142D02*
X115594714Y-97418761D01*
X115451857Y-97466380D01*
X115356619Y-97466380D01*
X115213761Y-97418761D01*
X115118523Y-97323523D01*
X115070904Y-97228285D01*
X115023285Y-97037809D01*
X115023285Y-96894952D01*
X115070904Y-96704476D01*
X115118523Y-96609238D01*
X115213761Y-96514000D01*
X115356619Y-96466380D01*
X115451857Y-96466380D01*
X115594714Y-96514000D01*
X115642333Y-96561619D01*
X116547095Y-96466380D02*
X116070904Y-96466380D01*
X116023285Y-96942571D01*
X116070904Y-96894952D01*
X116166142Y-96847333D01*
X116404238Y-96847333D01*
X116499476Y-96894952D01*
X116547095Y-96942571D01*
X116594714Y-97037809D01*
X116594714Y-97275904D01*
X116547095Y-97371142D01*
X116499476Y-97418761D01*
X116404238Y-97466380D01*
X116166142Y-97466380D01*
X116070904Y-97418761D01*
X116023285Y-97371142D01*
X132563095Y-101008380D02*
X132563095Y-101817904D01*
X132610714Y-101913142D01*
X132658333Y-101960761D01*
X132753571Y-102008380D01*
X132944047Y-102008380D01*
X133039285Y-101960761D01*
X133086904Y-101913142D01*
X133134523Y-101817904D01*
X133134523Y-101008380D01*
X133563095Y-101103619D02*
X133610714Y-101056000D01*
X133705952Y-101008380D01*
X133944047Y-101008380D01*
X134039285Y-101056000D01*
X134086904Y-101103619D01*
X134134523Y-101198857D01*
X134134523Y-101294095D01*
X134086904Y-101436952D01*
X133515476Y-102008380D01*
X134134523Y-102008380D01*
X133163333Y-97371142D02*
X133115714Y-97418761D01*
X132972857Y-97466380D01*
X132877619Y-97466380D01*
X132734761Y-97418761D01*
X132639523Y-97323523D01*
X132591904Y-97228285D01*
X132544285Y-97037809D01*
X132544285Y-96894952D01*
X132591904Y-96704476D01*
X132639523Y-96609238D01*
X132734761Y-96514000D01*
X132877619Y-96466380D01*
X132972857Y-96466380D01*
X133115714Y-96514000D01*
X133163333Y-96561619D01*
X133544285Y-96561619D02*
X133591904Y-96514000D01*
X133687142Y-96466380D01*
X133925238Y-96466380D01*
X134020476Y-96514000D01*
X134068095Y-96561619D01*
X134115714Y-96656857D01*
X134115714Y-96752095D01*
X134068095Y-96894952D01*
X133496666Y-97466380D01*
X134115714Y-97466380D01*
X156048333Y-48349142D02*
X156000714Y-48396761D01*
X155857857Y-48444380D01*
X155762619Y-48444380D01*
X155619761Y-48396761D01*
X155524523Y-48301523D01*
X155476904Y-48206285D01*
X155429285Y-48015809D01*
X155429285Y-47872952D01*
X155476904Y-47682476D01*
X155524523Y-47587238D01*
X155619761Y-47492000D01*
X155762619Y-47444380D01*
X155857857Y-47444380D01*
X156000714Y-47492000D01*
X156048333Y-47539619D01*
X157000714Y-48444380D02*
X156429285Y-48444380D01*
X156715000Y-48444380D02*
X156715000Y-47444380D01*
X156619761Y-47587238D01*
X156524523Y-47682476D01*
X156429285Y-47730095D01*
X175823619Y-133881904D02*
X176823619Y-133881904D01*
X176823619Y-134120000D01*
X176776000Y-134262857D01*
X176680761Y-134358095D01*
X176585523Y-134405714D01*
X176395047Y-134453333D01*
X176252190Y-134453333D01*
X176061714Y-134405714D01*
X175966476Y-134358095D01*
X175871238Y-134262857D01*
X175823619Y-134120000D01*
X175823619Y-133881904D01*
X176490285Y-135310476D02*
X175823619Y-135310476D01*
X176871238Y-135072380D02*
X176156952Y-134834285D01*
X176156952Y-135453333D01*
X175823619Y-86632904D02*
X176823619Y-86632904D01*
X176823619Y-86871000D01*
X176776000Y-87013857D01*
X176680761Y-87109095D01*
X176585523Y-87156714D01*
X176395047Y-87204333D01*
X176252190Y-87204333D01*
X176061714Y-87156714D01*
X175966476Y-87109095D01*
X175871238Y-87013857D01*
X175823619Y-86871000D01*
X175823619Y-86632904D01*
X176823619Y-87537666D02*
X176823619Y-88156714D01*
X176442666Y-87823380D01*
X176442666Y-87966238D01*
X176395047Y-88061476D01*
X176347428Y-88109095D01*
X176252190Y-88156714D01*
X176014095Y-88156714D01*
X175918857Y-88109095D01*
X175871238Y-88061476D01*
X175823619Y-87966238D01*
X175823619Y-87680523D01*
X175871238Y-87585285D01*
X175918857Y-87537666D01*
X156048333Y-97371142D02*
X156000714Y-97418761D01*
X155857857Y-97466380D01*
X155762619Y-97466380D01*
X155619761Y-97418761D01*
X155524523Y-97323523D01*
X155476904Y-97228285D01*
X155429285Y-97037809D01*
X155429285Y-96894952D01*
X155476904Y-96704476D01*
X155524523Y-96609238D01*
X155619761Y-96514000D01*
X155762619Y-96466380D01*
X155857857Y-96466380D01*
X156000714Y-96514000D01*
X156048333Y-96561619D01*
X156905476Y-96799714D02*
X156905476Y-97466380D01*
X156667380Y-96418761D02*
X156429285Y-97133047D01*
X157048333Y-97133047D01*
X133163333Y-48349142D02*
X133115714Y-48396761D01*
X132972857Y-48444380D01*
X132877619Y-48444380D01*
X132734761Y-48396761D01*
X132639523Y-48301523D01*
X132591904Y-48206285D01*
X132544285Y-48015809D01*
X132544285Y-47872952D01*
X132591904Y-47682476D01*
X132639523Y-47587238D01*
X132734761Y-47492000D01*
X132877619Y-47444380D01*
X132972857Y-47444380D01*
X133115714Y-47492000D01*
X133163333Y-47539619D01*
X133496666Y-47444380D02*
X134115714Y-47444380D01*
X133782380Y-47825333D01*
X133925238Y-47825333D01*
X134020476Y-47872952D01*
X134068095Y-47920571D01*
X134115714Y-48015809D01*
X134115714Y-48253904D01*
X134068095Y-48349142D01*
X134020476Y-48396761D01*
X133925238Y-48444380D01*
X133639523Y-48444380D01*
X133544285Y-48396761D01*
X133496666Y-48349142D01*
X175823619Y-118133938D02*
X176823619Y-118133938D01*
X176823619Y-118372034D01*
X176776000Y-118514891D01*
X176680761Y-118610129D01*
X176585523Y-118657748D01*
X176395047Y-118705367D01*
X176252190Y-118705367D01*
X176061714Y-118657748D01*
X175966476Y-118610129D01*
X175871238Y-118514891D01*
X175823619Y-118372034D01*
X175823619Y-118133938D01*
X176728380Y-119086319D02*
X176776000Y-119133938D01*
X176823619Y-119229176D01*
X176823619Y-119467272D01*
X176776000Y-119562510D01*
X176728380Y-119610129D01*
X176633142Y-119657748D01*
X176537904Y-119657748D01*
X176395047Y-119610129D01*
X175823619Y-119038700D01*
X175823619Y-119657748D01*
X174129619Y-118702033D02*
X174605809Y-118368700D01*
X174129619Y-118130604D02*
X175129619Y-118130604D01*
X175129619Y-118511557D01*
X175082000Y-118606795D01*
X175034380Y-118654414D01*
X174939142Y-118702033D01*
X174796285Y-118702033D01*
X174701047Y-118654414D01*
X174653428Y-118606795D01*
X174605809Y-118511557D01*
X174605809Y-118130604D01*
X175034380Y-119082985D02*
X175082000Y-119130604D01*
X175129619Y-119225842D01*
X175129619Y-119463938D01*
X175082000Y-119559176D01*
X175034380Y-119606795D01*
X174939142Y-119654414D01*
X174843904Y-119654414D01*
X174701047Y-119606795D01*
X174129619Y-119035366D01*
X174129619Y-119654414D01*
X132563095Y-51896380D02*
X132563095Y-52705904D01*
X132610714Y-52801142D01*
X132658333Y-52848761D01*
X132753571Y-52896380D01*
X132944047Y-52896380D01*
X133039285Y-52848761D01*
X133086904Y-52801142D01*
X133134523Y-52705904D01*
X133134523Y-51896380D01*
X134039285Y-52229714D02*
X134039285Y-52896380D01*
X133801190Y-51848761D02*
X133563095Y-52563047D01*
X134182142Y-52563047D01*
X115057095Y-101058380D02*
X115057095Y-101867904D01*
X115104714Y-101963142D01*
X115152333Y-102010761D01*
X115247571Y-102058380D01*
X115438047Y-102058380D01*
X115533285Y-102010761D01*
X115580904Y-101963142D01*
X115628523Y-101867904D01*
X115628523Y-101058380D01*
X116533285Y-101058380D02*
X116342809Y-101058380D01*
X116247571Y-101106000D01*
X116199952Y-101153619D01*
X116104714Y-101296476D01*
X116057095Y-101486952D01*
X116057095Y-101867904D01*
X116104714Y-101963142D01*
X116152333Y-102010761D01*
X116247571Y-102058380D01*
X116438047Y-102058380D01*
X116533285Y-102010761D01*
X116580904Y-101963142D01*
X116628523Y-101867904D01*
X116628523Y-101629809D01*
X116580904Y-101534571D01*
X116533285Y-101486952D01*
X116438047Y-101439333D01*
X116247571Y-101439333D01*
X116152333Y-101486952D01*
X116104714Y-101534571D01*
X116057095Y-101629809D01*
X115057095Y-51946380D02*
X115057095Y-52755904D01*
X115104714Y-52851142D01*
X115152333Y-52898761D01*
X115247571Y-52946380D01*
X115438047Y-52946380D01*
X115533285Y-52898761D01*
X115580904Y-52851142D01*
X115628523Y-52755904D01*
X115628523Y-51946380D01*
X116009476Y-51946380D02*
X116628523Y-51946380D01*
X116295190Y-52327333D01*
X116438047Y-52327333D01*
X116533285Y-52374952D01*
X116580904Y-52422571D01*
X116628523Y-52517809D01*
X116628523Y-52755904D01*
X116580904Y-52851142D01*
X116533285Y-52898761D01*
X116438047Y-52946380D01*
X116152333Y-52946380D01*
X116057095Y-52898761D01*
X116009476Y-52851142D01*
X175823619Y-102385871D02*
X176823619Y-102385871D01*
X176823619Y-102623967D01*
X176776000Y-102766824D01*
X176680761Y-102862062D01*
X176585523Y-102909681D01*
X176395047Y-102957300D01*
X176252190Y-102957300D01*
X176061714Y-102909681D01*
X175966476Y-102862062D01*
X175871238Y-102766824D01*
X175823619Y-102623967D01*
X175823619Y-102385871D01*
X175823619Y-103909681D02*
X175823619Y-103338252D01*
X175823619Y-103623967D02*
X176823619Y-103623967D01*
X176680761Y-103528728D01*
X176585523Y-103433490D01*
X176537904Y-103338252D01*
X174129619Y-134448333D02*
X174605809Y-134115000D01*
X174129619Y-133876904D02*
X175129619Y-133876904D01*
X175129619Y-134257857D01*
X175082000Y-134353095D01*
X175034380Y-134400714D01*
X174939142Y-134448333D01*
X174796285Y-134448333D01*
X174701047Y-134400714D01*
X174653428Y-134353095D01*
X174605809Y-134257857D01*
X174605809Y-133876904D01*
X174796285Y-135305476D02*
X174129619Y-135305476D01*
X175177238Y-135067380D02*
X174462952Y-134829285D01*
X174462952Y-135448333D01*
X97135666Y-137617380D02*
X97135666Y-138331666D01*
X97088047Y-138474523D01*
X96992809Y-138569761D01*
X96849952Y-138617380D01*
X96754714Y-138617380D01*
X98135666Y-138617380D02*
X97564238Y-138617380D01*
X97849952Y-138617380D02*
X97849952Y-137617380D01*
X97754714Y-137760238D01*
X97659476Y-137855476D01*
X97564238Y-137903095D01*
X155448095Y-101008380D02*
X155448095Y-101817904D01*
X155495714Y-101913142D01*
X155543333Y-101960761D01*
X155638571Y-102008380D01*
X155829047Y-102008380D01*
X155924285Y-101960761D01*
X155971904Y-101913142D01*
X156019523Y-101817904D01*
X156019523Y-101008380D01*
X156971904Y-101008380D02*
X156495714Y-101008380D01*
X156448095Y-101484571D01*
X156495714Y-101436952D01*
X156590952Y-101389333D01*
X156829047Y-101389333D01*
X156924285Y-101436952D01*
X156971904Y-101484571D01*
X157019523Y-101579809D01*
X157019523Y-101817904D01*
X156971904Y-101913142D01*
X156924285Y-101960761D01*
X156829047Y-102008380D01*
X156590952Y-102008380D01*
X156495714Y-101960761D01*
X156448095Y-101913142D01*
X155448095Y-51896380D02*
X155448095Y-52705904D01*
X155495714Y-52801142D01*
X155543333Y-52848761D01*
X155638571Y-52896380D01*
X155829047Y-52896380D01*
X155924285Y-52848761D01*
X155971904Y-52801142D01*
X156019523Y-52705904D01*
X156019523Y-51896380D01*
X157019523Y-52896380D02*
X156448095Y-52896380D01*
X156733809Y-52896380D02*
X156733809Y-51896380D01*
X156638571Y-52039238D01*
X156543333Y-52134476D01*
X156448095Y-52182095D01*
D14*
X179010000Y-54356000D02*
X179010000Y-53026000D01*
X179010000Y-55626000D02*
X179010000Y-76006000D01*
X181670000Y-55626000D02*
X181670000Y-76006000D01*
X179010000Y-55626000D02*
X181670000Y-55626000D01*
X179010000Y-76006000D02*
X181670000Y-76006000D01*
X179010000Y-53026000D02*
X180340000Y-53026000D01*
X171172000Y-84106000D02*
X170842000Y-84106000D01*
X170842000Y-84106000D02*
X170842000Y-90646000D01*
X173582000Y-90646000D02*
X173252000Y-90646000D01*
X173582000Y-84106000D02*
X173582000Y-90646000D01*
X173252000Y-84106000D02*
X173582000Y-84106000D01*
X170842000Y-90646000D02*
X171172000Y-90646000D01*
X173582000Y-106392300D02*
X173252000Y-106392300D01*
X171172000Y-99852300D02*
X170842000Y-99852300D01*
X170842000Y-99852300D02*
X170842000Y-106392300D01*
X173582000Y-99852300D02*
X173582000Y-106392300D01*
X170842000Y-106392300D02*
X171172000Y-106392300D01*
X173252000Y-99852300D02*
X173582000Y-99852300D01*
X113989000Y-51217000D02*
X113989000Y-51462000D01*
X117629000Y-51217000D02*
X117629000Y-51462000D01*
X113989000Y-51462000D02*
X117629000Y-51462000D01*
X113989000Y-49122000D02*
X113989000Y-49367000D01*
X113989000Y-49122000D02*
X117629000Y-49122000D01*
X117629000Y-49122000D02*
X117629000Y-49367000D01*
X113989000Y-98144000D02*
X117629000Y-98144000D01*
X113989000Y-98144000D02*
X113989000Y-98389000D01*
X113989000Y-100239000D02*
X113989000Y-100484000D01*
X113989000Y-100484000D02*
X117629000Y-100484000D01*
X117629000Y-100239000D02*
X117629000Y-100484000D01*
X117629000Y-98144000D02*
X117629000Y-98389000D01*
X126865000Y-102556000D02*
X126865000Y-143316000D01*
X132325000Y-102556000D02*
X126865000Y-102556000D01*
X139785000Y-102556000D02*
X134325000Y-102556000D01*
X126865000Y-143316000D02*
X139785000Y-143316000D01*
X139785000Y-143316000D02*
X139785000Y-102556000D01*
X132325000Y-102556000D02*
G75*
G03*
X134325000Y-102556000I1000000J0D01*
G01*
X131510000Y-98144000D02*
X135150000Y-98144000D01*
X131510000Y-100239000D02*
X131510000Y-100484000D01*
X131510000Y-98144000D02*
X131510000Y-98389000D01*
X135150000Y-100239000D02*
X135150000Y-100484000D01*
X131510000Y-100484000D02*
X135150000Y-100484000D01*
X135150000Y-98144000D02*
X135150000Y-98389000D01*
X154395000Y-49122000D02*
X154395000Y-49367000D01*
X158035000Y-51217000D02*
X158035000Y-51462000D01*
X154395000Y-51462000D02*
X158035000Y-51462000D01*
X154395000Y-49122000D02*
X158035000Y-49122000D01*
X154395000Y-51217000D02*
X154395000Y-51462000D01*
X158035000Y-49122000D02*
X158035000Y-49367000D01*
X181885000Y-132050000D02*
X178795000Y-132050000D01*
X180339538Y-137600000D02*
G75*
G03*
X181884830Y-132050000I462J2990000D01*
G01*
X178795170Y-132050000D02*
G75*
G03*
X180340462Y-137600000I1544830J-2560000D01*
G01*
X182840000Y-134610000D02*
G75*
G03*
X182840000Y-134610000I-2500000J0D01*
G01*
X181885000Y-84811000D02*
X178795000Y-84811000D01*
X178795170Y-84811000D02*
G75*
G03*
X180340462Y-90361000I1544830J-2560000D01*
G01*
X180339538Y-90361000D02*
G75*
G03*
X181884830Y-84811000I462J2990000D01*
G01*
X182840000Y-87371000D02*
G75*
G03*
X182840000Y-87371000I-2500000J0D01*
G01*
X158035000Y-100239000D02*
X158035000Y-100484000D01*
X154395000Y-98144000D02*
X158035000Y-98144000D01*
X154395000Y-98144000D02*
X154395000Y-98389000D01*
X158035000Y-98144000D02*
X158035000Y-98389000D01*
X154395000Y-100484000D02*
X158035000Y-100484000D01*
X154395000Y-100239000D02*
X154395000Y-100484000D01*
X131510000Y-49122000D02*
X135150000Y-49122000D01*
X135150000Y-51217000D02*
X135150000Y-51462000D01*
X135150000Y-49122000D02*
X135150000Y-49367000D01*
X131510000Y-49122000D02*
X131510000Y-49367000D01*
X131510000Y-51217000D02*
X131510000Y-51462000D01*
X131510000Y-51462000D02*
X135150000Y-51462000D01*
X181885000Y-116303700D02*
X178795000Y-116303700D01*
X178795170Y-116303700D02*
G75*
G03*
X180340462Y-121853700I1544830J-2560000D01*
G01*
X180339538Y-121853700D02*
G75*
G03*
X181884830Y-116303700I462J2990000D01*
G01*
X182840000Y-118863700D02*
G75*
G03*
X182840000Y-118863700I-2500000J0D01*
G01*
X170842000Y-122138700D02*
X171172000Y-122138700D01*
X170842000Y-115598700D02*
X170842000Y-122138700D01*
X173252000Y-115598700D02*
X173582000Y-115598700D01*
X173582000Y-115598700D02*
X173582000Y-122138700D01*
X173582000Y-122138700D02*
X173252000Y-122138700D01*
X171172000Y-115598700D02*
X170842000Y-115598700D01*
X139785000Y-94204000D02*
X139785000Y-53444000D01*
X126865000Y-94204000D02*
X139785000Y-94204000D01*
X126865000Y-53444000D02*
X126865000Y-94204000D01*
X132325000Y-53444000D02*
X126865000Y-53444000D01*
X139785000Y-53444000D02*
X134325000Y-53444000D01*
X132325000Y-53444000D02*
G75*
G03*
X134325000Y-53444000I1000000J0D01*
G01*
X113569000Y-120506000D02*
X118069000Y-120506000D01*
X110569000Y-102546000D02*
X110569000Y-120566000D01*
X121069000Y-120566000D02*
X121069000Y-102546000D01*
X118069000Y-102606000D02*
X116819000Y-102606000D01*
X118069000Y-120506000D02*
X118069000Y-102606000D01*
X121069000Y-102546000D02*
X110569000Y-102546000D01*
X110569000Y-120566000D02*
X121069000Y-120566000D01*
X114819000Y-102606000D02*
X113569000Y-102606000D01*
X113569000Y-102606000D02*
X113569000Y-120506000D01*
X114819000Y-102606000D02*
G75*
G03*
X116819000Y-102606000I1000000J0D01*
G01*
X121069000Y-53434000D02*
X110569000Y-53434000D01*
X114819000Y-53494000D02*
X113569000Y-53494000D01*
X113569000Y-53494000D02*
X113569000Y-79014000D01*
X118069000Y-53494000D02*
X116819000Y-53494000D01*
X118069000Y-79014000D02*
X118069000Y-53494000D01*
X110569000Y-53434000D02*
X110569000Y-79074000D01*
X110569000Y-79074000D02*
X121069000Y-79074000D01*
X121069000Y-79074000D02*
X121069000Y-53434000D01*
X113569000Y-79014000D02*
X118069000Y-79014000D01*
X114819000Y-53494000D02*
G75*
G03*
X116819000Y-53494000I1000000J0D01*
G01*
X181885000Y-100557300D02*
X178795000Y-100557300D01*
X178795170Y-100557300D02*
G75*
G03*
X180340462Y-106107300I1544830J-2560000D01*
G01*
X180339538Y-106107300D02*
G75*
G03*
X181884830Y-100557300I462J2990000D01*
G01*
X182840000Y-103117300D02*
G75*
G03*
X182840000Y-103117300I-2500000J0D01*
G01*
X170842000Y-131345000D02*
X170842000Y-137885000D01*
X171172000Y-131345000D02*
X170842000Y-131345000D01*
X173582000Y-137885000D02*
X173252000Y-137885000D01*
X173582000Y-131345000D02*
X173582000Y-137885000D01*
X173252000Y-131345000D02*
X173582000Y-131345000D01*
X170842000Y-137885000D02*
X171172000Y-137885000D01*
X102014000Y-136275000D02*
X101626929Y-136275000D01*
X96484000Y-82935000D02*
X90484000Y-82935000D01*
X90484000Y-117735000D02*
X96484000Y-117735000D01*
X96484000Y-128655000D02*
X90484000Y-128655000D01*
X102081071Y-62615000D02*
X101626929Y-62615000D01*
X90484000Y-120275000D02*
X96484000Y-120275000D01*
X102081071Y-125355000D02*
X101626929Y-125355000D01*
X99144000Y-124465000D02*
X96484000Y-124465000D01*
X90484000Y-61855000D02*
X96484000Y-61855000D01*
X99541071Y-64395000D02*
X99144000Y-64395000D01*
X99541071Y-122815000D02*
X99144000Y-122815000D01*
X96484000Y-55825000D02*
X96484000Y-137225000D01*
X96484000Y-72775000D02*
X90484000Y-72775000D01*
X102081071Y-79635000D02*
X101626929Y-79635000D01*
X99541071Y-74555000D02*
X99144000Y-74555000D01*
X99541071Y-115195000D02*
X99144000Y-115195000D01*
X102014000Y-135515000D02*
X101626929Y-135515000D01*
X99144000Y-68585000D02*
X96484000Y-68585000D01*
X90484000Y-97415000D02*
X96484000Y-97415000D01*
X99144000Y-137225000D02*
X99144000Y-55825000D01*
X96484000Y-126115000D02*
X90484000Y-126115000D01*
X102081071Y-93095000D02*
X101626929Y-93095000D01*
X99541071Y-95635000D02*
X99144000Y-95635000D01*
X102081071Y-131195000D02*
X101626929Y-131195000D01*
X102081071Y-77855000D02*
X101626929Y-77855000D01*
X96484000Y-115955000D02*
X90484000Y-115955000D01*
X102081071Y-56775000D02*
X101626929Y-56775000D01*
X90484000Y-72775000D02*
X90484000Y-72015000D01*
X90484000Y-56775000D02*
X96484000Y-56775000D01*
X96484000Y-77855000D02*
X90484000Y-77855000D01*
X96484000Y-121035000D02*
X90484000Y-121035000D01*
X99541071Y-125355000D02*
X99144000Y-125355000D01*
X102081071Y-89795000D02*
X101626929Y-89795000D01*
X102081071Y-110875000D02*
X101626929Y-110875000D01*
X90484000Y-103255000D02*
X90484000Y-102495000D01*
X102081071Y-87255000D02*
X101626929Y-87255000D01*
X102081071Y-84715000D02*
X101626929Y-84715000D01*
X102081071Y-107575000D02*
X101626929Y-107575000D01*
X102081071Y-64395000D02*
X101626929Y-64395000D01*
X90484000Y-115195000D02*
X96484000Y-115195000D01*
X99144000Y-111765000D02*
X96484000Y-111765000D01*
X102081071Y-112655000D02*
X101626929Y-112655000D01*
X96484000Y-118495000D02*
X90484000Y-118495000D01*
X99144000Y-88905000D02*
X96484000Y-88905000D01*
X99541071Y-99955000D02*
X99144000Y-99955000D01*
X102081071Y-110115000D02*
X101626929Y-110115000D01*
X96484000Y-131195000D02*
X90484000Y-131195000D01*
X99541071Y-60075000D02*
X99144000Y-60075000D01*
X96484000Y-93095000D02*
X90484000Y-93095000D01*
X90484000Y-85475000D02*
X90484000Y-84715000D01*
X99144000Y-71125000D02*
X96484000Y-71125000D01*
X90484000Y-127895000D02*
X96484000Y-127895000D01*
X90484000Y-110115000D02*
X96484000Y-110115000D01*
X99541071Y-132975000D02*
X99144000Y-132975000D01*
X99541071Y-75315000D02*
X99144000Y-75315000D01*
X99541071Y-85475000D02*
X99144000Y-85475000D01*
X102081071Y-105035000D02*
X101626929Y-105035000D01*
X99541071Y-66935000D02*
X99144000Y-66935000D01*
X90484000Y-118495000D02*
X90484000Y-117735000D01*
X96484000Y-103255000D02*
X90484000Y-103255000D01*
X102081071Y-75315000D02*
X101626929Y-75315000D01*
X90484000Y-70235000D02*
X90484000Y-69475000D01*
X96484000Y-62615000D02*
X90484000Y-62615000D01*
X99541071Y-56775000D02*
X99144000Y-56775000D01*
X90484000Y-75315000D02*
X90484000Y-74555000D01*
X99541071Y-105035000D02*
X99144000Y-105035000D01*
X102081071Y-115195000D02*
X101626929Y-115195000D01*
X99541071Y-97415000D02*
X99144000Y-97415000D01*
X90484000Y-62615000D02*
X90484000Y-61855000D01*
X99541071Y-133735000D02*
X99144000Y-133735000D01*
X96484000Y-110875000D02*
X90484000Y-110875000D01*
X99541071Y-80395000D02*
X99144000Y-80395000D01*
X90484000Y-79635000D02*
X96484000Y-79635000D01*
X102081071Y-65155000D02*
X101626929Y-65155000D01*
X99541071Y-88015000D02*
X99144000Y-88015000D01*
X96484000Y-60075000D02*
X90484000Y-60075000D01*
X90484000Y-125355000D02*
X96484000Y-125355000D01*
X102081071Y-72015000D02*
X101626929Y-72015000D01*
X90484000Y-126115000D02*
X90484000Y-125355000D01*
X90484000Y-110875000D02*
X90484000Y-110115000D01*
X102081071Y-92335000D02*
X101626929Y-92335000D01*
X99144000Y-134625000D02*
X96484000Y-134625000D01*
X90484000Y-80395000D02*
X90484000Y-79635000D01*
X99144000Y-58425000D02*
X96484000Y-58425000D01*
X102081071Y-90555000D02*
X101626929Y-90555000D01*
X99541071Y-92335000D02*
X99144000Y-92335000D01*
X99144000Y-119385000D02*
X96484000Y-119385000D01*
X99144000Y-78745000D02*
X96484000Y-78745000D01*
X90484000Y-132975000D02*
X96484000Y-132975000D01*
X96484000Y-88015000D02*
X90484000Y-88015000D01*
X99541071Y-72775000D02*
X99144000Y-72775000D01*
X96484000Y-108335000D02*
X90484000Y-108335000D01*
X96484000Y-75315000D02*
X90484000Y-75315000D01*
X96484000Y-70235000D02*
X90484000Y-70235000D01*
X102081071Y-121035000D02*
X101626929Y-121035000D01*
X99541071Y-93095000D02*
X99144000Y-93095000D01*
X99541071Y-82935000D02*
X99144000Y-82935000D01*
X99144000Y-109225000D02*
X96484000Y-109225000D01*
X102081071Y-61855000D02*
X101626929Y-61855000D01*
X102081071Y-77095000D02*
X101626929Y-77095000D01*
X99144000Y-81285000D02*
X96484000Y-81285000D01*
X102081071Y-105795000D02*
X101626929Y-105795000D01*
X96484000Y-137225000D02*
X99144000Y-137225000D01*
X90484000Y-82935000D02*
X90484000Y-82175000D01*
X102081071Y-99955000D02*
X101626929Y-99955000D01*
X99144000Y-132085000D02*
X96484000Y-132085000D01*
X102081071Y-95635000D02*
X101626929Y-95635000D01*
X99144000Y-93985000D02*
X96484000Y-93985000D01*
X90484000Y-66935000D02*
X96484000Y-66935000D01*
X102081071Y-113415000D02*
X101626929Y-113415000D01*
X90484000Y-90555000D02*
X90484000Y-89795000D01*
X102081071Y-103255000D02*
X101626929Y-103255000D01*
X99541071Y-112655000D02*
X99144000Y-112655000D01*
X99541071Y-115955000D02*
X99144000Y-115955000D01*
X99144000Y-114305000D02*
X96484000Y-114305000D01*
X99541071Y-87255000D02*
X99144000Y-87255000D01*
X96484000Y-136215000D02*
X90484000Y-136215000D01*
X90484000Y-59315000D02*
X96484000Y-59315000D01*
X90484000Y-108335000D02*
X90484000Y-107575000D01*
X99144000Y-63505000D02*
X96484000Y-63505000D01*
X99144000Y-73665000D02*
X96484000Y-73665000D01*
X96484000Y-105795000D02*
X90484000Y-105795000D01*
X102081071Y-133735000D02*
X101626929Y-133735000D01*
X99541071Y-131195000D02*
X99144000Y-131195000D01*
X96484000Y-135615000D02*
X90484000Y-135615000D01*
X102081071Y-98175000D02*
X101626929Y-98175000D01*
X99144000Y-104145000D02*
X96484000Y-104145000D01*
X99541071Y-90555000D02*
X99144000Y-90555000D01*
X102081071Y-132975000D02*
X101626929Y-132975000D01*
X99541071Y-94875000D02*
X99144000Y-94875000D01*
X90484000Y-115955000D02*
X90484000Y-115195000D01*
X102081071Y-126115000D02*
X101626929Y-126115000D01*
X90484000Y-67695000D02*
X90484000Y-66935000D01*
X99541071Y-103255000D02*
X99144000Y-103255000D01*
X96484000Y-135975000D02*
X90484000Y-135975000D01*
X102081071Y-117735000D02*
X101626929Y-117735000D01*
X104394000Y-137165000D02*
X103124000Y-137165000D01*
X90484000Y-94875000D02*
X96484000Y-94875000D01*
X102081071Y-85475000D02*
X101626929Y-85475000D01*
X99144000Y-116845000D02*
X96484000Y-116845000D01*
X102081071Y-60075000D02*
X101626929Y-60075000D01*
X99541071Y-108335000D02*
X99144000Y-108335000D01*
X90484000Y-84715000D02*
X96484000Y-84715000D01*
X99144000Y-55825000D02*
X96484000Y-55825000D01*
X96484000Y-95635000D02*
X90484000Y-95635000D01*
X90484000Y-93095000D02*
X90484000Y-92335000D01*
X96484000Y-136095000D02*
X90484000Y-136095000D01*
X99144000Y-66045000D02*
X96484000Y-66045000D01*
X90484000Y-121035000D02*
X90484000Y-120275000D01*
X96484000Y-113415000D02*
X90484000Y-113415000D01*
X90484000Y-136275000D02*
X90484000Y-135515000D01*
X102081071Y-97415000D02*
X101626929Y-97415000D01*
X99541071Y-72015000D02*
X99144000Y-72015000D01*
X99541071Y-102495000D02*
X99144000Y-102495000D01*
X90484000Y-102495000D02*
X96484000Y-102495000D01*
X102081071Y-120275000D02*
X101626929Y-120275000D01*
X99541071Y-65155000D02*
X99144000Y-65155000D01*
X102081071Y-108335000D02*
X101626929Y-108335000D01*
X99541071Y-123575000D02*
X99144000Y-123575000D01*
X99541071Y-70235000D02*
X99144000Y-70235000D01*
X99541071Y-126115000D02*
X99144000Y-126115000D01*
X99541071Y-107575000D02*
X99144000Y-107575000D01*
X102081071Y-67695000D02*
X101626929Y-67695000D01*
X90484000Y-100715000D02*
X90484000Y-99955000D01*
X96484000Y-98175000D02*
X90484000Y-98175000D01*
X96484000Y-90555000D02*
X90484000Y-90555000D01*
X99541071Y-62615000D02*
X99144000Y-62615000D01*
X99144000Y-76205000D02*
X96484000Y-76205000D01*
X99541071Y-89795000D02*
X99144000Y-89795000D01*
X99541071Y-121035000D02*
X99144000Y-121035000D01*
X90484000Y-122815000D02*
X96484000Y-122815000D01*
X102081071Y-130435000D02*
X101626929Y-130435000D01*
X102081071Y-69475000D02*
X101626929Y-69475000D01*
X102081071Y-94875000D02*
X101626929Y-94875000D01*
X90484000Y-82175000D02*
X96484000Y-82175000D01*
X102081071Y-128655000D02*
X101626929Y-128655000D01*
X99541071Y-135515000D02*
X99144000Y-135515000D01*
X99541071Y-118495000D02*
X99144000Y-118495000D01*
X102081071Y-118495000D02*
X101626929Y-118495000D01*
X90484000Y-87255000D02*
X96484000Y-87255000D01*
X90484000Y-77095000D02*
X96484000Y-77095000D01*
X90484000Y-88015000D02*
X90484000Y-87255000D01*
X102081071Y-80395000D02*
X101626929Y-80395000D01*
X99144000Y-99065000D02*
X96484000Y-99065000D01*
X102081071Y-123575000D02*
X101626929Y-123575000D01*
X99144000Y-106685000D02*
X96484000Y-106685000D01*
X102081071Y-70235000D02*
X101626929Y-70235000D01*
X99144000Y-96525000D02*
X96484000Y-96525000D01*
X102081071Y-102495000D02*
X101626929Y-102495000D01*
X102081071Y-100715000D02*
X101626929Y-100715000D01*
X99541071Y-84715000D02*
X99144000Y-84715000D01*
X96484000Y-85475000D02*
X90484000Y-85475000D01*
X99541071Y-67695000D02*
X99144000Y-67695000D01*
X102081071Y-74555000D02*
X101626929Y-74555000D01*
X96484000Y-133735000D02*
X90484000Y-133735000D01*
X90484000Y-77855000D02*
X90484000Y-77095000D01*
X90484000Y-105795000D02*
X90484000Y-105035000D01*
X90484000Y-95635000D02*
X90484000Y-94875000D01*
X102081071Y-82175000D02*
X101626929Y-82175000D01*
X90484000Y-60075000D02*
X90484000Y-59315000D01*
X102081071Y-82935000D02*
X101626929Y-82935000D01*
X96484000Y-136275000D02*
X90484000Y-136275000D01*
X99541071Y-77095000D02*
X99144000Y-77095000D01*
X99541071Y-136275000D02*
X99144000Y-136275000D01*
X102081071Y-72775000D02*
X101626929Y-72775000D01*
X96484000Y-80395000D02*
X90484000Y-80395000D01*
X99144000Y-60965000D02*
X96484000Y-60965000D01*
X99541071Y-120275000D02*
X99144000Y-120275000D01*
X99541071Y-79635000D02*
X99144000Y-79635000D01*
X99541071Y-130435000D02*
X99144000Y-130435000D01*
X99541071Y-117735000D02*
X99144000Y-117735000D01*
X99541071Y-61855000D02*
X99144000Y-61855000D01*
X104394000Y-135895000D02*
X104394000Y-137165000D01*
X99541071Y-128655000D02*
X99144000Y-128655000D01*
X90484000Y-131195000D02*
X90484000Y-130435000D01*
X90484000Y-89795000D02*
X96484000Y-89795000D01*
X99541071Y-82175000D02*
X99144000Y-82175000D01*
X99541071Y-110115000D02*
X99144000Y-110115000D01*
X90484000Y-74555000D02*
X96484000Y-74555000D01*
X90484000Y-105035000D02*
X96484000Y-105035000D01*
X90484000Y-57535000D02*
X90484000Y-56775000D01*
X102081071Y-57535000D02*
X101626929Y-57535000D01*
X99541071Y-69475000D02*
X99144000Y-69475000D01*
X96484000Y-65155000D02*
X90484000Y-65155000D01*
X90484000Y-65155000D02*
X90484000Y-64395000D01*
X99144000Y-121925000D02*
X96484000Y-121925000D01*
X96484000Y-123575000D02*
X90484000Y-123575000D01*
X99144000Y-86365000D02*
X96484000Y-86365000D01*
X90484000Y-135515000D02*
X96484000Y-135515000D01*
X99541071Y-113415000D02*
X99144000Y-113415000D01*
X90484000Y-92335000D02*
X96484000Y-92335000D01*
X90484000Y-98175000D02*
X90484000Y-97415000D01*
X90484000Y-113415000D02*
X90484000Y-112655000D01*
X90484000Y-64395000D02*
X96484000Y-64395000D01*
X102081071Y-122815000D02*
X101626929Y-122815000D01*
X90484000Y-72015000D02*
X96484000Y-72015000D01*
X102081071Y-88015000D02*
X101626929Y-88015000D01*
X102081071Y-59315000D02*
X101626929Y-59315000D01*
X96484000Y-100715000D02*
X90484000Y-100715000D01*
X99541071Y-59315000D02*
X99144000Y-59315000D01*
X90484000Y-128655000D02*
X90484000Y-127895000D01*
X90484000Y-99955000D02*
X96484000Y-99955000D01*
X96484000Y-135855000D02*
X90484000Y-135855000D01*
X90484000Y-130435000D02*
X96484000Y-130435000D01*
X99541071Y-98175000D02*
X99144000Y-98175000D01*
X102081071Y-127895000D02*
X101626929Y-127895000D01*
X99541071Y-77855000D02*
X99144000Y-77855000D01*
X90484000Y-123575000D02*
X90484000Y-122815000D01*
X99144000Y-127005000D02*
X96484000Y-127005000D01*
X99144000Y-129545000D02*
X96484000Y-129545000D01*
X99144000Y-101605000D02*
X96484000Y-101605000D01*
X99541071Y-57535000D02*
X99144000Y-57535000D01*
X96484000Y-135735000D02*
X90484000Y-135735000D01*
X90484000Y-112655000D02*
X96484000Y-112655000D01*
X90484000Y-133735000D02*
X90484000Y-132975000D01*
X99144000Y-83825000D02*
X96484000Y-83825000D01*
X102081071Y-66935000D02*
X101626929Y-66935000D01*
X102081071Y-115955000D02*
X101626929Y-115955000D01*
X99541071Y-110875000D02*
X99144000Y-110875000D01*
X90484000Y-69475000D02*
X96484000Y-69475000D01*
X96484000Y-57535000D02*
X90484000Y-57535000D01*
X90484000Y-107575000D02*
X96484000Y-107575000D01*
X99144000Y-91445000D02*
X96484000Y-91445000D01*
X99541071Y-100715000D02*
X99144000Y-100715000D01*
X99541071Y-105795000D02*
X99144000Y-105795000D01*
X99541071Y-127895000D02*
X99144000Y-127895000D01*
X96484000Y-67695000D02*
X90484000Y-67695000D01*
X149750000Y-143316000D02*
X162670000Y-143316000D01*
X162670000Y-143316000D02*
X162670000Y-102556000D01*
X162670000Y-102556000D02*
X157210000Y-102556000D01*
X155210000Y-102556000D02*
X149750000Y-102556000D01*
X149750000Y-102556000D02*
X149750000Y-143316000D01*
X155210000Y-102556000D02*
G75*
G03*
X157210000Y-102556000I1000000J0D01*
G01*
X149750000Y-53444000D02*
X149750000Y-94204000D01*
X162670000Y-94204000D02*
X162670000Y-53444000D01*
X149750000Y-94204000D02*
X162670000Y-94204000D01*
X155210000Y-53444000D02*
X149750000Y-53444000D01*
X162670000Y-53444000D02*
X157210000Y-53444000D01*
X155210000Y-53444000D02*
G75*
G03*
X157210000Y-53444000I1000000J0D01*
G01*
%LPC*%
D15*
X180340000Y-54356000D03*
D16*
X180340000Y-56896000D03*
X180340000Y-59436000D03*
X180340000Y-61976000D03*
X180340000Y-64516000D03*
X180340000Y-67056000D03*
X180340000Y-69596000D03*
X180340000Y-72136000D03*
X180340000Y-74676000D03*
D17*
X192532000Y-50419000D03*
X192532000Y-142621000D03*
X106172000Y-50419000D03*
X106172000Y-142621000D03*
D18*
X172212000Y-83566000D03*
D19*
X172212000Y-91186000D03*
D18*
X172212000Y-99312300D03*
D19*
X172212000Y-106932300D03*
D18*
X114559000Y-50292000D03*
X117059000Y-50292000D03*
X114559000Y-99314000D03*
X117059000Y-99314000D03*
D20*
X125705000Y-103886000D03*
D19*
X125705000Y-106426000D03*
X125705000Y-108966000D03*
X125705000Y-111506000D03*
X125705000Y-114046000D03*
X125705000Y-116586000D03*
X125705000Y-119126000D03*
X125705000Y-121666000D03*
X125705000Y-124206000D03*
X125705000Y-126746000D03*
X125705000Y-129286000D03*
X125705000Y-131826000D03*
X125705000Y-134366000D03*
X125705000Y-136906000D03*
X125705000Y-139446000D03*
X125705000Y-141986000D03*
X140945000Y-141986000D03*
X140945000Y-139446000D03*
X140945000Y-136906000D03*
X140945000Y-134366000D03*
X140945000Y-131826000D03*
X140945000Y-129286000D03*
X140945000Y-126746000D03*
X140945000Y-124206000D03*
X140945000Y-121666000D03*
X140945000Y-119126000D03*
X140945000Y-116586000D03*
X140945000Y-114046000D03*
X140945000Y-111506000D03*
X140945000Y-108966000D03*
X140945000Y-106426000D03*
X140945000Y-103886000D03*
D18*
X132080000Y-99314000D03*
X134580000Y-99314000D03*
X154965000Y-50292000D03*
X157465000Y-50292000D03*
D21*
X180340000Y-133340000D03*
D22*
X180340000Y-135880000D03*
D21*
X180340000Y-86101000D03*
D22*
X180340000Y-88641000D03*
D18*
X154965000Y-99314000D03*
X157465000Y-99314000D03*
X132080000Y-50292000D03*
X134580000Y-50292000D03*
D21*
X180340000Y-117593700D03*
D22*
X180340000Y-120133700D03*
D18*
X172212000Y-115058700D03*
D19*
X172212000Y-122678700D03*
D20*
X125705000Y-54774000D03*
D19*
X125705000Y-57314000D03*
X125705000Y-59854000D03*
X125705000Y-62394000D03*
X125705000Y-64934000D03*
X125705000Y-67474000D03*
X125705000Y-70014000D03*
X125705000Y-72554000D03*
X125705000Y-75094000D03*
X125705000Y-77634000D03*
X125705000Y-80174000D03*
X125705000Y-82714000D03*
X125705000Y-85254000D03*
X125705000Y-87794000D03*
X125705000Y-90334000D03*
X125705000Y-92874000D03*
X140945000Y-92874000D03*
X140945000Y-90334000D03*
X140945000Y-87794000D03*
X140945000Y-85254000D03*
X140945000Y-82714000D03*
X140945000Y-80174000D03*
X140945000Y-77634000D03*
X140945000Y-75094000D03*
X140945000Y-72554000D03*
X140945000Y-70014000D03*
X140945000Y-67474000D03*
X140945000Y-64934000D03*
X140945000Y-62394000D03*
X140945000Y-59854000D03*
X140945000Y-57314000D03*
X140945000Y-54774000D03*
D23*
X112009000Y-103936000D03*
D24*
X112009000Y-106476000D03*
X112009000Y-109016000D03*
X112009000Y-111556000D03*
X112009000Y-114096000D03*
X112009000Y-116636000D03*
X112009000Y-119176000D03*
X119629000Y-119176000D03*
X119629000Y-116636000D03*
X119629000Y-114096000D03*
X119629000Y-111556000D03*
X119629000Y-109016000D03*
X119629000Y-106476000D03*
X119629000Y-103936000D03*
D23*
X112009000Y-54824000D03*
D24*
X112009000Y-57364000D03*
X112009000Y-59904000D03*
X112009000Y-62444000D03*
X112009000Y-64984000D03*
X112009000Y-67524000D03*
X112009000Y-70064000D03*
X112009000Y-72604000D03*
X112009000Y-75144000D03*
X112009000Y-77684000D03*
X119629000Y-77684000D03*
X119629000Y-75144000D03*
X119629000Y-72604000D03*
X119629000Y-70064000D03*
X119629000Y-67524000D03*
X119629000Y-64984000D03*
X119629000Y-62444000D03*
X119629000Y-59904000D03*
X119629000Y-57364000D03*
X119629000Y-54824000D03*
D21*
X180340000Y-101847300D03*
D22*
X180340000Y-104387300D03*
D18*
X172212000Y-130805000D03*
D19*
X172212000Y-138425000D03*
D15*
X103124000Y-135895000D03*
D16*
X100584000Y-135895000D03*
X103124000Y-133355000D03*
X100584000Y-133355000D03*
X103124000Y-130815000D03*
X100584000Y-130815000D03*
X103124000Y-128275000D03*
X100584000Y-128275000D03*
X103124000Y-125735000D03*
X100584000Y-125735000D03*
X103124000Y-123195000D03*
X100584000Y-123195000D03*
X103124000Y-120655000D03*
X100584000Y-120655000D03*
X103124000Y-118115000D03*
X100584000Y-118115000D03*
X103124000Y-115575000D03*
X100584000Y-115575000D03*
X103124000Y-113035000D03*
X100584000Y-113035000D03*
X103124000Y-110495000D03*
X100584000Y-110495000D03*
X103124000Y-107955000D03*
X100584000Y-107955000D03*
X103124000Y-105415000D03*
X100584000Y-105415000D03*
X103124000Y-102875000D03*
X100584000Y-102875000D03*
X103124000Y-100335000D03*
X100584000Y-100335000D03*
X103124000Y-97795000D03*
X100584000Y-97795000D03*
X103124000Y-95255000D03*
X100584000Y-95255000D03*
X103124000Y-92715000D03*
X100584000Y-92715000D03*
X103124000Y-90175000D03*
X100584000Y-90175000D03*
X103124000Y-87635000D03*
X100584000Y-87635000D03*
X103124000Y-85095000D03*
X100584000Y-85095000D03*
X103124000Y-82555000D03*
X100584000Y-82555000D03*
X103124000Y-80015000D03*
X100584000Y-80015000D03*
X103124000Y-77475000D03*
X100584000Y-77475000D03*
X103124000Y-74935000D03*
X100584000Y-74935000D03*
X103124000Y-72395000D03*
X100584000Y-72395000D03*
X103124000Y-69855000D03*
X100584000Y-69855000D03*
X103124000Y-67315000D03*
X100584000Y-67315000D03*
X103124000Y-64775000D03*
X100584000Y-64775000D03*
X103124000Y-62235000D03*
X100584000Y-62235000D03*
X103124000Y-59695000D03*
X100584000Y-59695000D03*
X103124000Y-57155000D03*
X100584000Y-57155000D03*
D20*
X148590000Y-103886000D03*
D19*
X148590000Y-106426000D03*
X148590000Y-108966000D03*
X148590000Y-111506000D03*
X148590000Y-114046000D03*
X148590000Y-116586000D03*
X148590000Y-119126000D03*
X148590000Y-121666000D03*
X148590000Y-124206000D03*
X148590000Y-126746000D03*
X148590000Y-129286000D03*
X148590000Y-131826000D03*
X148590000Y-134366000D03*
X148590000Y-136906000D03*
X148590000Y-139446000D03*
X148590000Y-141986000D03*
X163830000Y-141986000D03*
X163830000Y-139446000D03*
X163830000Y-136906000D03*
X163830000Y-134366000D03*
X163830000Y-131826000D03*
X163830000Y-129286000D03*
X163830000Y-126746000D03*
X163830000Y-124206000D03*
X163830000Y-121666000D03*
X163830000Y-119126000D03*
X163830000Y-116586000D03*
X163830000Y-114046000D03*
X163830000Y-111506000D03*
X163830000Y-108966000D03*
X163830000Y-106426000D03*
X163830000Y-103886000D03*
D20*
X148590000Y-54774000D03*
D19*
X148590000Y-57314000D03*
X148590000Y-59854000D03*
X148590000Y-62394000D03*
X148590000Y-64934000D03*
X148590000Y-67474000D03*
X148590000Y-70014000D03*
X148590000Y-72554000D03*
X148590000Y-75094000D03*
X148590000Y-77634000D03*
X148590000Y-80174000D03*
X148590000Y-82714000D03*
X148590000Y-85254000D03*
X148590000Y-87794000D03*
X148590000Y-90334000D03*
X148590000Y-92874000D03*
X163830000Y-92874000D03*
X163830000Y-90334000D03*
X163830000Y-87794000D03*
X163830000Y-85254000D03*
X163830000Y-82714000D03*
X163830000Y-80174000D03*
X163830000Y-77634000D03*
X163830000Y-75094000D03*
X163830000Y-72554000D03*
X163830000Y-70014000D03*
X163830000Y-67474000D03*
X163830000Y-64934000D03*
X163830000Y-62394000D03*
X163830000Y-59854000D03*
X163830000Y-57314000D03*
X163830000Y-54774000D03*
M02*
