M48
; DRILL file {KiCad (6.0.2)} date Sun Nov  6 15:02:34 2022
; FORMAT={-:-/ absolute / inch / decimal}
; #@! TF.CreationDate,2022-11-06T15:02:34-08:00
; #@! TF.GenerationSoftware,Kicad,Pcbnew,(6.0.2)
; #@! TF.FileFunction,Plated,1,2,PTH
FMAT,2
INCH
; #@! TA.AperFunction,Plated,PTH,ViaDrill
T1C0.0157
; #@! TA.AperFunction,Plated,PTH,ComponentDrill
T2C0.0315
; #@! TA.AperFunction,Plated,PTH,ComponentDrill
T3C0.0354
; #@! TA.AperFunction,Plated,PTH,ComponentDrill
T4C0.0394
%
G90
G05
T1
X4.1284Y-2.967
X4.4521Y-3.2054
X4.4582Y-2.41
X4.5141Y-2.3475
X4.6197Y-3.2162
X4.6292Y-4.2153
X4.7738Y-3.8727
X4.8167Y-4.5955
X4.8534Y-3.9153
X4.8726Y-3.9914
X5.0772Y-3.6541
X5.1281Y-3.705
X5.1671Y-3.7439
X5.1952Y-3.8079
X5.6086Y-5.1477
X5.6512Y-2.1449
X6.1889Y-3.1604
X6.2375Y-3.1535
X6.3341Y-3.7259
X6.3641Y-3.6926
X6.4107Y-3.6995
X6.417Y-3.9627
T2
X4.4098Y-2.1584
X4.4098Y-2.2584
X4.4098Y-2.3584
X4.4098Y-2.4584
X4.4098Y-2.5584
X4.4098Y-2.6584
X4.4098Y-2.7584
X4.4098Y-2.8584
X4.4098Y-2.9584
X4.4098Y-3.0584
X4.4098Y-4.092
X4.4098Y-4.192
X4.4098Y-4.292
X4.4098Y-4.392
X4.4098Y-4.492
X4.4098Y-4.592
X4.4098Y-4.692
X4.5102Y-1.98
X4.5102Y-3.91
X4.6086Y-1.98
X4.6086Y-3.91
X4.7098Y-2.1584
X4.7098Y-2.2584
X4.7098Y-2.3584
X4.7098Y-2.4584
X4.7098Y-2.5584
X4.7098Y-2.6584
X4.7098Y-2.7584
X4.7098Y-2.8584
X4.7098Y-2.9584
X4.7098Y-3.0584
X4.7098Y-4.092
X4.7098Y-4.192
X4.7098Y-4.292
X4.7098Y-4.392
X4.7098Y-4.492
X4.7098Y-4.592
X4.7098Y-4.692
X4.949Y-2.1565
X4.949Y-2.2565
X4.949Y-2.3565
X4.949Y-2.4565
X4.949Y-2.5565
X4.949Y-2.6565
X4.949Y-2.7565
X4.949Y-2.8565
X4.949Y-2.9565
X4.949Y-3.0565
X4.949Y-3.1565
X4.949Y-3.2565
X4.949Y-3.3565
X4.949Y-3.4565
X4.949Y-3.5565
X4.949Y-3.6565
X4.949Y-4.09
X4.949Y-4.19
X4.949Y-4.29
X4.949Y-4.39
X4.949Y-4.49
X4.949Y-4.59
X4.949Y-4.69
X4.949Y-4.79
X4.949Y-4.89
X4.949Y-4.99
X4.949Y-5.09
X4.949Y-5.19
X4.949Y-5.29
X4.949Y-5.39
X4.949Y-5.49
X4.949Y-5.59
X5.2Y-1.98
X5.2Y-3.91
X5.2984Y-1.98
X5.2984Y-3.91
X5.549Y-2.1565
X5.549Y-2.2565
X5.549Y-2.3565
X5.549Y-2.4565
X5.549Y-2.5565
X5.549Y-2.6565
X5.549Y-2.7565
X5.549Y-2.8565
X5.549Y-2.9565
X5.549Y-3.0565
X5.549Y-3.1565
X5.549Y-3.2565
X5.549Y-3.3565
X5.549Y-3.4565
X5.549Y-3.5565
X5.549Y-3.6565
X5.549Y-4.09
X5.549Y-4.19
X5.549Y-4.29
X5.549Y-4.39
X5.549Y-4.49
X5.549Y-4.59
X5.549Y-4.69
X5.549Y-4.79
X5.549Y-4.89
X5.549Y-4.99
X5.549Y-5.09
X5.549Y-5.19
X5.549Y-5.29
X5.549Y-5.39
X5.549Y-5.49
X5.549Y-5.59
X5.85Y-2.1565
X5.85Y-2.2565
X5.85Y-2.3565
X5.85Y-2.4565
X5.85Y-2.5565
X5.85Y-2.6565
X5.85Y-2.7565
X5.85Y-2.8565
X5.85Y-2.9565
X5.85Y-3.0565
X5.85Y-3.1565
X5.85Y-3.2565
X5.85Y-3.3565
X5.85Y-3.4565
X5.85Y-3.5565
X5.85Y-3.6565
X5.85Y-4.09
X5.85Y-4.19
X5.85Y-4.29
X5.85Y-4.39
X5.85Y-4.49
X5.85Y-4.59
X5.85Y-4.69
X5.85Y-4.79
X5.85Y-4.89
X5.85Y-4.99
X5.85Y-5.09
X5.85Y-5.19
X5.85Y-5.29
X5.85Y-5.39
X5.85Y-5.49
X5.85Y-5.59
X6.101Y-1.98
X6.101Y-3.91
X6.1994Y-1.98
X6.1994Y-3.91
X6.45Y-2.1565
X6.45Y-2.2565
X6.45Y-2.3565
X6.45Y-2.4565
X6.45Y-2.5565
X6.45Y-2.6565
X6.45Y-2.7565
X6.45Y-2.8565
X6.45Y-2.9565
X6.45Y-3.0565
X6.45Y-3.1565
X6.45Y-3.2565
X6.45Y-3.3565
X6.45Y-3.4565
X6.45Y-3.5565
X6.45Y-3.6565
X6.45Y-4.09
X6.45Y-4.19
X6.45Y-4.29
X6.45Y-4.39
X6.45Y-4.49
X6.45Y-4.59
X6.45Y-4.69
X6.45Y-4.79
X6.45Y-4.89
X6.45Y-4.99
X6.45Y-5.09
X6.45Y-5.19
X6.45Y-5.29
X6.45Y-5.39
X6.45Y-5.49
X6.45Y-5.59
X6.78Y-3.29
X6.78Y-3.59
X6.78Y-3.9099
X6.78Y-4.2099
X6.78Y-4.5299
X6.78Y-4.8299
X6.78Y-5.1498
X6.78Y-5.4498
T3
X7.1Y-3.3898
X7.1Y-3.4898
X7.1Y-4.0097
X7.1Y-4.1097
X7.1Y-4.6297
X7.1Y-4.7297
X7.1Y-5.2496
X7.1Y-5.3496
T4
X3.96Y-2.2502
X3.96Y-2.3502
X3.96Y-2.4502
X3.96Y-2.5502
X3.96Y-2.6502
X3.96Y-2.7502
X3.96Y-2.8502
X3.96Y-2.9502
X3.96Y-3.0502
X3.96Y-3.1502
X3.96Y-3.2502
X3.96Y-3.3502
X3.96Y-3.4502
X3.96Y-3.5502
X3.96Y-3.6502
X3.96Y-3.7502
X3.96Y-3.8502
X3.96Y-3.9502
X3.96Y-4.0502
X3.96Y-4.1502
X3.96Y-4.2502
X3.96Y-4.3502
X3.96Y-4.4502
X3.96Y-4.5502
X3.96Y-4.6502
X3.96Y-4.7502
X3.96Y-4.8502
X3.96Y-4.9502
X3.96Y-5.0502
X3.96Y-5.1502
X3.96Y-5.2502
X3.96Y-5.3502
X4.06Y-2.2502
X4.06Y-2.3502
X4.06Y-2.4502
X4.06Y-2.5502
X4.06Y-2.6502
X4.06Y-2.7502
X4.06Y-2.8502
X4.06Y-2.9502
X4.06Y-3.0502
X4.06Y-3.1502
X4.06Y-3.2502
X4.06Y-3.3502
X4.06Y-3.4502
X4.06Y-3.5502
X4.06Y-3.6502
X4.06Y-3.7502
X4.06Y-3.8502
X4.06Y-3.9502
X4.06Y-4.0502
X4.06Y-4.1502
X4.06Y-4.2502
X4.06Y-4.3502
X4.06Y-4.4502
X4.06Y-4.5502
X4.06Y-4.6502
X4.06Y-4.7502
X4.06Y-4.8502
X4.06Y-4.9502
X4.06Y-5.0502
X4.06Y-5.1502
X4.06Y-5.2502
X4.06Y-5.3502
X7.1Y-2.14
X7.1Y-2.24
X7.1Y-2.34
X7.1Y-2.44
X7.1Y-2.54
X7.1Y-2.64
X7.1Y-2.74
X7.1Y-2.84
X7.1Y-2.94
T0
M30
