G04 #@! TF.GenerationSoftware,KiCad,Pcbnew,(6.0.2)*
G04 #@! TF.CreationDate,2022-10-15T16:32:30-07:00*
G04 #@! TF.ProjectId,RAM and ROM,52414d20-616e-4642-9052-4f4d2e6b6963,1.0*
G04 #@! TF.SameCoordinates,Original*
G04 #@! TF.FileFunction,Copper,L2,Bot*
G04 #@! TF.FilePolarity,Positive*
%FSLAX46Y46*%
G04 Gerber Fmt 4.6, Leading zero omitted, Abs format (unit mm)*
G04 Created by KiCad (PCBNEW (6.0.2)) date 2022-10-15 16:32:30*
%MOMM*%
%LPD*%
G01*
G04 APERTURE LIST*
G04 #@! TA.AperFunction,ComponentPad*
%ADD10R,2.400000X1.600000*%
G04 #@! TD*
G04 #@! TA.AperFunction,ComponentPad*
%ADD11O,2.400000X1.600000*%
G04 #@! TD*
G04 #@! TA.AperFunction,ComponentPad*
%ADD12C,1.600000*%
G04 #@! TD*
G04 #@! TA.AperFunction,ComponentPad*
%ADD13R,1.600000X1.600000*%
G04 #@! TD*
G04 #@! TA.AperFunction,ComponentPad*
%ADD14O,1.600000X1.600000*%
G04 #@! TD*
G04 #@! TA.AperFunction,ComponentPad*
%ADD15R,1.700000X1.700000*%
G04 #@! TD*
G04 #@! TA.AperFunction,ComponentPad*
%ADD16O,1.700000X1.700000*%
G04 #@! TD*
G04 #@! TA.AperFunction,ViaPad*
%ADD17C,0.800000*%
G04 #@! TD*
G04 #@! TA.AperFunction,Conductor*
%ADD18C,0.254000*%
G04 #@! TD*
G04 APERTURE END LIST*
D10*
X119888000Y-60198000D03*
D11*
X119888000Y-62738000D03*
X119888000Y-65278000D03*
X119888000Y-67818000D03*
X119888000Y-70358000D03*
X119888000Y-72898000D03*
X119888000Y-75438000D03*
X119888000Y-77978000D03*
X119888000Y-80518000D03*
X119888000Y-83058000D03*
X119888000Y-85598000D03*
X119888000Y-88138000D03*
X127508000Y-88138000D03*
X127508000Y-85598000D03*
X127508000Y-83058000D03*
X127508000Y-80518000D03*
X127508000Y-77978000D03*
X127508000Y-75438000D03*
X127508000Y-72898000D03*
X127508000Y-70358000D03*
X127508000Y-67818000D03*
X127508000Y-65278000D03*
X127508000Y-62738000D03*
X127508000Y-60198000D03*
D12*
X122448000Y-55626000D03*
X124948000Y-55626000D03*
D13*
X140945000Y-104648000D03*
D14*
X140945000Y-107188000D03*
X140945000Y-109728000D03*
X140945000Y-112268000D03*
X140945000Y-114808000D03*
X140945000Y-117348000D03*
X140945000Y-119888000D03*
X140945000Y-122428000D03*
X140945000Y-124968000D03*
X140945000Y-127508000D03*
X140945000Y-130048000D03*
X140945000Y-132588000D03*
X140945000Y-135128000D03*
X140945000Y-137668000D03*
X140945000Y-140208000D03*
X140945000Y-142748000D03*
X156185000Y-142748000D03*
X156185000Y-140208000D03*
X156185000Y-137668000D03*
X156185000Y-135128000D03*
X156185000Y-132588000D03*
X156185000Y-130048000D03*
X156185000Y-127508000D03*
X156185000Y-124968000D03*
X156185000Y-122428000D03*
X156185000Y-119888000D03*
X156185000Y-117348000D03*
X156185000Y-114808000D03*
X156185000Y-112268000D03*
X156185000Y-109728000D03*
X156185000Y-107188000D03*
X156185000Y-104648000D03*
D12*
X147320000Y-100076000D03*
X149820000Y-100076000D03*
X175285000Y-51054000D03*
X177785000Y-51054000D03*
X175285000Y-100076000D03*
X177785000Y-100076000D03*
X147320000Y-51054000D03*
X149820000Y-51054000D03*
D13*
X140945000Y-55536000D03*
D14*
X140945000Y-58076000D03*
X140945000Y-60616000D03*
X140945000Y-63156000D03*
X140945000Y-65696000D03*
X140945000Y-68236000D03*
X140945000Y-70776000D03*
X140945000Y-73316000D03*
X140945000Y-75856000D03*
X140945000Y-78396000D03*
X140945000Y-80936000D03*
X140945000Y-83476000D03*
X140945000Y-86016000D03*
X140945000Y-88556000D03*
X140945000Y-91096000D03*
X140945000Y-93636000D03*
X156185000Y-93636000D03*
X156185000Y-91096000D03*
X156185000Y-88556000D03*
X156185000Y-86016000D03*
X156185000Y-83476000D03*
X156185000Y-80936000D03*
X156185000Y-78396000D03*
X156185000Y-75856000D03*
X156185000Y-73316000D03*
X156185000Y-70776000D03*
X156185000Y-68236000D03*
X156185000Y-65696000D03*
X156185000Y-63156000D03*
X156185000Y-60616000D03*
X156185000Y-58076000D03*
X156185000Y-55536000D03*
D15*
X103124000Y-135895000D03*
D16*
X100584000Y-135895000D03*
X103124000Y-133355000D03*
X100584000Y-133355000D03*
X103124000Y-130815000D03*
X100584000Y-130815000D03*
X103124000Y-128275000D03*
X100584000Y-128275000D03*
X103124000Y-125735000D03*
X100584000Y-125735000D03*
X103124000Y-123195000D03*
X100584000Y-123195000D03*
X103124000Y-120655000D03*
X100584000Y-120655000D03*
X103124000Y-118115000D03*
X100584000Y-118115000D03*
X103124000Y-115575000D03*
X100584000Y-115575000D03*
X103124000Y-113035000D03*
X100584000Y-113035000D03*
X103124000Y-110495000D03*
X100584000Y-110495000D03*
X103124000Y-107955000D03*
X100584000Y-107955000D03*
X103124000Y-105415000D03*
X100584000Y-105415000D03*
X103124000Y-102875000D03*
X100584000Y-102875000D03*
X103124000Y-100335000D03*
X100584000Y-100335000D03*
X103124000Y-97795000D03*
X100584000Y-97795000D03*
X103124000Y-95255000D03*
X100584000Y-95255000D03*
X103124000Y-92715000D03*
X100584000Y-92715000D03*
X103124000Y-90175000D03*
X100584000Y-90175000D03*
X103124000Y-87635000D03*
X100584000Y-87635000D03*
X103124000Y-85095000D03*
X100584000Y-85095000D03*
X103124000Y-82555000D03*
X100584000Y-82555000D03*
X103124000Y-80015000D03*
X100584000Y-80015000D03*
X103124000Y-77475000D03*
X100584000Y-77475000D03*
X103124000Y-74935000D03*
X100584000Y-74935000D03*
X103124000Y-72395000D03*
X100584000Y-72395000D03*
X103124000Y-69855000D03*
X100584000Y-69855000D03*
X103124000Y-67315000D03*
X100584000Y-67315000D03*
X103124000Y-64775000D03*
X100584000Y-64775000D03*
X103124000Y-62235000D03*
X100584000Y-62235000D03*
X103124000Y-59695000D03*
X100584000Y-59695000D03*
X103124000Y-57155000D03*
X100584000Y-57155000D03*
D13*
X168910000Y-104648000D03*
D14*
X168910000Y-107188000D03*
X168910000Y-109728000D03*
X168910000Y-112268000D03*
X168910000Y-114808000D03*
X168910000Y-117348000D03*
X168910000Y-119888000D03*
X168910000Y-122428000D03*
X168910000Y-124968000D03*
X168910000Y-127508000D03*
X168910000Y-130048000D03*
X168910000Y-132588000D03*
X168910000Y-135128000D03*
X168910000Y-137668000D03*
X168910000Y-140208000D03*
X168910000Y-142748000D03*
X184150000Y-142748000D03*
X184150000Y-140208000D03*
X184150000Y-137668000D03*
X184150000Y-135128000D03*
X184150000Y-132588000D03*
X184150000Y-130048000D03*
X184150000Y-127508000D03*
X184150000Y-124968000D03*
X184150000Y-122428000D03*
X184150000Y-119888000D03*
X184150000Y-117348000D03*
X184150000Y-114808000D03*
X184150000Y-112268000D03*
X184150000Y-109728000D03*
X184150000Y-107188000D03*
X184150000Y-104648000D03*
D13*
X168910000Y-55536000D03*
D14*
X168910000Y-58076000D03*
X168910000Y-60616000D03*
X168910000Y-63156000D03*
X168910000Y-65696000D03*
X168910000Y-68236000D03*
X168910000Y-70776000D03*
X168910000Y-73316000D03*
X168910000Y-75856000D03*
X168910000Y-78396000D03*
X168910000Y-80936000D03*
X168910000Y-83476000D03*
X168910000Y-86016000D03*
X168910000Y-88556000D03*
X168910000Y-91096000D03*
X168910000Y-93636000D03*
X184150000Y-93636000D03*
X184150000Y-91096000D03*
X184150000Y-88556000D03*
X184150000Y-86016000D03*
X184150000Y-83476000D03*
X184150000Y-80936000D03*
X184150000Y-78396000D03*
X184150000Y-75856000D03*
X184150000Y-73316000D03*
X184150000Y-70776000D03*
X184150000Y-68236000D03*
X184150000Y-65696000D03*
X184150000Y-63156000D03*
X184150000Y-60616000D03*
X184150000Y-58076000D03*
X184150000Y-55536000D03*
D17*
X139865100Y-133769300D03*
X136373700Y-128866700D03*
X152488100Y-94395400D03*
X108368900Y-88270000D03*
X170896300Y-85762000D03*
X185062300Y-128778000D03*
X143213100Y-134298800D03*
X181961300Y-99932200D03*
X113454600Y-61379400D03*
X181904500Y-82072700D03*
X122762500Y-68401800D03*
X123810000Y-67344700D03*
X103293200Y-137545300D03*
X110670600Y-82172000D03*
X174586700Y-58416800D03*
X170599000Y-72046000D03*
X150601900Y-118682900D03*
X114083900Y-116629000D03*
X153790600Y-80462500D03*
X148432400Y-93699200D03*
D18*
X127508000Y-70358000D02*
X129089300Y-70358000D01*
X129089300Y-122993500D02*
X139865100Y-133769300D01*
X129089300Y-70358000D02*
X129089300Y-122993500D01*
X127508000Y-67818000D02*
X129089300Y-67818000D01*
X131569500Y-124062500D02*
X136373700Y-128866700D01*
X131569500Y-70298200D02*
X131569500Y-124062500D01*
X129089300Y-67818000D02*
X131569500Y-70298200D01*
X184150000Y-124968000D02*
X184150000Y-123786700D01*
X184150000Y-75856000D02*
X184150000Y-77037300D01*
X184517100Y-77037300D02*
X184150000Y-77037300D01*
X186377200Y-78897400D02*
X184517100Y-77037300D01*
X186377200Y-111786600D02*
X186377200Y-78897400D01*
X184625800Y-113538000D02*
X186377200Y-111786600D01*
X183743800Y-113538000D02*
X184625800Y-113538000D01*
X182950800Y-114331000D02*
X183743800Y-113538000D01*
X182950800Y-122956700D02*
X182950800Y-114331000D01*
X183780800Y-123786700D02*
X182950800Y-122956700D01*
X184150000Y-123786700D02*
X183780800Y-123786700D01*
X122522000Y-71410700D02*
X121469300Y-70358000D01*
X122522000Y-85035300D02*
X122522000Y-71410700D01*
X120689300Y-86868000D02*
X122522000Y-85035300D01*
X118814800Y-86868000D02*
X120689300Y-86868000D01*
X117798400Y-87884400D02*
X118814800Y-86868000D01*
X117798400Y-89947300D02*
X117798400Y-87884400D01*
X103600700Y-104145000D02*
X117798400Y-89947300D01*
X100087900Y-104145000D02*
X103600700Y-104145000D01*
X99326600Y-104906300D02*
X100087900Y-104145000D01*
X99326600Y-123708000D02*
X99326600Y-104906300D01*
X100122300Y-124503700D02*
X99326600Y-123708000D01*
X100584000Y-124503700D02*
X100122300Y-124503700D01*
X100584000Y-125735000D02*
X100584000Y-124503700D01*
X119888000Y-70358000D02*
X121469300Y-70358000D01*
X184150000Y-104648000D02*
X184150000Y-107188000D01*
X156185000Y-104648000D02*
X156185000Y-107188000D01*
X127508000Y-60198000D02*
X129089300Y-60198000D01*
X138233300Y-51054000D02*
X129089300Y-60198000D01*
X147320000Y-51054000D02*
X138233300Y-51054000D01*
X151802000Y-55536000D02*
X147320000Y-51054000D01*
X156185000Y-55536000D02*
X151802000Y-55536000D01*
X156185000Y-55536000D02*
X157366300Y-55536000D01*
X100584000Y-135895000D02*
X100584000Y-134663700D01*
X159150600Y-53751700D02*
X157366300Y-55536000D01*
X174082600Y-53751700D02*
X159150600Y-53751700D01*
X174082600Y-52256400D02*
X174082600Y-53751700D01*
X175285000Y-51054000D02*
X174082600Y-52256400D01*
X175368000Y-55037100D02*
X174082600Y-53751700D01*
X175368000Y-99993000D02*
X175368000Y-55037100D01*
X175285000Y-100076000D02*
X175368000Y-99993000D01*
X121920300Y-55626000D02*
X122448000Y-55626000D01*
X103842700Y-73703600D02*
X121920300Y-55626000D01*
X102599700Y-73703600D02*
X103842700Y-73703600D01*
X101854000Y-74449300D02*
X102599700Y-73703600D01*
X101854000Y-77963800D02*
X101854000Y-74449300D01*
X101072800Y-78745000D02*
X101854000Y-77963800D01*
X100033000Y-78745000D02*
X101072800Y-78745000D01*
X98322900Y-80455100D02*
X100033000Y-78745000D01*
X98322900Y-132912800D02*
X98322900Y-80455100D01*
X100073800Y-134663700D02*
X98322900Y-132912800D01*
X100584000Y-134663700D02*
X100073800Y-134663700D01*
X122798900Y-66488400D02*
X121469300Y-67818000D01*
X130785800Y-66488400D02*
X122798900Y-66488400D01*
X135308800Y-61965400D02*
X130785800Y-66488400D01*
X153813100Y-61965400D02*
X135308800Y-61965400D01*
X155003700Y-63156000D02*
X153813100Y-61965400D01*
X156185000Y-63156000D02*
X155003700Y-63156000D01*
X119888000Y-67818000D02*
X121469300Y-67818000D01*
X119888000Y-62738000D02*
X118306700Y-62738000D01*
X100584000Y-97795000D02*
X100584000Y-96563700D01*
X118306700Y-64074700D02*
X118306700Y-62738000D01*
X103636400Y-78745000D02*
X118306700Y-64074700D01*
X102576300Y-78745000D02*
X103636400Y-78745000D01*
X101892600Y-79428700D02*
X102576300Y-78745000D01*
X101892600Y-80533600D02*
X101892600Y-79428700D01*
X101141000Y-81285200D02*
X101892600Y-80533600D01*
X100071500Y-81285200D02*
X101141000Y-81285200D01*
X98835700Y-82521000D02*
X100071500Y-81285200D01*
X98835700Y-95325600D02*
X98835700Y-82521000D01*
X100073800Y-96563700D02*
X98835700Y-95325600D01*
X100584000Y-96563700D02*
X100073800Y-96563700D01*
X118306700Y-66586200D02*
X118306700Y-65278000D01*
X103607900Y-81285000D02*
X118306700Y-66586200D01*
X102637900Y-81285000D02*
X103607900Y-81285000D01*
X101854000Y-82068900D02*
X102637900Y-81285000D01*
X101854000Y-83112200D02*
X101854000Y-82068900D01*
X101102600Y-83863600D02*
X101854000Y-83112200D01*
X100060100Y-83863600D02*
X101102600Y-83863600D01*
X99344100Y-84579600D02*
X100060100Y-83863600D01*
X99344100Y-93245500D02*
X99344100Y-84579600D01*
X100122300Y-94023700D02*
X99344100Y-93245500D01*
X100584000Y-94023700D02*
X100122300Y-94023700D01*
X100584000Y-95255000D02*
X100584000Y-94023700D01*
X119888000Y-65278000D02*
X118306700Y-65278000D01*
X152488100Y-90525000D02*
X152488100Y-94395400D01*
X155815800Y-87197300D02*
X152488100Y-90525000D01*
X156185000Y-87197300D02*
X155815800Y-87197300D01*
X101815300Y-88145200D02*
X101815300Y-87635000D01*
X102575100Y-88905000D02*
X101815300Y-88145200D01*
X107733900Y-88905000D02*
X102575100Y-88905000D01*
X108368900Y-88270000D02*
X107733900Y-88905000D01*
X100584000Y-87635000D02*
X101815300Y-87635000D01*
X156185000Y-86016000D02*
X156185000Y-87197300D01*
X163652800Y-84809500D02*
X157366300Y-91096000D01*
X169943800Y-84809500D02*
X163652800Y-84809500D01*
X170896300Y-85762000D02*
X169943800Y-84809500D01*
X156185000Y-91096000D02*
X157366300Y-91096000D01*
X185337400Y-129053100D02*
X185062300Y-128778000D01*
X185337400Y-140748500D02*
X185337400Y-129053100D01*
X184519200Y-141566700D02*
X185337400Y-140748500D01*
X184150000Y-141566700D02*
X184519200Y-141566700D01*
X184150000Y-142748000D02*
X184150000Y-141566700D01*
X97762300Y-80296700D02*
X100584000Y-77475000D01*
X97762300Y-134846900D02*
X97762300Y-80296700D01*
X100097200Y-137181800D02*
X97762300Y-134846900D01*
X101092800Y-137181800D02*
X100097200Y-137181800D01*
X101892600Y-136382000D02*
X101092800Y-137181800D01*
X101892600Y-134826700D02*
X101892600Y-136382000D01*
X102055700Y-134663600D02*
X101892600Y-134826700D01*
X106736300Y-134663600D02*
X102055700Y-134663600D01*
X117026200Y-144953500D02*
X106736300Y-134663600D01*
X162983200Y-144953500D02*
X117026200Y-144953500D01*
X167728700Y-140208000D02*
X162983200Y-144953500D01*
X168910000Y-140208000D02*
X167728700Y-140208000D01*
X140945000Y-88556000D02*
X140945000Y-89737300D01*
X143213100Y-133174600D02*
X143213100Y-134298800D01*
X141445100Y-131406600D02*
X143213100Y-133174600D01*
X140602400Y-131406600D02*
X141445100Y-131406600D01*
X138968700Y-129772900D02*
X140602400Y-131406600D01*
X138968700Y-128230500D02*
X138968700Y-129772900D01*
X136160800Y-125422600D02*
X138968700Y-128230500D01*
X136160800Y-94154400D02*
X136160800Y-125422600D01*
X140577900Y-89737300D02*
X136160800Y-94154400D01*
X140945000Y-89737300D02*
X140577900Y-89737300D01*
X168910000Y-135128000D02*
X168910000Y-133946700D01*
X181961300Y-111165400D02*
X181961300Y-99932200D01*
X181653600Y-111473100D02*
X181961300Y-111165400D01*
X181653600Y-121572300D02*
X181653600Y-111473100D01*
X169279200Y-133946700D02*
X181653600Y-121572300D01*
X168910000Y-133946700D02*
X169279200Y-133946700D01*
X184150000Y-83476000D02*
X184150000Y-84657300D01*
X156185000Y-132588000D02*
X156185000Y-131406700D01*
X100584000Y-69855000D02*
X101815300Y-69855000D01*
X156552100Y-131406700D02*
X156185000Y-131406700D01*
X162547400Y-125411400D02*
X156552100Y-131406700D01*
X162547400Y-116871800D02*
X162547400Y-125411400D01*
X168421200Y-110998000D02*
X162547400Y-116871800D01*
X169311800Y-110998000D02*
X168421200Y-110998000D01*
X179027300Y-101282500D02*
X169311800Y-110998000D01*
X179027300Y-86177300D02*
X179027300Y-101282500D01*
X180547300Y-84657300D02*
X179027300Y-86177300D01*
X180547300Y-84657300D02*
X184150000Y-84657300D01*
X180547300Y-52093700D02*
X180547300Y-84657300D01*
X178269600Y-49816000D02*
X180547300Y-52093700D01*
X126582500Y-49816000D02*
X178269600Y-49816000D01*
X107813500Y-68585000D02*
X126582500Y-49816000D01*
X102575100Y-68585000D02*
X107813500Y-68585000D01*
X101815300Y-69344800D02*
X102575100Y-68585000D01*
X101815300Y-69855000D02*
X101815300Y-69344800D01*
X184150000Y-86016000D02*
X184150000Y-87197300D01*
X156185000Y-135128000D02*
X156185000Y-133946700D01*
X156552100Y-133946700D02*
X156185000Y-133946700D01*
X163564100Y-126934700D02*
X156552100Y-133946700D01*
X163564100Y-118431900D02*
X163564100Y-126934700D01*
X168458000Y-113538000D02*
X163564100Y-118431900D01*
X169316700Y-113538000D02*
X168458000Y-113538000D01*
X179655100Y-103199600D02*
X169316700Y-113538000D01*
X179655100Y-91322900D02*
X179655100Y-103199600D01*
X183780700Y-87197300D02*
X179655100Y-91322900D01*
X184150000Y-87197300D02*
X183780700Y-87197300D01*
X184150000Y-88556000D02*
X184150000Y-89737300D01*
X156185000Y-137668000D02*
X156185000Y-136486700D01*
X156552100Y-136486700D02*
X156185000Y-136486700D01*
X164176300Y-128862500D02*
X156552100Y-136486700D01*
X164176300Y-122927300D02*
X164176300Y-128862500D01*
X168485600Y-118618000D02*
X164176300Y-122927300D01*
X169318800Y-118618000D02*
X168485600Y-118618000D01*
X180163400Y-107773400D02*
X169318800Y-118618000D01*
X180163400Y-93354700D02*
X180163400Y-107773400D01*
X183780800Y-89737300D02*
X180163400Y-93354700D01*
X184150000Y-89737300D02*
X183780800Y-89737300D01*
X100584000Y-64775000D02*
X101815300Y-64775000D01*
X111329000Y-63505000D02*
X113454600Y-61379400D01*
X102575100Y-63505000D02*
X111329000Y-63505000D01*
X101815300Y-64264800D02*
X102575100Y-63505000D01*
X101815300Y-64775000D02*
X101815300Y-64264800D01*
X184150000Y-91096000D02*
X184150000Y-92277300D01*
X156185000Y-140208000D02*
X156185000Y-139026700D01*
X156552100Y-139026700D02*
X156185000Y-139026700D01*
X166711900Y-128866900D02*
X156552100Y-139026700D01*
X166711900Y-122949900D02*
X166711900Y-128866900D01*
X168503800Y-121158000D02*
X166711900Y-122949900D01*
X169326800Y-121158000D02*
X168503800Y-121158000D01*
X180671700Y-109813100D02*
X169326800Y-121158000D01*
X180671700Y-95386400D02*
X180671700Y-109813100D01*
X183780800Y-92277300D02*
X180671700Y-95386400D01*
X184150000Y-92277300D02*
X183780800Y-92277300D01*
X101815300Y-61724800D02*
X101815300Y-62235000D01*
X102613700Y-60926400D02*
X101815300Y-61724800D01*
X103846800Y-60926400D02*
X102613700Y-60926400D01*
X115465600Y-49307600D02*
X103846800Y-60926400D01*
X178524900Y-49307600D02*
X115465600Y-49307600D01*
X181323700Y-52106400D02*
X178524900Y-49307600D01*
X181323700Y-81491900D02*
X181323700Y-52106400D01*
X181904500Y-82072700D02*
X181323700Y-81491900D01*
X100584000Y-62235000D02*
X101815300Y-62235000D01*
X184150000Y-93636000D02*
X184150000Y-94817300D01*
X156185000Y-142748000D02*
X156185000Y-141566700D01*
X156552100Y-141566700D02*
X156185000Y-141566700D01*
X167474300Y-130644500D02*
X156552100Y-141566700D01*
X167474300Y-127241500D02*
X167474300Y-130644500D01*
X168477800Y-126238000D02*
X167474300Y-127241500D01*
X169312600Y-126238000D02*
X168477800Y-126238000D01*
X180891200Y-114659400D02*
X169312600Y-126238000D01*
X180891200Y-111262400D02*
X180891200Y-114659400D01*
X181180000Y-110973600D02*
X180891200Y-111262400D01*
X181180000Y-97787300D02*
X181180000Y-110973600D01*
X184150000Y-94817300D02*
X181180000Y-97787300D01*
X168910000Y-91096000D02*
X168910000Y-92277300D01*
X140945000Y-140208000D02*
X140945000Y-139086200D01*
X140682600Y-139086200D02*
X140945000Y-139086200D01*
X124312000Y-122715600D02*
X140682600Y-139086200D01*
X124312000Y-69951300D02*
X124312000Y-122715600D01*
X122762500Y-68401800D02*
X124312000Y-69951300D01*
X141252600Y-139086200D02*
X140945000Y-139086200D01*
X149322700Y-131016100D02*
X141252600Y-139086200D01*
X149322700Y-125591800D02*
X149322700Y-131016100D01*
X153416400Y-121498100D02*
X149322700Y-125591800D01*
X153416400Y-118423400D02*
X153416400Y-121498100D01*
X155761900Y-116077900D02*
X153416400Y-118423400D01*
X156619600Y-116077900D02*
X155761900Y-116077900D01*
X167728600Y-104968900D02*
X156619600Y-116077900D01*
X167728600Y-93117000D02*
X167728600Y-104968900D01*
X168568300Y-92277300D02*
X167728600Y-93117000D01*
X168910000Y-92277300D02*
X168568300Y-92277300D01*
X168910000Y-88556000D02*
X168910000Y-89737300D01*
X140945000Y-137668000D02*
X140945000Y-136546200D01*
X140610400Y-136546200D02*
X140945000Y-136546200D01*
X125418300Y-121354100D02*
X140610400Y-136546200D01*
X125418300Y-68953000D02*
X125418300Y-121354100D01*
X123810000Y-67344700D02*
X125418300Y-68953000D01*
X168540800Y-89737300D02*
X168910000Y-89737300D01*
X161171900Y-97106200D02*
X168540800Y-89737300D01*
X161171900Y-108958100D02*
X161171900Y-97106200D01*
X156535300Y-113594700D02*
X161171900Y-108958100D01*
X155697800Y-113594700D02*
X156535300Y-113594700D01*
X152908100Y-116384400D02*
X155697800Y-113594700D01*
X152908100Y-119656900D02*
X152908100Y-116384400D01*
X148441500Y-124123500D02*
X152908100Y-119656900D01*
X148441500Y-130894100D02*
X148441500Y-124123500D01*
X142789400Y-136546200D02*
X148441500Y-130894100D01*
X140945000Y-136546200D02*
X142789400Y-136546200D01*
X140945000Y-135128000D02*
X142126300Y-135128000D01*
X103124000Y-59695000D02*
X101892700Y-59695000D01*
X103135400Y-137703100D02*
X103293200Y-137545300D01*
X99899700Y-137703100D02*
X103135400Y-137703100D01*
X97195600Y-134999000D02*
X99899700Y-137703100D01*
X97195600Y-63839700D02*
X97195600Y-134999000D01*
X100070300Y-60965000D02*
X97195600Y-63839700D01*
X101132900Y-60965000D02*
X100070300Y-60965000D01*
X101892700Y-60205200D02*
X101132900Y-60965000D01*
X101892700Y-59695000D02*
X101892700Y-60205200D01*
X152091900Y-102834100D02*
X168910000Y-86016000D01*
X152091900Y-119754300D02*
X152091900Y-102834100D01*
X147645800Y-124200400D02*
X152091900Y-119754300D01*
X147645800Y-130971000D02*
X147645800Y-124200400D01*
X143488800Y-135128000D02*
X147645800Y-130971000D01*
X142126300Y-135128000D02*
X143488800Y-135128000D01*
X118306700Y-61579300D02*
X118306700Y-60198000D01*
X103642300Y-76243700D02*
X118306700Y-61579300D01*
X103124000Y-76243700D02*
X103642300Y-76243700D01*
X103124000Y-77475000D02*
X103124000Y-76243700D01*
X119888000Y-60198000D02*
X118306700Y-60198000D01*
X103124000Y-82555000D02*
X104355300Y-82555000D01*
X104738300Y-82172000D02*
X110670600Y-82172000D01*
X104355300Y-82555000D02*
X104738300Y-82172000D01*
X117396200Y-80518000D02*
X119888000Y-80518000D01*
X112819200Y-85095000D02*
X117396200Y-80518000D01*
X103124000Y-85095000D02*
X112819200Y-85095000D01*
X118052600Y-77978000D02*
X119888000Y-77978000D01*
X112199300Y-83831300D02*
X118052600Y-77978000D01*
X102631600Y-83831300D02*
X112199300Y-83831300D01*
X101854000Y-84608900D02*
X102631600Y-83831300D01*
X101854000Y-85595400D02*
X101854000Y-84608900D01*
X102662300Y-86403700D02*
X101854000Y-85595400D01*
X103124000Y-86403700D02*
X102662300Y-86403700D01*
X103124000Y-87635000D02*
X103124000Y-86403700D01*
X119888000Y-75438000D02*
X121469300Y-75438000D01*
X103124000Y-90175000D02*
X104355300Y-90175000D01*
X110627800Y-90175000D02*
X104355300Y-90175000D01*
X119014800Y-81788000D02*
X110627800Y-90175000D01*
X120718400Y-81788000D02*
X119014800Y-81788000D01*
X121469300Y-81037100D02*
X120718400Y-81788000D01*
X121469300Y-75438000D02*
X121469300Y-81037100D01*
X119888000Y-75438000D02*
X118306700Y-75438000D01*
X118306700Y-67305300D02*
X118306700Y-75438000D01*
X119025700Y-66586300D02*
X118306700Y-67305300D01*
X120851800Y-66586300D02*
X119025700Y-66586300D01*
X123430100Y-64008000D02*
X120851800Y-66586300D01*
X131291700Y-64008000D02*
X123430100Y-64008000D01*
X139763700Y-55536000D02*
X131291700Y-64008000D01*
X140945000Y-55536000D02*
X139763700Y-55536000D01*
X103124000Y-92715000D02*
X104355300Y-92715000D01*
X119888000Y-72898000D02*
X121469300Y-72898000D01*
X184517100Y-108546700D02*
X184150000Y-108546700D01*
X185338700Y-107725100D02*
X184517100Y-108546700D01*
X185338700Y-82909900D02*
X185338700Y-107725100D01*
X184634800Y-82206000D02*
X185338700Y-82909900D01*
X183739000Y-82206000D02*
X184634800Y-82206000D01*
X181832100Y-80299100D02*
X183739000Y-82206000D01*
X181832100Y-63746000D02*
X181832100Y-80299100D01*
X183780800Y-61797300D02*
X181832100Y-63746000D01*
X184150000Y-61797300D02*
X183780800Y-61797300D01*
X184150000Y-60616000D02*
X184150000Y-61797300D01*
X184150000Y-109728000D02*
X184150000Y-108546700D01*
X121977600Y-73406300D02*
X121469300Y-72898000D01*
X121977600Y-83050700D02*
X121977600Y-73406300D01*
X120700300Y-84328000D02*
X121977600Y-83050700D01*
X119016300Y-84328000D02*
X120700300Y-84328000D01*
X110629300Y-92715000D02*
X119016300Y-84328000D01*
X104355300Y-92715000D02*
X110629300Y-92715000D01*
X168910000Y-107188000D02*
X168910000Y-106006700D01*
X168910000Y-58076000D02*
X168910000Y-59257300D01*
X169722200Y-106006700D02*
X168910000Y-106006700D01*
X172221700Y-103507200D02*
X169722200Y-106006700D01*
X172221700Y-62201900D02*
X172221700Y-103507200D01*
X169277100Y-59257300D02*
X172221700Y-62201900D01*
X168910000Y-59257300D02*
X169277100Y-59257300D01*
X168910000Y-109728000D02*
X168910000Y-108546700D01*
X156185000Y-58076000D02*
X157366300Y-58076000D01*
X174501500Y-58416800D02*
X172730100Y-60188200D01*
X174586700Y-58416800D02*
X174501500Y-58416800D01*
X172730100Y-105095800D02*
X172730100Y-60188200D01*
X169279200Y-108546700D02*
X172730100Y-105095800D01*
X168910000Y-108546700D02*
X169279200Y-108546700D01*
X158555100Y-56887200D02*
X157366300Y-58076000D01*
X169429100Y-56887200D02*
X158555100Y-56887200D01*
X172730100Y-60188200D02*
X169429100Y-56887200D01*
X168910000Y-60616000D02*
X168910000Y-61797300D01*
X156185000Y-112268000D02*
X156185000Y-111086700D01*
X169279200Y-61797300D02*
X168910000Y-61797300D01*
X171713400Y-64231500D02*
X169279200Y-61797300D01*
X171713400Y-86049800D02*
X171713400Y-64231500D01*
X170477200Y-87286000D02*
X171713400Y-86049800D01*
X168481900Y-87286000D02*
X170477200Y-87286000D01*
X157543600Y-98224300D02*
X168481900Y-87286000D01*
X157543600Y-110095200D02*
X157543600Y-98224300D01*
X156552100Y-111086700D02*
X157543600Y-110095200D01*
X156185000Y-111086700D02*
X156552100Y-111086700D01*
X184150000Y-65696000D02*
X184150000Y-66877300D01*
X183780800Y-66877300D02*
X184150000Y-66877300D01*
X182902200Y-67755900D02*
X183780800Y-66877300D01*
X182902200Y-71257300D02*
X182902200Y-67755900D01*
X183690900Y-72046000D02*
X182902200Y-71257300D01*
X184563100Y-72046000D02*
X183690900Y-72046000D01*
X186885500Y-74368400D02*
X184563100Y-72046000D01*
X186885500Y-112072500D02*
X186885500Y-74368400D01*
X184150000Y-114808000D02*
X186885500Y-112072500D01*
X140945000Y-63156000D02*
X140945000Y-64337300D01*
X140945000Y-112268000D02*
X140945000Y-111086700D01*
X168910000Y-63156000D02*
X167728700Y-63156000D01*
X150157400Y-64337300D02*
X145735800Y-68758900D01*
X166547400Y-64337300D02*
X150157400Y-64337300D01*
X167728700Y-63156000D02*
X166547400Y-64337300D01*
X145735800Y-106663000D02*
X145735800Y-68758900D01*
X141312100Y-111086700D02*
X145735800Y-106663000D01*
X140945000Y-111086700D02*
X141312100Y-111086700D01*
X141314200Y-64337300D02*
X140945000Y-64337300D01*
X145735800Y-68758900D02*
X141314200Y-64337300D01*
X184150000Y-122428000D02*
X184150000Y-121246700D01*
X182340500Y-71506500D02*
X184150000Y-73316000D01*
X182340500Y-65826900D02*
X182340500Y-71506500D01*
X183654500Y-64512900D02*
X182340500Y-65826900D01*
X184722700Y-64512900D02*
X183654500Y-64512900D01*
X187902100Y-67692300D02*
X184722700Y-64512900D01*
X187902100Y-117844400D02*
X187902100Y-67692300D01*
X184499800Y-121246700D02*
X187902100Y-117844400D01*
X184150000Y-121246700D02*
X184499800Y-121246700D01*
X104355300Y-108082600D02*
X104355300Y-107955000D01*
X140203600Y-143930900D02*
X104355300Y-108082600D01*
X141483100Y-143930900D02*
X140203600Y-143930900D01*
X142268700Y-143145300D02*
X141483100Y-143930900D01*
X142268700Y-141279900D02*
X142268700Y-143145300D01*
X155003700Y-128544900D02*
X142268700Y-141279900D01*
X155003700Y-124421300D02*
X155003700Y-128544900D01*
X155815700Y-123609300D02*
X155003700Y-124421300D01*
X156185000Y-123609300D02*
X155815700Y-123609300D01*
X156185000Y-122428000D02*
X156185000Y-123609300D01*
X103124000Y-107955000D02*
X104355300Y-107955000D01*
X158636300Y-72046000D02*
X157366300Y-73316000D01*
X170599000Y-72046000D02*
X158636300Y-72046000D01*
X156185000Y-73316000D02*
X157366300Y-73316000D01*
X138301100Y-144440800D02*
X104355300Y-110495000D01*
X141692200Y-144440800D02*
X138301100Y-144440800D01*
X155003700Y-131129300D02*
X141692200Y-144440800D01*
X155003700Y-129501300D02*
X155003700Y-131129300D01*
X155815700Y-128689300D02*
X155003700Y-129501300D01*
X156185000Y-128689300D02*
X155815700Y-128689300D01*
X156185000Y-127508000D02*
X156185000Y-128689300D01*
X103124000Y-110495000D02*
X104355300Y-110495000D01*
X183782900Y-126326700D02*
X184150000Y-126326700D01*
X182442400Y-124986200D02*
X183782900Y-126326700D01*
X182442400Y-112271100D02*
X182442400Y-124986200D01*
X183715500Y-110998000D02*
X182442400Y-112271100D01*
X184583300Y-110998000D02*
X183715500Y-110998000D01*
X185868800Y-109712500D02*
X184583300Y-110998000D01*
X185868800Y-80926900D02*
X185868800Y-109712500D01*
X184519200Y-79577300D02*
X185868800Y-80926900D01*
X184150000Y-79577300D02*
X184519200Y-79577300D01*
X184150000Y-78396000D02*
X184150000Y-79577300D01*
X184150000Y-127508000D02*
X184150000Y-126326700D01*
X156185000Y-70776000D02*
X156185000Y-71957300D01*
X151126500Y-118158300D02*
X150601900Y-118682900D01*
X151126500Y-76646600D02*
X151126500Y-118158300D01*
X155815800Y-71957300D02*
X151126500Y-76646600D01*
X156185000Y-71957300D02*
X155815800Y-71957300D01*
X184150000Y-68236000D02*
X184150000Y-69417300D01*
X184150000Y-117348000D02*
X184150000Y-116166700D01*
X184519200Y-69417300D02*
X184150000Y-69417300D01*
X187393800Y-72291900D02*
X184519200Y-69417300D01*
X187393800Y-113290000D02*
X187393800Y-72291900D01*
X184517100Y-116166700D02*
X187393800Y-113290000D01*
X184150000Y-116166700D02*
X184517100Y-116166700D01*
X156185000Y-117348000D02*
X156185000Y-118529300D01*
X138844300Y-141389400D02*
X114083900Y-116629000D01*
X141440200Y-141389400D02*
X138844300Y-141389400D01*
X152162900Y-130666700D02*
X141440200Y-141389400D01*
X152162900Y-125336600D02*
X152162900Y-130666700D01*
X155003700Y-122495800D02*
X152162900Y-125336600D01*
X155003700Y-119341300D02*
X155003700Y-122495800D01*
X155815700Y-118529300D02*
X155003700Y-119341300D01*
X156185000Y-118529300D02*
X155815700Y-118529300D01*
X140945000Y-114808000D02*
X140945000Y-113626700D01*
X140945000Y-65696000D02*
X140945000Y-66877300D01*
X141312100Y-66877300D02*
X140945000Y-66877300D01*
X145227500Y-70792700D02*
X141312100Y-66877300D01*
X145227500Y-97939300D02*
X145227500Y-70792700D01*
X139747700Y-103419100D02*
X145227500Y-97939300D01*
X139747700Y-112798600D02*
X139747700Y-103419100D01*
X140575800Y-113626700D02*
X139747700Y-112798600D01*
X140945000Y-113626700D02*
X140575800Y-113626700D01*
X140577900Y-116166700D02*
X140945000Y-116166700D01*
X139210700Y-114799500D02*
X140577900Y-116166700D01*
X139210700Y-102954500D02*
X139210700Y-114799500D01*
X144719100Y-97446100D02*
X139210700Y-102954500D01*
X144719100Y-72822200D02*
X144719100Y-97446100D01*
X141314200Y-69417300D02*
X144719100Y-72822200D01*
X140945000Y-69417300D02*
X141314200Y-69417300D01*
X140945000Y-68236000D02*
X140945000Y-69417300D01*
X140945000Y-117348000D02*
X140945000Y-116166700D01*
X140945000Y-70776000D02*
X140945000Y-71957300D01*
X140945000Y-119888000D02*
X140945000Y-118706700D01*
X140577900Y-118706700D02*
X140945000Y-118706700D01*
X138702300Y-116831100D02*
X140577900Y-118706700D01*
X138702300Y-102743900D02*
X138702300Y-116831100D01*
X144208400Y-97237800D02*
X138702300Y-102743900D01*
X144208400Y-74851500D02*
X144208400Y-97237800D01*
X141314200Y-71957300D02*
X144208400Y-74851500D01*
X140945000Y-71957300D02*
X141314200Y-71957300D01*
X140945000Y-122428000D02*
X140945000Y-121246700D01*
X140945000Y-73316000D02*
X140945000Y-74497300D01*
X140575800Y-121246700D02*
X140945000Y-121246700D01*
X138194000Y-118864900D02*
X140575800Y-121246700D01*
X138194000Y-102533400D02*
X138194000Y-118864900D01*
X143700100Y-97027300D02*
X138194000Y-102533400D01*
X143700100Y-76885300D02*
X143700100Y-97027300D01*
X141312100Y-74497300D02*
X143700100Y-76885300D01*
X140945000Y-74497300D02*
X141312100Y-74497300D01*
X140945000Y-75856000D02*
X140945000Y-77037300D01*
X140945000Y-124968000D02*
X140945000Y-123786700D01*
X140577900Y-123786700D02*
X140945000Y-123786700D01*
X137685700Y-120894500D02*
X140577900Y-123786700D01*
X137685700Y-102322900D02*
X137685700Y-120894500D01*
X143191800Y-96816800D02*
X137685700Y-102322900D01*
X143191800Y-78914800D02*
X143191800Y-96816800D01*
X141314300Y-77037300D02*
X143191800Y-78914800D01*
X140945000Y-77037300D02*
X141314300Y-77037300D01*
X140945000Y-78396000D02*
X140945000Y-79577300D01*
X140945000Y-127508000D02*
X140945000Y-126326700D01*
X140577900Y-126326700D02*
X140945000Y-126326700D01*
X137177400Y-122926200D02*
X140577900Y-126326700D01*
X137177400Y-102112400D02*
X137177400Y-122926200D01*
X142683000Y-96606800D02*
X137177400Y-102112400D01*
X142683000Y-80946000D02*
X142683000Y-96606800D01*
X141314300Y-79577300D02*
X142683000Y-80946000D01*
X140945000Y-79577300D02*
X141314300Y-79577300D01*
X168910000Y-80936000D02*
X167728700Y-80936000D01*
X154498500Y-79754600D02*
X153790600Y-80462500D01*
X166547300Y-79754600D02*
X154498500Y-79754600D01*
X167728700Y-80936000D02*
X166547300Y-79754600D01*
X140945000Y-80936000D02*
X140945000Y-82117300D01*
X140945000Y-130048000D02*
X140945000Y-128866700D01*
X140633000Y-128866700D02*
X140945000Y-128866700D01*
X136669100Y-124902800D02*
X140633000Y-128866700D01*
X136669100Y-101901900D02*
X136669100Y-124902800D01*
X142174500Y-96396500D02*
X136669100Y-101901900D01*
X142174500Y-82977600D02*
X142174500Y-96396500D01*
X141314200Y-82117300D02*
X142174500Y-82977600D01*
X140945000Y-82117300D02*
X141314200Y-82117300D01*
X140945000Y-83476000D02*
X140945000Y-84657300D01*
X138013900Y-129656900D02*
X140945000Y-132588000D01*
X138013900Y-129177500D02*
X138013900Y-129656900D01*
X135652500Y-126816100D02*
X138013900Y-129177500D01*
X135652500Y-89580600D02*
X135652500Y-126816100D01*
X140575800Y-84657300D02*
X135652500Y-89580600D01*
X140945000Y-84657300D02*
X140575800Y-84657300D01*
X177785000Y-100076000D02*
X177785000Y-51054000D01*
X149820000Y-95086800D02*
X148432400Y-93699200D01*
X149820000Y-100076000D02*
X149820000Y-95086800D01*
X101094200Y-129583700D02*
X100584000Y-129583700D01*
X101854000Y-128823900D02*
X101094200Y-129583700D01*
X101854000Y-107474100D02*
X101854000Y-128823900D01*
X102604500Y-106723600D02*
X101854000Y-107474100D01*
X103569500Y-106723600D02*
X102604500Y-106723600D01*
X118306700Y-91986400D02*
X103569500Y-106723600D01*
X118306700Y-88138000D02*
X118306700Y-91986400D01*
X119888000Y-88138000D02*
X118306700Y-88138000D01*
X100584000Y-130815000D02*
X100584000Y-129583700D01*
M02*
