G04 #@! TF.GenerationSoftware,KiCad,Pcbnew,(6.0.2)*
G04 #@! TF.CreationDate,2022-11-06T15:02:32-08:00*
G04 #@! TF.ProjectId,RAM and ROM,52414d20-616e-4642-9052-4f4d2e6b6963,1.0*
G04 #@! TF.SameCoordinates,Original*
G04 #@! TF.FileFunction,Copper,L2,Bot*
G04 #@! TF.FilePolarity,Positive*
%FSLAX46Y46*%
G04 Gerber Fmt 4.6, Leading zero omitted, Abs format (unit mm)*
G04 Created by KiCad (PCBNEW (6.0.2)) date 2022-11-06 15:02:32*
%MOMM*%
%LPD*%
G01*
G04 APERTURE LIST*
G04 #@! TA.AperFunction,ComponentPad*
%ADD10R,1.700000X1.700000*%
G04 #@! TD*
G04 #@! TA.AperFunction,ComponentPad*
%ADD11O,1.700000X1.700000*%
G04 #@! TD*
G04 #@! TA.AperFunction,ComponentPad*
%ADD12C,1.600000*%
G04 #@! TD*
G04 #@! TA.AperFunction,ComponentPad*
%ADD13O,1.600000X1.600000*%
G04 #@! TD*
G04 #@! TA.AperFunction,ComponentPad*
%ADD14R,1.600000X1.600000*%
G04 #@! TD*
G04 #@! TA.AperFunction,ComponentPad*
%ADD15R,1.800000X1.800000*%
G04 #@! TD*
G04 #@! TA.AperFunction,ComponentPad*
%ADD16C,1.800000*%
G04 #@! TD*
G04 #@! TA.AperFunction,ComponentPad*
%ADD17R,2.400000X1.600000*%
G04 #@! TD*
G04 #@! TA.AperFunction,ComponentPad*
%ADD18O,2.400000X1.600000*%
G04 #@! TD*
G04 #@! TA.AperFunction,ViaPad*
%ADD19C,0.800000*%
G04 #@! TD*
G04 #@! TA.AperFunction,Conductor*
%ADD20C,0.254000*%
G04 #@! TD*
G04 APERTURE END LIST*
D10*
X180340000Y-54356000D03*
D11*
X180340000Y-56896000D03*
X180340000Y-59436000D03*
X180340000Y-61976000D03*
X180340000Y-64516000D03*
X180340000Y-67056000D03*
X180340000Y-69596000D03*
X180340000Y-72136000D03*
X180340000Y-74676000D03*
D12*
X172212000Y-83566000D03*
D13*
X172212000Y-91186000D03*
D12*
X172212000Y-99312300D03*
D13*
X172212000Y-106932300D03*
D12*
X114559000Y-50292000D03*
X117059000Y-50292000D03*
X114559000Y-99314000D03*
X117059000Y-99314000D03*
D14*
X125705000Y-103886000D03*
D13*
X125705000Y-106426000D03*
X125705000Y-108966000D03*
X125705000Y-111506000D03*
X125705000Y-114046000D03*
X125705000Y-116586000D03*
X125705000Y-119126000D03*
X125705000Y-121666000D03*
X125705000Y-124206000D03*
X125705000Y-126746000D03*
X125705000Y-129286000D03*
X125705000Y-131826000D03*
X125705000Y-134366000D03*
X125705000Y-136906000D03*
X125705000Y-139446000D03*
X125705000Y-141986000D03*
X140945000Y-141986000D03*
X140945000Y-139446000D03*
X140945000Y-136906000D03*
X140945000Y-134366000D03*
X140945000Y-131826000D03*
X140945000Y-129286000D03*
X140945000Y-126746000D03*
X140945000Y-124206000D03*
X140945000Y-121666000D03*
X140945000Y-119126000D03*
X140945000Y-116586000D03*
X140945000Y-114046000D03*
X140945000Y-111506000D03*
X140945000Y-108966000D03*
X140945000Y-106426000D03*
X140945000Y-103886000D03*
D12*
X132080000Y-99314000D03*
X134580000Y-99314000D03*
X154965000Y-50292000D03*
X157465000Y-50292000D03*
D15*
X180340000Y-133340000D03*
D16*
X180340000Y-135880000D03*
D15*
X180340000Y-86101000D03*
D16*
X180340000Y-88641000D03*
D12*
X154965000Y-99314000D03*
X157465000Y-99314000D03*
X132080000Y-50292000D03*
X134580000Y-50292000D03*
D15*
X180340000Y-117593700D03*
D16*
X180340000Y-120133700D03*
D12*
X172212000Y-115058700D03*
D13*
X172212000Y-122678700D03*
D14*
X125705000Y-54774000D03*
D13*
X125705000Y-57314000D03*
X125705000Y-59854000D03*
X125705000Y-62394000D03*
X125705000Y-64934000D03*
X125705000Y-67474000D03*
X125705000Y-70014000D03*
X125705000Y-72554000D03*
X125705000Y-75094000D03*
X125705000Y-77634000D03*
X125705000Y-80174000D03*
X125705000Y-82714000D03*
X125705000Y-85254000D03*
X125705000Y-87794000D03*
X125705000Y-90334000D03*
X125705000Y-92874000D03*
X140945000Y-92874000D03*
X140945000Y-90334000D03*
X140945000Y-87794000D03*
X140945000Y-85254000D03*
X140945000Y-82714000D03*
X140945000Y-80174000D03*
X140945000Y-77634000D03*
X140945000Y-75094000D03*
X140945000Y-72554000D03*
X140945000Y-70014000D03*
X140945000Y-67474000D03*
X140945000Y-64934000D03*
X140945000Y-62394000D03*
X140945000Y-59854000D03*
X140945000Y-57314000D03*
X140945000Y-54774000D03*
D17*
X112009000Y-103936000D03*
D18*
X112009000Y-106476000D03*
X112009000Y-109016000D03*
X112009000Y-111556000D03*
X112009000Y-114096000D03*
X112009000Y-116636000D03*
X112009000Y-119176000D03*
X119629000Y-119176000D03*
X119629000Y-116636000D03*
X119629000Y-114096000D03*
X119629000Y-111556000D03*
X119629000Y-109016000D03*
X119629000Y-106476000D03*
X119629000Y-103936000D03*
D17*
X112009000Y-54824000D03*
D18*
X112009000Y-57364000D03*
X112009000Y-59904000D03*
X112009000Y-62444000D03*
X112009000Y-64984000D03*
X112009000Y-67524000D03*
X112009000Y-70064000D03*
X112009000Y-72604000D03*
X112009000Y-75144000D03*
X112009000Y-77684000D03*
X119629000Y-77684000D03*
X119629000Y-75144000D03*
X119629000Y-72604000D03*
X119629000Y-70064000D03*
X119629000Y-67524000D03*
X119629000Y-64984000D03*
X119629000Y-62444000D03*
X119629000Y-59904000D03*
X119629000Y-57364000D03*
X119629000Y-54824000D03*
D15*
X180340000Y-101847300D03*
D16*
X180340000Y-104387300D03*
D12*
X172212000Y-130805000D03*
D13*
X172212000Y-138425000D03*
D10*
X103124000Y-135895000D03*
D11*
X100584000Y-135895000D03*
X103124000Y-133355000D03*
X100584000Y-133355000D03*
X103124000Y-130815000D03*
X100584000Y-130815000D03*
X103124000Y-128275000D03*
X100584000Y-128275000D03*
X103124000Y-125735000D03*
X100584000Y-125735000D03*
X103124000Y-123195000D03*
X100584000Y-123195000D03*
X103124000Y-120655000D03*
X100584000Y-120655000D03*
X103124000Y-118115000D03*
X100584000Y-118115000D03*
X103124000Y-115575000D03*
X100584000Y-115575000D03*
X103124000Y-113035000D03*
X100584000Y-113035000D03*
X103124000Y-110495000D03*
X100584000Y-110495000D03*
X103124000Y-107955000D03*
X100584000Y-107955000D03*
X103124000Y-105415000D03*
X100584000Y-105415000D03*
X103124000Y-102875000D03*
X100584000Y-102875000D03*
X103124000Y-100335000D03*
X100584000Y-100335000D03*
X103124000Y-97795000D03*
X100584000Y-97795000D03*
X103124000Y-95255000D03*
X100584000Y-95255000D03*
X103124000Y-92715000D03*
X100584000Y-92715000D03*
X103124000Y-90175000D03*
X100584000Y-90175000D03*
X103124000Y-87635000D03*
X100584000Y-87635000D03*
X103124000Y-85095000D03*
X100584000Y-85095000D03*
X103124000Y-82555000D03*
X100584000Y-82555000D03*
X103124000Y-80015000D03*
X100584000Y-80015000D03*
X103124000Y-77475000D03*
X100584000Y-77475000D03*
X103124000Y-74935000D03*
X100584000Y-74935000D03*
X103124000Y-72395000D03*
X100584000Y-72395000D03*
X103124000Y-69855000D03*
X100584000Y-69855000D03*
X103124000Y-67315000D03*
X100584000Y-67315000D03*
X103124000Y-64775000D03*
X100584000Y-64775000D03*
X103124000Y-62235000D03*
X100584000Y-62235000D03*
X103124000Y-59695000D03*
X100584000Y-59695000D03*
X103124000Y-57155000D03*
X100584000Y-57155000D03*
D14*
X148590000Y-103886000D03*
D13*
X148590000Y-106426000D03*
X148590000Y-108966000D03*
X148590000Y-111506000D03*
X148590000Y-114046000D03*
X148590000Y-116586000D03*
X148590000Y-119126000D03*
X148590000Y-121666000D03*
X148590000Y-124206000D03*
X148590000Y-126746000D03*
X148590000Y-129286000D03*
X148590000Y-131826000D03*
X148590000Y-134366000D03*
X148590000Y-136906000D03*
X148590000Y-139446000D03*
X148590000Y-141986000D03*
X163830000Y-141986000D03*
X163830000Y-139446000D03*
X163830000Y-136906000D03*
X163830000Y-134366000D03*
X163830000Y-131826000D03*
X163830000Y-129286000D03*
X163830000Y-126746000D03*
X163830000Y-124206000D03*
X163830000Y-121666000D03*
X163830000Y-119126000D03*
X163830000Y-116586000D03*
X163830000Y-114046000D03*
X163830000Y-111506000D03*
X163830000Y-108966000D03*
X163830000Y-106426000D03*
X163830000Y-103886000D03*
D14*
X148590000Y-54774000D03*
D13*
X148590000Y-57314000D03*
X148590000Y-59854000D03*
X148590000Y-62394000D03*
X148590000Y-64934000D03*
X148590000Y-67474000D03*
X148590000Y-70014000D03*
X148590000Y-72554000D03*
X148590000Y-75094000D03*
X148590000Y-77634000D03*
X148590000Y-80174000D03*
X148590000Y-82714000D03*
X148590000Y-85254000D03*
X148590000Y-87794000D03*
X148590000Y-90334000D03*
X148590000Y-92874000D03*
X163830000Y-92874000D03*
X163830000Y-90334000D03*
X163830000Y-87794000D03*
X163830000Y-85254000D03*
X163830000Y-82714000D03*
X163830000Y-80174000D03*
X163830000Y-77634000D03*
X163830000Y-75094000D03*
X163830000Y-72554000D03*
X163830000Y-70014000D03*
X163830000Y-67474000D03*
X163830000Y-64934000D03*
X163830000Y-62394000D03*
X163830000Y-59854000D03*
X163830000Y-57314000D03*
X163830000Y-54774000D03*
D19*
X123276400Y-99447800D03*
X162992500Y-100651700D03*
X121253600Y-98365800D03*
X117582900Y-107069100D03*
X123764300Y-101382000D03*
X162833000Y-93967900D03*
X113083200Y-81416500D03*
X161649100Y-93792000D03*
X160886000Y-94637000D03*
X142459200Y-130751600D03*
X131243800Y-95096300D03*
X158432900Y-80098800D03*
X157197900Y-80275000D03*
X131958600Y-96721600D03*
X130254800Y-94107300D03*
X128961000Y-92813500D03*
X104861200Y-75361000D03*
X143539500Y-54480500D03*
X114657100Y-59625700D03*
X113239000Y-61214900D03*
X122343200Y-116725800D03*
X117339800Y-81691100D03*
D20*
X179578000Y-75438000D02*
X180340000Y-74676000D01*
X179578000Y-82638700D02*
X179578000Y-75438000D01*
X172212000Y-90004700D02*
X179578000Y-82638700D01*
X165011300Y-98632900D02*
X162992500Y-100651700D01*
X163372800Y-81444000D02*
X164304000Y-81444000D01*
X162648700Y-61831300D02*
X162648700Y-80719900D01*
X163356000Y-61124000D02*
X162648700Y-61831300D01*
X172212000Y-91186000D02*
X172212000Y-90004700D01*
X171588700Y-61124000D02*
X163356000Y-61124000D01*
X178356700Y-54356000D02*
X171588700Y-61124000D01*
X180340000Y-54356000D02*
X178356700Y-54356000D01*
X165011300Y-82151300D02*
X165011300Y-98632900D01*
X162648700Y-80719900D02*
X163372800Y-81444000D01*
X164304000Y-81444000D02*
X165011300Y-82151300D01*
X119629000Y-72604000D02*
X118047700Y-72604000D01*
X112009000Y-103936000D02*
X113590300Y-103936000D01*
X113590300Y-102754700D02*
X113590300Y-103936000D01*
X113367800Y-102532200D02*
X113590300Y-102754700D01*
X113367800Y-93709400D02*
X113367800Y-102532200D01*
X116050200Y-91027000D02*
X113367800Y-93709400D01*
X116050200Y-81139100D02*
X116050200Y-91027000D01*
X117450800Y-79738500D02*
X116050200Y-81139100D01*
X117450800Y-73200900D02*
X117450800Y-79738500D01*
X118047700Y-72604000D02*
X117450800Y-73200900D01*
X114024300Y-107000700D02*
X112009000Y-109016000D01*
X114024300Y-105366100D02*
X114024300Y-107000700D01*
X115872700Y-103517700D02*
X114024300Y-105366100D01*
X115872700Y-93936200D02*
X115872700Y-103517700D01*
X116558500Y-93250400D02*
X115872700Y-93936200D01*
X116558500Y-81349600D02*
X116558500Y-93250400D01*
X118047700Y-79860400D02*
X116558500Y-81349600D01*
X118047700Y-75144000D02*
X118047700Y-79860400D01*
X119629000Y-75144000D02*
X118047700Y-75144000D01*
X112009000Y-116636000D02*
X113590300Y-116636000D01*
X170963900Y-145256100D02*
X180340000Y-135880000D01*
X126566500Y-145256100D02*
X170963900Y-145256100D01*
X113590300Y-132279900D02*
X126566500Y-145256100D01*
X113590300Y-116636000D02*
X113590300Y-132279900D01*
X112009000Y-111556000D02*
X113590300Y-111556000D01*
X122017100Y-99447800D02*
X123276400Y-99447800D01*
X115115300Y-106349600D02*
X122017100Y-99447800D01*
X115115300Y-110031000D02*
X115115300Y-106349600D01*
X113590300Y-111556000D02*
X115115300Y-110031000D01*
X140577900Y-78992700D02*
X140945000Y-78992700D01*
X138727600Y-77142400D02*
X140577900Y-78992700D01*
X138727600Y-73722700D02*
X138727600Y-77142400D01*
X126128900Y-61124000D02*
X138727600Y-73722700D01*
X124866500Y-61124000D02*
X126128900Y-61124000D01*
X123646500Y-59904000D02*
X124866500Y-61124000D01*
X119629000Y-59904000D02*
X123646500Y-59904000D01*
X140945000Y-80174000D02*
X140945000Y-78992700D01*
X163830000Y-129286000D02*
X163830000Y-128104700D01*
X121253600Y-66608600D02*
X121253600Y-98365800D01*
X119629000Y-64984000D02*
X121253600Y-66608600D01*
X162992500Y-101652200D02*
X162992500Y-100651700D01*
X162094200Y-102550500D02*
X162992500Y-101652200D01*
X162094200Y-126738100D02*
X162094200Y-102550500D01*
X163460800Y-128104700D02*
X162094200Y-126738100D01*
X163830000Y-128104700D02*
X163460800Y-128104700D01*
X181622800Y-105670100D02*
X180340000Y-104387300D01*
X181622800Y-129529300D02*
X181622800Y-105670100D01*
X173399900Y-137752200D02*
X181622800Y-129529300D01*
X173399900Y-138968200D02*
X173399900Y-137752200D01*
X167620300Y-144747800D02*
X173399900Y-138968200D01*
X126784000Y-144747800D02*
X167620300Y-144747800D01*
X117582900Y-135546700D02*
X126784000Y-144747800D01*
X117582900Y-107069100D02*
X117582900Y-135546700D01*
X140577900Y-128104700D02*
X140945000Y-128104700D01*
X137193100Y-124719900D02*
X140577900Y-128104700D01*
X137193100Y-101388100D02*
X137193100Y-124719900D01*
X137384000Y-101197200D02*
X137193100Y-101388100D01*
X137384000Y-77462500D02*
X137384000Y-101197200D01*
X126125500Y-66204000D02*
X137384000Y-77462500D01*
X124970300Y-66204000D02*
X126125500Y-66204000D01*
X121210300Y-62444000D02*
X124970300Y-66204000D01*
X119629000Y-62444000D02*
X121210300Y-62444000D01*
X140945000Y-129286000D02*
X140945000Y-128104700D01*
X163830000Y-75094000D02*
X163830000Y-76275300D01*
X163830000Y-124206000D02*
X163830000Y-123024700D01*
X164197100Y-123024700D02*
X163830000Y-123024700D01*
X166047100Y-121174700D02*
X164197100Y-123024700D01*
X166047100Y-78123200D02*
X166047100Y-121174700D01*
X164199200Y-76275300D02*
X166047100Y-78123200D01*
X163830000Y-76275300D02*
X164199200Y-76275300D01*
X100584000Y-125735000D02*
X100584000Y-124503700D01*
X112009000Y-64984000D02*
X113590300Y-64984000D01*
X100122300Y-124503700D02*
X100584000Y-124503700D01*
X99329600Y-123711000D02*
X100122300Y-124503700D01*
X99329600Y-92215700D02*
X99329600Y-123711000D01*
X100100300Y-91445000D02*
X99329600Y-92215700D01*
X104186600Y-91445000D02*
X100100300Y-91445000D01*
X114017000Y-81614600D02*
X104186600Y-91445000D01*
X114017000Y-80297100D02*
X114017000Y-81614600D01*
X115165700Y-79148400D02*
X114017000Y-80297100D01*
X115165700Y-66559400D02*
X115165700Y-79148400D01*
X113590300Y-64984000D02*
X115165700Y-66559400D01*
X140945000Y-103886000D02*
X140945000Y-106426000D01*
X100584000Y-135895000D02*
X100584000Y-134663700D01*
X163830000Y-54774000D02*
X162648700Y-54774000D01*
X163830000Y-103886000D02*
X163830000Y-106426000D01*
X119629000Y-103936000D02*
X121210300Y-103936000D01*
X119611200Y-103936000D02*
X119629000Y-103936000D01*
X116322100Y-107225100D02*
X119611200Y-103936000D01*
X116322100Y-111924600D02*
X116322100Y-107225100D01*
X112880700Y-115366000D02*
X116322100Y-111924600D01*
X111120000Y-115366000D02*
X112880700Y-115366000D01*
X108066400Y-118419600D02*
X111120000Y-115366000D01*
X108066400Y-122619800D02*
X108066400Y-118419600D01*
X103642600Y-127043600D02*
X108066400Y-122619800D01*
X102609500Y-127043600D02*
X103642600Y-127043600D01*
X101892700Y-127760400D02*
X102609500Y-127043600D01*
X101892700Y-128793500D02*
X101892700Y-127760400D01*
X101141200Y-129545000D02*
X101892700Y-128793500D01*
X100105700Y-129545000D02*
X101141200Y-129545000D01*
X99327300Y-130323400D02*
X100105700Y-129545000D01*
X99327300Y-133917200D02*
X99327300Y-130323400D01*
X100073800Y-134663700D02*
X99327300Y-133917200D01*
X100584000Y-134663700D02*
X100073800Y-134663700D01*
X121210300Y-103936000D02*
X123764300Y-101382000D01*
X162648700Y-54774000D02*
X159322600Y-54774000D01*
X154965000Y-50416400D02*
X154965000Y-50292000D01*
X159322600Y-54774000D02*
X154965000Y-50416400D01*
X159322600Y-80314000D02*
X159322600Y-54774000D01*
X154965000Y-84671600D02*
X159322600Y-80314000D01*
X154965000Y-99314000D02*
X154965000Y-84671600D01*
X115742200Y-49108800D02*
X114559000Y-50292000D01*
X130896800Y-49108800D02*
X115742200Y-49108800D01*
X132080000Y-50292000D02*
X130896800Y-49108800D01*
X112009000Y-114096000D02*
X110427700Y-114096000D01*
X103124000Y-62235000D02*
X103124000Y-63466300D01*
X104803100Y-119720600D02*
X110427700Y-114096000D01*
X104803100Y-123334200D02*
X104803100Y-119720600D01*
X103633700Y-124503600D02*
X104803100Y-123334200D01*
X102537700Y-124503600D02*
X103633700Y-124503600D01*
X101854000Y-125187300D02*
X102537700Y-124503600D01*
X101854000Y-126244000D02*
X101854000Y-125187300D01*
X101093000Y-127005000D02*
X101854000Y-126244000D01*
X100053900Y-127005000D02*
X101093000Y-127005000D01*
X98821300Y-125772400D02*
X100053900Y-127005000D01*
X98821300Y-85073900D02*
X98821300Y-125772400D01*
X100108800Y-83786400D02*
X98821300Y-85073900D01*
X101199600Y-83786400D02*
X100108800Y-83786400D01*
X101892600Y-83093400D02*
X101199600Y-83786400D01*
X101892600Y-64236000D02*
X101892600Y-83093400D01*
X102662300Y-63466300D02*
X101892600Y-64236000D01*
X103124000Y-63466300D02*
X102662300Y-63466300D01*
X163830000Y-62394000D02*
X163830000Y-63575300D01*
X164199200Y-63575300D02*
X163830000Y-63575300D01*
X167163900Y-66540000D02*
X164199200Y-63575300D01*
X167163900Y-91597700D02*
X167163900Y-66540000D01*
X177342500Y-101776300D02*
X167163900Y-91597700D01*
X177342500Y-117136200D02*
X177342500Y-101776300D01*
X180340000Y-120133700D02*
X177342500Y-117136200D01*
X100584000Y-97795000D02*
X101815300Y-97795000D01*
X112009000Y-57364000D02*
X113590300Y-57364000D01*
X101815300Y-97333200D02*
X101815300Y-97795000D01*
X102584800Y-96563700D02*
X101815300Y-97333200D01*
X103557700Y-96563700D02*
X102584800Y-96563700D01*
X115033600Y-85087800D02*
X103557700Y-96563700D01*
X115033600Y-80718100D02*
X115033600Y-85087800D01*
X116182300Y-79569400D02*
X115033600Y-80718100D01*
X116182300Y-59956000D02*
X116182300Y-79569400D01*
X113590300Y-57364000D02*
X116182300Y-59956000D01*
X100584000Y-95255000D02*
X101815300Y-95255000D01*
X112009000Y-59904000D02*
X113590300Y-59904000D01*
X101815300Y-94793200D02*
X101815300Y-95255000D01*
X102584800Y-94023700D02*
X101815300Y-94793200D01*
X103565500Y-94023700D02*
X102584800Y-94023700D01*
X114525300Y-83063900D02*
X103565500Y-94023700D01*
X114525300Y-80507600D02*
X114525300Y-83063900D01*
X115674000Y-79358900D02*
X114525300Y-80507600D01*
X115674000Y-61987700D02*
X115674000Y-79358900D01*
X113590300Y-59904000D02*
X115674000Y-61987700D01*
X163830000Y-131826000D02*
X163830000Y-130644700D01*
X162211100Y-94589800D02*
X162833000Y-93967900D01*
X162211100Y-101714800D02*
X162211100Y-94589800D01*
X161585800Y-102340100D02*
X162211100Y-101714800D01*
X161585800Y-128769700D02*
X161585800Y-102340100D01*
X163460800Y-130644700D02*
X161585800Y-128769700D01*
X163830000Y-130644700D02*
X163460800Y-130644700D01*
X100584000Y-87635000D02*
X101815300Y-87635000D01*
X105594700Y-88905000D02*
X113083200Y-81416500D01*
X102575100Y-88905000D02*
X105594700Y-88905000D01*
X101815300Y-88145200D02*
X102575100Y-88905000D01*
X101815300Y-87635000D02*
X101815300Y-88145200D01*
X163830000Y-134366000D02*
X163830000Y-133184700D01*
X161702800Y-93845700D02*
X161649100Y-93792000D01*
X161702800Y-101504300D02*
X161702800Y-93845700D01*
X161048600Y-102158500D02*
X161702800Y-101504300D01*
X161048600Y-130772500D02*
X161048600Y-102158500D01*
X163460800Y-133184700D02*
X161048600Y-130772500D01*
X163830000Y-133184700D02*
X163460800Y-133184700D01*
X160886000Y-101348300D02*
X160886000Y-94637000D01*
X160540200Y-101694100D02*
X160886000Y-101348300D01*
X160540200Y-132804100D02*
X160540200Y-101694100D01*
X163460800Y-135724700D02*
X160540200Y-132804100D01*
X163830000Y-135724700D02*
X163460800Y-135724700D01*
X163830000Y-136906000D02*
X163830000Y-135724700D01*
X140945000Y-90334000D02*
X140945000Y-91515300D01*
X142459200Y-126588100D02*
X142459200Y-130751600D01*
X141434600Y-125563500D02*
X142459200Y-126588100D01*
X140585100Y-125563500D02*
X141434600Y-125563500D01*
X137701500Y-122679900D02*
X140585100Y-125563500D01*
X137701500Y-101852600D02*
X137701500Y-122679900D01*
X139078100Y-100476000D02*
X137701500Y-101852600D01*
X139078100Y-93015100D02*
X139078100Y-100476000D01*
X140577900Y-91515300D02*
X139078100Y-93015100D01*
X140945000Y-91515300D02*
X140577900Y-91515300D01*
X163830000Y-141986000D02*
X162648700Y-141986000D01*
X160395200Y-144239500D02*
X162648700Y-141986000D01*
X140022700Y-144239500D02*
X160395200Y-144239500D01*
X133330100Y-137546900D02*
X140022700Y-144239500D01*
X133330100Y-96965300D02*
X133330100Y-137546900D01*
X131461100Y-95096300D02*
X133330100Y-96965300D01*
X131243800Y-95096300D02*
X131461100Y-95096300D01*
X148590000Y-139446000D02*
X147408700Y-139446000D01*
X143123500Y-143731200D02*
X147408700Y-139446000D01*
X140233200Y-143731200D02*
X143123500Y-143731200D01*
X135609800Y-139107800D02*
X140233200Y-143731200D01*
X135609800Y-100814800D02*
X135609800Y-139107800D01*
X135765300Y-100659300D02*
X135609800Y-100814800D01*
X135765300Y-97759100D02*
X135765300Y-100659300D01*
X128340200Y-90334000D02*
X135765300Y-97759100D01*
X125705000Y-90334000D02*
X128340200Y-90334000D01*
X125705000Y-87794000D02*
X126886300Y-87794000D01*
X147408700Y-137273100D02*
X147408700Y-136906000D01*
X141458900Y-143222900D02*
X147408700Y-137273100D01*
X140443700Y-143222900D02*
X141458900Y-143222900D01*
X136118700Y-138897900D02*
X140443700Y-143222900D01*
X136118700Y-101024700D02*
X136118700Y-138897900D01*
X136274500Y-100868900D02*
X136118700Y-101024700D01*
X136274500Y-97182200D02*
X136274500Y-100868900D01*
X126886300Y-87794000D02*
X136274500Y-97182200D01*
X148590000Y-136906000D02*
X147408700Y-136906000D01*
X148590000Y-134366000D02*
X147408700Y-134366000D01*
X125705000Y-85254000D02*
X125705000Y-86435300D01*
X147408700Y-134661300D02*
X147408700Y-134366000D01*
X141439600Y-140630400D02*
X147408700Y-134661300D01*
X140451800Y-140630400D02*
X141439600Y-140630400D01*
X136650000Y-136828600D02*
X140451800Y-140630400D01*
X136650000Y-101212200D02*
X136650000Y-136828600D01*
X136819700Y-101042500D02*
X136650000Y-101212200D01*
X136819700Y-96974000D02*
X136819700Y-101042500D01*
X126281000Y-86435300D02*
X136819700Y-96974000D01*
X125705000Y-86435300D02*
X126281000Y-86435300D01*
X100584000Y-69855000D02*
X100584000Y-68623700D01*
X163830000Y-82714000D02*
X162648700Y-82714000D01*
X140945000Y-131826000D02*
X142126300Y-131826000D01*
X142489700Y-131826000D02*
X142126300Y-131826000D01*
X143240500Y-131075200D02*
X142489700Y-131826000D01*
X143240500Y-130416500D02*
X143240500Y-131075200D01*
X148181000Y-125476000D02*
X143240500Y-130416500D01*
X148998900Y-125476000D02*
X148181000Y-125476000D01*
X156215000Y-118259900D02*
X148998900Y-125476000D01*
X156215000Y-89147700D02*
X156215000Y-118259900D01*
X162648700Y-82714000D02*
X156215000Y-89147700D01*
X162070000Y-82135300D02*
X162648700Y-82714000D01*
X162070000Y-59870100D02*
X162070000Y-82135300D01*
X163356100Y-58584000D02*
X162070000Y-59870100D01*
X164240100Y-58584000D02*
X163356100Y-58584000D01*
X165015700Y-57808400D02*
X164240100Y-58584000D01*
X165015700Y-54197000D02*
X165015700Y-57808400D01*
X159171900Y-48353200D02*
X165015700Y-54197000D01*
X105425400Y-48353200D02*
X159171900Y-48353200D01*
X98793200Y-54985400D02*
X105425400Y-48353200D01*
X98793200Y-67343100D02*
X98793200Y-54985400D01*
X100073800Y-68623700D02*
X98793200Y-67343100D01*
X100584000Y-68623700D02*
X100073800Y-68623700D01*
X163830000Y-85254000D02*
X163830000Y-86435300D01*
X140945000Y-134366000D02*
X142126300Y-134366000D01*
X142126300Y-133998900D02*
X142126300Y-134366000D01*
X148109200Y-128016000D02*
X142126300Y-133998900D01*
X148998600Y-128016000D02*
X148109200Y-128016000D01*
X158144600Y-118870000D02*
X148998600Y-128016000D01*
X158144600Y-100495400D02*
X158144600Y-118870000D01*
X158653000Y-99987000D02*
X158144600Y-100495400D01*
X158653000Y-95665200D02*
X158653000Y-99987000D01*
X158579800Y-95592000D02*
X158653000Y-95665200D01*
X158579800Y-93682000D02*
X158579800Y-95592000D01*
X158653000Y-93608800D02*
X158579800Y-93682000D01*
X158653000Y-91243100D02*
X158653000Y-93608800D01*
X163460800Y-86435300D02*
X158653000Y-91243100D01*
X163830000Y-86435300D02*
X163460800Y-86435300D01*
X163830000Y-87794000D02*
X163830000Y-88975300D01*
X140945000Y-136906000D02*
X142126300Y-136906000D01*
X142126300Y-136610700D02*
X142126300Y-136906000D01*
X148181000Y-130556000D02*
X142126300Y-136610700D01*
X149032900Y-130556000D02*
X148181000Y-130556000D01*
X158653000Y-120935900D02*
X149032900Y-130556000D01*
X158653000Y-100960100D02*
X158653000Y-120935900D01*
X159161300Y-100451800D02*
X158653000Y-100960100D01*
X159161300Y-95454700D02*
X159161300Y-100451800D01*
X159088100Y-95381500D02*
X159161300Y-95454700D01*
X159088100Y-93892500D02*
X159088100Y-95381500D01*
X159161300Y-93819300D02*
X159088100Y-93892500D01*
X159161300Y-93311700D02*
X159161300Y-93819300D01*
X163497700Y-88975300D02*
X159161300Y-93311700D01*
X163830000Y-88975300D02*
X163497700Y-88975300D01*
X100073800Y-61003700D02*
X100584000Y-61003700D01*
X99301600Y-60231500D02*
X100073800Y-61003700D01*
X99301600Y-56600300D02*
X99301600Y-60231500D01*
X101577500Y-54324400D02*
X99301600Y-56600300D01*
X106605200Y-54324400D02*
X101577500Y-54324400D01*
X108877200Y-52052400D02*
X106605200Y-54324400D01*
X149497200Y-52052400D02*
X108877200Y-52052400D01*
X158432900Y-60988100D02*
X149497200Y-52052400D01*
X158432900Y-80098800D02*
X158432900Y-60988100D01*
X100584000Y-62235000D02*
X100584000Y-61003700D01*
X147230100Y-133160900D02*
X140945000Y-139446000D01*
X148937500Y-133160900D02*
X147230100Y-133160900D01*
X159161400Y-122937000D02*
X148937500Y-133160900D01*
X159161400Y-101170500D02*
X159161400Y-122937000D01*
X159669600Y-100662300D02*
X159161400Y-101170500D01*
X159669600Y-95244200D02*
X159669600Y-100662300D01*
X159596400Y-95171000D02*
X159669600Y-95244200D01*
X159596400Y-94103000D02*
X159596400Y-95171000D01*
X159669600Y-94029800D02*
X159596400Y-94103000D01*
X159669600Y-93942700D02*
X159669600Y-94029800D01*
X163278300Y-90334000D02*
X159669600Y-93942700D01*
X163830000Y-90334000D02*
X163278300Y-90334000D01*
X163830000Y-92874000D02*
X162648700Y-92874000D01*
X100584000Y-59695000D02*
X100584000Y-58463700D01*
X157197900Y-60472900D02*
X157197900Y-80275000D01*
X149285800Y-52560800D02*
X157197900Y-60472900D01*
X110115700Y-52560800D02*
X149285800Y-52560800D01*
X107549000Y-55127500D02*
X110115700Y-52560800D01*
X103401900Y-55127500D02*
X107549000Y-55127500D01*
X101854000Y-56675400D02*
X103401900Y-55127500D01*
X101854000Y-57703900D02*
X101854000Y-56675400D01*
X101094200Y-58463700D02*
X101854000Y-57703900D01*
X100584000Y-58463700D02*
X101094200Y-58463700D01*
X147295000Y-135636000D02*
X140945000Y-141986000D01*
X149053200Y-135636000D02*
X147295000Y-135636000D01*
X159669700Y-125019500D02*
X149053200Y-135636000D01*
X159669700Y-101381000D02*
X159669700Y-125019500D01*
X160177900Y-100872800D02*
X159669700Y-101381000D01*
X160177900Y-95033700D02*
X160177900Y-100872800D01*
X160104700Y-94960500D02*
X160177900Y-95033700D01*
X160104700Y-94313500D02*
X160104700Y-94960500D01*
X160177900Y-94240300D02*
X160104700Y-94313500D01*
X160177900Y-94158000D02*
X160177900Y-94240300D01*
X161461900Y-92874000D02*
X160177900Y-94158000D01*
X162648700Y-92874000D02*
X161461900Y-92874000D01*
X125705000Y-139446000D02*
X125705000Y-138264700D01*
X130898600Y-97781600D02*
X131958600Y-96721600D01*
X130898600Y-133438200D02*
X130898600Y-97781600D01*
X126072100Y-138264700D02*
X130898600Y-133438200D01*
X125705000Y-138264700D02*
X126072100Y-138264700D01*
X148590000Y-87794000D02*
X148590000Y-86612700D01*
X125705000Y-136906000D02*
X125705000Y-135724700D01*
X130254800Y-131542000D02*
X130254800Y-94107300D01*
X126072100Y-135724700D02*
X130254800Y-131542000D01*
X125705000Y-135724700D02*
X126072100Y-135724700D01*
X148220800Y-86612700D02*
X148590000Y-86612700D01*
X147404300Y-85796200D02*
X148220800Y-86612700D01*
X147404300Y-69451900D02*
X147404300Y-85796200D01*
X148112200Y-68744000D02*
X147404300Y-69451900D01*
X149001000Y-68744000D02*
X148112200Y-68744000D01*
X150297600Y-67447400D02*
X149001000Y-68744000D01*
X150297600Y-54291600D02*
X150297600Y-67447400D01*
X149075200Y-53069200D02*
X150297600Y-54291600D01*
X110672500Y-53069200D02*
X149075200Y-53069200D01*
X106586700Y-57155000D02*
X110672500Y-53069200D01*
X103124000Y-57155000D02*
X106586700Y-57155000D01*
X125705000Y-134366000D02*
X125705000Y-133184700D01*
X103634200Y-60926300D02*
X103124000Y-60926300D01*
X104861200Y-62153300D02*
X103634200Y-60926300D01*
X104861200Y-75361000D02*
X104861200Y-62153300D01*
X103124000Y-59695000D02*
X103124000Y-60926300D01*
X129457500Y-93310000D02*
X128961000Y-92813500D01*
X129457500Y-129799300D02*
X129457500Y-93310000D01*
X126072100Y-133184700D02*
X129457500Y-129799300D01*
X125705000Y-133184700D02*
X126072100Y-133184700D01*
X107470000Y-57781700D02*
X110427700Y-54824000D01*
X107470000Y-74360300D02*
X107470000Y-57781700D01*
X104355300Y-77475000D02*
X107470000Y-74360300D01*
X103124000Y-77475000D02*
X104355300Y-77475000D01*
X112009000Y-54824000D02*
X110427700Y-54824000D01*
X103124000Y-80015000D02*
X103124000Y-79505800D01*
X112903400Y-71413700D02*
X110856400Y-71413700D01*
X113590300Y-72100600D02*
X112903400Y-71413700D01*
X113590300Y-73562700D02*
X113590300Y-72100600D01*
X112009000Y-75144000D02*
X113590300Y-73562700D01*
X142639500Y-53580500D02*
X143539500Y-54480500D01*
X116986000Y-53580500D02*
X142639500Y-53580500D01*
X114561100Y-56005400D02*
X116986000Y-53580500D01*
X111271900Y-56005400D02*
X114561100Y-56005400D01*
X109322400Y-57954900D02*
X111271900Y-56005400D01*
X109322400Y-69879700D02*
X109322400Y-57954900D01*
X110856400Y-71413700D02*
X109322400Y-69879700D01*
X109694400Y-72575700D02*
X110856400Y-71413700D01*
X109694400Y-72935400D02*
X109694400Y-72575700D01*
X103124000Y-79505800D02*
X109694400Y-72935400D01*
X110427700Y-74477300D02*
X110427700Y-72604000D01*
X103581300Y-81323700D02*
X110427700Y-74477300D01*
X103124000Y-81323700D02*
X103581300Y-81323700D01*
X103124000Y-82555000D02*
X103124000Y-81323700D01*
X112009000Y-72604000D02*
X110427700Y-72604000D01*
X103124000Y-85095000D02*
X103124000Y-83863700D01*
X103748100Y-83863700D02*
X103124000Y-83863700D01*
X111197800Y-76414000D02*
X103748100Y-83863700D01*
X112829600Y-76414000D02*
X111197800Y-76414000D01*
X114143900Y-75099700D02*
X112829600Y-76414000D01*
X114143900Y-70617600D02*
X114143900Y-75099700D01*
X113590300Y-70064000D02*
X114143900Y-70617600D01*
X113727400Y-58696000D02*
X114657100Y-59625700D01*
X111094200Y-58696000D02*
X113727400Y-58696000D01*
X109854700Y-59935500D02*
X111094200Y-58696000D01*
X109854700Y-69491000D02*
X109854700Y-59935500D01*
X110427700Y-70064000D02*
X109854700Y-69491000D01*
X112009000Y-70064000D02*
X113590300Y-70064000D01*
X112009000Y-70064000D02*
X110427700Y-70064000D01*
X112009000Y-67524000D02*
X110427700Y-67524000D01*
X111167100Y-61214900D02*
X113239000Y-61214900D01*
X110427700Y-61954300D02*
X111167100Y-61214900D01*
X110427700Y-67524000D02*
X110427700Y-61954300D01*
X103124000Y-87635000D02*
X104355300Y-87635000D01*
X112009000Y-67524000D02*
X113590300Y-67524000D01*
X114655200Y-77335100D02*
X104355300Y-87635000D01*
X114655200Y-68588900D02*
X114655200Y-77335100D01*
X113590300Y-67524000D02*
X114655200Y-68588900D01*
X148590000Y-54774000D02*
X148590000Y-55955300D01*
X148590000Y-103886000D02*
X148590000Y-102704700D01*
X146342100Y-100456800D02*
X148590000Y-102704700D01*
X146342100Y-60342800D02*
X146342100Y-100456800D01*
X148100900Y-58584000D02*
X146342100Y-60342800D01*
X148991100Y-58584000D02*
X148100900Y-58584000D01*
X149789100Y-57786000D02*
X148991100Y-58584000D01*
X149789100Y-56832700D02*
X149789100Y-57786000D01*
X148911700Y-55955300D02*
X149789100Y-56832700D01*
X148590000Y-55955300D02*
X148911700Y-55955300D01*
X141312100Y-107784700D02*
X140945000Y-107784700D01*
X144205600Y-104891200D02*
X141312100Y-107784700D01*
X144205600Y-63926700D02*
X144205600Y-104891200D01*
X141314200Y-61035300D02*
X144205600Y-63926700D01*
X140945000Y-61035300D02*
X141314200Y-61035300D01*
X140945000Y-59854000D02*
X140945000Y-61035300D01*
X140945000Y-108966000D02*
X140945000Y-107784700D01*
X148590000Y-57314000D02*
X147408700Y-57314000D01*
X125705000Y-57314000D02*
X126886300Y-57314000D01*
X148590000Y-106426000D02*
X148590000Y-105244700D01*
X143022300Y-56123400D02*
X145810800Y-58911900D01*
X128076900Y-56123400D02*
X143022300Y-56123400D01*
X126886300Y-57314000D02*
X128076900Y-56123400D01*
X147408700Y-57314000D02*
X145810800Y-58911900D01*
X145810800Y-103300900D02*
X145810800Y-58911900D01*
X147754600Y-105244700D02*
X145810800Y-103300900D01*
X148590000Y-105244700D02*
X147754600Y-105244700D01*
X148222900Y-107784700D02*
X148590000Y-107784700D01*
X145154600Y-104716400D02*
X148222900Y-107784700D01*
X145154600Y-62335700D02*
X145154600Y-104716400D01*
X141314200Y-58495300D02*
X145154600Y-62335700D01*
X140945000Y-58495300D02*
X141314200Y-58495300D01*
X140945000Y-57314000D02*
X140945000Y-58495300D01*
X148590000Y-108966000D02*
X148590000Y-107784700D01*
X125705000Y-59854000D02*
X124523700Y-59854000D01*
X103124000Y-100335000D02*
X103124000Y-99103700D01*
X103634200Y-99103700D02*
X103124000Y-99103700D01*
X115541900Y-87196000D02*
X103634200Y-99103700D01*
X115541900Y-80928600D02*
X115541900Y-87196000D01*
X116942500Y-79528000D02*
X115541900Y-80928600D01*
X116942500Y-60513200D02*
X116942500Y-79528000D01*
X118756500Y-58699200D02*
X116942500Y-60513200D01*
X123368900Y-58699200D02*
X118756500Y-58699200D01*
X124523700Y-59854000D02*
X123368900Y-58699200D01*
X140577900Y-112864700D02*
X140945000Y-112864700D01*
X139735100Y-112021900D02*
X140577900Y-112864700D01*
X139735100Y-102810300D02*
X139735100Y-112021900D01*
X143656900Y-98888500D02*
X139735100Y-102810300D01*
X143656900Y-68458000D02*
X143656900Y-98888500D01*
X141314200Y-66115300D02*
X143656900Y-68458000D01*
X140945000Y-66115300D02*
X141314200Y-66115300D01*
X140945000Y-64934000D02*
X140945000Y-66115300D01*
X140945000Y-114046000D02*
X140945000Y-112864700D01*
X125705000Y-111506000D02*
X125705000Y-110324700D01*
X103124000Y-105415000D02*
X103124000Y-106646300D01*
X125705000Y-62394000D02*
X124523700Y-62394000D01*
X122545600Y-97938200D02*
X122676700Y-98069200D01*
X122545600Y-97633100D02*
X122545600Y-97938200D01*
X121976600Y-97064100D02*
X122545600Y-97633100D01*
X121976600Y-96766100D02*
X121976600Y-97064100D01*
X121762100Y-96551600D02*
X121976600Y-96766100D01*
X121762100Y-65023000D02*
X121762100Y-96551600D01*
X120453100Y-63714000D02*
X121762100Y-65023000D01*
X118823400Y-63714000D02*
X120453100Y-63714000D01*
X118025000Y-62915600D02*
X118823400Y-63714000D01*
X118025000Y-61898800D02*
X118025000Y-62915600D01*
X118684200Y-61239600D02*
X118025000Y-61898800D01*
X123369300Y-61239600D02*
X118684200Y-61239600D01*
X124523700Y-62394000D02*
X123369300Y-61239600D01*
X102613800Y-106646300D02*
X103124000Y-106646300D01*
X101854000Y-107406100D02*
X102613800Y-106646300D01*
X101854000Y-111051300D02*
X101854000Y-107406100D01*
X102529100Y-111726400D02*
X101854000Y-111051300D01*
X105454800Y-111726400D02*
X102529100Y-111726400D01*
X106895200Y-110286000D02*
X105454800Y-111726400D01*
X112882800Y-110286000D02*
X106895200Y-110286000D01*
X114098700Y-109070100D02*
X112882800Y-110286000D01*
X114098700Y-107703300D02*
X114098700Y-109070100D01*
X114606900Y-107195100D02*
X114098700Y-107703300D01*
X114606900Y-106139000D02*
X114606900Y-107195100D01*
X122676700Y-98069200D02*
X114606900Y-106139000D01*
X123273900Y-98666500D02*
X122676700Y-98069200D01*
X123680600Y-98666500D02*
X123273900Y-98666500D01*
X124382300Y-99368200D02*
X123680600Y-98666500D01*
X124382300Y-99774900D02*
X124382300Y-99368200D01*
X124436200Y-99828800D02*
X124382300Y-99774900D01*
X124436200Y-100242500D02*
X124436200Y-99828800D01*
X124577500Y-100383800D02*
X124436200Y-100242500D01*
X124577500Y-102470500D02*
X124577500Y-100383800D01*
X124523600Y-102524400D02*
X124577500Y-102470500D01*
X124523600Y-109512500D02*
X124523600Y-102524400D01*
X125335800Y-110324700D02*
X124523600Y-109512500D01*
X125705000Y-110324700D02*
X125335800Y-110324700D01*
X140945000Y-72554000D02*
X140945000Y-73735300D01*
X140945000Y-121666000D02*
X140945000Y-120484700D01*
X140577900Y-120484700D02*
X140945000Y-120484700D01*
X138209900Y-118116700D02*
X140577900Y-120484700D01*
X138209900Y-102063200D02*
X138209900Y-118116700D01*
X142131700Y-98141400D02*
X138209900Y-102063200D01*
X142131700Y-74552800D02*
X142131700Y-98141400D01*
X141314200Y-73735300D02*
X142131700Y-74552800D01*
X140945000Y-73735300D02*
X141314200Y-73735300D01*
X163830000Y-77634000D02*
X163830000Y-78815300D01*
X163830000Y-126746000D02*
X163830000Y-125564700D01*
X164144100Y-78815300D02*
X163830000Y-78815300D01*
X165538700Y-80209900D02*
X164144100Y-78815300D01*
X165538700Y-99824800D02*
X165538700Y-80209900D01*
X162602500Y-102761000D02*
X165538700Y-99824800D01*
X162602500Y-124704300D02*
X162602500Y-102761000D01*
X163462900Y-125564700D02*
X162602500Y-124704300D01*
X163830000Y-125564700D02*
X163462900Y-125564700D01*
X140945000Y-70014000D02*
X140945000Y-71195300D01*
X140945000Y-119126000D02*
X140945000Y-117944700D01*
X140577900Y-117944700D02*
X140945000Y-117944700D01*
X138718300Y-116085100D02*
X140577900Y-117944700D01*
X138718300Y-102279900D02*
X138718300Y-116085100D01*
X142640100Y-98358100D02*
X138718300Y-102279900D01*
X142640100Y-72521200D02*
X142640100Y-98358100D01*
X141314200Y-71195300D02*
X142640100Y-72521200D01*
X140945000Y-71195300D02*
X141314200Y-71195300D01*
X140945000Y-67474000D02*
X140945000Y-68655300D01*
X140945000Y-116586000D02*
X140945000Y-115404700D01*
X140577900Y-115404700D02*
X140945000Y-115404700D01*
X139226700Y-114053500D02*
X140577900Y-115404700D01*
X139226700Y-102493500D02*
X139226700Y-114053500D01*
X143148500Y-98571700D02*
X139226700Y-102493500D01*
X143148500Y-70489600D02*
X143148500Y-98571700D01*
X141314200Y-68655300D02*
X143148500Y-70489600D01*
X140945000Y-68655300D02*
X141314200Y-68655300D01*
X124523700Y-114545300D02*
X122343200Y-116725800D01*
X124523700Y-114046000D02*
X124523700Y-114545300D01*
X125705000Y-114046000D02*
X124523700Y-114046000D01*
X148590000Y-64934000D02*
X148590000Y-66115300D01*
X148590000Y-114046000D02*
X148590000Y-112864700D01*
X148957100Y-112864700D02*
X148590000Y-112864700D01*
X149824600Y-111997200D02*
X148957100Y-112864700D01*
X149824600Y-101178400D02*
X149824600Y-111997200D01*
X146850500Y-98204300D02*
X149824600Y-101178400D01*
X146850500Y-67485600D02*
X146850500Y-98204300D01*
X148220800Y-66115300D02*
X146850500Y-67485600D01*
X148590000Y-66115300D02*
X148220800Y-66115300D01*
X126072100Y-115404700D02*
X125705000Y-115404700D01*
X126915700Y-114561100D02*
X126072100Y-115404700D01*
X126915700Y-100914600D02*
X126915700Y-114561100D01*
X122490100Y-96489000D02*
X126915700Y-100914600D01*
X122490100Y-71501000D02*
X122490100Y-96489000D01*
X125335800Y-68655300D02*
X122490100Y-71501000D01*
X125705000Y-68655300D02*
X125335800Y-68655300D01*
X125705000Y-67474000D02*
X125705000Y-68655300D01*
X125705000Y-116586000D02*
X125705000Y-115404700D01*
X148957100Y-117944700D02*
X148590000Y-117944700D01*
X150848100Y-116053700D02*
X148957100Y-117944700D01*
X150848100Y-73084200D02*
X150848100Y-116053700D01*
X148959200Y-71195300D02*
X150848100Y-73084200D01*
X148590000Y-71195300D02*
X148959200Y-71195300D01*
X148590000Y-70014000D02*
X148590000Y-71195300D01*
X148590000Y-119126000D02*
X148590000Y-117944700D01*
X125705000Y-72554000D02*
X125705000Y-73735300D01*
X125705000Y-121666000D02*
X125705000Y-120484700D01*
X125335800Y-73735300D02*
X125705000Y-73735300D01*
X122998500Y-76072600D02*
X125335800Y-73735300D01*
X122998500Y-95559700D02*
X122998500Y-76072600D01*
X127424100Y-99985300D02*
X122998500Y-95559700D01*
X127424100Y-119132700D02*
X127424100Y-99985300D01*
X126072100Y-120484700D02*
X127424100Y-119132700D01*
X125705000Y-120484700D02*
X126072100Y-120484700D01*
X148590000Y-75094000D02*
X148590000Y-76275300D01*
X148590000Y-124206000D02*
X148590000Y-123024700D01*
X148222900Y-123024700D02*
X148590000Y-123024700D01*
X147403200Y-122205000D02*
X148222900Y-123024700D01*
X147403200Y-116100000D02*
X147403200Y-122205000D01*
X148187200Y-115316000D02*
X147403200Y-116100000D01*
X149013800Y-115316000D02*
X148187200Y-115316000D01*
X150333000Y-113996800D02*
X149013800Y-115316000D01*
X150333000Y-77649100D02*
X150333000Y-113996800D01*
X148959200Y-76275300D02*
X150333000Y-77649100D01*
X148590000Y-76275300D02*
X148959200Y-76275300D01*
X125705000Y-77634000D02*
X125705000Y-78815300D01*
X125705000Y-126746000D02*
X125705000Y-125564700D01*
X125335800Y-78815300D02*
X125705000Y-78815300D01*
X123506900Y-80644200D02*
X125335800Y-78815300D01*
X123506900Y-95349100D02*
X123506900Y-80644200D01*
X127932500Y-99774700D02*
X123506900Y-95349100D01*
X127932500Y-123704300D02*
X127932500Y-99774700D01*
X126072100Y-125564700D02*
X127932500Y-123704300D01*
X125705000Y-125564700D02*
X126072100Y-125564700D01*
X125705000Y-80174000D02*
X125705000Y-81355300D01*
X125705000Y-129286000D02*
X125705000Y-128104700D01*
X125335800Y-81355300D02*
X125705000Y-81355300D01*
X124015300Y-82675800D02*
X125335800Y-81355300D01*
X124015300Y-95138500D02*
X124015300Y-82675800D01*
X128440900Y-99564100D02*
X124015300Y-95138500D01*
X128440900Y-125735900D02*
X128440900Y-99564100D01*
X126072100Y-128104700D02*
X128440900Y-125735900D01*
X125705000Y-128104700D02*
X126072100Y-128104700D01*
X125705000Y-82714000D02*
X125705000Y-83895300D01*
X125705000Y-131826000D02*
X125705000Y-130644700D01*
X125335700Y-83895300D02*
X125705000Y-83895300D01*
X124523700Y-84707300D02*
X125335700Y-83895300D01*
X124523700Y-93650600D02*
X124523700Y-84707300D01*
X128949200Y-98076100D02*
X124523700Y-93650600D01*
X128949200Y-127767600D02*
X128949200Y-98076100D01*
X126072100Y-130644700D02*
X128949200Y-127767600D01*
X125705000Y-130644700D02*
X126072100Y-130644700D01*
X173400100Y-125048100D02*
X172212000Y-123860000D01*
X173400100Y-136055600D02*
X173400100Y-125048100D01*
X172212000Y-137243700D02*
X173400100Y-136055600D01*
X172212000Y-138425000D02*
X172212000Y-137243700D01*
X172212000Y-123173100D02*
X172212000Y-123860000D01*
X172212000Y-123173100D02*
X172212000Y-122678700D01*
X173401800Y-120307600D02*
X172212000Y-121497400D01*
X173401800Y-109303400D02*
X173401800Y-120307600D01*
X172212000Y-108113600D02*
X173401800Y-109303400D01*
X172212000Y-106932300D02*
X172212000Y-108113600D01*
X172212000Y-122678700D02*
X172212000Y-121497400D01*
X121210300Y-136679200D02*
X121210300Y-116636000D01*
X125335800Y-140804700D02*
X121210300Y-136679200D01*
X125705000Y-140804700D02*
X125335800Y-140804700D01*
X125705000Y-141986000D02*
X125705000Y-140804700D01*
X119629000Y-116636000D02*
X121083200Y-116636000D01*
X121083200Y-116636000D02*
X121210300Y-116636000D01*
X121210300Y-116636000D02*
X121210300Y-111556000D01*
X119629000Y-111556000D02*
X121210300Y-111556000D01*
X121210300Y-106476000D02*
X121210300Y-111556000D01*
X119629000Y-106476000D02*
X121210300Y-106476000D01*
X101815300Y-130304800D02*
X101815300Y-130815000D01*
X102613700Y-129506400D02*
X101815300Y-130304800D01*
X103635900Y-129506400D02*
X102613700Y-129506400D01*
X110427700Y-122714600D02*
X103635900Y-129506400D01*
X110427700Y-119176000D02*
X110427700Y-122714600D01*
X112009000Y-119176000D02*
X110427700Y-119176000D01*
X100584000Y-130815000D02*
X101815300Y-130815000D01*
X118245400Y-51478400D02*
X117059000Y-50292000D01*
X133393600Y-51478400D02*
X118245400Y-51478400D01*
X134580000Y-50292000D02*
X133393600Y-51478400D01*
X125705000Y-92874000D02*
X126886300Y-92874000D01*
X134580000Y-97327400D02*
X134580000Y-99314000D01*
X129284300Y-92031700D02*
X134580000Y-97327400D01*
X127728600Y-92031700D02*
X129284300Y-92031700D01*
X126886300Y-92874000D02*
X127728600Y-92031700D01*
X117339800Y-99033200D02*
X117339800Y-81691100D01*
X117059000Y-99314000D02*
X117339800Y-99033200D01*
M02*
