G04 #@! TF.GenerationSoftware,KiCad,Pcbnew,6.0.9*
G04 #@! TF.CreationDate,2022-11-14T08:14:36-08:00*
G04 #@! TF.ProjectId,Protoboard,50726f74-6f62-46f6-9172-642e6b696361,1.0*
G04 #@! TF.SameCoordinates,Original*
G04 #@! TF.FileFunction,Legend,Top*
G04 #@! TF.FilePolarity,Positive*
%FSLAX46Y46*%
G04 Gerber Fmt 4.6, Leading zero omitted, Abs format (unit mm)*
G04 Created by KiCad (PCBNEW 6.0.9) date 2022-11-14 08:14:36*
%MOMM*%
%LPD*%
G01*
G04 APERTURE LIST*
%ADD10C,0.200000*%
%ADD11C,0.300000*%
%ADD12C,0.150000*%
%ADD13C,0.120000*%
%ADD14C,3.200000*%
%ADD15R,1.700000X1.700000*%
%ADD16O,1.700000X1.700000*%
%ADD17C,1.524000*%
G04 APERTURE END LIST*
D10*
X127254000Y-55880000D02*
X155702000Y-55880000D01*
X155702000Y-55880000D02*
X155702000Y-137414000D01*
X155702000Y-137414000D02*
X127254000Y-137414000D01*
X127254000Y-137414000D02*
X127254000Y-55880000D01*
X155702000Y-55880000D02*
X160274000Y-55880000D01*
X160274000Y-55880000D02*
X160274000Y-137414000D01*
X160274000Y-137414000D02*
X155702000Y-137414000D01*
X155702000Y-137414000D02*
X155702000Y-55880000D01*
X122682000Y-55880000D02*
X127254000Y-55880000D01*
X127254000Y-55880000D02*
X127254000Y-137414000D01*
X127254000Y-137414000D02*
X122682000Y-137414000D01*
X122682000Y-137414000D02*
X122682000Y-55880000D01*
X188722000Y-55880000D02*
X193294000Y-55880000D01*
X193294000Y-55880000D02*
X193294000Y-137414000D01*
X193294000Y-137414000D02*
X188722000Y-137414000D01*
X188722000Y-137414000D02*
X188722000Y-55880000D01*
X160274000Y-55880000D02*
X188722000Y-55880000D01*
X188722000Y-55880000D02*
X188722000Y-137414000D01*
X188722000Y-137414000D02*
X160274000Y-137414000D01*
X160274000Y-137414000D02*
X160274000Y-55880000D01*
X108506952Y-136056666D02*
X108983142Y-136056666D01*
X108411714Y-136342380D02*
X108745047Y-135342380D01*
X109078380Y-136342380D01*
X109935523Y-136342380D02*
X109364095Y-136342380D01*
X109649809Y-136342380D02*
X109649809Y-135342380D01*
X109554571Y-135485238D01*
X109459333Y-135580476D01*
X109364095Y-135628095D01*
X108792666Y-62682380D02*
X108459333Y-62206190D01*
X108221238Y-62682380D02*
X108221238Y-61682380D01*
X108602190Y-61682380D01*
X108697428Y-61730000D01*
X108745047Y-61777619D01*
X108792666Y-61872857D01*
X108792666Y-62015714D01*
X108745047Y-62110952D01*
X108697428Y-62158571D01*
X108602190Y-62206190D01*
X108221238Y-62206190D01*
X108983142Y-61400000D02*
X110126000Y-61400000D01*
X109126000Y-61682380D02*
X109364095Y-62682380D01*
X109554571Y-61968095D01*
X109745047Y-62682380D01*
X109983142Y-61682380D01*
X107554571Y-103036666D02*
X108030761Y-103036666D01*
X107459333Y-103322380D02*
X107792666Y-102322380D01*
X108126000Y-103322380D01*
X108983142Y-103322380D02*
X108411714Y-103322380D01*
X108697428Y-103322380D02*
X108697428Y-102322380D01*
X108602190Y-102465238D01*
X108506952Y-102560476D01*
X108411714Y-102608095D01*
X109840285Y-102655714D02*
X109840285Y-103322380D01*
X109602190Y-102274761D02*
X109364095Y-102989047D01*
X109983142Y-102989047D01*
X107554571Y-80176666D02*
X108030761Y-80176666D01*
X107459333Y-80462380D02*
X107792666Y-79462380D01*
X108126000Y-80462380D01*
X108411714Y-79557619D02*
X108459333Y-79510000D01*
X108554571Y-79462380D01*
X108792666Y-79462380D01*
X108887904Y-79510000D01*
X108935523Y-79557619D01*
X108983142Y-79652857D01*
X108983142Y-79748095D01*
X108935523Y-79890952D01*
X108364095Y-80462380D01*
X108983142Y-80462380D01*
X109316476Y-79462380D02*
X109935523Y-79462380D01*
X109602190Y-79843333D01*
X109745047Y-79843333D01*
X109840285Y-79890952D01*
X109887904Y-79938571D01*
X109935523Y-80033809D01*
X109935523Y-80271904D01*
X109887904Y-80367142D01*
X109840285Y-80414761D01*
X109745047Y-80462380D01*
X109459333Y-80462380D01*
X109364095Y-80414761D01*
X109316476Y-80367142D01*
X117244000Y-114994000D02*
X117720190Y-114994000D01*
X117482095Y-116276380D02*
X117482095Y-115276380D01*
X117720190Y-114994000D02*
X118720190Y-114994000D01*
X118529714Y-116276380D02*
X118196380Y-115800190D01*
X117958285Y-116276380D02*
X117958285Y-115276380D01*
X118339238Y-115276380D01*
X118434476Y-115324000D01*
X118482095Y-115371619D01*
X118529714Y-115466857D01*
X118529714Y-115609714D01*
X118482095Y-115704952D01*
X118434476Y-115752571D01*
X118339238Y-115800190D01*
X117958285Y-115800190D01*
X118720190Y-114994000D02*
X119767809Y-114994000D01*
X119624952Y-116371619D02*
X119529714Y-116324000D01*
X119434476Y-116228761D01*
X119291619Y-116085904D01*
X119196380Y-116038285D01*
X119101142Y-116038285D01*
X119148761Y-116276380D02*
X119053523Y-116228761D01*
X118958285Y-116133523D01*
X118910666Y-115943047D01*
X118910666Y-115609714D01*
X118958285Y-115419238D01*
X119053523Y-115324000D01*
X119148761Y-115276380D01*
X119339238Y-115276380D01*
X119434476Y-115324000D01*
X119529714Y-115419238D01*
X119577333Y-115609714D01*
X119577333Y-115943047D01*
X119529714Y-116133523D01*
X119434476Y-116228761D01*
X119339238Y-116276380D01*
X119148761Y-116276380D01*
X119767809Y-114994000D02*
X120720190Y-114994000D01*
X120434476Y-115609714D02*
X120434476Y-116276380D01*
X120196380Y-115228761D02*
X119958285Y-115943047D01*
X120577333Y-115943047D01*
X117751904Y-130310000D02*
X117656666Y-130262380D01*
X117513809Y-130262380D01*
X117370952Y-130310000D01*
X117275714Y-130405238D01*
X117228095Y-130500476D01*
X117180476Y-130690952D01*
X117180476Y-130833809D01*
X117228095Y-131024285D01*
X117275714Y-131119523D01*
X117370952Y-131214761D01*
X117513809Y-131262380D01*
X117609047Y-131262380D01*
X117751904Y-131214761D01*
X117799523Y-131167142D01*
X117799523Y-130833809D01*
X117609047Y-130833809D01*
X118228095Y-131262380D02*
X118228095Y-130262380D01*
X118799523Y-131262380D01*
X118799523Y-130262380D01*
X119275714Y-131262380D02*
X119275714Y-130262380D01*
X119513809Y-130262380D01*
X119656666Y-130310000D01*
X119751904Y-130405238D01*
X119799523Y-130500476D01*
X119847142Y-130690952D01*
X119847142Y-130833809D01*
X119799523Y-131024285D01*
X119751904Y-131119523D01*
X119656666Y-131214761D01*
X119513809Y-131262380D01*
X119275714Y-131262380D01*
X108506952Y-123356666D02*
X108983142Y-123356666D01*
X108411714Y-123642380D02*
X108745047Y-122642380D01*
X109078380Y-123642380D01*
X109840285Y-122642380D02*
X109649809Y-122642380D01*
X109554571Y-122690000D01*
X109506952Y-122737619D01*
X109411714Y-122880476D01*
X109364095Y-123070952D01*
X109364095Y-123451904D01*
X109411714Y-123547142D01*
X109459333Y-123594761D01*
X109554571Y-123642380D01*
X109745047Y-123642380D01*
X109840285Y-123594761D01*
X109887904Y-123547142D01*
X109935523Y-123451904D01*
X109935523Y-123213809D01*
X109887904Y-123118571D01*
X109840285Y-123070952D01*
X109745047Y-123023333D01*
X109554571Y-123023333D01*
X109459333Y-123070952D01*
X109411714Y-123118571D01*
X109364095Y-123213809D01*
X117482095Y-75382380D02*
X117482095Y-74382380D01*
X117720190Y-74382380D01*
X117863047Y-74430000D01*
X117958285Y-74525238D01*
X118005904Y-74620476D01*
X118053523Y-74810952D01*
X118053523Y-74953809D01*
X118005904Y-75144285D01*
X117958285Y-75239523D01*
X117863047Y-75334761D01*
X117720190Y-75382380D01*
X117482095Y-75382380D01*
X118529714Y-75382380D02*
X118720190Y-75382380D01*
X118815428Y-75334761D01*
X118863047Y-75287142D01*
X118958285Y-75144285D01*
X119005904Y-74953809D01*
X119005904Y-74572857D01*
X118958285Y-74477619D01*
X118910666Y-74430000D01*
X118815428Y-74382380D01*
X118624952Y-74382380D01*
X118529714Y-74430000D01*
X118482095Y-74477619D01*
X118434476Y-74572857D01*
X118434476Y-74810952D01*
X118482095Y-74906190D01*
X118529714Y-74953809D01*
X118624952Y-75001428D01*
X118815428Y-75001428D01*
X118910666Y-74953809D01*
X118958285Y-74906190D01*
X119005904Y-74810952D01*
X117482095Y-83002380D02*
X117482095Y-82002380D01*
X117720190Y-82002380D01*
X117863047Y-82050000D01*
X117958285Y-82145238D01*
X118005904Y-82240476D01*
X118053523Y-82430952D01*
X118053523Y-82573809D01*
X118005904Y-82764285D01*
X117958285Y-82859523D01*
X117863047Y-82954761D01*
X117720190Y-83002380D01*
X117482095Y-83002380D01*
X119005904Y-83002380D02*
X118434476Y-83002380D01*
X118720190Y-83002380D02*
X118720190Y-82002380D01*
X118624952Y-82145238D01*
X118529714Y-82240476D01*
X118434476Y-82288095D01*
X119386857Y-82097619D02*
X119434476Y-82050000D01*
X119529714Y-82002380D01*
X119767809Y-82002380D01*
X119863047Y-82050000D01*
X119910666Y-82097619D01*
X119958285Y-82192857D01*
X119958285Y-82288095D01*
X119910666Y-82430952D01*
X119339238Y-83002380D01*
X119958285Y-83002380D01*
X107554571Y-105576666D02*
X108030761Y-105576666D01*
X107459333Y-105862380D02*
X107792666Y-104862380D01*
X108126000Y-105862380D01*
X108983142Y-105862380D02*
X108411714Y-105862380D01*
X108697428Y-105862380D02*
X108697428Y-104862380D01*
X108602190Y-105005238D01*
X108506952Y-105100476D01*
X108411714Y-105148095D01*
X109316476Y-104862380D02*
X109935523Y-104862380D01*
X109602190Y-105243333D01*
X109745047Y-105243333D01*
X109840285Y-105290952D01*
X109887904Y-105338571D01*
X109935523Y-105433809D01*
X109935523Y-105671904D01*
X109887904Y-105767142D01*
X109840285Y-105814761D01*
X109745047Y-105862380D01*
X109459333Y-105862380D01*
X109364095Y-105814761D01*
X109316476Y-105767142D01*
X107554571Y-95416666D02*
X108030761Y-95416666D01*
X107459333Y-95702380D02*
X107792666Y-94702380D01*
X108126000Y-95702380D01*
X108983142Y-95702380D02*
X108411714Y-95702380D01*
X108697428Y-95702380D02*
X108697428Y-94702380D01*
X108602190Y-94845238D01*
X108506952Y-94940476D01*
X108411714Y-94988095D01*
X109316476Y-94702380D02*
X109983142Y-94702380D01*
X109554571Y-95702380D01*
X108506952Y-125896666D02*
X108983142Y-125896666D01*
X108411714Y-126182380D02*
X108745047Y-125182380D01*
X109078380Y-126182380D01*
X109887904Y-125182380D02*
X109411714Y-125182380D01*
X109364095Y-125658571D01*
X109411714Y-125610952D01*
X109506952Y-125563333D01*
X109745047Y-125563333D01*
X109840285Y-125610952D01*
X109887904Y-125658571D01*
X109935523Y-125753809D01*
X109935523Y-125991904D01*
X109887904Y-126087142D01*
X109840285Y-126134761D01*
X109745047Y-126182380D01*
X109506952Y-126182380D01*
X109411714Y-126134761D01*
X109364095Y-126087142D01*
X117482095Y-65222380D02*
X117482095Y-64222380D01*
X117720190Y-64222380D01*
X117863047Y-64270000D01*
X117958285Y-64365238D01*
X118005904Y-64460476D01*
X118053523Y-64650952D01*
X118053523Y-64793809D01*
X118005904Y-64984285D01*
X117958285Y-65079523D01*
X117863047Y-65174761D01*
X117720190Y-65222380D01*
X117482095Y-65222380D01*
X118958285Y-64222380D02*
X118482095Y-64222380D01*
X118434476Y-64698571D01*
X118482095Y-64650952D01*
X118577333Y-64603333D01*
X118815428Y-64603333D01*
X118910666Y-64650952D01*
X118958285Y-64698571D01*
X119005904Y-64793809D01*
X119005904Y-65031904D01*
X118958285Y-65127142D01*
X118910666Y-65174761D01*
X118815428Y-65222380D01*
X118577333Y-65222380D01*
X118482095Y-65174761D01*
X118434476Y-65127142D01*
X108506952Y-133516666D02*
X108983142Y-133516666D01*
X108411714Y-133802380D02*
X108745047Y-132802380D01*
X109078380Y-133802380D01*
X109364095Y-132897619D02*
X109411714Y-132850000D01*
X109506952Y-132802380D01*
X109745047Y-132802380D01*
X109840285Y-132850000D01*
X109887904Y-132897619D01*
X109935523Y-132992857D01*
X109935523Y-133088095D01*
X109887904Y-133230952D01*
X109316476Y-133802380D01*
X109935523Y-133802380D01*
X117244000Y-96960000D02*
X118053523Y-96960000D01*
X117958285Y-98242380D02*
X117482095Y-98242380D01*
X117482095Y-97242380D01*
X118053523Y-96960000D02*
X119053523Y-96960000D01*
X118291619Y-98242380D02*
X118291619Y-97242380D01*
X118529714Y-97242380D01*
X118672571Y-97290000D01*
X118767809Y-97385238D01*
X118815428Y-97480476D01*
X118863047Y-97670952D01*
X118863047Y-97813809D01*
X118815428Y-98004285D01*
X118767809Y-98099523D01*
X118672571Y-98194761D01*
X118529714Y-98242380D01*
X118291619Y-98242380D01*
X119053523Y-96960000D02*
X120005904Y-96960000D01*
X119244000Y-98194761D02*
X119386857Y-98242380D01*
X119624952Y-98242380D01*
X119720190Y-98194761D01*
X119767809Y-98147142D01*
X119815428Y-98051904D01*
X119815428Y-97956666D01*
X119767809Y-97861428D01*
X119720190Y-97813809D01*
X119624952Y-97766190D01*
X119434476Y-97718571D01*
X119339238Y-97670952D01*
X119291619Y-97623333D01*
X119244000Y-97528095D01*
X119244000Y-97432857D01*
X119291619Y-97337619D01*
X119339238Y-97290000D01*
X119434476Y-97242380D01*
X119672571Y-97242380D01*
X119815428Y-97290000D01*
X107554571Y-110656666D02*
X108030761Y-110656666D01*
X107459333Y-110942380D02*
X107792666Y-109942380D01*
X108126000Y-110942380D01*
X108983142Y-110942380D02*
X108411714Y-110942380D01*
X108697428Y-110942380D02*
X108697428Y-109942380D01*
X108602190Y-110085238D01*
X108506952Y-110180476D01*
X108411714Y-110228095D01*
X109935523Y-110942380D02*
X109364095Y-110942380D01*
X109649809Y-110942380D02*
X109649809Y-109942380D01*
X109554571Y-110085238D01*
X109459333Y-110180476D01*
X109364095Y-110228095D01*
X117244000Y-99500000D02*
X117720190Y-99500000D01*
X117482095Y-100782380D02*
X117482095Y-99782380D01*
X117720190Y-99500000D02*
X118720190Y-99500000D01*
X118529714Y-100782380D02*
X118196380Y-100306190D01*
X117958285Y-100782380D02*
X117958285Y-99782380D01*
X118339238Y-99782380D01*
X118434476Y-99830000D01*
X118482095Y-99877619D01*
X118529714Y-99972857D01*
X118529714Y-100115714D01*
X118482095Y-100210952D01*
X118434476Y-100258571D01*
X118339238Y-100306190D01*
X117958285Y-100306190D01*
X118720190Y-99500000D02*
X119767809Y-99500000D01*
X119624952Y-100877619D02*
X119529714Y-100830000D01*
X119434476Y-100734761D01*
X119291619Y-100591904D01*
X119196380Y-100544285D01*
X119101142Y-100544285D01*
X119148761Y-100782380D02*
X119053523Y-100734761D01*
X118958285Y-100639523D01*
X118910666Y-100449047D01*
X118910666Y-100115714D01*
X118958285Y-99925238D01*
X119053523Y-99830000D01*
X119148761Y-99782380D01*
X119339238Y-99782380D01*
X119434476Y-99830000D01*
X119529714Y-99925238D01*
X119577333Y-100115714D01*
X119577333Y-100449047D01*
X119529714Y-100639523D01*
X119434476Y-100734761D01*
X119339238Y-100782380D01*
X119148761Y-100782380D01*
X119767809Y-99500000D02*
X120720190Y-99500000D01*
X120434476Y-99782380D02*
X120244000Y-99782380D01*
X120148761Y-99830000D01*
X120101142Y-99877619D01*
X120005904Y-100020476D01*
X119958285Y-100210952D01*
X119958285Y-100591904D01*
X120005904Y-100687142D01*
X120053523Y-100734761D01*
X120148761Y-100782380D01*
X120339238Y-100782380D01*
X120434476Y-100734761D01*
X120482095Y-100687142D01*
X120529714Y-100591904D01*
X120529714Y-100353809D01*
X120482095Y-100258571D01*
X120434476Y-100210952D01*
X120339238Y-100163333D01*
X120148761Y-100163333D01*
X120053523Y-100210952D01*
X120005904Y-100258571D01*
X119958285Y-100353809D01*
X117482095Y-57602380D02*
X117482095Y-56602380D01*
X117720190Y-56602380D01*
X117863047Y-56650000D01*
X117958285Y-56745238D01*
X118005904Y-56840476D01*
X118053523Y-57030952D01*
X118053523Y-57173809D01*
X118005904Y-57364285D01*
X117958285Y-57459523D01*
X117863047Y-57554761D01*
X117720190Y-57602380D01*
X117482095Y-57602380D01*
X118434476Y-56697619D02*
X118482095Y-56650000D01*
X118577333Y-56602380D01*
X118815428Y-56602380D01*
X118910666Y-56650000D01*
X118958285Y-56697619D01*
X119005904Y-56792857D01*
X119005904Y-56888095D01*
X118958285Y-57030952D01*
X118386857Y-57602380D01*
X119005904Y-57602380D01*
X117244000Y-117534000D02*
X118291619Y-117534000D01*
X117482095Y-118816380D02*
X117482095Y-117816380D01*
X117482095Y-118292571D02*
X118053523Y-118292571D01*
X118053523Y-118816380D02*
X118053523Y-117816380D01*
X118291619Y-117534000D02*
X119148761Y-117534000D01*
X118482095Y-118530666D02*
X118958285Y-118530666D01*
X118386857Y-118816380D02*
X118720190Y-117816380D01*
X119053523Y-118816380D01*
X119148761Y-117534000D02*
X119958285Y-117534000D01*
X119863047Y-118816380D02*
X119386857Y-118816380D01*
X119386857Y-117816380D01*
X119958285Y-117534000D02*
X120720190Y-117534000D01*
X120053523Y-117816380D02*
X120624952Y-117816380D01*
X120339238Y-118816380D02*
X120339238Y-117816380D01*
X117339238Y-135342380D02*
X117672571Y-136342380D01*
X118005904Y-135342380D01*
X118910666Y-136247142D02*
X118863047Y-136294761D01*
X118720190Y-136342380D01*
X118624952Y-136342380D01*
X118482095Y-136294761D01*
X118386857Y-136199523D01*
X118339238Y-136104285D01*
X118291619Y-135913809D01*
X118291619Y-135770952D01*
X118339238Y-135580476D01*
X118386857Y-135485238D01*
X118482095Y-135390000D01*
X118624952Y-135342380D01*
X118720190Y-135342380D01*
X118863047Y-135390000D01*
X118910666Y-135437619D01*
X119910666Y-136247142D02*
X119863047Y-136294761D01*
X119720190Y-136342380D01*
X119624952Y-136342380D01*
X119482095Y-136294761D01*
X119386857Y-136199523D01*
X119339238Y-136104285D01*
X119291619Y-135913809D01*
X119291619Y-135770952D01*
X119339238Y-135580476D01*
X119386857Y-135485238D01*
X119482095Y-135390000D01*
X119624952Y-135342380D01*
X119720190Y-135342380D01*
X119863047Y-135390000D01*
X119910666Y-135437619D01*
X107554571Y-92876666D02*
X108030761Y-92876666D01*
X107459333Y-93162380D02*
X107792666Y-92162380D01*
X108126000Y-93162380D01*
X108983142Y-93162380D02*
X108411714Y-93162380D01*
X108697428Y-93162380D02*
X108697428Y-92162380D01*
X108602190Y-92305238D01*
X108506952Y-92400476D01*
X108411714Y-92448095D01*
X109554571Y-92590952D02*
X109459333Y-92543333D01*
X109411714Y-92495714D01*
X109364095Y-92400476D01*
X109364095Y-92352857D01*
X109411714Y-92257619D01*
X109459333Y-92210000D01*
X109554571Y-92162380D01*
X109745047Y-92162380D01*
X109840285Y-92210000D01*
X109887904Y-92257619D01*
X109935523Y-92352857D01*
X109935523Y-92400476D01*
X109887904Y-92495714D01*
X109840285Y-92543333D01*
X109745047Y-92590952D01*
X109554571Y-92590952D01*
X109459333Y-92638571D01*
X109411714Y-92686190D01*
X109364095Y-92781428D01*
X109364095Y-92971904D01*
X109411714Y-93067142D01*
X109459333Y-93114761D01*
X109554571Y-93162380D01*
X109745047Y-93162380D01*
X109840285Y-93114761D01*
X109887904Y-93067142D01*
X109935523Y-92971904D01*
X109935523Y-92781428D01*
X109887904Y-92686190D01*
X109840285Y-92638571D01*
X109745047Y-92590952D01*
X117244000Y-104580000D02*
X117720190Y-104580000D01*
X117482095Y-105862380D02*
X117482095Y-104862380D01*
X117720190Y-104580000D02*
X118720190Y-104580000D01*
X118529714Y-105862380D02*
X118196380Y-105386190D01*
X117958285Y-105862380D02*
X117958285Y-104862380D01*
X118339238Y-104862380D01*
X118434476Y-104910000D01*
X118482095Y-104957619D01*
X118529714Y-105052857D01*
X118529714Y-105195714D01*
X118482095Y-105290952D01*
X118434476Y-105338571D01*
X118339238Y-105386190D01*
X117958285Y-105386190D01*
X118720190Y-104580000D02*
X119767809Y-104580000D01*
X119624952Y-105957619D02*
X119529714Y-105910000D01*
X119434476Y-105814761D01*
X119291619Y-105671904D01*
X119196380Y-105624285D01*
X119101142Y-105624285D01*
X119148761Y-105862380D02*
X119053523Y-105814761D01*
X118958285Y-105719523D01*
X118910666Y-105529047D01*
X118910666Y-105195714D01*
X118958285Y-105005238D01*
X119053523Y-104910000D01*
X119148761Y-104862380D01*
X119339238Y-104862380D01*
X119434476Y-104910000D01*
X119529714Y-105005238D01*
X119577333Y-105195714D01*
X119577333Y-105529047D01*
X119529714Y-105719523D01*
X119434476Y-105814761D01*
X119339238Y-105862380D01*
X119148761Y-105862380D01*
X119767809Y-104580000D02*
X120720190Y-104580000D01*
X120482095Y-104862380D02*
X120005904Y-104862380D01*
X119958285Y-105338571D01*
X120005904Y-105290952D01*
X120101142Y-105243333D01*
X120339238Y-105243333D01*
X120434476Y-105290952D01*
X120482095Y-105338571D01*
X120529714Y-105433809D01*
X120529714Y-105671904D01*
X120482095Y-105767142D01*
X120434476Y-105814761D01*
X120339238Y-105862380D01*
X120101142Y-105862380D01*
X120005904Y-105814761D01*
X119958285Y-105767142D01*
X107554571Y-108116666D02*
X108030761Y-108116666D01*
X107459333Y-108402380D02*
X107792666Y-107402380D01*
X108126000Y-108402380D01*
X108983142Y-108402380D02*
X108411714Y-108402380D01*
X108697428Y-108402380D02*
X108697428Y-107402380D01*
X108602190Y-107545238D01*
X108506952Y-107640476D01*
X108411714Y-107688095D01*
X109364095Y-107497619D02*
X109411714Y-107450000D01*
X109506952Y-107402380D01*
X109745047Y-107402380D01*
X109840285Y-107450000D01*
X109887904Y-107497619D01*
X109935523Y-107592857D01*
X109935523Y-107688095D01*
X109887904Y-107830952D01*
X109316476Y-108402380D01*
X109935523Y-108402380D01*
X117561428Y-107878571D02*
X117228095Y-107878571D01*
X117228095Y-108402380D02*
X117228095Y-107402380D01*
X117704285Y-107402380D01*
X118656666Y-108307142D02*
X118609047Y-108354761D01*
X118466190Y-108402380D01*
X118370952Y-108402380D01*
X118228095Y-108354761D01*
X118132857Y-108259523D01*
X118085238Y-108164285D01*
X118037619Y-107973809D01*
X118037619Y-107830952D01*
X118085238Y-107640476D01*
X118132857Y-107545238D01*
X118228095Y-107450000D01*
X118370952Y-107402380D01*
X118466190Y-107402380D01*
X118609047Y-107450000D01*
X118656666Y-107497619D01*
X119037619Y-107497619D02*
X119085238Y-107450000D01*
X119180476Y-107402380D01*
X119418571Y-107402380D01*
X119513809Y-107450000D01*
X119561428Y-107497619D01*
X119609047Y-107592857D01*
X119609047Y-107688095D01*
X119561428Y-107830952D01*
X118990000Y-108402380D01*
X119609047Y-108402380D01*
X107554571Y-100496666D02*
X108030761Y-100496666D01*
X107459333Y-100782380D02*
X107792666Y-99782380D01*
X108126000Y-100782380D01*
X108983142Y-100782380D02*
X108411714Y-100782380D01*
X108697428Y-100782380D02*
X108697428Y-99782380D01*
X108602190Y-99925238D01*
X108506952Y-100020476D01*
X108411714Y-100068095D01*
X109887904Y-99782380D02*
X109411714Y-99782380D01*
X109364095Y-100258571D01*
X109411714Y-100210952D01*
X109506952Y-100163333D01*
X109745047Y-100163333D01*
X109840285Y-100210952D01*
X109887904Y-100258571D01*
X109935523Y-100353809D01*
X109935523Y-100591904D01*
X109887904Y-100687142D01*
X109840285Y-100734761D01*
X109745047Y-100782380D01*
X109506952Y-100782380D01*
X109411714Y-100734761D01*
X109364095Y-100687142D01*
X108316476Y-76640000D02*
X109173619Y-76640000D01*
X108506952Y-77636666D02*
X108983142Y-77636666D01*
X108411714Y-77922380D02*
X108745047Y-76922380D01*
X109078380Y-77922380D01*
X109173619Y-76640000D02*
X110126000Y-76640000D01*
X109364095Y-77874761D02*
X109506952Y-77922380D01*
X109745047Y-77922380D01*
X109840285Y-77874761D01*
X109887904Y-77827142D01*
X109935523Y-77731904D01*
X109935523Y-77636666D01*
X109887904Y-77541428D01*
X109840285Y-77493809D01*
X109745047Y-77446190D01*
X109554571Y-77398571D01*
X109459333Y-77350952D01*
X109411714Y-77303333D01*
X109364095Y-77208095D01*
X109364095Y-77112857D01*
X109411714Y-77017619D01*
X109459333Y-76970000D01*
X109554571Y-76922380D01*
X109792666Y-76922380D01*
X109935523Y-76970000D01*
X117561428Y-112958571D02*
X117228095Y-112958571D01*
X117228095Y-113482380D02*
X117228095Y-112482380D01*
X117704285Y-112482380D01*
X118656666Y-113387142D02*
X118609047Y-113434761D01*
X118466190Y-113482380D01*
X118370952Y-113482380D01*
X118228095Y-113434761D01*
X118132857Y-113339523D01*
X118085238Y-113244285D01*
X118037619Y-113053809D01*
X118037619Y-112910952D01*
X118085238Y-112720476D01*
X118132857Y-112625238D01*
X118228095Y-112530000D01*
X118370952Y-112482380D01*
X118466190Y-112482380D01*
X118609047Y-112530000D01*
X118656666Y-112577619D01*
X119275714Y-112482380D02*
X119370952Y-112482380D01*
X119466190Y-112530000D01*
X119513809Y-112577619D01*
X119561428Y-112672857D01*
X119609047Y-112863333D01*
X119609047Y-113101428D01*
X119561428Y-113291904D01*
X119513809Y-113387142D01*
X119466190Y-113434761D01*
X119370952Y-113482380D01*
X119275714Y-113482380D01*
X119180476Y-113434761D01*
X119132857Y-113387142D01*
X119085238Y-113291904D01*
X119037619Y-113101428D01*
X119037619Y-112863333D01*
X119085238Y-112672857D01*
X119132857Y-112577619D01*
X119180476Y-112530000D01*
X119275714Y-112482380D01*
X117482095Y-72842380D02*
X117482095Y-71842380D01*
X117720190Y-71842380D01*
X117863047Y-71890000D01*
X117958285Y-71985238D01*
X118005904Y-72080476D01*
X118053523Y-72270952D01*
X118053523Y-72413809D01*
X118005904Y-72604285D01*
X117958285Y-72699523D01*
X117863047Y-72794761D01*
X117720190Y-72842380D01*
X117482095Y-72842380D01*
X118624952Y-72270952D02*
X118529714Y-72223333D01*
X118482095Y-72175714D01*
X118434476Y-72080476D01*
X118434476Y-72032857D01*
X118482095Y-71937619D01*
X118529714Y-71890000D01*
X118624952Y-71842380D01*
X118815428Y-71842380D01*
X118910666Y-71890000D01*
X118958285Y-71937619D01*
X119005904Y-72032857D01*
X119005904Y-72080476D01*
X118958285Y-72175714D01*
X118910666Y-72223333D01*
X118815428Y-72270952D01*
X118624952Y-72270952D01*
X118529714Y-72318571D01*
X118482095Y-72366190D01*
X118434476Y-72461428D01*
X118434476Y-72651904D01*
X118482095Y-72747142D01*
X118529714Y-72794761D01*
X118624952Y-72842380D01*
X118815428Y-72842380D01*
X118910666Y-72794761D01*
X118958285Y-72747142D01*
X119005904Y-72651904D01*
X119005904Y-72461428D01*
X118958285Y-72366190D01*
X118910666Y-72318571D01*
X118815428Y-72270952D01*
X107554571Y-87542666D02*
X108030761Y-87542666D01*
X107459333Y-87828380D02*
X107792666Y-86828380D01*
X108126000Y-87828380D01*
X108411714Y-86923619D02*
X108459333Y-86876000D01*
X108554571Y-86828380D01*
X108792666Y-86828380D01*
X108887904Y-86876000D01*
X108935523Y-86923619D01*
X108983142Y-87018857D01*
X108983142Y-87114095D01*
X108935523Y-87256952D01*
X108364095Y-87828380D01*
X108983142Y-87828380D01*
X109602190Y-86828380D02*
X109697428Y-86828380D01*
X109792666Y-86876000D01*
X109840285Y-86923619D01*
X109887904Y-87018857D01*
X109935523Y-87209333D01*
X109935523Y-87447428D01*
X109887904Y-87637904D01*
X109840285Y-87733142D01*
X109792666Y-87780761D01*
X109697428Y-87828380D01*
X109602190Y-87828380D01*
X109506952Y-87780761D01*
X109459333Y-87733142D01*
X109411714Y-87637904D01*
X109364095Y-87447428D01*
X109364095Y-87209333D01*
X109411714Y-87018857D01*
X109459333Y-86923619D01*
X109506952Y-86876000D01*
X109602190Y-86828380D01*
X117244000Y-102040000D02*
X117720190Y-102040000D01*
X117482095Y-103322380D02*
X117482095Y-102322380D01*
X117720190Y-102040000D02*
X118720190Y-102040000D01*
X118529714Y-103322380D02*
X118196380Y-102846190D01*
X117958285Y-103322380D02*
X117958285Y-102322380D01*
X118339238Y-102322380D01*
X118434476Y-102370000D01*
X118482095Y-102417619D01*
X118529714Y-102512857D01*
X118529714Y-102655714D01*
X118482095Y-102750952D01*
X118434476Y-102798571D01*
X118339238Y-102846190D01*
X117958285Y-102846190D01*
X118720190Y-102040000D02*
X119767809Y-102040000D01*
X119624952Y-103417619D02*
X119529714Y-103370000D01*
X119434476Y-103274761D01*
X119291619Y-103131904D01*
X119196380Y-103084285D01*
X119101142Y-103084285D01*
X119148761Y-103322380D02*
X119053523Y-103274761D01*
X118958285Y-103179523D01*
X118910666Y-102989047D01*
X118910666Y-102655714D01*
X118958285Y-102465238D01*
X119053523Y-102370000D01*
X119148761Y-102322380D01*
X119339238Y-102322380D01*
X119434476Y-102370000D01*
X119529714Y-102465238D01*
X119577333Y-102655714D01*
X119577333Y-102989047D01*
X119529714Y-103179523D01*
X119434476Y-103274761D01*
X119339238Y-103322380D01*
X119148761Y-103322380D01*
X119767809Y-102040000D02*
X120720190Y-102040000D01*
X119958285Y-102417619D02*
X120005904Y-102370000D01*
X120101142Y-102322380D01*
X120339238Y-102322380D01*
X120434476Y-102370000D01*
X120482095Y-102417619D01*
X120529714Y-102512857D01*
X120529714Y-102608095D01*
X120482095Y-102750952D01*
X119910666Y-103322380D01*
X120529714Y-103322380D01*
X117561428Y-110418571D02*
X117228095Y-110418571D01*
X117228095Y-110942380D02*
X117228095Y-109942380D01*
X117704285Y-109942380D01*
X118656666Y-110847142D02*
X118609047Y-110894761D01*
X118466190Y-110942380D01*
X118370952Y-110942380D01*
X118228095Y-110894761D01*
X118132857Y-110799523D01*
X118085238Y-110704285D01*
X118037619Y-110513809D01*
X118037619Y-110370952D01*
X118085238Y-110180476D01*
X118132857Y-110085238D01*
X118228095Y-109990000D01*
X118370952Y-109942380D01*
X118466190Y-109942380D01*
X118609047Y-109990000D01*
X118656666Y-110037619D01*
X119609047Y-110942380D02*
X119037619Y-110942380D01*
X119323333Y-110942380D02*
X119323333Y-109942380D01*
X119228095Y-110085238D01*
X119132857Y-110180476D01*
X119037619Y-110228095D01*
X117244000Y-91880000D02*
X118244000Y-91880000D01*
X118053523Y-93162380D02*
X117720190Y-92686190D01*
X117482095Y-93162380D02*
X117482095Y-92162380D01*
X117863047Y-92162380D01*
X117958285Y-92210000D01*
X118005904Y-92257619D01*
X118053523Y-92352857D01*
X118053523Y-92495714D01*
X118005904Y-92590952D01*
X117958285Y-92638571D01*
X117863047Y-92686190D01*
X117482095Y-92686190D01*
X118244000Y-91880000D02*
X119148761Y-91880000D01*
X118482095Y-92638571D02*
X118815428Y-92638571D01*
X118958285Y-93162380D02*
X118482095Y-93162380D01*
X118482095Y-92162380D01*
X118958285Y-92162380D01*
X119148761Y-91880000D02*
X120101142Y-91880000D01*
X119339238Y-93114761D02*
X119482095Y-93162380D01*
X119720190Y-93162380D01*
X119815428Y-93114761D01*
X119863047Y-93067142D01*
X119910666Y-92971904D01*
X119910666Y-92876666D01*
X119863047Y-92781428D01*
X119815428Y-92733809D01*
X119720190Y-92686190D01*
X119529714Y-92638571D01*
X119434476Y-92590952D01*
X119386857Y-92543333D01*
X119339238Y-92448095D01*
X119339238Y-92352857D01*
X119386857Y-92257619D01*
X119434476Y-92210000D01*
X119529714Y-92162380D01*
X119767809Y-92162380D01*
X119910666Y-92210000D01*
X120101142Y-91880000D02*
X121005904Y-91880000D01*
X120339238Y-92638571D02*
X120672571Y-92638571D01*
X120815428Y-93162380D02*
X120339238Y-93162380D01*
X120339238Y-92162380D01*
X120815428Y-92162380D01*
X121005904Y-91880000D02*
X121767809Y-91880000D01*
X121101142Y-92162380D02*
X121672571Y-92162380D01*
X121386857Y-93162380D02*
X121386857Y-92162380D01*
X108126000Y-71560000D02*
X109126000Y-71560000D01*
X108697428Y-72318571D02*
X108840285Y-72366190D01*
X108887904Y-72413809D01*
X108935523Y-72509047D01*
X108935523Y-72651904D01*
X108887904Y-72747142D01*
X108840285Y-72794761D01*
X108745047Y-72842380D01*
X108364095Y-72842380D01*
X108364095Y-71842380D01*
X108697428Y-71842380D01*
X108792666Y-71890000D01*
X108840285Y-71937619D01*
X108887904Y-72032857D01*
X108887904Y-72128095D01*
X108840285Y-72223333D01*
X108792666Y-72270952D01*
X108697428Y-72318571D01*
X108364095Y-72318571D01*
X109126000Y-71560000D02*
X110126000Y-71560000D01*
X109887904Y-71890000D02*
X109792666Y-71842380D01*
X109649809Y-71842380D01*
X109506952Y-71890000D01*
X109411714Y-71985238D01*
X109364095Y-72080476D01*
X109316476Y-72270952D01*
X109316476Y-72413809D01*
X109364095Y-72604285D01*
X109411714Y-72699523D01*
X109506952Y-72794761D01*
X109649809Y-72842380D01*
X109745047Y-72842380D01*
X109887904Y-72794761D01*
X109935523Y-72747142D01*
X109935523Y-72413809D01*
X109745047Y-72413809D01*
X117482095Y-67762380D02*
X117482095Y-66762380D01*
X117720190Y-66762380D01*
X117863047Y-66810000D01*
X117958285Y-66905238D01*
X118005904Y-67000476D01*
X118053523Y-67190952D01*
X118053523Y-67333809D01*
X118005904Y-67524285D01*
X117958285Y-67619523D01*
X117863047Y-67714761D01*
X117720190Y-67762380D01*
X117482095Y-67762380D01*
X118910666Y-66762380D02*
X118720190Y-66762380D01*
X118624952Y-66810000D01*
X118577333Y-66857619D01*
X118482095Y-67000476D01*
X118434476Y-67190952D01*
X118434476Y-67571904D01*
X118482095Y-67667142D01*
X118529714Y-67714761D01*
X118624952Y-67762380D01*
X118815428Y-67762380D01*
X118910666Y-67714761D01*
X118958285Y-67667142D01*
X119005904Y-67571904D01*
X119005904Y-67333809D01*
X118958285Y-67238571D01*
X118910666Y-67190952D01*
X118815428Y-67143333D01*
X118624952Y-67143333D01*
X118529714Y-67190952D01*
X118482095Y-67238571D01*
X118434476Y-67333809D01*
X107554571Y-85256666D02*
X108030761Y-85256666D01*
X107459333Y-85542380D02*
X107792666Y-84542380D01*
X108126000Y-85542380D01*
X108411714Y-84637619D02*
X108459333Y-84590000D01*
X108554571Y-84542380D01*
X108792666Y-84542380D01*
X108887904Y-84590000D01*
X108935523Y-84637619D01*
X108983142Y-84732857D01*
X108983142Y-84828095D01*
X108935523Y-84970952D01*
X108364095Y-85542380D01*
X108983142Y-85542380D01*
X109935523Y-85542380D02*
X109364095Y-85542380D01*
X109649809Y-85542380D02*
X109649809Y-84542380D01*
X109554571Y-84685238D01*
X109459333Y-84780476D01*
X109364095Y-84828095D01*
X117482095Y-77922380D02*
X117482095Y-76922380D01*
X117720190Y-76922380D01*
X117863047Y-76970000D01*
X117958285Y-77065238D01*
X118005904Y-77160476D01*
X118053523Y-77350952D01*
X118053523Y-77493809D01*
X118005904Y-77684285D01*
X117958285Y-77779523D01*
X117863047Y-77874761D01*
X117720190Y-77922380D01*
X117482095Y-77922380D01*
X119005904Y-77922380D02*
X118434476Y-77922380D01*
X118720190Y-77922380D02*
X118720190Y-76922380D01*
X118624952Y-77065238D01*
X118529714Y-77160476D01*
X118434476Y-77208095D01*
X119624952Y-76922380D02*
X119720190Y-76922380D01*
X119815428Y-76970000D01*
X119863047Y-77017619D01*
X119910666Y-77112857D01*
X119958285Y-77303333D01*
X119958285Y-77541428D01*
X119910666Y-77731904D01*
X119863047Y-77827142D01*
X119815428Y-77874761D01*
X119720190Y-77922380D01*
X119624952Y-77922380D01*
X119529714Y-77874761D01*
X119482095Y-77827142D01*
X119434476Y-77731904D01*
X119386857Y-77541428D01*
X119386857Y-77303333D01*
X119434476Y-77112857D01*
X119482095Y-77017619D01*
X119529714Y-76970000D01*
X119624952Y-76922380D01*
X117244000Y-94420000D02*
X118291619Y-94420000D01*
X117482095Y-94702380D02*
X117482095Y-95511904D01*
X117529714Y-95607142D01*
X117577333Y-95654761D01*
X117672571Y-95702380D01*
X117863047Y-95702380D01*
X117958285Y-95654761D01*
X118005904Y-95607142D01*
X118053523Y-95511904D01*
X118053523Y-94702380D01*
X118291619Y-94420000D02*
X119291619Y-94420000D01*
X118529714Y-95702380D02*
X118529714Y-94702380D01*
X118767809Y-94702380D01*
X118910666Y-94750000D01*
X119005904Y-94845238D01*
X119053523Y-94940476D01*
X119101142Y-95130952D01*
X119101142Y-95273809D01*
X119053523Y-95464285D01*
X119005904Y-95559523D01*
X118910666Y-95654761D01*
X118767809Y-95702380D01*
X118529714Y-95702380D01*
X119291619Y-94420000D02*
X120244000Y-94420000D01*
X119482095Y-95654761D02*
X119624952Y-95702380D01*
X119863047Y-95702380D01*
X119958285Y-95654761D01*
X120005904Y-95607142D01*
X120053523Y-95511904D01*
X120053523Y-95416666D01*
X120005904Y-95321428D01*
X119958285Y-95273809D01*
X119863047Y-95226190D01*
X119672571Y-95178571D01*
X119577333Y-95130952D01*
X119529714Y-95083333D01*
X119482095Y-94988095D01*
X119482095Y-94892857D01*
X119529714Y-94797619D01*
X119577333Y-94750000D01*
X119672571Y-94702380D01*
X119910666Y-94702380D01*
X120053523Y-94750000D01*
X108506952Y-118276666D02*
X108983142Y-118276666D01*
X108411714Y-118562380D02*
X108745047Y-117562380D01*
X109078380Y-118562380D01*
X109554571Y-117990952D02*
X109459333Y-117943333D01*
X109411714Y-117895714D01*
X109364095Y-117800476D01*
X109364095Y-117752857D01*
X109411714Y-117657619D01*
X109459333Y-117610000D01*
X109554571Y-117562380D01*
X109745047Y-117562380D01*
X109840285Y-117610000D01*
X109887904Y-117657619D01*
X109935523Y-117752857D01*
X109935523Y-117800476D01*
X109887904Y-117895714D01*
X109840285Y-117943333D01*
X109745047Y-117990952D01*
X109554571Y-117990952D01*
X109459333Y-118038571D01*
X109411714Y-118086190D01*
X109364095Y-118181428D01*
X109364095Y-118371904D01*
X109411714Y-118467142D01*
X109459333Y-118514761D01*
X109554571Y-118562380D01*
X109745047Y-118562380D01*
X109840285Y-118514761D01*
X109887904Y-118467142D01*
X109935523Y-118371904D01*
X109935523Y-118181428D01*
X109887904Y-118086190D01*
X109840285Y-118038571D01*
X109745047Y-117990952D01*
X117482095Y-60142380D02*
X117482095Y-59142380D01*
X117720190Y-59142380D01*
X117863047Y-59190000D01*
X117958285Y-59285238D01*
X118005904Y-59380476D01*
X118053523Y-59570952D01*
X118053523Y-59713809D01*
X118005904Y-59904285D01*
X117958285Y-59999523D01*
X117863047Y-60094761D01*
X117720190Y-60142380D01*
X117482095Y-60142380D01*
X118386857Y-59142380D02*
X119005904Y-59142380D01*
X118672571Y-59523333D01*
X118815428Y-59523333D01*
X118910666Y-59570952D01*
X118958285Y-59618571D01*
X119005904Y-59713809D01*
X119005904Y-59951904D01*
X118958285Y-60047142D01*
X118910666Y-60094761D01*
X118815428Y-60142380D01*
X118529714Y-60142380D01*
X118434476Y-60094761D01*
X118386857Y-60047142D01*
X117482095Y-80462380D02*
X117482095Y-79462380D01*
X117720190Y-79462380D01*
X117863047Y-79510000D01*
X117958285Y-79605238D01*
X118005904Y-79700476D01*
X118053523Y-79890952D01*
X118053523Y-80033809D01*
X118005904Y-80224285D01*
X117958285Y-80319523D01*
X117863047Y-80414761D01*
X117720190Y-80462380D01*
X117482095Y-80462380D01*
X119005904Y-80462380D02*
X118434476Y-80462380D01*
X118720190Y-80462380D02*
X118720190Y-79462380D01*
X118624952Y-79605238D01*
X118529714Y-79700476D01*
X118434476Y-79748095D01*
X119958285Y-80462380D02*
X119386857Y-80462380D01*
X119672571Y-80462380D02*
X119672571Y-79462380D01*
X119577333Y-79605238D01*
X119482095Y-79700476D01*
X119386857Y-79748095D01*
X117244000Y-125154000D02*
X117720190Y-125154000D01*
X117482095Y-126436380D02*
X117482095Y-125436380D01*
X117720190Y-125154000D02*
X118577333Y-125154000D01*
X117910666Y-126150666D02*
X118386857Y-126150666D01*
X117815428Y-126436380D02*
X118148761Y-125436380D01*
X118482095Y-126436380D01*
X118577333Y-125154000D02*
X119577333Y-125154000D01*
X119386857Y-126341142D02*
X119339238Y-126388761D01*
X119196380Y-126436380D01*
X119101142Y-126436380D01*
X118958285Y-126388761D01*
X118863047Y-126293523D01*
X118815428Y-126198285D01*
X118767809Y-126007809D01*
X118767809Y-125864952D01*
X118815428Y-125674476D01*
X118863047Y-125579238D01*
X118958285Y-125484000D01*
X119101142Y-125436380D01*
X119196380Y-125436380D01*
X119339238Y-125484000D01*
X119386857Y-125531619D01*
X119577333Y-125154000D02*
X120577333Y-125154000D01*
X119815428Y-126436380D02*
X119815428Y-125436380D01*
X120386857Y-126436380D02*
X119958285Y-125864952D01*
X120386857Y-125436380D02*
X119815428Y-126007809D01*
X117482095Y-88336380D02*
X117482095Y-87336380D01*
X117720190Y-87336380D01*
X117863047Y-87384000D01*
X117958285Y-87479238D01*
X118005904Y-87574476D01*
X118053523Y-87764952D01*
X118053523Y-87907809D01*
X118005904Y-88098285D01*
X117958285Y-88193523D01*
X117863047Y-88288761D01*
X117720190Y-88336380D01*
X117482095Y-88336380D01*
X119005904Y-88336380D02*
X118434476Y-88336380D01*
X118720190Y-88336380D02*
X118720190Y-87336380D01*
X118624952Y-87479238D01*
X118529714Y-87574476D01*
X118434476Y-87622095D01*
X119863047Y-87669714D02*
X119863047Y-88336380D01*
X119624952Y-87288761D02*
X119386857Y-88003047D01*
X120005904Y-88003047D01*
X108506952Y-128436666D02*
X108983142Y-128436666D01*
X108411714Y-128722380D02*
X108745047Y-127722380D01*
X109078380Y-128722380D01*
X109840285Y-128055714D02*
X109840285Y-128722380D01*
X109602190Y-127674761D02*
X109364095Y-128389047D01*
X109983142Y-128389047D01*
X117482095Y-128722380D02*
X117482095Y-127722380D01*
X118053523Y-128722380D01*
X118053523Y-127722380D01*
X119101142Y-128627142D02*
X119053523Y-128674761D01*
X118910666Y-128722380D01*
X118815428Y-128722380D01*
X118672571Y-128674761D01*
X118577333Y-128579523D01*
X118529714Y-128484285D01*
X118482095Y-128293809D01*
X118482095Y-128150952D01*
X118529714Y-127960476D01*
X118577333Y-127865238D01*
X118672571Y-127770000D01*
X118815428Y-127722380D01*
X118910666Y-127722380D01*
X119053523Y-127770000D01*
X119101142Y-127817619D01*
X108665714Y-57602380D02*
X108665714Y-56602380D01*
X108903809Y-56602380D01*
X109046666Y-56650000D01*
X109141904Y-56745238D01*
X109189523Y-56840476D01*
X109237142Y-57030952D01*
X109237142Y-57173809D01*
X109189523Y-57364285D01*
X109141904Y-57459523D01*
X109046666Y-57554761D01*
X108903809Y-57602380D01*
X108665714Y-57602380D01*
X110189523Y-57602380D02*
X109618095Y-57602380D01*
X109903809Y-57602380D02*
X109903809Y-56602380D01*
X109808571Y-56745238D01*
X109713333Y-56840476D01*
X109618095Y-56888095D01*
X105506952Y-64194000D02*
X106506952Y-64194000D01*
X105745047Y-65476380D02*
X105745047Y-64476380D01*
X105983142Y-64476380D01*
X106126000Y-64524000D01*
X106221238Y-64619238D01*
X106268857Y-64714476D01*
X106316476Y-64904952D01*
X106316476Y-65047809D01*
X106268857Y-65238285D01*
X106221238Y-65333523D01*
X106126000Y-65428761D01*
X105983142Y-65476380D01*
X105745047Y-65476380D01*
X106506952Y-64194000D02*
X107268857Y-64194000D01*
X106602190Y-64476380D02*
X107173619Y-64476380D01*
X106887904Y-65476380D02*
X106887904Y-64476380D01*
X107268857Y-64194000D02*
X108126000Y-64194000D01*
X107459333Y-65190666D02*
X107935523Y-65190666D01*
X107364095Y-65476380D02*
X107697428Y-64476380D01*
X108030761Y-65476380D01*
X108126000Y-64194000D02*
X109126000Y-64194000D01*
X108935523Y-65381142D02*
X108887904Y-65428761D01*
X108745047Y-65476380D01*
X108649809Y-65476380D01*
X108506952Y-65428761D01*
X108411714Y-65333523D01*
X108364095Y-65238285D01*
X108316476Y-65047809D01*
X108316476Y-64904952D01*
X108364095Y-64714476D01*
X108411714Y-64619238D01*
X108506952Y-64524000D01*
X108649809Y-64476380D01*
X108745047Y-64476380D01*
X108887904Y-64524000D01*
X108935523Y-64571619D01*
X109126000Y-64194000D02*
X110126000Y-64194000D01*
X109364095Y-65476380D02*
X109364095Y-64476380D01*
X109935523Y-65476380D02*
X109506952Y-64904952D01*
X109935523Y-64476380D02*
X109364095Y-65047809D01*
D11*
X123939142Y-51252285D02*
X124367714Y-51395142D01*
X125082000Y-51395142D01*
X125367714Y-51252285D01*
X125510571Y-51109428D01*
X125653428Y-50823714D01*
X125653428Y-50538000D01*
X125510571Y-50252285D01*
X125367714Y-50109428D01*
X125082000Y-49966571D01*
X124510571Y-49823714D01*
X124224857Y-49680857D01*
X124082000Y-49538000D01*
X123939142Y-49252285D01*
X123939142Y-48966571D01*
X124082000Y-48680857D01*
X124224857Y-48538000D01*
X124510571Y-48395142D01*
X125224857Y-48395142D01*
X125653428Y-48538000D01*
X126510571Y-49395142D02*
X127653428Y-49395142D01*
X126939142Y-48395142D02*
X126939142Y-50966571D01*
X127082000Y-51252285D01*
X127367714Y-51395142D01*
X127653428Y-51395142D01*
X129796285Y-51252285D02*
X129510571Y-51395142D01*
X128939142Y-51395142D01*
X128653428Y-51252285D01*
X128510571Y-50966571D01*
X128510571Y-49823714D01*
X128653428Y-49538000D01*
X128939142Y-49395142D01*
X129510571Y-49395142D01*
X129796285Y-49538000D01*
X129939142Y-49823714D01*
X129939142Y-50109428D01*
X128510571Y-50395142D01*
X130939142Y-49395142D02*
X131653428Y-51395142D01*
X132367714Y-49395142D01*
X134653428Y-51252285D02*
X134367714Y-51395142D01*
X133796285Y-51395142D01*
X133510571Y-51252285D01*
X133367714Y-50966571D01*
X133367714Y-49823714D01*
X133510571Y-49538000D01*
X133796285Y-49395142D01*
X134367714Y-49395142D01*
X134653428Y-49538000D01*
X134796285Y-49823714D01*
X134796285Y-50109428D01*
X133367714Y-50395142D01*
X139653428Y-48395142D02*
X139082000Y-48395142D01*
X138796285Y-48538000D01*
X138653428Y-48680857D01*
X138367714Y-49109428D01*
X138224857Y-49680857D01*
X138224857Y-50823714D01*
X138367714Y-51109428D01*
X138510571Y-51252285D01*
X138796285Y-51395142D01*
X139367714Y-51395142D01*
X139653428Y-51252285D01*
X139796285Y-51109428D01*
X139939142Y-50823714D01*
X139939142Y-50109428D01*
X139796285Y-49823714D01*
X139653428Y-49680857D01*
X139367714Y-49538000D01*
X138796285Y-49538000D01*
X138510571Y-49680857D01*
X138367714Y-49823714D01*
X138224857Y-50109428D01*
X141653428Y-49680857D02*
X141367714Y-49538000D01*
X141224857Y-49395142D01*
X141082000Y-49109428D01*
X141082000Y-48966571D01*
X141224857Y-48680857D01*
X141367714Y-48538000D01*
X141653428Y-48395142D01*
X142224857Y-48395142D01*
X142510571Y-48538000D01*
X142653428Y-48680857D01*
X142796285Y-48966571D01*
X142796285Y-49109428D01*
X142653428Y-49395142D01*
X142510571Y-49538000D01*
X142224857Y-49680857D01*
X141653428Y-49680857D01*
X141367714Y-49823714D01*
X141224857Y-49966571D01*
X141082000Y-50252285D01*
X141082000Y-50823714D01*
X141224857Y-51109428D01*
X141367714Y-51252285D01*
X141653428Y-51395142D01*
X142224857Y-51395142D01*
X142510571Y-51252285D01*
X142653428Y-51109428D01*
X142796285Y-50823714D01*
X142796285Y-50252285D01*
X142653428Y-49966571D01*
X142510571Y-49823714D01*
X142224857Y-49680857D01*
X144082000Y-51395142D02*
X144082000Y-48395142D01*
X144367714Y-50252285D02*
X145224857Y-51395142D01*
X145224857Y-49395142D02*
X144082000Y-50538000D01*
X148796285Y-51395142D02*
X148796285Y-48395142D01*
X149939142Y-48395142D01*
X150224857Y-48538000D01*
X150367714Y-48680857D01*
X150510571Y-48966571D01*
X150510571Y-49395142D01*
X150367714Y-49680857D01*
X150224857Y-49823714D01*
X149939142Y-49966571D01*
X148796285Y-49966571D01*
X151796285Y-51395142D02*
X151796285Y-49395142D01*
X151796285Y-49966571D02*
X151939142Y-49680857D01*
X152082000Y-49538000D01*
X152367714Y-49395142D01*
X152653428Y-49395142D01*
X154082000Y-51395142D02*
X153796285Y-51252285D01*
X153653428Y-51109428D01*
X153510571Y-50823714D01*
X153510571Y-49966571D01*
X153653428Y-49680857D01*
X153796285Y-49538000D01*
X154082000Y-49395142D01*
X154510571Y-49395142D01*
X154796285Y-49538000D01*
X154939142Y-49680857D01*
X155082000Y-49966571D01*
X155082000Y-50823714D01*
X154939142Y-51109428D01*
X154796285Y-51252285D01*
X154510571Y-51395142D01*
X154082000Y-51395142D01*
X155939142Y-49395142D02*
X157082000Y-49395142D01*
X156367714Y-48395142D02*
X156367714Y-50966571D01*
X156510571Y-51252285D01*
X156796285Y-51395142D01*
X157082000Y-51395142D01*
X158510571Y-51395142D02*
X158224857Y-51252285D01*
X158082000Y-51109428D01*
X157939142Y-50823714D01*
X157939142Y-49966571D01*
X158082000Y-49680857D01*
X158224857Y-49538000D01*
X158510571Y-49395142D01*
X158939142Y-49395142D01*
X159224857Y-49538000D01*
X159367714Y-49680857D01*
X159510571Y-49966571D01*
X159510571Y-50823714D01*
X159367714Y-51109428D01*
X159224857Y-51252285D01*
X158939142Y-51395142D01*
X158510571Y-51395142D01*
X160796285Y-51395142D02*
X160796285Y-48395142D01*
X160796285Y-49538000D02*
X161082000Y-49395142D01*
X161653428Y-49395142D01*
X161939142Y-49538000D01*
X162082000Y-49680857D01*
X162224857Y-49966571D01*
X162224857Y-50823714D01*
X162082000Y-51109428D01*
X161939142Y-51252285D01*
X161653428Y-51395142D01*
X161082000Y-51395142D01*
X160796285Y-51252285D01*
X163939142Y-51395142D02*
X163653428Y-51252285D01*
X163510571Y-51109428D01*
X163367714Y-50823714D01*
X163367714Y-49966571D01*
X163510571Y-49680857D01*
X163653428Y-49538000D01*
X163939142Y-49395142D01*
X164367714Y-49395142D01*
X164653428Y-49538000D01*
X164796285Y-49680857D01*
X164939142Y-49966571D01*
X164939142Y-50823714D01*
X164796285Y-51109428D01*
X164653428Y-51252285D01*
X164367714Y-51395142D01*
X163939142Y-51395142D01*
X167510571Y-51395142D02*
X167510571Y-49823714D01*
X167367714Y-49538000D01*
X167082000Y-49395142D01*
X166510571Y-49395142D01*
X166224857Y-49538000D01*
X167510571Y-51252285D02*
X167224857Y-51395142D01*
X166510571Y-51395142D01*
X166224857Y-51252285D01*
X166082000Y-50966571D01*
X166082000Y-50680857D01*
X166224857Y-50395142D01*
X166510571Y-50252285D01*
X167224857Y-50252285D01*
X167510571Y-50109428D01*
X168939142Y-51395142D02*
X168939142Y-49395142D01*
X168939142Y-49966571D02*
X169082000Y-49680857D01*
X169224857Y-49538000D01*
X169510571Y-49395142D01*
X169796285Y-49395142D01*
X172082000Y-51395142D02*
X172082000Y-48395142D01*
X172082000Y-51252285D02*
X171796285Y-51395142D01*
X171224857Y-51395142D01*
X170939142Y-51252285D01*
X170796285Y-51109428D01*
X170653428Y-50823714D01*
X170653428Y-49966571D01*
X170796285Y-49680857D01*
X170939142Y-49538000D01*
X171224857Y-49395142D01*
X171796285Y-49395142D01*
X172082000Y-49538000D01*
D10*
X117244000Y-122614000D02*
X117720190Y-122614000D01*
X117482095Y-123896380D02*
X117482095Y-122896380D01*
X117720190Y-122614000D02*
X118767809Y-122614000D01*
X118148761Y-122896380D02*
X118339238Y-122896380D01*
X118434476Y-122944000D01*
X118529714Y-123039238D01*
X118577333Y-123229714D01*
X118577333Y-123563047D01*
X118529714Y-123753523D01*
X118434476Y-123848761D01*
X118339238Y-123896380D01*
X118148761Y-123896380D01*
X118053523Y-123848761D01*
X117958285Y-123753523D01*
X117910666Y-123563047D01*
X117910666Y-123229714D01*
X117958285Y-123039238D01*
X118053523Y-122944000D01*
X118148761Y-122896380D01*
X118767809Y-122614000D02*
X119720190Y-122614000D01*
X118958285Y-123848761D02*
X119101142Y-123896380D01*
X119339238Y-123896380D01*
X119434476Y-123848761D01*
X119482095Y-123801142D01*
X119529714Y-123705904D01*
X119529714Y-123610666D01*
X119482095Y-123515428D01*
X119434476Y-123467809D01*
X119339238Y-123420190D01*
X119148761Y-123372571D01*
X119053523Y-123324952D01*
X119005904Y-123277333D01*
X118958285Y-123182095D01*
X118958285Y-123086857D01*
X119005904Y-122991619D01*
X119053523Y-122944000D01*
X119148761Y-122896380D01*
X119386857Y-122896380D01*
X119529714Y-122944000D01*
X119720190Y-122614000D02*
X120624952Y-122614000D01*
X119958285Y-123372571D02*
X120291619Y-123372571D01*
X120434476Y-123896380D02*
X119958285Y-123896380D01*
X119958285Y-122896380D01*
X120434476Y-122896380D01*
X120624952Y-122614000D02*
X121434476Y-122614000D01*
X121339238Y-123896380D02*
X120863047Y-123896380D01*
X120863047Y-122896380D01*
X108506952Y-120816666D02*
X108983142Y-120816666D01*
X108411714Y-121102380D02*
X108745047Y-120102380D01*
X109078380Y-121102380D01*
X109316476Y-120102380D02*
X109983142Y-120102380D01*
X109554571Y-121102380D01*
X108506952Y-115736666D02*
X108983142Y-115736666D01*
X108411714Y-116022380D02*
X108745047Y-115022380D01*
X109078380Y-116022380D01*
X109459333Y-116022380D02*
X109649809Y-116022380D01*
X109745047Y-115974761D01*
X109792666Y-115927142D01*
X109887904Y-115784285D01*
X109935523Y-115593809D01*
X109935523Y-115212857D01*
X109887904Y-115117619D01*
X109840285Y-115070000D01*
X109745047Y-115022380D01*
X109554571Y-115022380D01*
X109459333Y-115070000D01*
X109411714Y-115117619D01*
X109364095Y-115212857D01*
X109364095Y-115450952D01*
X109411714Y-115546190D01*
X109459333Y-115593809D01*
X109554571Y-115641428D01*
X109745047Y-115641428D01*
X109840285Y-115593809D01*
X109887904Y-115546190D01*
X109935523Y-115450952D01*
X117244000Y-120074000D02*
X117720190Y-120074000D01*
X117482095Y-121356380D02*
X117482095Y-120356380D01*
X117720190Y-120074000D02*
X118720190Y-120074000D01*
X118529714Y-121356380D02*
X118196380Y-120880190D01*
X117958285Y-121356380D02*
X117958285Y-120356380D01*
X118339238Y-120356380D01*
X118434476Y-120404000D01*
X118482095Y-120451619D01*
X118529714Y-120546857D01*
X118529714Y-120689714D01*
X118482095Y-120784952D01*
X118434476Y-120832571D01*
X118339238Y-120880190D01*
X117958285Y-120880190D01*
X118720190Y-120074000D02*
X119767809Y-120074000D01*
X119624952Y-121451619D02*
X119529714Y-121404000D01*
X119434476Y-121308761D01*
X119291619Y-121165904D01*
X119196380Y-121118285D01*
X119101142Y-121118285D01*
X119148761Y-121356380D02*
X119053523Y-121308761D01*
X118958285Y-121213523D01*
X118910666Y-121023047D01*
X118910666Y-120689714D01*
X118958285Y-120499238D01*
X119053523Y-120404000D01*
X119148761Y-120356380D01*
X119339238Y-120356380D01*
X119434476Y-120404000D01*
X119529714Y-120499238D01*
X119577333Y-120689714D01*
X119577333Y-121023047D01*
X119529714Y-121213523D01*
X119434476Y-121308761D01*
X119339238Y-121356380D01*
X119148761Y-121356380D01*
X119767809Y-120074000D02*
X120720190Y-120074000D01*
X119910666Y-120356380D02*
X120529714Y-120356380D01*
X120196380Y-120737333D01*
X120339238Y-120737333D01*
X120434476Y-120784952D01*
X120482095Y-120832571D01*
X120529714Y-120927809D01*
X120529714Y-121165904D01*
X120482095Y-121261142D01*
X120434476Y-121308761D01*
X120339238Y-121356380D01*
X120053523Y-121356380D01*
X119958285Y-121308761D01*
X119910666Y-121261142D01*
X108665714Y-60142380D02*
X108665714Y-59142380D01*
X108903809Y-59142380D01*
X109046666Y-59190000D01*
X109141904Y-59285238D01*
X109189523Y-59380476D01*
X109237142Y-59570952D01*
X109237142Y-59713809D01*
X109189523Y-59904285D01*
X109141904Y-59999523D01*
X109046666Y-60094761D01*
X108903809Y-60142380D01*
X108665714Y-60142380D01*
X109856190Y-59142380D02*
X109951428Y-59142380D01*
X110046666Y-59190000D01*
X110094285Y-59237619D01*
X110141904Y-59332857D01*
X110189523Y-59523333D01*
X110189523Y-59761428D01*
X110141904Y-59951904D01*
X110094285Y-60047142D01*
X110046666Y-60094761D01*
X109951428Y-60142380D01*
X109856190Y-60142380D01*
X109760952Y-60094761D01*
X109713333Y-60047142D01*
X109665714Y-59951904D01*
X109618095Y-59761428D01*
X109618095Y-59523333D01*
X109665714Y-59332857D01*
X109713333Y-59237619D01*
X109760952Y-59190000D01*
X109856190Y-59142380D01*
X107554571Y-82716666D02*
X108030761Y-82716666D01*
X107459333Y-83002380D02*
X107792666Y-82002380D01*
X108126000Y-83002380D01*
X108411714Y-82097619D02*
X108459333Y-82050000D01*
X108554571Y-82002380D01*
X108792666Y-82002380D01*
X108887904Y-82050000D01*
X108935523Y-82097619D01*
X108983142Y-82192857D01*
X108983142Y-82288095D01*
X108935523Y-82430952D01*
X108364095Y-83002380D01*
X108983142Y-83002380D01*
X109364095Y-82097619D02*
X109411714Y-82050000D01*
X109506952Y-82002380D01*
X109745047Y-82002380D01*
X109840285Y-82050000D01*
X109887904Y-82097619D01*
X109935523Y-82192857D01*
X109935523Y-82288095D01*
X109887904Y-82430952D01*
X109316476Y-83002380D01*
X109935523Y-83002380D01*
X117482095Y-62682380D02*
X117482095Y-61682380D01*
X117720190Y-61682380D01*
X117863047Y-61730000D01*
X117958285Y-61825238D01*
X118005904Y-61920476D01*
X118053523Y-62110952D01*
X118053523Y-62253809D01*
X118005904Y-62444285D01*
X117958285Y-62539523D01*
X117863047Y-62634761D01*
X117720190Y-62682380D01*
X117482095Y-62682380D01*
X118910666Y-62015714D02*
X118910666Y-62682380D01*
X118672571Y-61634761D02*
X118434476Y-62349047D01*
X119053523Y-62349047D01*
X117482095Y-70302380D02*
X117482095Y-69302380D01*
X117720190Y-69302380D01*
X117863047Y-69350000D01*
X117958285Y-69445238D01*
X118005904Y-69540476D01*
X118053523Y-69730952D01*
X118053523Y-69873809D01*
X118005904Y-70064285D01*
X117958285Y-70159523D01*
X117863047Y-70254761D01*
X117720190Y-70302380D01*
X117482095Y-70302380D01*
X118386857Y-69302380D02*
X119053523Y-69302380D01*
X118624952Y-70302380D01*
X107554571Y-113196666D02*
X108030761Y-113196666D01*
X107459333Y-113482380D02*
X107792666Y-112482380D01*
X108126000Y-113482380D01*
X108983142Y-113482380D02*
X108411714Y-113482380D01*
X108697428Y-113482380D02*
X108697428Y-112482380D01*
X108602190Y-112625238D01*
X108506952Y-112720476D01*
X108411714Y-112768095D01*
X109602190Y-112482380D02*
X109697428Y-112482380D01*
X109792666Y-112530000D01*
X109840285Y-112577619D01*
X109887904Y-112672857D01*
X109935523Y-112863333D01*
X109935523Y-113101428D01*
X109887904Y-113291904D01*
X109840285Y-113387142D01*
X109792666Y-113434761D01*
X109697428Y-113482380D01*
X109602190Y-113482380D01*
X109506952Y-113434761D01*
X109459333Y-113387142D01*
X109411714Y-113291904D01*
X109364095Y-113101428D01*
X109364095Y-112863333D01*
X109411714Y-112672857D01*
X109459333Y-112577619D01*
X109506952Y-112530000D01*
X109602190Y-112482380D01*
X107554571Y-90336666D02*
X108030761Y-90336666D01*
X107459333Y-90622380D02*
X107792666Y-89622380D01*
X108126000Y-90622380D01*
X108983142Y-90622380D02*
X108411714Y-90622380D01*
X108697428Y-90622380D02*
X108697428Y-89622380D01*
X108602190Y-89765238D01*
X108506952Y-89860476D01*
X108411714Y-89908095D01*
X109459333Y-90622380D02*
X109649809Y-90622380D01*
X109745047Y-90574761D01*
X109792666Y-90527142D01*
X109887904Y-90384285D01*
X109935523Y-90193809D01*
X109935523Y-89812857D01*
X109887904Y-89717619D01*
X109840285Y-89670000D01*
X109745047Y-89622380D01*
X109554571Y-89622380D01*
X109459333Y-89670000D01*
X109411714Y-89717619D01*
X109364095Y-89812857D01*
X109364095Y-90050952D01*
X109411714Y-90146190D01*
X109459333Y-90193809D01*
X109554571Y-90241428D01*
X109745047Y-90241428D01*
X109840285Y-90193809D01*
X109887904Y-90146190D01*
X109935523Y-90050952D01*
X108506952Y-130976666D02*
X108983142Y-130976666D01*
X108411714Y-131262380D02*
X108745047Y-130262380D01*
X109078380Y-131262380D01*
X109316476Y-130262380D02*
X109935523Y-130262380D01*
X109602190Y-130643333D01*
X109745047Y-130643333D01*
X109840285Y-130690952D01*
X109887904Y-130738571D01*
X109935523Y-130833809D01*
X109935523Y-131071904D01*
X109887904Y-131167142D01*
X109840285Y-131214761D01*
X109745047Y-131262380D01*
X109459333Y-131262380D01*
X109364095Y-131214761D01*
X109316476Y-131167142D01*
X106221238Y-74100000D02*
X107221238Y-74100000D01*
X106792666Y-74858571D02*
X106935523Y-74906190D01*
X106983142Y-74953809D01*
X107030761Y-75049047D01*
X107030761Y-75191904D01*
X106983142Y-75287142D01*
X106935523Y-75334761D01*
X106840285Y-75382380D01*
X106459333Y-75382380D01*
X106459333Y-74382380D01*
X106792666Y-74382380D01*
X106887904Y-74430000D01*
X106935523Y-74477619D01*
X106983142Y-74572857D01*
X106983142Y-74668095D01*
X106935523Y-74763333D01*
X106887904Y-74810952D01*
X106792666Y-74858571D01*
X106459333Y-74858571D01*
X107221238Y-74100000D02*
X108126000Y-74100000D01*
X107459333Y-74858571D02*
X107792666Y-74858571D01*
X107935523Y-75382380D02*
X107459333Y-75382380D01*
X107459333Y-74382380D01*
X107935523Y-74382380D01*
X108126000Y-74100000D02*
X109126000Y-74100000D01*
X108935523Y-75382380D02*
X108602190Y-74906190D01*
X108364095Y-75382380D02*
X108364095Y-74382380D01*
X108745047Y-74382380D01*
X108840285Y-74430000D01*
X108887904Y-74477619D01*
X108935523Y-74572857D01*
X108935523Y-74715714D01*
X108887904Y-74810952D01*
X108840285Y-74858571D01*
X108745047Y-74906190D01*
X108364095Y-74906190D01*
X109126000Y-74100000D02*
X110126000Y-74100000D01*
X109935523Y-75382380D02*
X109602190Y-74906190D01*
X109364095Y-75382380D02*
X109364095Y-74382380D01*
X109745047Y-74382380D01*
X109840285Y-74430000D01*
X109887904Y-74477619D01*
X109935523Y-74572857D01*
X109935523Y-74715714D01*
X109887904Y-74810952D01*
X109840285Y-74858571D01*
X109745047Y-74906190D01*
X109364095Y-74906190D01*
X108126000Y-66480000D02*
X109126000Y-66480000D01*
X108697428Y-67238571D02*
X108840285Y-67286190D01*
X108887904Y-67333809D01*
X108935523Y-67429047D01*
X108935523Y-67571904D01*
X108887904Y-67667142D01*
X108840285Y-67714761D01*
X108745047Y-67762380D01*
X108364095Y-67762380D01*
X108364095Y-66762380D01*
X108697428Y-66762380D01*
X108792666Y-66810000D01*
X108840285Y-66857619D01*
X108887904Y-66952857D01*
X108887904Y-67048095D01*
X108840285Y-67143333D01*
X108792666Y-67190952D01*
X108697428Y-67238571D01*
X108364095Y-67238571D01*
X109126000Y-66480000D02*
X110126000Y-66480000D01*
X109935523Y-67762380D02*
X109602190Y-67286190D01*
X109364095Y-67762380D02*
X109364095Y-66762380D01*
X109745047Y-66762380D01*
X109840285Y-66810000D01*
X109887904Y-66857619D01*
X109935523Y-66952857D01*
X109935523Y-67095714D01*
X109887904Y-67190952D01*
X109840285Y-67238571D01*
X109745047Y-67286190D01*
X109364095Y-67286190D01*
X117799523Y-133707142D02*
X117751904Y-133754761D01*
X117609047Y-133802380D01*
X117513809Y-133802380D01*
X117370952Y-133754761D01*
X117275714Y-133659523D01*
X117228095Y-133564285D01*
X117180476Y-133373809D01*
X117180476Y-133230952D01*
X117228095Y-133040476D01*
X117275714Y-132945238D01*
X117370952Y-132850000D01*
X117513809Y-132802380D01*
X117609047Y-132802380D01*
X117751904Y-132850000D01*
X117799523Y-132897619D01*
X118704285Y-133802380D02*
X118228095Y-133802380D01*
X118228095Y-132802380D01*
X119037619Y-133802380D02*
X119037619Y-132802380D01*
X119609047Y-133802380D02*
X119180476Y-133230952D01*
X119609047Y-132802380D02*
X119037619Y-133373809D01*
X117482095Y-90622380D02*
X117482095Y-89622380D01*
X117720190Y-89622380D01*
X117863047Y-89670000D01*
X117958285Y-89765238D01*
X118005904Y-89860476D01*
X118053523Y-90050952D01*
X118053523Y-90193809D01*
X118005904Y-90384285D01*
X117958285Y-90479523D01*
X117863047Y-90574761D01*
X117720190Y-90622380D01*
X117482095Y-90622380D01*
X119005904Y-90622380D02*
X118434476Y-90622380D01*
X118720190Y-90622380D02*
X118720190Y-89622380D01*
X118624952Y-89765238D01*
X118529714Y-89860476D01*
X118434476Y-89908095D01*
X119910666Y-89622380D02*
X119434476Y-89622380D01*
X119386857Y-90098571D01*
X119434476Y-90050952D01*
X119529714Y-90003333D01*
X119767809Y-90003333D01*
X119863047Y-90050952D01*
X119910666Y-90098571D01*
X119958285Y-90193809D01*
X119958285Y-90431904D01*
X119910666Y-90527142D01*
X119863047Y-90574761D01*
X119767809Y-90622380D01*
X119529714Y-90622380D01*
X119434476Y-90574761D01*
X119386857Y-90527142D01*
X107554571Y-97956666D02*
X108030761Y-97956666D01*
X107459333Y-98242380D02*
X107792666Y-97242380D01*
X108126000Y-98242380D01*
X108983142Y-98242380D02*
X108411714Y-98242380D01*
X108697428Y-98242380D02*
X108697428Y-97242380D01*
X108602190Y-97385238D01*
X108506952Y-97480476D01*
X108411714Y-97528095D01*
X109840285Y-97242380D02*
X109649809Y-97242380D01*
X109554571Y-97290000D01*
X109506952Y-97337619D01*
X109411714Y-97480476D01*
X109364095Y-97670952D01*
X109364095Y-98051904D01*
X109411714Y-98147142D01*
X109459333Y-98194761D01*
X109554571Y-98242380D01*
X109745047Y-98242380D01*
X109840285Y-98194761D01*
X109887904Y-98147142D01*
X109935523Y-98051904D01*
X109935523Y-97813809D01*
X109887904Y-97718571D01*
X109840285Y-97670952D01*
X109745047Y-97623333D01*
X109554571Y-97623333D01*
X109459333Y-97670952D01*
X109411714Y-97718571D01*
X109364095Y-97813809D01*
X105268857Y-69020000D02*
X106268857Y-69020000D01*
X105840285Y-69778571D02*
X105983142Y-69826190D01*
X106030761Y-69873809D01*
X106078380Y-69969047D01*
X106078380Y-70111904D01*
X106030761Y-70207142D01*
X105983142Y-70254761D01*
X105887904Y-70302380D01*
X105506952Y-70302380D01*
X105506952Y-69302380D01*
X105840285Y-69302380D01*
X105935523Y-69350000D01*
X105983142Y-69397619D01*
X106030761Y-69492857D01*
X106030761Y-69588095D01*
X105983142Y-69683333D01*
X105935523Y-69730952D01*
X105840285Y-69778571D01*
X105506952Y-69778571D01*
X106268857Y-69020000D02*
X107268857Y-69020000D01*
X107030761Y-69350000D02*
X106935523Y-69302380D01*
X106792666Y-69302380D01*
X106649809Y-69350000D01*
X106554571Y-69445238D01*
X106506952Y-69540476D01*
X106459333Y-69730952D01*
X106459333Y-69873809D01*
X106506952Y-70064285D01*
X106554571Y-70159523D01*
X106649809Y-70254761D01*
X106792666Y-70302380D01*
X106887904Y-70302380D01*
X107030761Y-70254761D01*
X107078380Y-70207142D01*
X107078380Y-69873809D01*
X106887904Y-69873809D01*
X107268857Y-69020000D02*
X108126000Y-69020000D01*
X107459333Y-70016666D02*
X107935523Y-70016666D01*
X107364095Y-70302380D02*
X107697428Y-69302380D01*
X108030761Y-70302380D01*
X108126000Y-69020000D02*
X109126000Y-69020000D01*
X108935523Y-70207142D02*
X108887904Y-70254761D01*
X108745047Y-70302380D01*
X108649809Y-70302380D01*
X108506952Y-70254761D01*
X108411714Y-70159523D01*
X108364095Y-70064285D01*
X108316476Y-69873809D01*
X108316476Y-69730952D01*
X108364095Y-69540476D01*
X108411714Y-69445238D01*
X108506952Y-69350000D01*
X108649809Y-69302380D01*
X108745047Y-69302380D01*
X108887904Y-69350000D01*
X108935523Y-69397619D01*
X109126000Y-69020000D02*
X110126000Y-69020000D01*
X109364095Y-70302380D02*
X109364095Y-69302380D01*
X109935523Y-70302380D02*
X109506952Y-69730952D01*
X109935523Y-69302380D02*
X109364095Y-69873809D01*
X117482095Y-85542380D02*
X117482095Y-84542380D01*
X117720190Y-84542380D01*
X117863047Y-84590000D01*
X117958285Y-84685238D01*
X118005904Y-84780476D01*
X118053523Y-84970952D01*
X118053523Y-85113809D01*
X118005904Y-85304285D01*
X117958285Y-85399523D01*
X117863047Y-85494761D01*
X117720190Y-85542380D01*
X117482095Y-85542380D01*
X119005904Y-85542380D02*
X118434476Y-85542380D01*
X118720190Y-85542380D02*
X118720190Y-84542380D01*
X118624952Y-84685238D01*
X118529714Y-84780476D01*
X118434476Y-84828095D01*
X119339238Y-84542380D02*
X119958285Y-84542380D01*
X119624952Y-84923333D01*
X119767809Y-84923333D01*
X119863047Y-84970952D01*
X119910666Y-85018571D01*
X119958285Y-85113809D01*
X119958285Y-85351904D01*
X119910666Y-85447142D01*
X119863047Y-85494761D01*
X119767809Y-85542380D01*
X119482095Y-85542380D01*
X119386857Y-85494761D01*
X119339238Y-85447142D01*
D12*
X113458666Y-138112380D02*
X113458666Y-138826666D01*
X113411047Y-138969523D01*
X113315809Y-139064761D01*
X113172952Y-139112380D01*
X113077714Y-139112380D01*
X113887238Y-138207619D02*
X113934857Y-138160000D01*
X114030095Y-138112380D01*
X114268190Y-138112380D01*
X114363428Y-138160000D01*
X114411047Y-138207619D01*
X114458666Y-138302857D01*
X114458666Y-138398095D01*
X114411047Y-138540952D01*
X113839619Y-139112380D01*
X114458666Y-139112380D01*
X97171666Y-137617380D02*
X97171666Y-138331666D01*
X97124047Y-138474523D01*
X97028809Y-138569761D01*
X96885952Y-138617380D01*
X96790714Y-138617380D01*
X98171666Y-138617380D02*
X97600238Y-138617380D01*
X97885952Y-138617380D02*
X97885952Y-137617380D01*
X97790714Y-137760238D01*
X97695476Y-137855476D01*
X97600238Y-137903095D01*
D13*
X116392000Y-55820000D02*
X111192000Y-55820000D01*
X116392000Y-137220000D02*
X116392000Y-55820000D01*
X113792000Y-137220000D02*
X113792000Y-134620000D01*
X116392000Y-137220000D02*
X113792000Y-137220000D01*
X113792000Y-134620000D02*
X111192000Y-134620000D01*
X111192000Y-134620000D02*
X111192000Y-55820000D01*
X111192000Y-137220000D02*
X111192000Y-135890000D01*
X112522000Y-137220000D02*
X111192000Y-137220000D01*
X96520000Y-70235000D02*
X90520000Y-70235000D01*
X99577071Y-123575000D02*
X99180000Y-123575000D01*
X99577071Y-89795000D02*
X99180000Y-89795000D01*
X102117071Y-95635000D02*
X101662929Y-95635000D01*
X102117071Y-127895000D02*
X101662929Y-127895000D01*
X104430000Y-135895000D02*
X104430000Y-137165000D01*
X99180000Y-134625000D02*
X96520000Y-134625000D01*
X99180000Y-137225000D02*
X99180000Y-55825000D01*
X96520000Y-60075000D02*
X90520000Y-60075000D01*
X96520000Y-108335000D02*
X90520000Y-108335000D01*
X90520000Y-59315000D02*
X96520000Y-59315000D01*
X102117071Y-79635000D02*
X101662929Y-79635000D01*
X102117071Y-112655000D02*
X101662929Y-112655000D01*
X96520000Y-110875000D02*
X90520000Y-110875000D01*
X99577071Y-102495000D02*
X99180000Y-102495000D01*
X99577071Y-110875000D02*
X99180000Y-110875000D01*
X99577071Y-118495000D02*
X99180000Y-118495000D01*
X96520000Y-98175000D02*
X90520000Y-98175000D01*
X99577071Y-95635000D02*
X99180000Y-95635000D01*
X90520000Y-61855000D02*
X96520000Y-61855000D01*
X90520000Y-100715000D02*
X90520000Y-99955000D01*
X96520000Y-135615000D02*
X90520000Y-135615000D01*
X90520000Y-72775000D02*
X90520000Y-72015000D01*
X90520000Y-123575000D02*
X90520000Y-122815000D01*
X102117071Y-118495000D02*
X101662929Y-118495000D01*
X102117071Y-131195000D02*
X101662929Y-131195000D01*
X99577071Y-133735000D02*
X99180000Y-133735000D01*
X99577071Y-98175000D02*
X99180000Y-98175000D01*
X99577071Y-100715000D02*
X99180000Y-100715000D01*
X99577071Y-59315000D02*
X99180000Y-59315000D01*
X99577071Y-103255000D02*
X99180000Y-103255000D01*
X102050000Y-135515000D02*
X101662929Y-135515000D01*
X90520000Y-133735000D02*
X90520000Y-132975000D01*
X99577071Y-115195000D02*
X99180000Y-115195000D01*
X90520000Y-69475000D02*
X96520000Y-69475000D01*
X90520000Y-107575000D02*
X96520000Y-107575000D01*
X102117071Y-74555000D02*
X101662929Y-74555000D01*
X90520000Y-105035000D02*
X96520000Y-105035000D01*
X99577071Y-110115000D02*
X99180000Y-110115000D01*
X90520000Y-85475000D02*
X90520000Y-84715000D01*
X99180000Y-81285000D02*
X96520000Y-81285000D01*
X96520000Y-85475000D02*
X90520000Y-85475000D01*
X90520000Y-70235000D02*
X90520000Y-69475000D01*
X90520000Y-122815000D02*
X96520000Y-122815000D01*
X90520000Y-72015000D02*
X96520000Y-72015000D01*
X90520000Y-112655000D02*
X96520000Y-112655000D01*
X102117071Y-69475000D02*
X101662929Y-69475000D01*
X96520000Y-72775000D02*
X90520000Y-72775000D01*
X102117071Y-88015000D02*
X101662929Y-88015000D01*
X99577071Y-93095000D02*
X99180000Y-93095000D01*
X102117071Y-67695000D02*
X101662929Y-67695000D01*
X99180000Y-109225000D02*
X96520000Y-109225000D01*
X102117071Y-125355000D02*
X101662929Y-125355000D01*
X102117071Y-72775000D02*
X101662929Y-72775000D01*
X102117071Y-92335000D02*
X101662929Y-92335000D01*
X102117071Y-126115000D02*
X101662929Y-126115000D01*
X96520000Y-136215000D02*
X90520000Y-136215000D01*
X102117071Y-117735000D02*
X101662929Y-117735000D01*
X96520000Y-133735000D02*
X90520000Y-133735000D01*
X90520000Y-65155000D02*
X90520000Y-64395000D01*
X102117071Y-120275000D02*
X101662929Y-120275000D01*
X90520000Y-110875000D02*
X90520000Y-110115000D01*
X99577071Y-108335000D02*
X99180000Y-108335000D01*
X102117071Y-64395000D02*
X101662929Y-64395000D01*
X90520000Y-99955000D02*
X96520000Y-99955000D01*
X99180000Y-73665000D02*
X96520000Y-73665000D01*
X99577071Y-75315000D02*
X99180000Y-75315000D01*
X99577071Y-77855000D02*
X99180000Y-77855000D01*
X102117071Y-70235000D02*
X101662929Y-70235000D01*
X90520000Y-108335000D02*
X90520000Y-107575000D01*
X90520000Y-105795000D02*
X90520000Y-105035000D01*
X99577071Y-88015000D02*
X99180000Y-88015000D01*
X90520000Y-103255000D02*
X90520000Y-102495000D01*
X102117071Y-94875000D02*
X101662929Y-94875000D01*
X102117071Y-128655000D02*
X101662929Y-128655000D01*
X96520000Y-105795000D02*
X90520000Y-105795000D01*
X99577071Y-60075000D02*
X99180000Y-60075000D01*
X99180000Y-86365000D02*
X96520000Y-86365000D01*
X99577071Y-66935000D02*
X99180000Y-66935000D01*
X99577071Y-99955000D02*
X99180000Y-99955000D01*
X99577071Y-112655000D02*
X99180000Y-112655000D01*
X96520000Y-135975000D02*
X90520000Y-135975000D01*
X102117071Y-113415000D02*
X101662929Y-113415000D01*
X90520000Y-89795000D02*
X96520000Y-89795000D01*
X99577071Y-125355000D02*
X99180000Y-125355000D01*
X102117071Y-57535000D02*
X101662929Y-57535000D01*
X102117071Y-85475000D02*
X101662929Y-85475000D01*
X99577071Y-105795000D02*
X99180000Y-105795000D01*
X99577071Y-67695000D02*
X99180000Y-67695000D01*
X90520000Y-118495000D02*
X90520000Y-117735000D01*
X99180000Y-71125000D02*
X96520000Y-71125000D01*
X96520000Y-136275000D02*
X90520000Y-136275000D01*
X90520000Y-77095000D02*
X96520000Y-77095000D01*
X99577071Y-127895000D02*
X99180000Y-127895000D01*
X96520000Y-95635000D02*
X90520000Y-95635000D01*
X99577071Y-117735000D02*
X99180000Y-117735000D01*
X102117071Y-115195000D02*
X101662929Y-115195000D01*
X102117071Y-132975000D02*
X101662929Y-132975000D01*
X99577071Y-94875000D02*
X99180000Y-94875000D01*
X102117071Y-121035000D02*
X101662929Y-121035000D01*
X90520000Y-66935000D02*
X96520000Y-66935000D01*
X96520000Y-136095000D02*
X90520000Y-136095000D01*
X99577071Y-72015000D02*
X99180000Y-72015000D01*
X102117071Y-82935000D02*
X101662929Y-82935000D01*
X96520000Y-137225000D02*
X99180000Y-137225000D01*
X99577071Y-80395000D02*
X99180000Y-80395000D01*
X99180000Y-60965000D02*
X96520000Y-60965000D01*
X102117071Y-77095000D02*
X101662929Y-77095000D01*
X99577071Y-128655000D02*
X99180000Y-128655000D01*
X99180000Y-91445000D02*
X96520000Y-91445000D01*
X90520000Y-74555000D02*
X96520000Y-74555000D01*
X102117071Y-90555000D02*
X101662929Y-90555000D01*
X99180000Y-63505000D02*
X96520000Y-63505000D01*
X99577071Y-120275000D02*
X99180000Y-120275000D01*
X99577071Y-113415000D02*
X99180000Y-113415000D01*
X99180000Y-129545000D02*
X96520000Y-129545000D01*
X99180000Y-132085000D02*
X96520000Y-132085000D01*
X96520000Y-123575000D02*
X90520000Y-123575000D01*
X90520000Y-125355000D02*
X96520000Y-125355000D01*
X99577071Y-72775000D02*
X99180000Y-72775000D01*
X102117071Y-84715000D02*
X101662929Y-84715000D01*
X99577071Y-87255000D02*
X99180000Y-87255000D01*
X90520000Y-80395000D02*
X90520000Y-79635000D01*
X90520000Y-92335000D02*
X96520000Y-92335000D01*
X102117071Y-103255000D02*
X101662929Y-103255000D01*
X99180000Y-99065000D02*
X96520000Y-99065000D01*
X99577071Y-57535000D02*
X99180000Y-57535000D01*
X102117071Y-82175000D02*
X101662929Y-82175000D01*
X99577071Y-84715000D02*
X99180000Y-84715000D01*
X90520000Y-84715000D02*
X96520000Y-84715000D01*
X102117071Y-123575000D02*
X101662929Y-123575000D01*
X99577071Y-69475000D02*
X99180000Y-69475000D01*
X99180000Y-66045000D02*
X96520000Y-66045000D01*
X102117071Y-130435000D02*
X101662929Y-130435000D01*
X90520000Y-95635000D02*
X90520000Y-94875000D01*
X90520000Y-93095000D02*
X90520000Y-92335000D01*
X96520000Y-128655000D02*
X90520000Y-128655000D01*
X99180000Y-116845000D02*
X96520000Y-116845000D01*
X99180000Y-104145000D02*
X96520000Y-104145000D01*
X99577071Y-97415000D02*
X99180000Y-97415000D01*
X102117071Y-105795000D02*
X101662929Y-105795000D01*
X96520000Y-90555000D02*
X90520000Y-90555000D01*
X99577071Y-64395000D02*
X99180000Y-64395000D01*
X102117071Y-59315000D02*
X101662929Y-59315000D01*
X99577071Y-62615000D02*
X99180000Y-62615000D01*
X99180000Y-121925000D02*
X96520000Y-121925000D01*
X96520000Y-131195000D02*
X90520000Y-131195000D01*
X96520000Y-115955000D02*
X90520000Y-115955000D01*
X102117071Y-65155000D02*
X101662929Y-65155000D01*
X99577071Y-121035000D02*
X99180000Y-121035000D01*
X99180000Y-119385000D02*
X96520000Y-119385000D01*
X102117071Y-72015000D02*
X101662929Y-72015000D01*
X102117071Y-98175000D02*
X101662929Y-98175000D01*
X102117071Y-108335000D02*
X101662929Y-108335000D01*
X90520000Y-117735000D02*
X96520000Y-117735000D01*
X102117071Y-107575000D02*
X101662929Y-107575000D01*
X90520000Y-82935000D02*
X90520000Y-82175000D01*
X102117071Y-133735000D02*
X101662929Y-133735000D01*
X90520000Y-64395000D02*
X96520000Y-64395000D01*
X99180000Y-78745000D02*
X96520000Y-78745000D01*
X96520000Y-65155000D02*
X90520000Y-65155000D01*
X102117071Y-87255000D02*
X101662929Y-87255000D01*
X96520000Y-135735000D02*
X90520000Y-135735000D01*
X99577071Y-82935000D02*
X99180000Y-82935000D01*
X96520000Y-126115000D02*
X90520000Y-126115000D01*
X99180000Y-68585000D02*
X96520000Y-68585000D01*
X99180000Y-76205000D02*
X96520000Y-76205000D01*
X102117071Y-56775000D02*
X101662929Y-56775000D01*
X102117071Y-89795000D02*
X101662929Y-89795000D01*
X90520000Y-60075000D02*
X90520000Y-59315000D01*
X96520000Y-80395000D02*
X90520000Y-80395000D01*
X90520000Y-98175000D02*
X90520000Y-97415000D01*
X99577071Y-70235000D02*
X99180000Y-70235000D01*
X90520000Y-57535000D02*
X90520000Y-56775000D01*
X99180000Y-88905000D02*
X96520000Y-88905000D01*
X90520000Y-79635000D02*
X96520000Y-79635000D01*
X96520000Y-62615000D02*
X90520000Y-62615000D01*
X99577071Y-136275000D02*
X99180000Y-136275000D01*
X99180000Y-114305000D02*
X96520000Y-114305000D01*
X99180000Y-96525000D02*
X96520000Y-96525000D01*
X99577071Y-90555000D02*
X99180000Y-90555000D01*
X99577071Y-131195000D02*
X99180000Y-131195000D01*
X99577071Y-79635000D02*
X99180000Y-79635000D01*
X90520000Y-94875000D02*
X96520000Y-94875000D01*
X99577071Y-135515000D02*
X99180000Y-135515000D01*
X96520000Y-113415000D02*
X90520000Y-113415000D01*
X96520000Y-82935000D02*
X90520000Y-82935000D01*
X102117071Y-93095000D02*
X101662929Y-93095000D01*
X102117071Y-62615000D02*
X101662929Y-62615000D01*
X96520000Y-100715000D02*
X90520000Y-100715000D01*
X90520000Y-120275000D02*
X96520000Y-120275000D01*
X96520000Y-135855000D02*
X90520000Y-135855000D01*
X90520000Y-56775000D02*
X96520000Y-56775000D01*
X99577071Y-85475000D02*
X99180000Y-85475000D01*
X96520000Y-57535000D02*
X90520000Y-57535000D01*
X96520000Y-77855000D02*
X90520000Y-77855000D01*
X90520000Y-110115000D02*
X96520000Y-110115000D01*
X102117071Y-105035000D02*
X101662929Y-105035000D01*
X96520000Y-55825000D02*
X96520000Y-137225000D01*
X99577071Y-107575000D02*
X99180000Y-107575000D01*
X102117071Y-60075000D02*
X101662929Y-60075000D01*
X99180000Y-127005000D02*
X96520000Y-127005000D01*
X96520000Y-75315000D02*
X90520000Y-75315000D01*
X102117071Y-110875000D02*
X101662929Y-110875000D01*
X99577071Y-130435000D02*
X99180000Y-130435000D01*
X96520000Y-67695000D02*
X90520000Y-67695000D01*
X96520000Y-121035000D02*
X90520000Y-121035000D01*
X99180000Y-93985000D02*
X96520000Y-93985000D01*
X99577071Y-65155000D02*
X99180000Y-65155000D01*
X90520000Y-102495000D02*
X96520000Y-102495000D01*
X90520000Y-132975000D02*
X96520000Y-132975000D01*
X102117071Y-115955000D02*
X101662929Y-115955000D01*
X99180000Y-83825000D02*
X96520000Y-83825000D01*
X102117071Y-80395000D02*
X101662929Y-80395000D01*
X99180000Y-111765000D02*
X96520000Y-111765000D01*
X99180000Y-55825000D02*
X96520000Y-55825000D01*
X90520000Y-67695000D02*
X90520000Y-66935000D01*
X99577071Y-56775000D02*
X99180000Y-56775000D01*
X99180000Y-101605000D02*
X96520000Y-101605000D01*
X99577071Y-92335000D02*
X99180000Y-92335000D01*
X99180000Y-124465000D02*
X96520000Y-124465000D01*
X90520000Y-135515000D02*
X96520000Y-135515000D01*
X99180000Y-58425000D02*
X96520000Y-58425000D01*
X90520000Y-82175000D02*
X96520000Y-82175000D01*
X90520000Y-113415000D02*
X90520000Y-112655000D01*
X96520000Y-103255000D02*
X90520000Y-103255000D01*
X102117071Y-99955000D02*
X101662929Y-99955000D01*
X90520000Y-90555000D02*
X90520000Y-89795000D01*
X99577071Y-74555000D02*
X99180000Y-74555000D01*
X102117071Y-75315000D02*
X101662929Y-75315000D01*
X90520000Y-62615000D02*
X90520000Y-61855000D01*
X90520000Y-88015000D02*
X90520000Y-87255000D01*
X102117071Y-102495000D02*
X101662929Y-102495000D01*
X99577071Y-132975000D02*
X99180000Y-132975000D01*
X102117071Y-122815000D02*
X101662929Y-122815000D01*
X99577071Y-82175000D02*
X99180000Y-82175000D01*
X102117071Y-100715000D02*
X101662929Y-100715000D01*
X90520000Y-87255000D02*
X96520000Y-87255000D01*
X102117071Y-97415000D02*
X101662929Y-97415000D01*
X90520000Y-77855000D02*
X90520000Y-77095000D01*
X96520000Y-118495000D02*
X90520000Y-118495000D01*
X90520000Y-75315000D02*
X90520000Y-74555000D01*
X102117071Y-77855000D02*
X101662929Y-77855000D01*
X102050000Y-136275000D02*
X101662929Y-136275000D01*
X99577071Y-115955000D02*
X99180000Y-115955000D01*
X90520000Y-126115000D02*
X90520000Y-125355000D01*
X96520000Y-93095000D02*
X90520000Y-93095000D01*
X99180000Y-106685000D02*
X96520000Y-106685000D01*
X90520000Y-130435000D02*
X96520000Y-130435000D01*
X99577071Y-122815000D02*
X99180000Y-122815000D01*
X90520000Y-128655000D02*
X90520000Y-127895000D01*
X90520000Y-97415000D02*
X96520000Y-97415000D01*
X90520000Y-115955000D02*
X90520000Y-115195000D01*
X102117071Y-110115000D02*
X101662929Y-110115000D01*
X99577071Y-126115000D02*
X99180000Y-126115000D01*
X90520000Y-121035000D02*
X90520000Y-120275000D01*
X96520000Y-88015000D02*
X90520000Y-88015000D01*
X102117071Y-61855000D02*
X101662929Y-61855000D01*
X102117071Y-66935000D02*
X101662929Y-66935000D01*
X104430000Y-137165000D02*
X103160000Y-137165000D01*
X90520000Y-136275000D02*
X90520000Y-135515000D01*
X99577071Y-77095000D02*
X99180000Y-77095000D01*
X90520000Y-115195000D02*
X96520000Y-115195000D01*
X90520000Y-127895000D02*
X96520000Y-127895000D01*
X99577071Y-61855000D02*
X99180000Y-61855000D01*
X90520000Y-131195000D02*
X90520000Y-130435000D01*
X99577071Y-105035000D02*
X99180000Y-105035000D01*
%LPC*%
D14*
X192532000Y-50419000D03*
X192532000Y-142621000D03*
X106172000Y-50419000D03*
X106172000Y-142621000D03*
D15*
X112522000Y-135890000D03*
D16*
X115062000Y-135890000D03*
X112522000Y-133350000D03*
X115062000Y-133350000D03*
X112522000Y-130810000D03*
X115062000Y-130810000D03*
X112522000Y-128270000D03*
X115062000Y-128270000D03*
X112522000Y-125730000D03*
X115062000Y-125730000D03*
X112522000Y-123190000D03*
X115062000Y-123190000D03*
X112522000Y-120650000D03*
X115062000Y-120650000D03*
X112522000Y-118110000D03*
X115062000Y-118110000D03*
X112522000Y-115570000D03*
X115062000Y-115570000D03*
X112522000Y-113030000D03*
X115062000Y-113030000D03*
X112522000Y-110490000D03*
X115062000Y-110490000D03*
X112522000Y-107950000D03*
X115062000Y-107950000D03*
X112522000Y-105410000D03*
X115062000Y-105410000D03*
X112522000Y-102870000D03*
X115062000Y-102870000D03*
X112522000Y-100330000D03*
X115062000Y-100330000D03*
X112522000Y-97790000D03*
X115062000Y-97790000D03*
X112522000Y-95250000D03*
X115062000Y-95250000D03*
X112522000Y-92710000D03*
X115062000Y-92710000D03*
X112522000Y-90170000D03*
X115062000Y-90170000D03*
X112522000Y-87630000D03*
X115062000Y-87630000D03*
X112522000Y-85090000D03*
X115062000Y-85090000D03*
X112522000Y-82550000D03*
X115062000Y-82550000D03*
X112522000Y-80010000D03*
X115062000Y-80010000D03*
X112522000Y-77470000D03*
X115062000Y-77470000D03*
X112522000Y-74930000D03*
X115062000Y-74930000D03*
X112522000Y-72390000D03*
X115062000Y-72390000D03*
X112522000Y-69850000D03*
X115062000Y-69850000D03*
X112522000Y-67310000D03*
X115062000Y-67310000D03*
X112522000Y-64770000D03*
X115062000Y-64770000D03*
X112522000Y-62230000D03*
X115062000Y-62230000D03*
X112522000Y-59690000D03*
X115062000Y-59690000D03*
X112522000Y-57150000D03*
X115062000Y-57150000D03*
D17*
X156718000Y-80012000D03*
X156718000Y-77472000D03*
X156718000Y-74932000D03*
X156718000Y-72392000D03*
X156718000Y-69852000D03*
X159258000Y-80012000D03*
X159258000Y-77472000D03*
X159258000Y-74932000D03*
X159258000Y-72392000D03*
X159258000Y-69852000D03*
X177038000Y-97786000D03*
X179578000Y-97786000D03*
X182118000Y-97786000D03*
X184658000Y-97786000D03*
X187198000Y-97786000D03*
X177038000Y-100326000D03*
X179578000Y-100326000D03*
X182118000Y-100326000D03*
X184658000Y-100326000D03*
X187198000Y-100326000D03*
X161798000Y-57150000D03*
X164338000Y-57150000D03*
X166878000Y-57150000D03*
X169418000Y-57150000D03*
X171958000Y-57150000D03*
X161798000Y-59690000D03*
X164338000Y-59690000D03*
X166878000Y-59690000D03*
X169418000Y-59690000D03*
X171958000Y-59690000D03*
X161798000Y-67308000D03*
X164338000Y-67308000D03*
X166878000Y-67308000D03*
X169418000Y-67308000D03*
X171958000Y-67308000D03*
X161798000Y-69848000D03*
X164338000Y-69848000D03*
X166878000Y-69848000D03*
X169418000Y-69848000D03*
X171958000Y-69848000D03*
X128778000Y-118110000D03*
X131318000Y-118110000D03*
X133858000Y-118110000D03*
X136398000Y-118110000D03*
X138938000Y-118110000D03*
X128778000Y-120650000D03*
X131318000Y-120650000D03*
X133858000Y-120650000D03*
X136398000Y-120650000D03*
X138938000Y-120650000D03*
X144018000Y-77474000D03*
X146558000Y-77474000D03*
X149098000Y-77474000D03*
X151638000Y-77474000D03*
X154178000Y-77474000D03*
X144018000Y-80014000D03*
X146558000Y-80014000D03*
X149098000Y-80014000D03*
X151638000Y-80014000D03*
X154178000Y-80014000D03*
X156718000Y-67312000D03*
X156718000Y-64772000D03*
X156718000Y-62232000D03*
X156718000Y-59692000D03*
X156718000Y-57152000D03*
X159258000Y-67312000D03*
X159258000Y-64772000D03*
X159258000Y-62232000D03*
X159258000Y-59692000D03*
X159258000Y-57152000D03*
X177038000Y-67306000D03*
X179578000Y-67306000D03*
X182118000Y-67306000D03*
X184658000Y-67306000D03*
X187198000Y-67306000D03*
X177038000Y-69846000D03*
X179578000Y-69846000D03*
X182118000Y-69846000D03*
X184658000Y-69846000D03*
X187198000Y-69846000D03*
X128778000Y-102874000D03*
X131318000Y-102874000D03*
X133858000Y-102874000D03*
X136398000Y-102874000D03*
X138938000Y-102874000D03*
X128778000Y-105414000D03*
X131318000Y-105414000D03*
X133858000Y-105414000D03*
X136398000Y-105414000D03*
X138938000Y-105414000D03*
X123698000Y-130810000D03*
X123698000Y-128270000D03*
X123698000Y-125730000D03*
X123698000Y-123190000D03*
X123698000Y-120650000D03*
X126238000Y-130810000D03*
X126238000Y-128270000D03*
X126238000Y-125730000D03*
X126238000Y-123190000D03*
X126238000Y-120650000D03*
X161798000Y-82552000D03*
X164338000Y-82552000D03*
X166878000Y-82552000D03*
X169418000Y-82552000D03*
X171958000Y-82552000D03*
X161798000Y-85092000D03*
X164338000Y-85092000D03*
X166878000Y-85092000D03*
X169418000Y-85092000D03*
X171958000Y-85092000D03*
X189740000Y-130810000D03*
X189740000Y-128270000D03*
X189740000Y-125730000D03*
X189740000Y-123190000D03*
X189740000Y-120650000D03*
X192280000Y-130810000D03*
X192280000Y-128270000D03*
X192280000Y-125730000D03*
X192280000Y-123190000D03*
X192280000Y-120650000D03*
X144018000Y-133352000D03*
X146558000Y-133352000D03*
X149098000Y-133352000D03*
X151638000Y-133352000D03*
X154178000Y-133352000D03*
X144018000Y-135892000D03*
X146558000Y-135892000D03*
X149098000Y-135892000D03*
X151638000Y-135892000D03*
X154178000Y-135892000D03*
X177038000Y-118108000D03*
X179578000Y-118108000D03*
X182118000Y-118108000D03*
X184658000Y-118108000D03*
X187198000Y-118108000D03*
X177038000Y-120648000D03*
X179578000Y-120648000D03*
X182118000Y-120648000D03*
X184658000Y-120648000D03*
X187198000Y-120648000D03*
X156718000Y-105412000D03*
X156718000Y-102872000D03*
X156718000Y-100332000D03*
X156718000Y-97792000D03*
X156718000Y-95252000D03*
X159258000Y-105412000D03*
X159258000Y-102872000D03*
X159258000Y-100332000D03*
X159258000Y-97792000D03*
X159258000Y-95252000D03*
X161798000Y-102872000D03*
X164338000Y-102872000D03*
X166878000Y-102872000D03*
X169418000Y-102872000D03*
X171958000Y-102872000D03*
X161798000Y-105412000D03*
X164338000Y-105412000D03*
X166878000Y-105412000D03*
X169418000Y-105412000D03*
X171958000Y-105412000D03*
X161798000Y-92710000D03*
X164338000Y-92710000D03*
X166878000Y-92710000D03*
X169418000Y-92710000D03*
X171958000Y-92710000D03*
X161798000Y-95250000D03*
X164338000Y-95250000D03*
X166878000Y-95250000D03*
X169418000Y-95250000D03*
X171958000Y-95250000D03*
X123698000Y-92712000D03*
X123698000Y-90172000D03*
X123698000Y-87632000D03*
X123698000Y-85092000D03*
X123698000Y-82552000D03*
X126238000Y-92712000D03*
X126238000Y-90172000D03*
X126238000Y-87632000D03*
X126238000Y-85092000D03*
X126238000Y-82552000D03*
X128778000Y-82554000D03*
X131318000Y-82554000D03*
X133858000Y-82554000D03*
X136398000Y-82554000D03*
X138938000Y-82554000D03*
X128778000Y-85094000D03*
X131318000Y-85094000D03*
X133858000Y-85094000D03*
X136398000Y-85094000D03*
X138938000Y-85094000D03*
X144018000Y-82556000D03*
X146558000Y-82556000D03*
X149098000Y-82556000D03*
X151638000Y-82556000D03*
X154178000Y-82556000D03*
X144018000Y-85096000D03*
X146558000Y-85096000D03*
X149098000Y-85096000D03*
X151638000Y-85096000D03*
X154178000Y-85096000D03*
X128778000Y-133350000D03*
X131318000Y-133350000D03*
X133858000Y-133350000D03*
X136398000Y-133350000D03*
X138938000Y-133350000D03*
X128778000Y-135890000D03*
X131318000Y-135890000D03*
X133858000Y-135890000D03*
X136398000Y-135890000D03*
X138938000Y-135890000D03*
X128778000Y-123192000D03*
X131318000Y-123192000D03*
X133858000Y-123192000D03*
X136398000Y-123192000D03*
X138938000Y-123192000D03*
X128778000Y-125732000D03*
X131318000Y-125732000D03*
X133858000Y-125732000D03*
X136398000Y-125732000D03*
X138938000Y-125732000D03*
X144018000Y-113034000D03*
X146558000Y-113034000D03*
X149098000Y-113034000D03*
X151638000Y-113034000D03*
X154178000Y-113034000D03*
X144018000Y-115574000D03*
X146558000Y-115574000D03*
X149098000Y-115574000D03*
X151638000Y-115574000D03*
X154178000Y-115574000D03*
X192278000Y-135892000D03*
X189738000Y-135892000D03*
X192278000Y-133352000D03*
X189738000Y-133352000D03*
X144018000Y-123194000D03*
X146558000Y-123194000D03*
X149098000Y-123194000D03*
X151638000Y-123194000D03*
X154178000Y-123194000D03*
X144018000Y-125734000D03*
X146558000Y-125734000D03*
X149098000Y-125734000D03*
X151638000Y-125734000D03*
X154178000Y-125734000D03*
X189740000Y-67310000D03*
X189740000Y-64770000D03*
X189740000Y-62230000D03*
X189740000Y-59690000D03*
X189740000Y-57150000D03*
X192280000Y-67310000D03*
X192280000Y-64770000D03*
X192280000Y-62230000D03*
X192280000Y-59690000D03*
X192280000Y-57150000D03*
X144018000Y-128270000D03*
X146558000Y-128270000D03*
X149098000Y-128270000D03*
X151638000Y-128270000D03*
X154178000Y-128270000D03*
X144018000Y-130810000D03*
X146558000Y-130810000D03*
X149098000Y-130810000D03*
X151638000Y-130810000D03*
X154178000Y-130810000D03*
X189740000Y-92710000D03*
X189740000Y-90170000D03*
X189740000Y-87630000D03*
X189740000Y-85090000D03*
X189740000Y-82550000D03*
X192280000Y-92710000D03*
X192280000Y-90170000D03*
X192280000Y-87630000D03*
X192280000Y-85090000D03*
X192280000Y-82550000D03*
X161798000Y-113030000D03*
X164338000Y-113030000D03*
X166878000Y-113030000D03*
X169418000Y-113030000D03*
X171958000Y-113030000D03*
X161798000Y-115570000D03*
X164338000Y-115570000D03*
X166878000Y-115570000D03*
X169418000Y-115570000D03*
X171958000Y-115570000D03*
X126238000Y-135890000D03*
X123698000Y-135890000D03*
X123698000Y-133350000D03*
X126238000Y-133350000D03*
X128778000Y-107950000D03*
X131318000Y-107950000D03*
X133858000Y-107950000D03*
X136398000Y-107950000D03*
X138938000Y-107950000D03*
X128778000Y-110490000D03*
X131318000Y-110490000D03*
X133858000Y-110490000D03*
X136398000Y-110490000D03*
X138938000Y-110490000D03*
X189740000Y-105410000D03*
X189740000Y-102870000D03*
X189740000Y-100330000D03*
X189740000Y-97790000D03*
X189740000Y-95250000D03*
X192280000Y-105410000D03*
X192280000Y-102870000D03*
X192280000Y-100330000D03*
X192280000Y-97790000D03*
X192280000Y-95250000D03*
X144018000Y-102876000D03*
X146558000Y-102876000D03*
X149098000Y-102876000D03*
X151638000Y-102876000D03*
X154178000Y-102876000D03*
X144018000Y-105416000D03*
X146558000Y-105416000D03*
X149098000Y-105416000D03*
X151638000Y-105416000D03*
X154178000Y-105416000D03*
X177038000Y-123192000D03*
X179578000Y-123192000D03*
X182118000Y-123192000D03*
X184658000Y-123192000D03*
X187198000Y-123192000D03*
X177038000Y-125732000D03*
X179578000Y-125732000D03*
X182118000Y-125732000D03*
X184658000Y-125732000D03*
X187198000Y-125732000D03*
X144018000Y-92714000D03*
X146558000Y-92714000D03*
X149098000Y-92714000D03*
X151638000Y-92714000D03*
X154178000Y-92714000D03*
X144018000Y-95254000D03*
X146558000Y-95254000D03*
X149098000Y-95254000D03*
X151638000Y-95254000D03*
X154178000Y-95254000D03*
X128778000Y-113032000D03*
X131318000Y-113032000D03*
X133858000Y-113032000D03*
X136398000Y-113032000D03*
X138938000Y-113032000D03*
X128778000Y-115572000D03*
X131318000Y-115572000D03*
X133858000Y-115572000D03*
X136398000Y-115572000D03*
X138938000Y-115572000D03*
X177038000Y-77470000D03*
X179578000Y-77470000D03*
X182118000Y-77470000D03*
X184658000Y-77470000D03*
X187198000Y-77470000D03*
X177038000Y-80010000D03*
X179578000Y-80010000D03*
X182118000Y-80010000D03*
X184658000Y-80010000D03*
X187198000Y-80010000D03*
X128778000Y-128268000D03*
X131318000Y-128268000D03*
X133858000Y-128268000D03*
X136398000Y-128268000D03*
X138938000Y-128268000D03*
X128778000Y-130808000D03*
X131318000Y-130808000D03*
X133858000Y-130808000D03*
X136398000Y-130808000D03*
X138938000Y-130808000D03*
X128778000Y-77472000D03*
X131318000Y-77472000D03*
X133858000Y-77472000D03*
X136398000Y-77472000D03*
X138938000Y-77472000D03*
X128778000Y-80012000D03*
X131318000Y-80012000D03*
X133858000Y-80012000D03*
X136398000Y-80012000D03*
X138938000Y-80012000D03*
D15*
X103160000Y-135895000D03*
D16*
X100620000Y-135895000D03*
X103160000Y-133355000D03*
X100620000Y-133355000D03*
X103160000Y-130815000D03*
X100620000Y-130815000D03*
X103160000Y-128275000D03*
X100620000Y-128275000D03*
X103160000Y-125735000D03*
X100620000Y-125735000D03*
X103160000Y-123195000D03*
X100620000Y-123195000D03*
X103160000Y-120655000D03*
X100620000Y-120655000D03*
X103160000Y-118115000D03*
X100620000Y-118115000D03*
X103160000Y-115575000D03*
X100620000Y-115575000D03*
X103160000Y-113035000D03*
X100620000Y-113035000D03*
X103160000Y-110495000D03*
X100620000Y-110495000D03*
X103160000Y-107955000D03*
X100620000Y-107955000D03*
X103160000Y-105415000D03*
X100620000Y-105415000D03*
X103160000Y-102875000D03*
X100620000Y-102875000D03*
X103160000Y-100335000D03*
X100620000Y-100335000D03*
X103160000Y-97795000D03*
X100620000Y-97795000D03*
X103160000Y-95255000D03*
X100620000Y-95255000D03*
X103160000Y-92715000D03*
X100620000Y-92715000D03*
X103160000Y-90175000D03*
X100620000Y-90175000D03*
X103160000Y-87635000D03*
X100620000Y-87635000D03*
X103160000Y-85095000D03*
X100620000Y-85095000D03*
X103160000Y-82555000D03*
X100620000Y-82555000D03*
X103160000Y-80015000D03*
X100620000Y-80015000D03*
X103160000Y-77475000D03*
X100620000Y-77475000D03*
X103160000Y-74935000D03*
X100620000Y-74935000D03*
X103160000Y-72395000D03*
X100620000Y-72395000D03*
X103160000Y-69855000D03*
X100620000Y-69855000D03*
X103160000Y-67315000D03*
X100620000Y-67315000D03*
X103160000Y-64775000D03*
X100620000Y-64775000D03*
X103160000Y-62235000D03*
X100620000Y-62235000D03*
X103160000Y-59695000D03*
X100620000Y-59695000D03*
X103160000Y-57155000D03*
X100620000Y-57155000D03*
D17*
X177038000Y-82546000D03*
X179578000Y-82546000D03*
X182118000Y-82546000D03*
X184658000Y-82546000D03*
X187198000Y-82546000D03*
X177038000Y-85086000D03*
X179578000Y-85086000D03*
X182118000Y-85086000D03*
X184658000Y-85086000D03*
X187198000Y-85086000D03*
X123698000Y-67312000D03*
X123698000Y-64772000D03*
X123698000Y-62232000D03*
X123698000Y-59692000D03*
X123698000Y-57152000D03*
X126238000Y-67312000D03*
X126238000Y-64772000D03*
X126238000Y-62232000D03*
X126238000Y-59692000D03*
X126238000Y-57152000D03*
X177038000Y-72388000D03*
X179578000Y-72388000D03*
X182118000Y-72388000D03*
X184658000Y-72388000D03*
X187198000Y-72388000D03*
X177038000Y-74928000D03*
X179578000Y-74928000D03*
X182118000Y-74928000D03*
X184658000Y-74928000D03*
X187198000Y-74928000D03*
X177038000Y-133352000D03*
X179578000Y-133352000D03*
X182118000Y-133352000D03*
X184658000Y-133352000D03*
X187198000Y-133352000D03*
X177038000Y-135892000D03*
X179578000Y-135892000D03*
X182118000Y-135892000D03*
X184658000Y-135892000D03*
X187198000Y-135892000D03*
X177038000Y-107950000D03*
X179578000Y-107950000D03*
X182118000Y-107950000D03*
X184658000Y-107950000D03*
X187198000Y-107950000D03*
X177038000Y-110490000D03*
X179578000Y-110490000D03*
X182118000Y-110490000D03*
X184658000Y-110490000D03*
X187198000Y-110490000D03*
X189740000Y-80010000D03*
X189740000Y-77470000D03*
X189740000Y-74930000D03*
X189740000Y-72390000D03*
X189740000Y-69850000D03*
X192280000Y-80010000D03*
X192280000Y-77470000D03*
X192280000Y-74930000D03*
X192280000Y-72390000D03*
X192280000Y-69850000D03*
X128778000Y-67310000D03*
X131318000Y-67310000D03*
X133858000Y-67310000D03*
X136398000Y-67310000D03*
X138938000Y-67310000D03*
X128778000Y-69850000D03*
X131318000Y-69850000D03*
X133858000Y-69850000D03*
X136398000Y-69850000D03*
X138938000Y-69850000D03*
X123698000Y-105412000D03*
X123698000Y-102872000D03*
X123698000Y-100332000D03*
X123698000Y-97792000D03*
X123698000Y-95252000D03*
X126238000Y-105412000D03*
X126238000Y-102872000D03*
X126238000Y-100332000D03*
X126238000Y-97792000D03*
X126238000Y-95252000D03*
X128778000Y-57152000D03*
X131318000Y-57152000D03*
X133858000Y-57152000D03*
X136398000Y-57152000D03*
X138938000Y-57152000D03*
X128778000Y-59692000D03*
X131318000Y-59692000D03*
X133858000Y-59692000D03*
X136398000Y-59692000D03*
X138938000Y-59692000D03*
X128778000Y-97792000D03*
X131318000Y-97792000D03*
X133858000Y-97792000D03*
X136398000Y-97792000D03*
X138938000Y-97792000D03*
X128778000Y-100332000D03*
X131318000Y-100332000D03*
X133858000Y-100332000D03*
X136398000Y-100332000D03*
X138938000Y-100332000D03*
X177038000Y-62230000D03*
X179578000Y-62230000D03*
X182118000Y-62230000D03*
X184658000Y-62230000D03*
X187198000Y-62230000D03*
X177038000Y-64770000D03*
X179578000Y-64770000D03*
X182118000Y-64770000D03*
X184658000Y-64770000D03*
X187198000Y-64770000D03*
X161798000Y-72390000D03*
X164338000Y-72390000D03*
X166878000Y-72390000D03*
X169418000Y-72390000D03*
X171958000Y-72390000D03*
X161798000Y-74930000D03*
X164338000Y-74930000D03*
X166878000Y-74930000D03*
X169418000Y-74930000D03*
X171958000Y-74930000D03*
X128778000Y-72392000D03*
X131318000Y-72392000D03*
X133858000Y-72392000D03*
X136398000Y-72392000D03*
X138938000Y-72392000D03*
X128778000Y-74932000D03*
X131318000Y-74932000D03*
X133858000Y-74932000D03*
X136398000Y-74932000D03*
X138938000Y-74932000D03*
X156718000Y-92712000D03*
X156718000Y-90172000D03*
X156718000Y-87632000D03*
X156718000Y-85092000D03*
X156718000Y-82552000D03*
X159258000Y-92712000D03*
X159258000Y-90172000D03*
X159258000Y-87632000D03*
X159258000Y-85092000D03*
X159258000Y-82552000D03*
X177038000Y-113026000D03*
X179578000Y-113026000D03*
X182118000Y-113026000D03*
X184658000Y-113026000D03*
X187198000Y-113026000D03*
X177038000Y-115566000D03*
X179578000Y-115566000D03*
X182118000Y-115566000D03*
X184658000Y-115566000D03*
X187198000Y-115566000D03*
X161798000Y-77470000D03*
X164338000Y-77470000D03*
X166878000Y-77470000D03*
X169418000Y-77470000D03*
X171958000Y-77470000D03*
X161798000Y-80010000D03*
X164338000Y-80010000D03*
X166878000Y-80010000D03*
X169418000Y-80010000D03*
X171958000Y-80010000D03*
X144018000Y-107952000D03*
X146558000Y-107952000D03*
X149098000Y-107952000D03*
X151638000Y-107952000D03*
X154178000Y-107952000D03*
X144018000Y-110492000D03*
X146558000Y-110492000D03*
X149098000Y-110492000D03*
X151638000Y-110492000D03*
X154178000Y-110492000D03*
X144018000Y-87632000D03*
X146558000Y-87632000D03*
X149098000Y-87632000D03*
X151638000Y-87632000D03*
X154178000Y-87632000D03*
X144018000Y-90172000D03*
X146558000Y-90172000D03*
X149098000Y-90172000D03*
X151638000Y-90172000D03*
X154178000Y-90172000D03*
X161798000Y-97790000D03*
X164338000Y-97790000D03*
X166878000Y-97790000D03*
X169418000Y-97790000D03*
X171958000Y-97790000D03*
X161798000Y-100330000D03*
X164338000Y-100330000D03*
X166878000Y-100330000D03*
X169418000Y-100330000D03*
X171958000Y-100330000D03*
X161798000Y-128276000D03*
X164338000Y-128276000D03*
X166878000Y-128276000D03*
X169418000Y-128276000D03*
X171958000Y-128276000D03*
X161798000Y-130816000D03*
X164338000Y-130816000D03*
X166878000Y-130816000D03*
X169418000Y-130816000D03*
X171958000Y-130816000D03*
X161798000Y-133356000D03*
X164338000Y-133356000D03*
X166878000Y-133356000D03*
X169418000Y-133356000D03*
X171958000Y-133356000D03*
X161798000Y-135896000D03*
X164338000Y-135896000D03*
X166878000Y-135896000D03*
X169418000Y-135896000D03*
X171958000Y-135896000D03*
X128778000Y-62234000D03*
X131318000Y-62234000D03*
X133858000Y-62234000D03*
X136398000Y-62234000D03*
X138938000Y-62234000D03*
X128778000Y-64774000D03*
X131318000Y-64774000D03*
X133858000Y-64774000D03*
X136398000Y-64774000D03*
X138938000Y-64774000D03*
X177038000Y-128272000D03*
X179578000Y-128272000D03*
X182118000Y-128272000D03*
X184658000Y-128272000D03*
X187198000Y-128272000D03*
X177038000Y-130812000D03*
X179578000Y-130812000D03*
X182118000Y-130812000D03*
X184658000Y-130812000D03*
X187198000Y-130812000D03*
X144018000Y-72394000D03*
X146558000Y-72394000D03*
X149098000Y-72394000D03*
X151638000Y-72394000D03*
X154178000Y-72394000D03*
X144018000Y-74934000D03*
X146558000Y-74934000D03*
X149098000Y-74934000D03*
X151638000Y-74934000D03*
X154178000Y-74934000D03*
X161798000Y-123196000D03*
X164338000Y-123196000D03*
X166878000Y-123196000D03*
X169418000Y-123196000D03*
X171958000Y-123196000D03*
X161798000Y-125736000D03*
X164338000Y-125736000D03*
X166878000Y-125736000D03*
X169418000Y-125736000D03*
X171958000Y-125736000D03*
X144018000Y-67312000D03*
X146558000Y-67312000D03*
X149098000Y-67312000D03*
X151638000Y-67312000D03*
X154178000Y-67312000D03*
X144018000Y-69852000D03*
X146558000Y-69852000D03*
X149098000Y-69852000D03*
X151638000Y-69852000D03*
X154178000Y-69852000D03*
X177038000Y-57150000D03*
X179578000Y-57150000D03*
X182118000Y-57150000D03*
X184658000Y-57150000D03*
X187198000Y-57150000D03*
X177038000Y-59690000D03*
X179578000Y-59690000D03*
X182118000Y-59690000D03*
X184658000Y-59690000D03*
X187198000Y-59690000D03*
X156720000Y-130810000D03*
X156720000Y-128270000D03*
X156720000Y-125730000D03*
X156720000Y-123190000D03*
X156720000Y-120650000D03*
X159260000Y-130810000D03*
X159260000Y-128270000D03*
X159260000Y-125730000D03*
X159260000Y-123190000D03*
X159260000Y-120650000D03*
X144018000Y-97794000D03*
X146558000Y-97794000D03*
X149098000Y-97794000D03*
X151638000Y-97794000D03*
X154178000Y-97794000D03*
X144018000Y-100334000D03*
X146558000Y-100334000D03*
X149098000Y-100334000D03*
X151638000Y-100334000D03*
X154178000Y-100334000D03*
X156720000Y-118110000D03*
X156720000Y-115570000D03*
X156720000Y-113030000D03*
X156720000Y-110490000D03*
X156720000Y-107950000D03*
X159260000Y-118110000D03*
X159260000Y-115570000D03*
X159260000Y-113030000D03*
X159260000Y-110490000D03*
X159260000Y-107950000D03*
X144018000Y-57152000D03*
X146558000Y-57152000D03*
X149098000Y-57152000D03*
X151638000Y-57152000D03*
X154178000Y-57152000D03*
X144018000Y-59692000D03*
X146558000Y-59692000D03*
X149098000Y-59692000D03*
X151638000Y-59692000D03*
X154178000Y-59692000D03*
X123698000Y-118112000D03*
X123698000Y-115572000D03*
X123698000Y-113032000D03*
X123698000Y-110492000D03*
X123698000Y-107952000D03*
X126238000Y-118112000D03*
X126238000Y-115572000D03*
X126238000Y-113032000D03*
X126238000Y-110492000D03*
X126238000Y-107952000D03*
X161798000Y-62232000D03*
X164338000Y-62232000D03*
X166878000Y-62232000D03*
X169418000Y-62232000D03*
X171958000Y-62232000D03*
X161798000Y-64772000D03*
X164338000Y-64772000D03*
X166878000Y-64772000D03*
X169418000Y-64772000D03*
X171958000Y-64772000D03*
X177038000Y-87628000D03*
X179578000Y-87628000D03*
X182118000Y-87628000D03*
X184658000Y-87628000D03*
X187198000Y-87628000D03*
X177038000Y-90168000D03*
X179578000Y-90168000D03*
X182118000Y-90168000D03*
X184658000Y-90168000D03*
X187198000Y-90168000D03*
X161798000Y-118110000D03*
X164338000Y-118110000D03*
X166878000Y-118110000D03*
X169418000Y-118110000D03*
X171958000Y-118110000D03*
X161798000Y-120650000D03*
X164338000Y-120650000D03*
X166878000Y-120650000D03*
X169418000Y-120650000D03*
X171958000Y-120650000D03*
X177038000Y-92710000D03*
X179578000Y-92710000D03*
X182118000Y-92710000D03*
X184658000Y-92710000D03*
X187198000Y-92710000D03*
X177038000Y-95250000D03*
X179578000Y-95250000D03*
X182118000Y-95250000D03*
X184658000Y-95250000D03*
X187198000Y-95250000D03*
X177038000Y-102868000D03*
X179578000Y-102868000D03*
X182118000Y-102868000D03*
X184658000Y-102868000D03*
X187198000Y-102868000D03*
X177038000Y-105408000D03*
X179578000Y-105408000D03*
X182118000Y-105408000D03*
X184658000Y-105408000D03*
X187198000Y-105408000D03*
X161798000Y-87628000D03*
X164338000Y-87628000D03*
X166878000Y-87628000D03*
X169418000Y-87628000D03*
X171958000Y-87628000D03*
X161798000Y-90168000D03*
X164338000Y-90168000D03*
X166878000Y-90168000D03*
X169418000Y-90168000D03*
X171958000Y-90168000D03*
X144018000Y-118110000D03*
X146558000Y-118110000D03*
X149098000Y-118110000D03*
X151638000Y-118110000D03*
X154178000Y-118110000D03*
X144018000Y-120650000D03*
X146558000Y-120650000D03*
X149098000Y-120650000D03*
X151638000Y-120650000D03*
X154178000Y-120650000D03*
X189740000Y-118110000D03*
X189740000Y-115570000D03*
X189740000Y-113030000D03*
X189740000Y-110490000D03*
X189740000Y-107950000D03*
X192280000Y-118110000D03*
X192280000Y-115570000D03*
X192280000Y-113030000D03*
X192280000Y-110490000D03*
X192280000Y-107950000D03*
X128778000Y-92712000D03*
X131318000Y-92712000D03*
X133858000Y-92712000D03*
X136398000Y-92712000D03*
X138938000Y-92712000D03*
X128778000Y-95252000D03*
X131318000Y-95252000D03*
X133858000Y-95252000D03*
X136398000Y-95252000D03*
X138938000Y-95252000D03*
X156718000Y-135894000D03*
X159258000Y-135894000D03*
X156718000Y-133354000D03*
X159258000Y-133354000D03*
X161798000Y-107948000D03*
X164338000Y-107948000D03*
X166878000Y-107948000D03*
X169418000Y-107948000D03*
X171958000Y-107948000D03*
X161798000Y-110488000D03*
X164338000Y-110488000D03*
X166878000Y-110488000D03*
X169418000Y-110488000D03*
X171958000Y-110488000D03*
X144018000Y-62236000D03*
X146558000Y-62236000D03*
X149098000Y-62236000D03*
X151638000Y-62236000D03*
X154178000Y-62236000D03*
X144018000Y-64776000D03*
X146558000Y-64776000D03*
X149098000Y-64776000D03*
X151638000Y-64776000D03*
X154178000Y-64776000D03*
X128778000Y-87630000D03*
X131318000Y-87630000D03*
X133858000Y-87630000D03*
X136398000Y-87630000D03*
X138938000Y-87630000D03*
X128778000Y-90170000D03*
X131318000Y-90170000D03*
X133858000Y-90170000D03*
X136398000Y-90170000D03*
X138938000Y-90170000D03*
X123698000Y-80012000D03*
X123698000Y-77472000D03*
X123698000Y-74932000D03*
X123698000Y-72392000D03*
X123698000Y-69852000D03*
X126238000Y-80012000D03*
X126238000Y-77472000D03*
X126238000Y-74932000D03*
X126238000Y-72392000D03*
X126238000Y-69852000D03*
M02*
