M48
; DRILL file {KiCad (6.0.2)} date Sun Oct 16 09:30:03 2022
; FORMAT={-:-/ absolute / inch / decimal}
; #@! TF.CreationDate,2022-10-16T09:30:03-07:00
; #@! TF.GenerationSoftware,Kicad,Pcbnew,(6.0.2)
; #@! TF.FileFunction,Plated,1,2,PTH
FMAT,2
INCH
; #@! TA.AperFunction,Plated,PTH,ComponentDrill
T1C0.0300
; #@! TA.AperFunction,Plated,PTH,ComponentDrill
T2C0.0394
%
G90
G05
T1
X4.87Y-2.2501
X4.87Y-2.3501
X4.87Y-2.4501
X4.87Y-2.5501
X4.87Y-2.6501
X4.87Y-2.7501
X4.87Y-2.8501
X4.87Y-2.9501
X4.87Y-3.0501
X4.87Y-3.1501
X4.87Y-3.2501
X4.87Y-3.3501
X4.87Y-3.4501
X4.87Y-3.5501
X4.87Y-3.6501
X4.87Y-3.7501
X4.87Y-3.8501
X4.87Y-3.9501
X4.87Y-4.0501
X4.87Y-4.1501
X4.87Y-4.2501
X4.87Y-4.3501
X4.87Y-4.4501
X4.87Y-4.5501
X4.87Y-4.6501
X4.87Y-4.75
X4.87Y-4.85
X4.87Y-4.95
X4.87Y-5.05
X4.87Y-5.15
X4.87Y-5.25
X4.87Y-5.35
X4.97Y-2.2501
X4.97Y-2.3501
X4.97Y-2.4501
X4.97Y-2.5501
X4.97Y-2.6501
X4.97Y-2.7501
X4.97Y-2.8501
X4.97Y-2.9501
X4.97Y-3.0501
X4.97Y-3.1501
X4.97Y-3.2501
X4.97Y-3.3501
X4.97Y-3.4501
X4.97Y-3.5501
X4.97Y-3.6501
X4.97Y-3.7501
X4.97Y-3.8501
X4.97Y-3.9501
X4.97Y-4.0501
X4.97Y-4.1501
X4.97Y-4.2501
X4.97Y-4.3501
X4.97Y-4.4501
X4.97Y-4.5501
X4.97Y-4.6501
X4.97Y-4.75
X4.97Y-4.85
X4.97Y-4.95
X4.97Y-5.05
X4.97Y-5.15
X4.97Y-5.25
X4.97Y-5.35
X5.07Y-2.2501
X5.07Y-2.3501
X5.07Y-2.4502
X5.07Y-2.5502
X5.07Y-2.65
X5.07Y-2.75
X5.07Y-2.8501
X5.07Y-2.9501
X5.07Y-3.0501
X5.07Y-3.1501
X5.07Y-3.2502
X5.07Y-3.3502
X5.07Y-3.45
X5.07Y-3.55
X5.07Y-3.6501
X5.07Y-3.7501
X5.07Y-3.8501
X5.07Y-3.9501
X5.07Y-4.0502
X5.07Y-4.1502
X5.07Y-4.25
X5.07Y-4.35
X5.07Y-4.4501
X5.07Y-4.5501
X5.07Y-4.65
X5.07Y-4.75
X5.07Y-4.8501
X5.07Y-4.9501
X5.07Y-5.0499
X5.07Y-5.1499
X5.07Y-5.25
X5.07Y-5.35
X5.17Y-2.2501
X5.17Y-2.3501
X5.17Y-2.4502
X5.17Y-2.5502
X5.17Y-2.65
X5.17Y-2.75
X5.17Y-2.8501
X5.17Y-2.9501
X5.17Y-3.0501
X5.17Y-3.1501
X5.17Y-3.2502
X5.17Y-3.3502
X5.17Y-3.45
X5.17Y-3.55
X5.17Y-3.6501
X5.17Y-3.7501
X5.17Y-3.8501
X5.17Y-3.9501
X5.17Y-4.0502
X5.17Y-4.1502
X5.17Y-4.25
X5.17Y-4.35
X5.17Y-4.4501
X5.17Y-4.5501
X5.17Y-4.65
X5.17Y-4.75
X5.17Y-4.8501
X5.17Y-4.9501
X5.17Y-5.0499
X5.17Y-5.1499
X5.17Y-5.25
X5.17Y-5.35
X5.27Y-2.2501
X5.27Y-2.3501
X5.27Y-2.4502
X5.27Y-2.5502
X5.27Y-2.65
X5.27Y-2.75
X5.27Y-2.8501
X5.27Y-2.9501
X5.27Y-3.0501
X5.27Y-3.1501
X5.27Y-3.2502
X5.27Y-3.3502
X5.27Y-3.45
X5.27Y-3.55
X5.27Y-3.6501
X5.27Y-3.7501
X5.27Y-3.8501
X5.27Y-3.9501
X5.27Y-4.0502
X5.27Y-4.1502
X5.27Y-4.25
X5.27Y-4.35
X5.27Y-4.4501
X5.27Y-4.5501
X5.27Y-4.65
X5.27Y-4.75
X5.27Y-4.8501
X5.27Y-4.9501
X5.27Y-5.0499
X5.27Y-5.1499
X5.27Y-5.25
X5.27Y-5.35
X5.37Y-2.2501
X5.37Y-2.3501
X5.37Y-2.4502
X5.37Y-2.5502
X5.37Y-2.65
X5.37Y-2.75
X5.37Y-2.8501
X5.37Y-2.9501
X5.37Y-3.0501
X5.37Y-3.1501
X5.37Y-3.2502
X5.37Y-3.3502
X5.37Y-3.45
X5.37Y-3.55
X5.37Y-3.6501
X5.37Y-3.7501
X5.37Y-3.8501
X5.37Y-3.9501
X5.37Y-4.0502
X5.37Y-4.1502
X5.37Y-4.25
X5.37Y-4.35
X5.37Y-4.4501
X5.37Y-4.5501
X5.37Y-4.65
X5.37Y-4.75
X5.37Y-4.8501
X5.37Y-4.9501
X5.37Y-5.0499
X5.37Y-5.1499
X5.37Y-5.25
X5.37Y-5.35
X5.47Y-2.2501
X5.47Y-2.3501
X5.47Y-2.4502
X5.47Y-2.5502
X5.47Y-2.65
X5.47Y-2.75
X5.47Y-2.8501
X5.47Y-2.9501
X5.47Y-3.0501
X5.47Y-3.1501
X5.47Y-3.2502
X5.47Y-3.3502
X5.47Y-3.45
X5.47Y-3.55
X5.47Y-3.6501
X5.47Y-3.7501
X5.47Y-3.8501
X5.47Y-3.9501
X5.47Y-4.0502
X5.47Y-4.1502
X5.47Y-4.25
X5.47Y-4.35
X5.47Y-4.4501
X5.47Y-4.5501
X5.47Y-4.65
X5.47Y-4.75
X5.47Y-4.8501
X5.47Y-4.9501
X5.47Y-5.0499
X5.47Y-5.1499
X5.47Y-5.25
X5.47Y-5.35
X5.67Y-2.2501
X5.67Y-2.3501
X5.67Y-2.4502
X5.67Y-2.5502
X5.67Y-2.6501
X5.67Y-2.7501
X5.67Y-2.8502
X5.67Y-2.9502
X5.67Y-3.0502
X5.67Y-3.1502
X5.67Y-3.2502
X5.67Y-3.3502
X5.67Y-3.4501
X5.67Y-3.5501
X5.67Y-3.6502
X5.67Y-3.7502
X5.67Y-3.8502
X5.67Y-3.9502
X5.67Y-4.0502
X5.67Y-4.1502
X5.67Y-4.2501
X5.67Y-4.3501
X5.67Y-4.4502
X5.67Y-4.5502
X5.67Y-4.65
X5.67Y-4.75
X5.67Y-4.8502
X5.67Y-4.9502
X5.67Y-5.05
X5.67Y-5.15
X5.67Y-5.2501
X5.67Y-5.3501
X5.77Y-2.2501
X5.77Y-2.3501
X5.77Y-2.4502
X5.77Y-2.5502
X5.77Y-2.6501
X5.77Y-2.7501
X5.77Y-2.8502
X5.77Y-2.9502
X5.77Y-3.0502
X5.77Y-3.1502
X5.77Y-3.2502
X5.77Y-3.3502
X5.77Y-3.4501
X5.77Y-3.5501
X5.77Y-3.6502
X5.77Y-3.7502
X5.77Y-3.8502
X5.77Y-3.9502
X5.77Y-4.0502
X5.77Y-4.1502
X5.77Y-4.2501
X5.77Y-4.3501
X5.77Y-4.4502
X5.77Y-4.5502
X5.77Y-4.65
X5.77Y-4.75
X5.77Y-4.8502
X5.77Y-4.9502
X5.77Y-5.05
X5.77Y-5.15
X5.77Y-5.2501
X5.77Y-5.3501
X5.87Y-2.2501
X5.87Y-2.3501
X5.87Y-2.4502
X5.87Y-2.5502
X5.87Y-2.6501
X5.87Y-2.7501
X5.87Y-2.8502
X5.87Y-2.9502
X5.87Y-3.0502
X5.87Y-3.1502
X5.87Y-3.2502
X5.87Y-3.3502
X5.87Y-3.4501
X5.87Y-3.5501
X5.87Y-3.6502
X5.87Y-3.7502
X5.87Y-3.8502
X5.87Y-3.9502
X5.87Y-4.0502
X5.87Y-4.1502
X5.87Y-4.2501
X5.87Y-4.3501
X5.87Y-4.4502
X5.87Y-4.5502
X5.87Y-4.65
X5.87Y-4.75
X5.87Y-4.8502
X5.87Y-4.9502
X5.87Y-5.05
X5.87Y-5.15
X5.87Y-5.2501
X5.87Y-5.3501
X5.97Y-2.2501
X5.97Y-2.3501
X5.97Y-2.4502
X5.97Y-2.5502
X5.97Y-2.6501
X5.97Y-2.7501
X5.97Y-2.8502
X5.97Y-2.9502
X5.97Y-3.0502
X5.97Y-3.1502
X5.97Y-3.2502
X5.97Y-3.3502
X5.97Y-3.4501
X5.97Y-3.5501
X5.97Y-3.6502
X5.97Y-3.7502
X5.97Y-3.8502
X5.97Y-3.9502
X5.97Y-4.0502
X5.97Y-4.1502
X5.97Y-4.2501
X5.97Y-4.3501
X5.97Y-4.4502
X5.97Y-4.5502
X5.97Y-4.65
X5.97Y-4.75
X5.97Y-4.8502
X5.97Y-4.9502
X5.97Y-5.05
X5.97Y-5.15
X5.97Y-5.2501
X5.97Y-5.3501
X6.07Y-2.2501
X6.07Y-2.3501
X6.07Y-2.4502
X6.07Y-2.5502
X6.07Y-2.6501
X6.07Y-2.7501
X6.07Y-2.8502
X6.07Y-2.9502
X6.07Y-3.0502
X6.07Y-3.1502
X6.07Y-3.2502
X6.07Y-3.3502
X6.07Y-3.4501
X6.07Y-3.5501
X6.07Y-3.6502
X6.07Y-3.7502
X6.07Y-3.8502
X6.07Y-3.9502
X6.07Y-4.0502
X6.07Y-4.1502
X6.07Y-4.2501
X6.07Y-4.3501
X6.07Y-4.4502
X6.07Y-4.5502
X6.07Y-4.65
X6.07Y-4.75
X6.07Y-4.8502
X6.07Y-4.9502
X6.07Y-5.05
X6.07Y-5.15
X6.07Y-5.2501
X6.07Y-5.3501
X6.17Y-2.2501
X6.17Y-2.3501
X6.17Y-2.4501
X6.17Y-2.5501
X6.17Y-2.6501
X6.17Y-2.7501
X6.17Y-2.8501
X6.17Y-2.9501
X6.17Y-3.0501
X6.17Y-3.1501
X6.17Y-3.2501
X6.17Y-3.3501
X6.17Y-3.4501
X6.17Y-3.5501
X6.17Y-3.6501
X6.17Y-3.7501
X6.17Y-3.8501
X6.17Y-3.9501
X6.17Y-4.0501
X6.17Y-4.1501
X6.17Y-5.2502
X6.17Y-5.3502
X6.1701Y-4.25
X6.1701Y-4.35
X6.1701Y-4.45
X6.1701Y-4.55
X6.1701Y-4.65
X6.1701Y-4.75
X6.1701Y-4.85
X6.1701Y-4.95
X6.1701Y-5.05
X6.1701Y-5.15
X6.27Y-2.2501
X6.27Y-2.3501
X6.27Y-2.4501
X6.27Y-2.5501
X6.27Y-2.6501
X6.27Y-2.7501
X6.27Y-2.8501
X6.27Y-2.9501
X6.27Y-3.0501
X6.27Y-3.1501
X6.27Y-3.2501
X6.27Y-3.3501
X6.27Y-3.4501
X6.27Y-3.5501
X6.27Y-3.6501
X6.27Y-3.7501
X6.27Y-3.8501
X6.27Y-3.9501
X6.27Y-4.0501
X6.27Y-4.1501
X6.27Y-5.2502
X6.27Y-5.3502
X6.2701Y-4.25
X6.2701Y-4.35
X6.2701Y-4.45
X6.2701Y-4.55
X6.2701Y-4.65
X6.2701Y-4.75
X6.2701Y-4.85
X6.2701Y-4.95
X6.2701Y-5.05
X6.2701Y-5.15
X6.37Y-2.25
X6.37Y-2.35
X6.37Y-2.4501
X6.37Y-2.5501
X6.37Y-2.6499
X6.37Y-2.7499
X6.37Y-2.85
X6.37Y-2.95
X6.37Y-3.05
X6.37Y-3.15
X6.37Y-3.2501
X6.37Y-3.3501
X6.37Y-3.4499
X6.37Y-3.5499
X6.37Y-3.65
X6.37Y-3.75
X6.37Y-3.85
X6.37Y-3.95
X6.37Y-4.0501
X6.37Y-4.1501
X6.37Y-4.2499
X6.37Y-4.3499
X6.37Y-4.45
X6.37Y-4.55
X6.37Y-4.65
X6.37Y-4.75
X6.37Y-4.8502
X6.37Y-4.9502
X6.37Y-5.0502
X6.37Y-5.1502
X6.37Y-5.2502
X6.37Y-5.3502
X6.47Y-2.25
X6.47Y-2.35
X6.47Y-2.4501
X6.47Y-2.5501
X6.47Y-2.6499
X6.47Y-2.7499
X6.47Y-2.85
X6.47Y-2.95
X6.47Y-3.05
X6.47Y-3.15
X6.47Y-3.2501
X6.47Y-3.3501
X6.47Y-3.4499
X6.47Y-3.5499
X6.47Y-3.65
X6.47Y-3.75
X6.47Y-3.85
X6.47Y-3.95
X6.47Y-4.0501
X6.47Y-4.1501
X6.47Y-4.2499
X6.47Y-4.3499
X6.47Y-4.45
X6.47Y-4.55
X6.47Y-4.65
X6.47Y-4.75
X6.47Y-4.8502
X6.47Y-4.9502
X6.47Y-5.0502
X6.47Y-5.1502
X6.47Y-5.2502
X6.47Y-5.3502
X6.57Y-2.25
X6.57Y-2.35
X6.57Y-2.4501
X6.57Y-2.5501
X6.57Y-2.6499
X6.57Y-2.7499
X6.57Y-2.85
X6.57Y-2.95
X6.57Y-3.05
X6.57Y-3.15
X6.57Y-3.2501
X6.57Y-3.3501
X6.57Y-3.4499
X6.57Y-3.5499
X6.57Y-3.65
X6.57Y-3.75
X6.57Y-3.85
X6.57Y-3.95
X6.57Y-4.0501
X6.57Y-4.1501
X6.57Y-4.2499
X6.57Y-4.3499
X6.57Y-4.45
X6.57Y-4.55
X6.57Y-4.65
X6.57Y-4.75
X6.57Y-4.8502
X6.57Y-4.9502
X6.57Y-5.0502
X6.57Y-5.1502
X6.57Y-5.2502
X6.57Y-5.3502
X6.67Y-2.25
X6.67Y-2.35
X6.67Y-2.4501
X6.67Y-2.5501
X6.67Y-2.6499
X6.67Y-2.7499
X6.67Y-2.85
X6.67Y-2.95
X6.67Y-3.05
X6.67Y-3.15
X6.67Y-3.2501
X6.67Y-3.3501
X6.67Y-3.4499
X6.67Y-3.5499
X6.67Y-3.65
X6.67Y-3.75
X6.67Y-3.85
X6.67Y-3.95
X6.67Y-4.0501
X6.67Y-4.1501
X6.67Y-4.2499
X6.67Y-4.3499
X6.67Y-4.45
X6.67Y-4.55
X6.67Y-4.65
X6.67Y-4.75
X6.67Y-4.8502
X6.67Y-4.9502
X6.67Y-5.0502
X6.67Y-5.1502
X6.67Y-5.2502
X6.67Y-5.3502
X6.77Y-2.25
X6.77Y-2.35
X6.77Y-2.4501
X6.77Y-2.5501
X6.77Y-2.6499
X6.77Y-2.7499
X6.77Y-2.85
X6.77Y-2.95
X6.77Y-3.05
X6.77Y-3.15
X6.77Y-3.2501
X6.77Y-3.3501
X6.77Y-3.4499
X6.77Y-3.5499
X6.77Y-3.65
X6.77Y-3.75
X6.77Y-3.85
X6.77Y-3.95
X6.77Y-4.0501
X6.77Y-4.1501
X6.77Y-4.2499
X6.77Y-4.3499
X6.77Y-4.45
X6.77Y-4.55
X6.77Y-4.65
X6.77Y-4.75
X6.77Y-4.8502
X6.77Y-4.9502
X6.77Y-5.0502
X6.77Y-5.1502
X6.77Y-5.2502
X6.77Y-5.3502
X6.97Y-2.25
X6.97Y-2.35
X6.97Y-2.45
X6.97Y-2.55
X6.97Y-2.6498
X6.97Y-2.7498
X6.97Y-2.8499
X6.97Y-2.9499
X6.97Y-3.05
X6.97Y-3.15
X6.97Y-3.2498
X6.97Y-3.3498
X6.97Y-3.4499
X6.97Y-3.5499
X6.97Y-3.65
X6.97Y-3.75
X6.97Y-3.8498
X6.97Y-3.9498
X6.97Y-4.0499
X6.97Y-4.1499
X6.97Y-4.25
X6.97Y-4.35
X6.97Y-4.4498
X6.97Y-4.5498
X6.97Y-4.6499
X6.97Y-4.7499
X6.97Y-4.8501
X6.97Y-4.9501
X6.97Y-5.0501
X6.97Y-5.1501
X6.97Y-5.2501
X6.97Y-5.3501
X7.07Y-2.25
X7.07Y-2.35
X7.07Y-2.45
X7.07Y-2.55
X7.07Y-2.6498
X7.07Y-2.7498
X7.07Y-2.8499
X7.07Y-2.9499
X7.07Y-3.05
X7.07Y-3.15
X7.07Y-3.2498
X7.07Y-3.3498
X7.07Y-3.4499
X7.07Y-3.5499
X7.07Y-3.65
X7.07Y-3.75
X7.07Y-3.8498
X7.07Y-3.9498
X7.07Y-4.0499
X7.07Y-4.1499
X7.07Y-4.25
X7.07Y-4.35
X7.07Y-4.4498
X7.07Y-4.5498
X7.07Y-4.6499
X7.07Y-4.7499
X7.07Y-4.8501
X7.07Y-4.9501
X7.07Y-5.0501
X7.07Y-5.1501
X7.07Y-5.2501
X7.07Y-5.3501
X7.17Y-2.25
X7.17Y-2.35
X7.17Y-2.45
X7.17Y-2.55
X7.17Y-2.6498
X7.17Y-2.7498
X7.17Y-2.8499
X7.17Y-2.9499
X7.17Y-3.05
X7.17Y-3.15
X7.17Y-3.2498
X7.17Y-3.3498
X7.17Y-3.4499
X7.17Y-3.5499
X7.17Y-3.65
X7.17Y-3.75
X7.17Y-3.8498
X7.17Y-3.9498
X7.17Y-4.0499
X7.17Y-4.1499
X7.17Y-4.25
X7.17Y-4.35
X7.17Y-4.4498
X7.17Y-4.5498
X7.17Y-4.6499
X7.17Y-4.7499
X7.17Y-4.8501
X7.17Y-4.9501
X7.17Y-5.0501
X7.17Y-5.1501
X7.17Y-5.2501
X7.17Y-5.3501
X7.27Y-2.25
X7.27Y-2.35
X7.27Y-2.45
X7.27Y-2.55
X7.27Y-2.6498
X7.27Y-2.7498
X7.27Y-2.8499
X7.27Y-2.9499
X7.27Y-3.05
X7.27Y-3.15
X7.27Y-3.2498
X7.27Y-3.3498
X7.27Y-3.4499
X7.27Y-3.5499
X7.27Y-3.65
X7.27Y-3.75
X7.27Y-3.8498
X7.27Y-3.9498
X7.27Y-4.0499
X7.27Y-4.1499
X7.27Y-4.25
X7.27Y-4.35
X7.27Y-4.4498
X7.27Y-4.5498
X7.27Y-4.6499
X7.27Y-4.7499
X7.27Y-4.8501
X7.27Y-4.9501
X7.27Y-5.0501
X7.27Y-5.1501
X7.27Y-5.2501
X7.27Y-5.3501
X7.37Y-2.25
X7.37Y-2.35
X7.37Y-2.45
X7.37Y-2.55
X7.37Y-2.6498
X7.37Y-2.7498
X7.37Y-2.8499
X7.37Y-2.9499
X7.37Y-3.05
X7.37Y-3.15
X7.37Y-3.2498
X7.37Y-3.3498
X7.37Y-3.4499
X7.37Y-3.5499
X7.37Y-3.65
X7.37Y-3.75
X7.37Y-3.8498
X7.37Y-3.9498
X7.37Y-4.0499
X7.37Y-4.1499
X7.37Y-4.25
X7.37Y-4.35
X7.37Y-4.4498
X7.37Y-4.5498
X7.37Y-4.6499
X7.37Y-4.7499
X7.37Y-4.8501
X7.37Y-4.9501
X7.37Y-5.0501
X7.37Y-5.1501
X7.37Y-5.2501
X7.37Y-5.3501
X7.47Y-5.2501
X7.47Y-5.3501
X7.4701Y-2.25
X7.4701Y-2.35
X7.4701Y-2.45
X7.4701Y-2.55
X7.4701Y-2.65
X7.4701Y-2.75
X7.4701Y-2.85
X7.4701Y-2.95
X7.4701Y-3.05
X7.4701Y-3.15
X7.4701Y-3.25
X7.4701Y-3.35
X7.4701Y-3.45
X7.4701Y-3.55
X7.4701Y-3.65
X7.4701Y-3.75
X7.4701Y-3.85
X7.4701Y-3.95
X7.4701Y-4.05
X7.4701Y-4.15
X7.4701Y-4.25
X7.4701Y-4.35
X7.4701Y-4.45
X7.4701Y-4.55
X7.4701Y-4.65
X7.4701Y-4.75
X7.4701Y-4.85
X7.4701Y-4.95
X7.4701Y-5.05
X7.4701Y-5.15
X7.57Y-5.2501
X7.57Y-5.3501
X7.5701Y-2.25
X7.5701Y-2.35
X7.5701Y-2.45
X7.5701Y-2.55
X7.5701Y-2.65
X7.5701Y-2.75
X7.5701Y-2.85
X7.5701Y-2.95
X7.5701Y-3.05
X7.5701Y-3.15
X7.5701Y-3.25
X7.5701Y-3.35
X7.5701Y-3.45
X7.5701Y-3.55
X7.5701Y-3.65
X7.5701Y-3.75
X7.5701Y-3.85
X7.5701Y-3.95
X7.5701Y-4.05
X7.5701Y-4.15
X7.5701Y-4.25
X7.5701Y-4.35
X7.5701Y-4.45
X7.5701Y-4.55
X7.5701Y-4.65
X7.5701Y-4.75
X7.5701Y-4.85
X7.5701Y-4.95
X7.5701Y-5.05
X7.5701Y-5.15
T2
X3.9614Y-2.2502
X3.9614Y-2.3502
X3.9614Y-2.4502
X3.9614Y-2.5502
X3.9614Y-2.6502
X3.9614Y-2.7502
X3.9614Y-2.8502
X3.9614Y-2.9502
X3.9614Y-3.0502
X3.9614Y-3.1502
X3.9614Y-3.2502
X3.9614Y-3.3502
X3.9614Y-3.4502
X3.9614Y-3.5502
X3.9614Y-3.6502
X3.9614Y-3.7502
X3.9614Y-3.8502
X3.9614Y-3.9502
X3.9614Y-4.0502
X3.9614Y-4.1502
X3.9614Y-4.2502
X3.9614Y-4.3502
X3.9614Y-4.4502
X3.9614Y-4.5502
X3.9614Y-4.6502
X3.9614Y-4.7502
X3.9614Y-4.8502
X3.9614Y-4.9502
X3.9614Y-5.0502
X3.9614Y-5.1502
X3.9614Y-5.2502
X3.9614Y-5.3502
X4.0614Y-2.2502
X4.0614Y-2.3502
X4.0614Y-2.4502
X4.0614Y-2.5502
X4.0614Y-2.6502
X4.0614Y-2.7502
X4.0614Y-2.8502
X4.0614Y-2.9502
X4.0614Y-3.0502
X4.0614Y-3.1502
X4.0614Y-3.2502
X4.0614Y-3.3502
X4.0614Y-3.4502
X4.0614Y-3.5502
X4.0614Y-3.6502
X4.0614Y-3.7502
X4.0614Y-3.8502
X4.0614Y-3.9502
X4.0614Y-4.0502
X4.0614Y-4.1502
X4.0614Y-4.2502
X4.0614Y-4.3502
X4.0614Y-4.4502
X4.0614Y-4.5502
X4.0614Y-4.6502
X4.0614Y-4.7502
X4.0614Y-4.8502
X4.0614Y-4.9502
X4.0614Y-5.0502
X4.0614Y-5.1502
X4.0614Y-5.2502
X4.0614Y-5.3502
X4.43Y-2.25
X4.43Y-2.35
X4.43Y-2.45
X4.43Y-2.55
X4.43Y-2.65
X4.43Y-2.75
X4.43Y-2.85
X4.43Y-2.95
X4.43Y-3.05
X4.43Y-3.15
X4.43Y-3.25
X4.43Y-3.35
X4.43Y-3.45
X4.43Y-3.55
X4.43Y-3.65
X4.43Y-3.75
X4.43Y-3.85
X4.43Y-3.95
X4.43Y-4.05
X4.43Y-4.15
X4.43Y-4.25
X4.43Y-4.35
X4.43Y-4.45
X4.43Y-4.55
X4.43Y-4.65
X4.43Y-4.75
X4.43Y-4.85
X4.43Y-4.95
X4.43Y-5.05
X4.43Y-5.15
X4.43Y-5.25
X4.43Y-5.35
X4.53Y-2.25
X4.53Y-2.35
X4.53Y-2.45
X4.53Y-2.55
X4.53Y-2.65
X4.53Y-2.75
X4.53Y-2.85
X4.53Y-2.95
X4.53Y-3.05
X4.53Y-3.15
X4.53Y-3.25
X4.53Y-3.35
X4.53Y-3.45
X4.53Y-3.55
X4.53Y-3.65
X4.53Y-3.75
X4.53Y-3.85
X4.53Y-3.95
X4.53Y-4.05
X4.53Y-4.15
X4.53Y-4.25
X4.53Y-4.35
X4.53Y-4.45
X4.53Y-4.55
X4.53Y-4.65
X4.53Y-4.75
X4.53Y-4.85
X4.53Y-4.95
X4.53Y-5.05
X4.53Y-5.15
X4.53Y-5.25
X4.53Y-5.35
T0
M30
