%TF.GenerationSoftware,KiCad,Pcbnew,6.0.9*%
%TF.CreationDate,2022-11-14T08:14:38-08:00*%
%TF.ProjectId,Protoboard,50726f74-6f62-46f6-9172-642e6b696361,1.0*%
%TF.SameCoordinates,Original*%
%TF.FileFunction,Drillmap*%
%TF.FilePolarity,Positive*%
%FSLAX45Y45*%
G04 Gerber Fmt 4.5, Leading zero omitted, Abs format (unit mm)*
G04 Created by KiCad (PCBNEW 6.0.9) date 2022-11-14 08:14:38*
%MOMM*%
%LPD*%
G01*
G04 APERTURE LIST*
%ADD10C,0.100000*%
%ADD11C,0.200000*%
%ADD12C,0.320000*%
G04 APERTURE END LIST*
D10*
X19380200Y-14643100D02*
G75*
G03*
X19634200Y-14389100I0J254000D01*
G01*
X19380200Y-4660900D02*
X9906000Y-4660900D01*
X19634200Y-4914900D02*
G75*
G03*
X19380200Y-4660900I-254000J0D01*
G01*
X19634200Y-14389100D02*
X19634200Y-4914900D01*
X9906000Y-14643100D02*
X19380200Y-14643100D01*
X9906000Y-4660900D02*
G75*
G03*
X9652000Y-4914900I0J-254000D01*
G01*
X9652000Y-4914900D02*
X9652000Y-14389100D01*
X9652000Y-14389100D02*
G75*
G03*
X9906000Y-14643100I254000J0D01*
G01*
D11*
D12*
X10457200Y-4881900D02*
X10777200Y-5201900D01*
X10777200Y-4881900D02*
X10457200Y-5201900D01*
X10457200Y-14102100D02*
X10777200Y-14422100D01*
X10777200Y-14102100D02*
X10457200Y-14422100D01*
X19093200Y-4881900D02*
X19413200Y-5201900D01*
X19413200Y-4881900D02*
X19093200Y-5201900D01*
X19093200Y-14102100D02*
X19413200Y-14422100D01*
X19413200Y-14102100D02*
X19093200Y-14422100D01*
D11*
X9904619Y-14958576D02*
X9904619Y-14758576D01*
X9952238Y-14758576D01*
X9980810Y-14768100D01*
X9999857Y-14787148D01*
X10009381Y-14806195D01*
X10018905Y-14844290D01*
X10018905Y-14872862D01*
X10009381Y-14910957D01*
X9999857Y-14930005D01*
X9980810Y-14949052D01*
X9952238Y-14958576D01*
X9904619Y-14958576D01*
X10104619Y-14958576D02*
X10104619Y-14825243D01*
X10104619Y-14863338D02*
X10114143Y-14844290D01*
X10123667Y-14834767D01*
X10142714Y-14825243D01*
X10161762Y-14825243D01*
X10228429Y-14958576D02*
X10228429Y-14825243D01*
X10228429Y-14758576D02*
X10218905Y-14768100D01*
X10228429Y-14777624D01*
X10237952Y-14768100D01*
X10228429Y-14758576D01*
X10228429Y-14777624D01*
X10352238Y-14958576D02*
X10333190Y-14949052D01*
X10323667Y-14930005D01*
X10323667Y-14758576D01*
X10457000Y-14958576D02*
X10437952Y-14949052D01*
X10428429Y-14930005D01*
X10428429Y-14758576D01*
X10685571Y-14958576D02*
X10685571Y-14758576D01*
X10752238Y-14901433D01*
X10818905Y-14758576D01*
X10818905Y-14958576D01*
X10999857Y-14958576D02*
X10999857Y-14853814D01*
X10990333Y-14834767D01*
X10971286Y-14825243D01*
X10933190Y-14825243D01*
X10914143Y-14834767D01*
X10999857Y-14949052D02*
X10980810Y-14958576D01*
X10933190Y-14958576D01*
X10914143Y-14949052D01*
X10904619Y-14930005D01*
X10904619Y-14910957D01*
X10914143Y-14891909D01*
X10933190Y-14882386D01*
X10980810Y-14882386D01*
X10999857Y-14872862D01*
X11095095Y-14825243D02*
X11095095Y-15025243D01*
X11095095Y-14834767D02*
X11114143Y-14825243D01*
X11152238Y-14825243D01*
X11171286Y-14834767D01*
X11180810Y-14844290D01*
X11190333Y-14863338D01*
X11190333Y-14920481D01*
X11180810Y-14939528D01*
X11171286Y-14949052D01*
X11152238Y-14958576D01*
X11114143Y-14958576D01*
X11095095Y-14949052D01*
X11276048Y-14939528D02*
X11285571Y-14949052D01*
X11276048Y-14958576D01*
X11266524Y-14949052D01*
X11276048Y-14939528D01*
X11276048Y-14958576D01*
X11276048Y-14834767D02*
X11285571Y-14844290D01*
X11276048Y-14853814D01*
X11266524Y-14844290D01*
X11276048Y-14834767D01*
X11276048Y-14853814D01*
X9447000Y-15188100D02*
X9647000Y-15388100D01*
X9647000Y-15188100D02*
X9447000Y-15388100D01*
X9885571Y-15178576D02*
X10009381Y-15178576D01*
X9942714Y-15254767D01*
X9971286Y-15254767D01*
X9990333Y-15264290D01*
X9999857Y-15273814D01*
X10009381Y-15292862D01*
X10009381Y-15340481D01*
X9999857Y-15359528D01*
X9990333Y-15369052D01*
X9971286Y-15378576D01*
X9914143Y-15378576D01*
X9895095Y-15369052D01*
X9885571Y-15359528D01*
X10095095Y-15359528D02*
X10104619Y-15369052D01*
X10095095Y-15378576D01*
X10085571Y-15369052D01*
X10095095Y-15359528D01*
X10095095Y-15378576D01*
X10180810Y-15197624D02*
X10190333Y-15188100D01*
X10209381Y-15178576D01*
X10257000Y-15178576D01*
X10276048Y-15188100D01*
X10285571Y-15197624D01*
X10295095Y-15216671D01*
X10295095Y-15235719D01*
X10285571Y-15264290D01*
X10171286Y-15378576D01*
X10295095Y-15378576D01*
X10418905Y-15178576D02*
X10437952Y-15178576D01*
X10457000Y-15188100D01*
X10466524Y-15197624D01*
X10476048Y-15216671D01*
X10485571Y-15254767D01*
X10485571Y-15302386D01*
X10476048Y-15340481D01*
X10466524Y-15359528D01*
X10457000Y-15369052D01*
X10437952Y-15378576D01*
X10418905Y-15378576D01*
X10399857Y-15369052D01*
X10390333Y-15359528D01*
X10380810Y-15340481D01*
X10371286Y-15302386D01*
X10371286Y-15254767D01*
X10380810Y-15216671D01*
X10390333Y-15197624D01*
X10399857Y-15188100D01*
X10418905Y-15178576D01*
X10609381Y-15178576D02*
X10628429Y-15178576D01*
X10647476Y-15188100D01*
X10657000Y-15197624D01*
X10666524Y-15216671D01*
X10676048Y-15254767D01*
X10676048Y-15302386D01*
X10666524Y-15340481D01*
X10657000Y-15359528D01*
X10647476Y-15369052D01*
X10628429Y-15378576D01*
X10609381Y-15378576D01*
X10590333Y-15369052D01*
X10580810Y-15359528D01*
X10571286Y-15340481D01*
X10561762Y-15302386D01*
X10561762Y-15254767D01*
X10571286Y-15216671D01*
X10580810Y-15197624D01*
X10590333Y-15188100D01*
X10609381Y-15178576D01*
X10761762Y-15378576D02*
X10761762Y-15245243D01*
X10761762Y-15264290D02*
X10771286Y-15254767D01*
X10790333Y-15245243D01*
X10818905Y-15245243D01*
X10837952Y-15254767D01*
X10847476Y-15273814D01*
X10847476Y-15378576D01*
X10847476Y-15273814D02*
X10857000Y-15254767D01*
X10876048Y-15245243D01*
X10904619Y-15245243D01*
X10923667Y-15254767D01*
X10933190Y-15273814D01*
X10933190Y-15378576D01*
X11028429Y-15378576D02*
X11028429Y-15245243D01*
X11028429Y-15264290D02*
X11037952Y-15254767D01*
X11057000Y-15245243D01*
X11085571Y-15245243D01*
X11104619Y-15254767D01*
X11114143Y-15273814D01*
X11114143Y-15378576D01*
X11114143Y-15273814D02*
X11123667Y-15254767D01*
X11142714Y-15245243D01*
X11171286Y-15245243D01*
X11190333Y-15254767D01*
X11199857Y-15273814D01*
X11199857Y-15378576D01*
X11590333Y-15169052D02*
X11418905Y-15426195D01*
X11847476Y-15178576D02*
X11866524Y-15178576D01*
X11885571Y-15188100D01*
X11895095Y-15197624D01*
X11904619Y-15216671D01*
X11914143Y-15254767D01*
X11914143Y-15302386D01*
X11904619Y-15340481D01*
X11895095Y-15359528D01*
X11885571Y-15369052D01*
X11866524Y-15378576D01*
X11847476Y-15378576D01*
X11828428Y-15369052D01*
X11818905Y-15359528D01*
X11809381Y-15340481D01*
X11799857Y-15302386D01*
X11799857Y-15254767D01*
X11809381Y-15216671D01*
X11818905Y-15197624D01*
X11828428Y-15188100D01*
X11847476Y-15178576D01*
X11999857Y-15359528D02*
X12009381Y-15369052D01*
X11999857Y-15378576D01*
X11990333Y-15369052D01*
X11999857Y-15359528D01*
X11999857Y-15378576D01*
X12199857Y-15378576D02*
X12085571Y-15378576D01*
X12142714Y-15378576D02*
X12142714Y-15178576D01*
X12123667Y-15207148D01*
X12104619Y-15226195D01*
X12085571Y-15235719D01*
X12276048Y-15197624D02*
X12285571Y-15188100D01*
X12304619Y-15178576D01*
X12352238Y-15178576D01*
X12371286Y-15188100D01*
X12380809Y-15197624D01*
X12390333Y-15216671D01*
X12390333Y-15235719D01*
X12380809Y-15264290D01*
X12266524Y-15378576D01*
X12390333Y-15378576D01*
X12561762Y-15178576D02*
X12523667Y-15178576D01*
X12504619Y-15188100D01*
X12495095Y-15197624D01*
X12476048Y-15226195D01*
X12466524Y-15264290D01*
X12466524Y-15340481D01*
X12476048Y-15359528D01*
X12485571Y-15369052D01*
X12504619Y-15378576D01*
X12542714Y-15378576D01*
X12561762Y-15369052D01*
X12571286Y-15359528D01*
X12580809Y-15340481D01*
X12580809Y-15292862D01*
X12571286Y-15273814D01*
X12561762Y-15264290D01*
X12542714Y-15254767D01*
X12504619Y-15254767D01*
X12485571Y-15264290D01*
X12476048Y-15273814D01*
X12466524Y-15292862D01*
X12704619Y-15178576D02*
X12723667Y-15178576D01*
X12742714Y-15188100D01*
X12752238Y-15197624D01*
X12761762Y-15216671D01*
X12771286Y-15254767D01*
X12771286Y-15302386D01*
X12761762Y-15340481D01*
X12752238Y-15359528D01*
X12742714Y-15369052D01*
X12723667Y-15378576D01*
X12704619Y-15378576D01*
X12685571Y-15369052D01*
X12676048Y-15359528D01*
X12666524Y-15340481D01*
X12657000Y-15302386D01*
X12657000Y-15254767D01*
X12666524Y-15216671D01*
X12676048Y-15197624D01*
X12685571Y-15188100D01*
X12704619Y-15178576D01*
X12847476Y-15178576D02*
X12847476Y-15216671D01*
X12923667Y-15178576D02*
X12923667Y-15216671D01*
X13218905Y-15454767D02*
X13209381Y-15445243D01*
X13190333Y-15416671D01*
X13180809Y-15397624D01*
X13171286Y-15369052D01*
X13161762Y-15321433D01*
X13161762Y-15283338D01*
X13171286Y-15235719D01*
X13180809Y-15207148D01*
X13190333Y-15188100D01*
X13209381Y-15159528D01*
X13218905Y-15150005D01*
X13380809Y-15245243D02*
X13380809Y-15378576D01*
X13333190Y-15169052D02*
X13285571Y-15311909D01*
X13409381Y-15311909D01*
X13637952Y-15378576D02*
X13637952Y-15178576D01*
X13723667Y-15378576D02*
X13723667Y-15273814D01*
X13714143Y-15254767D01*
X13695095Y-15245243D01*
X13666524Y-15245243D01*
X13647476Y-15254767D01*
X13637952Y-15264290D01*
X13847476Y-15378576D02*
X13828428Y-15369052D01*
X13818905Y-15359528D01*
X13809381Y-15340481D01*
X13809381Y-15283338D01*
X13818905Y-15264290D01*
X13828428Y-15254767D01*
X13847476Y-15245243D01*
X13876048Y-15245243D01*
X13895095Y-15254767D01*
X13904619Y-15264290D01*
X13914143Y-15283338D01*
X13914143Y-15340481D01*
X13904619Y-15359528D01*
X13895095Y-15369052D01*
X13876048Y-15378576D01*
X13847476Y-15378576D01*
X14028428Y-15378576D02*
X14009381Y-15369052D01*
X13999857Y-15350005D01*
X13999857Y-15178576D01*
X14180809Y-15369052D02*
X14161762Y-15378576D01*
X14123667Y-15378576D01*
X14104619Y-15369052D01*
X14095095Y-15350005D01*
X14095095Y-15273814D01*
X14104619Y-15254767D01*
X14123667Y-15245243D01*
X14161762Y-15245243D01*
X14180809Y-15254767D01*
X14190333Y-15273814D01*
X14190333Y-15292862D01*
X14095095Y-15311909D01*
X14266524Y-15369052D02*
X14285571Y-15378576D01*
X14323667Y-15378576D01*
X14342714Y-15369052D01*
X14352238Y-15350005D01*
X14352238Y-15340481D01*
X14342714Y-15321433D01*
X14323667Y-15311909D01*
X14295095Y-15311909D01*
X14276048Y-15302386D01*
X14266524Y-15283338D01*
X14266524Y-15273814D01*
X14276048Y-15254767D01*
X14295095Y-15245243D01*
X14323667Y-15245243D01*
X14342714Y-15254767D01*
X14418905Y-15454767D02*
X14428428Y-15445243D01*
X14447476Y-15416671D01*
X14457000Y-15397624D01*
X14466524Y-15369052D01*
X14476048Y-15321433D01*
X14476048Y-15283338D01*
X14466524Y-15235719D01*
X14457000Y-15207148D01*
X14447476Y-15188100D01*
X14428428Y-15159528D01*
X14418905Y-15150005D01*
X14780809Y-15454767D02*
X14771286Y-15445243D01*
X14752238Y-15416671D01*
X14742714Y-15397624D01*
X14733190Y-15369052D01*
X14723667Y-15321433D01*
X14723667Y-15283338D01*
X14733190Y-15235719D01*
X14742714Y-15207148D01*
X14752238Y-15188100D01*
X14771286Y-15159528D01*
X14780809Y-15150005D01*
X14857000Y-15245243D02*
X14857000Y-15378576D01*
X14857000Y-15264290D02*
X14866524Y-15254767D01*
X14885571Y-15245243D01*
X14914143Y-15245243D01*
X14933190Y-15254767D01*
X14942714Y-15273814D01*
X14942714Y-15378576D01*
X15066524Y-15378576D02*
X15047476Y-15369052D01*
X15037952Y-15359528D01*
X15028428Y-15340481D01*
X15028428Y-15283338D01*
X15037952Y-15264290D01*
X15047476Y-15254767D01*
X15066524Y-15245243D01*
X15095095Y-15245243D01*
X15114143Y-15254767D01*
X15123667Y-15264290D01*
X15133190Y-15283338D01*
X15133190Y-15340481D01*
X15123667Y-15359528D01*
X15114143Y-15369052D01*
X15095095Y-15378576D01*
X15066524Y-15378576D01*
X15190333Y-15245243D02*
X15266524Y-15245243D01*
X15218905Y-15178576D02*
X15218905Y-15350005D01*
X15228428Y-15369052D01*
X15247476Y-15378576D01*
X15266524Y-15378576D01*
X15485571Y-15245243D02*
X15485571Y-15445243D01*
X15485571Y-15254767D02*
X15504619Y-15245243D01*
X15542714Y-15245243D01*
X15561762Y-15254767D01*
X15571286Y-15264290D01*
X15580809Y-15283338D01*
X15580809Y-15340481D01*
X15571286Y-15359528D01*
X15561762Y-15369052D01*
X15542714Y-15378576D01*
X15504619Y-15378576D01*
X15485571Y-15369052D01*
X15695095Y-15378576D02*
X15676048Y-15369052D01*
X15666524Y-15350005D01*
X15666524Y-15178576D01*
X15857000Y-15378576D02*
X15857000Y-15273814D01*
X15847476Y-15254767D01*
X15828428Y-15245243D01*
X15790333Y-15245243D01*
X15771286Y-15254767D01*
X15857000Y-15369052D02*
X15837952Y-15378576D01*
X15790333Y-15378576D01*
X15771286Y-15369052D01*
X15761762Y-15350005D01*
X15761762Y-15330957D01*
X15771286Y-15311909D01*
X15790333Y-15302386D01*
X15837952Y-15302386D01*
X15857000Y-15292862D01*
X15923667Y-15245243D02*
X15999857Y-15245243D01*
X15952238Y-15178576D02*
X15952238Y-15350005D01*
X15961762Y-15369052D01*
X15980809Y-15378576D01*
X15999857Y-15378576D01*
X16142714Y-15369052D02*
X16123667Y-15378576D01*
X16085571Y-15378576D01*
X16066524Y-15369052D01*
X16057000Y-15350005D01*
X16057000Y-15273814D01*
X16066524Y-15254767D01*
X16085571Y-15245243D01*
X16123667Y-15245243D01*
X16142714Y-15254767D01*
X16152238Y-15273814D01*
X16152238Y-15292862D01*
X16057000Y-15311909D01*
X16323667Y-15378576D02*
X16323667Y-15178576D01*
X16323667Y-15369052D02*
X16304619Y-15378576D01*
X16266524Y-15378576D01*
X16247476Y-15369052D01*
X16237952Y-15359528D01*
X16228428Y-15340481D01*
X16228428Y-15283338D01*
X16237952Y-15264290D01*
X16247476Y-15254767D01*
X16266524Y-15245243D01*
X16304619Y-15245243D01*
X16323667Y-15254767D01*
X16399857Y-15454767D02*
X16409381Y-15445243D01*
X16428428Y-15416671D01*
X16437952Y-15397624D01*
X16447476Y-15369052D01*
X16457000Y-15321433D01*
X16457000Y-15283338D01*
X16447476Y-15235719D01*
X16437952Y-15207148D01*
X16428428Y-15188100D01*
X16409381Y-15159528D01*
X16399857Y-15150005D01*
M02*
