%TF.GenerationSoftware,KiCad,Pcbnew,6.0.9*%
%TF.CreationDate,2022-11-14T08:14:38-08:00*%
%TF.ProjectId,Protoboard,50726f74-6f62-46f6-9172-642e6b696361,1.0*%
%TF.SameCoordinates,Original*%
%TF.FileFunction,Drillmap*%
%TF.FilePolarity,Positive*%
%FSLAX45Y45*%
G04 Gerber Fmt 4.5, Leading zero omitted, Abs format (unit mm)*
G04 Created by KiCad (PCBNEW 6.0.9) date 2022-11-14 08:14:38*
%MOMM*%
%LPD*%
G01*
G04 APERTURE LIST*
%ADD10C,0.100000*%
%ADD11C,0.200000*%
%ADD12C,0.076200*%
G04 APERTURE END LIST*
D10*
X19380200Y-14643100D02*
G75*
G03*
X19634200Y-14389100I0J254000D01*
G01*
X19380200Y-4660900D02*
X9906000Y-4660900D01*
X19634200Y-4914900D02*
G75*
G03*
X19380200Y-4660900I-254000J0D01*
G01*
X19634200Y-14389100D02*
X19634200Y-4914900D01*
X9906000Y-14643100D02*
X19380200Y-14643100D01*
X9906000Y-4660900D02*
G75*
G03*
X9652000Y-4914900I0J-254000D01*
G01*
X9652000Y-4914900D02*
X9652000Y-14389100D01*
X9652000Y-14389100D02*
G75*
G03*
X9906000Y-14643100I254000J0D01*
G01*
D11*
D12*
X12331700Y-5677100D02*
X12407900Y-5753300D01*
X12407900Y-5677100D02*
X12331700Y-5753300D01*
X12331700Y-5931100D02*
X12407900Y-6007300D01*
X12407900Y-5931100D02*
X12331700Y-6007300D01*
X12331700Y-6185100D02*
X12407900Y-6261300D01*
X12407900Y-6185100D02*
X12331700Y-6261300D01*
X12331700Y-6439100D02*
X12407900Y-6515300D01*
X12407900Y-6439100D02*
X12331700Y-6515300D01*
X12331700Y-6693100D02*
X12407900Y-6769300D01*
X12407900Y-6693100D02*
X12331700Y-6769300D01*
X12331700Y-6947100D02*
X12407900Y-7023300D01*
X12407900Y-6947100D02*
X12331700Y-7023300D01*
X12331700Y-7201100D02*
X12407900Y-7277300D01*
X12407900Y-7201100D02*
X12331700Y-7277300D01*
X12331700Y-7455100D02*
X12407900Y-7531300D01*
X12407900Y-7455100D02*
X12331700Y-7531300D01*
X12331700Y-7709100D02*
X12407900Y-7785300D01*
X12407900Y-7709100D02*
X12331700Y-7785300D01*
X12331700Y-7963100D02*
X12407900Y-8039300D01*
X12407900Y-7963100D02*
X12331700Y-8039300D01*
X12331700Y-8217100D02*
X12407900Y-8293300D01*
X12407900Y-8217100D02*
X12331700Y-8293300D01*
X12331700Y-8471100D02*
X12407900Y-8547300D01*
X12407900Y-8471100D02*
X12331700Y-8547300D01*
X12331700Y-8725100D02*
X12407900Y-8801300D01*
X12407900Y-8725100D02*
X12331700Y-8801300D01*
X12331700Y-8979100D02*
X12407900Y-9055300D01*
X12407900Y-8979100D02*
X12331700Y-9055300D01*
X12331700Y-9233100D02*
X12407900Y-9309300D01*
X12407900Y-9233100D02*
X12331700Y-9309300D01*
X12331700Y-9487100D02*
X12407900Y-9563300D01*
X12407900Y-9487100D02*
X12331700Y-9563300D01*
X12331700Y-9741100D02*
X12407900Y-9817300D01*
X12407900Y-9741100D02*
X12331700Y-9817300D01*
X12331700Y-9995100D02*
X12407900Y-10071300D01*
X12407900Y-9995100D02*
X12331700Y-10071300D01*
X12331700Y-10249100D02*
X12407900Y-10325300D01*
X12407900Y-10249100D02*
X12331700Y-10325300D01*
X12331700Y-10503100D02*
X12407900Y-10579300D01*
X12407900Y-10503100D02*
X12331700Y-10579300D01*
X12331700Y-10757100D02*
X12407900Y-10833300D01*
X12407900Y-10757100D02*
X12331700Y-10833300D01*
X12331700Y-11011100D02*
X12407900Y-11087300D01*
X12407900Y-11011100D02*
X12331700Y-11087300D01*
X12331700Y-11265100D02*
X12407900Y-11341300D01*
X12407900Y-11265100D02*
X12331700Y-11341300D01*
X12331700Y-11519100D02*
X12407900Y-11595300D01*
X12407900Y-11519100D02*
X12331700Y-11595300D01*
X12331700Y-11773100D02*
X12407900Y-11849300D01*
X12407900Y-11773100D02*
X12331700Y-11849300D01*
X12331700Y-12026900D02*
X12407900Y-12103100D01*
X12407900Y-12026900D02*
X12331700Y-12103100D01*
X12331700Y-12280900D02*
X12407900Y-12357100D01*
X12407900Y-12280900D02*
X12331700Y-12357100D01*
X12331700Y-12534900D02*
X12407900Y-12611100D01*
X12407900Y-12534900D02*
X12331700Y-12611100D01*
X12331700Y-12788900D02*
X12407900Y-12865100D01*
X12407900Y-12788900D02*
X12331700Y-12865100D01*
X12331700Y-13042900D02*
X12407900Y-13119100D01*
X12407900Y-13042900D02*
X12331700Y-13119100D01*
X12331700Y-13296900D02*
X12407900Y-13373100D01*
X12407900Y-13296900D02*
X12331700Y-13373100D01*
X12331700Y-13550900D02*
X12407900Y-13627100D01*
X12407900Y-13550900D02*
X12331700Y-13627100D01*
X12585700Y-5677100D02*
X12661900Y-5753300D01*
X12661900Y-5677100D02*
X12585700Y-5753300D01*
X12585700Y-5931100D02*
X12661900Y-6007300D01*
X12661900Y-5931100D02*
X12585700Y-6007300D01*
X12585700Y-6185100D02*
X12661900Y-6261300D01*
X12661900Y-6185100D02*
X12585700Y-6261300D01*
X12585700Y-6439100D02*
X12661900Y-6515300D01*
X12661900Y-6439100D02*
X12585700Y-6515300D01*
X12585700Y-6693100D02*
X12661900Y-6769300D01*
X12661900Y-6693100D02*
X12585700Y-6769300D01*
X12585700Y-6947100D02*
X12661900Y-7023300D01*
X12661900Y-6947100D02*
X12585700Y-7023300D01*
X12585700Y-7201100D02*
X12661900Y-7277300D01*
X12661900Y-7201100D02*
X12585700Y-7277300D01*
X12585700Y-7455100D02*
X12661900Y-7531300D01*
X12661900Y-7455100D02*
X12585700Y-7531300D01*
X12585700Y-7709100D02*
X12661900Y-7785300D01*
X12661900Y-7709100D02*
X12585700Y-7785300D01*
X12585700Y-7963100D02*
X12661900Y-8039300D01*
X12661900Y-7963100D02*
X12585700Y-8039300D01*
X12585700Y-8217100D02*
X12661900Y-8293300D01*
X12661900Y-8217100D02*
X12585700Y-8293300D01*
X12585700Y-8471100D02*
X12661900Y-8547300D01*
X12661900Y-8471100D02*
X12585700Y-8547300D01*
X12585700Y-8725100D02*
X12661900Y-8801300D01*
X12661900Y-8725100D02*
X12585700Y-8801300D01*
X12585700Y-8979100D02*
X12661900Y-9055300D01*
X12661900Y-8979100D02*
X12585700Y-9055300D01*
X12585700Y-9233100D02*
X12661900Y-9309300D01*
X12661900Y-9233100D02*
X12585700Y-9309300D01*
X12585700Y-9487100D02*
X12661900Y-9563300D01*
X12661900Y-9487100D02*
X12585700Y-9563300D01*
X12585700Y-9741100D02*
X12661900Y-9817300D01*
X12661900Y-9741100D02*
X12585700Y-9817300D01*
X12585700Y-9995100D02*
X12661900Y-10071300D01*
X12661900Y-9995100D02*
X12585700Y-10071300D01*
X12585700Y-10249100D02*
X12661900Y-10325300D01*
X12661900Y-10249100D02*
X12585700Y-10325300D01*
X12585700Y-10503100D02*
X12661900Y-10579300D01*
X12661900Y-10503100D02*
X12585700Y-10579300D01*
X12585700Y-10757100D02*
X12661900Y-10833300D01*
X12661900Y-10757100D02*
X12585700Y-10833300D01*
X12585700Y-11011100D02*
X12661900Y-11087300D01*
X12661900Y-11011100D02*
X12585700Y-11087300D01*
X12585700Y-11265100D02*
X12661900Y-11341300D01*
X12661900Y-11265100D02*
X12585700Y-11341300D01*
X12585700Y-11519100D02*
X12661900Y-11595300D01*
X12661900Y-11519100D02*
X12585700Y-11595300D01*
X12585700Y-11773100D02*
X12661900Y-11849300D01*
X12661900Y-11773100D02*
X12585700Y-11849300D01*
X12585700Y-12026900D02*
X12661900Y-12103100D01*
X12661900Y-12026900D02*
X12585700Y-12103100D01*
X12585700Y-12280900D02*
X12661900Y-12357100D01*
X12661900Y-12280900D02*
X12585700Y-12357100D01*
X12585700Y-12534900D02*
X12661900Y-12611100D01*
X12661900Y-12534900D02*
X12585700Y-12611100D01*
X12585700Y-12788900D02*
X12661900Y-12865100D01*
X12661900Y-12788900D02*
X12585700Y-12865100D01*
X12585700Y-13042900D02*
X12661900Y-13119100D01*
X12661900Y-13042900D02*
X12585700Y-13119100D01*
X12585700Y-13296900D02*
X12661900Y-13373100D01*
X12661900Y-13296900D02*
X12585700Y-13373100D01*
X12585700Y-13550900D02*
X12661900Y-13627100D01*
X12661900Y-13550900D02*
X12585700Y-13627100D01*
X12839700Y-5677100D02*
X12915900Y-5753300D01*
X12915900Y-5677100D02*
X12839700Y-5753300D01*
X12839700Y-5931100D02*
X12915900Y-6007300D01*
X12915900Y-5931100D02*
X12839700Y-6007300D01*
X12839700Y-6185300D02*
X12915900Y-6261500D01*
X12915900Y-6185300D02*
X12839700Y-6261500D01*
X12839700Y-6439300D02*
X12915900Y-6515500D01*
X12915900Y-6439300D02*
X12839700Y-6515500D01*
X12839700Y-6692900D02*
X12915900Y-6769100D01*
X12915900Y-6692900D02*
X12839700Y-6769100D01*
X12839700Y-6946900D02*
X12915900Y-7023100D01*
X12915900Y-6946900D02*
X12839700Y-7023100D01*
X12839700Y-7201100D02*
X12915900Y-7277300D01*
X12915900Y-7201100D02*
X12839700Y-7277300D01*
X12839700Y-7455100D02*
X12915900Y-7531300D01*
X12915900Y-7455100D02*
X12839700Y-7531300D01*
X12839700Y-7709100D02*
X12915900Y-7785300D01*
X12915900Y-7709100D02*
X12839700Y-7785300D01*
X12839700Y-7963100D02*
X12915900Y-8039300D01*
X12915900Y-7963100D02*
X12839700Y-8039300D01*
X12839700Y-8217300D02*
X12915900Y-8293500D01*
X12915900Y-8217300D02*
X12839700Y-8293500D01*
X12839700Y-8471300D02*
X12915900Y-8547500D01*
X12915900Y-8471300D02*
X12839700Y-8547500D01*
X12839700Y-8724900D02*
X12915900Y-8801100D01*
X12915900Y-8724900D02*
X12839700Y-8801100D01*
X12839700Y-8978900D02*
X12915900Y-9055100D01*
X12915900Y-8978900D02*
X12839700Y-9055100D01*
X12839700Y-9233100D02*
X12915900Y-9309300D01*
X12915900Y-9233100D02*
X12839700Y-9309300D01*
X12839700Y-9487100D02*
X12915900Y-9563300D01*
X12915900Y-9487100D02*
X12839700Y-9563300D01*
X12839700Y-9741100D02*
X12915900Y-9817300D01*
X12915900Y-9741100D02*
X12839700Y-9817300D01*
X12839700Y-9995100D02*
X12915900Y-10071300D01*
X12915900Y-9995100D02*
X12839700Y-10071300D01*
X12839700Y-10249300D02*
X12915900Y-10325500D01*
X12915900Y-10249300D02*
X12839700Y-10325500D01*
X12839700Y-10503300D02*
X12915900Y-10579500D01*
X12915900Y-10503300D02*
X12839700Y-10579500D01*
X12839700Y-10756900D02*
X12915900Y-10833100D01*
X12915900Y-10756900D02*
X12839700Y-10833100D01*
X12839700Y-11010900D02*
X12915900Y-11087100D01*
X12915900Y-11010900D02*
X12839700Y-11087100D01*
X12839700Y-11265100D02*
X12915900Y-11341300D01*
X12915900Y-11265100D02*
X12839700Y-11341300D01*
X12839700Y-11519100D02*
X12915900Y-11595300D01*
X12915900Y-11519100D02*
X12839700Y-11595300D01*
X12839700Y-11772900D02*
X12915900Y-11849100D01*
X12915900Y-11772900D02*
X12839700Y-11849100D01*
X12839700Y-12026900D02*
X12915900Y-12103100D01*
X12915900Y-12026900D02*
X12839700Y-12103100D01*
X12839700Y-12281100D02*
X12915900Y-12357300D01*
X12915900Y-12281100D02*
X12839700Y-12357300D01*
X12839700Y-12535100D02*
X12915900Y-12611300D01*
X12915900Y-12535100D02*
X12839700Y-12611300D01*
X12839700Y-12788700D02*
X12915900Y-12864900D01*
X12915900Y-12788700D02*
X12839700Y-12864900D01*
X12839700Y-13042700D02*
X12915900Y-13118900D01*
X12915900Y-13042700D02*
X12839700Y-13118900D01*
X12839700Y-13296900D02*
X12915900Y-13373100D01*
X12915900Y-13296900D02*
X12839700Y-13373100D01*
X12839700Y-13550900D02*
X12915900Y-13627100D01*
X12915900Y-13550900D02*
X12839700Y-13627100D01*
X13093700Y-5677100D02*
X13169900Y-5753300D01*
X13169900Y-5677100D02*
X13093700Y-5753300D01*
X13093700Y-5931100D02*
X13169900Y-6007300D01*
X13169900Y-5931100D02*
X13093700Y-6007300D01*
X13093700Y-6185300D02*
X13169900Y-6261500D01*
X13169900Y-6185300D02*
X13093700Y-6261500D01*
X13093700Y-6439300D02*
X13169900Y-6515500D01*
X13169900Y-6439300D02*
X13093700Y-6515500D01*
X13093700Y-6692900D02*
X13169900Y-6769100D01*
X13169900Y-6692900D02*
X13093700Y-6769100D01*
X13093700Y-6946900D02*
X13169900Y-7023100D01*
X13169900Y-6946900D02*
X13093700Y-7023100D01*
X13093700Y-7201100D02*
X13169900Y-7277300D01*
X13169900Y-7201100D02*
X13093700Y-7277300D01*
X13093700Y-7455100D02*
X13169900Y-7531300D01*
X13169900Y-7455100D02*
X13093700Y-7531300D01*
X13093700Y-7709100D02*
X13169900Y-7785300D01*
X13169900Y-7709100D02*
X13093700Y-7785300D01*
X13093700Y-7963100D02*
X13169900Y-8039300D01*
X13169900Y-7963100D02*
X13093700Y-8039300D01*
X13093700Y-8217300D02*
X13169900Y-8293500D01*
X13169900Y-8217300D02*
X13093700Y-8293500D01*
X13093700Y-8471300D02*
X13169900Y-8547500D01*
X13169900Y-8471300D02*
X13093700Y-8547500D01*
X13093700Y-8724900D02*
X13169900Y-8801100D01*
X13169900Y-8724900D02*
X13093700Y-8801100D01*
X13093700Y-8978900D02*
X13169900Y-9055100D01*
X13169900Y-8978900D02*
X13093700Y-9055100D01*
X13093700Y-9233100D02*
X13169900Y-9309300D01*
X13169900Y-9233100D02*
X13093700Y-9309300D01*
X13093700Y-9487100D02*
X13169900Y-9563300D01*
X13169900Y-9487100D02*
X13093700Y-9563300D01*
X13093700Y-9741100D02*
X13169900Y-9817300D01*
X13169900Y-9741100D02*
X13093700Y-9817300D01*
X13093700Y-9995100D02*
X13169900Y-10071300D01*
X13169900Y-9995100D02*
X13093700Y-10071300D01*
X13093700Y-10249300D02*
X13169900Y-10325500D01*
X13169900Y-10249300D02*
X13093700Y-10325500D01*
X13093700Y-10503300D02*
X13169900Y-10579500D01*
X13169900Y-10503300D02*
X13093700Y-10579500D01*
X13093700Y-10756900D02*
X13169900Y-10833100D01*
X13169900Y-10756900D02*
X13093700Y-10833100D01*
X13093700Y-11010900D02*
X13169900Y-11087100D01*
X13169900Y-11010900D02*
X13093700Y-11087100D01*
X13093700Y-11265100D02*
X13169900Y-11341300D01*
X13169900Y-11265100D02*
X13093700Y-11341300D01*
X13093700Y-11519100D02*
X13169900Y-11595300D01*
X13169900Y-11519100D02*
X13093700Y-11595300D01*
X13093700Y-11772900D02*
X13169900Y-11849100D01*
X13169900Y-11772900D02*
X13093700Y-11849100D01*
X13093700Y-12026900D02*
X13169900Y-12103100D01*
X13169900Y-12026900D02*
X13093700Y-12103100D01*
X13093700Y-12281100D02*
X13169900Y-12357300D01*
X13169900Y-12281100D02*
X13093700Y-12357300D01*
X13093700Y-12535100D02*
X13169900Y-12611300D01*
X13169900Y-12535100D02*
X13093700Y-12611300D01*
X13093700Y-12788700D02*
X13169900Y-12864900D01*
X13169900Y-12788700D02*
X13093700Y-12864900D01*
X13093700Y-13042700D02*
X13169900Y-13118900D01*
X13169900Y-13042700D02*
X13093700Y-13118900D01*
X13093700Y-13296900D02*
X13169900Y-13373100D01*
X13169900Y-13296900D02*
X13093700Y-13373100D01*
X13093700Y-13550900D02*
X13169900Y-13627100D01*
X13169900Y-13550900D02*
X13093700Y-13627100D01*
X13347700Y-5677100D02*
X13423900Y-5753300D01*
X13423900Y-5677100D02*
X13347700Y-5753300D01*
X13347700Y-5931100D02*
X13423900Y-6007300D01*
X13423900Y-5931100D02*
X13347700Y-6007300D01*
X13347700Y-6185300D02*
X13423900Y-6261500D01*
X13423900Y-6185300D02*
X13347700Y-6261500D01*
X13347700Y-6439300D02*
X13423900Y-6515500D01*
X13423900Y-6439300D02*
X13347700Y-6515500D01*
X13347700Y-6692900D02*
X13423900Y-6769100D01*
X13423900Y-6692900D02*
X13347700Y-6769100D01*
X13347700Y-6946900D02*
X13423900Y-7023100D01*
X13423900Y-6946900D02*
X13347700Y-7023100D01*
X13347700Y-7201100D02*
X13423900Y-7277300D01*
X13423900Y-7201100D02*
X13347700Y-7277300D01*
X13347700Y-7455100D02*
X13423900Y-7531300D01*
X13423900Y-7455100D02*
X13347700Y-7531300D01*
X13347700Y-7709100D02*
X13423900Y-7785300D01*
X13423900Y-7709100D02*
X13347700Y-7785300D01*
X13347700Y-7963100D02*
X13423900Y-8039300D01*
X13423900Y-7963100D02*
X13347700Y-8039300D01*
X13347700Y-8217300D02*
X13423900Y-8293500D01*
X13423900Y-8217300D02*
X13347700Y-8293500D01*
X13347700Y-8471300D02*
X13423900Y-8547500D01*
X13423900Y-8471300D02*
X13347700Y-8547500D01*
X13347700Y-8724900D02*
X13423900Y-8801100D01*
X13423900Y-8724900D02*
X13347700Y-8801100D01*
X13347700Y-8978900D02*
X13423900Y-9055100D01*
X13423900Y-8978900D02*
X13347700Y-9055100D01*
X13347700Y-9233100D02*
X13423900Y-9309300D01*
X13423900Y-9233100D02*
X13347700Y-9309300D01*
X13347700Y-9487100D02*
X13423900Y-9563300D01*
X13423900Y-9487100D02*
X13347700Y-9563300D01*
X13347700Y-9741100D02*
X13423900Y-9817300D01*
X13423900Y-9741100D02*
X13347700Y-9817300D01*
X13347700Y-9995100D02*
X13423900Y-10071300D01*
X13423900Y-9995100D02*
X13347700Y-10071300D01*
X13347700Y-10249300D02*
X13423900Y-10325500D01*
X13423900Y-10249300D02*
X13347700Y-10325500D01*
X13347700Y-10503300D02*
X13423900Y-10579500D01*
X13423900Y-10503300D02*
X13347700Y-10579500D01*
X13347700Y-10756900D02*
X13423900Y-10833100D01*
X13423900Y-10756900D02*
X13347700Y-10833100D01*
X13347700Y-11010900D02*
X13423900Y-11087100D01*
X13423900Y-11010900D02*
X13347700Y-11087100D01*
X13347700Y-11265100D02*
X13423900Y-11341300D01*
X13423900Y-11265100D02*
X13347700Y-11341300D01*
X13347700Y-11519100D02*
X13423900Y-11595300D01*
X13423900Y-11519100D02*
X13347700Y-11595300D01*
X13347700Y-11772900D02*
X13423900Y-11849100D01*
X13423900Y-11772900D02*
X13347700Y-11849100D01*
X13347700Y-12026900D02*
X13423900Y-12103100D01*
X13423900Y-12026900D02*
X13347700Y-12103100D01*
X13347700Y-12281100D02*
X13423900Y-12357300D01*
X13423900Y-12281100D02*
X13347700Y-12357300D01*
X13347700Y-12535100D02*
X13423900Y-12611300D01*
X13423900Y-12535100D02*
X13347700Y-12611300D01*
X13347700Y-12788700D02*
X13423900Y-12864900D01*
X13423900Y-12788700D02*
X13347700Y-12864900D01*
X13347700Y-13042700D02*
X13423900Y-13118900D01*
X13423900Y-13042700D02*
X13347700Y-13118900D01*
X13347700Y-13296900D02*
X13423900Y-13373100D01*
X13423900Y-13296900D02*
X13347700Y-13373100D01*
X13347700Y-13550900D02*
X13423900Y-13627100D01*
X13423900Y-13550900D02*
X13347700Y-13627100D01*
X13601700Y-5677100D02*
X13677900Y-5753300D01*
X13677900Y-5677100D02*
X13601700Y-5753300D01*
X13601700Y-5931100D02*
X13677900Y-6007300D01*
X13677900Y-5931100D02*
X13601700Y-6007300D01*
X13601700Y-6185300D02*
X13677900Y-6261500D01*
X13677900Y-6185300D02*
X13601700Y-6261500D01*
X13601700Y-6439300D02*
X13677900Y-6515500D01*
X13677900Y-6439300D02*
X13601700Y-6515500D01*
X13601700Y-6692900D02*
X13677900Y-6769100D01*
X13677900Y-6692900D02*
X13601700Y-6769100D01*
X13601700Y-6946900D02*
X13677900Y-7023100D01*
X13677900Y-6946900D02*
X13601700Y-7023100D01*
X13601700Y-7201100D02*
X13677900Y-7277300D01*
X13677900Y-7201100D02*
X13601700Y-7277300D01*
X13601700Y-7455100D02*
X13677900Y-7531300D01*
X13677900Y-7455100D02*
X13601700Y-7531300D01*
X13601700Y-7709100D02*
X13677900Y-7785300D01*
X13677900Y-7709100D02*
X13601700Y-7785300D01*
X13601700Y-7963100D02*
X13677900Y-8039300D01*
X13677900Y-7963100D02*
X13601700Y-8039300D01*
X13601700Y-8217300D02*
X13677900Y-8293500D01*
X13677900Y-8217300D02*
X13601700Y-8293500D01*
X13601700Y-8471300D02*
X13677900Y-8547500D01*
X13677900Y-8471300D02*
X13601700Y-8547500D01*
X13601700Y-8724900D02*
X13677900Y-8801100D01*
X13677900Y-8724900D02*
X13601700Y-8801100D01*
X13601700Y-8978900D02*
X13677900Y-9055100D01*
X13677900Y-8978900D02*
X13601700Y-9055100D01*
X13601700Y-9233100D02*
X13677900Y-9309300D01*
X13677900Y-9233100D02*
X13601700Y-9309300D01*
X13601700Y-9487100D02*
X13677900Y-9563300D01*
X13677900Y-9487100D02*
X13601700Y-9563300D01*
X13601700Y-9741100D02*
X13677900Y-9817300D01*
X13677900Y-9741100D02*
X13601700Y-9817300D01*
X13601700Y-9995100D02*
X13677900Y-10071300D01*
X13677900Y-9995100D02*
X13601700Y-10071300D01*
X13601700Y-10249300D02*
X13677900Y-10325500D01*
X13677900Y-10249300D02*
X13601700Y-10325500D01*
X13601700Y-10503300D02*
X13677900Y-10579500D01*
X13677900Y-10503300D02*
X13601700Y-10579500D01*
X13601700Y-10756900D02*
X13677900Y-10833100D01*
X13677900Y-10756900D02*
X13601700Y-10833100D01*
X13601700Y-11010900D02*
X13677900Y-11087100D01*
X13677900Y-11010900D02*
X13601700Y-11087100D01*
X13601700Y-11265100D02*
X13677900Y-11341300D01*
X13677900Y-11265100D02*
X13601700Y-11341300D01*
X13601700Y-11519100D02*
X13677900Y-11595300D01*
X13677900Y-11519100D02*
X13601700Y-11595300D01*
X13601700Y-11772900D02*
X13677900Y-11849100D01*
X13677900Y-11772900D02*
X13601700Y-11849100D01*
X13601700Y-12026900D02*
X13677900Y-12103100D01*
X13677900Y-12026900D02*
X13601700Y-12103100D01*
X13601700Y-12281100D02*
X13677900Y-12357300D01*
X13677900Y-12281100D02*
X13601700Y-12357300D01*
X13601700Y-12535100D02*
X13677900Y-12611300D01*
X13677900Y-12535100D02*
X13601700Y-12611300D01*
X13601700Y-12788700D02*
X13677900Y-12864900D01*
X13677900Y-12788700D02*
X13601700Y-12864900D01*
X13601700Y-13042700D02*
X13677900Y-13118900D01*
X13677900Y-13042700D02*
X13601700Y-13118900D01*
X13601700Y-13296900D02*
X13677900Y-13373100D01*
X13677900Y-13296900D02*
X13601700Y-13373100D01*
X13601700Y-13550900D02*
X13677900Y-13627100D01*
X13677900Y-13550900D02*
X13601700Y-13627100D01*
X13855700Y-5677100D02*
X13931900Y-5753300D01*
X13931900Y-5677100D02*
X13855700Y-5753300D01*
X13855700Y-5931100D02*
X13931900Y-6007300D01*
X13931900Y-5931100D02*
X13855700Y-6007300D01*
X13855700Y-6185300D02*
X13931900Y-6261500D01*
X13931900Y-6185300D02*
X13855700Y-6261500D01*
X13855700Y-6439300D02*
X13931900Y-6515500D01*
X13931900Y-6439300D02*
X13855700Y-6515500D01*
X13855700Y-6692900D02*
X13931900Y-6769100D01*
X13931900Y-6692900D02*
X13855700Y-6769100D01*
X13855700Y-6946900D02*
X13931900Y-7023100D01*
X13931900Y-6946900D02*
X13855700Y-7023100D01*
X13855700Y-7201100D02*
X13931900Y-7277300D01*
X13931900Y-7201100D02*
X13855700Y-7277300D01*
X13855700Y-7455100D02*
X13931900Y-7531300D01*
X13931900Y-7455100D02*
X13855700Y-7531300D01*
X13855700Y-7709100D02*
X13931900Y-7785300D01*
X13931900Y-7709100D02*
X13855700Y-7785300D01*
X13855700Y-7963100D02*
X13931900Y-8039300D01*
X13931900Y-7963100D02*
X13855700Y-8039300D01*
X13855700Y-8217300D02*
X13931900Y-8293500D01*
X13931900Y-8217300D02*
X13855700Y-8293500D01*
X13855700Y-8471300D02*
X13931900Y-8547500D01*
X13931900Y-8471300D02*
X13855700Y-8547500D01*
X13855700Y-8724900D02*
X13931900Y-8801100D01*
X13931900Y-8724900D02*
X13855700Y-8801100D01*
X13855700Y-8978900D02*
X13931900Y-9055100D01*
X13931900Y-8978900D02*
X13855700Y-9055100D01*
X13855700Y-9233100D02*
X13931900Y-9309300D01*
X13931900Y-9233100D02*
X13855700Y-9309300D01*
X13855700Y-9487100D02*
X13931900Y-9563300D01*
X13931900Y-9487100D02*
X13855700Y-9563300D01*
X13855700Y-9741100D02*
X13931900Y-9817300D01*
X13931900Y-9741100D02*
X13855700Y-9817300D01*
X13855700Y-9995100D02*
X13931900Y-10071300D01*
X13931900Y-9995100D02*
X13855700Y-10071300D01*
X13855700Y-10249300D02*
X13931900Y-10325500D01*
X13931900Y-10249300D02*
X13855700Y-10325500D01*
X13855700Y-10503300D02*
X13931900Y-10579500D01*
X13931900Y-10503300D02*
X13855700Y-10579500D01*
X13855700Y-10756900D02*
X13931900Y-10833100D01*
X13931900Y-10756900D02*
X13855700Y-10833100D01*
X13855700Y-11010900D02*
X13931900Y-11087100D01*
X13931900Y-11010900D02*
X13855700Y-11087100D01*
X13855700Y-11265100D02*
X13931900Y-11341300D01*
X13931900Y-11265100D02*
X13855700Y-11341300D01*
X13855700Y-11519100D02*
X13931900Y-11595300D01*
X13931900Y-11519100D02*
X13855700Y-11595300D01*
X13855700Y-11772900D02*
X13931900Y-11849100D01*
X13931900Y-11772900D02*
X13855700Y-11849100D01*
X13855700Y-12026900D02*
X13931900Y-12103100D01*
X13931900Y-12026900D02*
X13855700Y-12103100D01*
X13855700Y-12281100D02*
X13931900Y-12357300D01*
X13931900Y-12281100D02*
X13855700Y-12357300D01*
X13855700Y-12535100D02*
X13931900Y-12611300D01*
X13931900Y-12535100D02*
X13855700Y-12611300D01*
X13855700Y-12788700D02*
X13931900Y-12864900D01*
X13931900Y-12788700D02*
X13855700Y-12864900D01*
X13855700Y-13042700D02*
X13931900Y-13118900D01*
X13931900Y-13042700D02*
X13855700Y-13118900D01*
X13855700Y-13296900D02*
X13931900Y-13373100D01*
X13931900Y-13296900D02*
X13855700Y-13373100D01*
X13855700Y-13550900D02*
X13931900Y-13627100D01*
X13931900Y-13550900D02*
X13855700Y-13627100D01*
X14363700Y-5677100D02*
X14439900Y-5753300D01*
X14439900Y-5677100D02*
X14363700Y-5753300D01*
X14363700Y-5931100D02*
X14439900Y-6007300D01*
X14439900Y-5931100D02*
X14363700Y-6007300D01*
X14363700Y-6185500D02*
X14439900Y-6261700D01*
X14439900Y-6185500D02*
X14363700Y-6261700D01*
X14363700Y-6439500D02*
X14439900Y-6515700D01*
X14439900Y-6439500D02*
X14363700Y-6515700D01*
X14363700Y-6693100D02*
X14439900Y-6769300D01*
X14439900Y-6693100D02*
X14363700Y-6769300D01*
X14363700Y-6947100D02*
X14439900Y-7023300D01*
X14439900Y-6947100D02*
X14363700Y-7023300D01*
X14363700Y-7201300D02*
X14439900Y-7277500D01*
X14439900Y-7201300D02*
X14363700Y-7277500D01*
X14363700Y-7455300D02*
X14439900Y-7531500D01*
X14439900Y-7455300D02*
X14363700Y-7531500D01*
X14363700Y-7709300D02*
X14439900Y-7785500D01*
X14439900Y-7709300D02*
X14363700Y-7785500D01*
X14363700Y-7963300D02*
X14439900Y-8039500D01*
X14439900Y-7963300D02*
X14363700Y-8039500D01*
X14363700Y-8217500D02*
X14439900Y-8293700D01*
X14439900Y-8217500D02*
X14363700Y-8293700D01*
X14363700Y-8471500D02*
X14439900Y-8547700D01*
X14439900Y-8471500D02*
X14363700Y-8547700D01*
X14363700Y-8725100D02*
X14439900Y-8801300D01*
X14439900Y-8725100D02*
X14363700Y-8801300D01*
X14363700Y-8979100D02*
X14439900Y-9055300D01*
X14439900Y-8979100D02*
X14363700Y-9055300D01*
X14363700Y-9233300D02*
X14439900Y-9309500D01*
X14439900Y-9233300D02*
X14363700Y-9309500D01*
X14363700Y-9487300D02*
X14439900Y-9563500D01*
X14439900Y-9487300D02*
X14363700Y-9563500D01*
X14363700Y-9741300D02*
X14439900Y-9817500D01*
X14439900Y-9741300D02*
X14363700Y-9817500D01*
X14363700Y-9995300D02*
X14439900Y-10071500D01*
X14439900Y-9995300D02*
X14363700Y-10071500D01*
X14363700Y-10249500D02*
X14439900Y-10325700D01*
X14439900Y-10249500D02*
X14363700Y-10325700D01*
X14363700Y-10503500D02*
X14439900Y-10579700D01*
X14439900Y-10503500D02*
X14363700Y-10579700D01*
X14363700Y-10757100D02*
X14439900Y-10833300D01*
X14439900Y-10757100D02*
X14363700Y-10833300D01*
X14363700Y-11011100D02*
X14439900Y-11087300D01*
X14439900Y-11011100D02*
X14363700Y-11087300D01*
X14363700Y-11265300D02*
X14439900Y-11341500D01*
X14439900Y-11265300D02*
X14363700Y-11341500D01*
X14363700Y-11519300D02*
X14439900Y-11595500D01*
X14439900Y-11519300D02*
X14363700Y-11595500D01*
X14363700Y-11772900D02*
X14439900Y-11849100D01*
X14439900Y-11772900D02*
X14363700Y-11849100D01*
X14363700Y-12026900D02*
X14439900Y-12103100D01*
X14439900Y-12026900D02*
X14363700Y-12103100D01*
X14363700Y-12281300D02*
X14439900Y-12357500D01*
X14439900Y-12281300D02*
X14363700Y-12357500D01*
X14363700Y-12535300D02*
X14439900Y-12611500D01*
X14439900Y-12535300D02*
X14363700Y-12611500D01*
X14363700Y-12788900D02*
X14439900Y-12865100D01*
X14439900Y-12788900D02*
X14363700Y-12865100D01*
X14363700Y-13042900D02*
X14439900Y-13119100D01*
X14439900Y-13042900D02*
X14363700Y-13119100D01*
X14363700Y-13297100D02*
X14439900Y-13373300D01*
X14439900Y-13297100D02*
X14363700Y-13373300D01*
X14363700Y-13551100D02*
X14439900Y-13627300D01*
X14439900Y-13551100D02*
X14363700Y-13627300D01*
X14617700Y-5677100D02*
X14693900Y-5753300D01*
X14693900Y-5677100D02*
X14617700Y-5753300D01*
X14617700Y-5931100D02*
X14693900Y-6007300D01*
X14693900Y-5931100D02*
X14617700Y-6007300D01*
X14617700Y-6185500D02*
X14693900Y-6261700D01*
X14693900Y-6185500D02*
X14617700Y-6261700D01*
X14617700Y-6439500D02*
X14693900Y-6515700D01*
X14693900Y-6439500D02*
X14617700Y-6515700D01*
X14617700Y-6693100D02*
X14693900Y-6769300D01*
X14693900Y-6693100D02*
X14617700Y-6769300D01*
X14617700Y-6947100D02*
X14693900Y-7023300D01*
X14693900Y-6947100D02*
X14617700Y-7023300D01*
X14617700Y-7201300D02*
X14693900Y-7277500D01*
X14693900Y-7201300D02*
X14617700Y-7277500D01*
X14617700Y-7455300D02*
X14693900Y-7531500D01*
X14693900Y-7455300D02*
X14617700Y-7531500D01*
X14617700Y-7709300D02*
X14693900Y-7785500D01*
X14693900Y-7709300D02*
X14617700Y-7785500D01*
X14617700Y-7963300D02*
X14693900Y-8039500D01*
X14693900Y-7963300D02*
X14617700Y-8039500D01*
X14617700Y-8217500D02*
X14693900Y-8293700D01*
X14693900Y-8217500D02*
X14617700Y-8293700D01*
X14617700Y-8471500D02*
X14693900Y-8547700D01*
X14693900Y-8471500D02*
X14617700Y-8547700D01*
X14617700Y-8725100D02*
X14693900Y-8801300D01*
X14693900Y-8725100D02*
X14617700Y-8801300D01*
X14617700Y-8979100D02*
X14693900Y-9055300D01*
X14693900Y-8979100D02*
X14617700Y-9055300D01*
X14617700Y-9233300D02*
X14693900Y-9309500D01*
X14693900Y-9233300D02*
X14617700Y-9309500D01*
X14617700Y-9487300D02*
X14693900Y-9563500D01*
X14693900Y-9487300D02*
X14617700Y-9563500D01*
X14617700Y-9741300D02*
X14693900Y-9817500D01*
X14693900Y-9741300D02*
X14617700Y-9817500D01*
X14617700Y-9995300D02*
X14693900Y-10071500D01*
X14693900Y-9995300D02*
X14617700Y-10071500D01*
X14617700Y-10249500D02*
X14693900Y-10325700D01*
X14693900Y-10249500D02*
X14617700Y-10325700D01*
X14617700Y-10503500D02*
X14693900Y-10579700D01*
X14693900Y-10503500D02*
X14617700Y-10579700D01*
X14617700Y-10757100D02*
X14693900Y-10833300D01*
X14693900Y-10757100D02*
X14617700Y-10833300D01*
X14617700Y-11011100D02*
X14693900Y-11087300D01*
X14693900Y-11011100D02*
X14617700Y-11087300D01*
X14617700Y-11265300D02*
X14693900Y-11341500D01*
X14693900Y-11265300D02*
X14617700Y-11341500D01*
X14617700Y-11519300D02*
X14693900Y-11595500D01*
X14693900Y-11519300D02*
X14617700Y-11595500D01*
X14617700Y-11772900D02*
X14693900Y-11849100D01*
X14693900Y-11772900D02*
X14617700Y-11849100D01*
X14617700Y-12026900D02*
X14693900Y-12103100D01*
X14693900Y-12026900D02*
X14617700Y-12103100D01*
X14617700Y-12281300D02*
X14693900Y-12357500D01*
X14693900Y-12281300D02*
X14617700Y-12357500D01*
X14617700Y-12535300D02*
X14693900Y-12611500D01*
X14693900Y-12535300D02*
X14617700Y-12611500D01*
X14617700Y-12788900D02*
X14693900Y-12865100D01*
X14693900Y-12788900D02*
X14617700Y-12865100D01*
X14617700Y-13042900D02*
X14693900Y-13119100D01*
X14693900Y-13042900D02*
X14617700Y-13119100D01*
X14617700Y-13297100D02*
X14693900Y-13373300D01*
X14693900Y-13297100D02*
X14617700Y-13373300D01*
X14617700Y-13551100D02*
X14693900Y-13627300D01*
X14693900Y-13551100D02*
X14617700Y-13627300D01*
X14871700Y-5677100D02*
X14947900Y-5753300D01*
X14947900Y-5677100D02*
X14871700Y-5753300D01*
X14871700Y-5931100D02*
X14947900Y-6007300D01*
X14947900Y-5931100D02*
X14871700Y-6007300D01*
X14871700Y-6185500D02*
X14947900Y-6261700D01*
X14947900Y-6185500D02*
X14871700Y-6261700D01*
X14871700Y-6439500D02*
X14947900Y-6515700D01*
X14947900Y-6439500D02*
X14871700Y-6515700D01*
X14871700Y-6693100D02*
X14947900Y-6769300D01*
X14947900Y-6693100D02*
X14871700Y-6769300D01*
X14871700Y-6947100D02*
X14947900Y-7023300D01*
X14947900Y-6947100D02*
X14871700Y-7023300D01*
X14871700Y-7201300D02*
X14947900Y-7277500D01*
X14947900Y-7201300D02*
X14871700Y-7277500D01*
X14871700Y-7455300D02*
X14947900Y-7531500D01*
X14947900Y-7455300D02*
X14871700Y-7531500D01*
X14871700Y-7709300D02*
X14947900Y-7785500D01*
X14947900Y-7709300D02*
X14871700Y-7785500D01*
X14871700Y-7963300D02*
X14947900Y-8039500D01*
X14947900Y-7963300D02*
X14871700Y-8039500D01*
X14871700Y-8217500D02*
X14947900Y-8293700D01*
X14947900Y-8217500D02*
X14871700Y-8293700D01*
X14871700Y-8471500D02*
X14947900Y-8547700D01*
X14947900Y-8471500D02*
X14871700Y-8547700D01*
X14871700Y-8725100D02*
X14947900Y-8801300D01*
X14947900Y-8725100D02*
X14871700Y-8801300D01*
X14871700Y-8979100D02*
X14947900Y-9055300D01*
X14947900Y-8979100D02*
X14871700Y-9055300D01*
X14871700Y-9233300D02*
X14947900Y-9309500D01*
X14947900Y-9233300D02*
X14871700Y-9309500D01*
X14871700Y-9487300D02*
X14947900Y-9563500D01*
X14947900Y-9487300D02*
X14871700Y-9563500D01*
X14871700Y-9741300D02*
X14947900Y-9817500D01*
X14947900Y-9741300D02*
X14871700Y-9817500D01*
X14871700Y-9995300D02*
X14947900Y-10071500D01*
X14947900Y-9995300D02*
X14871700Y-10071500D01*
X14871700Y-10249500D02*
X14947900Y-10325700D01*
X14947900Y-10249500D02*
X14871700Y-10325700D01*
X14871700Y-10503500D02*
X14947900Y-10579700D01*
X14947900Y-10503500D02*
X14871700Y-10579700D01*
X14871700Y-10757100D02*
X14947900Y-10833300D01*
X14947900Y-10757100D02*
X14871700Y-10833300D01*
X14871700Y-11011100D02*
X14947900Y-11087300D01*
X14947900Y-11011100D02*
X14871700Y-11087300D01*
X14871700Y-11265300D02*
X14947900Y-11341500D01*
X14947900Y-11265300D02*
X14871700Y-11341500D01*
X14871700Y-11519300D02*
X14947900Y-11595500D01*
X14947900Y-11519300D02*
X14871700Y-11595500D01*
X14871700Y-11772900D02*
X14947900Y-11849100D01*
X14947900Y-11772900D02*
X14871700Y-11849100D01*
X14871700Y-12026900D02*
X14947900Y-12103100D01*
X14947900Y-12026900D02*
X14871700Y-12103100D01*
X14871700Y-12281300D02*
X14947900Y-12357500D01*
X14947900Y-12281300D02*
X14871700Y-12357500D01*
X14871700Y-12535300D02*
X14947900Y-12611500D01*
X14947900Y-12535300D02*
X14871700Y-12611500D01*
X14871700Y-12788900D02*
X14947900Y-12865100D01*
X14947900Y-12788900D02*
X14871700Y-12865100D01*
X14871700Y-13042900D02*
X14947900Y-13119100D01*
X14947900Y-13042900D02*
X14871700Y-13119100D01*
X14871700Y-13297100D02*
X14947900Y-13373300D01*
X14947900Y-13297100D02*
X14871700Y-13373300D01*
X14871700Y-13551100D02*
X14947900Y-13627300D01*
X14947900Y-13551100D02*
X14871700Y-13627300D01*
X15125700Y-5677100D02*
X15201900Y-5753300D01*
X15201900Y-5677100D02*
X15125700Y-5753300D01*
X15125700Y-5931100D02*
X15201900Y-6007300D01*
X15201900Y-5931100D02*
X15125700Y-6007300D01*
X15125700Y-6185500D02*
X15201900Y-6261700D01*
X15201900Y-6185500D02*
X15125700Y-6261700D01*
X15125700Y-6439500D02*
X15201900Y-6515700D01*
X15201900Y-6439500D02*
X15125700Y-6515700D01*
X15125700Y-6693100D02*
X15201900Y-6769300D01*
X15201900Y-6693100D02*
X15125700Y-6769300D01*
X15125700Y-6947100D02*
X15201900Y-7023300D01*
X15201900Y-6947100D02*
X15125700Y-7023300D01*
X15125700Y-7201300D02*
X15201900Y-7277500D01*
X15201900Y-7201300D02*
X15125700Y-7277500D01*
X15125700Y-7455300D02*
X15201900Y-7531500D01*
X15201900Y-7455300D02*
X15125700Y-7531500D01*
X15125700Y-7709300D02*
X15201900Y-7785500D01*
X15201900Y-7709300D02*
X15125700Y-7785500D01*
X15125700Y-7963300D02*
X15201900Y-8039500D01*
X15201900Y-7963300D02*
X15125700Y-8039500D01*
X15125700Y-8217500D02*
X15201900Y-8293700D01*
X15201900Y-8217500D02*
X15125700Y-8293700D01*
X15125700Y-8471500D02*
X15201900Y-8547700D01*
X15201900Y-8471500D02*
X15125700Y-8547700D01*
X15125700Y-8725100D02*
X15201900Y-8801300D01*
X15201900Y-8725100D02*
X15125700Y-8801300D01*
X15125700Y-8979100D02*
X15201900Y-9055300D01*
X15201900Y-8979100D02*
X15125700Y-9055300D01*
X15125700Y-9233300D02*
X15201900Y-9309500D01*
X15201900Y-9233300D02*
X15125700Y-9309500D01*
X15125700Y-9487300D02*
X15201900Y-9563500D01*
X15201900Y-9487300D02*
X15125700Y-9563500D01*
X15125700Y-9741300D02*
X15201900Y-9817500D01*
X15201900Y-9741300D02*
X15125700Y-9817500D01*
X15125700Y-9995300D02*
X15201900Y-10071500D01*
X15201900Y-9995300D02*
X15125700Y-10071500D01*
X15125700Y-10249500D02*
X15201900Y-10325700D01*
X15201900Y-10249500D02*
X15125700Y-10325700D01*
X15125700Y-10503500D02*
X15201900Y-10579700D01*
X15201900Y-10503500D02*
X15125700Y-10579700D01*
X15125700Y-10757100D02*
X15201900Y-10833300D01*
X15201900Y-10757100D02*
X15125700Y-10833300D01*
X15125700Y-11011100D02*
X15201900Y-11087300D01*
X15201900Y-11011100D02*
X15125700Y-11087300D01*
X15125700Y-11265300D02*
X15201900Y-11341500D01*
X15201900Y-11265300D02*
X15125700Y-11341500D01*
X15125700Y-11519300D02*
X15201900Y-11595500D01*
X15201900Y-11519300D02*
X15125700Y-11595500D01*
X15125700Y-11772900D02*
X15201900Y-11849100D01*
X15201900Y-11772900D02*
X15125700Y-11849100D01*
X15125700Y-12026900D02*
X15201900Y-12103100D01*
X15201900Y-12026900D02*
X15125700Y-12103100D01*
X15125700Y-12281300D02*
X15201900Y-12357500D01*
X15201900Y-12281300D02*
X15125700Y-12357500D01*
X15125700Y-12535300D02*
X15201900Y-12611500D01*
X15201900Y-12535300D02*
X15125700Y-12611500D01*
X15125700Y-12788900D02*
X15201900Y-12865100D01*
X15201900Y-12788900D02*
X15125700Y-12865100D01*
X15125700Y-13042900D02*
X15201900Y-13119100D01*
X15201900Y-13042900D02*
X15125700Y-13119100D01*
X15125700Y-13297100D02*
X15201900Y-13373300D01*
X15201900Y-13297100D02*
X15125700Y-13373300D01*
X15125700Y-13551100D02*
X15201900Y-13627300D01*
X15201900Y-13551100D02*
X15125700Y-13627300D01*
X15379700Y-5677100D02*
X15455900Y-5753300D01*
X15455900Y-5677100D02*
X15379700Y-5753300D01*
X15379700Y-5931100D02*
X15455900Y-6007300D01*
X15455900Y-5931100D02*
X15379700Y-6007300D01*
X15379700Y-6185500D02*
X15455900Y-6261700D01*
X15455900Y-6185500D02*
X15379700Y-6261700D01*
X15379700Y-6439500D02*
X15455900Y-6515700D01*
X15455900Y-6439500D02*
X15379700Y-6515700D01*
X15379700Y-6693100D02*
X15455900Y-6769300D01*
X15455900Y-6693100D02*
X15379700Y-6769300D01*
X15379700Y-6947100D02*
X15455900Y-7023300D01*
X15455900Y-6947100D02*
X15379700Y-7023300D01*
X15379700Y-7201300D02*
X15455900Y-7277500D01*
X15455900Y-7201300D02*
X15379700Y-7277500D01*
X15379700Y-7455300D02*
X15455900Y-7531500D01*
X15455900Y-7455300D02*
X15379700Y-7531500D01*
X15379700Y-7709300D02*
X15455900Y-7785500D01*
X15455900Y-7709300D02*
X15379700Y-7785500D01*
X15379700Y-7963300D02*
X15455900Y-8039500D01*
X15455900Y-7963300D02*
X15379700Y-8039500D01*
X15379700Y-8217500D02*
X15455900Y-8293700D01*
X15455900Y-8217500D02*
X15379700Y-8293700D01*
X15379700Y-8471500D02*
X15455900Y-8547700D01*
X15455900Y-8471500D02*
X15379700Y-8547700D01*
X15379700Y-8725100D02*
X15455900Y-8801300D01*
X15455900Y-8725100D02*
X15379700Y-8801300D01*
X15379700Y-8979100D02*
X15455900Y-9055300D01*
X15455900Y-8979100D02*
X15379700Y-9055300D01*
X15379700Y-9233300D02*
X15455900Y-9309500D01*
X15455900Y-9233300D02*
X15379700Y-9309500D01*
X15379700Y-9487300D02*
X15455900Y-9563500D01*
X15455900Y-9487300D02*
X15379700Y-9563500D01*
X15379700Y-9741300D02*
X15455900Y-9817500D01*
X15455900Y-9741300D02*
X15379700Y-9817500D01*
X15379700Y-9995300D02*
X15455900Y-10071500D01*
X15455900Y-9995300D02*
X15379700Y-10071500D01*
X15379700Y-10249500D02*
X15455900Y-10325700D01*
X15455900Y-10249500D02*
X15379700Y-10325700D01*
X15379700Y-10503500D02*
X15455900Y-10579700D01*
X15455900Y-10503500D02*
X15379700Y-10579700D01*
X15379700Y-10757100D02*
X15455900Y-10833300D01*
X15455900Y-10757100D02*
X15379700Y-10833300D01*
X15379700Y-11011100D02*
X15455900Y-11087300D01*
X15455900Y-11011100D02*
X15379700Y-11087300D01*
X15379700Y-11265300D02*
X15455900Y-11341500D01*
X15455900Y-11265300D02*
X15379700Y-11341500D01*
X15379700Y-11519300D02*
X15455900Y-11595500D01*
X15455900Y-11519300D02*
X15379700Y-11595500D01*
X15379700Y-11772900D02*
X15455900Y-11849100D01*
X15455900Y-11772900D02*
X15379700Y-11849100D01*
X15379700Y-12026900D02*
X15455900Y-12103100D01*
X15455900Y-12026900D02*
X15379700Y-12103100D01*
X15379700Y-12281300D02*
X15455900Y-12357500D01*
X15455900Y-12281300D02*
X15379700Y-12357500D01*
X15379700Y-12535300D02*
X15455900Y-12611500D01*
X15455900Y-12535300D02*
X15379700Y-12611500D01*
X15379700Y-12788900D02*
X15455900Y-12865100D01*
X15455900Y-12788900D02*
X15379700Y-12865100D01*
X15379700Y-13042900D02*
X15455900Y-13119100D01*
X15455900Y-13042900D02*
X15379700Y-13119100D01*
X15379700Y-13297100D02*
X15455900Y-13373300D01*
X15455900Y-13297100D02*
X15379700Y-13373300D01*
X15379700Y-13551100D02*
X15455900Y-13627300D01*
X15455900Y-13551100D02*
X15379700Y-13627300D01*
X15633700Y-5677100D02*
X15709900Y-5753300D01*
X15709900Y-5677100D02*
X15633700Y-5753300D01*
X15633700Y-5931100D02*
X15709900Y-6007300D01*
X15709900Y-5931100D02*
X15633700Y-6007300D01*
X15633700Y-6185100D02*
X15709900Y-6261300D01*
X15709900Y-6185100D02*
X15633700Y-6261300D01*
X15633700Y-6439100D02*
X15709900Y-6515300D01*
X15709900Y-6439100D02*
X15633700Y-6515300D01*
X15633700Y-6693100D02*
X15709900Y-6769300D01*
X15709900Y-6693100D02*
X15633700Y-6769300D01*
X15633700Y-6947100D02*
X15709900Y-7023300D01*
X15709900Y-6947100D02*
X15633700Y-7023300D01*
X15633700Y-7201100D02*
X15709900Y-7277300D01*
X15709900Y-7201100D02*
X15633700Y-7277300D01*
X15633700Y-7455100D02*
X15709900Y-7531300D01*
X15709900Y-7455100D02*
X15633700Y-7531300D01*
X15633700Y-7709100D02*
X15709900Y-7785300D01*
X15709900Y-7709100D02*
X15633700Y-7785300D01*
X15633700Y-7963100D02*
X15709900Y-8039300D01*
X15709900Y-7963100D02*
X15633700Y-8039300D01*
X15633700Y-8217100D02*
X15709900Y-8293300D01*
X15709900Y-8217100D02*
X15633700Y-8293300D01*
X15633700Y-8471100D02*
X15709900Y-8547300D01*
X15709900Y-8471100D02*
X15633700Y-8547300D01*
X15633700Y-8725100D02*
X15709900Y-8801300D01*
X15709900Y-8725100D02*
X15633700Y-8801300D01*
X15633700Y-8979100D02*
X15709900Y-9055300D01*
X15709900Y-8979100D02*
X15633700Y-9055300D01*
X15633700Y-9233100D02*
X15709900Y-9309300D01*
X15709900Y-9233100D02*
X15633700Y-9309300D01*
X15633700Y-9487100D02*
X15709900Y-9563300D01*
X15709900Y-9487100D02*
X15633700Y-9563300D01*
X15633700Y-9741100D02*
X15709900Y-9817300D01*
X15709900Y-9741100D02*
X15633700Y-9817300D01*
X15633700Y-9995100D02*
X15709900Y-10071300D01*
X15709900Y-9995100D02*
X15633700Y-10071300D01*
X15633700Y-10249100D02*
X15709900Y-10325300D01*
X15709900Y-10249100D02*
X15633700Y-10325300D01*
X15633700Y-10503100D02*
X15709900Y-10579300D01*
X15709900Y-10503100D02*
X15633700Y-10579300D01*
X15633700Y-13297300D02*
X15709900Y-13373500D01*
X15709900Y-13297300D02*
X15633700Y-13373500D01*
X15633700Y-13551300D02*
X15709900Y-13627500D01*
X15709900Y-13551300D02*
X15633700Y-13627500D01*
X15633900Y-10756900D02*
X15710100Y-10833100D01*
X15710100Y-10756900D02*
X15633900Y-10833100D01*
X15633900Y-11010900D02*
X15710100Y-11087100D01*
X15710100Y-11010900D02*
X15633900Y-11087100D01*
X15633900Y-11264900D02*
X15710100Y-11341100D01*
X15710100Y-11264900D02*
X15633900Y-11341100D01*
X15633900Y-11518900D02*
X15710100Y-11595100D01*
X15710100Y-11518900D02*
X15633900Y-11595100D01*
X15633900Y-11772900D02*
X15710100Y-11849100D01*
X15710100Y-11772900D02*
X15633900Y-11849100D01*
X15633900Y-12026900D02*
X15710100Y-12103100D01*
X15710100Y-12026900D02*
X15633900Y-12103100D01*
X15633900Y-12280900D02*
X15710100Y-12357100D01*
X15710100Y-12280900D02*
X15633900Y-12357100D01*
X15633900Y-12534900D02*
X15710100Y-12611100D01*
X15710100Y-12534900D02*
X15633900Y-12611100D01*
X15633900Y-12788900D02*
X15710100Y-12865100D01*
X15710100Y-12788900D02*
X15633900Y-12865100D01*
X15633900Y-13042900D02*
X15710100Y-13119100D01*
X15710100Y-13042900D02*
X15633900Y-13119100D01*
X15887700Y-5677100D02*
X15963900Y-5753300D01*
X15963900Y-5677100D02*
X15887700Y-5753300D01*
X15887700Y-5931100D02*
X15963900Y-6007300D01*
X15963900Y-5931100D02*
X15887700Y-6007300D01*
X15887700Y-6185100D02*
X15963900Y-6261300D01*
X15963900Y-6185100D02*
X15887700Y-6261300D01*
X15887700Y-6439100D02*
X15963900Y-6515300D01*
X15963900Y-6439100D02*
X15887700Y-6515300D01*
X15887700Y-6693100D02*
X15963900Y-6769300D01*
X15963900Y-6693100D02*
X15887700Y-6769300D01*
X15887700Y-6947100D02*
X15963900Y-7023300D01*
X15963900Y-6947100D02*
X15887700Y-7023300D01*
X15887700Y-7201100D02*
X15963900Y-7277300D01*
X15963900Y-7201100D02*
X15887700Y-7277300D01*
X15887700Y-7455100D02*
X15963900Y-7531300D01*
X15963900Y-7455100D02*
X15887700Y-7531300D01*
X15887700Y-7709100D02*
X15963900Y-7785300D01*
X15963900Y-7709100D02*
X15887700Y-7785300D01*
X15887700Y-7963100D02*
X15963900Y-8039300D01*
X15963900Y-7963100D02*
X15887700Y-8039300D01*
X15887700Y-8217100D02*
X15963900Y-8293300D01*
X15963900Y-8217100D02*
X15887700Y-8293300D01*
X15887700Y-8471100D02*
X15963900Y-8547300D01*
X15963900Y-8471100D02*
X15887700Y-8547300D01*
X15887700Y-8725100D02*
X15963900Y-8801300D01*
X15963900Y-8725100D02*
X15887700Y-8801300D01*
X15887700Y-8979100D02*
X15963900Y-9055300D01*
X15963900Y-8979100D02*
X15887700Y-9055300D01*
X15887700Y-9233100D02*
X15963900Y-9309300D01*
X15963900Y-9233100D02*
X15887700Y-9309300D01*
X15887700Y-9487100D02*
X15963900Y-9563300D01*
X15963900Y-9487100D02*
X15887700Y-9563300D01*
X15887700Y-9741100D02*
X15963900Y-9817300D01*
X15963900Y-9741100D02*
X15887700Y-9817300D01*
X15887700Y-9995100D02*
X15963900Y-10071300D01*
X15963900Y-9995100D02*
X15887700Y-10071300D01*
X15887700Y-10249100D02*
X15963900Y-10325300D01*
X15963900Y-10249100D02*
X15887700Y-10325300D01*
X15887700Y-10503100D02*
X15963900Y-10579300D01*
X15963900Y-10503100D02*
X15887700Y-10579300D01*
X15887700Y-13297300D02*
X15963900Y-13373500D01*
X15963900Y-13297300D02*
X15887700Y-13373500D01*
X15887700Y-13551300D02*
X15963900Y-13627500D01*
X15963900Y-13551300D02*
X15887700Y-13627500D01*
X15887900Y-10756900D02*
X15964100Y-10833100D01*
X15964100Y-10756900D02*
X15887900Y-10833100D01*
X15887900Y-11010900D02*
X15964100Y-11087100D01*
X15964100Y-11010900D02*
X15887900Y-11087100D01*
X15887900Y-11264900D02*
X15964100Y-11341100D01*
X15964100Y-11264900D02*
X15887900Y-11341100D01*
X15887900Y-11518900D02*
X15964100Y-11595100D01*
X15964100Y-11518900D02*
X15887900Y-11595100D01*
X15887900Y-11772900D02*
X15964100Y-11849100D01*
X15964100Y-11772900D02*
X15887900Y-11849100D01*
X15887900Y-12026900D02*
X15964100Y-12103100D01*
X15964100Y-12026900D02*
X15887900Y-12103100D01*
X15887900Y-12280900D02*
X15964100Y-12357100D01*
X15964100Y-12280900D02*
X15887900Y-12357100D01*
X15887900Y-12534900D02*
X15964100Y-12611100D01*
X15964100Y-12534900D02*
X15887900Y-12611100D01*
X15887900Y-12788900D02*
X15964100Y-12865100D01*
X15964100Y-12788900D02*
X15887900Y-12865100D01*
X15887900Y-13042900D02*
X15964100Y-13119100D01*
X15964100Y-13042900D02*
X15887900Y-13119100D01*
X16141700Y-5676900D02*
X16217900Y-5753100D01*
X16217900Y-5676900D02*
X16141700Y-5753100D01*
X16141700Y-5930900D02*
X16217900Y-6007100D01*
X16217900Y-5930900D02*
X16141700Y-6007100D01*
X16141700Y-6185100D02*
X16217900Y-6261300D01*
X16217900Y-6185100D02*
X16141700Y-6261300D01*
X16141700Y-6439100D02*
X16217900Y-6515300D01*
X16217900Y-6439100D02*
X16141700Y-6515300D01*
X16141700Y-6692700D02*
X16217900Y-6768900D01*
X16217900Y-6692700D02*
X16141700Y-6768900D01*
X16141700Y-6946700D02*
X16217900Y-7022900D01*
X16217900Y-6946700D02*
X16141700Y-7022900D01*
X16141700Y-7200900D02*
X16217900Y-7277100D01*
X16217900Y-7200900D02*
X16141700Y-7277100D01*
X16141700Y-7454900D02*
X16217900Y-7531100D01*
X16217900Y-7454900D02*
X16141700Y-7531100D01*
X16141700Y-7708900D02*
X16217900Y-7785100D01*
X16217900Y-7708900D02*
X16141700Y-7785100D01*
X16141700Y-7962900D02*
X16217900Y-8039100D01*
X16217900Y-7962900D02*
X16141700Y-8039100D01*
X16141700Y-8217100D02*
X16217900Y-8293300D01*
X16217900Y-8217100D02*
X16141700Y-8293300D01*
X16141700Y-8471100D02*
X16217900Y-8547300D01*
X16217900Y-8471100D02*
X16141700Y-8547300D01*
X16141700Y-8724700D02*
X16217900Y-8800900D01*
X16217900Y-8724700D02*
X16141700Y-8800900D01*
X16141700Y-8978700D02*
X16217900Y-9054900D01*
X16217900Y-8978700D02*
X16141700Y-9054900D01*
X16141700Y-9232900D02*
X16217900Y-9309100D01*
X16217900Y-9232900D02*
X16141700Y-9309100D01*
X16141700Y-9486900D02*
X16217900Y-9563100D01*
X16217900Y-9486900D02*
X16141700Y-9563100D01*
X16141700Y-9740900D02*
X16217900Y-9817100D01*
X16217900Y-9740900D02*
X16141700Y-9817100D01*
X16141700Y-9994900D02*
X16217900Y-10071100D01*
X16217900Y-9994900D02*
X16141700Y-10071100D01*
X16141700Y-10249100D02*
X16217900Y-10325300D01*
X16217900Y-10249100D02*
X16141700Y-10325300D01*
X16141700Y-10503100D02*
X16217900Y-10579300D01*
X16217900Y-10503100D02*
X16141700Y-10579300D01*
X16141700Y-10756700D02*
X16217900Y-10832900D01*
X16217900Y-10756700D02*
X16141700Y-10832900D01*
X16141700Y-11010700D02*
X16217900Y-11086900D01*
X16217900Y-11010700D02*
X16141700Y-11086900D01*
X16141700Y-11264900D02*
X16217900Y-11341100D01*
X16217900Y-11264900D02*
X16141700Y-11341100D01*
X16141700Y-11518900D02*
X16217900Y-11595100D01*
X16217900Y-11518900D02*
X16141700Y-11595100D01*
X16141700Y-11772900D02*
X16217900Y-11849100D01*
X16217900Y-11772900D02*
X16141700Y-11849100D01*
X16141700Y-12026900D02*
X16217900Y-12103100D01*
X16217900Y-12026900D02*
X16141700Y-12103100D01*
X16141700Y-12281500D02*
X16217900Y-12357700D01*
X16217900Y-12281500D02*
X16141700Y-12357700D01*
X16141700Y-12535500D02*
X16217900Y-12611700D01*
X16217900Y-12535500D02*
X16141700Y-12611700D01*
X16141700Y-12789500D02*
X16217900Y-12865700D01*
X16217900Y-12789500D02*
X16141700Y-12865700D01*
X16141700Y-13043500D02*
X16217900Y-13119700D01*
X16217900Y-13043500D02*
X16141700Y-13119700D01*
X16141700Y-13297500D02*
X16217900Y-13373700D01*
X16217900Y-13297500D02*
X16141700Y-13373700D01*
X16141700Y-13551500D02*
X16217900Y-13627700D01*
X16217900Y-13551500D02*
X16141700Y-13627700D01*
X16395700Y-5676900D02*
X16471900Y-5753100D01*
X16471900Y-5676900D02*
X16395700Y-5753100D01*
X16395700Y-5930900D02*
X16471900Y-6007100D01*
X16471900Y-5930900D02*
X16395700Y-6007100D01*
X16395700Y-6185100D02*
X16471900Y-6261300D01*
X16471900Y-6185100D02*
X16395700Y-6261300D01*
X16395700Y-6439100D02*
X16471900Y-6515300D01*
X16471900Y-6439100D02*
X16395700Y-6515300D01*
X16395700Y-6692700D02*
X16471900Y-6768900D01*
X16471900Y-6692700D02*
X16395700Y-6768900D01*
X16395700Y-6946700D02*
X16471900Y-7022900D01*
X16471900Y-6946700D02*
X16395700Y-7022900D01*
X16395700Y-7200900D02*
X16471900Y-7277100D01*
X16471900Y-7200900D02*
X16395700Y-7277100D01*
X16395700Y-7454900D02*
X16471900Y-7531100D01*
X16471900Y-7454900D02*
X16395700Y-7531100D01*
X16395700Y-7708900D02*
X16471900Y-7785100D01*
X16471900Y-7708900D02*
X16395700Y-7785100D01*
X16395700Y-7962900D02*
X16471900Y-8039100D01*
X16471900Y-7962900D02*
X16395700Y-8039100D01*
X16395700Y-8217100D02*
X16471900Y-8293300D01*
X16471900Y-8217100D02*
X16395700Y-8293300D01*
X16395700Y-8471100D02*
X16471900Y-8547300D01*
X16471900Y-8471100D02*
X16395700Y-8547300D01*
X16395700Y-8724700D02*
X16471900Y-8800900D01*
X16471900Y-8724700D02*
X16395700Y-8800900D01*
X16395700Y-8978700D02*
X16471900Y-9054900D01*
X16471900Y-8978700D02*
X16395700Y-9054900D01*
X16395700Y-9232900D02*
X16471900Y-9309100D01*
X16471900Y-9232900D02*
X16395700Y-9309100D01*
X16395700Y-9486900D02*
X16471900Y-9563100D01*
X16471900Y-9486900D02*
X16395700Y-9563100D01*
X16395700Y-9740900D02*
X16471900Y-9817100D01*
X16471900Y-9740900D02*
X16395700Y-9817100D01*
X16395700Y-9994900D02*
X16471900Y-10071100D01*
X16471900Y-9994900D02*
X16395700Y-10071100D01*
X16395700Y-10249100D02*
X16471900Y-10325300D01*
X16471900Y-10249100D02*
X16395700Y-10325300D01*
X16395700Y-10503100D02*
X16471900Y-10579300D01*
X16471900Y-10503100D02*
X16395700Y-10579300D01*
X16395700Y-10756700D02*
X16471900Y-10832900D01*
X16471900Y-10756700D02*
X16395700Y-10832900D01*
X16395700Y-11010700D02*
X16471900Y-11086900D01*
X16471900Y-11010700D02*
X16395700Y-11086900D01*
X16395700Y-11264900D02*
X16471900Y-11341100D01*
X16471900Y-11264900D02*
X16395700Y-11341100D01*
X16395700Y-11518900D02*
X16471900Y-11595100D01*
X16471900Y-11518900D02*
X16395700Y-11595100D01*
X16395700Y-11772900D02*
X16471900Y-11849100D01*
X16471900Y-11772900D02*
X16395700Y-11849100D01*
X16395700Y-12026900D02*
X16471900Y-12103100D01*
X16471900Y-12026900D02*
X16395700Y-12103100D01*
X16395700Y-12281500D02*
X16471900Y-12357700D01*
X16471900Y-12281500D02*
X16395700Y-12357700D01*
X16395700Y-12535500D02*
X16471900Y-12611700D01*
X16471900Y-12535500D02*
X16395700Y-12611700D01*
X16395700Y-12789500D02*
X16471900Y-12865700D01*
X16471900Y-12789500D02*
X16395700Y-12865700D01*
X16395700Y-13043500D02*
X16471900Y-13119700D01*
X16471900Y-13043500D02*
X16395700Y-13119700D01*
X16395700Y-13297500D02*
X16471900Y-13373700D01*
X16471900Y-13297500D02*
X16395700Y-13373700D01*
X16395700Y-13551500D02*
X16471900Y-13627700D01*
X16471900Y-13551500D02*
X16395700Y-13627700D01*
X16649700Y-5676900D02*
X16725900Y-5753100D01*
X16725900Y-5676900D02*
X16649700Y-5753100D01*
X16649700Y-5930900D02*
X16725900Y-6007100D01*
X16725900Y-5930900D02*
X16649700Y-6007100D01*
X16649700Y-6185100D02*
X16725900Y-6261300D01*
X16725900Y-6185100D02*
X16649700Y-6261300D01*
X16649700Y-6439100D02*
X16725900Y-6515300D01*
X16725900Y-6439100D02*
X16649700Y-6515300D01*
X16649700Y-6692700D02*
X16725900Y-6768900D01*
X16725900Y-6692700D02*
X16649700Y-6768900D01*
X16649700Y-6946700D02*
X16725900Y-7022900D01*
X16725900Y-6946700D02*
X16649700Y-7022900D01*
X16649700Y-7200900D02*
X16725900Y-7277100D01*
X16725900Y-7200900D02*
X16649700Y-7277100D01*
X16649700Y-7454900D02*
X16725900Y-7531100D01*
X16725900Y-7454900D02*
X16649700Y-7531100D01*
X16649700Y-7708900D02*
X16725900Y-7785100D01*
X16725900Y-7708900D02*
X16649700Y-7785100D01*
X16649700Y-7962900D02*
X16725900Y-8039100D01*
X16725900Y-7962900D02*
X16649700Y-8039100D01*
X16649700Y-8217100D02*
X16725900Y-8293300D01*
X16725900Y-8217100D02*
X16649700Y-8293300D01*
X16649700Y-8471100D02*
X16725900Y-8547300D01*
X16725900Y-8471100D02*
X16649700Y-8547300D01*
X16649700Y-8724700D02*
X16725900Y-8800900D01*
X16725900Y-8724700D02*
X16649700Y-8800900D01*
X16649700Y-8978700D02*
X16725900Y-9054900D01*
X16725900Y-8978700D02*
X16649700Y-9054900D01*
X16649700Y-9232900D02*
X16725900Y-9309100D01*
X16725900Y-9232900D02*
X16649700Y-9309100D01*
X16649700Y-9486900D02*
X16725900Y-9563100D01*
X16725900Y-9486900D02*
X16649700Y-9563100D01*
X16649700Y-9740900D02*
X16725900Y-9817100D01*
X16725900Y-9740900D02*
X16649700Y-9817100D01*
X16649700Y-9994900D02*
X16725900Y-10071100D01*
X16725900Y-9994900D02*
X16649700Y-10071100D01*
X16649700Y-10249100D02*
X16725900Y-10325300D01*
X16725900Y-10249100D02*
X16649700Y-10325300D01*
X16649700Y-10503100D02*
X16725900Y-10579300D01*
X16725900Y-10503100D02*
X16649700Y-10579300D01*
X16649700Y-10756700D02*
X16725900Y-10832900D01*
X16725900Y-10756700D02*
X16649700Y-10832900D01*
X16649700Y-11010700D02*
X16725900Y-11086900D01*
X16725900Y-11010700D02*
X16649700Y-11086900D01*
X16649700Y-11264900D02*
X16725900Y-11341100D01*
X16725900Y-11264900D02*
X16649700Y-11341100D01*
X16649700Y-11518900D02*
X16725900Y-11595100D01*
X16725900Y-11518900D02*
X16649700Y-11595100D01*
X16649700Y-11772900D02*
X16725900Y-11849100D01*
X16725900Y-11772900D02*
X16649700Y-11849100D01*
X16649700Y-12026900D02*
X16725900Y-12103100D01*
X16725900Y-12026900D02*
X16649700Y-12103100D01*
X16649700Y-12281500D02*
X16725900Y-12357700D01*
X16725900Y-12281500D02*
X16649700Y-12357700D01*
X16649700Y-12535500D02*
X16725900Y-12611700D01*
X16725900Y-12535500D02*
X16649700Y-12611700D01*
X16649700Y-12789500D02*
X16725900Y-12865700D01*
X16725900Y-12789500D02*
X16649700Y-12865700D01*
X16649700Y-13043500D02*
X16725900Y-13119700D01*
X16725900Y-13043500D02*
X16649700Y-13119700D01*
X16649700Y-13297500D02*
X16725900Y-13373700D01*
X16725900Y-13297500D02*
X16649700Y-13373700D01*
X16649700Y-13551500D02*
X16725900Y-13627700D01*
X16725900Y-13551500D02*
X16649700Y-13627700D01*
X16903700Y-5676900D02*
X16979900Y-5753100D01*
X16979900Y-5676900D02*
X16903700Y-5753100D01*
X16903700Y-5930900D02*
X16979900Y-6007100D01*
X16979900Y-5930900D02*
X16903700Y-6007100D01*
X16903700Y-6185100D02*
X16979900Y-6261300D01*
X16979900Y-6185100D02*
X16903700Y-6261300D01*
X16903700Y-6439100D02*
X16979900Y-6515300D01*
X16979900Y-6439100D02*
X16903700Y-6515300D01*
X16903700Y-6692700D02*
X16979900Y-6768900D01*
X16979900Y-6692700D02*
X16903700Y-6768900D01*
X16903700Y-6946700D02*
X16979900Y-7022900D01*
X16979900Y-6946700D02*
X16903700Y-7022900D01*
X16903700Y-7200900D02*
X16979900Y-7277100D01*
X16979900Y-7200900D02*
X16903700Y-7277100D01*
X16903700Y-7454900D02*
X16979900Y-7531100D01*
X16979900Y-7454900D02*
X16903700Y-7531100D01*
X16903700Y-7708900D02*
X16979900Y-7785100D01*
X16979900Y-7708900D02*
X16903700Y-7785100D01*
X16903700Y-7962900D02*
X16979900Y-8039100D01*
X16979900Y-7962900D02*
X16903700Y-8039100D01*
X16903700Y-8217100D02*
X16979900Y-8293300D01*
X16979900Y-8217100D02*
X16903700Y-8293300D01*
X16903700Y-8471100D02*
X16979900Y-8547300D01*
X16979900Y-8471100D02*
X16903700Y-8547300D01*
X16903700Y-8724700D02*
X16979900Y-8800900D01*
X16979900Y-8724700D02*
X16903700Y-8800900D01*
X16903700Y-8978700D02*
X16979900Y-9054900D01*
X16979900Y-8978700D02*
X16903700Y-9054900D01*
X16903700Y-9232900D02*
X16979900Y-9309100D01*
X16979900Y-9232900D02*
X16903700Y-9309100D01*
X16903700Y-9486900D02*
X16979900Y-9563100D01*
X16979900Y-9486900D02*
X16903700Y-9563100D01*
X16903700Y-9740900D02*
X16979900Y-9817100D01*
X16979900Y-9740900D02*
X16903700Y-9817100D01*
X16903700Y-9994900D02*
X16979900Y-10071100D01*
X16979900Y-9994900D02*
X16903700Y-10071100D01*
X16903700Y-10249100D02*
X16979900Y-10325300D01*
X16979900Y-10249100D02*
X16903700Y-10325300D01*
X16903700Y-10503100D02*
X16979900Y-10579300D01*
X16979900Y-10503100D02*
X16903700Y-10579300D01*
X16903700Y-10756700D02*
X16979900Y-10832900D01*
X16979900Y-10756700D02*
X16903700Y-10832900D01*
X16903700Y-11010700D02*
X16979900Y-11086900D01*
X16979900Y-11010700D02*
X16903700Y-11086900D01*
X16903700Y-11264900D02*
X16979900Y-11341100D01*
X16979900Y-11264900D02*
X16903700Y-11341100D01*
X16903700Y-11518900D02*
X16979900Y-11595100D01*
X16979900Y-11518900D02*
X16903700Y-11595100D01*
X16903700Y-11772900D02*
X16979900Y-11849100D01*
X16979900Y-11772900D02*
X16903700Y-11849100D01*
X16903700Y-12026900D02*
X16979900Y-12103100D01*
X16979900Y-12026900D02*
X16903700Y-12103100D01*
X16903700Y-12281500D02*
X16979900Y-12357700D01*
X16979900Y-12281500D02*
X16903700Y-12357700D01*
X16903700Y-12535500D02*
X16979900Y-12611700D01*
X16979900Y-12535500D02*
X16903700Y-12611700D01*
X16903700Y-12789500D02*
X16979900Y-12865700D01*
X16979900Y-12789500D02*
X16903700Y-12865700D01*
X16903700Y-13043500D02*
X16979900Y-13119700D01*
X16979900Y-13043500D02*
X16903700Y-13119700D01*
X16903700Y-13297500D02*
X16979900Y-13373700D01*
X16979900Y-13297500D02*
X16903700Y-13373700D01*
X16903700Y-13551500D02*
X16979900Y-13627700D01*
X16979900Y-13551500D02*
X16903700Y-13627700D01*
X17157700Y-5676900D02*
X17233900Y-5753100D01*
X17233900Y-5676900D02*
X17157700Y-5753100D01*
X17157700Y-5930900D02*
X17233900Y-6007100D01*
X17233900Y-5930900D02*
X17157700Y-6007100D01*
X17157700Y-6185100D02*
X17233900Y-6261300D01*
X17233900Y-6185100D02*
X17157700Y-6261300D01*
X17157700Y-6439100D02*
X17233900Y-6515300D01*
X17233900Y-6439100D02*
X17157700Y-6515300D01*
X17157700Y-6692700D02*
X17233900Y-6768900D01*
X17233900Y-6692700D02*
X17157700Y-6768900D01*
X17157700Y-6946700D02*
X17233900Y-7022900D01*
X17233900Y-6946700D02*
X17157700Y-7022900D01*
X17157700Y-7200900D02*
X17233900Y-7277100D01*
X17233900Y-7200900D02*
X17157700Y-7277100D01*
X17157700Y-7454900D02*
X17233900Y-7531100D01*
X17233900Y-7454900D02*
X17157700Y-7531100D01*
X17157700Y-7708900D02*
X17233900Y-7785100D01*
X17233900Y-7708900D02*
X17157700Y-7785100D01*
X17157700Y-7962900D02*
X17233900Y-8039100D01*
X17233900Y-7962900D02*
X17157700Y-8039100D01*
X17157700Y-8217100D02*
X17233900Y-8293300D01*
X17233900Y-8217100D02*
X17157700Y-8293300D01*
X17157700Y-8471100D02*
X17233900Y-8547300D01*
X17233900Y-8471100D02*
X17157700Y-8547300D01*
X17157700Y-8724700D02*
X17233900Y-8800900D01*
X17233900Y-8724700D02*
X17157700Y-8800900D01*
X17157700Y-8978700D02*
X17233900Y-9054900D01*
X17233900Y-8978700D02*
X17157700Y-9054900D01*
X17157700Y-9232900D02*
X17233900Y-9309100D01*
X17233900Y-9232900D02*
X17157700Y-9309100D01*
X17157700Y-9486900D02*
X17233900Y-9563100D01*
X17233900Y-9486900D02*
X17157700Y-9563100D01*
X17157700Y-9740900D02*
X17233900Y-9817100D01*
X17233900Y-9740900D02*
X17157700Y-9817100D01*
X17157700Y-9994900D02*
X17233900Y-10071100D01*
X17233900Y-9994900D02*
X17157700Y-10071100D01*
X17157700Y-10249100D02*
X17233900Y-10325300D01*
X17233900Y-10249100D02*
X17157700Y-10325300D01*
X17157700Y-10503100D02*
X17233900Y-10579300D01*
X17233900Y-10503100D02*
X17157700Y-10579300D01*
X17157700Y-10756700D02*
X17233900Y-10832900D01*
X17233900Y-10756700D02*
X17157700Y-10832900D01*
X17157700Y-11010700D02*
X17233900Y-11086900D01*
X17233900Y-11010700D02*
X17157700Y-11086900D01*
X17157700Y-11264900D02*
X17233900Y-11341100D01*
X17233900Y-11264900D02*
X17157700Y-11341100D01*
X17157700Y-11518900D02*
X17233900Y-11595100D01*
X17233900Y-11518900D02*
X17157700Y-11595100D01*
X17157700Y-11772900D02*
X17233900Y-11849100D01*
X17233900Y-11772900D02*
X17157700Y-11849100D01*
X17157700Y-12026900D02*
X17233900Y-12103100D01*
X17233900Y-12026900D02*
X17157700Y-12103100D01*
X17157700Y-12281500D02*
X17233900Y-12357700D01*
X17233900Y-12281500D02*
X17157700Y-12357700D01*
X17157700Y-12535500D02*
X17233900Y-12611700D01*
X17233900Y-12535500D02*
X17157700Y-12611700D01*
X17157700Y-12789500D02*
X17233900Y-12865700D01*
X17233900Y-12789500D02*
X17157700Y-12865700D01*
X17157700Y-13043500D02*
X17233900Y-13119700D01*
X17233900Y-13043500D02*
X17157700Y-13119700D01*
X17157700Y-13297500D02*
X17233900Y-13373700D01*
X17233900Y-13297500D02*
X17157700Y-13373700D01*
X17157700Y-13551500D02*
X17233900Y-13627700D01*
X17233900Y-13551500D02*
X17157700Y-13627700D01*
X17665700Y-5676900D02*
X17741900Y-5753100D01*
X17741900Y-5676900D02*
X17665700Y-5753100D01*
X17665700Y-5930900D02*
X17741900Y-6007100D01*
X17741900Y-5930900D02*
X17665700Y-6007100D01*
X17665700Y-6184900D02*
X17741900Y-6261100D01*
X17741900Y-6184900D02*
X17665700Y-6261100D01*
X17665700Y-6438900D02*
X17741900Y-6515100D01*
X17741900Y-6438900D02*
X17665700Y-6515100D01*
X17665700Y-6692500D02*
X17741900Y-6768700D01*
X17741900Y-6692500D02*
X17665700Y-6768700D01*
X17665700Y-6946500D02*
X17741900Y-7022700D01*
X17741900Y-6946500D02*
X17665700Y-7022700D01*
X17665700Y-7200700D02*
X17741900Y-7276900D01*
X17741900Y-7200700D02*
X17665700Y-7276900D01*
X17665700Y-7454700D02*
X17741900Y-7530900D01*
X17741900Y-7454700D02*
X17665700Y-7530900D01*
X17665700Y-7708900D02*
X17741900Y-7785100D01*
X17741900Y-7708900D02*
X17665700Y-7785100D01*
X17665700Y-7962900D02*
X17741900Y-8039100D01*
X17741900Y-7962900D02*
X17665700Y-8039100D01*
X17665700Y-8216500D02*
X17741900Y-8292700D01*
X17741900Y-8216500D02*
X17665700Y-8292700D01*
X17665700Y-8470500D02*
X17741900Y-8546700D01*
X17741900Y-8470500D02*
X17665700Y-8546700D01*
X17665700Y-8724700D02*
X17741900Y-8800900D01*
X17741900Y-8724700D02*
X17665700Y-8800900D01*
X17665700Y-8978700D02*
X17741900Y-9054900D01*
X17741900Y-8978700D02*
X17665700Y-9054900D01*
X17665700Y-9232900D02*
X17741900Y-9309100D01*
X17741900Y-9232900D02*
X17665700Y-9309100D01*
X17665700Y-9486900D02*
X17741900Y-9563100D01*
X17741900Y-9486900D02*
X17665700Y-9563100D01*
X17665700Y-9740500D02*
X17741900Y-9816700D01*
X17741900Y-9740500D02*
X17665700Y-9816700D01*
X17665700Y-9994500D02*
X17741900Y-10070700D01*
X17741900Y-9994500D02*
X17665700Y-10070700D01*
X17665700Y-10248700D02*
X17741900Y-10324900D01*
X17741900Y-10248700D02*
X17665700Y-10324900D01*
X17665700Y-10502700D02*
X17741900Y-10578900D01*
X17741900Y-10502700D02*
X17665700Y-10578900D01*
X17665700Y-10756900D02*
X17741900Y-10833100D01*
X17741900Y-10756900D02*
X17665700Y-10833100D01*
X17665700Y-11010900D02*
X17741900Y-11087100D01*
X17741900Y-11010900D02*
X17665700Y-11087100D01*
X17665700Y-11264500D02*
X17741900Y-11340700D01*
X17741900Y-11264500D02*
X17665700Y-11340700D01*
X17665700Y-11518500D02*
X17741900Y-11594700D01*
X17741900Y-11518500D02*
X17665700Y-11594700D01*
X17665700Y-11772700D02*
X17741900Y-11848900D01*
X17741900Y-11772700D02*
X17665700Y-11848900D01*
X17665700Y-12026700D02*
X17741900Y-12102900D01*
X17741900Y-12026700D02*
X17665700Y-12102900D01*
X17665700Y-12281100D02*
X17741900Y-12357300D01*
X17741900Y-12281100D02*
X17665700Y-12357300D01*
X17665700Y-12535100D02*
X17741900Y-12611300D01*
X17741900Y-12535100D02*
X17665700Y-12611300D01*
X17665700Y-12789100D02*
X17741900Y-12865300D01*
X17741900Y-12789100D02*
X17665700Y-12865300D01*
X17665700Y-13043100D02*
X17741900Y-13119300D01*
X17741900Y-13043100D02*
X17665700Y-13119300D01*
X17665700Y-13297100D02*
X17741900Y-13373300D01*
X17741900Y-13297100D02*
X17665700Y-13373300D01*
X17665700Y-13551100D02*
X17741900Y-13627300D01*
X17741900Y-13551100D02*
X17665700Y-13627300D01*
X17919700Y-5676900D02*
X17995900Y-5753100D01*
X17995900Y-5676900D02*
X17919700Y-5753100D01*
X17919700Y-5930900D02*
X17995900Y-6007100D01*
X17995900Y-5930900D02*
X17919700Y-6007100D01*
X17919700Y-6184900D02*
X17995900Y-6261100D01*
X17995900Y-6184900D02*
X17919700Y-6261100D01*
X17919700Y-6438900D02*
X17995900Y-6515100D01*
X17995900Y-6438900D02*
X17919700Y-6515100D01*
X17919700Y-6692500D02*
X17995900Y-6768700D01*
X17995900Y-6692500D02*
X17919700Y-6768700D01*
X17919700Y-6946500D02*
X17995900Y-7022700D01*
X17995900Y-6946500D02*
X17919700Y-7022700D01*
X17919700Y-7200700D02*
X17995900Y-7276900D01*
X17995900Y-7200700D02*
X17919700Y-7276900D01*
X17919700Y-7454700D02*
X17995900Y-7530900D01*
X17995900Y-7454700D02*
X17919700Y-7530900D01*
X17919700Y-7708900D02*
X17995900Y-7785100D01*
X17995900Y-7708900D02*
X17919700Y-7785100D01*
X17919700Y-7962900D02*
X17995900Y-8039100D01*
X17995900Y-7962900D02*
X17919700Y-8039100D01*
X17919700Y-8216500D02*
X17995900Y-8292700D01*
X17995900Y-8216500D02*
X17919700Y-8292700D01*
X17919700Y-8470500D02*
X17995900Y-8546700D01*
X17995900Y-8470500D02*
X17919700Y-8546700D01*
X17919700Y-8724700D02*
X17995900Y-8800900D01*
X17995900Y-8724700D02*
X17919700Y-8800900D01*
X17919700Y-8978700D02*
X17995900Y-9054900D01*
X17995900Y-8978700D02*
X17919700Y-9054900D01*
X17919700Y-9232900D02*
X17995900Y-9309100D01*
X17995900Y-9232900D02*
X17919700Y-9309100D01*
X17919700Y-9486900D02*
X17995900Y-9563100D01*
X17995900Y-9486900D02*
X17919700Y-9563100D01*
X17919700Y-9740500D02*
X17995900Y-9816700D01*
X17995900Y-9740500D02*
X17919700Y-9816700D01*
X17919700Y-9994500D02*
X17995900Y-10070700D01*
X17995900Y-9994500D02*
X17919700Y-10070700D01*
X17919700Y-10248700D02*
X17995900Y-10324900D01*
X17995900Y-10248700D02*
X17919700Y-10324900D01*
X17919700Y-10502700D02*
X17995900Y-10578900D01*
X17995900Y-10502700D02*
X17919700Y-10578900D01*
X17919700Y-10756900D02*
X17995900Y-10833100D01*
X17995900Y-10756900D02*
X17919700Y-10833100D01*
X17919700Y-11010900D02*
X17995900Y-11087100D01*
X17995900Y-11010900D02*
X17919700Y-11087100D01*
X17919700Y-11264500D02*
X17995900Y-11340700D01*
X17995900Y-11264500D02*
X17919700Y-11340700D01*
X17919700Y-11518500D02*
X17995900Y-11594700D01*
X17995900Y-11518500D02*
X17919700Y-11594700D01*
X17919700Y-11772700D02*
X17995900Y-11848900D01*
X17995900Y-11772700D02*
X17919700Y-11848900D01*
X17919700Y-12026700D02*
X17995900Y-12102900D01*
X17995900Y-12026700D02*
X17919700Y-12102900D01*
X17919700Y-12281100D02*
X17995900Y-12357300D01*
X17995900Y-12281100D02*
X17919700Y-12357300D01*
X17919700Y-12535100D02*
X17995900Y-12611300D01*
X17995900Y-12535100D02*
X17919700Y-12611300D01*
X17919700Y-12789100D02*
X17995900Y-12865300D01*
X17995900Y-12789100D02*
X17919700Y-12865300D01*
X17919700Y-13043100D02*
X17995900Y-13119300D01*
X17995900Y-13043100D02*
X17919700Y-13119300D01*
X17919700Y-13297100D02*
X17995900Y-13373300D01*
X17995900Y-13297100D02*
X17919700Y-13373300D01*
X17919700Y-13551100D02*
X17995900Y-13627300D01*
X17995900Y-13551100D02*
X17919700Y-13627300D01*
X18173700Y-5676900D02*
X18249900Y-5753100D01*
X18249900Y-5676900D02*
X18173700Y-5753100D01*
X18173700Y-5930900D02*
X18249900Y-6007100D01*
X18249900Y-5930900D02*
X18173700Y-6007100D01*
X18173700Y-6184900D02*
X18249900Y-6261100D01*
X18249900Y-6184900D02*
X18173700Y-6261100D01*
X18173700Y-6438900D02*
X18249900Y-6515100D01*
X18249900Y-6438900D02*
X18173700Y-6515100D01*
X18173700Y-6692500D02*
X18249900Y-6768700D01*
X18249900Y-6692500D02*
X18173700Y-6768700D01*
X18173700Y-6946500D02*
X18249900Y-7022700D01*
X18249900Y-6946500D02*
X18173700Y-7022700D01*
X18173700Y-7200700D02*
X18249900Y-7276900D01*
X18249900Y-7200700D02*
X18173700Y-7276900D01*
X18173700Y-7454700D02*
X18249900Y-7530900D01*
X18249900Y-7454700D02*
X18173700Y-7530900D01*
X18173700Y-7708900D02*
X18249900Y-7785100D01*
X18249900Y-7708900D02*
X18173700Y-7785100D01*
X18173700Y-7962900D02*
X18249900Y-8039100D01*
X18249900Y-7962900D02*
X18173700Y-8039100D01*
X18173700Y-8216500D02*
X18249900Y-8292700D01*
X18249900Y-8216500D02*
X18173700Y-8292700D01*
X18173700Y-8470500D02*
X18249900Y-8546700D01*
X18249900Y-8470500D02*
X18173700Y-8546700D01*
X18173700Y-8724700D02*
X18249900Y-8800900D01*
X18249900Y-8724700D02*
X18173700Y-8800900D01*
X18173700Y-8978700D02*
X18249900Y-9054900D01*
X18249900Y-8978700D02*
X18173700Y-9054900D01*
X18173700Y-9232900D02*
X18249900Y-9309100D01*
X18249900Y-9232900D02*
X18173700Y-9309100D01*
X18173700Y-9486900D02*
X18249900Y-9563100D01*
X18249900Y-9486900D02*
X18173700Y-9563100D01*
X18173700Y-9740500D02*
X18249900Y-9816700D01*
X18249900Y-9740500D02*
X18173700Y-9816700D01*
X18173700Y-9994500D02*
X18249900Y-10070700D01*
X18249900Y-9994500D02*
X18173700Y-10070700D01*
X18173700Y-10248700D02*
X18249900Y-10324900D01*
X18249900Y-10248700D02*
X18173700Y-10324900D01*
X18173700Y-10502700D02*
X18249900Y-10578900D01*
X18249900Y-10502700D02*
X18173700Y-10578900D01*
X18173700Y-10756900D02*
X18249900Y-10833100D01*
X18249900Y-10756900D02*
X18173700Y-10833100D01*
X18173700Y-11010900D02*
X18249900Y-11087100D01*
X18249900Y-11010900D02*
X18173700Y-11087100D01*
X18173700Y-11264500D02*
X18249900Y-11340700D01*
X18249900Y-11264500D02*
X18173700Y-11340700D01*
X18173700Y-11518500D02*
X18249900Y-11594700D01*
X18249900Y-11518500D02*
X18173700Y-11594700D01*
X18173700Y-11772700D02*
X18249900Y-11848900D01*
X18249900Y-11772700D02*
X18173700Y-11848900D01*
X18173700Y-12026700D02*
X18249900Y-12102900D01*
X18249900Y-12026700D02*
X18173700Y-12102900D01*
X18173700Y-12281100D02*
X18249900Y-12357300D01*
X18249900Y-12281100D02*
X18173700Y-12357300D01*
X18173700Y-12535100D02*
X18249900Y-12611300D01*
X18249900Y-12535100D02*
X18173700Y-12611300D01*
X18173700Y-12789100D02*
X18249900Y-12865300D01*
X18249900Y-12789100D02*
X18173700Y-12865300D01*
X18173700Y-13043100D02*
X18249900Y-13119300D01*
X18249900Y-13043100D02*
X18173700Y-13119300D01*
X18173700Y-13297100D02*
X18249900Y-13373300D01*
X18249900Y-13297100D02*
X18173700Y-13373300D01*
X18173700Y-13551100D02*
X18249900Y-13627300D01*
X18249900Y-13551100D02*
X18173700Y-13627300D01*
X18427700Y-5676900D02*
X18503900Y-5753100D01*
X18503900Y-5676900D02*
X18427700Y-5753100D01*
X18427700Y-5930900D02*
X18503900Y-6007100D01*
X18503900Y-5930900D02*
X18427700Y-6007100D01*
X18427700Y-6184900D02*
X18503900Y-6261100D01*
X18503900Y-6184900D02*
X18427700Y-6261100D01*
X18427700Y-6438900D02*
X18503900Y-6515100D01*
X18503900Y-6438900D02*
X18427700Y-6515100D01*
X18427700Y-6692500D02*
X18503900Y-6768700D01*
X18503900Y-6692500D02*
X18427700Y-6768700D01*
X18427700Y-6946500D02*
X18503900Y-7022700D01*
X18503900Y-6946500D02*
X18427700Y-7022700D01*
X18427700Y-7200700D02*
X18503900Y-7276900D01*
X18503900Y-7200700D02*
X18427700Y-7276900D01*
X18427700Y-7454700D02*
X18503900Y-7530900D01*
X18503900Y-7454700D02*
X18427700Y-7530900D01*
X18427700Y-7708900D02*
X18503900Y-7785100D01*
X18503900Y-7708900D02*
X18427700Y-7785100D01*
X18427700Y-7962900D02*
X18503900Y-8039100D01*
X18503900Y-7962900D02*
X18427700Y-8039100D01*
X18427700Y-8216500D02*
X18503900Y-8292700D01*
X18503900Y-8216500D02*
X18427700Y-8292700D01*
X18427700Y-8470500D02*
X18503900Y-8546700D01*
X18503900Y-8470500D02*
X18427700Y-8546700D01*
X18427700Y-8724700D02*
X18503900Y-8800900D01*
X18503900Y-8724700D02*
X18427700Y-8800900D01*
X18427700Y-8978700D02*
X18503900Y-9054900D01*
X18503900Y-8978700D02*
X18427700Y-9054900D01*
X18427700Y-9232900D02*
X18503900Y-9309100D01*
X18503900Y-9232900D02*
X18427700Y-9309100D01*
X18427700Y-9486900D02*
X18503900Y-9563100D01*
X18503900Y-9486900D02*
X18427700Y-9563100D01*
X18427700Y-9740500D02*
X18503900Y-9816700D01*
X18503900Y-9740500D02*
X18427700Y-9816700D01*
X18427700Y-9994500D02*
X18503900Y-10070700D01*
X18503900Y-9994500D02*
X18427700Y-10070700D01*
X18427700Y-10248700D02*
X18503900Y-10324900D01*
X18503900Y-10248700D02*
X18427700Y-10324900D01*
X18427700Y-10502700D02*
X18503900Y-10578900D01*
X18503900Y-10502700D02*
X18427700Y-10578900D01*
X18427700Y-10756900D02*
X18503900Y-10833100D01*
X18503900Y-10756900D02*
X18427700Y-10833100D01*
X18427700Y-11010900D02*
X18503900Y-11087100D01*
X18503900Y-11010900D02*
X18427700Y-11087100D01*
X18427700Y-11264500D02*
X18503900Y-11340700D01*
X18503900Y-11264500D02*
X18427700Y-11340700D01*
X18427700Y-11518500D02*
X18503900Y-11594700D01*
X18503900Y-11518500D02*
X18427700Y-11594700D01*
X18427700Y-11772700D02*
X18503900Y-11848900D01*
X18503900Y-11772700D02*
X18427700Y-11848900D01*
X18427700Y-12026700D02*
X18503900Y-12102900D01*
X18503900Y-12026700D02*
X18427700Y-12102900D01*
X18427700Y-12281100D02*
X18503900Y-12357300D01*
X18503900Y-12281100D02*
X18427700Y-12357300D01*
X18427700Y-12535100D02*
X18503900Y-12611300D01*
X18503900Y-12535100D02*
X18427700Y-12611300D01*
X18427700Y-12789100D02*
X18503900Y-12865300D01*
X18503900Y-12789100D02*
X18427700Y-12865300D01*
X18427700Y-13043100D02*
X18503900Y-13119300D01*
X18503900Y-13043100D02*
X18427700Y-13119300D01*
X18427700Y-13297100D02*
X18503900Y-13373300D01*
X18503900Y-13297100D02*
X18427700Y-13373300D01*
X18427700Y-13551100D02*
X18503900Y-13627300D01*
X18503900Y-13551100D02*
X18427700Y-13627300D01*
X18681700Y-5676900D02*
X18757900Y-5753100D01*
X18757900Y-5676900D02*
X18681700Y-5753100D01*
X18681700Y-5930900D02*
X18757900Y-6007100D01*
X18757900Y-5930900D02*
X18681700Y-6007100D01*
X18681700Y-6184900D02*
X18757900Y-6261100D01*
X18757900Y-6184900D02*
X18681700Y-6261100D01*
X18681700Y-6438900D02*
X18757900Y-6515100D01*
X18757900Y-6438900D02*
X18681700Y-6515100D01*
X18681700Y-6692500D02*
X18757900Y-6768700D01*
X18757900Y-6692500D02*
X18681700Y-6768700D01*
X18681700Y-6946500D02*
X18757900Y-7022700D01*
X18757900Y-6946500D02*
X18681700Y-7022700D01*
X18681700Y-7200700D02*
X18757900Y-7276900D01*
X18757900Y-7200700D02*
X18681700Y-7276900D01*
X18681700Y-7454700D02*
X18757900Y-7530900D01*
X18757900Y-7454700D02*
X18681700Y-7530900D01*
X18681700Y-7708900D02*
X18757900Y-7785100D01*
X18757900Y-7708900D02*
X18681700Y-7785100D01*
X18681700Y-7962900D02*
X18757900Y-8039100D01*
X18757900Y-7962900D02*
X18681700Y-8039100D01*
X18681700Y-8216500D02*
X18757900Y-8292700D01*
X18757900Y-8216500D02*
X18681700Y-8292700D01*
X18681700Y-8470500D02*
X18757900Y-8546700D01*
X18757900Y-8470500D02*
X18681700Y-8546700D01*
X18681700Y-8724700D02*
X18757900Y-8800900D01*
X18757900Y-8724700D02*
X18681700Y-8800900D01*
X18681700Y-8978700D02*
X18757900Y-9054900D01*
X18757900Y-8978700D02*
X18681700Y-9054900D01*
X18681700Y-9232900D02*
X18757900Y-9309100D01*
X18757900Y-9232900D02*
X18681700Y-9309100D01*
X18681700Y-9486900D02*
X18757900Y-9563100D01*
X18757900Y-9486900D02*
X18681700Y-9563100D01*
X18681700Y-9740500D02*
X18757900Y-9816700D01*
X18757900Y-9740500D02*
X18681700Y-9816700D01*
X18681700Y-9994500D02*
X18757900Y-10070700D01*
X18757900Y-9994500D02*
X18681700Y-10070700D01*
X18681700Y-10248700D02*
X18757900Y-10324900D01*
X18757900Y-10248700D02*
X18681700Y-10324900D01*
X18681700Y-10502700D02*
X18757900Y-10578900D01*
X18757900Y-10502700D02*
X18681700Y-10578900D01*
X18681700Y-10756900D02*
X18757900Y-10833100D01*
X18757900Y-10756900D02*
X18681700Y-10833100D01*
X18681700Y-11010900D02*
X18757900Y-11087100D01*
X18757900Y-11010900D02*
X18681700Y-11087100D01*
X18681700Y-11264500D02*
X18757900Y-11340700D01*
X18757900Y-11264500D02*
X18681700Y-11340700D01*
X18681700Y-11518500D02*
X18757900Y-11594700D01*
X18757900Y-11518500D02*
X18681700Y-11594700D01*
X18681700Y-11772700D02*
X18757900Y-11848900D01*
X18757900Y-11772700D02*
X18681700Y-11848900D01*
X18681700Y-12026700D02*
X18757900Y-12102900D01*
X18757900Y-12026700D02*
X18681700Y-12102900D01*
X18681700Y-12281100D02*
X18757900Y-12357300D01*
X18757900Y-12281100D02*
X18681700Y-12357300D01*
X18681700Y-12535100D02*
X18757900Y-12611300D01*
X18757900Y-12535100D02*
X18681700Y-12611300D01*
X18681700Y-12789100D02*
X18757900Y-12865300D01*
X18757900Y-12789100D02*
X18681700Y-12865300D01*
X18681700Y-13043100D02*
X18757900Y-13119300D01*
X18757900Y-13043100D02*
X18681700Y-13119300D01*
X18681700Y-13297100D02*
X18757900Y-13373300D01*
X18757900Y-13297100D02*
X18681700Y-13373300D01*
X18681700Y-13551100D02*
X18757900Y-13627300D01*
X18757900Y-13551100D02*
X18681700Y-13627300D01*
X18935700Y-13297100D02*
X19011900Y-13373300D01*
X19011900Y-13297100D02*
X18935700Y-13373300D01*
X18935700Y-13551100D02*
X19011900Y-13627300D01*
X19011900Y-13551100D02*
X18935700Y-13627300D01*
X18935900Y-5676900D02*
X19012100Y-5753100D01*
X19012100Y-5676900D02*
X18935900Y-5753100D01*
X18935900Y-5930900D02*
X19012100Y-6007100D01*
X19012100Y-5930900D02*
X18935900Y-6007100D01*
X18935900Y-6184900D02*
X19012100Y-6261100D01*
X19012100Y-6184900D02*
X18935900Y-6261100D01*
X18935900Y-6438900D02*
X19012100Y-6515100D01*
X19012100Y-6438900D02*
X18935900Y-6515100D01*
X18935900Y-6692900D02*
X19012100Y-6769100D01*
X19012100Y-6692900D02*
X18935900Y-6769100D01*
X18935900Y-6946900D02*
X19012100Y-7023100D01*
X19012100Y-6946900D02*
X18935900Y-7023100D01*
X18935900Y-7200900D02*
X19012100Y-7277100D01*
X19012100Y-7200900D02*
X18935900Y-7277100D01*
X18935900Y-7454900D02*
X19012100Y-7531100D01*
X19012100Y-7454900D02*
X18935900Y-7531100D01*
X18935900Y-7708900D02*
X19012100Y-7785100D01*
X19012100Y-7708900D02*
X18935900Y-7785100D01*
X18935900Y-7962900D02*
X19012100Y-8039100D01*
X19012100Y-7962900D02*
X18935900Y-8039100D01*
X18935900Y-8216900D02*
X19012100Y-8293100D01*
X19012100Y-8216900D02*
X18935900Y-8293100D01*
X18935900Y-8470900D02*
X19012100Y-8547100D01*
X19012100Y-8470900D02*
X18935900Y-8547100D01*
X18935900Y-8724900D02*
X19012100Y-8801100D01*
X19012100Y-8724900D02*
X18935900Y-8801100D01*
X18935900Y-8978900D02*
X19012100Y-9055100D01*
X19012100Y-8978900D02*
X18935900Y-9055100D01*
X18935900Y-9232900D02*
X19012100Y-9309100D01*
X19012100Y-9232900D02*
X18935900Y-9309100D01*
X18935900Y-9486900D02*
X19012100Y-9563100D01*
X19012100Y-9486900D02*
X18935900Y-9563100D01*
X18935900Y-9740900D02*
X19012100Y-9817100D01*
X19012100Y-9740900D02*
X18935900Y-9817100D01*
X18935900Y-9994900D02*
X19012100Y-10071100D01*
X19012100Y-9994900D02*
X18935900Y-10071100D01*
X18935900Y-10248900D02*
X19012100Y-10325100D01*
X19012100Y-10248900D02*
X18935900Y-10325100D01*
X18935900Y-10502900D02*
X19012100Y-10579100D01*
X19012100Y-10502900D02*
X18935900Y-10579100D01*
X18935900Y-10756900D02*
X19012100Y-10833100D01*
X19012100Y-10756900D02*
X18935900Y-10833100D01*
X18935900Y-11010900D02*
X19012100Y-11087100D01*
X19012100Y-11010900D02*
X18935900Y-11087100D01*
X18935900Y-11264900D02*
X19012100Y-11341100D01*
X19012100Y-11264900D02*
X18935900Y-11341100D01*
X18935900Y-11518900D02*
X19012100Y-11595100D01*
X19012100Y-11518900D02*
X18935900Y-11595100D01*
X18935900Y-11772900D02*
X19012100Y-11849100D01*
X19012100Y-11772900D02*
X18935900Y-11849100D01*
X18935900Y-12026900D02*
X19012100Y-12103100D01*
X19012100Y-12026900D02*
X18935900Y-12103100D01*
X18935900Y-12280900D02*
X19012100Y-12357100D01*
X19012100Y-12280900D02*
X18935900Y-12357100D01*
X18935900Y-12534900D02*
X19012100Y-12611100D01*
X19012100Y-12534900D02*
X18935900Y-12611100D01*
X18935900Y-12788900D02*
X19012100Y-12865100D01*
X19012100Y-12788900D02*
X18935900Y-12865100D01*
X18935900Y-13042900D02*
X19012100Y-13119100D01*
X19012100Y-13042900D02*
X18935900Y-13119100D01*
X19189700Y-13297100D02*
X19265900Y-13373300D01*
X19265900Y-13297100D02*
X19189700Y-13373300D01*
X19189700Y-13551100D02*
X19265900Y-13627300D01*
X19265900Y-13551100D02*
X19189700Y-13627300D01*
X19189900Y-5676900D02*
X19266100Y-5753100D01*
X19266100Y-5676900D02*
X19189900Y-5753100D01*
X19189900Y-5930900D02*
X19266100Y-6007100D01*
X19266100Y-5930900D02*
X19189900Y-6007100D01*
X19189900Y-6184900D02*
X19266100Y-6261100D01*
X19266100Y-6184900D02*
X19189900Y-6261100D01*
X19189900Y-6438900D02*
X19266100Y-6515100D01*
X19266100Y-6438900D02*
X19189900Y-6515100D01*
X19189900Y-6692900D02*
X19266100Y-6769100D01*
X19266100Y-6692900D02*
X19189900Y-6769100D01*
X19189900Y-6946900D02*
X19266100Y-7023100D01*
X19266100Y-6946900D02*
X19189900Y-7023100D01*
X19189900Y-7200900D02*
X19266100Y-7277100D01*
X19266100Y-7200900D02*
X19189900Y-7277100D01*
X19189900Y-7454900D02*
X19266100Y-7531100D01*
X19266100Y-7454900D02*
X19189900Y-7531100D01*
X19189900Y-7708900D02*
X19266100Y-7785100D01*
X19266100Y-7708900D02*
X19189900Y-7785100D01*
X19189900Y-7962900D02*
X19266100Y-8039100D01*
X19266100Y-7962900D02*
X19189900Y-8039100D01*
X19189900Y-8216900D02*
X19266100Y-8293100D01*
X19266100Y-8216900D02*
X19189900Y-8293100D01*
X19189900Y-8470900D02*
X19266100Y-8547100D01*
X19266100Y-8470900D02*
X19189900Y-8547100D01*
X19189900Y-8724900D02*
X19266100Y-8801100D01*
X19266100Y-8724900D02*
X19189900Y-8801100D01*
X19189900Y-8978900D02*
X19266100Y-9055100D01*
X19266100Y-8978900D02*
X19189900Y-9055100D01*
X19189900Y-9232900D02*
X19266100Y-9309100D01*
X19266100Y-9232900D02*
X19189900Y-9309100D01*
X19189900Y-9486900D02*
X19266100Y-9563100D01*
X19266100Y-9486900D02*
X19189900Y-9563100D01*
X19189900Y-9740900D02*
X19266100Y-9817100D01*
X19266100Y-9740900D02*
X19189900Y-9817100D01*
X19189900Y-9994900D02*
X19266100Y-10071100D01*
X19266100Y-9994900D02*
X19189900Y-10071100D01*
X19189900Y-10248900D02*
X19266100Y-10325100D01*
X19266100Y-10248900D02*
X19189900Y-10325100D01*
X19189900Y-10502900D02*
X19266100Y-10579100D01*
X19266100Y-10502900D02*
X19189900Y-10579100D01*
X19189900Y-10756900D02*
X19266100Y-10833100D01*
X19266100Y-10756900D02*
X19189900Y-10833100D01*
X19189900Y-11010900D02*
X19266100Y-11087100D01*
X19266100Y-11010900D02*
X19189900Y-11087100D01*
X19189900Y-11264900D02*
X19266100Y-11341100D01*
X19266100Y-11264900D02*
X19189900Y-11341100D01*
X19189900Y-11518900D02*
X19266100Y-11595100D01*
X19266100Y-11518900D02*
X19189900Y-11595100D01*
X19189900Y-11772900D02*
X19266100Y-11849100D01*
X19266100Y-11772900D02*
X19189900Y-11849100D01*
X19189900Y-12026900D02*
X19266100Y-12103100D01*
X19266100Y-12026900D02*
X19189900Y-12103100D01*
X19189900Y-12280900D02*
X19266100Y-12357100D01*
X19266100Y-12280900D02*
X19189900Y-12357100D01*
X19189900Y-12534900D02*
X19266100Y-12611100D01*
X19266100Y-12534900D02*
X19189900Y-12611100D01*
X19189900Y-12788900D02*
X19266100Y-12865100D01*
X19266100Y-12788900D02*
X19189900Y-12865100D01*
X19189900Y-13042900D02*
X19266100Y-13119100D01*
X19266100Y-13042900D02*
X19189900Y-13119100D01*
D10*
X10112000Y-5715500D02*
G75*
G03*
X10112000Y-5715500I-50000J0D01*
G01*
X10112000Y-5969500D02*
G75*
G03*
X10112000Y-5969500I-50000J0D01*
G01*
X10112000Y-6223500D02*
G75*
G03*
X10112000Y-6223500I-50000J0D01*
G01*
X10112000Y-6477500D02*
G75*
G03*
X10112000Y-6477500I-50000J0D01*
G01*
X10112000Y-6731500D02*
G75*
G03*
X10112000Y-6731500I-50000J0D01*
G01*
X10112000Y-6985500D02*
G75*
G03*
X10112000Y-6985500I-50000J0D01*
G01*
X10112000Y-7239500D02*
G75*
G03*
X10112000Y-7239500I-50000J0D01*
G01*
X10112000Y-7493500D02*
G75*
G03*
X10112000Y-7493500I-50000J0D01*
G01*
X10112000Y-7747500D02*
G75*
G03*
X10112000Y-7747500I-50000J0D01*
G01*
X10112000Y-8001500D02*
G75*
G03*
X10112000Y-8001500I-50000J0D01*
G01*
X10112000Y-8255500D02*
G75*
G03*
X10112000Y-8255500I-50000J0D01*
G01*
X10112000Y-8509500D02*
G75*
G03*
X10112000Y-8509500I-50000J0D01*
G01*
X10112000Y-8763500D02*
G75*
G03*
X10112000Y-8763500I-50000J0D01*
G01*
X10112000Y-9017500D02*
G75*
G03*
X10112000Y-9017500I-50000J0D01*
G01*
X10112000Y-9271500D02*
G75*
G03*
X10112000Y-9271500I-50000J0D01*
G01*
X10112000Y-9525500D02*
G75*
G03*
X10112000Y-9525500I-50000J0D01*
G01*
X10112000Y-9779500D02*
G75*
G03*
X10112000Y-9779500I-50000J0D01*
G01*
X10112000Y-10033500D02*
G75*
G03*
X10112000Y-10033500I-50000J0D01*
G01*
X10112000Y-10287500D02*
G75*
G03*
X10112000Y-10287500I-50000J0D01*
G01*
X10112000Y-10541500D02*
G75*
G03*
X10112000Y-10541500I-50000J0D01*
G01*
X10112000Y-10795500D02*
G75*
G03*
X10112000Y-10795500I-50000J0D01*
G01*
X10112000Y-11049500D02*
G75*
G03*
X10112000Y-11049500I-50000J0D01*
G01*
X10112000Y-11303500D02*
G75*
G03*
X10112000Y-11303500I-50000J0D01*
G01*
X10112000Y-11557500D02*
G75*
G03*
X10112000Y-11557500I-50000J0D01*
G01*
X10112000Y-11811500D02*
G75*
G03*
X10112000Y-11811500I-50000J0D01*
G01*
X10112000Y-12065500D02*
G75*
G03*
X10112000Y-12065500I-50000J0D01*
G01*
X10112000Y-12319500D02*
G75*
G03*
X10112000Y-12319500I-50000J0D01*
G01*
X10112000Y-12573500D02*
G75*
G03*
X10112000Y-12573500I-50000J0D01*
G01*
X10112000Y-12827500D02*
G75*
G03*
X10112000Y-12827500I-50000J0D01*
G01*
X10112000Y-13081500D02*
G75*
G03*
X10112000Y-13081500I-50000J0D01*
G01*
X10112000Y-13335500D02*
G75*
G03*
X10112000Y-13335500I-50000J0D01*
G01*
X10112000Y-13589500D02*
G75*
G03*
X10112000Y-13589500I-50000J0D01*
G01*
X10366000Y-5715500D02*
G75*
G03*
X10366000Y-5715500I-50000J0D01*
G01*
X10366000Y-5969500D02*
G75*
G03*
X10366000Y-5969500I-50000J0D01*
G01*
X10366000Y-6223500D02*
G75*
G03*
X10366000Y-6223500I-50000J0D01*
G01*
X10366000Y-6477500D02*
G75*
G03*
X10366000Y-6477500I-50000J0D01*
G01*
X10366000Y-6731500D02*
G75*
G03*
X10366000Y-6731500I-50000J0D01*
G01*
X10366000Y-6985500D02*
G75*
G03*
X10366000Y-6985500I-50000J0D01*
G01*
X10366000Y-7239500D02*
G75*
G03*
X10366000Y-7239500I-50000J0D01*
G01*
X10366000Y-7493500D02*
G75*
G03*
X10366000Y-7493500I-50000J0D01*
G01*
X10366000Y-7747500D02*
G75*
G03*
X10366000Y-7747500I-50000J0D01*
G01*
X10366000Y-8001500D02*
G75*
G03*
X10366000Y-8001500I-50000J0D01*
G01*
X10366000Y-8255500D02*
G75*
G03*
X10366000Y-8255500I-50000J0D01*
G01*
X10366000Y-8509500D02*
G75*
G03*
X10366000Y-8509500I-50000J0D01*
G01*
X10366000Y-8763500D02*
G75*
G03*
X10366000Y-8763500I-50000J0D01*
G01*
X10366000Y-9017500D02*
G75*
G03*
X10366000Y-9017500I-50000J0D01*
G01*
X10366000Y-9271500D02*
G75*
G03*
X10366000Y-9271500I-50000J0D01*
G01*
X10366000Y-9525500D02*
G75*
G03*
X10366000Y-9525500I-50000J0D01*
G01*
X10366000Y-9779500D02*
G75*
G03*
X10366000Y-9779500I-50000J0D01*
G01*
X10366000Y-10033500D02*
G75*
G03*
X10366000Y-10033500I-50000J0D01*
G01*
X10366000Y-10287500D02*
G75*
G03*
X10366000Y-10287500I-50000J0D01*
G01*
X10366000Y-10541500D02*
G75*
G03*
X10366000Y-10541500I-50000J0D01*
G01*
X10366000Y-10795500D02*
G75*
G03*
X10366000Y-10795500I-50000J0D01*
G01*
X10366000Y-11049500D02*
G75*
G03*
X10366000Y-11049500I-50000J0D01*
G01*
X10366000Y-11303500D02*
G75*
G03*
X10366000Y-11303500I-50000J0D01*
G01*
X10366000Y-11557500D02*
G75*
G03*
X10366000Y-11557500I-50000J0D01*
G01*
X10366000Y-11811500D02*
G75*
G03*
X10366000Y-11811500I-50000J0D01*
G01*
X10366000Y-12065500D02*
G75*
G03*
X10366000Y-12065500I-50000J0D01*
G01*
X10366000Y-12319500D02*
G75*
G03*
X10366000Y-12319500I-50000J0D01*
G01*
X10366000Y-12573500D02*
G75*
G03*
X10366000Y-12573500I-50000J0D01*
G01*
X10366000Y-12827500D02*
G75*
G03*
X10366000Y-12827500I-50000J0D01*
G01*
X10366000Y-13081500D02*
G75*
G03*
X10366000Y-13081500I-50000J0D01*
G01*
X10366000Y-13335500D02*
G75*
G03*
X10366000Y-13335500I-50000J0D01*
G01*
X10366000Y-13589500D02*
G75*
G03*
X10366000Y-13589500I-50000J0D01*
G01*
X11302200Y-5715000D02*
G75*
G03*
X11302200Y-5715000I-50000J0D01*
G01*
X11302200Y-5969000D02*
G75*
G03*
X11302200Y-5969000I-50000J0D01*
G01*
X11302200Y-6223000D02*
G75*
G03*
X11302200Y-6223000I-50000J0D01*
G01*
X11302200Y-6477000D02*
G75*
G03*
X11302200Y-6477000I-50000J0D01*
G01*
X11302200Y-6731000D02*
G75*
G03*
X11302200Y-6731000I-50000J0D01*
G01*
X11302200Y-6985000D02*
G75*
G03*
X11302200Y-6985000I-50000J0D01*
G01*
X11302200Y-7239000D02*
G75*
G03*
X11302200Y-7239000I-50000J0D01*
G01*
X11302200Y-7493000D02*
G75*
G03*
X11302200Y-7493000I-50000J0D01*
G01*
X11302200Y-7747000D02*
G75*
G03*
X11302200Y-7747000I-50000J0D01*
G01*
X11302200Y-8001000D02*
G75*
G03*
X11302200Y-8001000I-50000J0D01*
G01*
X11302200Y-8255000D02*
G75*
G03*
X11302200Y-8255000I-50000J0D01*
G01*
X11302200Y-8509000D02*
G75*
G03*
X11302200Y-8509000I-50000J0D01*
G01*
X11302200Y-8763000D02*
G75*
G03*
X11302200Y-8763000I-50000J0D01*
G01*
X11302200Y-9017000D02*
G75*
G03*
X11302200Y-9017000I-50000J0D01*
G01*
X11302200Y-9271000D02*
G75*
G03*
X11302200Y-9271000I-50000J0D01*
G01*
X11302200Y-9525000D02*
G75*
G03*
X11302200Y-9525000I-50000J0D01*
G01*
X11302200Y-9779000D02*
G75*
G03*
X11302200Y-9779000I-50000J0D01*
G01*
X11302200Y-10033000D02*
G75*
G03*
X11302200Y-10033000I-50000J0D01*
G01*
X11302200Y-10287000D02*
G75*
G03*
X11302200Y-10287000I-50000J0D01*
G01*
X11302200Y-10541000D02*
G75*
G03*
X11302200Y-10541000I-50000J0D01*
G01*
X11302200Y-10795000D02*
G75*
G03*
X11302200Y-10795000I-50000J0D01*
G01*
X11302200Y-11049000D02*
G75*
G03*
X11302200Y-11049000I-50000J0D01*
G01*
X11302200Y-11303000D02*
G75*
G03*
X11302200Y-11303000I-50000J0D01*
G01*
X11302200Y-11557000D02*
G75*
G03*
X11302200Y-11557000I-50000J0D01*
G01*
X11302200Y-11811000D02*
G75*
G03*
X11302200Y-11811000I-50000J0D01*
G01*
X11302200Y-12065000D02*
G75*
G03*
X11302200Y-12065000I-50000J0D01*
G01*
X11302200Y-12319000D02*
G75*
G03*
X11302200Y-12319000I-50000J0D01*
G01*
X11302200Y-12573000D02*
G75*
G03*
X11302200Y-12573000I-50000J0D01*
G01*
X11302200Y-12827000D02*
G75*
G03*
X11302200Y-12827000I-50000J0D01*
G01*
X11302200Y-13081000D02*
G75*
G03*
X11302200Y-13081000I-50000J0D01*
G01*
X11302200Y-13335000D02*
G75*
G03*
X11302200Y-13335000I-50000J0D01*
G01*
X11302200Y-13589000D02*
G75*
G03*
X11302200Y-13589000I-50000J0D01*
G01*
X11556200Y-5715000D02*
G75*
G03*
X11556200Y-5715000I-50000J0D01*
G01*
X11556200Y-5969000D02*
G75*
G03*
X11556200Y-5969000I-50000J0D01*
G01*
X11556200Y-6223000D02*
G75*
G03*
X11556200Y-6223000I-50000J0D01*
G01*
X11556200Y-6477000D02*
G75*
G03*
X11556200Y-6477000I-50000J0D01*
G01*
X11556200Y-6731000D02*
G75*
G03*
X11556200Y-6731000I-50000J0D01*
G01*
X11556200Y-6985000D02*
G75*
G03*
X11556200Y-6985000I-50000J0D01*
G01*
X11556200Y-7239000D02*
G75*
G03*
X11556200Y-7239000I-50000J0D01*
G01*
X11556200Y-7493000D02*
G75*
G03*
X11556200Y-7493000I-50000J0D01*
G01*
X11556200Y-7747000D02*
G75*
G03*
X11556200Y-7747000I-50000J0D01*
G01*
X11556200Y-8001000D02*
G75*
G03*
X11556200Y-8001000I-50000J0D01*
G01*
X11556200Y-8255000D02*
G75*
G03*
X11556200Y-8255000I-50000J0D01*
G01*
X11556200Y-8509000D02*
G75*
G03*
X11556200Y-8509000I-50000J0D01*
G01*
X11556200Y-8763000D02*
G75*
G03*
X11556200Y-8763000I-50000J0D01*
G01*
X11556200Y-9017000D02*
G75*
G03*
X11556200Y-9017000I-50000J0D01*
G01*
X11556200Y-9271000D02*
G75*
G03*
X11556200Y-9271000I-50000J0D01*
G01*
X11556200Y-9525000D02*
G75*
G03*
X11556200Y-9525000I-50000J0D01*
G01*
X11556200Y-9779000D02*
G75*
G03*
X11556200Y-9779000I-50000J0D01*
G01*
X11556200Y-10033000D02*
G75*
G03*
X11556200Y-10033000I-50000J0D01*
G01*
X11556200Y-10287000D02*
G75*
G03*
X11556200Y-10287000I-50000J0D01*
G01*
X11556200Y-10541000D02*
G75*
G03*
X11556200Y-10541000I-50000J0D01*
G01*
X11556200Y-10795000D02*
G75*
G03*
X11556200Y-10795000I-50000J0D01*
G01*
X11556200Y-11049000D02*
G75*
G03*
X11556200Y-11049000I-50000J0D01*
G01*
X11556200Y-11303000D02*
G75*
G03*
X11556200Y-11303000I-50000J0D01*
G01*
X11556200Y-11557000D02*
G75*
G03*
X11556200Y-11557000I-50000J0D01*
G01*
X11556200Y-11811000D02*
G75*
G03*
X11556200Y-11811000I-50000J0D01*
G01*
X11556200Y-12065000D02*
G75*
G03*
X11556200Y-12065000I-50000J0D01*
G01*
X11556200Y-12319000D02*
G75*
G03*
X11556200Y-12319000I-50000J0D01*
G01*
X11556200Y-12573000D02*
G75*
G03*
X11556200Y-12573000I-50000J0D01*
G01*
X11556200Y-12827000D02*
G75*
G03*
X11556200Y-12827000I-50000J0D01*
G01*
X11556200Y-13081000D02*
G75*
G03*
X11556200Y-13081000I-50000J0D01*
G01*
X11556200Y-13335000D02*
G75*
G03*
X11556200Y-13335000I-50000J0D01*
G01*
X11556200Y-13589000D02*
G75*
G03*
X11556200Y-13589000I-50000J0D01*
G01*
D11*
X9904619Y-14958576D02*
X9904619Y-14758576D01*
X9952238Y-14758576D01*
X9980810Y-14768100D01*
X9999857Y-14787148D01*
X10009381Y-14806195D01*
X10018905Y-14844290D01*
X10018905Y-14872862D01*
X10009381Y-14910957D01*
X9999857Y-14930005D01*
X9980810Y-14949052D01*
X9952238Y-14958576D01*
X9904619Y-14958576D01*
X10104619Y-14958576D02*
X10104619Y-14825243D01*
X10104619Y-14863338D02*
X10114143Y-14844290D01*
X10123667Y-14834767D01*
X10142714Y-14825243D01*
X10161762Y-14825243D01*
X10228429Y-14958576D02*
X10228429Y-14825243D01*
X10228429Y-14758576D02*
X10218905Y-14768100D01*
X10228429Y-14777624D01*
X10237952Y-14768100D01*
X10228429Y-14758576D01*
X10228429Y-14777624D01*
X10352238Y-14958576D02*
X10333190Y-14949052D01*
X10323667Y-14930005D01*
X10323667Y-14758576D01*
X10457000Y-14958576D02*
X10437952Y-14949052D01*
X10428429Y-14930005D01*
X10428429Y-14758576D01*
X10685571Y-14958576D02*
X10685571Y-14758576D01*
X10752238Y-14901433D01*
X10818905Y-14758576D01*
X10818905Y-14958576D01*
X10999857Y-14958576D02*
X10999857Y-14853814D01*
X10990333Y-14834767D01*
X10971286Y-14825243D01*
X10933190Y-14825243D01*
X10914143Y-14834767D01*
X10999857Y-14949052D02*
X10980810Y-14958576D01*
X10933190Y-14958576D01*
X10914143Y-14949052D01*
X10904619Y-14930005D01*
X10904619Y-14910957D01*
X10914143Y-14891909D01*
X10933190Y-14882386D01*
X10980810Y-14882386D01*
X10999857Y-14872862D01*
X11095095Y-14825243D02*
X11095095Y-15025243D01*
X11095095Y-14834767D02*
X11114143Y-14825243D01*
X11152238Y-14825243D01*
X11171286Y-14834767D01*
X11180810Y-14844290D01*
X11190333Y-14863338D01*
X11190333Y-14920481D01*
X11180810Y-14939528D01*
X11171286Y-14949052D01*
X11152238Y-14958576D01*
X11114143Y-14958576D01*
X11095095Y-14949052D01*
X11276048Y-14939528D02*
X11285571Y-14949052D01*
X11276048Y-14958576D01*
X11266524Y-14949052D01*
X11276048Y-14939528D01*
X11276048Y-14958576D01*
X11276048Y-14834767D02*
X11285571Y-14844290D01*
X11276048Y-14853814D01*
X11266524Y-14844290D01*
X11276048Y-14834767D01*
X11276048Y-14853814D01*
D12*
X9570800Y-15250000D02*
X9647000Y-15326200D01*
X9647000Y-15250000D02*
X9570800Y-15326200D01*
D11*
X9942714Y-15178576D02*
X9961762Y-15178576D01*
X9980810Y-15188100D01*
X9990333Y-15197624D01*
X9999857Y-15216671D01*
X10009381Y-15254767D01*
X10009381Y-15302386D01*
X9999857Y-15340481D01*
X9990333Y-15359528D01*
X9980810Y-15369052D01*
X9961762Y-15378576D01*
X9942714Y-15378576D01*
X9923667Y-15369052D01*
X9914143Y-15359528D01*
X9904619Y-15340481D01*
X9895095Y-15302386D01*
X9895095Y-15254767D01*
X9904619Y-15216671D01*
X9914143Y-15197624D01*
X9923667Y-15188100D01*
X9942714Y-15178576D01*
X10095095Y-15359528D02*
X10104619Y-15369052D01*
X10095095Y-15378576D01*
X10085571Y-15369052D01*
X10095095Y-15359528D01*
X10095095Y-15378576D01*
X10171286Y-15178576D02*
X10304619Y-15178576D01*
X10218905Y-15378576D01*
X10466524Y-15178576D02*
X10428429Y-15178576D01*
X10409381Y-15188100D01*
X10399857Y-15197624D01*
X10380810Y-15226195D01*
X10371286Y-15264290D01*
X10371286Y-15340481D01*
X10380810Y-15359528D01*
X10390333Y-15369052D01*
X10409381Y-15378576D01*
X10447476Y-15378576D01*
X10466524Y-15369052D01*
X10476048Y-15359528D01*
X10485571Y-15340481D01*
X10485571Y-15292862D01*
X10476048Y-15273814D01*
X10466524Y-15264290D01*
X10447476Y-15254767D01*
X10409381Y-15254767D01*
X10390333Y-15264290D01*
X10380810Y-15273814D01*
X10371286Y-15292862D01*
X10561762Y-15197624D02*
X10571286Y-15188100D01*
X10590333Y-15178576D01*
X10637952Y-15178576D01*
X10657000Y-15188100D01*
X10666524Y-15197624D01*
X10676048Y-15216671D01*
X10676048Y-15235719D01*
X10666524Y-15264290D01*
X10552238Y-15378576D01*
X10676048Y-15378576D01*
X10761762Y-15378576D02*
X10761762Y-15245243D01*
X10761762Y-15264290D02*
X10771286Y-15254767D01*
X10790333Y-15245243D01*
X10818905Y-15245243D01*
X10837952Y-15254767D01*
X10847476Y-15273814D01*
X10847476Y-15378576D01*
X10847476Y-15273814D02*
X10857000Y-15254767D01*
X10876048Y-15245243D01*
X10904619Y-15245243D01*
X10923667Y-15254767D01*
X10933190Y-15273814D01*
X10933190Y-15378576D01*
X11028429Y-15378576D02*
X11028429Y-15245243D01*
X11028429Y-15264290D02*
X11037952Y-15254767D01*
X11057000Y-15245243D01*
X11085571Y-15245243D01*
X11104619Y-15254767D01*
X11114143Y-15273814D01*
X11114143Y-15378576D01*
X11114143Y-15273814D02*
X11123667Y-15254767D01*
X11142714Y-15245243D01*
X11171286Y-15245243D01*
X11190333Y-15254767D01*
X11199857Y-15273814D01*
X11199857Y-15378576D01*
X11590333Y-15169052D02*
X11418905Y-15426195D01*
X11847476Y-15178576D02*
X11866524Y-15178576D01*
X11885571Y-15188100D01*
X11895095Y-15197624D01*
X11904619Y-15216671D01*
X11914143Y-15254767D01*
X11914143Y-15302386D01*
X11904619Y-15340481D01*
X11895095Y-15359528D01*
X11885571Y-15369052D01*
X11866524Y-15378576D01*
X11847476Y-15378576D01*
X11828428Y-15369052D01*
X11818905Y-15359528D01*
X11809381Y-15340481D01*
X11799857Y-15302386D01*
X11799857Y-15254767D01*
X11809381Y-15216671D01*
X11818905Y-15197624D01*
X11828428Y-15188100D01*
X11847476Y-15178576D01*
X11999857Y-15359528D02*
X12009381Y-15369052D01*
X11999857Y-15378576D01*
X11990333Y-15369052D01*
X11999857Y-15359528D01*
X11999857Y-15378576D01*
X12133190Y-15178576D02*
X12152238Y-15178576D01*
X12171286Y-15188100D01*
X12180809Y-15197624D01*
X12190333Y-15216671D01*
X12199857Y-15254767D01*
X12199857Y-15302386D01*
X12190333Y-15340481D01*
X12180809Y-15359528D01*
X12171286Y-15369052D01*
X12152238Y-15378576D01*
X12133190Y-15378576D01*
X12114143Y-15369052D01*
X12104619Y-15359528D01*
X12095095Y-15340481D01*
X12085571Y-15302386D01*
X12085571Y-15254767D01*
X12095095Y-15216671D01*
X12104619Y-15197624D01*
X12114143Y-15188100D01*
X12133190Y-15178576D01*
X12266524Y-15178576D02*
X12390333Y-15178576D01*
X12323667Y-15254767D01*
X12352238Y-15254767D01*
X12371286Y-15264290D01*
X12380809Y-15273814D01*
X12390333Y-15292862D01*
X12390333Y-15340481D01*
X12380809Y-15359528D01*
X12371286Y-15369052D01*
X12352238Y-15378576D01*
X12295095Y-15378576D01*
X12276048Y-15369052D01*
X12266524Y-15359528D01*
X12514143Y-15178576D02*
X12533190Y-15178576D01*
X12552238Y-15188100D01*
X12561762Y-15197624D01*
X12571286Y-15216671D01*
X12580809Y-15254767D01*
X12580809Y-15302386D01*
X12571286Y-15340481D01*
X12561762Y-15359528D01*
X12552238Y-15369052D01*
X12533190Y-15378576D01*
X12514143Y-15378576D01*
X12495095Y-15369052D01*
X12485571Y-15359528D01*
X12476048Y-15340481D01*
X12466524Y-15302386D01*
X12466524Y-15254767D01*
X12476048Y-15216671D01*
X12485571Y-15197624D01*
X12495095Y-15188100D01*
X12514143Y-15178576D01*
X12704619Y-15178576D02*
X12723667Y-15178576D01*
X12742714Y-15188100D01*
X12752238Y-15197624D01*
X12761762Y-15216671D01*
X12771286Y-15254767D01*
X12771286Y-15302386D01*
X12761762Y-15340481D01*
X12752238Y-15359528D01*
X12742714Y-15369052D01*
X12723667Y-15378576D01*
X12704619Y-15378576D01*
X12685571Y-15369052D01*
X12676048Y-15359528D01*
X12666524Y-15340481D01*
X12657000Y-15302386D01*
X12657000Y-15254767D01*
X12666524Y-15216671D01*
X12676048Y-15197624D01*
X12685571Y-15188100D01*
X12704619Y-15178576D01*
X12847476Y-15178576D02*
X12847476Y-15216671D01*
X12923667Y-15178576D02*
X12923667Y-15216671D01*
X13218905Y-15454767D02*
X13209381Y-15445243D01*
X13190333Y-15416671D01*
X13180809Y-15397624D01*
X13171286Y-15369052D01*
X13161762Y-15321433D01*
X13161762Y-15283338D01*
X13171286Y-15235719D01*
X13180809Y-15207148D01*
X13190333Y-15188100D01*
X13209381Y-15159528D01*
X13218905Y-15150005D01*
X13323667Y-15264290D02*
X13304619Y-15254767D01*
X13295095Y-15245243D01*
X13285571Y-15226195D01*
X13285571Y-15216671D01*
X13295095Y-15197624D01*
X13304619Y-15188100D01*
X13323667Y-15178576D01*
X13361762Y-15178576D01*
X13380809Y-15188100D01*
X13390333Y-15197624D01*
X13399857Y-15216671D01*
X13399857Y-15226195D01*
X13390333Y-15245243D01*
X13380809Y-15254767D01*
X13361762Y-15264290D01*
X13323667Y-15264290D01*
X13304619Y-15273814D01*
X13295095Y-15283338D01*
X13285571Y-15302386D01*
X13285571Y-15340481D01*
X13295095Y-15359528D01*
X13304619Y-15369052D01*
X13323667Y-15378576D01*
X13361762Y-15378576D01*
X13380809Y-15369052D01*
X13390333Y-15359528D01*
X13399857Y-15340481D01*
X13399857Y-15302386D01*
X13390333Y-15283338D01*
X13380809Y-15273814D01*
X13361762Y-15264290D01*
X13466524Y-15178576D02*
X13590333Y-15178576D01*
X13523667Y-15254767D01*
X13552238Y-15254767D01*
X13571286Y-15264290D01*
X13580809Y-15273814D01*
X13590333Y-15292862D01*
X13590333Y-15340481D01*
X13580809Y-15359528D01*
X13571286Y-15369052D01*
X13552238Y-15378576D01*
X13495095Y-15378576D01*
X13476048Y-15369052D01*
X13466524Y-15359528D01*
X13666524Y-15197624D02*
X13676048Y-15188100D01*
X13695095Y-15178576D01*
X13742714Y-15178576D01*
X13761762Y-15188100D01*
X13771286Y-15197624D01*
X13780809Y-15216671D01*
X13780809Y-15235719D01*
X13771286Y-15264290D01*
X13657000Y-15378576D01*
X13780809Y-15378576D01*
X14018905Y-15378576D02*
X14018905Y-15178576D01*
X14104619Y-15378576D02*
X14104619Y-15273814D01*
X14095095Y-15254767D01*
X14076048Y-15245243D01*
X14047476Y-15245243D01*
X14028428Y-15254767D01*
X14018905Y-15264290D01*
X14228428Y-15378576D02*
X14209381Y-15369052D01*
X14199857Y-15359528D01*
X14190333Y-15340481D01*
X14190333Y-15283338D01*
X14199857Y-15264290D01*
X14209381Y-15254767D01*
X14228428Y-15245243D01*
X14257000Y-15245243D01*
X14276048Y-15254767D01*
X14285571Y-15264290D01*
X14295095Y-15283338D01*
X14295095Y-15340481D01*
X14285571Y-15359528D01*
X14276048Y-15369052D01*
X14257000Y-15378576D01*
X14228428Y-15378576D01*
X14409381Y-15378576D02*
X14390333Y-15369052D01*
X14380809Y-15350005D01*
X14380809Y-15178576D01*
X14561762Y-15369052D02*
X14542714Y-15378576D01*
X14504619Y-15378576D01*
X14485571Y-15369052D01*
X14476048Y-15350005D01*
X14476048Y-15273814D01*
X14485571Y-15254767D01*
X14504619Y-15245243D01*
X14542714Y-15245243D01*
X14561762Y-15254767D01*
X14571286Y-15273814D01*
X14571286Y-15292862D01*
X14476048Y-15311909D01*
X14647476Y-15369052D02*
X14666524Y-15378576D01*
X14704619Y-15378576D01*
X14723667Y-15369052D01*
X14733190Y-15350005D01*
X14733190Y-15340481D01*
X14723667Y-15321433D01*
X14704619Y-15311909D01*
X14676048Y-15311909D01*
X14657000Y-15302386D01*
X14647476Y-15283338D01*
X14647476Y-15273814D01*
X14657000Y-15254767D01*
X14676048Y-15245243D01*
X14704619Y-15245243D01*
X14723667Y-15254767D01*
X14799857Y-15454767D02*
X14809381Y-15445243D01*
X14828428Y-15416671D01*
X14837952Y-15397624D01*
X14847476Y-15369052D01*
X14857000Y-15321433D01*
X14857000Y-15283338D01*
X14847476Y-15235719D01*
X14837952Y-15207148D01*
X14828428Y-15188100D01*
X14809381Y-15159528D01*
X14799857Y-15150005D01*
D10*
X9647000Y-15552100D02*
G75*
G03*
X9647000Y-15552100I-50000J0D01*
G01*
D11*
X10009381Y-15642576D02*
X9895095Y-15642576D01*
X9952238Y-15642576D02*
X9952238Y-15442576D01*
X9933190Y-15471148D01*
X9914143Y-15490195D01*
X9895095Y-15499719D01*
X10095095Y-15623528D02*
X10104619Y-15633052D01*
X10095095Y-15642576D01*
X10085571Y-15633052D01*
X10095095Y-15623528D01*
X10095095Y-15642576D01*
X10228429Y-15442576D02*
X10247476Y-15442576D01*
X10266524Y-15452100D01*
X10276048Y-15461624D01*
X10285571Y-15480671D01*
X10295095Y-15518767D01*
X10295095Y-15566386D01*
X10285571Y-15604481D01*
X10276048Y-15623528D01*
X10266524Y-15633052D01*
X10247476Y-15642576D01*
X10228429Y-15642576D01*
X10209381Y-15633052D01*
X10199857Y-15623528D01*
X10190333Y-15604481D01*
X10180810Y-15566386D01*
X10180810Y-15518767D01*
X10190333Y-15480671D01*
X10199857Y-15461624D01*
X10209381Y-15452100D01*
X10228429Y-15442576D01*
X10418905Y-15442576D02*
X10437952Y-15442576D01*
X10457000Y-15452100D01*
X10466524Y-15461624D01*
X10476048Y-15480671D01*
X10485571Y-15518767D01*
X10485571Y-15566386D01*
X10476048Y-15604481D01*
X10466524Y-15623528D01*
X10457000Y-15633052D01*
X10437952Y-15642576D01*
X10418905Y-15642576D01*
X10399857Y-15633052D01*
X10390333Y-15623528D01*
X10380810Y-15604481D01*
X10371286Y-15566386D01*
X10371286Y-15518767D01*
X10380810Y-15480671D01*
X10390333Y-15461624D01*
X10399857Y-15452100D01*
X10418905Y-15442576D01*
X10609381Y-15442576D02*
X10628429Y-15442576D01*
X10647476Y-15452100D01*
X10657000Y-15461624D01*
X10666524Y-15480671D01*
X10676048Y-15518767D01*
X10676048Y-15566386D01*
X10666524Y-15604481D01*
X10657000Y-15623528D01*
X10647476Y-15633052D01*
X10628429Y-15642576D01*
X10609381Y-15642576D01*
X10590333Y-15633052D01*
X10580810Y-15623528D01*
X10571286Y-15604481D01*
X10561762Y-15566386D01*
X10561762Y-15518767D01*
X10571286Y-15480671D01*
X10580810Y-15461624D01*
X10590333Y-15452100D01*
X10609381Y-15442576D01*
X10761762Y-15642576D02*
X10761762Y-15509243D01*
X10761762Y-15528290D02*
X10771286Y-15518767D01*
X10790333Y-15509243D01*
X10818905Y-15509243D01*
X10837952Y-15518767D01*
X10847476Y-15537814D01*
X10847476Y-15642576D01*
X10847476Y-15537814D02*
X10857000Y-15518767D01*
X10876048Y-15509243D01*
X10904619Y-15509243D01*
X10923667Y-15518767D01*
X10933190Y-15537814D01*
X10933190Y-15642576D01*
X11028429Y-15642576D02*
X11028429Y-15509243D01*
X11028429Y-15528290D02*
X11037952Y-15518767D01*
X11057000Y-15509243D01*
X11085571Y-15509243D01*
X11104619Y-15518767D01*
X11114143Y-15537814D01*
X11114143Y-15642576D01*
X11114143Y-15537814D02*
X11123667Y-15518767D01*
X11142714Y-15509243D01*
X11171286Y-15509243D01*
X11190333Y-15518767D01*
X11199857Y-15537814D01*
X11199857Y-15642576D01*
X11590333Y-15433052D02*
X11418905Y-15690195D01*
X11847476Y-15442576D02*
X11866524Y-15442576D01*
X11885571Y-15452100D01*
X11895095Y-15461624D01*
X11904619Y-15480671D01*
X11914143Y-15518767D01*
X11914143Y-15566386D01*
X11904619Y-15604481D01*
X11895095Y-15623528D01*
X11885571Y-15633052D01*
X11866524Y-15642576D01*
X11847476Y-15642576D01*
X11828428Y-15633052D01*
X11818905Y-15623528D01*
X11809381Y-15604481D01*
X11799857Y-15566386D01*
X11799857Y-15518767D01*
X11809381Y-15480671D01*
X11818905Y-15461624D01*
X11828428Y-15452100D01*
X11847476Y-15442576D01*
X11999857Y-15623528D02*
X12009381Y-15633052D01*
X11999857Y-15642576D01*
X11990333Y-15633052D01*
X11999857Y-15623528D01*
X11999857Y-15642576D01*
X12133190Y-15442576D02*
X12152238Y-15442576D01*
X12171286Y-15452100D01*
X12180809Y-15461624D01*
X12190333Y-15480671D01*
X12199857Y-15518767D01*
X12199857Y-15566386D01*
X12190333Y-15604481D01*
X12180809Y-15623528D01*
X12171286Y-15633052D01*
X12152238Y-15642576D01*
X12133190Y-15642576D01*
X12114143Y-15633052D01*
X12104619Y-15623528D01*
X12095095Y-15604481D01*
X12085571Y-15566386D01*
X12085571Y-15518767D01*
X12095095Y-15480671D01*
X12104619Y-15461624D01*
X12114143Y-15452100D01*
X12133190Y-15442576D01*
X12266524Y-15442576D02*
X12390333Y-15442576D01*
X12323667Y-15518767D01*
X12352238Y-15518767D01*
X12371286Y-15528290D01*
X12380809Y-15537814D01*
X12390333Y-15556862D01*
X12390333Y-15604481D01*
X12380809Y-15623528D01*
X12371286Y-15633052D01*
X12352238Y-15642576D01*
X12295095Y-15642576D01*
X12276048Y-15633052D01*
X12266524Y-15623528D01*
X12485571Y-15642576D02*
X12523667Y-15642576D01*
X12542714Y-15633052D01*
X12552238Y-15623528D01*
X12571286Y-15594957D01*
X12580809Y-15556862D01*
X12580809Y-15480671D01*
X12571286Y-15461624D01*
X12561762Y-15452100D01*
X12542714Y-15442576D01*
X12504619Y-15442576D01*
X12485571Y-15452100D01*
X12476048Y-15461624D01*
X12466524Y-15480671D01*
X12466524Y-15528290D01*
X12476048Y-15547338D01*
X12485571Y-15556862D01*
X12504619Y-15566386D01*
X12542714Y-15566386D01*
X12561762Y-15556862D01*
X12571286Y-15547338D01*
X12580809Y-15528290D01*
X12752238Y-15509243D02*
X12752238Y-15642576D01*
X12704619Y-15433052D02*
X12657000Y-15575909D01*
X12780809Y-15575909D01*
X12847476Y-15442576D02*
X12847476Y-15480671D01*
X12923667Y-15442576D02*
X12923667Y-15480671D01*
X13218905Y-15718767D02*
X13209381Y-15709243D01*
X13190333Y-15680671D01*
X13180809Y-15661624D01*
X13171286Y-15633052D01*
X13161762Y-15585433D01*
X13161762Y-15547338D01*
X13171286Y-15499719D01*
X13180809Y-15471148D01*
X13190333Y-15452100D01*
X13209381Y-15423528D01*
X13218905Y-15414005D01*
X13399857Y-15642576D02*
X13285571Y-15642576D01*
X13342714Y-15642576D02*
X13342714Y-15442576D01*
X13323667Y-15471148D01*
X13304619Y-15490195D01*
X13285571Y-15499719D01*
X13476048Y-15461624D02*
X13485571Y-15452100D01*
X13504619Y-15442576D01*
X13552238Y-15442576D01*
X13571286Y-15452100D01*
X13580809Y-15461624D01*
X13590333Y-15480671D01*
X13590333Y-15499719D01*
X13580809Y-15528290D01*
X13466524Y-15642576D01*
X13590333Y-15642576D01*
X13704619Y-15528290D02*
X13685571Y-15518767D01*
X13676048Y-15509243D01*
X13666524Y-15490195D01*
X13666524Y-15480671D01*
X13676048Y-15461624D01*
X13685571Y-15452100D01*
X13704619Y-15442576D01*
X13742714Y-15442576D01*
X13761762Y-15452100D01*
X13771286Y-15461624D01*
X13780809Y-15480671D01*
X13780809Y-15490195D01*
X13771286Y-15509243D01*
X13761762Y-15518767D01*
X13742714Y-15528290D01*
X13704619Y-15528290D01*
X13685571Y-15537814D01*
X13676048Y-15547338D01*
X13666524Y-15566386D01*
X13666524Y-15604481D01*
X13676048Y-15623528D01*
X13685571Y-15633052D01*
X13704619Y-15642576D01*
X13742714Y-15642576D01*
X13761762Y-15633052D01*
X13771286Y-15623528D01*
X13780809Y-15604481D01*
X13780809Y-15566386D01*
X13771286Y-15547338D01*
X13761762Y-15537814D01*
X13742714Y-15528290D01*
X14018905Y-15642576D02*
X14018905Y-15442576D01*
X14104619Y-15642576D02*
X14104619Y-15537814D01*
X14095095Y-15518767D01*
X14076048Y-15509243D01*
X14047476Y-15509243D01*
X14028428Y-15518767D01*
X14018905Y-15528290D01*
X14228428Y-15642576D02*
X14209381Y-15633052D01*
X14199857Y-15623528D01*
X14190333Y-15604481D01*
X14190333Y-15547338D01*
X14199857Y-15528290D01*
X14209381Y-15518767D01*
X14228428Y-15509243D01*
X14257000Y-15509243D01*
X14276048Y-15518767D01*
X14285571Y-15528290D01*
X14295095Y-15547338D01*
X14295095Y-15604481D01*
X14285571Y-15623528D01*
X14276048Y-15633052D01*
X14257000Y-15642576D01*
X14228428Y-15642576D01*
X14409381Y-15642576D02*
X14390333Y-15633052D01*
X14380809Y-15614005D01*
X14380809Y-15442576D01*
X14561762Y-15633052D02*
X14542714Y-15642576D01*
X14504619Y-15642576D01*
X14485571Y-15633052D01*
X14476048Y-15614005D01*
X14476048Y-15537814D01*
X14485571Y-15518767D01*
X14504619Y-15509243D01*
X14542714Y-15509243D01*
X14561762Y-15518767D01*
X14571286Y-15537814D01*
X14571286Y-15556862D01*
X14476048Y-15575909D01*
X14647476Y-15633052D02*
X14666524Y-15642576D01*
X14704619Y-15642576D01*
X14723667Y-15633052D01*
X14733190Y-15614005D01*
X14733190Y-15604481D01*
X14723667Y-15585433D01*
X14704619Y-15575909D01*
X14676048Y-15575909D01*
X14657000Y-15566386D01*
X14647476Y-15547338D01*
X14647476Y-15537814D01*
X14657000Y-15518767D01*
X14676048Y-15509243D01*
X14704619Y-15509243D01*
X14723667Y-15518767D01*
X14799857Y-15718767D02*
X14809381Y-15709243D01*
X14828428Y-15680671D01*
X14837952Y-15661624D01*
X14847476Y-15633052D01*
X14857000Y-15585433D01*
X14857000Y-15547338D01*
X14847476Y-15499719D01*
X14837952Y-15471148D01*
X14828428Y-15452100D01*
X14809381Y-15423528D01*
X14799857Y-15414005D01*
M02*
