M48
; DRILL file {KiCad (6.0.9)} date Mon Nov 21 20:51:04 2022
; FORMAT={-:-/ absolute / inch / decimal}
; #@! TF.CreationDate,2022-11-21T20:51:04-08:00
; #@! TF.GenerationSoftware,Kicad,Pcbnew,(6.0.9)
; #@! TF.FileFunction,Plated,1,2,PTH
FMAT,2
INCH
; #@! TA.AperFunction,Plated,PTH,ViaDrill
T1C0.0157
; #@! TA.AperFunction,Plated,PTH,ComponentDrill
T2C0.0315
; #@! TA.AperFunction,Plated,PTH,ComponentDrill
T3C0.0354
; #@! TA.AperFunction,Plated,PTH,ComponentDrill
T4C0.0394
%
G90
G05
T1
X4.9995Y-5.4044
X5.0699Y-5.433
T2
X3.925Y-3.9258
X3.925Y-4.0242
X4.1002Y-3.8246
X4.1002Y-4.1246
X4.2002Y-3.8246
X4.2002Y-4.1246
X4.2998Y-2.575
X4.2998Y-2.875
X4.3002Y-3.8246
X4.3002Y-4.1246
X4.4002Y-3.8246
X4.4002Y-4.1246
X4.425Y-3.55
X4.4998Y-2.575
X4.4998Y-2.875
X4.5002Y-3.8246
X4.5002Y-4.1246
X4.6002Y-3.8246
X4.6002Y-4.1246
X4.6998Y-2.575
X4.6998Y-2.875
X4.7002Y-3.8246
X4.7002Y-4.1246
X4.725Y-3.55
X4.8002Y-3.8246
X4.8002Y-4.1246
X4.8998Y-2.575
X4.8998Y-2.875
X4.9002Y-3.8246
X4.9002Y-4.1246
X5.0002Y-3.8246
X5.0002Y-4.1246
X5.0998Y-2.575
X5.0998Y-2.875
X5.225Y-3.9258
X5.225Y-4.0242
X5.2998Y-2.575
X5.2998Y-2.875
X5.4002Y-3.8246
X5.4002Y-4.1246
X5.4998Y-2.575
X5.4998Y-2.875
X5.5002Y-3.8246
X5.5002Y-4.1246
X5.6002Y-3.8246
X5.6002Y-4.1246
X5.6998Y-2.575
X5.6998Y-2.875
X5.7002Y-3.8246
X5.7002Y-4.1246
X5.725Y-3.55
X5.8002Y-3.8246
X5.8002Y-4.1246
X5.8998Y-2.575
X5.8998Y-2.875
X5.9002Y-3.8246
X5.9002Y-4.1246
X6.0002Y-3.8246
X6.0002Y-4.1246
X6.025Y-3.55
X6.0998Y-2.575
X6.0998Y-2.875
X6.1002Y-3.8246
X6.1002Y-4.1246
X6.2002Y-3.8246
X6.2002Y-4.1246
X6.2998Y-2.575
X6.2998Y-2.875
X6.3002Y-3.8246
X6.3002Y-4.1246
X6.4998Y-2.575
X6.4998Y-2.875
X6.525Y-3.9258
X6.525Y-4.0242
X6.6998Y-2.575
X6.6998Y-2.875
X6.7002Y-3.8246
X6.7002Y-4.1246
X6.8002Y-3.8246
X6.8002Y-4.1246
X6.8998Y-2.575
X6.8998Y-2.875
X6.9002Y-3.8246
X6.9002Y-4.1246
X7.0002Y-3.8246
X7.0002Y-4.1246
X7.0998Y-2.575
X7.0998Y-2.875
X7.1002Y-3.8246
X7.1002Y-4.1246
X7.2002Y-3.8246
X7.2002Y-4.1246
X7.2998Y-2.575
X7.2998Y-2.875
X7.3002Y-3.8246
X7.3002Y-4.1246
X7.4002Y-3.8246
X7.4002Y-4.1246
X7.5002Y-3.8246
X7.5002Y-4.1246
X7.6002Y-3.8246
X7.6002Y-4.1246
T3
X4.2498Y-2.375
X4.3498Y-2.375
X4.4498Y-2.375
X4.5498Y-2.375
X4.6498Y-2.375
X4.7498Y-2.375
X4.8498Y-2.375
X4.9498Y-2.375
X5.0498Y-2.375
X5.1498Y-2.375
X5.2498Y-2.375
X5.3498Y-2.375
X5.4498Y-2.375
X5.5498Y-2.375
X5.6498Y-2.375
X5.7498Y-2.375
X5.8498Y-2.375
X5.9498Y-2.375
X6.0498Y-2.375
X6.1498Y-2.375
X6.2498Y-2.375
X6.3498Y-2.375
X6.4498Y-2.375
X6.5498Y-2.375
X6.6498Y-2.375
X6.7498Y-2.375
X6.8498Y-2.375
X6.9498Y-2.375
X7.0498Y-2.375
X7.1498Y-2.375
X7.2498Y-2.375
X7.3498Y-2.375
T4
X4.2428Y-5.4898
X4.2428Y-5.5898
X4.3428Y-5.4898
X4.3428Y-5.5898
X4.4428Y-5.4898
X4.4428Y-5.5898
X4.5428Y-5.4898
X4.5428Y-5.5898
X4.6428Y-5.4898
X4.6428Y-5.5898
X4.7428Y-5.4898
X4.7428Y-5.5898
X4.8428Y-5.4898
X4.8428Y-5.5898
X4.9428Y-5.4898
X4.9428Y-5.5898
X5.0428Y-5.4898
X5.0428Y-5.5898
X5.1428Y-5.4898
X5.1428Y-5.5898
X5.2428Y-5.4898
X5.2428Y-5.5898
X5.3428Y-5.4898
X5.3428Y-5.5898
X5.4428Y-5.4898
X5.4428Y-5.5898
X5.5428Y-5.4898
X5.5428Y-5.5898
X5.6428Y-5.4898
X5.6428Y-5.5898
X5.7428Y-5.4898
X5.7428Y-5.5898
X5.8428Y-5.4898
X5.8428Y-5.5898
X5.9428Y-5.4898
X5.9428Y-5.5898
X6.0428Y-5.4898
X6.0428Y-5.5898
X6.1428Y-5.4898
X6.1428Y-5.5898
X6.2428Y-5.4898
X6.2428Y-5.5898
X6.3428Y-5.4898
X6.3428Y-5.5898
X6.4428Y-5.4898
X6.4428Y-5.5898
X6.5428Y-5.4898
X6.5428Y-5.5898
X6.6428Y-5.4898
X6.6428Y-5.5898
X6.7428Y-5.4898
X6.7428Y-5.5898
X6.8428Y-5.4898
X6.8428Y-5.5898
X6.9428Y-5.4898
X6.9428Y-5.5898
X7.0428Y-5.4898
X7.0428Y-5.5898
X7.1428Y-5.4898
X7.1428Y-5.5898
X7.2428Y-5.4898
X7.2428Y-5.5898
X7.3428Y-5.4898
X7.3428Y-5.5898
T0
M30
