%TF.GenerationSoftware,KiCad,Pcbnew,(6.0.9)*%
%TF.CreationDate,2022-11-21T20:51:02-08:00*%
%TF.ProjectId,StatusBoard,53746174-7573-4426-9f61-72642e6b6963,rev?*%
%TF.SameCoordinates,Original*%
%TF.FileFunction,Legend,Top*%
%TF.FilePolarity,Positive*%
%FSLAX46Y46*%
G04 Gerber Fmt 4.6, Leading zero omitted, Abs format (unit mm)*
G04 Created by KiCad (PCBNEW (6.0.9)) date 2022-11-21 20:51:02*
%MOMM*%
%LPD*%
G01*
G04 APERTURE LIST*
%ADD10C,0.300000*%
%ADD11C,0.600000*%
%ADD12C,0.150000*%
%ADD13C,0.120000*%
G04 APERTURE END LIST*
D10*
X193488571Y-129404285D02*
X194988571Y-128904285D01*
X193488571Y-128404285D01*
X193631428Y-127975714D02*
X193560000Y-127904285D01*
X193488571Y-127761428D01*
X193488571Y-127404285D01*
X193560000Y-127261428D01*
X193631428Y-127190000D01*
X193774285Y-127118571D01*
X193917142Y-127118571D01*
X194131428Y-127190000D01*
X194988571Y-128047142D01*
X194988571Y-127118571D01*
X193488571Y-126190000D02*
X193488571Y-126047142D01*
X193560000Y-125904285D01*
X193631428Y-125832857D01*
X193774285Y-125761428D01*
X194060000Y-125690000D01*
X194417142Y-125690000D01*
X194702857Y-125761428D01*
X194845714Y-125832857D01*
X194917142Y-125904285D01*
X194988571Y-126047142D01*
X194988571Y-126190000D01*
X194917142Y-126332857D01*
X194845714Y-126404285D01*
X194702857Y-126475714D01*
X194417142Y-126547142D01*
X194060000Y-126547142D01*
X193774285Y-126475714D01*
X193631428Y-126404285D01*
X193560000Y-126332857D01*
X193488571Y-126190000D01*
X193631428Y-125118571D02*
X193560000Y-125047142D01*
X193488571Y-124904285D01*
X193488571Y-124547142D01*
X193560000Y-124404285D01*
X193631428Y-124332857D01*
X193774285Y-124261428D01*
X193917142Y-124261428D01*
X194131428Y-124332857D01*
X194988571Y-125190000D01*
X194988571Y-124261428D01*
X193631428Y-123690000D02*
X193560000Y-123618571D01*
X193488571Y-123475714D01*
X193488571Y-123118571D01*
X193560000Y-122975714D01*
X193631428Y-122904285D01*
X193774285Y-122832857D01*
X193917142Y-122832857D01*
X194131428Y-122904285D01*
X194988571Y-123761428D01*
X194988571Y-122832857D01*
X194988571Y-121404285D02*
X194988571Y-122261428D01*
X194988571Y-121832857D02*
X193488571Y-121832857D01*
X193702857Y-121975714D01*
X193845714Y-122118571D01*
X193917142Y-122261428D01*
X194988571Y-119975714D02*
X194988571Y-120832857D01*
X194988571Y-120404285D02*
X193488571Y-120404285D01*
X193702857Y-120547142D01*
X193845714Y-120690000D01*
X193917142Y-120832857D01*
X193631428Y-119404285D02*
X193560000Y-119332857D01*
X193488571Y-119190000D01*
X193488571Y-118832857D01*
X193560000Y-118690000D01*
X193631428Y-118618571D01*
X193774285Y-118547142D01*
X193917142Y-118547142D01*
X194131428Y-118618571D01*
X194988571Y-119475714D01*
X194988571Y-118547142D01*
X194988571Y-117118571D02*
X194988571Y-117975714D01*
X194988571Y-117547142D02*
X193488571Y-117547142D01*
X193702857Y-117690000D01*
X193845714Y-117832857D01*
X193917142Y-117975714D01*
D11*
X121454999Y-51379285D02*
X121883571Y-51522142D01*
X122597857Y-51522142D01*
X122883571Y-51379285D01*
X123026428Y-51236428D01*
X123169285Y-50950714D01*
X123169285Y-50665000D01*
X123026428Y-50379285D01*
X122883571Y-50236428D01*
X122597857Y-50093571D01*
X122026428Y-49950714D01*
X121740714Y-49807857D01*
X121597857Y-49665000D01*
X121454999Y-49379285D01*
X121454999Y-49093571D01*
X121597857Y-48807857D01*
X121740714Y-48665000D01*
X122026428Y-48522142D01*
X122740714Y-48522142D01*
X123169285Y-48665000D01*
X124026428Y-49522142D02*
X125169285Y-49522142D01*
X124454999Y-48522142D02*
X124454999Y-51093571D01*
X124597857Y-51379285D01*
X124883571Y-51522142D01*
X125169285Y-51522142D01*
X127312142Y-51379285D02*
X127026428Y-51522142D01*
X126454999Y-51522142D01*
X126169285Y-51379285D01*
X126026428Y-51093571D01*
X126026428Y-49950714D01*
X126169285Y-49665000D01*
X126454999Y-49522142D01*
X127026428Y-49522142D01*
X127312142Y-49665000D01*
X127454999Y-49950714D01*
X127454999Y-50236428D01*
X126026428Y-50522142D01*
X128454999Y-49522142D02*
X129169285Y-51522142D01*
X129883571Y-49522142D01*
X132169285Y-51379285D02*
X131883571Y-51522142D01*
X131312142Y-51522142D01*
X131026428Y-51379285D01*
X130883571Y-51093571D01*
X130883571Y-49950714D01*
X131026428Y-49665000D01*
X131312142Y-49522142D01*
X131883571Y-49522142D01*
X132169285Y-49665000D01*
X132312142Y-49950714D01*
X132312142Y-50236428D01*
X130883571Y-50522142D01*
X137169285Y-48522142D02*
X136597857Y-48522142D01*
X136312142Y-48665000D01*
X136169285Y-48807857D01*
X135883571Y-49236428D01*
X135740714Y-49807857D01*
X135740714Y-50950714D01*
X135883571Y-51236428D01*
X136026428Y-51379285D01*
X136312142Y-51522142D01*
X136883571Y-51522142D01*
X137169285Y-51379285D01*
X137312142Y-51236428D01*
X137455000Y-50950714D01*
X137455000Y-50236428D01*
X137312142Y-49950714D01*
X137169285Y-49807857D01*
X136883571Y-49665000D01*
X136312142Y-49665000D01*
X136026428Y-49807857D01*
X135883571Y-49950714D01*
X135740714Y-50236428D01*
X139169285Y-49807857D02*
X138883571Y-49665000D01*
X138740714Y-49522142D01*
X138597857Y-49236428D01*
X138597857Y-49093571D01*
X138740714Y-48807857D01*
X138883571Y-48665000D01*
X139169285Y-48522142D01*
X139740714Y-48522142D01*
X140026428Y-48665000D01*
X140169285Y-48807857D01*
X140312142Y-49093571D01*
X140312142Y-49236428D01*
X140169285Y-49522142D01*
X140026428Y-49665000D01*
X139740714Y-49807857D01*
X139169285Y-49807857D01*
X138883571Y-49950714D01*
X138740714Y-50093571D01*
X138597857Y-50379285D01*
X138597857Y-50950714D01*
X138740714Y-51236428D01*
X138883571Y-51379285D01*
X139169285Y-51522142D01*
X139740714Y-51522142D01*
X140026428Y-51379285D01*
X140169285Y-51236428D01*
X140312142Y-50950714D01*
X140312142Y-50379285D01*
X140169285Y-50093571D01*
X140026428Y-49950714D01*
X139740714Y-49807857D01*
X141597857Y-51522142D02*
X141597857Y-48522142D01*
X141883571Y-50379285D02*
X142740714Y-51522142D01*
X142740714Y-49522142D02*
X141597857Y-50665000D01*
X146169285Y-51379285D02*
X146597857Y-51522142D01*
X147312142Y-51522142D01*
X147597857Y-51379285D01*
X147740714Y-51236428D01*
X147883571Y-50950714D01*
X147883571Y-50665000D01*
X147740714Y-50379285D01*
X147597857Y-50236428D01*
X147312142Y-50093571D01*
X146740714Y-49950714D01*
X146455000Y-49807857D01*
X146312142Y-49665000D01*
X146169285Y-49379285D01*
X146169285Y-49093571D01*
X146312142Y-48807857D01*
X146455000Y-48665000D01*
X146740714Y-48522142D01*
X147455000Y-48522142D01*
X147883571Y-48665000D01*
X148740714Y-49522142D02*
X149883571Y-49522142D01*
X149169285Y-48522142D02*
X149169285Y-51093571D01*
X149312142Y-51379285D01*
X149597857Y-51522142D01*
X149883571Y-51522142D01*
X152169285Y-51522142D02*
X152169285Y-49950714D01*
X152026428Y-49665000D01*
X151740714Y-49522142D01*
X151169285Y-49522142D01*
X150883571Y-49665000D01*
X152169285Y-51379285D02*
X151883571Y-51522142D01*
X151169285Y-51522142D01*
X150883571Y-51379285D01*
X150740714Y-51093571D01*
X150740714Y-50807857D01*
X150883571Y-50522142D01*
X151169285Y-50379285D01*
X151883571Y-50379285D01*
X152169285Y-50236428D01*
X153169285Y-49522142D02*
X154312142Y-49522142D01*
X153597857Y-48522142D02*
X153597857Y-51093571D01*
X153740714Y-51379285D01*
X154026428Y-51522142D01*
X154312142Y-51522142D01*
X156597857Y-49522142D02*
X156597857Y-51522142D01*
X155312142Y-49522142D02*
X155312142Y-51093571D01*
X155455000Y-51379285D01*
X155740714Y-51522142D01*
X156169285Y-51522142D01*
X156455000Y-51379285D01*
X156597857Y-51236428D01*
X157883571Y-51379285D02*
X158169285Y-51522142D01*
X158740714Y-51522142D01*
X159026428Y-51379285D01*
X159169285Y-51093571D01*
X159169285Y-50950714D01*
X159026428Y-50665000D01*
X158740714Y-50522142D01*
X158312142Y-50522142D01*
X158026428Y-50379285D01*
X157883571Y-50093571D01*
X157883571Y-49950714D01*
X158026428Y-49665000D01*
X158312142Y-49522142D01*
X158740714Y-49522142D01*
X159026428Y-49665000D01*
X163740714Y-49950714D02*
X164169285Y-50093571D01*
X164312142Y-50236428D01*
X164455000Y-50522142D01*
X164455000Y-50950714D01*
X164312142Y-51236428D01*
X164169285Y-51379285D01*
X163883571Y-51522142D01*
X162740714Y-51522142D01*
X162740714Y-48522142D01*
X163740714Y-48522142D01*
X164026428Y-48665000D01*
X164169285Y-48807857D01*
X164312142Y-49093571D01*
X164312142Y-49379285D01*
X164169285Y-49665000D01*
X164026428Y-49807857D01*
X163740714Y-49950714D01*
X162740714Y-49950714D01*
X166169285Y-51522142D02*
X165883571Y-51379285D01*
X165740714Y-51236428D01*
X165597857Y-50950714D01*
X165597857Y-50093571D01*
X165740714Y-49807857D01*
X165883571Y-49665000D01*
X166169285Y-49522142D01*
X166597857Y-49522142D01*
X166883571Y-49665000D01*
X167026428Y-49807857D01*
X167169285Y-50093571D01*
X167169285Y-50950714D01*
X167026428Y-51236428D01*
X166883571Y-51379285D01*
X166597857Y-51522142D01*
X166169285Y-51522142D01*
X169740714Y-51522142D02*
X169740714Y-49950714D01*
X169597857Y-49665000D01*
X169312142Y-49522142D01*
X168740714Y-49522142D01*
X168455000Y-49665000D01*
X169740714Y-51379285D02*
X169455000Y-51522142D01*
X168740714Y-51522142D01*
X168455000Y-51379285D01*
X168312142Y-51093571D01*
X168312142Y-50807857D01*
X168455000Y-50522142D01*
X168740714Y-50379285D01*
X169455000Y-50379285D01*
X169740714Y-50236428D01*
X171169285Y-51522142D02*
X171169285Y-49522142D01*
X171169285Y-50093571D02*
X171312142Y-49807857D01*
X171455000Y-49665000D01*
X171740714Y-49522142D01*
X172026428Y-49522142D01*
X174312142Y-51522142D02*
X174312142Y-48522142D01*
X174312142Y-51379285D02*
X174026428Y-51522142D01*
X173455000Y-51522142D01*
X173169285Y-51379285D01*
X173026428Y-51236428D01*
X172883571Y-50950714D01*
X172883571Y-50093571D01*
X173026428Y-49807857D01*
X173169285Y-49665000D01*
X173455000Y-49522142D01*
X174026428Y-49522142D01*
X174312142Y-49665000D01*
D12*
%TO.C,U3*%
X101267380Y-101716904D02*
X102076904Y-101716904D01*
X102172142Y-101669285D01*
X102219761Y-101621666D01*
X102267380Y-101526428D01*
X102267380Y-101335952D01*
X102219761Y-101240714D01*
X102172142Y-101193095D01*
X102076904Y-101145476D01*
X101267380Y-101145476D01*
X101267380Y-100764523D02*
X101267380Y-100145476D01*
X101648333Y-100478809D01*
X101648333Y-100335952D01*
X101695952Y-100240714D01*
X101743571Y-100193095D01*
X101838809Y-100145476D01*
X102076904Y-100145476D01*
X102172142Y-100193095D01*
X102219761Y-100240714D01*
X102267380Y-100335952D01*
X102267380Y-100621666D01*
X102219761Y-100716904D01*
X102172142Y-100764523D01*
X128787380Y-104074047D02*
X128787380Y-103407380D01*
X129787380Y-103835952D01*
X129120714Y-102597857D02*
X129787380Y-102597857D01*
X128739761Y-102835952D02*
X129454047Y-103074047D01*
X129454047Y-102455000D01*
X129787380Y-101597857D02*
X129787380Y-102074047D01*
X128787380Y-102074047D01*
X129739761Y-101312142D02*
X129787380Y-101169285D01*
X129787380Y-100931190D01*
X129739761Y-100835952D01*
X129692142Y-100788333D01*
X129596904Y-100740714D01*
X129501666Y-100740714D01*
X129406428Y-100788333D01*
X129358809Y-100835952D01*
X129311190Y-100931190D01*
X129263571Y-101121666D01*
X129215952Y-101216904D01*
X129168333Y-101264523D01*
X129073095Y-101312142D01*
X128977857Y-101312142D01*
X128882619Y-101264523D01*
X128835000Y-101216904D01*
X128787380Y-101121666D01*
X128787380Y-100883571D01*
X128835000Y-100740714D01*
X128787380Y-100407380D02*
X128787380Y-99788333D01*
X129168333Y-100121666D01*
X129168333Y-99978809D01*
X129215952Y-99883571D01*
X129263571Y-99835952D01*
X129358809Y-99788333D01*
X129596904Y-99788333D01*
X129692142Y-99835952D01*
X129739761Y-99883571D01*
X129787380Y-99978809D01*
X129787380Y-100264523D01*
X129739761Y-100359761D01*
X129692142Y-100407380D01*
X128787380Y-99455000D02*
X128787380Y-98788333D01*
X129787380Y-99216904D01*
X128787380Y-98502619D02*
X128787380Y-97883571D01*
X129168333Y-98216904D01*
X129168333Y-98074047D01*
X129215952Y-97978809D01*
X129263571Y-97931190D01*
X129358809Y-97883571D01*
X129596904Y-97883571D01*
X129692142Y-97931190D01*
X129739761Y-97978809D01*
X129787380Y-98074047D01*
X129787380Y-98359761D01*
X129739761Y-98455000D01*
X129692142Y-98502619D01*
%TO.C,U2*%
X134287380Y-101716904D02*
X135096904Y-101716904D01*
X135192142Y-101669285D01*
X135239761Y-101621666D01*
X135287380Y-101526428D01*
X135287380Y-101335952D01*
X135239761Y-101240714D01*
X135192142Y-101193095D01*
X135096904Y-101145476D01*
X134287380Y-101145476D01*
X134382619Y-100716904D02*
X134335000Y-100669285D01*
X134287380Y-100574047D01*
X134287380Y-100335952D01*
X134335000Y-100240714D01*
X134382619Y-100193095D01*
X134477857Y-100145476D01*
X134573095Y-100145476D01*
X134715952Y-100193095D01*
X135287380Y-100764523D01*
X135287380Y-100145476D01*
X161807380Y-104074047D02*
X161807380Y-103407380D01*
X162807380Y-103835952D01*
X162140714Y-102597857D02*
X162807380Y-102597857D01*
X161759761Y-102835952D02*
X162474047Y-103074047D01*
X162474047Y-102455000D01*
X162807380Y-101597857D02*
X162807380Y-102074047D01*
X161807380Y-102074047D01*
X162759761Y-101312142D02*
X162807380Y-101169285D01*
X162807380Y-100931190D01*
X162759761Y-100835952D01*
X162712142Y-100788333D01*
X162616904Y-100740714D01*
X162521666Y-100740714D01*
X162426428Y-100788333D01*
X162378809Y-100835952D01*
X162331190Y-100931190D01*
X162283571Y-101121666D01*
X162235952Y-101216904D01*
X162188333Y-101264523D01*
X162093095Y-101312142D01*
X161997857Y-101312142D01*
X161902619Y-101264523D01*
X161855000Y-101216904D01*
X161807380Y-101121666D01*
X161807380Y-100883571D01*
X161855000Y-100740714D01*
X161807380Y-100407380D02*
X161807380Y-99788333D01*
X162188333Y-100121666D01*
X162188333Y-99978809D01*
X162235952Y-99883571D01*
X162283571Y-99835952D01*
X162378809Y-99788333D01*
X162616904Y-99788333D01*
X162712142Y-99835952D01*
X162759761Y-99883571D01*
X162807380Y-99978809D01*
X162807380Y-100264523D01*
X162759761Y-100359761D01*
X162712142Y-100407380D01*
X161807380Y-99455000D02*
X161807380Y-98788333D01*
X162807380Y-99216904D01*
X161807380Y-98502619D02*
X161807380Y-97883571D01*
X162188333Y-98216904D01*
X162188333Y-98074047D01*
X162235952Y-97978809D01*
X162283571Y-97931190D01*
X162378809Y-97883571D01*
X162616904Y-97883571D01*
X162712142Y-97931190D01*
X162759761Y-97978809D01*
X162807380Y-98074047D01*
X162807380Y-98359761D01*
X162759761Y-98455000D01*
X162712142Y-98502619D01*
%TO.C,U1*%
X167307380Y-101716904D02*
X168116904Y-101716904D01*
X168212142Y-101669285D01*
X168259761Y-101621666D01*
X168307380Y-101526428D01*
X168307380Y-101335952D01*
X168259761Y-101240714D01*
X168212142Y-101193095D01*
X168116904Y-101145476D01*
X167307380Y-101145476D01*
X168307380Y-100145476D02*
X168307380Y-100716904D01*
X168307380Y-100431190D02*
X167307380Y-100431190D01*
X167450238Y-100526428D01*
X167545476Y-100621666D01*
X167593095Y-100716904D01*
X194875000Y-103383571D02*
X194827380Y-103478809D01*
X194827380Y-103621666D01*
X194875000Y-103764523D01*
X194970238Y-103859761D01*
X195065476Y-103907380D01*
X195255952Y-103955000D01*
X195398809Y-103955000D01*
X195589285Y-103907380D01*
X195684523Y-103859761D01*
X195779761Y-103764523D01*
X195827380Y-103621666D01*
X195827380Y-103526428D01*
X195779761Y-103383571D01*
X195732142Y-103335952D01*
X195398809Y-103335952D01*
X195398809Y-103526428D01*
X195541666Y-102955000D02*
X195541666Y-102478809D01*
X195827380Y-103050238D02*
X194827380Y-102716904D01*
X195827380Y-102383571D01*
X195827380Y-101574047D02*
X195827380Y-102050238D01*
X194827380Y-102050238D01*
X195827380Y-100716904D02*
X195827380Y-101288333D01*
X195827380Y-101002619D02*
X194827380Y-101002619D01*
X194970238Y-101097857D01*
X195065476Y-101193095D01*
X195113095Y-101288333D01*
X194827380Y-99859761D02*
X194827380Y-100050238D01*
X194875000Y-100145476D01*
X194922619Y-100193095D01*
X195065476Y-100288333D01*
X195255952Y-100335952D01*
X195636904Y-100335952D01*
X195732142Y-100288333D01*
X195779761Y-100240714D01*
X195827380Y-100145476D01*
X195827380Y-99955000D01*
X195779761Y-99859761D01*
X195732142Y-99812142D01*
X195636904Y-99764523D01*
X195398809Y-99764523D01*
X195303571Y-99812142D01*
X195255952Y-99859761D01*
X195208333Y-99955000D01*
X195208333Y-100145476D01*
X195255952Y-100240714D01*
X195303571Y-100288333D01*
X195398809Y-100335952D01*
X194827380Y-99478809D02*
X195827380Y-99145476D01*
X194827380Y-98812142D01*
X195255952Y-98335952D02*
X195208333Y-98431190D01*
X195160714Y-98478809D01*
X195065476Y-98526428D01*
X195017857Y-98526428D01*
X194922619Y-98478809D01*
X194875000Y-98431190D01*
X194827380Y-98335952D01*
X194827380Y-98145476D01*
X194875000Y-98050238D01*
X194922619Y-98002619D01*
X195017857Y-97955000D01*
X195065476Y-97955000D01*
X195160714Y-98002619D01*
X195208333Y-98050238D01*
X195255952Y-98145476D01*
X195255952Y-98335952D01*
X195303571Y-98431190D01*
X195351190Y-98478809D01*
X195446428Y-98526428D01*
X195636904Y-98526428D01*
X195732142Y-98478809D01*
X195779761Y-98431190D01*
X195827380Y-98335952D01*
X195827380Y-98145476D01*
X195779761Y-98050238D01*
X195732142Y-98002619D01*
X195636904Y-97955000D01*
X195446428Y-97955000D01*
X195351190Y-98002619D01*
X195303571Y-98050238D01*
X195255952Y-98145476D01*
%TO.C,R20*%
X108572142Y-76017380D02*
X108238809Y-75541190D01*
X108000714Y-76017380D02*
X108000714Y-75017380D01*
X108381666Y-75017380D01*
X108476904Y-75065000D01*
X108524523Y-75112619D01*
X108572142Y-75207857D01*
X108572142Y-75350714D01*
X108524523Y-75445952D01*
X108476904Y-75493571D01*
X108381666Y-75541190D01*
X108000714Y-75541190D01*
X108953095Y-75112619D02*
X109000714Y-75065000D01*
X109095952Y-75017380D01*
X109334047Y-75017380D01*
X109429285Y-75065000D01*
X109476904Y-75112619D01*
X109524523Y-75207857D01*
X109524523Y-75303095D01*
X109476904Y-75445952D01*
X108905476Y-76017380D01*
X109524523Y-76017380D01*
X110143571Y-75017380D02*
X110238809Y-75017380D01*
X110334047Y-75065000D01*
X110381666Y-75112619D01*
X110429285Y-75207857D01*
X110476904Y-75398333D01*
X110476904Y-75636428D01*
X110429285Y-75826904D01*
X110381666Y-75922142D01*
X110334047Y-75969761D01*
X110238809Y-76017380D01*
X110143571Y-76017380D01*
X110048333Y-75969761D01*
X110000714Y-75922142D01*
X109953095Y-75826904D01*
X109905476Y-75636428D01*
X109905476Y-75398333D01*
X109953095Y-75207857D01*
X110000714Y-75112619D01*
X110048333Y-75065000D01*
X110143571Y-75017380D01*
%TO.C,R19*%
X113652142Y-76017380D02*
X113318809Y-75541190D01*
X113080714Y-76017380D02*
X113080714Y-75017380D01*
X113461666Y-75017380D01*
X113556904Y-75065000D01*
X113604523Y-75112619D01*
X113652142Y-75207857D01*
X113652142Y-75350714D01*
X113604523Y-75445952D01*
X113556904Y-75493571D01*
X113461666Y-75541190D01*
X113080714Y-75541190D01*
X114604523Y-76017380D02*
X114033095Y-76017380D01*
X114318809Y-76017380D02*
X114318809Y-75017380D01*
X114223571Y-75160238D01*
X114128333Y-75255476D01*
X114033095Y-75303095D01*
X115080714Y-76017380D02*
X115271190Y-76017380D01*
X115366428Y-75969761D01*
X115414047Y-75922142D01*
X115509285Y-75779285D01*
X115556904Y-75588809D01*
X115556904Y-75207857D01*
X115509285Y-75112619D01*
X115461666Y-75065000D01*
X115366428Y-75017380D01*
X115175952Y-75017380D01*
X115080714Y-75065000D01*
X115033095Y-75112619D01*
X114985476Y-75207857D01*
X114985476Y-75445952D01*
X115033095Y-75541190D01*
X115080714Y-75588809D01*
X115175952Y-75636428D01*
X115366428Y-75636428D01*
X115461666Y-75588809D01*
X115509285Y-75541190D01*
X115556904Y-75445952D01*
%TO.C,R18*%
X118732142Y-76017380D02*
X118398809Y-75541190D01*
X118160714Y-76017380D02*
X118160714Y-75017380D01*
X118541666Y-75017380D01*
X118636904Y-75065000D01*
X118684523Y-75112619D01*
X118732142Y-75207857D01*
X118732142Y-75350714D01*
X118684523Y-75445952D01*
X118636904Y-75493571D01*
X118541666Y-75541190D01*
X118160714Y-75541190D01*
X119684523Y-76017380D02*
X119113095Y-76017380D01*
X119398809Y-76017380D02*
X119398809Y-75017380D01*
X119303571Y-75160238D01*
X119208333Y-75255476D01*
X119113095Y-75303095D01*
X120255952Y-75445952D02*
X120160714Y-75398333D01*
X120113095Y-75350714D01*
X120065476Y-75255476D01*
X120065476Y-75207857D01*
X120113095Y-75112619D01*
X120160714Y-75065000D01*
X120255952Y-75017380D01*
X120446428Y-75017380D01*
X120541666Y-75065000D01*
X120589285Y-75112619D01*
X120636904Y-75207857D01*
X120636904Y-75255476D01*
X120589285Y-75350714D01*
X120541666Y-75398333D01*
X120446428Y-75445952D01*
X120255952Y-75445952D01*
X120160714Y-75493571D01*
X120113095Y-75541190D01*
X120065476Y-75636428D01*
X120065476Y-75826904D01*
X120113095Y-75922142D01*
X120160714Y-75969761D01*
X120255952Y-76017380D01*
X120446428Y-76017380D01*
X120541666Y-75969761D01*
X120589285Y-75922142D01*
X120636904Y-75826904D01*
X120636904Y-75636428D01*
X120589285Y-75541190D01*
X120541666Y-75493571D01*
X120446428Y-75445952D01*
%TO.C,R17*%
X123812142Y-76017380D02*
X123478809Y-75541190D01*
X123240714Y-76017380D02*
X123240714Y-75017380D01*
X123621666Y-75017380D01*
X123716904Y-75065000D01*
X123764523Y-75112619D01*
X123812142Y-75207857D01*
X123812142Y-75350714D01*
X123764523Y-75445952D01*
X123716904Y-75493571D01*
X123621666Y-75541190D01*
X123240714Y-75541190D01*
X124764523Y-76017380D02*
X124193095Y-76017380D01*
X124478809Y-76017380D02*
X124478809Y-75017380D01*
X124383571Y-75160238D01*
X124288333Y-75255476D01*
X124193095Y-75303095D01*
X125097857Y-75017380D02*
X125764523Y-75017380D01*
X125335952Y-76017380D01*
%TO.C,R16*%
X128892142Y-76017380D02*
X128558809Y-75541190D01*
X128320714Y-76017380D02*
X128320714Y-75017380D01*
X128701666Y-75017380D01*
X128796904Y-75065000D01*
X128844523Y-75112619D01*
X128892142Y-75207857D01*
X128892142Y-75350714D01*
X128844523Y-75445952D01*
X128796904Y-75493571D01*
X128701666Y-75541190D01*
X128320714Y-75541190D01*
X129844523Y-76017380D02*
X129273095Y-76017380D01*
X129558809Y-76017380D02*
X129558809Y-75017380D01*
X129463571Y-75160238D01*
X129368333Y-75255476D01*
X129273095Y-75303095D01*
X130701666Y-75017380D02*
X130511190Y-75017380D01*
X130415952Y-75065000D01*
X130368333Y-75112619D01*
X130273095Y-75255476D01*
X130225476Y-75445952D01*
X130225476Y-75826904D01*
X130273095Y-75922142D01*
X130320714Y-75969761D01*
X130415952Y-76017380D01*
X130606428Y-76017380D01*
X130701666Y-75969761D01*
X130749285Y-75922142D01*
X130796904Y-75826904D01*
X130796904Y-75588809D01*
X130749285Y-75493571D01*
X130701666Y-75445952D01*
X130606428Y-75398333D01*
X130415952Y-75398333D01*
X130320714Y-75445952D01*
X130273095Y-75493571D01*
X130225476Y-75588809D01*
%TO.C,R15*%
X133972142Y-76017380D02*
X133638809Y-75541190D01*
X133400714Y-76017380D02*
X133400714Y-75017380D01*
X133781666Y-75017380D01*
X133876904Y-75065000D01*
X133924523Y-75112619D01*
X133972142Y-75207857D01*
X133972142Y-75350714D01*
X133924523Y-75445952D01*
X133876904Y-75493571D01*
X133781666Y-75541190D01*
X133400714Y-75541190D01*
X134924523Y-76017380D02*
X134353095Y-76017380D01*
X134638809Y-76017380D02*
X134638809Y-75017380D01*
X134543571Y-75160238D01*
X134448333Y-75255476D01*
X134353095Y-75303095D01*
X135829285Y-75017380D02*
X135353095Y-75017380D01*
X135305476Y-75493571D01*
X135353095Y-75445952D01*
X135448333Y-75398333D01*
X135686428Y-75398333D01*
X135781666Y-75445952D01*
X135829285Y-75493571D01*
X135876904Y-75588809D01*
X135876904Y-75826904D01*
X135829285Y-75922142D01*
X135781666Y-75969761D01*
X135686428Y-76017380D01*
X135448333Y-76017380D01*
X135353095Y-75969761D01*
X135305476Y-75922142D01*
%TO.C,R14*%
X139052142Y-76017380D02*
X138718809Y-75541190D01*
X138480714Y-76017380D02*
X138480714Y-75017380D01*
X138861666Y-75017380D01*
X138956904Y-75065000D01*
X139004523Y-75112619D01*
X139052142Y-75207857D01*
X139052142Y-75350714D01*
X139004523Y-75445952D01*
X138956904Y-75493571D01*
X138861666Y-75541190D01*
X138480714Y-75541190D01*
X140004523Y-76017380D02*
X139433095Y-76017380D01*
X139718809Y-76017380D02*
X139718809Y-75017380D01*
X139623571Y-75160238D01*
X139528333Y-75255476D01*
X139433095Y-75303095D01*
X140861666Y-75350714D02*
X140861666Y-76017380D01*
X140623571Y-74969761D02*
X140385476Y-75684047D01*
X141004523Y-75684047D01*
%TO.C,R13*%
X144132142Y-76017380D02*
X143798809Y-75541190D01*
X143560714Y-76017380D02*
X143560714Y-75017380D01*
X143941666Y-75017380D01*
X144036904Y-75065000D01*
X144084523Y-75112619D01*
X144132142Y-75207857D01*
X144132142Y-75350714D01*
X144084523Y-75445952D01*
X144036904Y-75493571D01*
X143941666Y-75541190D01*
X143560714Y-75541190D01*
X145084523Y-76017380D02*
X144513095Y-76017380D01*
X144798809Y-76017380D02*
X144798809Y-75017380D01*
X144703571Y-75160238D01*
X144608333Y-75255476D01*
X144513095Y-75303095D01*
X145417857Y-75017380D02*
X146036904Y-75017380D01*
X145703571Y-75398333D01*
X145846428Y-75398333D01*
X145941666Y-75445952D01*
X145989285Y-75493571D01*
X146036904Y-75588809D01*
X146036904Y-75826904D01*
X145989285Y-75922142D01*
X145941666Y-75969761D01*
X145846428Y-76017380D01*
X145560714Y-76017380D01*
X145465476Y-75969761D01*
X145417857Y-75922142D01*
%TO.C,R12*%
X149212142Y-76017380D02*
X148878809Y-75541190D01*
X148640714Y-76017380D02*
X148640714Y-75017380D01*
X149021666Y-75017380D01*
X149116904Y-75065000D01*
X149164523Y-75112619D01*
X149212142Y-75207857D01*
X149212142Y-75350714D01*
X149164523Y-75445952D01*
X149116904Y-75493571D01*
X149021666Y-75541190D01*
X148640714Y-75541190D01*
X150164523Y-76017380D02*
X149593095Y-76017380D01*
X149878809Y-76017380D02*
X149878809Y-75017380D01*
X149783571Y-75160238D01*
X149688333Y-75255476D01*
X149593095Y-75303095D01*
X150545476Y-75112619D02*
X150593095Y-75065000D01*
X150688333Y-75017380D01*
X150926428Y-75017380D01*
X151021666Y-75065000D01*
X151069285Y-75112619D01*
X151116904Y-75207857D01*
X151116904Y-75303095D01*
X151069285Y-75445952D01*
X150497857Y-76017380D01*
X151116904Y-76017380D01*
%TO.C,R11*%
X154292142Y-76017380D02*
X153958809Y-75541190D01*
X153720714Y-76017380D02*
X153720714Y-75017380D01*
X154101666Y-75017380D01*
X154196904Y-75065000D01*
X154244523Y-75112619D01*
X154292142Y-75207857D01*
X154292142Y-75350714D01*
X154244523Y-75445952D01*
X154196904Y-75493571D01*
X154101666Y-75541190D01*
X153720714Y-75541190D01*
X155244523Y-76017380D02*
X154673095Y-76017380D01*
X154958809Y-76017380D02*
X154958809Y-75017380D01*
X154863571Y-75160238D01*
X154768333Y-75255476D01*
X154673095Y-75303095D01*
X156196904Y-76017380D02*
X155625476Y-76017380D01*
X155911190Y-76017380D02*
X155911190Y-75017380D01*
X155815952Y-75160238D01*
X155720714Y-75255476D01*
X155625476Y-75303095D01*
%TO.C,R10*%
X159372142Y-76017380D02*
X159038809Y-75541190D01*
X158800714Y-76017380D02*
X158800714Y-75017380D01*
X159181666Y-75017380D01*
X159276904Y-75065000D01*
X159324523Y-75112619D01*
X159372142Y-75207857D01*
X159372142Y-75350714D01*
X159324523Y-75445952D01*
X159276904Y-75493571D01*
X159181666Y-75541190D01*
X158800714Y-75541190D01*
X160324523Y-76017380D02*
X159753095Y-76017380D01*
X160038809Y-76017380D02*
X160038809Y-75017380D01*
X159943571Y-75160238D01*
X159848333Y-75255476D01*
X159753095Y-75303095D01*
X160943571Y-75017380D02*
X161038809Y-75017380D01*
X161134047Y-75065000D01*
X161181666Y-75112619D01*
X161229285Y-75207857D01*
X161276904Y-75398333D01*
X161276904Y-75636428D01*
X161229285Y-75826904D01*
X161181666Y-75922142D01*
X161134047Y-75969761D01*
X161038809Y-76017380D01*
X160943571Y-76017380D01*
X160848333Y-75969761D01*
X160800714Y-75922142D01*
X160753095Y-75826904D01*
X160705476Y-75636428D01*
X160705476Y-75398333D01*
X160753095Y-75207857D01*
X160800714Y-75112619D01*
X160848333Y-75065000D01*
X160943571Y-75017380D01*
%TO.C,R9*%
X164928333Y-76017380D02*
X164595000Y-75541190D01*
X164356904Y-76017380D02*
X164356904Y-75017380D01*
X164737857Y-75017380D01*
X164833095Y-75065000D01*
X164880714Y-75112619D01*
X164928333Y-75207857D01*
X164928333Y-75350714D01*
X164880714Y-75445952D01*
X164833095Y-75493571D01*
X164737857Y-75541190D01*
X164356904Y-75541190D01*
X165404523Y-76017380D02*
X165595000Y-76017380D01*
X165690238Y-75969761D01*
X165737857Y-75922142D01*
X165833095Y-75779285D01*
X165880714Y-75588809D01*
X165880714Y-75207857D01*
X165833095Y-75112619D01*
X165785476Y-75065000D01*
X165690238Y-75017380D01*
X165499761Y-75017380D01*
X165404523Y-75065000D01*
X165356904Y-75112619D01*
X165309285Y-75207857D01*
X165309285Y-75445952D01*
X165356904Y-75541190D01*
X165404523Y-75588809D01*
X165499761Y-75636428D01*
X165690238Y-75636428D01*
X165785476Y-75588809D01*
X165833095Y-75541190D01*
X165880714Y-75445952D01*
%TO.C,R8*%
X170008333Y-76017380D02*
X169675000Y-75541190D01*
X169436904Y-76017380D02*
X169436904Y-75017380D01*
X169817857Y-75017380D01*
X169913095Y-75065000D01*
X169960714Y-75112619D01*
X170008333Y-75207857D01*
X170008333Y-75350714D01*
X169960714Y-75445952D01*
X169913095Y-75493571D01*
X169817857Y-75541190D01*
X169436904Y-75541190D01*
X170579761Y-75445952D02*
X170484523Y-75398333D01*
X170436904Y-75350714D01*
X170389285Y-75255476D01*
X170389285Y-75207857D01*
X170436904Y-75112619D01*
X170484523Y-75065000D01*
X170579761Y-75017380D01*
X170770238Y-75017380D01*
X170865476Y-75065000D01*
X170913095Y-75112619D01*
X170960714Y-75207857D01*
X170960714Y-75255476D01*
X170913095Y-75350714D01*
X170865476Y-75398333D01*
X170770238Y-75445952D01*
X170579761Y-75445952D01*
X170484523Y-75493571D01*
X170436904Y-75541190D01*
X170389285Y-75636428D01*
X170389285Y-75826904D01*
X170436904Y-75922142D01*
X170484523Y-75969761D01*
X170579761Y-76017380D01*
X170770238Y-76017380D01*
X170865476Y-75969761D01*
X170913095Y-75922142D01*
X170960714Y-75826904D01*
X170960714Y-75636428D01*
X170913095Y-75541190D01*
X170865476Y-75493571D01*
X170770238Y-75445952D01*
%TO.C,R7*%
X175088333Y-76017380D02*
X174755000Y-75541190D01*
X174516904Y-76017380D02*
X174516904Y-75017380D01*
X174897857Y-75017380D01*
X174993095Y-75065000D01*
X175040714Y-75112619D01*
X175088333Y-75207857D01*
X175088333Y-75350714D01*
X175040714Y-75445952D01*
X174993095Y-75493571D01*
X174897857Y-75541190D01*
X174516904Y-75541190D01*
X175421666Y-75017380D02*
X176088333Y-75017380D01*
X175659761Y-76017380D01*
%TO.C,R6*%
X180168333Y-76017380D02*
X179835000Y-75541190D01*
X179596904Y-76017380D02*
X179596904Y-75017380D01*
X179977857Y-75017380D01*
X180073095Y-75065000D01*
X180120714Y-75112619D01*
X180168333Y-75207857D01*
X180168333Y-75350714D01*
X180120714Y-75445952D01*
X180073095Y-75493571D01*
X179977857Y-75541190D01*
X179596904Y-75541190D01*
X181025476Y-75017380D02*
X180835000Y-75017380D01*
X180739761Y-75065000D01*
X180692142Y-75112619D01*
X180596904Y-75255476D01*
X180549285Y-75445952D01*
X180549285Y-75826904D01*
X180596904Y-75922142D01*
X180644523Y-75969761D01*
X180739761Y-76017380D01*
X180930238Y-76017380D01*
X181025476Y-75969761D01*
X181073095Y-75922142D01*
X181120714Y-75826904D01*
X181120714Y-75588809D01*
X181073095Y-75493571D01*
X181025476Y-75445952D01*
X180930238Y-75398333D01*
X180739761Y-75398333D01*
X180644523Y-75445952D01*
X180596904Y-75493571D01*
X180549285Y-75588809D01*
%TO.C,R5*%
X185248333Y-76017380D02*
X184915000Y-75541190D01*
X184676904Y-76017380D02*
X184676904Y-75017380D01*
X185057857Y-75017380D01*
X185153095Y-75065000D01*
X185200714Y-75112619D01*
X185248333Y-75207857D01*
X185248333Y-75350714D01*
X185200714Y-75445952D01*
X185153095Y-75493571D01*
X185057857Y-75541190D01*
X184676904Y-75541190D01*
X186153095Y-75017380D02*
X185676904Y-75017380D01*
X185629285Y-75493571D01*
X185676904Y-75445952D01*
X185772142Y-75398333D01*
X186010238Y-75398333D01*
X186105476Y-75445952D01*
X186153095Y-75493571D01*
X186200714Y-75588809D01*
X186200714Y-75826904D01*
X186153095Y-75922142D01*
X186105476Y-75969761D01*
X186010238Y-76017380D01*
X185772142Y-76017380D01*
X185676904Y-75969761D01*
X185629285Y-75922142D01*
%TO.C,R2*%
X116038333Y-92992380D02*
X115705000Y-92516190D01*
X115466904Y-92992380D02*
X115466904Y-91992380D01*
X115847857Y-91992380D01*
X115943095Y-92040000D01*
X115990714Y-92087619D01*
X116038333Y-92182857D01*
X116038333Y-92325714D01*
X115990714Y-92420952D01*
X115943095Y-92468571D01*
X115847857Y-92516190D01*
X115466904Y-92516190D01*
X116419285Y-92087619D02*
X116466904Y-92040000D01*
X116562142Y-91992380D01*
X116800238Y-91992380D01*
X116895476Y-92040000D01*
X116943095Y-92087619D01*
X116990714Y-92182857D01*
X116990714Y-92278095D01*
X116943095Y-92420952D01*
X116371666Y-92992380D01*
X116990714Y-92992380D01*
%TO.C,R1*%
X149058333Y-92992380D02*
X148725000Y-92516190D01*
X148486904Y-92992380D02*
X148486904Y-91992380D01*
X148867857Y-91992380D01*
X148963095Y-92040000D01*
X149010714Y-92087619D01*
X149058333Y-92182857D01*
X149058333Y-92325714D01*
X149010714Y-92420952D01*
X148963095Y-92468571D01*
X148867857Y-92516190D01*
X148486904Y-92516190D01*
X150010714Y-92992380D02*
X149439285Y-92992380D01*
X149725000Y-92992380D02*
X149725000Y-91992380D01*
X149629761Y-92135238D01*
X149534523Y-92230476D01*
X149439285Y-92278095D01*
%TO.C,J1*%
X188228380Y-145430333D02*
X188942666Y-145430333D01*
X189085523Y-145477952D01*
X189180761Y-145573190D01*
X189228380Y-145716047D01*
X189228380Y-145811285D01*
X189228380Y-144430333D02*
X189228380Y-145001761D01*
X189228380Y-144716047D02*
X188228380Y-144716047D01*
X188371238Y-144811285D01*
X188466476Y-144906523D01*
X188514095Y-145001761D01*
%TO.C,D18*%
X108000714Y-57817380D02*
X108000714Y-56817380D01*
X108238809Y-56817380D01*
X108381666Y-56865000D01*
X108476904Y-56960238D01*
X108524523Y-57055476D01*
X108572142Y-57245952D01*
X108572142Y-57388809D01*
X108524523Y-57579285D01*
X108476904Y-57674523D01*
X108381666Y-57769761D01*
X108238809Y-57817380D01*
X108000714Y-57817380D01*
X109524523Y-57817380D02*
X108953095Y-57817380D01*
X109238809Y-57817380D02*
X109238809Y-56817380D01*
X109143571Y-56960238D01*
X109048333Y-57055476D01*
X108953095Y-57103095D01*
X110095952Y-57245952D02*
X110000714Y-57198333D01*
X109953095Y-57150714D01*
X109905476Y-57055476D01*
X109905476Y-57007857D01*
X109953095Y-56912619D01*
X110000714Y-56865000D01*
X110095952Y-56817380D01*
X110286428Y-56817380D01*
X110381666Y-56865000D01*
X110429285Y-56912619D01*
X110476904Y-57007857D01*
X110476904Y-57055476D01*
X110429285Y-57150714D01*
X110381666Y-57198333D01*
X110286428Y-57245952D01*
X110095952Y-57245952D01*
X110000714Y-57293571D01*
X109953095Y-57341190D01*
X109905476Y-57436428D01*
X109905476Y-57626904D01*
X109953095Y-57722142D01*
X110000714Y-57769761D01*
X110095952Y-57817380D01*
X110286428Y-57817380D01*
X110381666Y-57769761D01*
X110429285Y-57722142D01*
X110476904Y-57626904D01*
X110476904Y-57436428D01*
X110429285Y-57341190D01*
X110381666Y-57293571D01*
X110286428Y-57245952D01*
%TO.C,D17*%
X113080714Y-57817380D02*
X113080714Y-56817380D01*
X113318809Y-56817380D01*
X113461666Y-56865000D01*
X113556904Y-56960238D01*
X113604523Y-57055476D01*
X113652142Y-57245952D01*
X113652142Y-57388809D01*
X113604523Y-57579285D01*
X113556904Y-57674523D01*
X113461666Y-57769761D01*
X113318809Y-57817380D01*
X113080714Y-57817380D01*
X114604523Y-57817380D02*
X114033095Y-57817380D01*
X114318809Y-57817380D02*
X114318809Y-56817380D01*
X114223571Y-56960238D01*
X114128333Y-57055476D01*
X114033095Y-57103095D01*
X114937857Y-56817380D02*
X115604523Y-56817380D01*
X115175952Y-57817380D01*
%TO.C,D16*%
X118160714Y-57817380D02*
X118160714Y-56817380D01*
X118398809Y-56817380D01*
X118541666Y-56865000D01*
X118636904Y-56960238D01*
X118684523Y-57055476D01*
X118732142Y-57245952D01*
X118732142Y-57388809D01*
X118684523Y-57579285D01*
X118636904Y-57674523D01*
X118541666Y-57769761D01*
X118398809Y-57817380D01*
X118160714Y-57817380D01*
X119684523Y-57817380D02*
X119113095Y-57817380D01*
X119398809Y-57817380D02*
X119398809Y-56817380D01*
X119303571Y-56960238D01*
X119208333Y-57055476D01*
X119113095Y-57103095D01*
X120541666Y-56817380D02*
X120351190Y-56817380D01*
X120255952Y-56865000D01*
X120208333Y-56912619D01*
X120113095Y-57055476D01*
X120065476Y-57245952D01*
X120065476Y-57626904D01*
X120113095Y-57722142D01*
X120160714Y-57769761D01*
X120255952Y-57817380D01*
X120446428Y-57817380D01*
X120541666Y-57769761D01*
X120589285Y-57722142D01*
X120636904Y-57626904D01*
X120636904Y-57388809D01*
X120589285Y-57293571D01*
X120541666Y-57245952D01*
X120446428Y-57198333D01*
X120255952Y-57198333D01*
X120160714Y-57245952D01*
X120113095Y-57293571D01*
X120065476Y-57388809D01*
%TO.C,D15*%
X123240714Y-57817380D02*
X123240714Y-56817380D01*
X123478809Y-56817380D01*
X123621666Y-56865000D01*
X123716904Y-56960238D01*
X123764523Y-57055476D01*
X123812142Y-57245952D01*
X123812142Y-57388809D01*
X123764523Y-57579285D01*
X123716904Y-57674523D01*
X123621666Y-57769761D01*
X123478809Y-57817380D01*
X123240714Y-57817380D01*
X124764523Y-57817380D02*
X124193095Y-57817380D01*
X124478809Y-57817380D02*
X124478809Y-56817380D01*
X124383571Y-56960238D01*
X124288333Y-57055476D01*
X124193095Y-57103095D01*
X125669285Y-56817380D02*
X125193095Y-56817380D01*
X125145476Y-57293571D01*
X125193095Y-57245952D01*
X125288333Y-57198333D01*
X125526428Y-57198333D01*
X125621666Y-57245952D01*
X125669285Y-57293571D01*
X125716904Y-57388809D01*
X125716904Y-57626904D01*
X125669285Y-57722142D01*
X125621666Y-57769761D01*
X125526428Y-57817380D01*
X125288333Y-57817380D01*
X125193095Y-57769761D01*
X125145476Y-57722142D01*
%TO.C,D14*%
X128320714Y-57817380D02*
X128320714Y-56817380D01*
X128558809Y-56817380D01*
X128701666Y-56865000D01*
X128796904Y-56960238D01*
X128844523Y-57055476D01*
X128892142Y-57245952D01*
X128892142Y-57388809D01*
X128844523Y-57579285D01*
X128796904Y-57674523D01*
X128701666Y-57769761D01*
X128558809Y-57817380D01*
X128320714Y-57817380D01*
X129844523Y-57817380D02*
X129273095Y-57817380D01*
X129558809Y-57817380D02*
X129558809Y-56817380D01*
X129463571Y-56960238D01*
X129368333Y-57055476D01*
X129273095Y-57103095D01*
X130701666Y-57150714D02*
X130701666Y-57817380D01*
X130463571Y-56769761D02*
X130225476Y-57484047D01*
X130844523Y-57484047D01*
%TO.C,D13*%
X133400714Y-57817380D02*
X133400714Y-56817380D01*
X133638809Y-56817380D01*
X133781666Y-56865000D01*
X133876904Y-56960238D01*
X133924523Y-57055476D01*
X133972142Y-57245952D01*
X133972142Y-57388809D01*
X133924523Y-57579285D01*
X133876904Y-57674523D01*
X133781666Y-57769761D01*
X133638809Y-57817380D01*
X133400714Y-57817380D01*
X134924523Y-57817380D02*
X134353095Y-57817380D01*
X134638809Y-57817380D02*
X134638809Y-56817380D01*
X134543571Y-56960238D01*
X134448333Y-57055476D01*
X134353095Y-57103095D01*
X135257857Y-56817380D02*
X135876904Y-56817380D01*
X135543571Y-57198333D01*
X135686428Y-57198333D01*
X135781666Y-57245952D01*
X135829285Y-57293571D01*
X135876904Y-57388809D01*
X135876904Y-57626904D01*
X135829285Y-57722142D01*
X135781666Y-57769761D01*
X135686428Y-57817380D01*
X135400714Y-57817380D01*
X135305476Y-57769761D01*
X135257857Y-57722142D01*
%TO.C,D12*%
X138480714Y-57817380D02*
X138480714Y-56817380D01*
X138718809Y-56817380D01*
X138861666Y-56865000D01*
X138956904Y-56960238D01*
X139004523Y-57055476D01*
X139052142Y-57245952D01*
X139052142Y-57388809D01*
X139004523Y-57579285D01*
X138956904Y-57674523D01*
X138861666Y-57769761D01*
X138718809Y-57817380D01*
X138480714Y-57817380D01*
X140004523Y-57817380D02*
X139433095Y-57817380D01*
X139718809Y-57817380D02*
X139718809Y-56817380D01*
X139623571Y-56960238D01*
X139528333Y-57055476D01*
X139433095Y-57103095D01*
X140385476Y-56912619D02*
X140433095Y-56865000D01*
X140528333Y-56817380D01*
X140766428Y-56817380D01*
X140861666Y-56865000D01*
X140909285Y-56912619D01*
X140956904Y-57007857D01*
X140956904Y-57103095D01*
X140909285Y-57245952D01*
X140337857Y-57817380D01*
X140956904Y-57817380D01*
%TO.C,D11*%
X143560714Y-57817380D02*
X143560714Y-56817380D01*
X143798809Y-56817380D01*
X143941666Y-56865000D01*
X144036904Y-56960238D01*
X144084523Y-57055476D01*
X144132142Y-57245952D01*
X144132142Y-57388809D01*
X144084523Y-57579285D01*
X144036904Y-57674523D01*
X143941666Y-57769761D01*
X143798809Y-57817380D01*
X143560714Y-57817380D01*
X145084523Y-57817380D02*
X144513095Y-57817380D01*
X144798809Y-57817380D02*
X144798809Y-56817380D01*
X144703571Y-56960238D01*
X144608333Y-57055476D01*
X144513095Y-57103095D01*
X146036904Y-57817380D02*
X145465476Y-57817380D01*
X145751190Y-57817380D02*
X145751190Y-56817380D01*
X145655952Y-56960238D01*
X145560714Y-57055476D01*
X145465476Y-57103095D01*
%TO.C,D10*%
X148640714Y-57817380D02*
X148640714Y-56817380D01*
X148878809Y-56817380D01*
X149021666Y-56865000D01*
X149116904Y-56960238D01*
X149164523Y-57055476D01*
X149212142Y-57245952D01*
X149212142Y-57388809D01*
X149164523Y-57579285D01*
X149116904Y-57674523D01*
X149021666Y-57769761D01*
X148878809Y-57817380D01*
X148640714Y-57817380D01*
X150164523Y-57817380D02*
X149593095Y-57817380D01*
X149878809Y-57817380D02*
X149878809Y-56817380D01*
X149783571Y-56960238D01*
X149688333Y-57055476D01*
X149593095Y-57103095D01*
X150783571Y-56817380D02*
X150878809Y-56817380D01*
X150974047Y-56865000D01*
X151021666Y-56912619D01*
X151069285Y-57007857D01*
X151116904Y-57198333D01*
X151116904Y-57436428D01*
X151069285Y-57626904D01*
X151021666Y-57722142D01*
X150974047Y-57769761D01*
X150878809Y-57817380D01*
X150783571Y-57817380D01*
X150688333Y-57769761D01*
X150640714Y-57722142D01*
X150593095Y-57626904D01*
X150545476Y-57436428D01*
X150545476Y-57198333D01*
X150593095Y-57007857D01*
X150640714Y-56912619D01*
X150688333Y-56865000D01*
X150783571Y-56817380D01*
%TO.C,D9*%
X154196904Y-57817380D02*
X154196904Y-56817380D01*
X154435000Y-56817380D01*
X154577857Y-56865000D01*
X154673095Y-56960238D01*
X154720714Y-57055476D01*
X154768333Y-57245952D01*
X154768333Y-57388809D01*
X154720714Y-57579285D01*
X154673095Y-57674523D01*
X154577857Y-57769761D01*
X154435000Y-57817380D01*
X154196904Y-57817380D01*
X155244523Y-57817380D02*
X155435000Y-57817380D01*
X155530238Y-57769761D01*
X155577857Y-57722142D01*
X155673095Y-57579285D01*
X155720714Y-57388809D01*
X155720714Y-57007857D01*
X155673095Y-56912619D01*
X155625476Y-56865000D01*
X155530238Y-56817380D01*
X155339761Y-56817380D01*
X155244523Y-56865000D01*
X155196904Y-56912619D01*
X155149285Y-57007857D01*
X155149285Y-57245952D01*
X155196904Y-57341190D01*
X155244523Y-57388809D01*
X155339761Y-57436428D01*
X155530238Y-57436428D01*
X155625476Y-57388809D01*
X155673095Y-57341190D01*
X155720714Y-57245952D01*
%TO.C,D8*%
X159276904Y-57817380D02*
X159276904Y-56817380D01*
X159515000Y-56817380D01*
X159657857Y-56865000D01*
X159753095Y-56960238D01*
X159800714Y-57055476D01*
X159848333Y-57245952D01*
X159848333Y-57388809D01*
X159800714Y-57579285D01*
X159753095Y-57674523D01*
X159657857Y-57769761D01*
X159515000Y-57817380D01*
X159276904Y-57817380D01*
X160419761Y-57245952D02*
X160324523Y-57198333D01*
X160276904Y-57150714D01*
X160229285Y-57055476D01*
X160229285Y-57007857D01*
X160276904Y-56912619D01*
X160324523Y-56865000D01*
X160419761Y-56817380D01*
X160610238Y-56817380D01*
X160705476Y-56865000D01*
X160753095Y-56912619D01*
X160800714Y-57007857D01*
X160800714Y-57055476D01*
X160753095Y-57150714D01*
X160705476Y-57198333D01*
X160610238Y-57245952D01*
X160419761Y-57245952D01*
X160324523Y-57293571D01*
X160276904Y-57341190D01*
X160229285Y-57436428D01*
X160229285Y-57626904D01*
X160276904Y-57722142D01*
X160324523Y-57769761D01*
X160419761Y-57817380D01*
X160610238Y-57817380D01*
X160705476Y-57769761D01*
X160753095Y-57722142D01*
X160800714Y-57626904D01*
X160800714Y-57436428D01*
X160753095Y-57341190D01*
X160705476Y-57293571D01*
X160610238Y-57245952D01*
%TO.C,D7*%
X164356904Y-57817380D02*
X164356904Y-56817380D01*
X164595000Y-56817380D01*
X164737857Y-56865000D01*
X164833095Y-56960238D01*
X164880714Y-57055476D01*
X164928333Y-57245952D01*
X164928333Y-57388809D01*
X164880714Y-57579285D01*
X164833095Y-57674523D01*
X164737857Y-57769761D01*
X164595000Y-57817380D01*
X164356904Y-57817380D01*
X165261666Y-56817380D02*
X165928333Y-56817380D01*
X165499761Y-57817380D01*
%TO.C,D6*%
X169436904Y-57817380D02*
X169436904Y-56817380D01*
X169675000Y-56817380D01*
X169817857Y-56865000D01*
X169913095Y-56960238D01*
X169960714Y-57055476D01*
X170008333Y-57245952D01*
X170008333Y-57388809D01*
X169960714Y-57579285D01*
X169913095Y-57674523D01*
X169817857Y-57769761D01*
X169675000Y-57817380D01*
X169436904Y-57817380D01*
X170865476Y-56817380D02*
X170675000Y-56817380D01*
X170579761Y-56865000D01*
X170532142Y-56912619D01*
X170436904Y-57055476D01*
X170389285Y-57245952D01*
X170389285Y-57626904D01*
X170436904Y-57722142D01*
X170484523Y-57769761D01*
X170579761Y-57817380D01*
X170770238Y-57817380D01*
X170865476Y-57769761D01*
X170913095Y-57722142D01*
X170960714Y-57626904D01*
X170960714Y-57388809D01*
X170913095Y-57293571D01*
X170865476Y-57245952D01*
X170770238Y-57198333D01*
X170579761Y-57198333D01*
X170484523Y-57245952D01*
X170436904Y-57293571D01*
X170389285Y-57388809D01*
%TO.C,D5*%
X174516904Y-57817380D02*
X174516904Y-56817380D01*
X174755000Y-56817380D01*
X174897857Y-56865000D01*
X174993095Y-56960238D01*
X175040714Y-57055476D01*
X175088333Y-57245952D01*
X175088333Y-57388809D01*
X175040714Y-57579285D01*
X174993095Y-57674523D01*
X174897857Y-57769761D01*
X174755000Y-57817380D01*
X174516904Y-57817380D01*
X175993095Y-56817380D02*
X175516904Y-56817380D01*
X175469285Y-57293571D01*
X175516904Y-57245952D01*
X175612142Y-57198333D01*
X175850238Y-57198333D01*
X175945476Y-57245952D01*
X175993095Y-57293571D01*
X176040714Y-57388809D01*
X176040714Y-57626904D01*
X175993095Y-57722142D01*
X175945476Y-57769761D01*
X175850238Y-57817380D01*
X175612142Y-57817380D01*
X175516904Y-57769761D01*
X175469285Y-57722142D01*
%TO.C,D4*%
X179596904Y-57817380D02*
X179596904Y-56817380D01*
X179835000Y-56817380D01*
X179977857Y-56865000D01*
X180073095Y-56960238D01*
X180120714Y-57055476D01*
X180168333Y-57245952D01*
X180168333Y-57388809D01*
X180120714Y-57579285D01*
X180073095Y-57674523D01*
X179977857Y-57769761D01*
X179835000Y-57817380D01*
X179596904Y-57817380D01*
X181025476Y-57150714D02*
X181025476Y-57817380D01*
X180787380Y-56769761D02*
X180549285Y-57484047D01*
X181168333Y-57484047D01*
%TO.C,D3*%
X184676904Y-57817380D02*
X184676904Y-56817380D01*
X184915000Y-56817380D01*
X185057857Y-56865000D01*
X185153095Y-56960238D01*
X185200714Y-57055476D01*
X185248333Y-57245952D01*
X185248333Y-57388809D01*
X185200714Y-57579285D01*
X185153095Y-57674523D01*
X185057857Y-57769761D01*
X184915000Y-57817380D01*
X184676904Y-57817380D01*
X185581666Y-56817380D02*
X186200714Y-56817380D01*
X185867380Y-57198333D01*
X186010238Y-57198333D01*
X186105476Y-57245952D01*
X186153095Y-57293571D01*
X186200714Y-57388809D01*
X186200714Y-57626904D01*
X186153095Y-57722142D01*
X186105476Y-57769761D01*
X186010238Y-57817380D01*
X185724523Y-57817380D01*
X185629285Y-57769761D01*
X185581666Y-57722142D01*
%TO.C,C3*%
X133072142Y-104941666D02*
X133119761Y-104989285D01*
X133167380Y-105132142D01*
X133167380Y-105227380D01*
X133119761Y-105370238D01*
X133024523Y-105465476D01*
X132929285Y-105513095D01*
X132738809Y-105560714D01*
X132595952Y-105560714D01*
X132405476Y-105513095D01*
X132310238Y-105465476D01*
X132215000Y-105370238D01*
X132167380Y-105227380D01*
X132167380Y-105132142D01*
X132215000Y-104989285D01*
X132262619Y-104941666D01*
X132167380Y-104608333D02*
X132167380Y-103989285D01*
X132548333Y-104322619D01*
X132548333Y-104179761D01*
X132595952Y-104084523D01*
X132643571Y-104036904D01*
X132738809Y-103989285D01*
X132976904Y-103989285D01*
X133072142Y-104036904D01*
X133119761Y-104084523D01*
X133167380Y-104179761D01*
X133167380Y-104465476D01*
X133119761Y-104560714D01*
X133072142Y-104608333D01*
%TO.C,C2*%
X100052142Y-104941666D02*
X100099761Y-104989285D01*
X100147380Y-105132142D01*
X100147380Y-105227380D01*
X100099761Y-105370238D01*
X100004523Y-105465476D01*
X99909285Y-105513095D01*
X99718809Y-105560714D01*
X99575952Y-105560714D01*
X99385476Y-105513095D01*
X99290238Y-105465476D01*
X99195000Y-105370238D01*
X99147380Y-105227380D01*
X99147380Y-105132142D01*
X99195000Y-104989285D01*
X99242619Y-104941666D01*
X99242619Y-104560714D02*
X99195000Y-104513095D01*
X99147380Y-104417857D01*
X99147380Y-104179761D01*
X99195000Y-104084523D01*
X99242619Y-104036904D01*
X99337857Y-103989285D01*
X99433095Y-103989285D01*
X99575952Y-104036904D01*
X100147380Y-104608333D01*
X100147380Y-103989285D01*
%TO.C,C1*%
X166092142Y-104941666D02*
X166139761Y-104989285D01*
X166187380Y-105132142D01*
X166187380Y-105227380D01*
X166139761Y-105370238D01*
X166044523Y-105465476D01*
X165949285Y-105513095D01*
X165758809Y-105560714D01*
X165615952Y-105560714D01*
X165425476Y-105513095D01*
X165330238Y-105465476D01*
X165235000Y-105370238D01*
X165187380Y-105227380D01*
X165187380Y-105132142D01*
X165235000Y-104989285D01*
X165282619Y-104941666D01*
X166187380Y-103989285D02*
X166187380Y-104560714D01*
X166187380Y-104275000D02*
X165187380Y-104275000D01*
X165330238Y-104370238D01*
X165425476Y-104465476D01*
X165473095Y-104560714D01*
D13*
%TO.C,U3*%
X128335000Y-98705000D02*
X102815000Y-98705000D01*
X102755000Y-95705000D02*
X102755000Y-106205000D01*
X102755000Y-106205000D02*
X128395000Y-106205000D01*
X128335000Y-103205000D02*
X128335000Y-98705000D01*
X102815000Y-101955000D02*
X102815000Y-103205000D01*
X128395000Y-95705000D02*
X102755000Y-95705000D01*
X102815000Y-98705000D02*
X102815000Y-99955000D01*
X102815000Y-103205000D02*
X128335000Y-103205000D01*
X128395000Y-106205000D02*
X128395000Y-95705000D01*
X102815000Y-101955000D02*
G75*
G03*
X102815000Y-99955000I0J1000000D01*
G01*
%TO.C,U2*%
X161355000Y-98705000D02*
X135835000Y-98705000D01*
X135775000Y-95705000D02*
X135775000Y-106205000D01*
X135775000Y-106205000D02*
X161415000Y-106205000D01*
X161355000Y-103205000D02*
X161355000Y-98705000D01*
X135835000Y-101955000D02*
X135835000Y-103205000D01*
X161415000Y-95705000D02*
X135775000Y-95705000D01*
X135835000Y-98705000D02*
X135835000Y-99955000D01*
X135835000Y-103205000D02*
X161355000Y-103205000D01*
X161415000Y-106205000D02*
X161415000Y-95705000D01*
X135835000Y-101955000D02*
G75*
G03*
X135835000Y-99955000I0J1000000D01*
G01*
%TO.C,U1*%
X168855000Y-101955000D02*
G75*
G03*
X168855000Y-99955000I0J1000000D01*
G01*
X194435000Y-106205000D02*
X194435000Y-95705000D01*
X168855000Y-103205000D02*
X194375000Y-103205000D01*
X168855000Y-98705000D02*
X168855000Y-99955000D01*
X194435000Y-95705000D02*
X168795000Y-95705000D01*
X168855000Y-101955000D02*
X168855000Y-103205000D01*
X194375000Y-103205000D02*
X194375000Y-98705000D01*
X168795000Y-106205000D02*
X194435000Y-106205000D01*
X168795000Y-95705000D02*
X168795000Y-106205000D01*
X194375000Y-98705000D02*
X168855000Y-98705000D01*
%TO.C,R20*%
X110585000Y-65945000D02*
X110255000Y-65945000D01*
X107845000Y-72485000D02*
X107845000Y-65945000D01*
X110585000Y-72485000D02*
X110585000Y-65945000D01*
X110255000Y-72485000D02*
X110585000Y-72485000D01*
X108175000Y-72485000D02*
X107845000Y-72485000D01*
X107845000Y-65945000D02*
X108175000Y-65945000D01*
%TO.C,R19*%
X115665000Y-65945000D02*
X115335000Y-65945000D01*
X112925000Y-72485000D02*
X112925000Y-65945000D01*
X115665000Y-72485000D02*
X115665000Y-65945000D01*
X115335000Y-72485000D02*
X115665000Y-72485000D01*
X113255000Y-72485000D02*
X112925000Y-72485000D01*
X112925000Y-65945000D02*
X113255000Y-65945000D01*
%TO.C,R18*%
X120745000Y-65945000D02*
X120415000Y-65945000D01*
X118005000Y-72485000D02*
X118005000Y-65945000D01*
X120745000Y-72485000D02*
X120745000Y-65945000D01*
X120415000Y-72485000D02*
X120745000Y-72485000D01*
X118335000Y-72485000D02*
X118005000Y-72485000D01*
X118005000Y-65945000D02*
X118335000Y-65945000D01*
%TO.C,R17*%
X125825000Y-65945000D02*
X125495000Y-65945000D01*
X123085000Y-72485000D02*
X123085000Y-65945000D01*
X125825000Y-72485000D02*
X125825000Y-65945000D01*
X125495000Y-72485000D02*
X125825000Y-72485000D01*
X123415000Y-72485000D02*
X123085000Y-72485000D01*
X123085000Y-65945000D02*
X123415000Y-65945000D01*
%TO.C,R16*%
X130905000Y-65945000D02*
X130575000Y-65945000D01*
X128165000Y-72485000D02*
X128165000Y-65945000D01*
X130905000Y-72485000D02*
X130905000Y-65945000D01*
X130575000Y-72485000D02*
X130905000Y-72485000D01*
X128495000Y-72485000D02*
X128165000Y-72485000D01*
X128165000Y-65945000D02*
X128495000Y-65945000D01*
%TO.C,R15*%
X135985000Y-65945000D02*
X135655000Y-65945000D01*
X133245000Y-72485000D02*
X133245000Y-65945000D01*
X135985000Y-72485000D02*
X135985000Y-65945000D01*
X135655000Y-72485000D02*
X135985000Y-72485000D01*
X133575000Y-72485000D02*
X133245000Y-72485000D01*
X133245000Y-65945000D02*
X133575000Y-65945000D01*
%TO.C,R14*%
X141065000Y-65945000D02*
X140735000Y-65945000D01*
X138325000Y-72485000D02*
X138325000Y-65945000D01*
X141065000Y-72485000D02*
X141065000Y-65945000D01*
X140735000Y-72485000D02*
X141065000Y-72485000D01*
X138655000Y-72485000D02*
X138325000Y-72485000D01*
X138325000Y-65945000D02*
X138655000Y-65945000D01*
%TO.C,R13*%
X146145000Y-65945000D02*
X145815000Y-65945000D01*
X143405000Y-72485000D02*
X143405000Y-65945000D01*
X146145000Y-72485000D02*
X146145000Y-65945000D01*
X145815000Y-72485000D02*
X146145000Y-72485000D01*
X143735000Y-72485000D02*
X143405000Y-72485000D01*
X143405000Y-65945000D02*
X143735000Y-65945000D01*
%TO.C,R12*%
X151225000Y-65945000D02*
X150895000Y-65945000D01*
X148485000Y-72485000D02*
X148485000Y-65945000D01*
X151225000Y-72485000D02*
X151225000Y-65945000D01*
X150895000Y-72485000D02*
X151225000Y-72485000D01*
X148815000Y-72485000D02*
X148485000Y-72485000D01*
X148485000Y-65945000D02*
X148815000Y-65945000D01*
%TO.C,R11*%
X156305000Y-65945000D02*
X155975000Y-65945000D01*
X153565000Y-72485000D02*
X153565000Y-65945000D01*
X156305000Y-72485000D02*
X156305000Y-65945000D01*
X155975000Y-72485000D02*
X156305000Y-72485000D01*
X153895000Y-72485000D02*
X153565000Y-72485000D01*
X153565000Y-65945000D02*
X153895000Y-65945000D01*
%TO.C,R10*%
X161385000Y-65945000D02*
X161055000Y-65945000D01*
X158645000Y-72485000D02*
X158645000Y-65945000D01*
X161385000Y-72485000D02*
X161385000Y-65945000D01*
X161055000Y-72485000D02*
X161385000Y-72485000D01*
X158975000Y-72485000D02*
X158645000Y-72485000D01*
X158645000Y-65945000D02*
X158975000Y-65945000D01*
%TO.C,R9*%
X166465000Y-65945000D02*
X166135000Y-65945000D01*
X163725000Y-72485000D02*
X163725000Y-65945000D01*
X166465000Y-72485000D02*
X166465000Y-65945000D01*
X166135000Y-72485000D02*
X166465000Y-72485000D01*
X164055000Y-72485000D02*
X163725000Y-72485000D01*
X163725000Y-65945000D02*
X164055000Y-65945000D01*
%TO.C,R8*%
X171545000Y-65945000D02*
X171215000Y-65945000D01*
X168805000Y-72485000D02*
X168805000Y-65945000D01*
X171545000Y-72485000D02*
X171545000Y-65945000D01*
X171215000Y-72485000D02*
X171545000Y-72485000D01*
X169135000Y-72485000D02*
X168805000Y-72485000D01*
X168805000Y-65945000D02*
X169135000Y-65945000D01*
%TO.C,R7*%
X176625000Y-65945000D02*
X176295000Y-65945000D01*
X173885000Y-72485000D02*
X173885000Y-65945000D01*
X176625000Y-72485000D02*
X176625000Y-65945000D01*
X176295000Y-72485000D02*
X176625000Y-72485000D01*
X174215000Y-72485000D02*
X173885000Y-72485000D01*
X173885000Y-65945000D02*
X174215000Y-65945000D01*
%TO.C,R6*%
X181705000Y-65945000D02*
X181375000Y-65945000D01*
X178965000Y-72485000D02*
X178965000Y-65945000D01*
X181705000Y-72485000D02*
X181705000Y-65945000D01*
X181375000Y-72485000D02*
X181705000Y-72485000D01*
X179295000Y-72485000D02*
X178965000Y-72485000D01*
X178965000Y-65945000D02*
X179295000Y-65945000D01*
%TO.C,R5*%
X186785000Y-65945000D02*
X186455000Y-65945000D01*
X184045000Y-72485000D02*
X184045000Y-65945000D01*
X186785000Y-72485000D02*
X186785000Y-65945000D01*
X186455000Y-72485000D02*
X186785000Y-72485000D01*
X184375000Y-72485000D02*
X184045000Y-72485000D01*
X184045000Y-65945000D02*
X184375000Y-65945000D01*
%TO.C,R2*%
X112935000Y-88800000D02*
X112935000Y-89130000D01*
X119475000Y-91540000D02*
X112935000Y-91540000D01*
X119475000Y-88800000D02*
X112935000Y-88800000D01*
X119475000Y-89130000D02*
X119475000Y-88800000D01*
X119475000Y-91210000D02*
X119475000Y-91540000D01*
X112935000Y-91540000D02*
X112935000Y-91210000D01*
%TO.C,R1*%
X145955000Y-88800000D02*
X145955000Y-89130000D01*
X152495000Y-91540000D02*
X145955000Y-91540000D01*
X152495000Y-88800000D02*
X145955000Y-88800000D01*
X152495000Y-89130000D02*
X152495000Y-88800000D01*
X152495000Y-91210000D02*
X152495000Y-91540000D01*
X145955000Y-91540000D02*
X145955000Y-91210000D01*
%TO.C,J1*%
X186826000Y-146082000D02*
X186826000Y-152082000D01*
X143706000Y-146082000D02*
X143706000Y-152082000D01*
X129356000Y-143422000D02*
X129356000Y-146082000D01*
X164026000Y-140484929D02*
X164026000Y-140939071D01*
X151326000Y-143024929D02*
X151326000Y-143422000D01*
X136086000Y-140484929D02*
X136086000Y-140939071D01*
X172536000Y-143422000D02*
X172536000Y-146082000D01*
X151326000Y-146082000D02*
X151326000Y-152082000D01*
X117546000Y-140484929D02*
X117546000Y-140939071D01*
X131006000Y-143024929D02*
X131006000Y-143422000D01*
X185236000Y-143422000D02*
X185236000Y-146082000D01*
X162376000Y-143422000D02*
X162376000Y-146082000D01*
X148026000Y-143024929D02*
X148026000Y-143422000D01*
X131006000Y-146082000D02*
X131006000Y-152082000D01*
X174186000Y-146082000D02*
X174186000Y-152082000D01*
X176726000Y-140484929D02*
X176726000Y-140939071D01*
X130246000Y-140484929D02*
X130246000Y-140939071D01*
X115006000Y-143024929D02*
X115006000Y-143422000D01*
X118306000Y-140484929D02*
X118306000Y-140939071D01*
X109926000Y-143024929D02*
X109926000Y-143422000D01*
X153866000Y-146082000D02*
X153866000Y-152082000D01*
X123386000Y-143024929D02*
X123386000Y-143422000D01*
X182696000Y-143422000D02*
X182696000Y-146082000D01*
X164026000Y-146082000D02*
X164026000Y-152082000D01*
X146246000Y-152082000D02*
X145486000Y-152082000D01*
X163266000Y-152082000D02*
X163266000Y-146082000D01*
X174186000Y-152082000D02*
X173426000Y-152082000D01*
X112466000Y-152082000D02*
X112466000Y-146082000D01*
X111576000Y-143422000D02*
X111576000Y-146082000D01*
X161486000Y-146082000D02*
X161486000Y-152082000D01*
X109926000Y-140484929D02*
X109926000Y-140939071D01*
X120086000Y-152082000D02*
X120086000Y-146082000D01*
X132786000Y-143024929D02*
X132786000Y-143422000D01*
X138626000Y-146082000D02*
X138626000Y-152082000D01*
X169106000Y-152082000D02*
X168346000Y-152082000D01*
X158946000Y-140484929D02*
X158946000Y-140939071D01*
X125166000Y-143024929D02*
X125166000Y-143422000D01*
X186506000Y-138172000D02*
X187776000Y-138172000D01*
X130246000Y-152082000D02*
X130246000Y-146082000D01*
X164026000Y-152082000D02*
X163266000Y-152082000D01*
X110686000Y-152082000D02*
X109926000Y-152082000D01*
X158946000Y-143024929D02*
X158946000Y-143422000D01*
X158946000Y-146082000D02*
X158946000Y-152082000D01*
X131896000Y-143422000D02*
X131896000Y-146082000D01*
X173426000Y-143024929D02*
X173426000Y-143422000D01*
X128466000Y-146082000D02*
X128466000Y-152082000D01*
X161486000Y-140484929D02*
X161486000Y-140939071D01*
X157296000Y-143422000D02*
X157296000Y-146082000D01*
X125926000Y-140484929D02*
X125926000Y-140939071D01*
X141166000Y-146082000D02*
X141166000Y-152082000D01*
X166566000Y-143024929D02*
X166566000Y-143422000D01*
X184346000Y-143024929D02*
X184346000Y-143422000D01*
X156406000Y-140484929D02*
X156406000Y-140939071D01*
X146246000Y-143024929D02*
X146246000Y-143422000D01*
X150566000Y-152082000D02*
X150566000Y-146082000D01*
X186586000Y-146082000D02*
X186586000Y-152082000D01*
X186346000Y-146082000D02*
X186346000Y-152082000D01*
X141166000Y-143024929D02*
X141166000Y-143422000D01*
X115766000Y-152082000D02*
X115006000Y-152082000D01*
X142946000Y-152082000D02*
X142946000Y-146082000D01*
X132786000Y-140484929D02*
X132786000Y-140939071D01*
X186886000Y-152082000D02*
X186126000Y-152082000D01*
X130246000Y-143024929D02*
X130246000Y-143422000D01*
X117546000Y-152082000D02*
X117546000Y-146082000D01*
X142056000Y-143422000D02*
X142056000Y-146082000D01*
X106436000Y-146082000D02*
X187836000Y-146082000D01*
X169106000Y-143024929D02*
X169106000Y-143422000D01*
X179266000Y-152082000D02*
X178506000Y-152082000D01*
X122626000Y-152082000D02*
X122626000Y-146082000D01*
X125926000Y-143024929D02*
X125926000Y-143422000D01*
X176726000Y-143024929D02*
X176726000Y-143422000D01*
X187836000Y-143422000D02*
X106436000Y-143422000D01*
X183586000Y-152082000D02*
X183586000Y-146082000D01*
X150566000Y-140484929D02*
X150566000Y-140939071D01*
X123386000Y-152082000D02*
X122626000Y-152082000D01*
X159836000Y-143422000D02*
X159836000Y-146082000D01*
X145486000Y-143024929D02*
X145486000Y-143422000D01*
X138626000Y-140484929D02*
X138626000Y-140939071D01*
X113226000Y-140484929D02*
X113226000Y-140939071D01*
X108146000Y-143024929D02*
X108146000Y-143422000D01*
X153106000Y-152082000D02*
X153106000Y-146082000D01*
X169996000Y-143422000D02*
X169996000Y-146082000D01*
X149676000Y-143422000D02*
X149676000Y-146082000D01*
X133546000Y-146082000D02*
X133546000Y-152082000D01*
X166566000Y-152082000D02*
X165806000Y-152082000D01*
X156406000Y-143024929D02*
X156406000Y-143422000D01*
X160726000Y-143024929D02*
X160726000Y-143422000D01*
X125166000Y-152082000D02*
X125166000Y-146082000D01*
X160726000Y-140484929D02*
X160726000Y-140939071D01*
X181806000Y-143024929D02*
X181806000Y-143422000D01*
X166566000Y-140484929D02*
X166566000Y-140939071D01*
X146246000Y-140484929D02*
X146246000Y-140939071D01*
X156406000Y-146082000D02*
X156406000Y-152082000D01*
X181046000Y-152082000D02*
X181046000Y-146082000D01*
X161486000Y-143024929D02*
X161486000Y-143422000D01*
X186706000Y-146082000D02*
X186706000Y-152082000D01*
X170886000Y-140484929D02*
X170886000Y-140939071D01*
X169106000Y-140484929D02*
X169106000Y-140939071D01*
X135326000Y-152082000D02*
X135326000Y-146082000D01*
X142946000Y-140484929D02*
X142946000Y-140939071D01*
X170886000Y-143024929D02*
X170886000Y-143422000D01*
X183586000Y-143024929D02*
X183586000Y-143422000D01*
X186126000Y-140552000D02*
X186126000Y-140939071D01*
X148786000Y-143024929D02*
X148786000Y-143422000D01*
X186126000Y-143024929D02*
X186126000Y-143422000D01*
X121736000Y-143422000D02*
X121736000Y-146082000D01*
X176726000Y-152082000D02*
X175966000Y-152082000D01*
X142946000Y-143024929D02*
X142946000Y-143422000D01*
X186886000Y-143024929D02*
X186886000Y-143422000D01*
X150566000Y-143024929D02*
X150566000Y-143422000D01*
X108146000Y-152082000D02*
X107386000Y-152082000D01*
X164026000Y-143024929D02*
X164026000Y-143422000D01*
X115766000Y-143024929D02*
X115766000Y-143422000D01*
X128466000Y-140484929D02*
X128466000Y-140939071D01*
X120846000Y-146082000D02*
X120846000Y-152082000D01*
X117546000Y-143024929D02*
X117546000Y-143422000D01*
X175966000Y-143024929D02*
X175966000Y-143422000D01*
X126816000Y-143422000D02*
X126816000Y-146082000D01*
X120846000Y-152082000D02*
X120086000Y-152082000D01*
X177616000Y-143422000D02*
X177616000Y-146082000D01*
X158946000Y-152082000D02*
X158186000Y-152082000D01*
X161486000Y-152082000D02*
X160726000Y-152082000D01*
X141166000Y-140484929D02*
X141166000Y-140939071D01*
X148786000Y-140484929D02*
X148786000Y-140939071D01*
X153866000Y-143024929D02*
X153866000Y-143422000D01*
X160726000Y-152082000D02*
X160726000Y-146082000D01*
X153106000Y-143024929D02*
X153106000Y-143422000D01*
X133546000Y-143024929D02*
X133546000Y-143422000D01*
X183586000Y-140484929D02*
X183586000Y-140939071D01*
X141166000Y-152082000D02*
X140406000Y-152082000D01*
X123386000Y-140484929D02*
X123386000Y-140939071D01*
X148786000Y-152082000D02*
X148026000Y-152082000D01*
X164916000Y-143422000D02*
X164916000Y-146082000D01*
X135326000Y-143024929D02*
X135326000Y-143422000D01*
X173426000Y-152082000D02*
X173426000Y-146082000D01*
X112466000Y-140484929D02*
X112466000Y-140939071D01*
X173426000Y-140484929D02*
X173426000Y-140939071D01*
X186886000Y-146082000D02*
X186886000Y-152082000D01*
X167456000Y-143422000D02*
X167456000Y-146082000D01*
X138626000Y-143024929D02*
X138626000Y-143422000D01*
X178506000Y-152082000D02*
X178506000Y-146082000D01*
X168346000Y-140484929D02*
X168346000Y-140939071D01*
X137866000Y-143024929D02*
X137866000Y-143422000D01*
X165806000Y-152082000D02*
X165806000Y-146082000D01*
X174186000Y-140484929D02*
X174186000Y-140939071D01*
X110686000Y-146082000D02*
X110686000Y-152082000D01*
X127706000Y-152082000D02*
X127706000Y-146082000D01*
X143706000Y-152082000D02*
X142946000Y-152082000D01*
X120846000Y-140484929D02*
X120846000Y-140939071D01*
X166566000Y-146082000D02*
X166566000Y-152082000D01*
X179266000Y-140484929D02*
X179266000Y-140939071D01*
X128466000Y-143024929D02*
X128466000Y-143422000D01*
X136976000Y-143422000D02*
X136976000Y-146082000D01*
X170886000Y-152082000D02*
X170886000Y-146082000D01*
X186226000Y-146082000D02*
X186226000Y-152082000D01*
X163266000Y-140484929D02*
X163266000Y-140939071D01*
X179266000Y-143024929D02*
X179266000Y-143422000D01*
X144596000Y-143422000D02*
X144596000Y-146082000D01*
X107386000Y-152082000D02*
X107386000Y-146082000D01*
X133546000Y-152082000D02*
X132786000Y-152082000D01*
X154756000Y-143422000D02*
X154756000Y-146082000D01*
X143706000Y-143024929D02*
X143706000Y-143422000D01*
X135326000Y-140484929D02*
X135326000Y-140939071D01*
X139516000Y-143422000D02*
X139516000Y-146082000D01*
X171646000Y-143024929D02*
X171646000Y-143422000D01*
X107386000Y-143024929D02*
X107386000Y-143422000D01*
X165806000Y-143024929D02*
X165806000Y-143422000D01*
X112466000Y-143024929D02*
X112466000Y-143422000D01*
X120086000Y-143024929D02*
X120086000Y-143422000D01*
X109036000Y-143422000D02*
X109036000Y-146082000D01*
X151326000Y-140484929D02*
X151326000Y-140939071D01*
X184346000Y-152082000D02*
X183586000Y-152082000D01*
X176726000Y-146082000D02*
X176726000Y-152082000D01*
X108146000Y-140484929D02*
X108146000Y-140939071D01*
X127706000Y-143024929D02*
X127706000Y-143422000D01*
X180156000Y-143422000D02*
X180156000Y-146082000D01*
X124276000Y-143422000D02*
X124276000Y-146082000D01*
X158186000Y-152082000D02*
X158186000Y-146082000D01*
X148026000Y-152082000D02*
X148026000Y-146082000D01*
X140406000Y-152082000D02*
X140406000Y-146082000D01*
X115766000Y-146082000D02*
X115766000Y-152082000D01*
X116656000Y-143422000D02*
X116656000Y-146082000D01*
X115006000Y-152082000D02*
X115006000Y-146082000D01*
X184346000Y-140484929D02*
X184346000Y-140939071D01*
X153106000Y-140484929D02*
X153106000Y-140939071D01*
X181046000Y-143024929D02*
X181046000Y-143422000D01*
X122626000Y-140484929D02*
X122626000Y-140939071D01*
X158186000Y-140484929D02*
X158186000Y-140939071D01*
X128466000Y-152082000D02*
X127706000Y-152082000D01*
X132786000Y-152082000D02*
X132786000Y-146082000D01*
X181046000Y-140484929D02*
X181046000Y-140939071D01*
X120846000Y-143024929D02*
X120846000Y-143422000D01*
X148026000Y-140484929D02*
X148026000Y-140939071D01*
X179266000Y-146082000D02*
X179266000Y-152082000D01*
X165806000Y-140484929D02*
X165806000Y-140939071D01*
X125926000Y-152082000D02*
X125166000Y-152082000D01*
X181806000Y-140484929D02*
X181806000Y-140939071D01*
X140406000Y-140484929D02*
X140406000Y-140939071D01*
X178506000Y-140484929D02*
X178506000Y-140939071D01*
X145486000Y-152082000D02*
X145486000Y-146082000D01*
X187776000Y-138172000D02*
X187776000Y-139442000D01*
X137866000Y-152082000D02*
X137866000Y-146082000D01*
X109926000Y-152082000D02*
X109926000Y-146082000D01*
X145486000Y-140484929D02*
X145486000Y-140939071D01*
X151326000Y-152082000D02*
X150566000Y-152082000D01*
X115766000Y-140484929D02*
X115766000Y-140939071D01*
X119196000Y-143422000D02*
X119196000Y-146082000D01*
X110686000Y-140484929D02*
X110686000Y-140939071D01*
X178506000Y-143024929D02*
X178506000Y-143422000D01*
X147136000Y-143422000D02*
X147136000Y-146082000D01*
X156406000Y-152082000D02*
X155646000Y-152082000D01*
X133546000Y-140484929D02*
X133546000Y-140939071D01*
X125926000Y-146082000D02*
X125926000Y-152082000D01*
X171646000Y-146082000D02*
X171646000Y-152082000D01*
X155646000Y-140484929D02*
X155646000Y-140939071D01*
X136086000Y-143024929D02*
X136086000Y-143422000D01*
X136086000Y-146082000D02*
X136086000Y-152082000D01*
X113226000Y-146082000D02*
X113226000Y-152082000D01*
X174186000Y-143024929D02*
X174186000Y-143422000D01*
X184346000Y-146082000D02*
X184346000Y-152082000D01*
X181806000Y-146082000D02*
X181806000Y-152082000D01*
X137866000Y-140484929D02*
X137866000Y-140939071D01*
X125166000Y-140484929D02*
X125166000Y-140939071D01*
X115006000Y-140484929D02*
X115006000Y-140939071D01*
X168346000Y-143024929D02*
X168346000Y-143422000D01*
X169106000Y-146082000D02*
X169106000Y-152082000D01*
X146246000Y-146082000D02*
X146246000Y-152082000D01*
X110686000Y-143024929D02*
X110686000Y-143422000D01*
X134436000Y-143422000D02*
X134436000Y-146082000D01*
X123386000Y-146082000D02*
X123386000Y-152082000D01*
X171646000Y-152082000D02*
X170886000Y-152082000D01*
X186466000Y-146082000D02*
X186466000Y-152082000D01*
X138626000Y-152082000D02*
X137866000Y-152082000D01*
X127706000Y-140484929D02*
X127706000Y-140939071D01*
X155646000Y-152082000D02*
X155646000Y-146082000D01*
X163266000Y-143024929D02*
X163266000Y-143422000D01*
X175966000Y-140484929D02*
X175966000Y-140939071D01*
X152216000Y-143422000D02*
X152216000Y-146082000D01*
X136086000Y-152082000D02*
X135326000Y-152082000D01*
X175966000Y-152082000D02*
X175966000Y-146082000D01*
X148786000Y-146082000D02*
X148786000Y-152082000D01*
X168346000Y-152082000D02*
X168346000Y-146082000D01*
X108146000Y-146082000D02*
X108146000Y-152082000D01*
X114116000Y-143422000D02*
X114116000Y-146082000D01*
X153866000Y-140484929D02*
X153866000Y-140939071D01*
X118306000Y-152082000D02*
X117546000Y-152082000D01*
X118306000Y-146082000D02*
X118306000Y-152082000D01*
X186886000Y-140552000D02*
X186886000Y-140939071D01*
X143706000Y-140484929D02*
X143706000Y-140939071D01*
X153866000Y-152082000D02*
X153106000Y-152082000D01*
X107386000Y-140484929D02*
X107386000Y-140939071D01*
X118306000Y-143024929D02*
X118306000Y-143422000D01*
X175076000Y-143422000D02*
X175076000Y-146082000D01*
X155646000Y-143024929D02*
X155646000Y-143422000D01*
X140406000Y-143024929D02*
X140406000Y-143422000D01*
X131006000Y-152082000D02*
X130246000Y-152082000D01*
X122626000Y-143024929D02*
X122626000Y-143422000D01*
X113226000Y-143024929D02*
X113226000Y-143422000D01*
X186126000Y-152082000D02*
X186126000Y-146082000D01*
X171646000Y-140484929D02*
X171646000Y-140939071D01*
X120086000Y-140484929D02*
X120086000Y-140939071D01*
X187836000Y-146082000D02*
X187836000Y-143422000D01*
X158186000Y-143024929D02*
X158186000Y-143422000D01*
X113226000Y-152082000D02*
X112466000Y-152082000D01*
X106436000Y-143422000D02*
X106436000Y-146082000D01*
X181806000Y-152082000D02*
X181046000Y-152082000D01*
X131006000Y-140484929D02*
X131006000Y-140939071D01*
%TO.C,D18*%
X107655000Y-61405000D02*
X107655000Y-61561000D01*
X107655000Y-59089000D02*
X107655000Y-59245000D01*
X108174039Y-61405000D02*
G75*
G03*
X110256130Y-61404837I1040961J1080000D01*
G01*
X110887335Y-59246392D02*
G75*
G03*
X107655000Y-59089484I-1672335J-1078608D01*
G01*
X107655000Y-61560516D02*
G75*
G03*
X110887335Y-61403608I1560000J1235516D01*
G01*
X110256130Y-59245163D02*
G75*
G03*
X108174039Y-59245000I-1041130J-1079837D01*
G01*
%TO.C,D17*%
X112735000Y-61405000D02*
X112735000Y-61561000D01*
X112735000Y-59089000D02*
X112735000Y-59245000D01*
X113254039Y-61405000D02*
G75*
G03*
X115336130Y-61404837I1040961J1080000D01*
G01*
X115967335Y-59246392D02*
G75*
G03*
X112735000Y-59089484I-1672335J-1078608D01*
G01*
X112735000Y-61560516D02*
G75*
G03*
X115967335Y-61403608I1560000J1235516D01*
G01*
X115336130Y-59245163D02*
G75*
G03*
X113254039Y-59245000I-1041130J-1079837D01*
G01*
%TO.C,D16*%
X117815000Y-61405000D02*
X117815000Y-61561000D01*
X117815000Y-59089000D02*
X117815000Y-59245000D01*
X118334039Y-61405000D02*
G75*
G03*
X120416130Y-61404837I1040961J1080000D01*
G01*
X121047335Y-59246392D02*
G75*
G03*
X117815000Y-59089484I-1672335J-1078608D01*
G01*
X117815000Y-61560516D02*
G75*
G03*
X121047335Y-61403608I1560000J1235516D01*
G01*
X120416130Y-59245163D02*
G75*
G03*
X118334039Y-59245000I-1041130J-1079837D01*
G01*
%TO.C,D15*%
X122895000Y-61405000D02*
X122895000Y-61561000D01*
X122895000Y-59089000D02*
X122895000Y-59245000D01*
X123414039Y-61405000D02*
G75*
G03*
X125496130Y-61404837I1040961J1080000D01*
G01*
X126127335Y-59246392D02*
G75*
G03*
X122895000Y-59089484I-1672335J-1078608D01*
G01*
X122895000Y-61560516D02*
G75*
G03*
X126127335Y-61403608I1560000J1235516D01*
G01*
X125496130Y-59245163D02*
G75*
G03*
X123414039Y-59245000I-1041130J-1079837D01*
G01*
%TO.C,D14*%
X127975000Y-61405000D02*
X127975000Y-61561000D01*
X127975000Y-59089000D02*
X127975000Y-59245000D01*
X128494039Y-61405000D02*
G75*
G03*
X130576130Y-61404837I1040961J1080000D01*
G01*
X131207335Y-59246392D02*
G75*
G03*
X127975000Y-59089484I-1672335J-1078608D01*
G01*
X127975000Y-61560516D02*
G75*
G03*
X131207335Y-61403608I1560000J1235516D01*
G01*
X130576130Y-59245163D02*
G75*
G03*
X128494039Y-59245000I-1041130J-1079837D01*
G01*
%TO.C,D13*%
X133055000Y-61405000D02*
X133055000Y-61561000D01*
X133055000Y-59089000D02*
X133055000Y-59245000D01*
X133574039Y-61405000D02*
G75*
G03*
X135656130Y-61404837I1040961J1080000D01*
G01*
X136287335Y-59246392D02*
G75*
G03*
X133055000Y-59089484I-1672335J-1078608D01*
G01*
X133055000Y-61560516D02*
G75*
G03*
X136287335Y-61403608I1560000J1235516D01*
G01*
X135656130Y-59245163D02*
G75*
G03*
X133574039Y-59245000I-1041130J-1079837D01*
G01*
%TO.C,D12*%
X138135000Y-61405000D02*
X138135000Y-61561000D01*
X138135000Y-59089000D02*
X138135000Y-59245000D01*
X138654039Y-61405000D02*
G75*
G03*
X140736130Y-61404837I1040961J1080000D01*
G01*
X141367335Y-59246392D02*
G75*
G03*
X138135000Y-59089484I-1672335J-1078608D01*
G01*
X138135000Y-61560516D02*
G75*
G03*
X141367335Y-61403608I1560000J1235516D01*
G01*
X140736130Y-59245163D02*
G75*
G03*
X138654039Y-59245000I-1041130J-1079837D01*
G01*
%TO.C,D11*%
X143215000Y-61405000D02*
X143215000Y-61561000D01*
X143215000Y-59089000D02*
X143215000Y-59245000D01*
X143734039Y-61405000D02*
G75*
G03*
X145816130Y-61404837I1040961J1080000D01*
G01*
X146447335Y-59246392D02*
G75*
G03*
X143215000Y-59089484I-1672335J-1078608D01*
G01*
X143215000Y-61560516D02*
G75*
G03*
X146447335Y-61403608I1560000J1235516D01*
G01*
X145816130Y-59245163D02*
G75*
G03*
X143734039Y-59245000I-1041130J-1079837D01*
G01*
%TO.C,D10*%
X148295000Y-61405000D02*
X148295000Y-61561000D01*
X148295000Y-59089000D02*
X148295000Y-59245000D01*
X148814039Y-61405000D02*
G75*
G03*
X150896130Y-61404837I1040961J1080000D01*
G01*
X151527335Y-59246392D02*
G75*
G03*
X148295000Y-59089484I-1672335J-1078608D01*
G01*
X148295000Y-61560516D02*
G75*
G03*
X151527335Y-61403608I1560000J1235516D01*
G01*
X150896130Y-59245163D02*
G75*
G03*
X148814039Y-59245000I-1041130J-1079837D01*
G01*
%TO.C,D9*%
X153375000Y-61405000D02*
X153375000Y-61561000D01*
X153375000Y-59089000D02*
X153375000Y-59245000D01*
X153894039Y-61405000D02*
G75*
G03*
X155976130Y-61404837I1040961J1080000D01*
G01*
X156607335Y-59246392D02*
G75*
G03*
X153375000Y-59089484I-1672335J-1078608D01*
G01*
X153375000Y-61560516D02*
G75*
G03*
X156607335Y-61403608I1560000J1235516D01*
G01*
X155976130Y-59245163D02*
G75*
G03*
X153894039Y-59245000I-1041130J-1079837D01*
G01*
%TO.C,D8*%
X158455000Y-61405000D02*
X158455000Y-61561000D01*
X158455000Y-59089000D02*
X158455000Y-59245000D01*
X158974039Y-61405000D02*
G75*
G03*
X161056130Y-61404837I1040961J1080000D01*
G01*
X161687335Y-59246392D02*
G75*
G03*
X158455000Y-59089484I-1672335J-1078608D01*
G01*
X158455000Y-61560516D02*
G75*
G03*
X161687335Y-61403608I1560000J1235516D01*
G01*
X161056130Y-59245163D02*
G75*
G03*
X158974039Y-59245000I-1041130J-1079837D01*
G01*
%TO.C,D7*%
X163535000Y-61405000D02*
X163535000Y-61561000D01*
X163535000Y-59089000D02*
X163535000Y-59245000D01*
X164054039Y-61405000D02*
G75*
G03*
X166136130Y-61404837I1040961J1080000D01*
G01*
X166767335Y-59246392D02*
G75*
G03*
X163535000Y-59089484I-1672335J-1078608D01*
G01*
X163535000Y-61560516D02*
G75*
G03*
X166767335Y-61403608I1560000J1235516D01*
G01*
X166136130Y-59245163D02*
G75*
G03*
X164054039Y-59245000I-1041130J-1079837D01*
G01*
%TO.C,D6*%
X168615000Y-61405000D02*
X168615000Y-61561000D01*
X168615000Y-59089000D02*
X168615000Y-59245000D01*
X169134039Y-61405000D02*
G75*
G03*
X171216130Y-61404837I1040961J1080000D01*
G01*
X171847335Y-59246392D02*
G75*
G03*
X168615000Y-59089484I-1672335J-1078608D01*
G01*
X168615000Y-61560516D02*
G75*
G03*
X171847335Y-61403608I1560000J1235516D01*
G01*
X171216130Y-59245163D02*
G75*
G03*
X169134039Y-59245000I-1041130J-1079837D01*
G01*
%TO.C,D5*%
X173695000Y-61405000D02*
X173695000Y-61561000D01*
X173695000Y-59089000D02*
X173695000Y-59245000D01*
X174214039Y-61405000D02*
G75*
G03*
X176296130Y-61404837I1040961J1080000D01*
G01*
X176927335Y-59246392D02*
G75*
G03*
X173695000Y-59089484I-1672335J-1078608D01*
G01*
X173695000Y-61560516D02*
G75*
G03*
X176927335Y-61403608I1560000J1235516D01*
G01*
X176296130Y-59245163D02*
G75*
G03*
X174214039Y-59245000I-1041130J-1079837D01*
G01*
%TO.C,D4*%
X178775000Y-61405000D02*
X178775000Y-61561000D01*
X178775000Y-59089000D02*
X178775000Y-59245000D01*
X179294039Y-61405000D02*
G75*
G03*
X181376130Y-61404837I1040961J1080000D01*
G01*
X182007335Y-59246392D02*
G75*
G03*
X178775000Y-59089484I-1672335J-1078608D01*
G01*
X178775000Y-61560516D02*
G75*
G03*
X182007335Y-61403608I1560000J1235516D01*
G01*
X181376130Y-59245163D02*
G75*
G03*
X179294039Y-59245000I-1041130J-1079837D01*
G01*
%TO.C,D3*%
X183855000Y-61405000D02*
X183855000Y-61561000D01*
X183855000Y-59089000D02*
X183855000Y-59245000D01*
X184374039Y-61405000D02*
G75*
G03*
X186456130Y-61404837I1040961J1080000D01*
G01*
X187087335Y-59246392D02*
G75*
G03*
X183855000Y-59089484I-1672335J-1078608D01*
G01*
X183855000Y-61560516D02*
G75*
G03*
X187087335Y-61403608I1560000J1235516D01*
G01*
X186456130Y-59245163D02*
G75*
G03*
X184374039Y-59245000I-1041130J-1079837D01*
G01*
%TO.C,C3*%
X133885000Y-99145000D02*
X133885000Y-102785000D01*
X131545000Y-99145000D02*
X131545000Y-102785000D01*
X131790000Y-99145000D02*
X131545000Y-99145000D01*
X131790000Y-102785000D02*
X131545000Y-102785000D01*
X133885000Y-102785000D02*
X133640000Y-102785000D01*
X133885000Y-99145000D02*
X133640000Y-99145000D01*
%TO.C,C2*%
X100865000Y-99145000D02*
X100620000Y-99145000D01*
X100865000Y-102785000D02*
X100620000Y-102785000D01*
X98770000Y-102785000D02*
X98525000Y-102785000D01*
X98770000Y-99145000D02*
X98525000Y-99145000D01*
X98525000Y-99145000D02*
X98525000Y-102785000D01*
X100865000Y-99145000D02*
X100865000Y-102785000D01*
%TO.C,C1*%
X166905000Y-99145000D02*
X166660000Y-99145000D01*
X166905000Y-102785000D02*
X166660000Y-102785000D01*
X164810000Y-102785000D02*
X164565000Y-102785000D01*
X164810000Y-99145000D02*
X164565000Y-99145000D01*
X164565000Y-99145000D02*
X164565000Y-102785000D01*
X166905000Y-99145000D02*
X166905000Y-102785000D01*
%TD*%
M02*
