%TF.GenerationSoftware,KiCad,Pcbnew,(6.0.9)*%
%TF.CreationDate,2022-11-21T20:51:05-08:00*%
%TF.ProjectId,StatusBoard,53746174-7573-4426-9f61-72642e6b6963,rev?*%
%TF.SameCoordinates,Original*%
%TF.FileFunction,Drillmap*%
%TF.FilePolarity,Positive*%
%FSLAX45Y45*%
G04 Gerber Fmt 4.5, Leading zero omitted, Abs format (unit mm)*
G04 Created by KiCad (PCBNEW (6.0.9)) date 2022-11-21 20:51:05*
%MOMM*%
%LPD*%
G01*
G04 APERTURE LIST*
%ADD10C,0.100000*%
%ADD11C,0.200000*%
%ADD12C,0.040000*%
%ADD13C,0.080000*%
%ADD14C,0.090000*%
G04 APERTURE END LIST*
D10*
X19450200Y-14608200D02*
G75*
G03*
X19704200Y-14354200I0J254000D01*
G01*
X9976000Y-14608200D02*
X19450200Y-14608200D01*
X19704200Y-4880000D02*
G75*
G03*
X19450200Y-4626000I-254000J0D01*
G01*
X19450200Y-4626000D02*
X9976000Y-4626000D01*
X9722000Y-14354200D02*
G75*
G03*
X9976000Y-14608200I254000J0D01*
G01*
X19704200Y-14354200D02*
X19704200Y-4880000D01*
X9976000Y-4626000D02*
G75*
G03*
X9722000Y-4880000I0J-254000D01*
G01*
X9722000Y-4880000D02*
X9722000Y-14354200D01*
D11*
D12*
X12678800Y-13707300D02*
X12718800Y-13747300D01*
X12718800Y-13707300D02*
X12678800Y-13747300D01*
X12857570Y-13779840D02*
X12897570Y-13819840D01*
X12897570Y-13779840D02*
X12857570Y-13819840D01*
D13*
X10009500Y-9971500D02*
G75*
G03*
X10009500Y-9971500I-40000J0D01*
G01*
X10009500Y-10221500D02*
G75*
G03*
X10009500Y-10221500I-40000J0D01*
G01*
X10454500Y-9714500D02*
G75*
G03*
X10454500Y-9714500I-40000J0D01*
G01*
X10454500Y-10476500D02*
G75*
G03*
X10454500Y-10476500I-40000J0D01*
G01*
X10708500Y-9714500D02*
G75*
G03*
X10708500Y-9714500I-40000J0D01*
G01*
X10708500Y-10476500D02*
G75*
G03*
X10708500Y-10476500I-40000J0D01*
G01*
X10961500Y-6540500D02*
G75*
G03*
X10961500Y-6540500I-40000J0D01*
G01*
X10961500Y-7302500D02*
G75*
G03*
X10961500Y-7302500I-40000J0D01*
G01*
X10962500Y-9714500D02*
G75*
G03*
X10962500Y-9714500I-40000J0D01*
G01*
X10962500Y-10476500D02*
G75*
G03*
X10962500Y-10476500I-40000J0D01*
G01*
X11216500Y-9714500D02*
G75*
G03*
X11216500Y-9714500I-40000J0D01*
G01*
X11216500Y-10476500D02*
G75*
G03*
X11216500Y-10476500I-40000J0D01*
G01*
X11279500Y-9017000D02*
G75*
G03*
X11279500Y-9017000I-40000J0D01*
G01*
X11469500Y-6540500D02*
G75*
G03*
X11469500Y-6540500I-40000J0D01*
G01*
X11469500Y-7302500D02*
G75*
G03*
X11469500Y-7302500I-40000J0D01*
G01*
X11470500Y-9714500D02*
G75*
G03*
X11470500Y-9714500I-40000J0D01*
G01*
X11470500Y-10476500D02*
G75*
G03*
X11470500Y-10476500I-40000J0D01*
G01*
X11724500Y-9714500D02*
G75*
G03*
X11724500Y-9714500I-40000J0D01*
G01*
X11724500Y-10476500D02*
G75*
G03*
X11724500Y-10476500I-40000J0D01*
G01*
X11977500Y-6540500D02*
G75*
G03*
X11977500Y-6540500I-40000J0D01*
G01*
X11977500Y-7302500D02*
G75*
G03*
X11977500Y-7302500I-40000J0D01*
G01*
X11978500Y-9714500D02*
G75*
G03*
X11978500Y-9714500I-40000J0D01*
G01*
X11978500Y-10476500D02*
G75*
G03*
X11978500Y-10476500I-40000J0D01*
G01*
X12041500Y-9017000D02*
G75*
G03*
X12041500Y-9017000I-40000J0D01*
G01*
X12232500Y-9714500D02*
G75*
G03*
X12232500Y-9714500I-40000J0D01*
G01*
X12232500Y-10476500D02*
G75*
G03*
X12232500Y-10476500I-40000J0D01*
G01*
X12485500Y-6540500D02*
G75*
G03*
X12485500Y-6540500I-40000J0D01*
G01*
X12485500Y-7302500D02*
G75*
G03*
X12485500Y-7302500I-40000J0D01*
G01*
X12486500Y-9714500D02*
G75*
G03*
X12486500Y-9714500I-40000J0D01*
G01*
X12486500Y-10476500D02*
G75*
G03*
X12486500Y-10476500I-40000J0D01*
G01*
X12740500Y-9714500D02*
G75*
G03*
X12740500Y-9714500I-40000J0D01*
G01*
X12740500Y-10476500D02*
G75*
G03*
X12740500Y-10476500I-40000J0D01*
G01*
X12993500Y-6540500D02*
G75*
G03*
X12993500Y-6540500I-40000J0D01*
G01*
X12993500Y-7302500D02*
G75*
G03*
X12993500Y-7302500I-40000J0D01*
G01*
X13311500Y-9971500D02*
G75*
G03*
X13311500Y-9971500I-40000J0D01*
G01*
X13311500Y-10221500D02*
G75*
G03*
X13311500Y-10221500I-40000J0D01*
G01*
X13501500Y-6540500D02*
G75*
G03*
X13501500Y-6540500I-40000J0D01*
G01*
X13501500Y-7302500D02*
G75*
G03*
X13501500Y-7302500I-40000J0D01*
G01*
X13756500Y-9714500D02*
G75*
G03*
X13756500Y-9714500I-40000J0D01*
G01*
X13756500Y-10476500D02*
G75*
G03*
X13756500Y-10476500I-40000J0D01*
G01*
X14009500Y-6540500D02*
G75*
G03*
X14009500Y-6540500I-40000J0D01*
G01*
X14009500Y-7302500D02*
G75*
G03*
X14009500Y-7302500I-40000J0D01*
G01*
X14010500Y-9714500D02*
G75*
G03*
X14010500Y-9714500I-40000J0D01*
G01*
X14010500Y-10476500D02*
G75*
G03*
X14010500Y-10476500I-40000J0D01*
G01*
X14264500Y-9714500D02*
G75*
G03*
X14264500Y-9714500I-40000J0D01*
G01*
X14264500Y-10476500D02*
G75*
G03*
X14264500Y-10476500I-40000J0D01*
G01*
X14517500Y-6540500D02*
G75*
G03*
X14517500Y-6540500I-40000J0D01*
G01*
X14517500Y-7302500D02*
G75*
G03*
X14517500Y-7302500I-40000J0D01*
G01*
X14518500Y-9714500D02*
G75*
G03*
X14518500Y-9714500I-40000J0D01*
G01*
X14518500Y-10476500D02*
G75*
G03*
X14518500Y-10476500I-40000J0D01*
G01*
X14581500Y-9017000D02*
G75*
G03*
X14581500Y-9017000I-40000J0D01*
G01*
X14772500Y-9714500D02*
G75*
G03*
X14772500Y-9714500I-40000J0D01*
G01*
X14772500Y-10476500D02*
G75*
G03*
X14772500Y-10476500I-40000J0D01*
G01*
X15025500Y-6540500D02*
G75*
G03*
X15025500Y-6540500I-40000J0D01*
G01*
X15025500Y-7302500D02*
G75*
G03*
X15025500Y-7302500I-40000J0D01*
G01*
X15026500Y-9714500D02*
G75*
G03*
X15026500Y-9714500I-40000J0D01*
G01*
X15026500Y-10476500D02*
G75*
G03*
X15026500Y-10476500I-40000J0D01*
G01*
X15280500Y-9714500D02*
G75*
G03*
X15280500Y-9714500I-40000J0D01*
G01*
X15280500Y-10476500D02*
G75*
G03*
X15280500Y-10476500I-40000J0D01*
G01*
X15343500Y-9017000D02*
G75*
G03*
X15343500Y-9017000I-40000J0D01*
G01*
X15533500Y-6540500D02*
G75*
G03*
X15533500Y-6540500I-40000J0D01*
G01*
X15533500Y-7302500D02*
G75*
G03*
X15533500Y-7302500I-40000J0D01*
G01*
X15534500Y-9714500D02*
G75*
G03*
X15534500Y-9714500I-40000J0D01*
G01*
X15534500Y-10476500D02*
G75*
G03*
X15534500Y-10476500I-40000J0D01*
G01*
X15788500Y-9714500D02*
G75*
G03*
X15788500Y-9714500I-40000J0D01*
G01*
X15788500Y-10476500D02*
G75*
G03*
X15788500Y-10476500I-40000J0D01*
G01*
X16041500Y-6540500D02*
G75*
G03*
X16041500Y-6540500I-40000J0D01*
G01*
X16041500Y-7302500D02*
G75*
G03*
X16041500Y-7302500I-40000J0D01*
G01*
X16042500Y-9714500D02*
G75*
G03*
X16042500Y-9714500I-40000J0D01*
G01*
X16042500Y-10476500D02*
G75*
G03*
X16042500Y-10476500I-40000J0D01*
G01*
X16549500Y-6540500D02*
G75*
G03*
X16549500Y-6540500I-40000J0D01*
G01*
X16549500Y-7302500D02*
G75*
G03*
X16549500Y-7302500I-40000J0D01*
G01*
X16613500Y-9971500D02*
G75*
G03*
X16613500Y-9971500I-40000J0D01*
G01*
X16613500Y-10221500D02*
G75*
G03*
X16613500Y-10221500I-40000J0D01*
G01*
X17057500Y-6540500D02*
G75*
G03*
X17057500Y-6540500I-40000J0D01*
G01*
X17057500Y-7302500D02*
G75*
G03*
X17057500Y-7302500I-40000J0D01*
G01*
X17058500Y-9714500D02*
G75*
G03*
X17058500Y-9714500I-40000J0D01*
G01*
X17058500Y-10476500D02*
G75*
G03*
X17058500Y-10476500I-40000J0D01*
G01*
X17312500Y-9714500D02*
G75*
G03*
X17312500Y-9714500I-40000J0D01*
G01*
X17312500Y-10476500D02*
G75*
G03*
X17312500Y-10476500I-40000J0D01*
G01*
X17565500Y-6540500D02*
G75*
G03*
X17565500Y-6540500I-40000J0D01*
G01*
X17565500Y-7302500D02*
G75*
G03*
X17565500Y-7302500I-40000J0D01*
G01*
X17566500Y-9714500D02*
G75*
G03*
X17566500Y-9714500I-40000J0D01*
G01*
X17566500Y-10476500D02*
G75*
G03*
X17566500Y-10476500I-40000J0D01*
G01*
X17820500Y-9714500D02*
G75*
G03*
X17820500Y-9714500I-40000J0D01*
G01*
X17820500Y-10476500D02*
G75*
G03*
X17820500Y-10476500I-40000J0D01*
G01*
X18073500Y-6540500D02*
G75*
G03*
X18073500Y-6540500I-40000J0D01*
G01*
X18073500Y-7302500D02*
G75*
G03*
X18073500Y-7302500I-40000J0D01*
G01*
X18074500Y-9714500D02*
G75*
G03*
X18074500Y-9714500I-40000J0D01*
G01*
X18074500Y-10476500D02*
G75*
G03*
X18074500Y-10476500I-40000J0D01*
G01*
X18328500Y-9714500D02*
G75*
G03*
X18328500Y-9714500I-40000J0D01*
G01*
X18328500Y-10476500D02*
G75*
G03*
X18328500Y-10476500I-40000J0D01*
G01*
X18581500Y-6540500D02*
G75*
G03*
X18581500Y-6540500I-40000J0D01*
G01*
X18581500Y-7302500D02*
G75*
G03*
X18581500Y-7302500I-40000J0D01*
G01*
X18582500Y-9714500D02*
G75*
G03*
X18582500Y-9714500I-40000J0D01*
G01*
X18582500Y-10476500D02*
G75*
G03*
X18582500Y-10476500I-40000J0D01*
G01*
X18836500Y-9714500D02*
G75*
G03*
X18836500Y-9714500I-40000J0D01*
G01*
X18836500Y-10476500D02*
G75*
G03*
X18836500Y-10476500I-40000J0D01*
G01*
X19090500Y-9714500D02*
G75*
G03*
X19090500Y-9714500I-40000J0D01*
G01*
X19090500Y-10476500D02*
G75*
G03*
X19090500Y-10476500I-40000J0D01*
G01*
X19344500Y-9714500D02*
G75*
G03*
X19344500Y-9714500I-40000J0D01*
G01*
X19344500Y-10476500D02*
G75*
G03*
X19344500Y-10476500I-40000J0D01*
G01*
D14*
X10794500Y-5987500D02*
X10794500Y-6077500D01*
X10749500Y-6032500D02*
X10839500Y-6032500D01*
X11048500Y-5987500D02*
X11048500Y-6077500D01*
X11003500Y-6032500D02*
X11093500Y-6032500D01*
X11302500Y-5987500D02*
X11302500Y-6077500D01*
X11257500Y-6032500D02*
X11347500Y-6032500D01*
X11556500Y-5987500D02*
X11556500Y-6077500D01*
X11511500Y-6032500D02*
X11601500Y-6032500D01*
X11810500Y-5987500D02*
X11810500Y-6077500D01*
X11765500Y-6032500D02*
X11855500Y-6032500D01*
X12064500Y-5987500D02*
X12064500Y-6077500D01*
X12019500Y-6032500D02*
X12109500Y-6032500D01*
X12318500Y-5987500D02*
X12318500Y-6077500D01*
X12273500Y-6032500D02*
X12363500Y-6032500D01*
X12572500Y-5987500D02*
X12572500Y-6077500D01*
X12527500Y-6032500D02*
X12617500Y-6032500D01*
X12826500Y-5987500D02*
X12826500Y-6077500D01*
X12781500Y-6032500D02*
X12871500Y-6032500D01*
X13080500Y-5987500D02*
X13080500Y-6077500D01*
X13035500Y-6032500D02*
X13125500Y-6032500D01*
X13334500Y-5987500D02*
X13334500Y-6077500D01*
X13289500Y-6032500D02*
X13379500Y-6032500D01*
X13588500Y-5987500D02*
X13588500Y-6077500D01*
X13543500Y-6032500D02*
X13633500Y-6032500D01*
X13842500Y-5987500D02*
X13842500Y-6077500D01*
X13797500Y-6032500D02*
X13887500Y-6032500D01*
X14096500Y-5987500D02*
X14096500Y-6077500D01*
X14051500Y-6032500D02*
X14141500Y-6032500D01*
X14350500Y-5987500D02*
X14350500Y-6077500D01*
X14305500Y-6032500D02*
X14395500Y-6032500D01*
X14604500Y-5987500D02*
X14604500Y-6077500D01*
X14559500Y-6032500D02*
X14649500Y-6032500D01*
X14858500Y-5987500D02*
X14858500Y-6077500D01*
X14813500Y-6032500D02*
X14903500Y-6032500D01*
X15112500Y-5987500D02*
X15112500Y-6077500D01*
X15067500Y-6032500D02*
X15157500Y-6032500D01*
X15366500Y-5987500D02*
X15366500Y-6077500D01*
X15321500Y-6032500D02*
X15411500Y-6032500D01*
X15620500Y-5987500D02*
X15620500Y-6077500D01*
X15575500Y-6032500D02*
X15665500Y-6032500D01*
X15874500Y-5987500D02*
X15874500Y-6077500D01*
X15829500Y-6032500D02*
X15919500Y-6032500D01*
X16128500Y-5987500D02*
X16128500Y-6077500D01*
X16083500Y-6032500D02*
X16173500Y-6032500D01*
X16382500Y-5987500D02*
X16382500Y-6077500D01*
X16337500Y-6032500D02*
X16427500Y-6032500D01*
X16636500Y-5987500D02*
X16636500Y-6077500D01*
X16591500Y-6032500D02*
X16681500Y-6032500D01*
X16890500Y-5987500D02*
X16890500Y-6077500D01*
X16845500Y-6032500D02*
X16935500Y-6032500D01*
X17144500Y-5987500D02*
X17144500Y-6077500D01*
X17099500Y-6032500D02*
X17189500Y-6032500D01*
X17398500Y-5987500D02*
X17398500Y-6077500D01*
X17353500Y-6032500D02*
X17443500Y-6032500D01*
X17652500Y-5987500D02*
X17652500Y-6077500D01*
X17607500Y-6032500D02*
X17697500Y-6032500D01*
X17906500Y-5987500D02*
X17906500Y-6077500D01*
X17861500Y-6032500D02*
X17951500Y-6032500D01*
X18160500Y-5987500D02*
X18160500Y-6077500D01*
X18115500Y-6032500D02*
X18205500Y-6032500D01*
X18414500Y-5987500D02*
X18414500Y-6077500D01*
X18369500Y-6032500D02*
X18459500Y-6032500D01*
X18668500Y-5987500D02*
X18668500Y-6077500D01*
X18623500Y-6032500D02*
X18713500Y-6032500D01*
D10*
X10811956Y-13979556D02*
X10811956Y-13908844D01*
X10741244Y-13908844D01*
X10741244Y-13979556D01*
X10811956Y-13979556D01*
X10811956Y-14233556D02*
X10811956Y-14162844D01*
X10741244Y-14162844D01*
X10741244Y-14233556D01*
X10811956Y-14233556D01*
X11065956Y-13979556D02*
X11065956Y-13908844D01*
X10995244Y-13908844D01*
X10995244Y-13979556D01*
X11065956Y-13979556D01*
X11065956Y-14233556D02*
X11065956Y-14162844D01*
X10995244Y-14162844D01*
X10995244Y-14233556D01*
X11065956Y-14233556D01*
X11319956Y-13979556D02*
X11319956Y-13908844D01*
X11249244Y-13908844D01*
X11249244Y-13979556D01*
X11319956Y-13979556D01*
X11319956Y-14233556D02*
X11319956Y-14162844D01*
X11249244Y-14162844D01*
X11249244Y-14233556D01*
X11319956Y-14233556D01*
X11573956Y-13979556D02*
X11573956Y-13908844D01*
X11503244Y-13908844D01*
X11503244Y-13979556D01*
X11573956Y-13979556D01*
X11573956Y-14233556D02*
X11573956Y-14162844D01*
X11503244Y-14162844D01*
X11503244Y-14233556D01*
X11573956Y-14233556D01*
X11827956Y-13979556D02*
X11827956Y-13908844D01*
X11757244Y-13908844D01*
X11757244Y-13979556D01*
X11827956Y-13979556D01*
X11827956Y-14233556D02*
X11827956Y-14162844D01*
X11757244Y-14162844D01*
X11757244Y-14233556D01*
X11827956Y-14233556D01*
X12081956Y-13979556D02*
X12081956Y-13908844D01*
X12011244Y-13908844D01*
X12011244Y-13979556D01*
X12081956Y-13979556D01*
X12081956Y-14233556D02*
X12081956Y-14162844D01*
X12011244Y-14162844D01*
X12011244Y-14233556D01*
X12081956Y-14233556D01*
X12335956Y-13979556D02*
X12335956Y-13908844D01*
X12265244Y-13908844D01*
X12265244Y-13979556D01*
X12335956Y-13979556D01*
X12335956Y-14233556D02*
X12335956Y-14162844D01*
X12265244Y-14162844D01*
X12265244Y-14233556D01*
X12335956Y-14233556D01*
X12589956Y-13979556D02*
X12589956Y-13908844D01*
X12519244Y-13908844D01*
X12519244Y-13979556D01*
X12589956Y-13979556D01*
X12589956Y-14233556D02*
X12589956Y-14162844D01*
X12519244Y-14162844D01*
X12519244Y-14233556D01*
X12589956Y-14233556D01*
X12843956Y-13979556D02*
X12843956Y-13908844D01*
X12773244Y-13908844D01*
X12773244Y-13979556D01*
X12843956Y-13979556D01*
X12843956Y-14233556D02*
X12843956Y-14162844D01*
X12773244Y-14162844D01*
X12773244Y-14233556D01*
X12843956Y-14233556D01*
X13097956Y-13979556D02*
X13097956Y-13908844D01*
X13027244Y-13908844D01*
X13027244Y-13979556D01*
X13097956Y-13979556D01*
X13097956Y-14233556D02*
X13097956Y-14162844D01*
X13027244Y-14162844D01*
X13027244Y-14233556D01*
X13097956Y-14233556D01*
X13351956Y-13979556D02*
X13351956Y-13908844D01*
X13281244Y-13908844D01*
X13281244Y-13979556D01*
X13351956Y-13979556D01*
X13351956Y-14233556D02*
X13351956Y-14162844D01*
X13281244Y-14162844D01*
X13281244Y-14233556D01*
X13351956Y-14233556D01*
X13605956Y-13979556D02*
X13605956Y-13908844D01*
X13535244Y-13908844D01*
X13535244Y-13979556D01*
X13605956Y-13979556D01*
X13605956Y-14233556D02*
X13605956Y-14162844D01*
X13535244Y-14162844D01*
X13535244Y-14233556D01*
X13605956Y-14233556D01*
X13859956Y-13979556D02*
X13859956Y-13908844D01*
X13789244Y-13908844D01*
X13789244Y-13979556D01*
X13859956Y-13979556D01*
X13859956Y-14233556D02*
X13859956Y-14162844D01*
X13789244Y-14162844D01*
X13789244Y-14233556D01*
X13859956Y-14233556D01*
X14113956Y-13979556D02*
X14113956Y-13908844D01*
X14043244Y-13908844D01*
X14043244Y-13979556D01*
X14113956Y-13979556D01*
X14113956Y-14233556D02*
X14113956Y-14162844D01*
X14043244Y-14162844D01*
X14043244Y-14233556D01*
X14113956Y-14233556D01*
X14367956Y-13979556D02*
X14367956Y-13908844D01*
X14297244Y-13908844D01*
X14297244Y-13979556D01*
X14367956Y-13979556D01*
X14367956Y-14233556D02*
X14367956Y-14162844D01*
X14297244Y-14162844D01*
X14297244Y-14233556D01*
X14367956Y-14233556D01*
X14621956Y-13979556D02*
X14621956Y-13908844D01*
X14551244Y-13908844D01*
X14551244Y-13979556D01*
X14621956Y-13979556D01*
X14621956Y-14233556D02*
X14621956Y-14162844D01*
X14551244Y-14162844D01*
X14551244Y-14233556D01*
X14621956Y-14233556D01*
X14875956Y-13979556D02*
X14875956Y-13908844D01*
X14805244Y-13908844D01*
X14805244Y-13979556D01*
X14875956Y-13979556D01*
X14875956Y-14233556D02*
X14875956Y-14162844D01*
X14805244Y-14162844D01*
X14805244Y-14233556D01*
X14875956Y-14233556D01*
X15129956Y-13979556D02*
X15129956Y-13908844D01*
X15059244Y-13908844D01*
X15059244Y-13979556D01*
X15129956Y-13979556D01*
X15129956Y-14233556D02*
X15129956Y-14162844D01*
X15059244Y-14162844D01*
X15059244Y-14233556D01*
X15129956Y-14233556D01*
X15383956Y-13979556D02*
X15383956Y-13908844D01*
X15313244Y-13908844D01*
X15313244Y-13979556D01*
X15383956Y-13979556D01*
X15383956Y-14233556D02*
X15383956Y-14162844D01*
X15313244Y-14162844D01*
X15313244Y-14233556D01*
X15383956Y-14233556D01*
X15637956Y-13979556D02*
X15637956Y-13908844D01*
X15567244Y-13908844D01*
X15567244Y-13979556D01*
X15637956Y-13979556D01*
X15637956Y-14233556D02*
X15637956Y-14162844D01*
X15567244Y-14162844D01*
X15567244Y-14233556D01*
X15637956Y-14233556D01*
X15891956Y-13979556D02*
X15891956Y-13908844D01*
X15821244Y-13908844D01*
X15821244Y-13979556D01*
X15891956Y-13979556D01*
X15891956Y-14233556D02*
X15891956Y-14162844D01*
X15821244Y-14162844D01*
X15821244Y-14233556D01*
X15891956Y-14233556D01*
X16145956Y-13979556D02*
X16145956Y-13908844D01*
X16075244Y-13908844D01*
X16075244Y-13979556D01*
X16145956Y-13979556D01*
X16145956Y-14233556D02*
X16145956Y-14162844D01*
X16075244Y-14162844D01*
X16075244Y-14233556D01*
X16145956Y-14233556D01*
X16399956Y-13979556D02*
X16399956Y-13908844D01*
X16329244Y-13908844D01*
X16329244Y-13979556D01*
X16399956Y-13979556D01*
X16399956Y-14233556D02*
X16399956Y-14162844D01*
X16329244Y-14162844D01*
X16329244Y-14233556D01*
X16399956Y-14233556D01*
X16653956Y-13979556D02*
X16653956Y-13908844D01*
X16583244Y-13908844D01*
X16583244Y-13979556D01*
X16653956Y-13979556D01*
X16653956Y-14233556D02*
X16653956Y-14162844D01*
X16583244Y-14162844D01*
X16583244Y-14233556D01*
X16653956Y-14233556D01*
X16907956Y-13979556D02*
X16907956Y-13908844D01*
X16837244Y-13908844D01*
X16837244Y-13979556D01*
X16907956Y-13979556D01*
X16907956Y-14233556D02*
X16907956Y-14162844D01*
X16837244Y-14162844D01*
X16837244Y-14233556D01*
X16907956Y-14233556D01*
X17161956Y-13979556D02*
X17161956Y-13908844D01*
X17091244Y-13908844D01*
X17091244Y-13979556D01*
X17161956Y-13979556D01*
X17161956Y-14233556D02*
X17161956Y-14162844D01*
X17091244Y-14162844D01*
X17091244Y-14233556D01*
X17161956Y-14233556D01*
X17415956Y-13979556D02*
X17415956Y-13908844D01*
X17345244Y-13908844D01*
X17345244Y-13979556D01*
X17415956Y-13979556D01*
X17415956Y-14233556D02*
X17415956Y-14162844D01*
X17345244Y-14162844D01*
X17345244Y-14233556D01*
X17415956Y-14233556D01*
X17669956Y-13979556D02*
X17669956Y-13908844D01*
X17599244Y-13908844D01*
X17599244Y-13979556D01*
X17669956Y-13979556D01*
X17669956Y-14233556D02*
X17669956Y-14162844D01*
X17599244Y-14162844D01*
X17599244Y-14233556D01*
X17669956Y-14233556D01*
X17923956Y-13979556D02*
X17923956Y-13908844D01*
X17853244Y-13908844D01*
X17853244Y-13979556D01*
X17923956Y-13979556D01*
X17923956Y-14233556D02*
X17923956Y-14162844D01*
X17853244Y-14162844D01*
X17853244Y-14233556D01*
X17923956Y-14233556D01*
X18177956Y-13979556D02*
X18177956Y-13908844D01*
X18107244Y-13908844D01*
X18107244Y-13979556D01*
X18177956Y-13979556D01*
X18177956Y-14233556D02*
X18177956Y-14162844D01*
X18107244Y-14162844D01*
X18107244Y-14233556D01*
X18177956Y-14233556D01*
X18431956Y-13979556D02*
X18431956Y-13908844D01*
X18361244Y-13908844D01*
X18361244Y-13979556D01*
X18431956Y-13979556D01*
X18431956Y-14233556D02*
X18431956Y-14162844D01*
X18361244Y-14162844D01*
X18361244Y-14233556D01*
X18431956Y-14233556D01*
X18685956Y-13979556D02*
X18685956Y-13908844D01*
X18615244Y-13908844D01*
X18615244Y-13979556D01*
X18685956Y-13979556D01*
X18685956Y-14233556D02*
X18685956Y-14162844D01*
X18615244Y-14162844D01*
X18615244Y-14233556D01*
X18685956Y-14233556D01*
D11*
X9974619Y-14923676D02*
X9974619Y-14723676D01*
X10022238Y-14723676D01*
X10050810Y-14733200D01*
X10069857Y-14752248D01*
X10079381Y-14771295D01*
X10088905Y-14809390D01*
X10088905Y-14837962D01*
X10079381Y-14876057D01*
X10069857Y-14895105D01*
X10050810Y-14914152D01*
X10022238Y-14923676D01*
X9974619Y-14923676D01*
X10174619Y-14923676D02*
X10174619Y-14790343D01*
X10174619Y-14828438D02*
X10184143Y-14809390D01*
X10193667Y-14799867D01*
X10212714Y-14790343D01*
X10231762Y-14790343D01*
X10298429Y-14923676D02*
X10298429Y-14790343D01*
X10298429Y-14723676D02*
X10288905Y-14733200D01*
X10298429Y-14742724D01*
X10307952Y-14733200D01*
X10298429Y-14723676D01*
X10298429Y-14742724D01*
X10422238Y-14923676D02*
X10403190Y-14914152D01*
X10393667Y-14895105D01*
X10393667Y-14723676D01*
X10527000Y-14923676D02*
X10507952Y-14914152D01*
X10498429Y-14895105D01*
X10498429Y-14723676D01*
X10755571Y-14923676D02*
X10755571Y-14723676D01*
X10822238Y-14866533D01*
X10888905Y-14723676D01*
X10888905Y-14923676D01*
X11069857Y-14923676D02*
X11069857Y-14818914D01*
X11060333Y-14799867D01*
X11041286Y-14790343D01*
X11003190Y-14790343D01*
X10984143Y-14799867D01*
X11069857Y-14914152D02*
X11050810Y-14923676D01*
X11003190Y-14923676D01*
X10984143Y-14914152D01*
X10974619Y-14895105D01*
X10974619Y-14876057D01*
X10984143Y-14857009D01*
X11003190Y-14847486D01*
X11050810Y-14847486D01*
X11069857Y-14837962D01*
X11165095Y-14790343D02*
X11165095Y-14990343D01*
X11165095Y-14799867D02*
X11184143Y-14790343D01*
X11222238Y-14790343D01*
X11241286Y-14799867D01*
X11250809Y-14809390D01*
X11260333Y-14828438D01*
X11260333Y-14885581D01*
X11250809Y-14904628D01*
X11241286Y-14914152D01*
X11222238Y-14923676D01*
X11184143Y-14923676D01*
X11165095Y-14914152D01*
X11346048Y-14904628D02*
X11355571Y-14914152D01*
X11346048Y-14923676D01*
X11336524Y-14914152D01*
X11346048Y-14904628D01*
X11346048Y-14923676D01*
X11346048Y-14799867D02*
X11355571Y-14809390D01*
X11346048Y-14818914D01*
X11336524Y-14809390D01*
X11346048Y-14799867D01*
X11346048Y-14818914D01*
D12*
X9677000Y-15233200D02*
X9717000Y-15273200D01*
X9717000Y-15233200D02*
X9677000Y-15273200D01*
D11*
X10012714Y-15143676D02*
X10031762Y-15143676D01*
X10050810Y-15153200D01*
X10060333Y-15162724D01*
X10069857Y-15181771D01*
X10079381Y-15219867D01*
X10079381Y-15267486D01*
X10069857Y-15305581D01*
X10060333Y-15324628D01*
X10050810Y-15334152D01*
X10031762Y-15343676D01*
X10012714Y-15343676D01*
X9993667Y-15334152D01*
X9984143Y-15324628D01*
X9974619Y-15305581D01*
X9965095Y-15267486D01*
X9965095Y-15219867D01*
X9974619Y-15181771D01*
X9984143Y-15162724D01*
X9993667Y-15153200D01*
X10012714Y-15143676D01*
X10165095Y-15324628D02*
X10174619Y-15334152D01*
X10165095Y-15343676D01*
X10155571Y-15334152D01*
X10165095Y-15324628D01*
X10165095Y-15343676D01*
X10346048Y-15210343D02*
X10346048Y-15343676D01*
X10298429Y-15134152D02*
X10250810Y-15277009D01*
X10374619Y-15277009D01*
X10488905Y-15143676D02*
X10507952Y-15143676D01*
X10527000Y-15153200D01*
X10536524Y-15162724D01*
X10546048Y-15181771D01*
X10555571Y-15219867D01*
X10555571Y-15267486D01*
X10546048Y-15305581D01*
X10536524Y-15324628D01*
X10527000Y-15334152D01*
X10507952Y-15343676D01*
X10488905Y-15343676D01*
X10469857Y-15334152D01*
X10460333Y-15324628D01*
X10450810Y-15305581D01*
X10441286Y-15267486D01*
X10441286Y-15219867D01*
X10450810Y-15181771D01*
X10460333Y-15162724D01*
X10469857Y-15153200D01*
X10488905Y-15143676D01*
X10679381Y-15143676D02*
X10698429Y-15143676D01*
X10717476Y-15153200D01*
X10727000Y-15162724D01*
X10736524Y-15181771D01*
X10746048Y-15219867D01*
X10746048Y-15267486D01*
X10736524Y-15305581D01*
X10727000Y-15324628D01*
X10717476Y-15334152D01*
X10698429Y-15343676D01*
X10679381Y-15343676D01*
X10660333Y-15334152D01*
X10650810Y-15324628D01*
X10641286Y-15305581D01*
X10631762Y-15267486D01*
X10631762Y-15219867D01*
X10641286Y-15181771D01*
X10650810Y-15162724D01*
X10660333Y-15153200D01*
X10679381Y-15143676D01*
X10831762Y-15343676D02*
X10831762Y-15210343D01*
X10831762Y-15229390D02*
X10841286Y-15219867D01*
X10860333Y-15210343D01*
X10888905Y-15210343D01*
X10907952Y-15219867D01*
X10917476Y-15238914D01*
X10917476Y-15343676D01*
X10917476Y-15238914D02*
X10927000Y-15219867D01*
X10946048Y-15210343D01*
X10974619Y-15210343D01*
X10993667Y-15219867D01*
X11003190Y-15238914D01*
X11003190Y-15343676D01*
X11098429Y-15343676D02*
X11098429Y-15210343D01*
X11098429Y-15229390D02*
X11107952Y-15219867D01*
X11127000Y-15210343D01*
X11155571Y-15210343D01*
X11174619Y-15219867D01*
X11184143Y-15238914D01*
X11184143Y-15343676D01*
X11184143Y-15238914D02*
X11193667Y-15219867D01*
X11212714Y-15210343D01*
X11241286Y-15210343D01*
X11260333Y-15219867D01*
X11269857Y-15238914D01*
X11269857Y-15343676D01*
X11660333Y-15134152D02*
X11488905Y-15391295D01*
X11917476Y-15143676D02*
X11936524Y-15143676D01*
X11955571Y-15153200D01*
X11965095Y-15162724D01*
X11974619Y-15181771D01*
X11984143Y-15219867D01*
X11984143Y-15267486D01*
X11974619Y-15305581D01*
X11965095Y-15324628D01*
X11955571Y-15334152D01*
X11936524Y-15343676D01*
X11917476Y-15343676D01*
X11898428Y-15334152D01*
X11888905Y-15324628D01*
X11879381Y-15305581D01*
X11869857Y-15267486D01*
X11869857Y-15219867D01*
X11879381Y-15181771D01*
X11888905Y-15162724D01*
X11898428Y-15153200D01*
X11917476Y-15143676D01*
X12069857Y-15324628D02*
X12079381Y-15334152D01*
X12069857Y-15343676D01*
X12060333Y-15334152D01*
X12069857Y-15324628D01*
X12069857Y-15343676D01*
X12203190Y-15143676D02*
X12222238Y-15143676D01*
X12241286Y-15153200D01*
X12250809Y-15162724D01*
X12260333Y-15181771D01*
X12269857Y-15219867D01*
X12269857Y-15267486D01*
X12260333Y-15305581D01*
X12250809Y-15324628D01*
X12241286Y-15334152D01*
X12222238Y-15343676D01*
X12203190Y-15343676D01*
X12184143Y-15334152D01*
X12174619Y-15324628D01*
X12165095Y-15305581D01*
X12155571Y-15267486D01*
X12155571Y-15219867D01*
X12165095Y-15181771D01*
X12174619Y-15162724D01*
X12184143Y-15153200D01*
X12203190Y-15143676D01*
X12460333Y-15343676D02*
X12346048Y-15343676D01*
X12403190Y-15343676D02*
X12403190Y-15143676D01*
X12384143Y-15172248D01*
X12365095Y-15191295D01*
X12346048Y-15200819D01*
X12641286Y-15143676D02*
X12546048Y-15143676D01*
X12536524Y-15238914D01*
X12546048Y-15229390D01*
X12565095Y-15219867D01*
X12612714Y-15219867D01*
X12631762Y-15229390D01*
X12641286Y-15238914D01*
X12650809Y-15257962D01*
X12650809Y-15305581D01*
X12641286Y-15324628D01*
X12631762Y-15334152D01*
X12612714Y-15343676D01*
X12565095Y-15343676D01*
X12546048Y-15334152D01*
X12536524Y-15324628D01*
X12717476Y-15143676D02*
X12850809Y-15143676D01*
X12765095Y-15343676D01*
X12917476Y-15143676D02*
X12917476Y-15181771D01*
X12993667Y-15143676D02*
X12993667Y-15181771D01*
X13288905Y-15419867D02*
X13279381Y-15410343D01*
X13260333Y-15381771D01*
X13250809Y-15362724D01*
X13241286Y-15334152D01*
X13231762Y-15286533D01*
X13231762Y-15248438D01*
X13241286Y-15200819D01*
X13250809Y-15172248D01*
X13260333Y-15153200D01*
X13279381Y-15124628D01*
X13288905Y-15115105D01*
X13355571Y-15162724D02*
X13365095Y-15153200D01*
X13384143Y-15143676D01*
X13431762Y-15143676D01*
X13450809Y-15153200D01*
X13460333Y-15162724D01*
X13469857Y-15181771D01*
X13469857Y-15200819D01*
X13460333Y-15229390D01*
X13346048Y-15343676D01*
X13469857Y-15343676D01*
X13707952Y-15343676D02*
X13707952Y-15143676D01*
X13793667Y-15343676D02*
X13793667Y-15238914D01*
X13784143Y-15219867D01*
X13765095Y-15210343D01*
X13736524Y-15210343D01*
X13717476Y-15219867D01*
X13707952Y-15229390D01*
X13917476Y-15343676D02*
X13898428Y-15334152D01*
X13888905Y-15324628D01*
X13879381Y-15305581D01*
X13879381Y-15248438D01*
X13888905Y-15229390D01*
X13898428Y-15219867D01*
X13917476Y-15210343D01*
X13946048Y-15210343D01*
X13965095Y-15219867D01*
X13974619Y-15229390D01*
X13984143Y-15248438D01*
X13984143Y-15305581D01*
X13974619Y-15324628D01*
X13965095Y-15334152D01*
X13946048Y-15343676D01*
X13917476Y-15343676D01*
X14098428Y-15343676D02*
X14079381Y-15334152D01*
X14069857Y-15315105D01*
X14069857Y-15143676D01*
X14250809Y-15334152D02*
X14231762Y-15343676D01*
X14193667Y-15343676D01*
X14174619Y-15334152D01*
X14165095Y-15315105D01*
X14165095Y-15238914D01*
X14174619Y-15219867D01*
X14193667Y-15210343D01*
X14231762Y-15210343D01*
X14250809Y-15219867D01*
X14260333Y-15238914D01*
X14260333Y-15257962D01*
X14165095Y-15277009D01*
X14336524Y-15334152D02*
X14355571Y-15343676D01*
X14393667Y-15343676D01*
X14412714Y-15334152D01*
X14422238Y-15315105D01*
X14422238Y-15305581D01*
X14412714Y-15286533D01*
X14393667Y-15277009D01*
X14365095Y-15277009D01*
X14346048Y-15267486D01*
X14336524Y-15248438D01*
X14336524Y-15238914D01*
X14346048Y-15219867D01*
X14365095Y-15210343D01*
X14393667Y-15210343D01*
X14412714Y-15219867D01*
X14488905Y-15419867D02*
X14498428Y-15410343D01*
X14517476Y-15381771D01*
X14527000Y-15362724D01*
X14536524Y-15334152D01*
X14546048Y-15286533D01*
X14546048Y-15248438D01*
X14536524Y-15200819D01*
X14527000Y-15172248D01*
X14517476Y-15153200D01*
X14498428Y-15124628D01*
X14488905Y-15115105D01*
D13*
X9717000Y-15517200D02*
G75*
G03*
X9717000Y-15517200I-40000J0D01*
G01*
D11*
X10012714Y-15407676D02*
X10031762Y-15407676D01*
X10050810Y-15417200D01*
X10060333Y-15426724D01*
X10069857Y-15445771D01*
X10079381Y-15483867D01*
X10079381Y-15531486D01*
X10069857Y-15569581D01*
X10060333Y-15588628D01*
X10050810Y-15598152D01*
X10031762Y-15607676D01*
X10012714Y-15607676D01*
X9993667Y-15598152D01*
X9984143Y-15588628D01*
X9974619Y-15569581D01*
X9965095Y-15531486D01*
X9965095Y-15483867D01*
X9974619Y-15445771D01*
X9984143Y-15426724D01*
X9993667Y-15417200D01*
X10012714Y-15407676D01*
X10165095Y-15588628D02*
X10174619Y-15598152D01*
X10165095Y-15607676D01*
X10155571Y-15598152D01*
X10165095Y-15588628D01*
X10165095Y-15607676D01*
X10288905Y-15493390D02*
X10269857Y-15483867D01*
X10260333Y-15474343D01*
X10250810Y-15455295D01*
X10250810Y-15445771D01*
X10260333Y-15426724D01*
X10269857Y-15417200D01*
X10288905Y-15407676D01*
X10327000Y-15407676D01*
X10346048Y-15417200D01*
X10355571Y-15426724D01*
X10365095Y-15445771D01*
X10365095Y-15455295D01*
X10355571Y-15474343D01*
X10346048Y-15483867D01*
X10327000Y-15493390D01*
X10288905Y-15493390D01*
X10269857Y-15502914D01*
X10260333Y-15512438D01*
X10250810Y-15531486D01*
X10250810Y-15569581D01*
X10260333Y-15588628D01*
X10269857Y-15598152D01*
X10288905Y-15607676D01*
X10327000Y-15607676D01*
X10346048Y-15598152D01*
X10355571Y-15588628D01*
X10365095Y-15569581D01*
X10365095Y-15531486D01*
X10355571Y-15512438D01*
X10346048Y-15502914D01*
X10327000Y-15493390D01*
X10488905Y-15407676D02*
X10507952Y-15407676D01*
X10527000Y-15417200D01*
X10536524Y-15426724D01*
X10546048Y-15445771D01*
X10555571Y-15483867D01*
X10555571Y-15531486D01*
X10546048Y-15569581D01*
X10536524Y-15588628D01*
X10527000Y-15598152D01*
X10507952Y-15607676D01*
X10488905Y-15607676D01*
X10469857Y-15598152D01*
X10460333Y-15588628D01*
X10450810Y-15569581D01*
X10441286Y-15531486D01*
X10441286Y-15483867D01*
X10450810Y-15445771D01*
X10460333Y-15426724D01*
X10469857Y-15417200D01*
X10488905Y-15407676D01*
X10679381Y-15407676D02*
X10698429Y-15407676D01*
X10717476Y-15417200D01*
X10727000Y-15426724D01*
X10736524Y-15445771D01*
X10746048Y-15483867D01*
X10746048Y-15531486D01*
X10736524Y-15569581D01*
X10727000Y-15588628D01*
X10717476Y-15598152D01*
X10698429Y-15607676D01*
X10679381Y-15607676D01*
X10660333Y-15598152D01*
X10650810Y-15588628D01*
X10641286Y-15569581D01*
X10631762Y-15531486D01*
X10631762Y-15483867D01*
X10641286Y-15445771D01*
X10650810Y-15426724D01*
X10660333Y-15417200D01*
X10679381Y-15407676D01*
X10831762Y-15607676D02*
X10831762Y-15474343D01*
X10831762Y-15493390D02*
X10841286Y-15483867D01*
X10860333Y-15474343D01*
X10888905Y-15474343D01*
X10907952Y-15483867D01*
X10917476Y-15502914D01*
X10917476Y-15607676D01*
X10917476Y-15502914D02*
X10927000Y-15483867D01*
X10946048Y-15474343D01*
X10974619Y-15474343D01*
X10993667Y-15483867D01*
X11003190Y-15502914D01*
X11003190Y-15607676D01*
X11098429Y-15607676D02*
X11098429Y-15474343D01*
X11098429Y-15493390D02*
X11107952Y-15483867D01*
X11127000Y-15474343D01*
X11155571Y-15474343D01*
X11174619Y-15483867D01*
X11184143Y-15502914D01*
X11184143Y-15607676D01*
X11184143Y-15502914D02*
X11193667Y-15483867D01*
X11212714Y-15474343D01*
X11241286Y-15474343D01*
X11260333Y-15483867D01*
X11269857Y-15502914D01*
X11269857Y-15607676D01*
X11660333Y-15398152D02*
X11488905Y-15655295D01*
X11917476Y-15407676D02*
X11936524Y-15407676D01*
X11955571Y-15417200D01*
X11965095Y-15426724D01*
X11974619Y-15445771D01*
X11984143Y-15483867D01*
X11984143Y-15531486D01*
X11974619Y-15569581D01*
X11965095Y-15588628D01*
X11955571Y-15598152D01*
X11936524Y-15607676D01*
X11917476Y-15607676D01*
X11898428Y-15598152D01*
X11888905Y-15588628D01*
X11879381Y-15569581D01*
X11869857Y-15531486D01*
X11869857Y-15483867D01*
X11879381Y-15445771D01*
X11888905Y-15426724D01*
X11898428Y-15417200D01*
X11917476Y-15407676D01*
X12069857Y-15588628D02*
X12079381Y-15598152D01*
X12069857Y-15607676D01*
X12060333Y-15598152D01*
X12069857Y-15588628D01*
X12069857Y-15607676D01*
X12203190Y-15407676D02*
X12222238Y-15407676D01*
X12241286Y-15417200D01*
X12250809Y-15426724D01*
X12260333Y-15445771D01*
X12269857Y-15483867D01*
X12269857Y-15531486D01*
X12260333Y-15569581D01*
X12250809Y-15588628D01*
X12241286Y-15598152D01*
X12222238Y-15607676D01*
X12203190Y-15607676D01*
X12184143Y-15598152D01*
X12174619Y-15588628D01*
X12165095Y-15569581D01*
X12155571Y-15531486D01*
X12155571Y-15483867D01*
X12165095Y-15445771D01*
X12174619Y-15426724D01*
X12184143Y-15417200D01*
X12203190Y-15407676D01*
X12336524Y-15407676D02*
X12460333Y-15407676D01*
X12393667Y-15483867D01*
X12422238Y-15483867D01*
X12441286Y-15493390D01*
X12450809Y-15502914D01*
X12460333Y-15521962D01*
X12460333Y-15569581D01*
X12450809Y-15588628D01*
X12441286Y-15598152D01*
X12422238Y-15607676D01*
X12365095Y-15607676D01*
X12346048Y-15598152D01*
X12336524Y-15588628D01*
X12650809Y-15607676D02*
X12536524Y-15607676D01*
X12593667Y-15607676D02*
X12593667Y-15407676D01*
X12574619Y-15436248D01*
X12555571Y-15455295D01*
X12536524Y-15464819D01*
X12831762Y-15407676D02*
X12736524Y-15407676D01*
X12727000Y-15502914D01*
X12736524Y-15493390D01*
X12755571Y-15483867D01*
X12803190Y-15483867D01*
X12822238Y-15493390D01*
X12831762Y-15502914D01*
X12841286Y-15521962D01*
X12841286Y-15569581D01*
X12831762Y-15588628D01*
X12822238Y-15598152D01*
X12803190Y-15607676D01*
X12755571Y-15607676D01*
X12736524Y-15598152D01*
X12727000Y-15588628D01*
X12917476Y-15407676D02*
X12917476Y-15445771D01*
X12993667Y-15407676D02*
X12993667Y-15445771D01*
X13288905Y-15683867D02*
X13279381Y-15674343D01*
X13260333Y-15645771D01*
X13250809Y-15626724D01*
X13241286Y-15598152D01*
X13231762Y-15550533D01*
X13231762Y-15512438D01*
X13241286Y-15464819D01*
X13250809Y-15436248D01*
X13260333Y-15417200D01*
X13279381Y-15388628D01*
X13288905Y-15379105D01*
X13469857Y-15607676D02*
X13355571Y-15607676D01*
X13412714Y-15607676D02*
X13412714Y-15407676D01*
X13393667Y-15436248D01*
X13374619Y-15455295D01*
X13355571Y-15464819D01*
X13593667Y-15407676D02*
X13612714Y-15407676D01*
X13631762Y-15417200D01*
X13641286Y-15426724D01*
X13650809Y-15445771D01*
X13660333Y-15483867D01*
X13660333Y-15531486D01*
X13650809Y-15569581D01*
X13641286Y-15588628D01*
X13631762Y-15598152D01*
X13612714Y-15607676D01*
X13593667Y-15607676D01*
X13574619Y-15598152D01*
X13565095Y-15588628D01*
X13555571Y-15569581D01*
X13546048Y-15531486D01*
X13546048Y-15483867D01*
X13555571Y-15445771D01*
X13565095Y-15426724D01*
X13574619Y-15417200D01*
X13593667Y-15407676D01*
X13736524Y-15426724D02*
X13746048Y-15417200D01*
X13765095Y-15407676D01*
X13812714Y-15407676D01*
X13831762Y-15417200D01*
X13841286Y-15426724D01*
X13850809Y-15445771D01*
X13850809Y-15464819D01*
X13841286Y-15493390D01*
X13727000Y-15607676D01*
X13850809Y-15607676D01*
X14088905Y-15607676D02*
X14088905Y-15407676D01*
X14174619Y-15607676D02*
X14174619Y-15502914D01*
X14165095Y-15483867D01*
X14146048Y-15474343D01*
X14117476Y-15474343D01*
X14098428Y-15483867D01*
X14088905Y-15493390D01*
X14298428Y-15607676D02*
X14279381Y-15598152D01*
X14269857Y-15588628D01*
X14260333Y-15569581D01*
X14260333Y-15512438D01*
X14269857Y-15493390D01*
X14279381Y-15483867D01*
X14298428Y-15474343D01*
X14327000Y-15474343D01*
X14346048Y-15483867D01*
X14355571Y-15493390D01*
X14365095Y-15512438D01*
X14365095Y-15569581D01*
X14355571Y-15588628D01*
X14346048Y-15598152D01*
X14327000Y-15607676D01*
X14298428Y-15607676D01*
X14479381Y-15607676D02*
X14460333Y-15598152D01*
X14450809Y-15579105D01*
X14450809Y-15407676D01*
X14631762Y-15598152D02*
X14612714Y-15607676D01*
X14574619Y-15607676D01*
X14555571Y-15598152D01*
X14546048Y-15579105D01*
X14546048Y-15502914D01*
X14555571Y-15483867D01*
X14574619Y-15474343D01*
X14612714Y-15474343D01*
X14631762Y-15483867D01*
X14641286Y-15502914D01*
X14641286Y-15521962D01*
X14546048Y-15541009D01*
X14717476Y-15598152D02*
X14736524Y-15607676D01*
X14774619Y-15607676D01*
X14793667Y-15598152D01*
X14803190Y-15579105D01*
X14803190Y-15569581D01*
X14793667Y-15550533D01*
X14774619Y-15541009D01*
X14746048Y-15541009D01*
X14727000Y-15531486D01*
X14717476Y-15512438D01*
X14717476Y-15502914D01*
X14727000Y-15483867D01*
X14746048Y-15474343D01*
X14774619Y-15474343D01*
X14793667Y-15483867D01*
X14869857Y-15683867D02*
X14879381Y-15674343D01*
X14898428Y-15645771D01*
X14907952Y-15626724D01*
X14917476Y-15598152D01*
X14927000Y-15550533D01*
X14927000Y-15512438D01*
X14917476Y-15464819D01*
X14907952Y-15436248D01*
X14898428Y-15417200D01*
X14879381Y-15388628D01*
X14869857Y-15379105D01*
D14*
X9672000Y-15736200D02*
X9672000Y-15826200D01*
X9627000Y-15781200D02*
X9717000Y-15781200D01*
D11*
X10012714Y-15671676D02*
X10031762Y-15671676D01*
X10050810Y-15681200D01*
X10060333Y-15690724D01*
X10069857Y-15709771D01*
X10079381Y-15747867D01*
X10079381Y-15795486D01*
X10069857Y-15833581D01*
X10060333Y-15852628D01*
X10050810Y-15862152D01*
X10031762Y-15871676D01*
X10012714Y-15871676D01*
X9993667Y-15862152D01*
X9984143Y-15852628D01*
X9974619Y-15833581D01*
X9965095Y-15795486D01*
X9965095Y-15747867D01*
X9974619Y-15709771D01*
X9984143Y-15690724D01*
X9993667Y-15681200D01*
X10012714Y-15671676D01*
X10165095Y-15852628D02*
X10174619Y-15862152D01*
X10165095Y-15871676D01*
X10155571Y-15862152D01*
X10165095Y-15852628D01*
X10165095Y-15871676D01*
X10269857Y-15871676D02*
X10307952Y-15871676D01*
X10327000Y-15862152D01*
X10336524Y-15852628D01*
X10355571Y-15824057D01*
X10365095Y-15785962D01*
X10365095Y-15709771D01*
X10355571Y-15690724D01*
X10346048Y-15681200D01*
X10327000Y-15671676D01*
X10288905Y-15671676D01*
X10269857Y-15681200D01*
X10260333Y-15690724D01*
X10250810Y-15709771D01*
X10250810Y-15757390D01*
X10260333Y-15776438D01*
X10269857Y-15785962D01*
X10288905Y-15795486D01*
X10327000Y-15795486D01*
X10346048Y-15785962D01*
X10355571Y-15776438D01*
X10365095Y-15757390D01*
X10488905Y-15671676D02*
X10507952Y-15671676D01*
X10527000Y-15681200D01*
X10536524Y-15690724D01*
X10546048Y-15709771D01*
X10555571Y-15747867D01*
X10555571Y-15795486D01*
X10546048Y-15833581D01*
X10536524Y-15852628D01*
X10527000Y-15862152D01*
X10507952Y-15871676D01*
X10488905Y-15871676D01*
X10469857Y-15862152D01*
X10460333Y-15852628D01*
X10450810Y-15833581D01*
X10441286Y-15795486D01*
X10441286Y-15747867D01*
X10450810Y-15709771D01*
X10460333Y-15690724D01*
X10469857Y-15681200D01*
X10488905Y-15671676D01*
X10679381Y-15671676D02*
X10698429Y-15671676D01*
X10717476Y-15681200D01*
X10727000Y-15690724D01*
X10736524Y-15709771D01*
X10746048Y-15747867D01*
X10746048Y-15795486D01*
X10736524Y-15833581D01*
X10727000Y-15852628D01*
X10717476Y-15862152D01*
X10698429Y-15871676D01*
X10679381Y-15871676D01*
X10660333Y-15862152D01*
X10650810Y-15852628D01*
X10641286Y-15833581D01*
X10631762Y-15795486D01*
X10631762Y-15747867D01*
X10641286Y-15709771D01*
X10650810Y-15690724D01*
X10660333Y-15681200D01*
X10679381Y-15671676D01*
X10831762Y-15871676D02*
X10831762Y-15738343D01*
X10831762Y-15757390D02*
X10841286Y-15747867D01*
X10860333Y-15738343D01*
X10888905Y-15738343D01*
X10907952Y-15747867D01*
X10917476Y-15766914D01*
X10917476Y-15871676D01*
X10917476Y-15766914D02*
X10927000Y-15747867D01*
X10946048Y-15738343D01*
X10974619Y-15738343D01*
X10993667Y-15747867D01*
X11003190Y-15766914D01*
X11003190Y-15871676D01*
X11098429Y-15871676D02*
X11098429Y-15738343D01*
X11098429Y-15757390D02*
X11107952Y-15747867D01*
X11127000Y-15738343D01*
X11155571Y-15738343D01*
X11174619Y-15747867D01*
X11184143Y-15766914D01*
X11184143Y-15871676D01*
X11184143Y-15766914D02*
X11193667Y-15747867D01*
X11212714Y-15738343D01*
X11241286Y-15738343D01*
X11260333Y-15747867D01*
X11269857Y-15766914D01*
X11269857Y-15871676D01*
X11660333Y-15662152D02*
X11488905Y-15919295D01*
X11917476Y-15671676D02*
X11936524Y-15671676D01*
X11955571Y-15681200D01*
X11965095Y-15690724D01*
X11974619Y-15709771D01*
X11984143Y-15747867D01*
X11984143Y-15795486D01*
X11974619Y-15833581D01*
X11965095Y-15852628D01*
X11955571Y-15862152D01*
X11936524Y-15871676D01*
X11917476Y-15871676D01*
X11898428Y-15862152D01*
X11888905Y-15852628D01*
X11879381Y-15833581D01*
X11869857Y-15795486D01*
X11869857Y-15747867D01*
X11879381Y-15709771D01*
X11888905Y-15690724D01*
X11898428Y-15681200D01*
X11917476Y-15671676D01*
X12069857Y-15852628D02*
X12079381Y-15862152D01*
X12069857Y-15871676D01*
X12060333Y-15862152D01*
X12069857Y-15852628D01*
X12069857Y-15871676D01*
X12203190Y-15671676D02*
X12222238Y-15671676D01*
X12241286Y-15681200D01*
X12250809Y-15690724D01*
X12260333Y-15709771D01*
X12269857Y-15747867D01*
X12269857Y-15795486D01*
X12260333Y-15833581D01*
X12250809Y-15852628D01*
X12241286Y-15862152D01*
X12222238Y-15871676D01*
X12203190Y-15871676D01*
X12184143Y-15862152D01*
X12174619Y-15852628D01*
X12165095Y-15833581D01*
X12155571Y-15795486D01*
X12155571Y-15747867D01*
X12165095Y-15709771D01*
X12174619Y-15690724D01*
X12184143Y-15681200D01*
X12203190Y-15671676D01*
X12336524Y-15671676D02*
X12460333Y-15671676D01*
X12393667Y-15747867D01*
X12422238Y-15747867D01*
X12441286Y-15757390D01*
X12450809Y-15766914D01*
X12460333Y-15785962D01*
X12460333Y-15833581D01*
X12450809Y-15852628D01*
X12441286Y-15862152D01*
X12422238Y-15871676D01*
X12365095Y-15871676D01*
X12346048Y-15862152D01*
X12336524Y-15852628D01*
X12641286Y-15671676D02*
X12546048Y-15671676D01*
X12536524Y-15766914D01*
X12546048Y-15757390D01*
X12565095Y-15747867D01*
X12612714Y-15747867D01*
X12631762Y-15757390D01*
X12641286Y-15766914D01*
X12650809Y-15785962D01*
X12650809Y-15833581D01*
X12641286Y-15852628D01*
X12631762Y-15862152D01*
X12612714Y-15871676D01*
X12565095Y-15871676D01*
X12546048Y-15862152D01*
X12536524Y-15852628D01*
X12822238Y-15738343D02*
X12822238Y-15871676D01*
X12774619Y-15662152D02*
X12727000Y-15805009D01*
X12850809Y-15805009D01*
X12917476Y-15671676D02*
X12917476Y-15709771D01*
X12993667Y-15671676D02*
X12993667Y-15709771D01*
X13288905Y-15947867D02*
X13279381Y-15938343D01*
X13260333Y-15909771D01*
X13250809Y-15890724D01*
X13241286Y-15862152D01*
X13231762Y-15814533D01*
X13231762Y-15776438D01*
X13241286Y-15728819D01*
X13250809Y-15700248D01*
X13260333Y-15681200D01*
X13279381Y-15652628D01*
X13288905Y-15643105D01*
X13346048Y-15671676D02*
X13469857Y-15671676D01*
X13403190Y-15747867D01*
X13431762Y-15747867D01*
X13450809Y-15757390D01*
X13460333Y-15766914D01*
X13469857Y-15785962D01*
X13469857Y-15833581D01*
X13460333Y-15852628D01*
X13450809Y-15862152D01*
X13431762Y-15871676D01*
X13374619Y-15871676D01*
X13355571Y-15862152D01*
X13346048Y-15852628D01*
X13546048Y-15690724D02*
X13555571Y-15681200D01*
X13574619Y-15671676D01*
X13622238Y-15671676D01*
X13641286Y-15681200D01*
X13650809Y-15690724D01*
X13660333Y-15709771D01*
X13660333Y-15728819D01*
X13650809Y-15757390D01*
X13536524Y-15871676D01*
X13660333Y-15871676D01*
X13898428Y-15871676D02*
X13898428Y-15671676D01*
X13984143Y-15871676D02*
X13984143Y-15766914D01*
X13974619Y-15747867D01*
X13955571Y-15738343D01*
X13927000Y-15738343D01*
X13907952Y-15747867D01*
X13898428Y-15757390D01*
X14107952Y-15871676D02*
X14088905Y-15862152D01*
X14079381Y-15852628D01*
X14069857Y-15833581D01*
X14069857Y-15776438D01*
X14079381Y-15757390D01*
X14088905Y-15747867D01*
X14107952Y-15738343D01*
X14136524Y-15738343D01*
X14155571Y-15747867D01*
X14165095Y-15757390D01*
X14174619Y-15776438D01*
X14174619Y-15833581D01*
X14165095Y-15852628D01*
X14155571Y-15862152D01*
X14136524Y-15871676D01*
X14107952Y-15871676D01*
X14288905Y-15871676D02*
X14269857Y-15862152D01*
X14260333Y-15843105D01*
X14260333Y-15671676D01*
X14441286Y-15862152D02*
X14422238Y-15871676D01*
X14384143Y-15871676D01*
X14365095Y-15862152D01*
X14355571Y-15843105D01*
X14355571Y-15766914D01*
X14365095Y-15747867D01*
X14384143Y-15738343D01*
X14422238Y-15738343D01*
X14441286Y-15747867D01*
X14450809Y-15766914D01*
X14450809Y-15785962D01*
X14355571Y-15805009D01*
X14527000Y-15862152D02*
X14546048Y-15871676D01*
X14584143Y-15871676D01*
X14603190Y-15862152D01*
X14612714Y-15843105D01*
X14612714Y-15833581D01*
X14603190Y-15814533D01*
X14584143Y-15805009D01*
X14555571Y-15805009D01*
X14536524Y-15795486D01*
X14527000Y-15776438D01*
X14527000Y-15766914D01*
X14536524Y-15747867D01*
X14555571Y-15738343D01*
X14584143Y-15738343D01*
X14603190Y-15747867D01*
X14679381Y-15947867D02*
X14688905Y-15938343D01*
X14707952Y-15909771D01*
X14717476Y-15890724D01*
X14727000Y-15862152D01*
X14736524Y-15814533D01*
X14736524Y-15776438D01*
X14727000Y-15728819D01*
X14717476Y-15700248D01*
X14707952Y-15681200D01*
X14688905Y-15652628D01*
X14679381Y-15643105D01*
D10*
X9702356Y-16080556D02*
X9702356Y-16009844D01*
X9631644Y-16009844D01*
X9631644Y-16080556D01*
X9702356Y-16080556D01*
D11*
X10079381Y-16135676D02*
X9965095Y-16135676D01*
X10022238Y-16135676D02*
X10022238Y-15935676D01*
X10003190Y-15964248D01*
X9984143Y-15983295D01*
X9965095Y-15992819D01*
X10165095Y-16116628D02*
X10174619Y-16126152D01*
X10165095Y-16135676D01*
X10155571Y-16126152D01*
X10165095Y-16116628D01*
X10165095Y-16135676D01*
X10298429Y-15935676D02*
X10317476Y-15935676D01*
X10336524Y-15945200D01*
X10346048Y-15954724D01*
X10355571Y-15973771D01*
X10365095Y-16011867D01*
X10365095Y-16059486D01*
X10355571Y-16097581D01*
X10346048Y-16116628D01*
X10336524Y-16126152D01*
X10317476Y-16135676D01*
X10298429Y-16135676D01*
X10279381Y-16126152D01*
X10269857Y-16116628D01*
X10260333Y-16097581D01*
X10250810Y-16059486D01*
X10250810Y-16011867D01*
X10260333Y-15973771D01*
X10269857Y-15954724D01*
X10279381Y-15945200D01*
X10298429Y-15935676D01*
X10488905Y-15935676D02*
X10507952Y-15935676D01*
X10527000Y-15945200D01*
X10536524Y-15954724D01*
X10546048Y-15973771D01*
X10555571Y-16011867D01*
X10555571Y-16059486D01*
X10546048Y-16097581D01*
X10536524Y-16116628D01*
X10527000Y-16126152D01*
X10507952Y-16135676D01*
X10488905Y-16135676D01*
X10469857Y-16126152D01*
X10460333Y-16116628D01*
X10450810Y-16097581D01*
X10441286Y-16059486D01*
X10441286Y-16011867D01*
X10450810Y-15973771D01*
X10460333Y-15954724D01*
X10469857Y-15945200D01*
X10488905Y-15935676D01*
X10679381Y-15935676D02*
X10698429Y-15935676D01*
X10717476Y-15945200D01*
X10727000Y-15954724D01*
X10736524Y-15973771D01*
X10746048Y-16011867D01*
X10746048Y-16059486D01*
X10736524Y-16097581D01*
X10727000Y-16116628D01*
X10717476Y-16126152D01*
X10698429Y-16135676D01*
X10679381Y-16135676D01*
X10660333Y-16126152D01*
X10650810Y-16116628D01*
X10641286Y-16097581D01*
X10631762Y-16059486D01*
X10631762Y-16011867D01*
X10641286Y-15973771D01*
X10650810Y-15954724D01*
X10660333Y-15945200D01*
X10679381Y-15935676D01*
X10831762Y-16135676D02*
X10831762Y-16002343D01*
X10831762Y-16021390D02*
X10841286Y-16011867D01*
X10860333Y-16002343D01*
X10888905Y-16002343D01*
X10907952Y-16011867D01*
X10917476Y-16030914D01*
X10917476Y-16135676D01*
X10917476Y-16030914D02*
X10927000Y-16011867D01*
X10946048Y-16002343D01*
X10974619Y-16002343D01*
X10993667Y-16011867D01*
X11003190Y-16030914D01*
X11003190Y-16135676D01*
X11098429Y-16135676D02*
X11098429Y-16002343D01*
X11098429Y-16021390D02*
X11107952Y-16011867D01*
X11127000Y-16002343D01*
X11155571Y-16002343D01*
X11174619Y-16011867D01*
X11184143Y-16030914D01*
X11184143Y-16135676D01*
X11184143Y-16030914D02*
X11193667Y-16011867D01*
X11212714Y-16002343D01*
X11241286Y-16002343D01*
X11260333Y-16011867D01*
X11269857Y-16030914D01*
X11269857Y-16135676D01*
X11660333Y-15926152D02*
X11488905Y-16183295D01*
X11917476Y-15935676D02*
X11936524Y-15935676D01*
X11955571Y-15945200D01*
X11965095Y-15954724D01*
X11974619Y-15973771D01*
X11984143Y-16011867D01*
X11984143Y-16059486D01*
X11974619Y-16097581D01*
X11965095Y-16116628D01*
X11955571Y-16126152D01*
X11936524Y-16135676D01*
X11917476Y-16135676D01*
X11898428Y-16126152D01*
X11888905Y-16116628D01*
X11879381Y-16097581D01*
X11869857Y-16059486D01*
X11869857Y-16011867D01*
X11879381Y-15973771D01*
X11888905Y-15954724D01*
X11898428Y-15945200D01*
X11917476Y-15935676D01*
X12069857Y-16116628D02*
X12079381Y-16126152D01*
X12069857Y-16135676D01*
X12060333Y-16126152D01*
X12069857Y-16116628D01*
X12069857Y-16135676D01*
X12203190Y-15935676D02*
X12222238Y-15935676D01*
X12241286Y-15945200D01*
X12250809Y-15954724D01*
X12260333Y-15973771D01*
X12269857Y-16011867D01*
X12269857Y-16059486D01*
X12260333Y-16097581D01*
X12250809Y-16116628D01*
X12241286Y-16126152D01*
X12222238Y-16135676D01*
X12203190Y-16135676D01*
X12184143Y-16126152D01*
X12174619Y-16116628D01*
X12165095Y-16097581D01*
X12155571Y-16059486D01*
X12155571Y-16011867D01*
X12165095Y-15973771D01*
X12174619Y-15954724D01*
X12184143Y-15945200D01*
X12203190Y-15935676D01*
X12336524Y-15935676D02*
X12460333Y-15935676D01*
X12393667Y-16011867D01*
X12422238Y-16011867D01*
X12441286Y-16021390D01*
X12450809Y-16030914D01*
X12460333Y-16049962D01*
X12460333Y-16097581D01*
X12450809Y-16116628D01*
X12441286Y-16126152D01*
X12422238Y-16135676D01*
X12365095Y-16135676D01*
X12346048Y-16126152D01*
X12336524Y-16116628D01*
X12555571Y-16135676D02*
X12593667Y-16135676D01*
X12612714Y-16126152D01*
X12622238Y-16116628D01*
X12641286Y-16088057D01*
X12650809Y-16049962D01*
X12650809Y-15973771D01*
X12641286Y-15954724D01*
X12631762Y-15945200D01*
X12612714Y-15935676D01*
X12574619Y-15935676D01*
X12555571Y-15945200D01*
X12546048Y-15954724D01*
X12536524Y-15973771D01*
X12536524Y-16021390D01*
X12546048Y-16040438D01*
X12555571Y-16049962D01*
X12574619Y-16059486D01*
X12612714Y-16059486D01*
X12631762Y-16049962D01*
X12641286Y-16040438D01*
X12650809Y-16021390D01*
X12822238Y-16002343D02*
X12822238Y-16135676D01*
X12774619Y-15926152D02*
X12727000Y-16069009D01*
X12850809Y-16069009D01*
X12917476Y-15935676D02*
X12917476Y-15973771D01*
X12993667Y-15935676D02*
X12993667Y-15973771D01*
X13288905Y-16211867D02*
X13279381Y-16202343D01*
X13260333Y-16173771D01*
X13250809Y-16154724D01*
X13241286Y-16126152D01*
X13231762Y-16078533D01*
X13231762Y-16040438D01*
X13241286Y-15992819D01*
X13250809Y-15964248D01*
X13260333Y-15945200D01*
X13279381Y-15916628D01*
X13288905Y-15907105D01*
X13450809Y-15935676D02*
X13412714Y-15935676D01*
X13393667Y-15945200D01*
X13384143Y-15954724D01*
X13365095Y-15983295D01*
X13355571Y-16021390D01*
X13355571Y-16097581D01*
X13365095Y-16116628D01*
X13374619Y-16126152D01*
X13393667Y-16135676D01*
X13431762Y-16135676D01*
X13450809Y-16126152D01*
X13460333Y-16116628D01*
X13469857Y-16097581D01*
X13469857Y-16049962D01*
X13460333Y-16030914D01*
X13450809Y-16021390D01*
X13431762Y-16011867D01*
X13393667Y-16011867D01*
X13374619Y-16021390D01*
X13365095Y-16030914D01*
X13355571Y-16049962D01*
X13641286Y-16002343D02*
X13641286Y-16135676D01*
X13593667Y-15926152D02*
X13546048Y-16069009D01*
X13669857Y-16069009D01*
X13898428Y-16135676D02*
X13898428Y-15935676D01*
X13984143Y-16135676D02*
X13984143Y-16030914D01*
X13974619Y-16011867D01*
X13955571Y-16002343D01*
X13927000Y-16002343D01*
X13907952Y-16011867D01*
X13898428Y-16021390D01*
X14107952Y-16135676D02*
X14088905Y-16126152D01*
X14079381Y-16116628D01*
X14069857Y-16097581D01*
X14069857Y-16040438D01*
X14079381Y-16021390D01*
X14088905Y-16011867D01*
X14107952Y-16002343D01*
X14136524Y-16002343D01*
X14155571Y-16011867D01*
X14165095Y-16021390D01*
X14174619Y-16040438D01*
X14174619Y-16097581D01*
X14165095Y-16116628D01*
X14155571Y-16126152D01*
X14136524Y-16135676D01*
X14107952Y-16135676D01*
X14288905Y-16135676D02*
X14269857Y-16126152D01*
X14260333Y-16107105D01*
X14260333Y-15935676D01*
X14441286Y-16126152D02*
X14422238Y-16135676D01*
X14384143Y-16135676D01*
X14365095Y-16126152D01*
X14355571Y-16107105D01*
X14355571Y-16030914D01*
X14365095Y-16011867D01*
X14384143Y-16002343D01*
X14422238Y-16002343D01*
X14441286Y-16011867D01*
X14450809Y-16030914D01*
X14450809Y-16049962D01*
X14355571Y-16069009D01*
X14527000Y-16126152D02*
X14546048Y-16135676D01*
X14584143Y-16135676D01*
X14603190Y-16126152D01*
X14612714Y-16107105D01*
X14612714Y-16097581D01*
X14603190Y-16078533D01*
X14584143Y-16069009D01*
X14555571Y-16069009D01*
X14536524Y-16059486D01*
X14527000Y-16040438D01*
X14527000Y-16030914D01*
X14536524Y-16011867D01*
X14555571Y-16002343D01*
X14584143Y-16002343D01*
X14603190Y-16011867D01*
X14679381Y-16211867D02*
X14688905Y-16202343D01*
X14707952Y-16173771D01*
X14717476Y-16154724D01*
X14727000Y-16126152D01*
X14736524Y-16078533D01*
X14736524Y-16040438D01*
X14727000Y-15992819D01*
X14717476Y-15964248D01*
X14707952Y-15945200D01*
X14688905Y-15916628D01*
X14679381Y-15907105D01*
M02*
