%TF.GenerationSoftware,KiCad,Pcbnew,(6.0.9)*%
%TF.CreationDate,2022-11-21T20:51:02-08:00*%
%TF.ProjectId,StatusBoard,53746174-7573-4426-9f61-72642e6b6963,rev?*%
%TF.SameCoordinates,Original*%
%TF.FileFunction,Copper,L1,Top*%
%TF.FilePolarity,Positive*%
%FSLAX46Y46*%
G04 Gerber Fmt 4.6, Leading zero omitted, Abs format (unit mm)*
G04 Created by KiCad (PCBNEW (6.0.9)) date 2022-11-21 20:51:02*
%MOMM*%
%LPD*%
G01*
G04 APERTURE LIST*
%TA.AperFunction,ComponentPad*%
%ADD10R,1.600000X2.400000*%
%TD*%
%TA.AperFunction,ComponentPad*%
%ADD11O,1.600000X2.400000*%
%TD*%
%TA.AperFunction,ComponentPad*%
%ADD12C,1.600000*%
%TD*%
%TA.AperFunction,ComponentPad*%
%ADD13O,1.600000X1.600000*%
%TD*%
%TA.AperFunction,ComponentPad*%
%ADD14O,1.700000X1.700000*%
%TD*%
%TA.AperFunction,ComponentPad*%
%ADD15R,1.700000X1.700000*%
%TD*%
%TA.AperFunction,ComponentPad*%
%ADD16R,1.800000X1.800000*%
%TD*%
%TA.AperFunction,ComponentPad*%
%ADD17C,1.800000*%
%TD*%
%TA.AperFunction,ViaPad*%
%ADD18C,0.800000*%
%TD*%
%TA.AperFunction,Conductor*%
%ADD19C,0.250000*%
%TD*%
G04 APERTURE END LIST*
D10*
%TO.P,U3,1,OE*%
%TO.N,GND*%
X104145000Y-104765000D03*
D11*
%TO.P,U3,2,O0*%
%TO.N,Net-(D11-Pad2)*%
X106685000Y-104765000D03*
%TO.P,U3,3,D0*%
%TO.N,/D8*%
X109225000Y-104765000D03*
%TO.P,U3,4,D1*%
%TO.N,/D9*%
X111765000Y-104765000D03*
%TO.P,U3,5,O1*%
%TO.N,Net-(D12-Pad2)*%
X114305000Y-104765000D03*
%TO.P,U3,6,O2*%
%TO.N,Net-(D13-Pad2)*%
X116845000Y-104765000D03*
%TO.P,U3,7,D2*%
%TO.N,/D10*%
X119385000Y-104765000D03*
%TO.P,U3,8,D3*%
%TO.N,/D11*%
X121925000Y-104765000D03*
%TO.P,U3,9,O3*%
%TO.N,Net-(D14-Pad2)*%
X124465000Y-104765000D03*
%TO.P,U3,10,GND*%
%TO.N,GND*%
X127005000Y-104765000D03*
%TO.P,U3,11,LE*%
%TO.N,/STATUSHI*%
X127005000Y-97145000D03*
%TO.P,U3,12,O4*%
%TO.N,Net-(D15-Pad2)*%
X124465000Y-97145000D03*
%TO.P,U3,13,D4*%
%TO.N,/D12*%
X121925000Y-97145000D03*
%TO.P,U3,14,D5*%
%TO.N,/D13*%
X119385000Y-97145000D03*
%TO.P,U3,15,O5*%
%TO.N,Net-(D16-Pad2)*%
X116845000Y-97145000D03*
%TO.P,U3,16,O6*%
%TO.N,Net-(D17-Pad2)*%
X114305000Y-97145000D03*
%TO.P,U3,17,D6*%
%TO.N,/D14*%
X111765000Y-97145000D03*
%TO.P,U3,18,D7*%
%TO.N,/D15*%
X109225000Y-97145000D03*
%TO.P,U3,19,O7*%
%TO.N,Net-(D18-Pad2)*%
X106685000Y-97145000D03*
%TO.P,U3,20,VCC*%
%TO.N,VCC*%
X104145000Y-97145000D03*
%TD*%
D10*
%TO.P,U2,1,OE*%
%TO.N,GND*%
X137165000Y-104765000D03*
D11*
%TO.P,U2,2,O0*%
%TO.N,Net-(D3-Pad2)*%
X139705000Y-104765000D03*
%TO.P,U2,3,D0*%
%TO.N,/D0*%
X142245000Y-104765000D03*
%TO.P,U2,4,D1*%
%TO.N,/D1*%
X144785000Y-104765000D03*
%TO.P,U2,5,O1*%
%TO.N,Net-(D4-Pad2)*%
X147325000Y-104765000D03*
%TO.P,U2,6,O2*%
%TO.N,Net-(D5-Pad2)*%
X149865000Y-104765000D03*
%TO.P,U2,7,D2*%
%TO.N,/D2*%
X152405000Y-104765000D03*
%TO.P,U2,8,D3*%
%TO.N,/D3*%
X154945000Y-104765000D03*
%TO.P,U2,9,O3*%
%TO.N,Net-(D6-Pad2)*%
X157485000Y-104765000D03*
%TO.P,U2,10,GND*%
%TO.N,GND*%
X160025000Y-104765000D03*
%TO.P,U2,11,LE*%
%TO.N,/STATUSLO*%
X160025000Y-97145000D03*
%TO.P,U2,12,O4*%
%TO.N,Net-(D7-Pad2)*%
X157485000Y-97145000D03*
%TO.P,U2,13,D4*%
%TO.N,/D4*%
X154945000Y-97145000D03*
%TO.P,U2,14,D5*%
%TO.N,/D5*%
X152405000Y-97145000D03*
%TO.P,U2,15,O5*%
%TO.N,Net-(D8-Pad2)*%
X149865000Y-97145000D03*
%TO.P,U2,16,O6*%
%TO.N,Net-(D9-Pad2)*%
X147325000Y-97145000D03*
%TO.P,U2,17,D6*%
%TO.N,/D6*%
X144785000Y-97145000D03*
%TO.P,U2,18,D7*%
%TO.N,/D7*%
X142245000Y-97145000D03*
%TO.P,U2,19,O7*%
%TO.N,Net-(D10-Pad2)*%
X139705000Y-97145000D03*
%TO.P,U2,20,VCC*%
%TO.N,VCC*%
X137165000Y-97145000D03*
%TD*%
%TO.P,U1,20,VCC*%
%TO.N,VCC*%
X170185000Y-97145000D03*
%TO.P,U1,19,IO1*%
%TO.N,/~{DTACK}*%
X172725000Y-97145000D03*
%TO.P,U1,18,IO2*%
%TO.N,/STATUSLO*%
X175265000Y-97145000D03*
%TO.P,U1,17,I03*%
%TO.N,/STATUSHI*%
X177805000Y-97145000D03*
%TO.P,U1,16,IO4*%
%TO.N,unconnected-(U1-Pad16)*%
X180345000Y-97145000D03*
%TO.P,U1,15,IO5*%
%TO.N,unconnected-(U1-Pad15)*%
X182885000Y-97145000D03*
%TO.P,U1,14,IO6*%
%TO.N,unconnected-(U1-Pad14)*%
X185425000Y-97145000D03*
%TO.P,U1,13,IO7*%
%TO.N,unconnected-(U1-Pad13)*%
X187965000Y-97145000D03*
%TO.P,U1,12,IO8*%
%TO.N,unconnected-(U1-Pad12)*%
X190505000Y-97145000D03*
%TO.P,U1,11,I10/~{OE}*%
%TO.N,unconnected-(U1-Pad11)*%
X193045000Y-97145000D03*
%TO.P,U1,10,GND*%
%TO.N,GND*%
X193045000Y-104765000D03*
%TO.P,U1,9,I9*%
%TO.N,/~{IOSEL}*%
X190505000Y-104765000D03*
%TO.P,U1,8,I8*%
%TO.N,/A14*%
X187965000Y-104765000D03*
%TO.P,U1,7,I7*%
%TO.N,/A15*%
X185425000Y-104765000D03*
%TO.P,U1,6,I6*%
%TO.N,/A16*%
X182885000Y-104765000D03*
%TO.P,U1,5,I5*%
%TO.N,/A17*%
X180345000Y-104765000D03*
%TO.P,U1,4,I4*%
%TO.N,/A18*%
X177805000Y-104765000D03*
%TO.P,U1,3,I3*%
%TO.N,/R~{W}*%
X175265000Y-104765000D03*
%TO.P,U1,2,I2*%
%TO.N,/~{LDS}*%
X172725000Y-104765000D03*
D10*
%TO.P,U1,1,I1/CLK*%
%TO.N,/~{UDS}*%
X170185000Y-104765000D03*
%TD*%
D12*
%TO.P,R20,1*%
%TO.N,GND*%
X109215000Y-73025000D03*
D13*
%TO.P,R20,2*%
%TO.N,Net-(D18-Pad1)*%
X109215000Y-65405000D03*
%TD*%
D12*
%TO.P,R19,1*%
%TO.N,GND*%
X114295000Y-73025000D03*
D13*
%TO.P,R19,2*%
%TO.N,Net-(D17-Pad1)*%
X114295000Y-65405000D03*
%TD*%
D12*
%TO.P,R18,1*%
%TO.N,GND*%
X119375000Y-73025000D03*
D13*
%TO.P,R18,2*%
%TO.N,Net-(D16-Pad1)*%
X119375000Y-65405000D03*
%TD*%
D12*
%TO.P,R17,1*%
%TO.N,GND*%
X124455000Y-73025000D03*
D13*
%TO.P,R17,2*%
%TO.N,Net-(D15-Pad1)*%
X124455000Y-65405000D03*
%TD*%
D12*
%TO.P,R16,1*%
%TO.N,GND*%
X129535000Y-73025000D03*
D13*
%TO.P,R16,2*%
%TO.N,Net-(D14-Pad1)*%
X129535000Y-65405000D03*
%TD*%
D12*
%TO.P,R15,1*%
%TO.N,GND*%
X134615000Y-73025000D03*
D13*
%TO.P,R15,2*%
%TO.N,Net-(D13-Pad1)*%
X134615000Y-65405000D03*
%TD*%
D12*
%TO.P,R14,1*%
%TO.N,GND*%
X139695000Y-73025000D03*
D13*
%TO.P,R14,2*%
%TO.N,Net-(D12-Pad1)*%
X139695000Y-65405000D03*
%TD*%
D12*
%TO.P,R13,1*%
%TO.N,GND*%
X144775000Y-73025000D03*
D13*
%TO.P,R13,2*%
%TO.N,Net-(D11-Pad1)*%
X144775000Y-65405000D03*
%TD*%
D12*
%TO.P,R12,1*%
%TO.N,GND*%
X149855000Y-73025000D03*
D13*
%TO.P,R12,2*%
%TO.N,Net-(D10-Pad1)*%
X149855000Y-65405000D03*
%TD*%
D12*
%TO.P,R11,1*%
%TO.N,GND*%
X154935000Y-73025000D03*
D13*
%TO.P,R11,2*%
%TO.N,Net-(D9-Pad1)*%
X154935000Y-65405000D03*
%TD*%
D12*
%TO.P,R10,1*%
%TO.N,GND*%
X160015000Y-73025000D03*
D13*
%TO.P,R10,2*%
%TO.N,Net-(D8-Pad1)*%
X160015000Y-65405000D03*
%TD*%
D12*
%TO.P,R9,1*%
%TO.N,GND*%
X165095000Y-73025000D03*
D13*
%TO.P,R9,2*%
%TO.N,Net-(D7-Pad1)*%
X165095000Y-65405000D03*
%TD*%
D12*
%TO.P,R8,1*%
%TO.N,GND*%
X170175000Y-73025000D03*
D13*
%TO.P,R8,2*%
%TO.N,Net-(D6-Pad1)*%
X170175000Y-65405000D03*
%TD*%
D12*
%TO.P,R7,1*%
%TO.N,GND*%
X175255000Y-73025000D03*
D13*
%TO.P,R7,2*%
%TO.N,Net-(D5-Pad1)*%
X175255000Y-65405000D03*
%TD*%
D12*
%TO.P,R6,1*%
%TO.N,GND*%
X180335000Y-73025000D03*
D13*
%TO.P,R6,2*%
%TO.N,Net-(D4-Pad1)*%
X180335000Y-65405000D03*
%TD*%
D12*
%TO.P,R5,1*%
%TO.N,GND*%
X185415000Y-73025000D03*
D13*
%TO.P,R5,2*%
%TO.N,Net-(D3-Pad1)*%
X185415000Y-65405000D03*
%TD*%
D12*
%TO.P,R2,1*%
%TO.N,/STATUSHI*%
X120015000Y-90170000D03*
D13*
%TO.P,R2,2*%
%TO.N,VCC*%
X112395000Y-90170000D03*
%TD*%
D12*
%TO.P,R1,1*%
%TO.N,/STATUSLO*%
X153035000Y-90170000D03*
D13*
%TO.P,R1,2*%
%TO.N,VCC*%
X145415000Y-90170000D03*
%TD*%
D14*
%TO.P,J1,64,Pin_64*%
%TO.N,/D2*%
X107766000Y-141982000D03*
%TO.P,J1,63,Pin_63*%
%TO.N,/D1*%
X107766000Y-139442000D03*
%TO.P,J1,62,Pin_62*%
%TO.N,/D3*%
X110306000Y-141982000D03*
%TO.P,J1,61,Pin_61*%
%TO.N,/D0*%
X110306000Y-139442000D03*
%TO.P,J1,60,Pin_60*%
%TO.N,/D4*%
X112846000Y-141982000D03*
%TO.P,J1,59,Pin_59*%
%TO.N,/R~{W}*%
X112846000Y-139442000D03*
%TO.P,J1,58,Pin_58*%
%TO.N,/D5*%
X115386000Y-141982000D03*
%TO.P,J1,57,Pin_57*%
%TO.N,/~{DTACK}*%
X115386000Y-139442000D03*
%TO.P,J1,56,Pin_56*%
%TO.N,/D6*%
X117926000Y-141982000D03*
%TO.P,J1,55,Pin_55*%
%TO.N,/~{BR}*%
X117926000Y-139442000D03*
%TO.P,J1,54,Pin_54*%
%TO.N,/D7*%
X120466000Y-141982000D03*
%TO.P,J1,53,Pin_53*%
%TO.N,/~{BGACK}*%
X120466000Y-139442000D03*
%TO.P,J1,52,Pin_52*%
%TO.N,/D8*%
X123006000Y-141982000D03*
%TO.P,J1,51,Pin_51*%
%TO.N,/~{BG}*%
X123006000Y-139442000D03*
%TO.P,J1,50,Pin_50*%
%TO.N,/D9*%
X125546000Y-141982000D03*
%TO.P,J1,49,Pin_49*%
%TO.N,/~{BERR}*%
X125546000Y-139442000D03*
%TO.P,J1,48,Pin_48*%
%TO.N,/D10*%
X128086000Y-141982000D03*
%TO.P,J1,47,Pin_47*%
%TO.N,/~{AS}*%
X128086000Y-139442000D03*
%TO.P,J1,46,Pin_46*%
%TO.N,/D11*%
X130626000Y-141982000D03*
%TO.P,J1,45,Pin_45*%
%TO.N,/A23*%
X130626000Y-139442000D03*
%TO.P,J1,44,Pin_44*%
%TO.N,/D12*%
X133166000Y-141982000D03*
%TO.P,J1,43,Pin_43*%
%TO.N,/A22*%
X133166000Y-139442000D03*
%TO.P,J1,42,Pin_42*%
%TO.N,/D13*%
X135706000Y-141982000D03*
%TO.P,J1,41,Pin_41*%
%TO.N,/A21*%
X135706000Y-139442000D03*
%TO.P,J1,40,Pin_40*%
%TO.N,/D14*%
X138246000Y-141982000D03*
%TO.P,J1,39,Pin_39*%
%TO.N,/A20*%
X138246000Y-139442000D03*
%TO.P,J1,38,Pin_38*%
%TO.N,/D15*%
X140786000Y-141982000D03*
%TO.P,J1,37,Pin_37*%
%TO.N,/A19*%
X140786000Y-139442000D03*
%TO.P,J1,36,Pin_36*%
%TO.N,/~{RESET}*%
X143326000Y-141982000D03*
%TO.P,J1,35,Pin_35*%
%TO.N,/A18*%
X143326000Y-139442000D03*
%TO.P,J1,34,Pin_34*%
%TO.N,/~{UDS}*%
X145866000Y-141982000D03*
%TO.P,J1,33,Pin_33*%
%TO.N,/A17*%
X145866000Y-139442000D03*
%TO.P,J1,32,Pin_32*%
%TO.N,/~{LDS}*%
X148406000Y-141982000D03*
%TO.P,J1,31,Pin_31*%
%TO.N,/A16*%
X148406000Y-139442000D03*
%TO.P,J1,30,Pin_30*%
%TO.N,/~{IRQ6}*%
X150946000Y-141982000D03*
%TO.P,J1,29,Pin_29*%
%TO.N,/A15*%
X150946000Y-139442000D03*
%TO.P,J1,28,Pin_28*%
%TO.N,/~{IRQ2}*%
X153486000Y-141982000D03*
%TO.P,J1,27,Pin_27*%
%TO.N,/A14*%
X153486000Y-139442000D03*
%TO.P,J1,26,Pin_26*%
%TO.N,/~{IRQ5}*%
X156026000Y-141982000D03*
%TO.P,J1,25,Pin_25*%
%TO.N,/A13*%
X156026000Y-139442000D03*
%TO.P,J1,24,Pin_24*%
%TO.N,/FC2*%
X158566000Y-141982000D03*
%TO.P,J1,23,Pin_23*%
%TO.N,/A12*%
X158566000Y-139442000D03*
%TO.P,J1,22,Pin_22*%
%TO.N,/FC1*%
X161106000Y-141982000D03*
%TO.P,J1,21,Pin_21*%
%TO.N,/A11*%
X161106000Y-139442000D03*
%TO.P,J1,20,Pin_20*%
%TO.N,/FC0*%
X163646000Y-141982000D03*
%TO.P,J1,19,Pin_19*%
%TO.N,/A10*%
X163646000Y-139442000D03*
%TO.P,J1,18,Pin_18*%
%TO.N,/~{IRQ4}*%
X166186000Y-141982000D03*
%TO.P,J1,17,Pin_17*%
%TO.N,/A9*%
X166186000Y-139442000D03*
%TO.P,J1,16,Pin_16*%
%TO.N,/~{HALT}*%
X168726000Y-141982000D03*
%TO.P,J1,15,Pin_15*%
%TO.N,/A8*%
X168726000Y-139442000D03*
%TO.P,J1,14,Pin_14*%
%TO.N,/~{IRQ3}*%
X171266000Y-141982000D03*
%TO.P,J1,13,Pin_13*%
%TO.N,/A7*%
X171266000Y-139442000D03*
%TO.P,J1,12,Pin_12*%
%TO.N,/~{IOSEL}*%
X173806000Y-141982000D03*
%TO.P,J1,11,Pin_11*%
%TO.N,/A6*%
X173806000Y-139442000D03*
%TO.P,J1,10,Pin_10*%
%TO.N,/~{IACK}*%
X176346000Y-141982000D03*
%TO.P,J1,9,Pin_9*%
%TO.N,/A5*%
X176346000Y-139442000D03*
%TO.P,J1,8,Pin_8*%
%TO.N,/~{VMA}*%
X178886000Y-141982000D03*
%TO.P,J1,7,Pin_7*%
%TO.N,/A4*%
X178886000Y-139442000D03*
%TO.P,J1,6,Pin_6*%
%TO.N,GND*%
X181426000Y-141982000D03*
%TO.P,J1,5,Pin_5*%
%TO.N,/A3*%
X181426000Y-139442000D03*
%TO.P,J1,4,Pin_4*%
%TO.N,/CLK*%
X183966000Y-141982000D03*
%TO.P,J1,3,Pin_3*%
%TO.N,/A2*%
X183966000Y-139442000D03*
%TO.P,J1,2,Pin_2*%
%TO.N,VCC*%
X186506000Y-141982000D03*
D15*
%TO.P,J1,1,Pin_1*%
%TO.N,/A1*%
X186506000Y-139442000D03*
%TD*%
D16*
%TO.P,D18,1,K*%
%TO.N,Net-(D18-Pad1)*%
X107945000Y-60325000D03*
D17*
%TO.P,D18,2,A*%
%TO.N,Net-(D18-Pad2)*%
X110485000Y-60325000D03*
%TD*%
D16*
%TO.P,D17,1,K*%
%TO.N,Net-(D17-Pad1)*%
X113025000Y-60325000D03*
D17*
%TO.P,D17,2,A*%
%TO.N,Net-(D17-Pad2)*%
X115565000Y-60325000D03*
%TD*%
D16*
%TO.P,D16,1,K*%
%TO.N,Net-(D16-Pad1)*%
X118105000Y-60325000D03*
D17*
%TO.P,D16,2,A*%
%TO.N,Net-(D16-Pad2)*%
X120645000Y-60325000D03*
%TD*%
D16*
%TO.P,D15,1,K*%
%TO.N,Net-(D15-Pad1)*%
X123185000Y-60325000D03*
D17*
%TO.P,D15,2,A*%
%TO.N,Net-(D15-Pad2)*%
X125725000Y-60325000D03*
%TD*%
D16*
%TO.P,D14,1,K*%
%TO.N,Net-(D14-Pad1)*%
X128265000Y-60325000D03*
D17*
%TO.P,D14,2,A*%
%TO.N,Net-(D14-Pad2)*%
X130805000Y-60325000D03*
%TD*%
D16*
%TO.P,D13,1,K*%
%TO.N,Net-(D13-Pad1)*%
X133345000Y-60325000D03*
D17*
%TO.P,D13,2,A*%
%TO.N,Net-(D13-Pad2)*%
X135885000Y-60325000D03*
%TD*%
D16*
%TO.P,D12,1,K*%
%TO.N,Net-(D12-Pad1)*%
X138425000Y-60325000D03*
D17*
%TO.P,D12,2,A*%
%TO.N,Net-(D12-Pad2)*%
X140965000Y-60325000D03*
%TD*%
D16*
%TO.P,D11,1,K*%
%TO.N,Net-(D11-Pad1)*%
X143505000Y-60325000D03*
D17*
%TO.P,D11,2,A*%
%TO.N,Net-(D11-Pad2)*%
X146045000Y-60325000D03*
%TD*%
D16*
%TO.P,D10,1,K*%
%TO.N,Net-(D10-Pad1)*%
X148585000Y-60325000D03*
D17*
%TO.P,D10,2,A*%
%TO.N,Net-(D10-Pad2)*%
X151125000Y-60325000D03*
%TD*%
D16*
%TO.P,D9,1,K*%
%TO.N,Net-(D9-Pad1)*%
X153665000Y-60325000D03*
D17*
%TO.P,D9,2,A*%
%TO.N,Net-(D9-Pad2)*%
X156205000Y-60325000D03*
%TD*%
D16*
%TO.P,D8,1,K*%
%TO.N,Net-(D8-Pad1)*%
X158745000Y-60325000D03*
D17*
%TO.P,D8,2,A*%
%TO.N,Net-(D8-Pad2)*%
X161285000Y-60325000D03*
%TD*%
D16*
%TO.P,D7,1,K*%
%TO.N,Net-(D7-Pad1)*%
X163825000Y-60325000D03*
D17*
%TO.P,D7,2,A*%
%TO.N,Net-(D7-Pad2)*%
X166365000Y-60325000D03*
%TD*%
D16*
%TO.P,D6,1,K*%
%TO.N,Net-(D6-Pad1)*%
X168905000Y-60325000D03*
D17*
%TO.P,D6,2,A*%
%TO.N,Net-(D6-Pad2)*%
X171445000Y-60325000D03*
%TD*%
D16*
%TO.P,D5,1,K*%
%TO.N,Net-(D5-Pad1)*%
X173985000Y-60325000D03*
D17*
%TO.P,D5,2,A*%
%TO.N,Net-(D5-Pad2)*%
X176525000Y-60325000D03*
%TD*%
D16*
%TO.P,D4,1,K*%
%TO.N,Net-(D4-Pad1)*%
X179065000Y-60325000D03*
D17*
%TO.P,D4,2,A*%
%TO.N,Net-(D4-Pad2)*%
X181605000Y-60325000D03*
%TD*%
D16*
%TO.P,D3,1,K*%
%TO.N,Net-(D3-Pad1)*%
X184145000Y-60325000D03*
D17*
%TO.P,D3,2,A*%
%TO.N,Net-(D3-Pad2)*%
X186685000Y-60325000D03*
%TD*%
D12*
%TO.P,C3,1*%
%TO.N,VCC*%
X132715000Y-99715000D03*
%TO.P,C3,2*%
%TO.N,GND*%
X132715000Y-102215000D03*
%TD*%
%TO.P,C2,2*%
%TO.N,GND*%
X99695000Y-102215000D03*
%TO.P,C2,1*%
%TO.N,VCC*%
X99695000Y-99715000D03*
%TD*%
%TO.P,C1,2*%
%TO.N,GND*%
X165735000Y-102215000D03*
%TO.P,C1,1*%
%TO.N,VCC*%
X165735000Y-99715000D03*
%TD*%
D18*
%TO.N,/D13*%
X128775700Y-137998400D03*
%TO.N,/D14*%
X126988000Y-137273000D03*
%TD*%
D19*
%TO.N,/STATUSHI*%
X127005000Y-97145000D02*
X127005000Y-95619700D01*
X177805000Y-97145000D02*
X177805000Y-95619700D01*
X171229900Y-89044600D02*
X177805000Y-95619700D01*
X133580100Y-89044600D02*
X171229900Y-89044600D01*
X127005000Y-95619700D02*
X133580100Y-89044600D01*
X121555300Y-90170000D02*
X120015000Y-90170000D01*
X127005000Y-95619700D02*
X121555300Y-90170000D01*
%TO.N,/STATUSLO*%
X154575300Y-90170000D02*
X160025000Y-95619700D01*
X153035000Y-90170000D02*
X154575300Y-90170000D01*
X160025000Y-97145000D02*
X160025000Y-95619700D01*
X175265000Y-95619700D02*
X160025000Y-95619700D01*
X175265000Y-97145000D02*
X175265000Y-95619700D01*
%TO.N,/D2*%
X144309400Y-106290300D02*
X152405000Y-106290300D01*
X143515000Y-105495900D02*
X144309400Y-106290300D01*
X143515000Y-103979000D02*
X143515000Y-105495900D01*
X142775700Y-103239700D02*
X143515000Y-103979000D01*
X141765800Y-103239700D02*
X142775700Y-103239700D01*
X140830400Y-104175100D02*
X141765800Y-103239700D01*
X140830400Y-105839800D02*
X140830400Y-104175100D01*
X108941300Y-137728900D02*
X140830400Y-105839800D01*
X108941300Y-139998800D02*
X108941300Y-137728900D01*
X108133400Y-140806700D02*
X108941300Y-139998800D01*
X107766000Y-140806700D02*
X108133400Y-140806700D01*
X107766000Y-141982000D02*
X107766000Y-140806700D01*
X152405000Y-104765000D02*
X152405000Y-106290300D01*
%TO.N,/D1*%
X107766000Y-139442000D02*
X107766000Y-138266700D01*
X144785000Y-104765000D02*
X144785000Y-103239700D01*
X138481400Y-107551300D02*
X107766000Y-138266700D01*
X138481400Y-103996100D02*
X138481400Y-107551300D01*
X139688100Y-102789400D02*
X138481400Y-103996100D01*
X144334700Y-102789400D02*
X139688100Y-102789400D01*
X144785000Y-103239700D02*
X144334700Y-102789400D01*
%TO.N,/D3*%
X152810600Y-106899400D02*
X154945000Y-104765000D01*
X143711800Y-106899400D02*
X152810600Y-106899400D01*
X111481300Y-139129900D02*
X143711800Y-106899400D01*
X111481300Y-139998800D02*
X111481300Y-139129900D01*
X110673400Y-140806700D02*
X111481300Y-139998800D01*
X110306000Y-140806700D02*
X110673400Y-140806700D01*
X110306000Y-141982000D02*
X110306000Y-140806700D01*
%TO.N,/D0*%
X110306000Y-139442000D02*
X110306000Y-138266700D01*
X110306000Y-138229300D02*
X110306000Y-138266700D01*
X142245000Y-106290300D02*
X110306000Y-138229300D01*
X142245000Y-104765000D02*
X142245000Y-106290300D01*
%TO.N,/D4*%
X154945000Y-97145000D02*
X154945000Y-98670300D01*
X112846000Y-141982000D02*
X112846000Y-140806700D01*
X113213400Y-140806700D02*
X112846000Y-140806700D01*
X114021300Y-139998800D02*
X113213400Y-140806700D01*
X114021300Y-139140400D02*
X114021300Y-139998800D01*
X118361700Y-134800000D02*
X114021300Y-139140400D01*
X126914200Y-134800000D02*
X118361700Y-134800000D01*
X156094400Y-105619800D02*
X126914200Y-134800000D01*
X156094400Y-99819700D02*
X156094400Y-105619800D01*
X154945000Y-98670300D02*
X156094400Y-99819700D01*
%TO.N,/R~{W}*%
X145011700Y-136543600D02*
X175265000Y-106290300D01*
X126614500Y-136543600D02*
X145011700Y-136543600D01*
X124891500Y-138266600D02*
X126614500Y-136543600D01*
X119958500Y-138266600D02*
X124891500Y-138266600D01*
X119196000Y-139029100D02*
X119958500Y-138266600D01*
X119196000Y-139873000D02*
X119196000Y-139029100D01*
X118451600Y-140617400D02*
X119196000Y-139873000D01*
X115066400Y-140617400D02*
X118451600Y-140617400D01*
X114149400Y-141534400D02*
X115066400Y-140617400D01*
X114149400Y-142407900D02*
X114149400Y-141534400D01*
X113345100Y-143212200D02*
X114149400Y-142407900D01*
X112411300Y-143212200D02*
X113345100Y-143212200D01*
X111665900Y-142466800D02*
X112411300Y-143212200D01*
X111665900Y-140622100D02*
X111665900Y-142466800D01*
X112846000Y-139442000D02*
X111665900Y-140622100D01*
X175265000Y-104765000D02*
X175265000Y-106290300D01*
%TO.N,/~{DTACK}*%
X170351300Y-101044000D02*
X172725000Y-98670300D01*
X161739700Y-101044000D02*
X170351300Y-101044000D01*
X158755000Y-104028700D02*
X161739700Y-101044000D01*
X158755000Y-105535200D02*
X158755000Y-104028700D01*
X157626900Y-106663300D02*
X158755000Y-105535200D01*
X155764600Y-106663300D02*
X157626900Y-106663300D01*
X124611700Y-137816200D02*
X155764600Y-106663300D01*
X117819800Y-137816200D02*
X124611700Y-137816200D01*
X116561300Y-139074700D02*
X117819800Y-137816200D01*
X116561300Y-139442000D02*
X116561300Y-139074700D01*
X115386000Y-139442000D02*
X116561300Y-139442000D01*
X172725000Y-97145000D02*
X172725000Y-98670300D01*
%TO.N,/D13*%
X129356000Y-138578700D02*
X128775700Y-137998400D01*
X129356000Y-139912700D02*
X129356000Y-138578700D01*
X130060700Y-140617400D02*
X129356000Y-139912700D01*
X130985600Y-140617400D02*
X130060700Y-140617400D01*
X131990600Y-141622400D02*
X130985600Y-140617400D01*
X131990600Y-142471100D02*
X131990600Y-141622400D01*
X132678300Y-143158800D02*
X131990600Y-142471100D01*
X133721200Y-143158800D02*
X132678300Y-143158800D01*
X134530700Y-142349300D02*
X133721200Y-143158800D01*
X134530700Y-141982000D02*
X134530700Y-142349300D01*
X135706000Y-141982000D02*
X134530700Y-141982000D01*
%TO.N,/D14*%
X138246000Y-141982000D02*
X137070700Y-141982000D01*
X132675500Y-137273000D02*
X126988000Y-137273000D01*
X134436000Y-139033500D02*
X132675500Y-137273000D01*
X134436000Y-139873000D02*
X134436000Y-139033500D01*
X135369700Y-140806700D02*
X134436000Y-139873000D01*
X136262800Y-140806700D02*
X135369700Y-140806700D01*
X137070700Y-141614600D02*
X136262800Y-140806700D01*
X137070700Y-141982000D02*
X137070700Y-141614600D01*
%TO.N,/A18*%
X144303300Y-138266700D02*
X177805000Y-104765000D01*
X143326000Y-138266700D02*
X144303300Y-138266700D01*
X143326000Y-139442000D02*
X143326000Y-138266700D01*
%TO.N,/A17*%
X145866000Y-139442000D02*
X145866000Y-138266700D01*
X180345000Y-104765000D02*
X180345000Y-106290300D01*
X177842400Y-106290300D02*
X180345000Y-106290300D01*
X145866000Y-138266700D02*
X177842400Y-106290300D01*
%TO.N,/A16*%
X149383300Y-138266700D02*
X182885000Y-104765000D01*
X148406000Y-138266700D02*
X149383300Y-138266700D01*
X148406000Y-139442000D02*
X148406000Y-138266700D01*
%TO.N,/A15*%
X182922400Y-106290300D02*
X185425000Y-106290300D01*
X150946000Y-138266700D02*
X182922400Y-106290300D01*
X150946000Y-139442000D02*
X150946000Y-138266700D01*
X185425000Y-104765000D02*
X185425000Y-106290300D01*
%TO.N,/A14*%
X155988600Y-138266700D02*
X187965000Y-106290300D01*
X153486000Y-138266700D02*
X155988600Y-138266700D01*
X153486000Y-139442000D02*
X153486000Y-138266700D01*
X187965000Y-104765000D02*
X187965000Y-106290300D01*
%TO.N,/~{IOSEL}*%
X174981300Y-121814000D02*
X190505000Y-106290300D01*
X174981300Y-139998800D02*
X174981300Y-121814000D01*
X174173400Y-140806700D02*
X174981300Y-139998800D01*
X173806000Y-140806700D02*
X174173400Y-140806700D01*
X173806000Y-141982000D02*
X173806000Y-140806700D01*
X190505000Y-104765000D02*
X190505000Y-106290300D01*
%TO.N,Net-(D18-Pad1)*%
X107945000Y-63009700D02*
X109215000Y-64279700D01*
X107945000Y-60325000D02*
X107945000Y-63009700D01*
X109215000Y-65405000D02*
X109215000Y-64279700D01*
%TO.N,Net-(D16-Pad1)*%
X119375000Y-62820300D02*
X119375000Y-65405000D01*
X118105000Y-61550300D02*
X119375000Y-62820300D01*
X118105000Y-60325000D02*
X118105000Y-61550300D01*
%TO.N,Net-(D11-Pad2)*%
X103016200Y-99570900D02*
X106685000Y-103239700D01*
X103016200Y-96070200D02*
X103016200Y-99570900D01*
X110204900Y-88881500D02*
X103016200Y-96070200D01*
X122198800Y-88881500D02*
X110204900Y-88881500D01*
X140196500Y-70883800D02*
X122198800Y-88881500D01*
X140894900Y-70883800D02*
X140196500Y-70883800D01*
X146045000Y-65733700D02*
X140894900Y-70883800D01*
X146045000Y-60325000D02*
X146045000Y-65733700D01*
X106685000Y-104765000D02*
X106685000Y-103239700D01*
%TO.N,Net-(D11-Pad1)*%
X144775000Y-62820300D02*
X144775000Y-65405000D01*
X143505000Y-61550300D02*
X144775000Y-62820300D01*
X143505000Y-60325000D02*
X143505000Y-61550300D01*
%TO.N,Net-(D4-Pad1)*%
X180335000Y-62820300D02*
X180335000Y-65405000D01*
X179065000Y-61550300D02*
X180335000Y-62820300D01*
X179065000Y-60325000D02*
X179065000Y-61550300D01*
%TO.N,GND*%
X137165000Y-104765000D02*
X137165000Y-103239700D01*
X180335000Y-73025000D02*
X175255000Y-73025000D01*
X175255000Y-73025000D02*
X170175000Y-73025000D01*
X170175000Y-73025000D02*
X165095000Y-73025000D01*
X165095000Y-73025000D02*
X160015000Y-73025000D01*
X160015000Y-73025000D02*
X154935000Y-73025000D01*
X134615000Y-73025000D02*
X129535000Y-73025000D01*
X129535000Y-73025000D02*
X124455000Y-73025000D01*
X124455000Y-73025000D02*
X119375000Y-73025000D01*
X119375000Y-73025000D02*
X114295000Y-73025000D01*
X114295000Y-73025000D02*
X109215000Y-73025000D01*
X163185000Y-104765000D02*
X165735000Y-102215000D01*
X160025000Y-104765000D02*
X163185000Y-104765000D01*
X104145000Y-104765000D02*
X104145000Y-106290300D01*
X127005000Y-106290300D02*
X104145000Y-106290300D01*
X127005000Y-104765000D02*
X127005000Y-106290300D01*
X103120300Y-102215000D02*
X104145000Y-103239700D01*
X99695000Y-102215000D02*
X103120300Y-102215000D01*
X104145000Y-104765000D02*
X104145000Y-103239700D01*
X136140300Y-102215000D02*
X137165000Y-103239700D01*
X132715000Y-102215000D02*
X136140300Y-102215000D01*
X130165000Y-104765000D02*
X127005000Y-104765000D01*
X132715000Y-102215000D02*
X130165000Y-104765000D01*
X144775000Y-73025000D02*
X139695000Y-73025000D01*
X193045000Y-104765000D02*
X193045000Y-103239700D01*
X182601300Y-116734000D02*
X193045000Y-106290300D01*
X182601300Y-139998800D02*
X182601300Y-116734000D01*
X181793400Y-140806700D02*
X182601300Y-139998800D01*
X181426000Y-140806700D02*
X181793400Y-140806700D01*
X181426000Y-141982000D02*
X181426000Y-140806700D01*
X193045000Y-104765000D02*
X193045000Y-106290300D01*
X154935000Y-73025000D02*
X149855000Y-73025000D01*
X149855000Y-73025000D02*
X144775000Y-73025000D01*
X179051800Y-102215000D02*
X165735000Y-102215000D01*
X181615000Y-99651800D02*
X179051800Y-102215000D01*
X189457100Y-99651800D02*
X181615000Y-99651800D01*
X193045000Y-103239700D02*
X189457100Y-99651800D01*
X184135000Y-74305000D02*
X185415000Y-73025000D01*
X181615000Y-74305000D02*
X184135000Y-74305000D01*
X181615000Y-99651800D02*
X181615000Y-74305000D01*
X181615000Y-74305000D02*
X180335000Y-73025000D01*
%TO.N,VCC*%
X170185000Y-97145000D02*
X170185000Y-98670300D01*
X105820000Y-95619700D02*
X111269700Y-90170000D01*
X104145000Y-95619700D02*
X105820000Y-95619700D01*
X104145000Y-97145000D02*
X104145000Y-95619700D01*
X112395000Y-90170000D02*
X111269700Y-90170000D01*
X137165000Y-97145000D02*
X137165000Y-97578500D01*
X145415000Y-90170000D02*
X144289700Y-90170000D01*
X144289700Y-90453800D02*
X137165000Y-97578500D01*
X144289700Y-90170000D02*
X144289700Y-90453800D01*
X145415000Y-90170000D02*
X146540300Y-90170000D01*
X165735000Y-99715000D02*
X165735000Y-99554500D01*
X169300800Y-99554500D02*
X165735000Y-99554500D01*
X170185000Y-98670300D02*
X169300800Y-99554500D01*
X147665600Y-91295300D02*
X146540300Y-90170000D01*
X153631400Y-91295300D02*
X147665600Y-91295300D01*
X158755000Y-96418900D02*
X153631400Y-91295300D01*
X158755000Y-97899200D02*
X158755000Y-96418900D01*
X160410300Y-99554500D02*
X158755000Y-97899200D01*
X165735000Y-99554500D02*
X160410300Y-99554500D01*
X135028500Y-99715000D02*
X132715000Y-99715000D01*
X137165000Y-97578500D02*
X135028500Y-99715000D01*
X114645600Y-91295300D02*
X113520300Y-90170000D01*
X120639000Y-91295300D02*
X114645600Y-91295300D01*
X125735000Y-96391300D02*
X120639000Y-91295300D01*
X125735000Y-97873900D02*
X125735000Y-96391300D01*
X127576100Y-99715000D02*
X125735000Y-97873900D01*
X132715000Y-99715000D02*
X127576100Y-99715000D01*
X112395000Y-90170000D02*
X113520300Y-90170000D01*
%TD*%
M02*
