G04 #@! TF.GenerationSoftware,KiCad,Pcbnew,(6.0.2)*
G04 #@! TF.CreationDate,2022-11-06T15:06:24-08:00*
G04 #@! TF.ProjectId,CPU Board,43505520-426f-4617-9264-2e6b69636164,1.0*
G04 #@! TF.SameCoordinates,Original*
G04 #@! TF.FileFunction,Legend,Bot*
G04 #@! TF.FilePolarity,Positive*
%FSLAX46Y46*%
G04 Gerber Fmt 4.6, Leading zero omitted, Abs format (unit mm)*
G04 Created by KiCad (PCBNEW (6.0.2)) date 2022-11-06 15:06:24*
%MOMM*%
%LPD*%
G01*
G04 APERTURE LIST*
%ADD10O,1.700000X1.700000*%
%ADD11R,1.700000X1.700000*%
%ADD12C,3.200000*%
%ADD13C,1.600000*%
%ADD14O,1.600000X1.600000*%
%ADD15R,2.400000X1.600000*%
%ADD16O,2.400000X1.600000*%
%ADD17R,1.600000X1.600000*%
G04 APERTURE END LIST*
%LPC*%
D10*
X185928000Y-132588000D03*
X185928000Y-130048000D03*
X185928000Y-127508000D03*
X185928000Y-124968000D03*
X185928000Y-122428000D03*
X185928000Y-119888000D03*
X185928000Y-117348000D03*
X185928000Y-114808000D03*
D11*
X185928000Y-112268000D03*
D12*
X192532000Y-50419000D03*
X192532000Y-142621000D03*
X106172000Y-50419000D03*
X106172000Y-142621000D03*
D13*
X117800000Y-82150000D03*
D14*
X110180000Y-82150000D03*
D13*
X172222000Y-114046000D03*
X174722000Y-114046000D03*
D15*
X169620000Y-55940000D03*
D16*
X169620000Y-58480000D03*
X169620000Y-61020000D03*
X169620000Y-63560000D03*
X169620000Y-66100000D03*
X169620000Y-68640000D03*
X169620000Y-71180000D03*
X169620000Y-73720000D03*
X177240000Y-73720000D03*
X177240000Y-71180000D03*
X177240000Y-68640000D03*
X177240000Y-66100000D03*
X177240000Y-63560000D03*
X177240000Y-61020000D03*
X177240000Y-58480000D03*
X177240000Y-55940000D03*
D13*
X110180000Y-87012000D03*
D14*
X117800000Y-87012000D03*
D17*
X137414000Y-143002000D03*
D13*
X137414000Y-135382000D03*
X129794000Y-135382000D03*
X129794000Y-143002000D03*
X172202000Y-80259000D03*
X174702000Y-80259000D03*
X109870000Y-97122000D03*
D14*
X117490000Y-97122000D03*
D11*
X103160000Y-135895000D03*
D10*
X100620000Y-135895000D03*
X103160000Y-133355000D03*
X100620000Y-133355000D03*
X103160000Y-130815000D03*
X100620000Y-130815000D03*
X103160000Y-128275000D03*
X100620000Y-128275000D03*
X103160000Y-125735000D03*
X100620000Y-125735000D03*
X103160000Y-123195000D03*
X100620000Y-123195000D03*
X103160000Y-120655000D03*
X100620000Y-120655000D03*
X103160000Y-118115000D03*
X100620000Y-118115000D03*
X103160000Y-115575000D03*
X100620000Y-115575000D03*
X103160000Y-113035000D03*
X100620000Y-113035000D03*
X103160000Y-110495000D03*
X100620000Y-110495000D03*
X103160000Y-107955000D03*
X100620000Y-107955000D03*
X103160000Y-105415000D03*
X100620000Y-105415000D03*
X103160000Y-102875000D03*
X100620000Y-102875000D03*
X103160000Y-100335000D03*
X100620000Y-100335000D03*
X103160000Y-97795000D03*
X100620000Y-97795000D03*
X103160000Y-95255000D03*
X100620000Y-95255000D03*
X103160000Y-92715000D03*
X100620000Y-92715000D03*
X103160000Y-90175000D03*
X100620000Y-90175000D03*
X103160000Y-87635000D03*
X100620000Y-87635000D03*
X103160000Y-85095000D03*
X100620000Y-85095000D03*
X103160000Y-82555000D03*
X100620000Y-82555000D03*
X103160000Y-80015000D03*
X100620000Y-80015000D03*
X103160000Y-77475000D03*
X100620000Y-77475000D03*
X103160000Y-74935000D03*
X100620000Y-74935000D03*
X103160000Y-72395000D03*
X100620000Y-72395000D03*
X103160000Y-69855000D03*
X100620000Y-69855000D03*
X103160000Y-67315000D03*
X100620000Y-67315000D03*
X103160000Y-64775000D03*
X100620000Y-64775000D03*
X103160000Y-62235000D03*
X100620000Y-62235000D03*
X103160000Y-59695000D03*
X100620000Y-59695000D03*
X103160000Y-57155000D03*
X100620000Y-57155000D03*
D13*
X184912000Y-74676000D03*
D14*
X184912000Y-67056000D03*
D13*
X174670000Y-51310000D03*
X172170000Y-51310000D03*
D15*
X169672000Y-84836000D03*
D16*
X169672000Y-87376000D03*
X169672000Y-89916000D03*
X169672000Y-92456000D03*
X169672000Y-94996000D03*
X169672000Y-97536000D03*
X169672000Y-100076000D03*
X169672000Y-102616000D03*
X169672000Y-105156000D03*
X169672000Y-107696000D03*
X177292000Y-107696000D03*
X177292000Y-105156000D03*
X177292000Y-102616000D03*
X177292000Y-100076000D03*
X177292000Y-97536000D03*
X177292000Y-94996000D03*
X177292000Y-92456000D03*
X177292000Y-89916000D03*
X177292000Y-87376000D03*
X177292000Y-84836000D03*
D13*
X162814000Y-70485000D03*
D14*
X162814000Y-62865000D03*
D13*
X162814000Y-51054000D03*
D14*
X162814000Y-58674000D03*
D15*
X169672000Y-118618000D03*
D16*
X169672000Y-121158000D03*
X169672000Y-123698000D03*
X169672000Y-126238000D03*
X169672000Y-128778000D03*
X169672000Y-131318000D03*
X169672000Y-133858000D03*
X169672000Y-136398000D03*
X169672000Y-138938000D03*
X169672000Y-141478000D03*
X177292000Y-141478000D03*
X177292000Y-138938000D03*
X177292000Y-136398000D03*
X177292000Y-133858000D03*
X177292000Y-131318000D03*
X177292000Y-128778000D03*
X177292000Y-126238000D03*
X177292000Y-123698000D03*
X177292000Y-121158000D03*
X177292000Y-118618000D03*
D13*
X150114000Y-80284000D03*
X150114000Y-82784000D03*
X109640000Y-109722000D03*
D14*
X117260000Y-109722000D03*
D13*
X143764000Y-140696000D03*
X143764000Y-138196000D03*
X109700000Y-105942000D03*
D14*
X117320000Y-105942000D03*
D15*
X122179000Y-50541000D03*
D16*
X122179000Y-53081000D03*
X122179000Y-55621000D03*
X122179000Y-58161000D03*
X122179000Y-60701000D03*
X122179000Y-63241000D03*
X122179000Y-65781000D03*
X122179000Y-68321000D03*
X122179000Y-70861000D03*
X122179000Y-73401000D03*
X122179000Y-75941000D03*
X122179000Y-78481000D03*
X122179000Y-81021000D03*
X122179000Y-83561000D03*
X122179000Y-86101000D03*
X122179000Y-88641000D03*
X122179000Y-91181000D03*
X122179000Y-93721000D03*
X122179000Y-96261000D03*
X122179000Y-98801000D03*
X122179000Y-101341000D03*
X122179000Y-103881000D03*
X122179000Y-106421000D03*
X122179000Y-108961000D03*
X122179000Y-111501000D03*
X122179000Y-114041000D03*
X122179000Y-116581000D03*
X122179000Y-119121000D03*
X122179000Y-121661000D03*
X122179000Y-124201000D03*
X122179000Y-126741000D03*
X122179000Y-129281000D03*
X145039000Y-129281000D03*
X145039000Y-126741000D03*
X145039000Y-124201000D03*
X145039000Y-121661000D03*
X145039000Y-119121000D03*
X145039000Y-116581000D03*
X145039000Y-114041000D03*
X145039000Y-111501000D03*
X145039000Y-108961000D03*
X145039000Y-106421000D03*
X145039000Y-103881000D03*
X145039000Y-101341000D03*
X145039000Y-98801000D03*
X145039000Y-96261000D03*
X145039000Y-93721000D03*
X145039000Y-91181000D03*
X145039000Y-88641000D03*
X145039000Y-86101000D03*
X145039000Y-83561000D03*
X145039000Y-81021000D03*
X145039000Y-78481000D03*
X145039000Y-75941000D03*
X145039000Y-73401000D03*
X145039000Y-70861000D03*
X145039000Y-68321000D03*
X145039000Y-65781000D03*
X145039000Y-63241000D03*
X145039000Y-60701000D03*
X145039000Y-58161000D03*
X145039000Y-55621000D03*
X145039000Y-53081000D03*
X145039000Y-50541000D03*
D13*
X116840000Y-76942000D03*
X116840000Y-74442000D03*
X162814000Y-82296000D03*
D14*
X162814000Y-74676000D03*
D13*
X184912000Y-55118000D03*
D14*
X184912000Y-62738000D03*
M02*
