G04 #@! TF.GenerationSoftware,KiCad,Pcbnew,(6.0.2)*
G04 #@! TF.CreationDate,2022-11-06T15:06:24-08:00*
G04 #@! TF.ProjectId,CPU Board,43505520-426f-4617-9264-2e6b69636164,1.0*
G04 #@! TF.SameCoordinates,Original*
G04 #@! TF.FileFunction,Copper,L2,Bot*
G04 #@! TF.FilePolarity,Positive*
%FSLAX46Y46*%
G04 Gerber Fmt 4.6, Leading zero omitted, Abs format (unit mm)*
G04 Created by KiCad (PCBNEW (6.0.2)) date 2022-11-06 15:06:24*
%MOMM*%
%LPD*%
G01*
G04 APERTURE LIST*
G04 #@! TA.AperFunction,ComponentPad*
%ADD10O,1.700000X1.700000*%
G04 #@! TD*
G04 #@! TA.AperFunction,ComponentPad*
%ADD11R,1.700000X1.700000*%
G04 #@! TD*
G04 #@! TA.AperFunction,ComponentPad*
%ADD12C,1.600000*%
G04 #@! TD*
G04 #@! TA.AperFunction,ComponentPad*
%ADD13O,1.600000X1.600000*%
G04 #@! TD*
G04 #@! TA.AperFunction,ComponentPad*
%ADD14R,2.400000X1.600000*%
G04 #@! TD*
G04 #@! TA.AperFunction,ComponentPad*
%ADD15O,2.400000X1.600000*%
G04 #@! TD*
G04 #@! TA.AperFunction,ComponentPad*
%ADD16R,1.600000X1.600000*%
G04 #@! TD*
G04 #@! TA.AperFunction,ViaPad*
%ADD17C,0.800000*%
G04 #@! TD*
G04 #@! TA.AperFunction,Conductor*
%ADD18C,0.254000*%
G04 #@! TD*
G04 APERTURE END LIST*
D10*
X185928000Y-132588000D03*
X185928000Y-130048000D03*
X185928000Y-127508000D03*
X185928000Y-124968000D03*
X185928000Y-122428000D03*
X185928000Y-119888000D03*
X185928000Y-117348000D03*
X185928000Y-114808000D03*
D11*
X185928000Y-112268000D03*
D12*
X117800000Y-82150000D03*
D13*
X110180000Y-82150000D03*
D12*
X172222000Y-114046000D03*
X174722000Y-114046000D03*
D14*
X169620000Y-55940000D03*
D15*
X169620000Y-58480000D03*
X169620000Y-61020000D03*
X169620000Y-63560000D03*
X169620000Y-66100000D03*
X169620000Y-68640000D03*
X169620000Y-71180000D03*
X169620000Y-73720000D03*
X177240000Y-73720000D03*
X177240000Y-71180000D03*
X177240000Y-68640000D03*
X177240000Y-66100000D03*
X177240000Y-63560000D03*
X177240000Y-61020000D03*
X177240000Y-58480000D03*
X177240000Y-55940000D03*
D12*
X110180000Y-87012000D03*
D13*
X117800000Y-87012000D03*
D16*
X137414000Y-143002000D03*
D12*
X137414000Y-135382000D03*
X129794000Y-135382000D03*
X129794000Y-143002000D03*
X172202000Y-80259000D03*
X174702000Y-80259000D03*
X109870000Y-97122000D03*
D13*
X117490000Y-97122000D03*
D11*
X103160000Y-135895000D03*
D10*
X100620000Y-135895000D03*
X103160000Y-133355000D03*
X100620000Y-133355000D03*
X103160000Y-130815000D03*
X100620000Y-130815000D03*
X103160000Y-128275000D03*
X100620000Y-128275000D03*
X103160000Y-125735000D03*
X100620000Y-125735000D03*
X103160000Y-123195000D03*
X100620000Y-123195000D03*
X103160000Y-120655000D03*
X100620000Y-120655000D03*
X103160000Y-118115000D03*
X100620000Y-118115000D03*
X103160000Y-115575000D03*
X100620000Y-115575000D03*
X103160000Y-113035000D03*
X100620000Y-113035000D03*
X103160000Y-110495000D03*
X100620000Y-110495000D03*
X103160000Y-107955000D03*
X100620000Y-107955000D03*
X103160000Y-105415000D03*
X100620000Y-105415000D03*
X103160000Y-102875000D03*
X100620000Y-102875000D03*
X103160000Y-100335000D03*
X100620000Y-100335000D03*
X103160000Y-97795000D03*
X100620000Y-97795000D03*
X103160000Y-95255000D03*
X100620000Y-95255000D03*
X103160000Y-92715000D03*
X100620000Y-92715000D03*
X103160000Y-90175000D03*
X100620000Y-90175000D03*
X103160000Y-87635000D03*
X100620000Y-87635000D03*
X103160000Y-85095000D03*
X100620000Y-85095000D03*
X103160000Y-82555000D03*
X100620000Y-82555000D03*
X103160000Y-80015000D03*
X100620000Y-80015000D03*
X103160000Y-77475000D03*
X100620000Y-77475000D03*
X103160000Y-74935000D03*
X100620000Y-74935000D03*
X103160000Y-72395000D03*
X100620000Y-72395000D03*
X103160000Y-69855000D03*
X100620000Y-69855000D03*
X103160000Y-67315000D03*
X100620000Y-67315000D03*
X103160000Y-64775000D03*
X100620000Y-64775000D03*
X103160000Y-62235000D03*
X100620000Y-62235000D03*
X103160000Y-59695000D03*
X100620000Y-59695000D03*
X103160000Y-57155000D03*
X100620000Y-57155000D03*
D12*
X184912000Y-74676000D03*
D13*
X184912000Y-67056000D03*
D12*
X174670000Y-51310000D03*
X172170000Y-51310000D03*
D14*
X169672000Y-84836000D03*
D15*
X169672000Y-87376000D03*
X169672000Y-89916000D03*
X169672000Y-92456000D03*
X169672000Y-94996000D03*
X169672000Y-97536000D03*
X169672000Y-100076000D03*
X169672000Y-102616000D03*
X169672000Y-105156000D03*
X169672000Y-107696000D03*
X177292000Y-107696000D03*
X177292000Y-105156000D03*
X177292000Y-102616000D03*
X177292000Y-100076000D03*
X177292000Y-97536000D03*
X177292000Y-94996000D03*
X177292000Y-92456000D03*
X177292000Y-89916000D03*
X177292000Y-87376000D03*
X177292000Y-84836000D03*
D12*
X162814000Y-70485000D03*
D13*
X162814000Y-62865000D03*
D12*
X162814000Y-51054000D03*
D13*
X162814000Y-58674000D03*
D14*
X169672000Y-118618000D03*
D15*
X169672000Y-121158000D03*
X169672000Y-123698000D03*
X169672000Y-126238000D03*
X169672000Y-128778000D03*
X169672000Y-131318000D03*
X169672000Y-133858000D03*
X169672000Y-136398000D03*
X169672000Y-138938000D03*
X169672000Y-141478000D03*
X177292000Y-141478000D03*
X177292000Y-138938000D03*
X177292000Y-136398000D03*
X177292000Y-133858000D03*
X177292000Y-131318000D03*
X177292000Y-128778000D03*
X177292000Y-126238000D03*
X177292000Y-123698000D03*
X177292000Y-121158000D03*
X177292000Y-118618000D03*
D12*
X150114000Y-80284000D03*
X150114000Y-82784000D03*
X109640000Y-109722000D03*
D13*
X117260000Y-109722000D03*
D12*
X143764000Y-140696000D03*
X143764000Y-138196000D03*
X109700000Y-105942000D03*
D13*
X117320000Y-105942000D03*
D14*
X122179000Y-50541000D03*
D15*
X122179000Y-53081000D03*
X122179000Y-55621000D03*
X122179000Y-58161000D03*
X122179000Y-60701000D03*
X122179000Y-63241000D03*
X122179000Y-65781000D03*
X122179000Y-68321000D03*
X122179000Y-70861000D03*
X122179000Y-73401000D03*
X122179000Y-75941000D03*
X122179000Y-78481000D03*
X122179000Y-81021000D03*
X122179000Y-83561000D03*
X122179000Y-86101000D03*
X122179000Y-88641000D03*
X122179000Y-91181000D03*
X122179000Y-93721000D03*
X122179000Y-96261000D03*
X122179000Y-98801000D03*
X122179000Y-101341000D03*
X122179000Y-103881000D03*
X122179000Y-106421000D03*
X122179000Y-108961000D03*
X122179000Y-111501000D03*
X122179000Y-114041000D03*
X122179000Y-116581000D03*
X122179000Y-119121000D03*
X122179000Y-121661000D03*
X122179000Y-124201000D03*
X122179000Y-126741000D03*
X122179000Y-129281000D03*
X145039000Y-129281000D03*
X145039000Y-126741000D03*
X145039000Y-124201000D03*
X145039000Y-121661000D03*
X145039000Y-119121000D03*
X145039000Y-116581000D03*
X145039000Y-114041000D03*
X145039000Y-111501000D03*
X145039000Y-108961000D03*
X145039000Y-106421000D03*
X145039000Y-103881000D03*
X145039000Y-101341000D03*
X145039000Y-98801000D03*
X145039000Y-96261000D03*
X145039000Y-93721000D03*
X145039000Y-91181000D03*
X145039000Y-88641000D03*
X145039000Y-86101000D03*
X145039000Y-83561000D03*
X145039000Y-81021000D03*
X145039000Y-78481000D03*
X145039000Y-75941000D03*
X145039000Y-73401000D03*
X145039000Y-70861000D03*
X145039000Y-68321000D03*
X145039000Y-65781000D03*
X145039000Y-63241000D03*
X145039000Y-60701000D03*
X145039000Y-58161000D03*
X145039000Y-55621000D03*
X145039000Y-53081000D03*
X145039000Y-50541000D03*
D12*
X116840000Y-76942000D03*
X116840000Y-74442000D03*
X162814000Y-82296000D03*
D13*
X162814000Y-74676000D03*
D12*
X184912000Y-55118000D03*
D13*
X184912000Y-62738000D03*
D17*
X106037500Y-137647600D03*
X132219500Y-89095400D03*
X161076500Y-94137600D03*
X131066000Y-87894200D03*
X119200000Y-85281000D03*
X111220000Y-69901000D03*
X116660500Y-71423800D03*
X156309000Y-114395400D03*
X157325700Y-113378600D03*
X113432800Y-71301200D03*
X108639900Y-80543600D03*
X106248400Y-89117900D03*
X125793000Y-90739700D03*
X107116900Y-108520700D03*
X136308000Y-79060600D03*
X135637300Y-80108900D03*
X124959600Y-89906700D03*
X170515000Y-113617600D03*
D18*
X107835900Y-139446000D02*
X106037500Y-137647600D01*
X144368200Y-139446000D02*
X107835900Y-139446000D01*
X145043500Y-140121300D02*
X144368200Y-139446000D01*
X180855300Y-140121300D02*
X145043500Y-140121300D01*
X187712300Y-133264300D02*
X180855300Y-140121300D01*
X187712300Y-96215000D02*
X187712300Y-133264300D01*
X178873300Y-87376000D02*
X187712300Y-96215000D01*
X177292000Y-87376000D02*
X178873300Y-87376000D01*
X122179000Y-111501000D02*
X123760300Y-111501000D01*
X132219500Y-103041800D02*
X132219500Y-89095400D01*
X123760300Y-111501000D02*
X132219500Y-103041800D01*
X161076500Y-78142200D02*
X168038700Y-71180000D01*
X161076500Y-94137600D02*
X161076500Y-78142200D01*
X169620000Y-71180000D02*
X168038700Y-71180000D01*
X122179000Y-106421000D02*
X123760300Y-106421000D01*
X131066000Y-99115300D02*
X131066000Y-87894200D01*
X123760300Y-106421000D02*
X131066000Y-99115300D01*
X162814000Y-74676000D02*
X162814000Y-73494700D01*
X169620000Y-61020000D02*
X168038700Y-61020000D01*
X100620000Y-100335000D02*
X100620000Y-99103700D01*
X165339200Y-70969500D02*
X165339200Y-63719500D01*
X162814000Y-73494700D02*
X165339200Y-70969500D01*
X165339200Y-63719500D02*
X168038700Y-61020000D01*
X100158300Y-99103700D02*
X100620000Y-99103700D01*
X98321300Y-97266700D02*
X100158300Y-99103700D01*
X98321300Y-56948100D02*
X98321300Y-97266700D01*
X102375500Y-52893900D02*
X98321300Y-56948100D01*
X106851000Y-52893900D02*
X102375500Y-52893900D01*
X111402100Y-48342800D02*
X106851000Y-52893900D01*
X149962500Y-48342800D02*
X111402100Y-48342800D01*
X165339200Y-63719500D02*
X149962500Y-48342800D01*
X100109800Y-101643700D02*
X100620000Y-101643700D01*
X97812900Y-99346800D02*
X100109800Y-101643700D01*
X97812900Y-55950100D02*
X97812900Y-99346800D01*
X105928600Y-47834400D02*
X97812900Y-55950100D01*
X170380800Y-47834400D02*
X105928600Y-47834400D01*
X173420000Y-50873600D02*
X170380800Y-47834400D01*
X173420000Y-63861300D02*
X173420000Y-50873600D01*
X175658700Y-66100000D02*
X173420000Y-63861300D01*
X177240000Y-66100000D02*
X175658700Y-66100000D01*
X100620000Y-102875000D02*
X100620000Y-101643700D01*
X179777300Y-67056000D02*
X178821300Y-66100000D01*
X184912000Y-67056000D02*
X179777300Y-67056000D01*
X177240000Y-66100000D02*
X178821300Y-66100000D01*
X165304700Y-58674000D02*
X168038700Y-55940000D01*
X162814000Y-58674000D02*
X165304700Y-58674000D01*
X169620000Y-55940000D02*
X168038700Y-55940000D01*
X177292000Y-84836000D02*
X175710700Y-84836000D01*
X109870000Y-87322000D02*
X109870000Y-97122000D01*
X110180000Y-87012000D02*
X109870000Y-87322000D01*
X100620000Y-135895000D02*
X100620000Y-134663700D01*
X109700000Y-97292000D02*
X109700000Y-105942000D01*
X109870000Y-97122000D02*
X109700000Y-97292000D01*
X109700000Y-109662000D02*
X109640000Y-109722000D01*
X109700000Y-105942000D02*
X109700000Y-109662000D01*
X110313300Y-80968700D02*
X116840000Y-74442000D01*
X110180000Y-80968700D02*
X110313300Y-80968700D01*
X110180000Y-82150000D02*
X110180000Y-80968700D01*
X100109800Y-134663700D02*
X100620000Y-134663700D01*
X98817400Y-133371300D02*
X100109800Y-134663700D01*
X98817400Y-118174500D02*
X98817400Y-133371300D01*
X100146900Y-116845000D02*
X98817400Y-118174500D01*
X101122100Y-116845000D02*
X100146900Y-116845000D01*
X101890000Y-116077100D02*
X101122100Y-116845000D01*
X101890000Y-115027300D02*
X101890000Y-116077100D01*
X102573700Y-114343600D02*
X101890000Y-115027300D01*
X105018400Y-114343600D02*
X102573700Y-114343600D01*
X109640000Y-109722000D02*
X105018400Y-114343600D01*
X175710700Y-96143400D02*
X175710700Y-84836000D01*
X170508100Y-101346000D02*
X175710700Y-96143400D01*
X168868500Y-101346000D02*
X170508100Y-101346000D01*
X167543900Y-102670600D02*
X168868500Y-101346000D01*
X167543900Y-109367900D02*
X167543900Y-102670600D01*
X172222000Y-114046000D02*
X167543900Y-109367900D01*
X163782700Y-81327300D02*
X162814000Y-82296000D01*
X172202000Y-81327300D02*
X163782700Y-81327300D01*
X172202000Y-80259000D02*
X172202000Y-81327300D01*
X172202000Y-81327300D02*
X175710700Y-84836000D01*
X120597700Y-101483000D02*
X117320000Y-104760700D01*
X120597700Y-101341000D02*
X120597700Y-101483000D01*
X122179000Y-101341000D02*
X120597700Y-101341000D01*
X117320000Y-105942000D02*
X117320000Y-104760700D01*
X103670200Y-68546300D02*
X103160000Y-68546300D01*
X106147400Y-71023500D02*
X103670200Y-68546300D01*
X106147400Y-79817800D02*
X106147400Y-71023500D01*
X113341600Y-87012000D02*
X106147400Y-79817800D01*
X117800000Y-87012000D02*
X113341600Y-87012000D01*
X103160000Y-67315000D02*
X103160000Y-68546300D01*
X120597700Y-83883300D02*
X119200000Y-85281000D01*
X120597700Y-81021000D02*
X120597700Y-83883300D01*
X122179000Y-81021000D02*
X120597700Y-81021000D01*
X122179000Y-78481000D02*
X120597700Y-78481000D01*
X114020900Y-69901000D02*
X111220000Y-69901000D01*
X120597700Y-76477800D02*
X114020900Y-69901000D01*
X120597700Y-78481000D02*
X120597700Y-76477800D01*
X117661800Y-71423800D02*
X116660500Y-71423800D01*
X122179000Y-75941000D02*
X117661800Y-71423800D01*
X100620000Y-118115000D02*
X101851300Y-118115000D01*
X117490000Y-97122000D02*
X117490000Y-98303300D01*
X101851300Y-117653200D02*
X101851300Y-118115000D01*
X102620800Y-116883700D02*
X101851300Y-117653200D01*
X104205600Y-116883700D02*
X102620800Y-116883700D01*
X111040600Y-110048700D02*
X104205600Y-116883700D01*
X111040600Y-104752700D02*
X111040600Y-110048700D01*
X117490000Y-98303300D02*
X111040600Y-104752700D01*
X120597700Y-92833000D02*
X117490000Y-95940700D01*
X120597700Y-91181000D02*
X120597700Y-92833000D01*
X122179000Y-91181000D02*
X120597700Y-91181000D01*
X117490000Y-97122000D02*
X117490000Y-95940700D01*
X168052300Y-104235700D02*
X169672000Y-102616000D01*
X168052300Y-105621900D02*
X168052300Y-104235700D01*
X168856400Y-106426000D02*
X168052300Y-105621900D01*
X170723200Y-106426000D02*
X168856400Y-106426000D01*
X181400400Y-117103200D02*
X170723200Y-106426000D01*
X181400400Y-124750800D02*
X181400400Y-117103200D01*
X185466300Y-128816700D02*
X181400400Y-124750800D01*
X185928000Y-128816700D02*
X185466300Y-128816700D01*
X185928000Y-130048000D02*
X185928000Y-128816700D01*
X184619400Y-126199400D02*
X185928000Y-127508000D01*
X184619400Y-118522100D02*
X184619400Y-126199400D01*
X171253300Y-105156000D02*
X184619400Y-118522100D01*
X169672000Y-105156000D02*
X171253300Y-105156000D01*
X122179000Y-73401000D02*
X123760300Y-73401000D01*
X122179000Y-73401000D02*
X120597700Y-73401000D01*
X123760300Y-73401000D02*
X123760300Y-79815900D01*
X120134100Y-79815900D02*
X117800000Y-82150000D01*
X123760300Y-79815900D02*
X120134100Y-79815900D01*
X111971700Y-64775000D02*
X103160000Y-64775000D01*
X120597700Y-73401000D02*
X111971700Y-64775000D01*
X147064600Y-105151000D02*
X156309000Y-114395400D01*
X144236600Y-105151000D02*
X147064600Y-105151000D01*
X133000800Y-93915200D02*
X144236600Y-105151000D01*
X133000800Y-88689500D02*
X133000800Y-93915200D01*
X124127200Y-79815900D02*
X133000800Y-88689500D01*
X123760300Y-79815900D02*
X124127200Y-79815900D01*
X111971700Y-62235000D02*
X120597700Y-70861000D01*
X103160000Y-62235000D02*
X111971700Y-62235000D01*
X121879400Y-70861000D02*
X120597700Y-70861000D01*
X121879400Y-70861000D02*
X122179000Y-70861000D01*
X146558100Y-102611000D02*
X157325700Y-113378600D01*
X144233700Y-102611000D02*
X146558100Y-102611000D01*
X140720800Y-99098100D02*
X144233700Y-102611000D01*
X140720800Y-89402800D02*
X140720800Y-99098100D01*
X122179000Y-70861000D02*
X140720800Y-89402800D01*
X122179000Y-68321000D02*
X123760300Y-68321000D01*
X169672000Y-136398000D02*
X168090700Y-136398000D01*
X113432800Y-75750700D02*
X108639900Y-80543600D01*
X113432800Y-71301200D02*
X113432800Y-75750700D01*
X123760300Y-69336600D02*
X123760300Y-68321000D01*
X142929400Y-88505700D02*
X123760300Y-69336600D01*
X142929400Y-96294500D02*
X142929400Y-88505700D01*
X144077900Y-97443000D02*
X142929400Y-96294500D01*
X145756600Y-97443000D02*
X144077900Y-97443000D01*
X158615300Y-110301700D02*
X145756600Y-97443000D01*
X158615300Y-119793700D02*
X158615300Y-110301700D01*
X168804700Y-129983100D02*
X158615300Y-119793700D01*
X170409100Y-129983100D02*
X168804700Y-129983100D01*
X171278800Y-130852800D02*
X170409100Y-129983100D01*
X171278800Y-131790200D02*
X171278800Y-130852800D01*
X170545900Y-132523100D02*
X171278800Y-131790200D01*
X168892800Y-132523100D02*
X170545900Y-132523100D01*
X168090700Y-133325200D02*
X168892800Y-132523100D01*
X168090700Y-136398000D02*
X168090700Y-133325200D01*
X122179000Y-65781000D02*
X123760300Y-65781000D01*
X100620000Y-95255000D02*
X100620000Y-94023700D01*
X169672000Y-133858000D02*
X171253300Y-133858000D01*
X123760300Y-49555900D02*
X123760300Y-65781000D01*
X123564000Y-49359600D02*
X123760300Y-49555900D01*
X113260500Y-49359600D02*
X123564000Y-49359600D01*
X108026600Y-54593500D02*
X113260500Y-49359600D01*
X103973600Y-54593500D02*
X108026600Y-54593500D01*
X101890000Y-56677100D02*
X103973600Y-54593500D01*
X101890000Y-57643800D02*
X101890000Y-56677100D01*
X101108800Y-58425000D02*
X101890000Y-57643800D01*
X100141100Y-58425000D02*
X101108800Y-58425000D01*
X99363300Y-59202800D02*
X100141100Y-58425000D01*
X99363300Y-93277200D02*
X99363300Y-59202800D01*
X100109800Y-94023700D02*
X99363300Y-93277200D01*
X100620000Y-94023700D02*
X100109800Y-94023700D01*
X172844500Y-132266800D02*
X171253300Y-133858000D01*
X172844500Y-117051800D02*
X172844500Y-132266800D01*
X163813300Y-108020600D02*
X172844500Y-117051800D01*
X163813300Y-99236500D02*
X163813300Y-108020600D01*
X148410100Y-83833300D02*
X163813300Y-99236500D01*
X148410100Y-82309400D02*
X148410100Y-83833300D01*
X145858900Y-79758200D02*
X148410100Y-82309400D01*
X138110500Y-79758200D02*
X145858900Y-79758200D01*
X124133300Y-65781000D02*
X138110500Y-79758200D01*
X123760300Y-65781000D02*
X124133300Y-65781000D01*
X101851300Y-89664800D02*
X101851300Y-90175000D01*
X102611100Y-88905000D02*
X101851300Y-89664800D01*
X106035500Y-88905000D02*
X102611100Y-88905000D01*
X106248400Y-89117900D02*
X106035500Y-88905000D01*
X100620000Y-90175000D02*
X101851300Y-90175000D01*
X101130200Y-61003700D02*
X100620000Y-61003700D01*
X101890000Y-60243900D02*
X101130200Y-61003700D01*
X101890000Y-59147300D02*
X101890000Y-60243900D01*
X102573700Y-58463600D02*
X101890000Y-59147300D01*
X112675100Y-58463600D02*
X102573700Y-58463600D01*
X120597700Y-50541000D02*
X112675100Y-58463600D01*
X122179000Y-50541000D02*
X120597700Y-50541000D01*
X100620000Y-62235000D02*
X100620000Y-61003700D01*
X119591700Y-59695000D02*
X103160000Y-59695000D01*
X120597700Y-60701000D02*
X119591700Y-59695000D01*
X122179000Y-60701000D02*
X120597700Y-60701000D01*
X122179000Y-86101000D02*
X123760300Y-86101000D01*
X100620000Y-133355000D02*
X100620000Y-132123700D01*
X125752800Y-88093500D02*
X125752800Y-90739700D01*
X123760300Y-86101000D02*
X125752800Y-88093500D01*
X100109800Y-132123700D02*
X100620000Y-132123700D01*
X99325800Y-131339700D02*
X100109800Y-132123700D01*
X99325800Y-127738500D02*
X99325800Y-131339700D01*
X100059300Y-127005000D02*
X99325800Y-127738500D01*
X101177200Y-127005000D02*
X100059300Y-127005000D01*
X101928700Y-126253500D02*
X101177200Y-127005000D01*
X101928700Y-120145000D02*
X101928700Y-126253500D01*
X102688700Y-119385000D02*
X101928700Y-120145000D01*
X103684900Y-119385000D02*
X102688700Y-119385000D01*
X115893000Y-107176900D02*
X103684900Y-119385000D01*
X115893000Y-103014100D02*
X115893000Y-107176900D01*
X121376100Y-97531000D02*
X115893000Y-103014100D01*
X122985400Y-97531000D02*
X121376100Y-97531000D01*
X125752800Y-94763600D02*
X122985400Y-97531000D01*
X125752800Y-90739700D02*
X125752800Y-94763600D01*
X125752800Y-90739700D02*
X125793000Y-90739700D01*
X101130200Y-104183700D02*
X100620000Y-104183700D01*
X101890000Y-103423900D02*
X101130200Y-104183700D01*
X101890000Y-97313500D02*
X101890000Y-103423900D01*
X101140100Y-96563600D02*
X101890000Y-97313500D01*
X100175900Y-96563600D02*
X101140100Y-96563600D01*
X98829700Y-95217400D02*
X100175900Y-96563600D01*
X98829700Y-57158800D02*
X98829700Y-95217400D01*
X102393900Y-53594600D02*
X98829700Y-57158800D01*
X108306500Y-53594600D02*
X102393900Y-53594600D01*
X113049900Y-48851200D02*
X108306500Y-53594600D01*
X147618900Y-48851200D02*
X113049900Y-48851200D01*
X161632700Y-62865000D02*
X147618900Y-48851200D01*
X162814000Y-62865000D02*
X161632700Y-62865000D01*
X100620000Y-105415000D02*
X100620000Y-104183700D01*
X103160000Y-74935000D02*
X103160000Y-76166300D01*
X185928000Y-124968000D02*
X185928000Y-126199300D01*
X122179000Y-103881000D02*
X120597700Y-103881000D01*
X117260000Y-109722000D02*
X118441300Y-109722000D01*
X118441300Y-109838500D02*
X118441300Y-109722000D01*
X121308900Y-112706100D02*
X118441300Y-109838500D01*
X133829900Y-112706100D02*
X121308900Y-112706100D01*
X144054800Y-122931000D02*
X133829900Y-112706100D01*
X145873900Y-122931000D02*
X144054800Y-122931000D01*
X160534300Y-137591400D02*
X145873900Y-122931000D01*
X182666200Y-137591400D02*
X160534300Y-137591400D01*
X187203900Y-133053700D02*
X182666200Y-137591400D01*
X187203900Y-126965000D02*
X187203900Y-133053700D01*
X186438200Y-126199300D02*
X187203900Y-126965000D01*
X185928000Y-126199300D02*
X186438200Y-126199300D01*
X120597700Y-107565600D02*
X118441300Y-109722000D01*
X120597700Y-103881000D02*
X120597700Y-107565600D01*
X107116900Y-88847200D02*
X107116900Y-108520700D01*
X104596100Y-86326400D02*
X107116900Y-88847200D01*
X102647000Y-86326400D02*
X104596100Y-86326400D01*
X101928600Y-85608000D02*
X102647000Y-86326400D01*
X101928600Y-84508700D02*
X101928600Y-85608000D01*
X102612300Y-83825000D02*
X101928600Y-84508700D01*
X103641300Y-83825000D02*
X102612300Y-83825000D01*
X104416900Y-83049400D02*
X103641300Y-83825000D01*
X104416900Y-76971400D02*
X104416900Y-83049400D01*
X103611800Y-76166300D02*
X104416900Y-76971400D01*
X103160000Y-76166300D02*
X103611800Y-76166300D01*
X101890000Y-76205000D02*
X103160000Y-77475000D01*
X101890000Y-61687300D02*
X101890000Y-76205000D01*
X102612300Y-60965000D02*
X101890000Y-61687300D01*
X118321700Y-60965000D02*
X102612300Y-60965000D01*
X120597700Y-63241000D02*
X118321700Y-60965000D01*
X122179000Y-63241000D02*
X120597700Y-63241000D01*
X169672000Y-131318000D02*
X168090700Y-131318000D01*
X120597700Y-68817300D02*
X120597700Y-63241000D01*
X121371400Y-69591000D02*
X120597700Y-68817300D01*
X122981100Y-69591000D02*
X121371400Y-69591000D01*
X141337700Y-87947600D02*
X122981100Y-69591000D01*
X141337700Y-97237100D02*
X141337700Y-87947600D01*
X144239000Y-100138400D02*
X141337700Y-97237100D01*
X145909500Y-100138400D02*
X144239000Y-100138400D01*
X158107000Y-112335900D02*
X145909500Y-100138400D01*
X158107000Y-121334300D02*
X158107000Y-112335900D01*
X168090700Y-131318000D02*
X158107000Y-121334300D01*
X169672000Y-128778000D02*
X171253300Y-128778000D01*
X138268400Y-81021000D02*
X136308000Y-79060600D01*
X145039000Y-81021000D02*
X138268400Y-81021000D01*
X172336100Y-127695200D02*
X171253300Y-128778000D01*
X172336100Y-117262200D02*
X172336100Y-127695200D01*
X162592800Y-107518900D02*
X172336100Y-117262200D01*
X162592800Y-98874300D02*
X162592800Y-107518900D01*
X145039000Y-81320500D02*
X162592800Y-98874300D01*
X145039000Y-81021000D02*
X145039000Y-81320500D01*
X169672000Y-126238000D02*
X171253300Y-126238000D01*
X139089400Y-83561000D02*
X135637300Y-80108900D01*
X145039000Y-83561000D02*
X139089400Y-83561000D01*
X171794700Y-125696600D02*
X171253300Y-126238000D01*
X171794700Y-117439600D02*
X171794700Y-125696600D01*
X162084500Y-107729400D02*
X171794700Y-117439600D01*
X162084500Y-100606500D02*
X162084500Y-107729400D01*
X145039000Y-83561000D02*
X162084500Y-100606500D01*
X110559000Y-85095000D02*
X103160000Y-85095000D01*
X115370700Y-89906700D02*
X110559000Y-85095000D01*
X124959600Y-89906700D02*
X115370700Y-89906700D01*
X168090700Y-117239800D02*
X168090700Y-123698000D01*
X145841900Y-94991000D02*
X168090700Y-117239800D01*
X144217300Y-94991000D02*
X145841900Y-94991000D01*
X143457700Y-94231400D02*
X144217300Y-94991000D01*
X143457700Y-86101000D02*
X143457700Y-94231400D01*
X145039000Y-86101000D02*
X143457700Y-86101000D01*
X169672000Y-123698000D02*
X168090700Y-123698000D01*
X145039000Y-91181000D02*
X146620300Y-91181000D01*
X169672000Y-121158000D02*
X171253300Y-121158000D01*
X171253300Y-117617000D02*
X171253300Y-121158000D01*
X146620300Y-92984000D02*
X171253300Y-117617000D01*
X146620300Y-91181000D02*
X146620300Y-92984000D01*
X145039000Y-93721000D02*
X146620300Y-93721000D01*
X169672000Y-116772700D02*
X169672000Y-118618000D01*
X146620300Y-93721000D02*
X169672000Y-116772700D01*
X145039000Y-124201000D02*
X143457700Y-124201000D01*
X103160000Y-120655000D02*
X104391300Y-120655000D01*
X107107800Y-117938500D02*
X104391300Y-120655000D01*
X137195200Y-117938500D02*
X107107800Y-117938500D01*
X143457700Y-124201000D02*
X137195200Y-117938500D01*
X107107700Y-120478600D02*
X104391300Y-123195000D01*
X137195300Y-120478600D02*
X107107700Y-120478600D01*
X143457700Y-126741000D02*
X137195300Y-120478600D01*
X145039000Y-126741000D02*
X143457700Y-126741000D01*
X103160000Y-123195000D02*
X104391300Y-123195000D01*
X122179000Y-126741000D02*
X120597700Y-126741000D01*
X116523700Y-130815000D02*
X103160000Y-130815000D01*
X120597700Y-126741000D02*
X116523700Y-130815000D01*
X166980800Y-93565900D02*
X168090700Y-92456000D01*
X166980800Y-110083400D02*
X166980800Y-93565900D01*
X170515000Y-113617600D02*
X166980800Y-110083400D01*
X169672000Y-92456000D02*
X168090700Y-92456000D01*
X115253600Y-133355000D02*
X103160000Y-133355000D01*
X120597600Y-128011000D02*
X115253600Y-133355000D01*
X122991600Y-128011000D02*
X120597600Y-128011000D01*
X123760300Y-127242300D02*
X122991600Y-128011000D01*
X123760300Y-124201000D02*
X123760300Y-127242300D01*
X122179000Y-124201000D02*
X123760300Y-124201000D01*
X102698200Y-134663700D02*
X103160000Y-134663700D01*
X101928700Y-133894200D02*
X102698200Y-134663700D01*
X101928700Y-130294100D02*
X101928700Y-133894200D01*
X102639200Y-129583600D02*
X101928700Y-130294100D01*
X112675100Y-129583600D02*
X102639200Y-129583600D01*
X120597700Y-121661000D02*
X112675100Y-129583600D01*
X122179000Y-121661000D02*
X120597700Y-121661000D01*
X103160000Y-135895000D02*
X103160000Y-134663700D01*
X169620000Y-73720000D02*
X171201300Y-73720000D01*
X169620000Y-66100000D02*
X171201300Y-66100000D01*
X177240000Y-71180000D02*
X175658700Y-71180000D01*
X173265500Y-73720000D02*
X171201300Y-73720000D01*
X174702000Y-75156500D02*
X173265500Y-73720000D01*
X174702000Y-80259000D02*
X174702000Y-75156500D01*
X173265500Y-73573200D02*
X175658700Y-71180000D01*
X173265500Y-73720000D02*
X173265500Y-73573200D01*
X171201300Y-52278700D02*
X171201300Y-66100000D01*
X172170000Y-51310000D02*
X171201300Y-52278700D01*
X175658700Y-70557400D02*
X175658700Y-71180000D01*
X171201300Y-66100000D02*
X175658700Y-70557400D01*
X185928000Y-132588000D02*
X185928000Y-131356700D01*
X185466200Y-131356700D02*
X185928000Y-131356700D01*
X179304200Y-125194700D02*
X185466200Y-131356700D01*
X179304200Y-118540400D02*
X179304200Y-125194700D01*
X174809800Y-114046000D02*
X179304200Y-118540400D01*
X174722000Y-114046000D02*
X174809800Y-114046000D01*
X122179000Y-88641000D02*
X120597700Y-88641000D01*
X120597700Y-87783400D02*
X120597700Y-88641000D01*
X116618600Y-83804300D02*
X120597700Y-87783400D01*
X116618600Y-77163400D02*
X116618600Y-83804300D01*
X116840000Y-76942000D02*
X116618600Y-77163400D01*
X171253300Y-110577300D02*
X174722000Y-114046000D01*
X171253300Y-107696000D02*
X171253300Y-110577300D01*
X169672000Y-107696000D02*
X171253300Y-107696000D01*
M02*
