G04 #@! TF.GenerationSoftware,KiCad,Pcbnew,(6.0.2)*
G04 #@! TF.CreationDate,2022-11-06T15:06:24-08:00*
G04 #@! TF.ProjectId,CPU Board,43505520-426f-4617-9264-2e6b69636164,1.0*
G04 #@! TF.SameCoordinates,Original*
G04 #@! TF.FileFunction,Legend,Top*
G04 #@! TF.FilePolarity,Positive*
%FSLAX46Y46*%
G04 Gerber Fmt 4.6, Leading zero omitted, Abs format (unit mm)*
G04 Created by KiCad (PCBNEW (6.0.2)) date 2022-11-06 15:06:24*
%MOMM*%
%LPD*%
G01*
G04 APERTURE LIST*
%ADD10C,0.250000*%
%ADD11C,0.300000*%
%ADD12C,0.150000*%
%ADD13C,0.120000*%
%ADD14O,1.700000X1.700000*%
%ADD15R,1.700000X1.700000*%
%ADD16C,3.200000*%
%ADD17C,1.600000*%
%ADD18O,1.600000X1.600000*%
%ADD19R,2.400000X1.600000*%
%ADD20O,2.400000X1.600000*%
%ADD21R,1.600000X1.600000*%
G04 APERTURE END LIST*
D10*
X188630404Y-132088000D02*
X188535166Y-132040380D01*
X188392309Y-132040380D01*
X188249452Y-132088000D01*
X188154214Y-132183238D01*
X188106595Y-132278476D01*
X188058976Y-132468952D01*
X188058976Y-132611809D01*
X188106595Y-132802285D01*
X188154214Y-132897523D01*
X188249452Y-132992761D01*
X188392309Y-133040380D01*
X188487547Y-133040380D01*
X188630404Y-132992761D01*
X188678023Y-132945142D01*
X188678023Y-132611809D01*
X188487547Y-132611809D01*
X189106595Y-133040380D02*
X189106595Y-132040380D01*
X189678023Y-133040380D01*
X189678023Y-132040380D01*
X190154214Y-133040380D02*
X190154214Y-132040380D01*
X190392309Y-132040380D01*
X190535166Y-132088000D01*
X190630404Y-132183238D01*
X190678023Y-132278476D01*
X190725642Y-132468952D01*
X190725642Y-132611809D01*
X190678023Y-132802285D01*
X190630404Y-132897523D01*
X190535166Y-132992761D01*
X190392309Y-133040380D01*
X190154214Y-133040380D01*
X187868500Y-129218000D02*
X188916119Y-129218000D01*
X188106595Y-130500380D02*
X188106595Y-129500380D01*
X188106595Y-129976571D02*
X188678023Y-129976571D01*
X188678023Y-130500380D02*
X188678023Y-129500380D01*
X188916119Y-129218000D02*
X189773261Y-129218000D01*
X189106595Y-130214666D02*
X189582785Y-130214666D01*
X189011357Y-130500380D02*
X189344690Y-129500380D01*
X189678023Y-130500380D01*
X189773261Y-129218000D02*
X190582785Y-129218000D01*
X190487547Y-130500380D02*
X190011357Y-130500380D01*
X190011357Y-129500380D01*
X190582785Y-129218000D02*
X191344690Y-129218000D01*
X190678023Y-129500380D02*
X191249452Y-129500380D01*
X190963738Y-130500380D02*
X190963738Y-129500380D01*
X187868500Y-126678000D02*
X188868500Y-126678000D01*
X188678023Y-127960380D02*
X188344690Y-127484190D01*
X188106595Y-127960380D02*
X188106595Y-126960380D01*
X188487547Y-126960380D01*
X188582785Y-127008000D01*
X188630404Y-127055619D01*
X188678023Y-127150857D01*
X188678023Y-127293714D01*
X188630404Y-127388952D01*
X188582785Y-127436571D01*
X188487547Y-127484190D01*
X188106595Y-127484190D01*
X188868500Y-126678000D02*
X189773261Y-126678000D01*
X189106595Y-127436571D02*
X189439928Y-127436571D01*
X189582785Y-127960380D02*
X189106595Y-127960380D01*
X189106595Y-126960380D01*
X189582785Y-126960380D01*
X189773261Y-126678000D02*
X190725642Y-126678000D01*
X189963738Y-127912761D02*
X190106595Y-127960380D01*
X190344690Y-127960380D01*
X190439928Y-127912761D01*
X190487547Y-127865142D01*
X190535166Y-127769904D01*
X190535166Y-127674666D01*
X190487547Y-127579428D01*
X190439928Y-127531809D01*
X190344690Y-127484190D01*
X190154214Y-127436571D01*
X190058976Y-127388952D01*
X190011357Y-127341333D01*
X189963738Y-127246095D01*
X189963738Y-127150857D01*
X190011357Y-127055619D01*
X190058976Y-127008000D01*
X190154214Y-126960380D01*
X190392309Y-126960380D01*
X190535166Y-127008000D01*
X190725642Y-126678000D02*
X191630404Y-126678000D01*
X190963738Y-127436571D02*
X191297071Y-127436571D01*
X191439928Y-127960380D02*
X190963738Y-127960380D01*
X190963738Y-126960380D01*
X191439928Y-126960380D01*
X191630404Y-126678000D02*
X192392309Y-126678000D01*
X191725642Y-126960380D02*
X192297071Y-126960380D01*
X192011357Y-127960380D02*
X192011357Y-126960380D01*
X187868500Y-124138000D02*
X188868500Y-124138000D01*
X188439928Y-124896571D02*
X188582785Y-124944190D01*
X188630404Y-124991809D01*
X188678023Y-125087047D01*
X188678023Y-125229904D01*
X188630404Y-125325142D01*
X188582785Y-125372761D01*
X188487547Y-125420380D01*
X188106595Y-125420380D01*
X188106595Y-124420380D01*
X188439928Y-124420380D01*
X188535166Y-124468000D01*
X188582785Y-124515619D01*
X188630404Y-124610857D01*
X188630404Y-124706095D01*
X188582785Y-124801333D01*
X188535166Y-124848952D01*
X188439928Y-124896571D01*
X188106595Y-124896571D01*
X188868500Y-124138000D02*
X189773261Y-124138000D01*
X189106595Y-124896571D02*
X189439928Y-124896571D01*
X189582785Y-125420380D02*
X189106595Y-125420380D01*
X189106595Y-124420380D01*
X189582785Y-124420380D01*
X189773261Y-124138000D02*
X190773261Y-124138000D01*
X190582785Y-125420380D02*
X190249452Y-124944190D01*
X190011357Y-125420380D02*
X190011357Y-124420380D01*
X190392309Y-124420380D01*
X190487547Y-124468000D01*
X190535166Y-124515619D01*
X190582785Y-124610857D01*
X190582785Y-124753714D01*
X190535166Y-124848952D01*
X190487547Y-124896571D01*
X190392309Y-124944190D01*
X190011357Y-124944190D01*
X190773261Y-124138000D02*
X191773261Y-124138000D01*
X191582785Y-125420380D02*
X191249452Y-124944190D01*
X191011357Y-125420380D02*
X191011357Y-124420380D01*
X191392309Y-124420380D01*
X191487547Y-124468000D01*
X191535166Y-124515619D01*
X191582785Y-124610857D01*
X191582785Y-124753714D01*
X191535166Y-124848952D01*
X191487547Y-124896571D01*
X191392309Y-124944190D01*
X191011357Y-124944190D01*
X187868500Y-121598000D02*
X188678023Y-121598000D01*
X188582785Y-122880380D02*
X188106595Y-122880380D01*
X188106595Y-121880380D01*
X188678023Y-121598000D02*
X189678023Y-121598000D01*
X188916119Y-122880380D02*
X188916119Y-121880380D01*
X189154214Y-121880380D01*
X189297071Y-121928000D01*
X189392309Y-122023238D01*
X189439928Y-122118476D01*
X189487547Y-122308952D01*
X189487547Y-122451809D01*
X189439928Y-122642285D01*
X189392309Y-122737523D01*
X189297071Y-122832761D01*
X189154214Y-122880380D01*
X188916119Y-122880380D01*
X189678023Y-121598000D02*
X190630404Y-121598000D01*
X189868500Y-122832761D02*
X190011357Y-122880380D01*
X190249452Y-122880380D01*
X190344690Y-122832761D01*
X190392309Y-122785142D01*
X190439928Y-122689904D01*
X190439928Y-122594666D01*
X190392309Y-122499428D01*
X190344690Y-122451809D01*
X190249452Y-122404190D01*
X190058976Y-122356571D01*
X189963738Y-122308952D01*
X189916119Y-122261333D01*
X189868500Y-122166095D01*
X189868500Y-122070857D01*
X189916119Y-121975619D01*
X189963738Y-121928000D01*
X190058976Y-121880380D01*
X190297071Y-121880380D01*
X190439928Y-121928000D01*
X187868500Y-119058000D02*
X188916119Y-119058000D01*
X188106595Y-119340380D02*
X188106595Y-120149904D01*
X188154214Y-120245142D01*
X188201833Y-120292761D01*
X188297071Y-120340380D01*
X188487547Y-120340380D01*
X188582785Y-120292761D01*
X188630404Y-120245142D01*
X188678023Y-120149904D01*
X188678023Y-119340380D01*
X188916119Y-119058000D02*
X189916119Y-119058000D01*
X189154214Y-120340380D02*
X189154214Y-119340380D01*
X189392309Y-119340380D01*
X189535166Y-119388000D01*
X189630404Y-119483238D01*
X189678023Y-119578476D01*
X189725642Y-119768952D01*
X189725642Y-119911809D01*
X189678023Y-120102285D01*
X189630404Y-120197523D01*
X189535166Y-120292761D01*
X189392309Y-120340380D01*
X189154214Y-120340380D01*
X189916119Y-119058000D02*
X190868500Y-119058000D01*
X190106595Y-120292761D02*
X190249452Y-120340380D01*
X190487547Y-120340380D01*
X190582785Y-120292761D01*
X190630404Y-120245142D01*
X190678023Y-120149904D01*
X190678023Y-120054666D01*
X190630404Y-119959428D01*
X190582785Y-119911809D01*
X190487547Y-119864190D01*
X190297071Y-119816571D01*
X190201833Y-119768952D01*
X190154214Y-119721333D01*
X190106595Y-119626095D01*
X190106595Y-119530857D01*
X190154214Y-119435619D01*
X190201833Y-119388000D01*
X190297071Y-119340380D01*
X190535166Y-119340380D01*
X190678023Y-119388000D01*
X187868500Y-116518000D02*
X188725642Y-116518000D01*
X188058976Y-117514666D02*
X188535166Y-117514666D01*
X187963738Y-117800380D02*
X188297071Y-116800380D01*
X188630404Y-117800380D01*
X188725642Y-116518000D02*
X189678023Y-116518000D01*
X188916119Y-117752761D02*
X189058976Y-117800380D01*
X189297071Y-117800380D01*
X189392309Y-117752761D01*
X189439928Y-117705142D01*
X189487547Y-117609904D01*
X189487547Y-117514666D01*
X189439928Y-117419428D01*
X189392309Y-117371809D01*
X189297071Y-117324190D01*
X189106595Y-117276571D01*
X189011357Y-117228952D01*
X188963738Y-117181333D01*
X188916119Y-117086095D01*
X188916119Y-116990857D01*
X188963738Y-116895619D01*
X189011357Y-116848000D01*
X189106595Y-116800380D01*
X189344690Y-116800380D01*
X189487547Y-116848000D01*
X188122500Y-113978000D02*
X189122500Y-113978000D01*
X188360595Y-115260380D02*
X188360595Y-114260380D01*
X188598690Y-114260380D01*
X188741547Y-114308000D01*
X188836785Y-114403238D01*
X188884404Y-114498476D01*
X188932023Y-114688952D01*
X188932023Y-114831809D01*
X188884404Y-115022285D01*
X188836785Y-115117523D01*
X188741547Y-115212761D01*
X188598690Y-115260380D01*
X188360595Y-115260380D01*
X189122500Y-113978000D02*
X189884404Y-113978000D01*
X189217738Y-114260380D02*
X189789166Y-114260380D01*
X189503452Y-115260380D02*
X189503452Y-114260380D01*
X189884404Y-113978000D02*
X190741547Y-113978000D01*
X190074880Y-114974666D02*
X190551071Y-114974666D01*
X189979642Y-115260380D02*
X190312976Y-114260380D01*
X190646309Y-115260380D01*
X190741547Y-113978000D02*
X191741547Y-113978000D01*
X191551071Y-115165142D02*
X191503452Y-115212761D01*
X191360595Y-115260380D01*
X191265357Y-115260380D01*
X191122500Y-115212761D01*
X191027261Y-115117523D01*
X190979642Y-115022285D01*
X190932023Y-114831809D01*
X190932023Y-114688952D01*
X190979642Y-114498476D01*
X191027261Y-114403238D01*
X191122500Y-114308000D01*
X191265357Y-114260380D01*
X191360595Y-114260380D01*
X191503452Y-114308000D01*
X191551071Y-114355619D01*
X191741547Y-113978000D02*
X192741547Y-113978000D01*
X191979642Y-115260380D02*
X191979642Y-114260380D01*
X192551071Y-115260380D02*
X192122500Y-114688952D01*
X192551071Y-114260380D02*
X191979642Y-114831809D01*
X188678023Y-112720380D02*
X188344690Y-112244190D01*
X188106595Y-112720380D02*
X188106595Y-111720380D01*
X188487547Y-111720380D01*
X188582785Y-111768000D01*
X188630404Y-111815619D01*
X188678023Y-111910857D01*
X188678023Y-112053714D01*
X188630404Y-112148952D01*
X188582785Y-112196571D01*
X188487547Y-112244190D01*
X188106595Y-112244190D01*
X188868500Y-111438000D02*
X190011357Y-111438000D01*
X189011357Y-111720380D02*
X189249452Y-112720380D01*
X189439928Y-112006095D01*
X189630404Y-112720380D01*
X189868500Y-111720380D01*
D11*
X108009428Y-123579714D02*
X106509428Y-124079714D01*
X108009428Y-124579714D01*
X107866571Y-125008285D02*
X107938000Y-125079714D01*
X108009428Y-125222571D01*
X108009428Y-125579714D01*
X107938000Y-125722571D01*
X107866571Y-125794000D01*
X107723714Y-125865428D01*
X107580857Y-125865428D01*
X107366571Y-125794000D01*
X106509428Y-124936857D01*
X106509428Y-125865428D01*
X108009428Y-126794000D02*
X108009428Y-126936857D01*
X107938000Y-127079714D01*
X107866571Y-127151142D01*
X107723714Y-127222571D01*
X107438000Y-127294000D01*
X107080857Y-127294000D01*
X106795142Y-127222571D01*
X106652285Y-127151142D01*
X106580857Y-127079714D01*
X106509428Y-126936857D01*
X106509428Y-126794000D01*
X106580857Y-126651142D01*
X106652285Y-126579714D01*
X106795142Y-126508285D01*
X107080857Y-126436857D01*
X107438000Y-126436857D01*
X107723714Y-126508285D01*
X107866571Y-126579714D01*
X107938000Y-126651142D01*
X108009428Y-126794000D01*
X107866571Y-127865428D02*
X107938000Y-127936857D01*
X108009428Y-128079714D01*
X108009428Y-128436857D01*
X107938000Y-128579714D01*
X107866571Y-128651142D01*
X107723714Y-128722571D01*
X107580857Y-128722571D01*
X107366571Y-128651142D01*
X106509428Y-127794000D01*
X106509428Y-128722571D01*
X107866571Y-129294000D02*
X107938000Y-129365428D01*
X108009428Y-129508285D01*
X108009428Y-129865428D01*
X107938000Y-130008285D01*
X107866571Y-130079714D01*
X107723714Y-130151142D01*
X107580857Y-130151142D01*
X107366571Y-130079714D01*
X106509428Y-129222571D01*
X106509428Y-130151142D01*
X106509428Y-131579714D02*
X106509428Y-130722571D01*
X106509428Y-131151142D02*
X108009428Y-131151142D01*
X107795142Y-131008285D01*
X107652285Y-130865428D01*
X107580857Y-130722571D01*
X106509428Y-133008285D02*
X106509428Y-132151142D01*
X106509428Y-132579714D02*
X108009428Y-132579714D01*
X107795142Y-132436857D01*
X107652285Y-132294000D01*
X107580857Y-132151142D01*
X108009428Y-133936857D02*
X108009428Y-134079714D01*
X107938000Y-134222571D01*
X107866571Y-134294000D01*
X107723714Y-134365428D01*
X107438000Y-134436857D01*
X107080857Y-134436857D01*
X106795142Y-134365428D01*
X106652285Y-134294000D01*
X106580857Y-134222571D01*
X106509428Y-134079714D01*
X106509428Y-133936857D01*
X106580857Y-133794000D01*
X106652285Y-133722571D01*
X106795142Y-133651142D01*
X107080857Y-133579714D01*
X107438000Y-133579714D01*
X107723714Y-133651142D01*
X107866571Y-133722571D01*
X107938000Y-133794000D01*
X108009428Y-133936857D01*
X108009428Y-135722571D02*
X108009428Y-135436857D01*
X107938000Y-135294000D01*
X107866571Y-135222571D01*
X107652285Y-135079714D01*
X107366571Y-135008285D01*
X106795142Y-135008285D01*
X106652285Y-135079714D01*
X106580857Y-135151142D01*
X106509428Y-135294000D01*
X106509428Y-135579714D01*
X106580857Y-135722571D01*
X106652285Y-135794000D01*
X106795142Y-135865428D01*
X107152285Y-135865428D01*
X107295142Y-135794000D01*
X107366571Y-135722571D01*
X107438000Y-135579714D01*
X107438000Y-135294000D01*
X107366571Y-135151142D01*
X107295142Y-135079714D01*
X107152285Y-135008285D01*
X179661428Y-86725285D02*
X181161428Y-86725285D01*
X180661428Y-87439571D02*
X179661428Y-87439571D01*
X180518571Y-87439571D02*
X180590000Y-87511000D01*
X180661428Y-87653857D01*
X180661428Y-87868142D01*
X180590000Y-88011000D01*
X180447142Y-88082428D01*
X179661428Y-88082428D01*
X180661428Y-88582428D02*
X180661428Y-89153857D01*
X181161428Y-88796714D02*
X179875714Y-88796714D01*
X179732857Y-88868142D01*
X179661428Y-89011000D01*
X179661428Y-89153857D01*
X179732857Y-90225285D02*
X179661428Y-90082428D01*
X179661428Y-89796714D01*
X179732857Y-89653857D01*
X179875714Y-89582428D01*
X180447142Y-89582428D01*
X180590000Y-89653857D01*
X180661428Y-89796714D01*
X180661428Y-90082428D01*
X180590000Y-90225285D01*
X180447142Y-90296714D01*
X180304285Y-90296714D01*
X180161428Y-89582428D01*
X179661428Y-90939571D02*
X180661428Y-90939571D01*
X180375714Y-90939571D02*
X180518571Y-91011000D01*
X180590000Y-91082428D01*
X180661428Y-91225285D01*
X180661428Y-91368142D01*
X179661428Y-91868142D02*
X180661428Y-91868142D01*
X180375714Y-91868142D02*
X180518571Y-91939571D01*
X180590000Y-92011000D01*
X180661428Y-92153857D01*
X180661428Y-92296714D01*
X180661428Y-93439571D02*
X179661428Y-93439571D01*
X180661428Y-92796714D02*
X179875714Y-92796714D01*
X179732857Y-92868142D01*
X179661428Y-93011000D01*
X179661428Y-93225285D01*
X179732857Y-93368142D01*
X179804285Y-93439571D01*
X180661428Y-94153857D02*
X179161428Y-94153857D01*
X180590000Y-94153857D02*
X180661428Y-94296714D01*
X180661428Y-94582428D01*
X180590000Y-94725285D01*
X180518571Y-94796714D01*
X180375714Y-94868142D01*
X179947142Y-94868142D01*
X179804285Y-94796714D01*
X179732857Y-94725285D01*
X179661428Y-94582428D01*
X179661428Y-94296714D01*
X179732857Y-94153857D01*
X180661428Y-95296714D02*
X180661428Y-95868142D01*
X181161428Y-95511000D02*
X179875714Y-95511000D01*
X179732857Y-95582428D01*
X179661428Y-95725285D01*
X179661428Y-95868142D01*
X179661428Y-97511000D02*
X181161428Y-97511000D01*
X181161428Y-97868142D01*
X181090000Y-98082428D01*
X180947142Y-98225285D01*
X180804285Y-98296714D01*
X180518571Y-98368142D01*
X180304285Y-98368142D01*
X180018571Y-98296714D01*
X179875714Y-98225285D01*
X179732857Y-98082428D01*
X179661428Y-97868142D01*
X179661428Y-97511000D01*
X179732857Y-99582428D02*
X179661428Y-99439571D01*
X179661428Y-99153857D01*
X179732857Y-99011000D01*
X179875714Y-98939571D01*
X180447142Y-98939571D01*
X180590000Y-99011000D01*
X180661428Y-99153857D01*
X180661428Y-99439571D01*
X180590000Y-99582428D01*
X180447142Y-99653857D01*
X180304285Y-99653857D01*
X180161428Y-98939571D01*
X179732857Y-100939571D02*
X179661428Y-100796714D01*
X179661428Y-100511000D01*
X179732857Y-100368142D01*
X179804285Y-100296714D01*
X179947142Y-100225285D01*
X180375714Y-100225285D01*
X180518571Y-100296714D01*
X180590000Y-100368142D01*
X180661428Y-100511000D01*
X180661428Y-100796714D01*
X180590000Y-100939571D01*
X179661428Y-101796714D02*
X179732857Y-101653857D01*
X179804285Y-101582428D01*
X179947142Y-101511000D01*
X180375714Y-101511000D01*
X180518571Y-101582428D01*
X180590000Y-101653857D01*
X180661428Y-101796714D01*
X180661428Y-102011000D01*
X180590000Y-102153857D01*
X180518571Y-102225285D01*
X180375714Y-102296714D01*
X179947142Y-102296714D01*
X179804285Y-102225285D01*
X179732857Y-102153857D01*
X179661428Y-102011000D01*
X179661428Y-101796714D01*
X179661428Y-103582428D02*
X181161428Y-103582428D01*
X179732857Y-103582428D02*
X179661428Y-103439571D01*
X179661428Y-103153857D01*
X179732857Y-103011000D01*
X179804285Y-102939571D01*
X179947142Y-102868142D01*
X180375714Y-102868142D01*
X180518571Y-102939571D01*
X180590000Y-103011000D01*
X180661428Y-103153857D01*
X180661428Y-103439571D01*
X180590000Y-103582428D01*
X179732857Y-104868142D02*
X179661428Y-104725285D01*
X179661428Y-104439571D01*
X179732857Y-104296714D01*
X179875714Y-104225285D01*
X180447142Y-104225285D01*
X180590000Y-104296714D01*
X180661428Y-104439571D01*
X180661428Y-104725285D01*
X180590000Y-104868142D01*
X180447142Y-104939571D01*
X180304285Y-104939571D01*
X180161428Y-104225285D01*
X179661428Y-105582428D02*
X180661428Y-105582428D01*
X180375714Y-105582428D02*
X180518571Y-105653857D01*
X180590000Y-105725285D01*
X180661428Y-105868142D01*
X180661428Y-106011000D01*
X181090000Y-128721571D02*
X181161428Y-128578714D01*
X181161428Y-128364428D01*
X181090000Y-128150142D01*
X180947142Y-128007285D01*
X180804285Y-127935857D01*
X180518571Y-127864428D01*
X180304285Y-127864428D01*
X180018571Y-127935857D01*
X179875714Y-128007285D01*
X179732857Y-128150142D01*
X179661428Y-128364428D01*
X179661428Y-128507285D01*
X179732857Y-128721571D01*
X179804285Y-128793000D01*
X180304285Y-128793000D01*
X180304285Y-128507285D01*
X179661428Y-129650142D02*
X179732857Y-129507285D01*
X179875714Y-129435857D01*
X181161428Y-129435857D01*
X180661428Y-130864428D02*
X179661428Y-130864428D01*
X180661428Y-130221571D02*
X179875714Y-130221571D01*
X179732857Y-130293000D01*
X179661428Y-130435857D01*
X179661428Y-130650142D01*
X179732857Y-130793000D01*
X179804285Y-130864428D01*
X179732857Y-132150142D02*
X179661428Y-132007285D01*
X179661428Y-131721571D01*
X179732857Y-131578714D01*
X179875714Y-131507285D01*
X180447142Y-131507285D01*
X180590000Y-131578714D01*
X180661428Y-131721571D01*
X180661428Y-132007285D01*
X180590000Y-132150142D01*
X180447142Y-132221571D01*
X180304285Y-132221571D01*
X180161428Y-131507285D01*
X179661428Y-53768571D02*
X181161428Y-53768571D01*
X179661428Y-54482857D02*
X181161428Y-54482857D01*
X179661428Y-55340000D01*
X181161428Y-55340000D01*
X181161428Y-55840000D02*
X181161428Y-56697142D01*
X179661428Y-56268571D02*
X181161428Y-56268571D01*
X179661428Y-58340000D02*
X181161428Y-58340000D01*
X181161428Y-58911428D01*
X181090000Y-59054285D01*
X181018571Y-59125714D01*
X180875714Y-59197142D01*
X180661428Y-59197142D01*
X180518571Y-59125714D01*
X180447142Y-59054285D01*
X180375714Y-58911428D01*
X180375714Y-58340000D01*
X179661428Y-59840000D02*
X180661428Y-59840000D01*
X180375714Y-59840000D02*
X180518571Y-59911428D01*
X180590000Y-59982857D01*
X180661428Y-60125714D01*
X180661428Y-60268571D01*
X179661428Y-60768571D02*
X180661428Y-60768571D01*
X181161428Y-60768571D02*
X181090000Y-60697142D01*
X181018571Y-60768571D01*
X181090000Y-60840000D01*
X181161428Y-60768571D01*
X181018571Y-60768571D01*
X179661428Y-61697142D02*
X179732857Y-61554285D01*
X179804285Y-61482857D01*
X179947142Y-61411428D01*
X180375714Y-61411428D01*
X180518571Y-61482857D01*
X180590000Y-61554285D01*
X180661428Y-61697142D01*
X180661428Y-61911428D01*
X180590000Y-62054285D01*
X180518571Y-62125714D01*
X180375714Y-62197142D01*
X179947142Y-62197142D01*
X179804285Y-62125714D01*
X179732857Y-62054285D01*
X179661428Y-61911428D01*
X179661428Y-61697142D01*
X179661428Y-62840000D02*
X180661428Y-62840000D01*
X180375714Y-62840000D02*
X180518571Y-62911428D01*
X180590000Y-62982857D01*
X180661428Y-63125714D01*
X180661428Y-63268571D01*
X179661428Y-63768571D02*
X180661428Y-63768571D01*
X181161428Y-63768571D02*
X181090000Y-63697142D01*
X181018571Y-63768571D01*
X181090000Y-63840000D01*
X181161428Y-63768571D01*
X181018571Y-63768571D01*
X180661428Y-64268571D02*
X180661428Y-64840000D01*
X181161428Y-64482857D02*
X179875714Y-64482857D01*
X179732857Y-64554285D01*
X179661428Y-64697142D01*
X179661428Y-64840000D01*
X180661428Y-65197142D02*
X179661428Y-65554285D01*
X180661428Y-65911428D02*
X179661428Y-65554285D01*
X179304285Y-65411428D01*
X179232857Y-65340000D01*
X179161428Y-65197142D01*
X179661428Y-67625714D02*
X181161428Y-67625714D01*
X181161428Y-67982857D01*
X181090000Y-68197142D01*
X180947142Y-68340000D01*
X180804285Y-68411428D01*
X180518571Y-68482857D01*
X180304285Y-68482857D01*
X180018571Y-68411428D01*
X179875714Y-68340000D01*
X179732857Y-68197142D01*
X179661428Y-67982857D01*
X179661428Y-67625714D01*
X179732857Y-69697142D02*
X179661428Y-69554285D01*
X179661428Y-69268571D01*
X179732857Y-69125714D01*
X179875714Y-69054285D01*
X180447142Y-69054285D01*
X180590000Y-69125714D01*
X180661428Y-69268571D01*
X180661428Y-69554285D01*
X180590000Y-69697142D01*
X180447142Y-69768571D01*
X180304285Y-69768571D01*
X180161428Y-69054285D01*
X179732857Y-71054285D02*
X179661428Y-70911428D01*
X179661428Y-70625714D01*
X179732857Y-70482857D01*
X179804285Y-70411428D01*
X179947142Y-70340000D01*
X180375714Y-70340000D01*
X180518571Y-70411428D01*
X180590000Y-70482857D01*
X180661428Y-70625714D01*
X180661428Y-70911428D01*
X180590000Y-71054285D01*
X179661428Y-71911428D02*
X179732857Y-71768571D01*
X179804285Y-71697142D01*
X179947142Y-71625714D01*
X180375714Y-71625714D01*
X180518571Y-71697142D01*
X180590000Y-71768571D01*
X180661428Y-71911428D01*
X180661428Y-72125714D01*
X180590000Y-72268571D01*
X180518571Y-72340000D01*
X180375714Y-72411428D01*
X179947142Y-72411428D01*
X179804285Y-72340000D01*
X179732857Y-72268571D01*
X179661428Y-72125714D01*
X179661428Y-71911428D01*
X179661428Y-73697142D02*
X181161428Y-73697142D01*
X179732857Y-73697142D02*
X179661428Y-73554285D01*
X179661428Y-73268571D01*
X179732857Y-73125714D01*
X179804285Y-73054285D01*
X179947142Y-72982857D01*
X180375714Y-72982857D01*
X180518571Y-73054285D01*
X180590000Y-73125714D01*
X180661428Y-73268571D01*
X180661428Y-73554285D01*
X180590000Y-73697142D01*
X179732857Y-74982857D02*
X179661428Y-74840000D01*
X179661428Y-74554285D01*
X179732857Y-74411428D01*
X179875714Y-74340000D01*
X180447142Y-74340000D01*
X180590000Y-74411428D01*
X180661428Y-74554285D01*
X180661428Y-74840000D01*
X180590000Y-74982857D01*
X180447142Y-75054285D01*
X180304285Y-75054285D01*
X180161428Y-74340000D01*
X179661428Y-75697142D02*
X180661428Y-75697142D01*
X180375714Y-75697142D02*
X180518571Y-75768571D01*
X180590000Y-75840000D01*
X180661428Y-75982857D01*
X180661428Y-76125714D01*
X190809714Y-57280000D02*
X190666857Y-57708571D01*
X190666857Y-58422857D01*
X190809714Y-58708571D01*
X190952571Y-58851428D01*
X191238285Y-58994285D01*
X191524000Y-58994285D01*
X191809714Y-58851428D01*
X191952571Y-58708571D01*
X192095428Y-58422857D01*
X192238285Y-57851428D01*
X192381142Y-57565714D01*
X192524000Y-57422857D01*
X192809714Y-57280000D01*
X193095428Y-57280000D01*
X193381142Y-57422857D01*
X193524000Y-57565714D01*
X193666857Y-57851428D01*
X193666857Y-58565714D01*
X193524000Y-58994285D01*
X192666857Y-59851428D02*
X192666857Y-60994285D01*
X193666857Y-60280000D02*
X191095428Y-60280000D01*
X190809714Y-60422857D01*
X190666857Y-60708571D01*
X190666857Y-60994285D01*
X190809714Y-63137142D02*
X190666857Y-62851428D01*
X190666857Y-62280000D01*
X190809714Y-61994285D01*
X191095428Y-61851428D01*
X192238285Y-61851428D01*
X192524000Y-61994285D01*
X192666857Y-62280000D01*
X192666857Y-62851428D01*
X192524000Y-63137142D01*
X192238285Y-63280000D01*
X191952571Y-63280000D01*
X191666857Y-61851428D01*
X192666857Y-64280000D02*
X190666857Y-64994285D01*
X192666857Y-65708571D01*
X190809714Y-67994285D02*
X190666857Y-67708571D01*
X190666857Y-67137142D01*
X190809714Y-66851428D01*
X191095428Y-66708571D01*
X192238285Y-66708571D01*
X192524000Y-66851428D01*
X192666857Y-67137142D01*
X192666857Y-67708571D01*
X192524000Y-67994285D01*
X192238285Y-68137142D01*
X191952571Y-68137142D01*
X191666857Y-66708571D01*
X193666857Y-72994285D02*
X193666857Y-72422857D01*
X193524000Y-72137142D01*
X193381142Y-71994285D01*
X192952571Y-71708571D01*
X192381142Y-71565714D01*
X191238285Y-71565714D01*
X190952571Y-71708571D01*
X190809714Y-71851428D01*
X190666857Y-72137142D01*
X190666857Y-72708571D01*
X190809714Y-72994285D01*
X190952571Y-73137142D01*
X191238285Y-73280000D01*
X191952571Y-73280000D01*
X192238285Y-73137142D01*
X192381142Y-72994285D01*
X192524000Y-72708571D01*
X192524000Y-72137142D01*
X192381142Y-71851428D01*
X192238285Y-71708571D01*
X191952571Y-71565714D01*
X192381142Y-74994285D02*
X192524000Y-74708571D01*
X192666857Y-74565714D01*
X192952571Y-74422857D01*
X193095428Y-74422857D01*
X193381142Y-74565714D01*
X193524000Y-74708571D01*
X193666857Y-74994285D01*
X193666857Y-75565714D01*
X193524000Y-75851428D01*
X193381142Y-75994285D01*
X193095428Y-76137142D01*
X192952571Y-76137142D01*
X192666857Y-75994285D01*
X192524000Y-75851428D01*
X192381142Y-75565714D01*
X192381142Y-74994285D01*
X192238285Y-74708571D01*
X192095428Y-74565714D01*
X191809714Y-74422857D01*
X191238285Y-74422857D01*
X190952571Y-74565714D01*
X190809714Y-74708571D01*
X190666857Y-74994285D01*
X190666857Y-75565714D01*
X190809714Y-75851428D01*
X190952571Y-75994285D01*
X191238285Y-76137142D01*
X191809714Y-76137142D01*
X192095428Y-75994285D01*
X192238285Y-75851428D01*
X192381142Y-75565714D01*
X190666857Y-77422857D02*
X193666857Y-77422857D01*
X191809714Y-77708571D02*
X190666857Y-78565714D01*
X192666857Y-78565714D02*
X191524000Y-77422857D01*
X190952571Y-83851428D02*
X190809714Y-83708571D01*
X190666857Y-83280000D01*
X190666857Y-82994285D01*
X190809714Y-82565714D01*
X191095428Y-82280000D01*
X191381142Y-82137142D01*
X191952571Y-81994285D01*
X192381142Y-81994285D01*
X192952571Y-82137142D01*
X193238285Y-82280000D01*
X193524000Y-82565714D01*
X193666857Y-82994285D01*
X193666857Y-83280000D01*
X193524000Y-83708571D01*
X193381142Y-83851428D01*
X190666857Y-85137142D02*
X193666857Y-85137142D01*
X193666857Y-86280000D01*
X193524000Y-86565714D01*
X193381142Y-86708571D01*
X193095428Y-86851428D01*
X192666857Y-86851428D01*
X192381142Y-86708571D01*
X192238285Y-86565714D01*
X192095428Y-86280000D01*
X192095428Y-85137142D01*
X193666857Y-88137142D02*
X191238285Y-88137142D01*
X190952571Y-88280000D01*
X190809714Y-88422857D01*
X190666857Y-88708571D01*
X190666857Y-89280000D01*
X190809714Y-89565714D01*
X190952571Y-89708571D01*
X191238285Y-89851428D01*
X193666857Y-89851428D01*
X192238285Y-94565714D02*
X192095428Y-94994285D01*
X191952571Y-95137142D01*
X191666857Y-95280000D01*
X191238285Y-95280000D01*
X190952571Y-95137142D01*
X190809714Y-94994285D01*
X190666857Y-94708571D01*
X190666857Y-93565714D01*
X193666857Y-93565714D01*
X193666857Y-94565714D01*
X193524000Y-94851428D01*
X193381142Y-94994285D01*
X193095428Y-95137142D01*
X192809714Y-95137142D01*
X192524000Y-94994285D01*
X192381142Y-94851428D01*
X192238285Y-94565714D01*
X192238285Y-93565714D01*
X190666857Y-96994285D02*
X190809714Y-96708571D01*
X190952571Y-96565714D01*
X191238285Y-96422857D01*
X192095428Y-96422857D01*
X192381142Y-96565714D01*
X192524000Y-96708571D01*
X192666857Y-96994285D01*
X192666857Y-97422857D01*
X192524000Y-97708571D01*
X192381142Y-97851428D01*
X192095428Y-97994285D01*
X191238285Y-97994285D01*
X190952571Y-97851428D01*
X190809714Y-97708571D01*
X190666857Y-97422857D01*
X190666857Y-96994285D01*
X190666857Y-100565714D02*
X192238285Y-100565714D01*
X192524000Y-100422857D01*
X192666857Y-100137142D01*
X192666857Y-99565714D01*
X192524000Y-99280000D01*
X190809714Y-100565714D02*
X190666857Y-100280000D01*
X190666857Y-99565714D01*
X190809714Y-99280000D01*
X191095428Y-99137142D01*
X191381142Y-99137142D01*
X191666857Y-99280000D01*
X191809714Y-99565714D01*
X191809714Y-100280000D01*
X191952571Y-100565714D01*
X190666857Y-101994285D02*
X192666857Y-101994285D01*
X192095428Y-101994285D02*
X192381142Y-102137142D01*
X192524000Y-102280000D01*
X192666857Y-102565714D01*
X192666857Y-102851428D01*
X190666857Y-105137142D02*
X193666857Y-105137142D01*
X190809714Y-105137142D02*
X190666857Y-104851428D01*
X190666857Y-104280000D01*
X190809714Y-103994285D01*
X190952571Y-103851428D01*
X191238285Y-103708571D01*
X192095428Y-103708571D01*
X192381142Y-103851428D01*
X192524000Y-103994285D01*
X192666857Y-104280000D01*
X192666857Y-104851428D01*
X192524000Y-105137142D01*
D12*
X185594666Y-109390380D02*
X185594666Y-110104666D01*
X185547047Y-110247523D01*
X185451809Y-110342761D01*
X185308952Y-110390380D01*
X185213714Y-110390380D01*
X186023238Y-109485619D02*
X186070857Y-109438000D01*
X186166095Y-109390380D01*
X186404190Y-109390380D01*
X186499428Y-109438000D01*
X186547047Y-109485619D01*
X186594666Y-109580857D01*
X186594666Y-109676095D01*
X186547047Y-109818952D01*
X185975619Y-110390380D01*
X186594666Y-110390380D01*
X108346380Y-82316666D02*
X107870190Y-82650000D01*
X108346380Y-82888095D02*
X107346380Y-82888095D01*
X107346380Y-82507142D01*
X107394000Y-82411904D01*
X107441619Y-82364285D01*
X107536857Y-82316666D01*
X107679714Y-82316666D01*
X107774952Y-82364285D01*
X107822571Y-82411904D01*
X107870190Y-82507142D01*
X107870190Y-82888095D01*
X108346380Y-81364285D02*
X108346380Y-81935714D01*
X108346380Y-81650000D02*
X107346380Y-81650000D01*
X107489238Y-81745238D01*
X107584476Y-81840476D01*
X107632095Y-81935714D01*
X173305333Y-112103142D02*
X173257714Y-112150761D01*
X173114857Y-112198380D01*
X173019619Y-112198380D01*
X172876761Y-112150761D01*
X172781523Y-112055523D01*
X172733904Y-111960285D01*
X172686285Y-111769809D01*
X172686285Y-111626952D01*
X172733904Y-111436476D01*
X172781523Y-111341238D01*
X172876761Y-111246000D01*
X173019619Y-111198380D01*
X173114857Y-111198380D01*
X173257714Y-111246000D01*
X173305333Y-111293619D01*
X174162476Y-111531714D02*
X174162476Y-112198380D01*
X173924380Y-111150761D02*
X173686285Y-111865047D01*
X174305333Y-111865047D01*
X172668095Y-53062380D02*
X172668095Y-53871904D01*
X172715714Y-53967142D01*
X172763333Y-54014761D01*
X172858571Y-54062380D01*
X173049047Y-54062380D01*
X173144285Y-54014761D01*
X173191904Y-53967142D01*
X173239523Y-53871904D01*
X173239523Y-53062380D01*
X173668095Y-53157619D02*
X173715714Y-53110000D01*
X173810952Y-53062380D01*
X174049047Y-53062380D01*
X174144285Y-53110000D01*
X174191904Y-53157619D01*
X174239523Y-53252857D01*
X174239523Y-53348095D01*
X174191904Y-53490952D01*
X173620476Y-54062380D01*
X174239523Y-54062380D01*
X108492380Y-87618857D02*
X108016190Y-87952190D01*
X108492380Y-88190285D02*
X107492380Y-88190285D01*
X107492380Y-87809333D01*
X107540000Y-87714095D01*
X107587619Y-87666476D01*
X107682857Y-87618857D01*
X107825714Y-87618857D01*
X107920952Y-87666476D01*
X107968571Y-87714095D01*
X108016190Y-87809333D01*
X108016190Y-88190285D01*
X108492380Y-86666476D02*
X108492380Y-87237904D01*
X108492380Y-86952190D02*
X107492380Y-86952190D01*
X107635238Y-87047428D01*
X107730476Y-87142666D01*
X107778095Y-87237904D01*
X108492380Y-85714095D02*
X108492380Y-86285523D01*
X108492380Y-85999809D02*
X107492380Y-85999809D01*
X107635238Y-86095047D01*
X107730476Y-86190285D01*
X107778095Y-86285523D01*
X125606380Y-140001523D02*
X126606380Y-139334857D01*
X125606380Y-139334857D02*
X126606380Y-140001523D01*
X126606380Y-138430095D02*
X126606380Y-139001523D01*
X126606380Y-138715809D02*
X125606380Y-138715809D01*
X125749238Y-138811047D01*
X125844476Y-138906285D01*
X125892095Y-139001523D01*
X173285333Y-78316142D02*
X173237714Y-78363761D01*
X173094857Y-78411380D01*
X172999619Y-78411380D01*
X172856761Y-78363761D01*
X172761523Y-78268523D01*
X172713904Y-78173285D01*
X172666285Y-77982809D01*
X172666285Y-77839952D01*
X172713904Y-77649476D01*
X172761523Y-77554238D01*
X172856761Y-77459000D01*
X172999619Y-77411380D01*
X173094857Y-77411380D01*
X173237714Y-77459000D01*
X173285333Y-77506619D01*
X173618666Y-77411380D02*
X174237714Y-77411380D01*
X173904380Y-77792333D01*
X174047238Y-77792333D01*
X174142476Y-77839952D01*
X174190095Y-77887571D01*
X174237714Y-77982809D01*
X174237714Y-78220904D01*
X174190095Y-78316142D01*
X174142476Y-78363761D01*
X174047238Y-78411380D01*
X173761523Y-78411380D01*
X173666285Y-78363761D01*
X173618666Y-78316142D01*
X113513333Y-95204380D02*
X113180000Y-94728190D01*
X112941904Y-95204380D02*
X112941904Y-94204380D01*
X113322857Y-94204380D01*
X113418095Y-94252000D01*
X113465714Y-94299619D01*
X113513333Y-94394857D01*
X113513333Y-94537714D01*
X113465714Y-94632952D01*
X113418095Y-94680571D01*
X113322857Y-94728190D01*
X112941904Y-94728190D01*
X114084761Y-94632952D02*
X113989523Y-94585333D01*
X113941904Y-94537714D01*
X113894285Y-94442476D01*
X113894285Y-94394857D01*
X113941904Y-94299619D01*
X113989523Y-94252000D01*
X114084761Y-94204380D01*
X114275238Y-94204380D01*
X114370476Y-94252000D01*
X114418095Y-94299619D01*
X114465714Y-94394857D01*
X114465714Y-94442476D01*
X114418095Y-94537714D01*
X114370476Y-94585333D01*
X114275238Y-94632952D01*
X114084761Y-94632952D01*
X113989523Y-94680571D01*
X113941904Y-94728190D01*
X113894285Y-94823428D01*
X113894285Y-95013904D01*
X113941904Y-95109142D01*
X113989523Y-95156761D01*
X114084761Y-95204380D01*
X114275238Y-95204380D01*
X114370476Y-95156761D01*
X114418095Y-95109142D01*
X114465714Y-95013904D01*
X114465714Y-94823428D01*
X114418095Y-94728190D01*
X114370476Y-94680571D01*
X114275238Y-94632952D01*
X97171666Y-137617380D02*
X97171666Y-138331666D01*
X97124047Y-138474523D01*
X97028809Y-138569761D01*
X96885952Y-138617380D01*
X96790714Y-138617380D01*
X98171666Y-138617380D02*
X97600238Y-138617380D01*
X97885952Y-138617380D02*
X97885952Y-137617380D01*
X97790714Y-137760238D01*
X97695476Y-137855476D01*
X97600238Y-137903095D01*
X185148666Y-76163619D02*
X185482000Y-76639809D01*
X185720095Y-76163619D02*
X185720095Y-77163619D01*
X185339142Y-77163619D01*
X185243904Y-77116000D01*
X185196285Y-77068380D01*
X185148666Y-76973142D01*
X185148666Y-76830285D01*
X185196285Y-76735047D01*
X185243904Y-76687428D01*
X185339142Y-76639809D01*
X185720095Y-76639809D01*
X184767714Y-77068380D02*
X184720095Y-77116000D01*
X184624857Y-77163619D01*
X184386761Y-77163619D01*
X184291523Y-77116000D01*
X184243904Y-77068380D01*
X184196285Y-76973142D01*
X184196285Y-76877904D01*
X184243904Y-76735047D01*
X184815333Y-76163619D01*
X184196285Y-76163619D01*
X170527142Y-51456666D02*
X170574761Y-51504285D01*
X170622380Y-51647142D01*
X170622380Y-51742380D01*
X170574761Y-51885238D01*
X170479523Y-51980476D01*
X170384285Y-52028095D01*
X170193809Y-52075714D01*
X170050952Y-52075714D01*
X169860476Y-52028095D01*
X169765238Y-51980476D01*
X169670000Y-51885238D01*
X169622380Y-51742380D01*
X169622380Y-51647142D01*
X169670000Y-51504285D01*
X169717619Y-51456666D01*
X169717619Y-51075714D02*
X169670000Y-51028095D01*
X169622380Y-50932857D01*
X169622380Y-50694761D01*
X169670000Y-50599523D01*
X169717619Y-50551904D01*
X169812857Y-50504285D01*
X169908095Y-50504285D01*
X170050952Y-50551904D01*
X170622380Y-51123333D01*
X170622380Y-50504285D01*
X172720095Y-81958380D02*
X172720095Y-82767904D01*
X172767714Y-82863142D01*
X172815333Y-82910761D01*
X172910571Y-82958380D01*
X173101047Y-82958380D01*
X173196285Y-82910761D01*
X173243904Y-82863142D01*
X173291523Y-82767904D01*
X173291523Y-81958380D01*
X174291523Y-82958380D02*
X173720095Y-82958380D01*
X174005809Y-82958380D02*
X174005809Y-81958380D01*
X173910571Y-82101238D01*
X173815333Y-82196476D01*
X173720095Y-82244095D01*
X162637333Y-72777380D02*
X162304000Y-72301190D01*
X162065904Y-72777380D02*
X162065904Y-71777380D01*
X162446857Y-71777380D01*
X162542095Y-71825000D01*
X162589714Y-71872619D01*
X162637333Y-71967857D01*
X162637333Y-72110714D01*
X162589714Y-72205952D01*
X162542095Y-72253571D01*
X162446857Y-72301190D01*
X162065904Y-72301190D01*
X163494476Y-71777380D02*
X163304000Y-71777380D01*
X163208761Y-71825000D01*
X163161142Y-71872619D01*
X163065904Y-72015476D01*
X163018285Y-72205952D01*
X163018285Y-72586904D01*
X163065904Y-72682142D01*
X163113523Y-72729761D01*
X163208761Y-72777380D01*
X163399238Y-72777380D01*
X163494476Y-72729761D01*
X163542095Y-72682142D01*
X163589714Y-72586904D01*
X163589714Y-72348809D01*
X163542095Y-72253571D01*
X163494476Y-72205952D01*
X163399238Y-72158333D01*
X163208761Y-72158333D01*
X163113523Y-72205952D01*
X163065904Y-72253571D01*
X163018285Y-72348809D01*
X162737333Y-49666380D02*
X162404000Y-49190190D01*
X162165904Y-49666380D02*
X162165904Y-48666380D01*
X162546857Y-48666380D01*
X162642095Y-48714000D01*
X162689714Y-48761619D01*
X162737333Y-48856857D01*
X162737333Y-48999714D01*
X162689714Y-49094952D01*
X162642095Y-49142571D01*
X162546857Y-49190190D01*
X162165904Y-49190190D01*
X163642095Y-48666380D02*
X163165904Y-48666380D01*
X163118285Y-49142571D01*
X163165904Y-49094952D01*
X163261142Y-49047333D01*
X163499238Y-49047333D01*
X163594476Y-49094952D01*
X163642095Y-49142571D01*
X163689714Y-49237809D01*
X163689714Y-49475904D01*
X163642095Y-49571142D01*
X163594476Y-49618761D01*
X163499238Y-49666380D01*
X163261142Y-49666380D01*
X163165904Y-49618761D01*
X163118285Y-49571142D01*
X172720095Y-115740380D02*
X172720095Y-116549904D01*
X172767714Y-116645142D01*
X172815333Y-116692761D01*
X172910571Y-116740380D01*
X173101047Y-116740380D01*
X173196285Y-116692761D01*
X173243904Y-116645142D01*
X173291523Y-116549904D01*
X173291523Y-115740380D01*
X173672476Y-115740380D02*
X174291523Y-115740380D01*
X173958190Y-116121333D01*
X174101047Y-116121333D01*
X174196285Y-116168952D01*
X174243904Y-116216571D01*
X174291523Y-116311809D01*
X174291523Y-116549904D01*
X174243904Y-116645142D01*
X174196285Y-116692761D01*
X174101047Y-116740380D01*
X173815333Y-116740380D01*
X173720095Y-116692761D01*
X173672476Y-116645142D01*
X152771142Y-81700666D02*
X152818761Y-81748285D01*
X152866380Y-81891142D01*
X152866380Y-81986380D01*
X152818761Y-82129238D01*
X152723523Y-82224476D01*
X152628285Y-82272095D01*
X152437809Y-82319714D01*
X152294952Y-82319714D01*
X152104476Y-82272095D01*
X152009238Y-82224476D01*
X151914000Y-82129238D01*
X151866380Y-81986380D01*
X151866380Y-81891142D01*
X151914000Y-81748285D01*
X151961619Y-81700666D01*
X151866380Y-80843523D02*
X151866380Y-81034000D01*
X151914000Y-81129238D01*
X151961619Y-81176857D01*
X152104476Y-81272095D01*
X152294952Y-81319714D01*
X152675904Y-81319714D01*
X152771142Y-81272095D01*
X152818761Y-81224476D01*
X152866380Y-81129238D01*
X152866380Y-80938761D01*
X152818761Y-80843523D01*
X152771142Y-80795904D01*
X152675904Y-80748285D01*
X152437809Y-80748285D01*
X152342571Y-80795904D01*
X152294952Y-80843523D01*
X152247333Y-80938761D01*
X152247333Y-81129238D01*
X152294952Y-81224476D01*
X152342571Y-81272095D01*
X152437809Y-81319714D01*
X113283333Y-107804380D02*
X112950000Y-107328190D01*
X112711904Y-107804380D02*
X112711904Y-106804380D01*
X113092857Y-106804380D01*
X113188095Y-106852000D01*
X113235714Y-106899619D01*
X113283333Y-106994857D01*
X113283333Y-107137714D01*
X113235714Y-107232952D01*
X113188095Y-107280571D01*
X113092857Y-107328190D01*
X112711904Y-107328190D01*
X113759523Y-107804380D02*
X113950000Y-107804380D01*
X114045238Y-107756761D01*
X114092857Y-107709142D01*
X114188095Y-107566285D01*
X114235714Y-107375809D01*
X114235714Y-106994857D01*
X114188095Y-106899619D01*
X114140476Y-106852000D01*
X114045238Y-106804380D01*
X113854761Y-106804380D01*
X113759523Y-106852000D01*
X113711904Y-106899619D01*
X113664285Y-106994857D01*
X113664285Y-107232952D01*
X113711904Y-107328190D01*
X113759523Y-107375809D01*
X113854761Y-107423428D01*
X114045238Y-107423428D01*
X114140476Y-107375809D01*
X114188095Y-107328190D01*
X114235714Y-107232952D01*
X143597333Y-136501142D02*
X143549714Y-136548761D01*
X143406857Y-136596380D01*
X143311619Y-136596380D01*
X143168761Y-136548761D01*
X143073523Y-136453523D01*
X143025904Y-136358285D01*
X142978285Y-136167809D01*
X142978285Y-136024952D01*
X143025904Y-135834476D01*
X143073523Y-135739238D01*
X143168761Y-135644000D01*
X143311619Y-135596380D01*
X143406857Y-135596380D01*
X143549714Y-135644000D01*
X143597333Y-135691619D01*
X144549714Y-136596380D02*
X143978285Y-136596380D01*
X144264000Y-136596380D02*
X144264000Y-135596380D01*
X144168761Y-135739238D01*
X144073523Y-135834476D01*
X143978285Y-135882095D01*
X112867142Y-104024380D02*
X112533809Y-103548190D01*
X112295714Y-104024380D02*
X112295714Y-103024380D01*
X112676666Y-103024380D01*
X112771904Y-103072000D01*
X112819523Y-103119619D01*
X112867142Y-103214857D01*
X112867142Y-103357714D01*
X112819523Y-103452952D01*
X112771904Y-103500571D01*
X112676666Y-103548190D01*
X112295714Y-103548190D01*
X113819523Y-104024380D02*
X113248095Y-104024380D01*
X113533809Y-104024380D02*
X113533809Y-103024380D01*
X113438571Y-103167238D01*
X113343333Y-103262476D01*
X113248095Y-103310095D01*
X114438571Y-103024380D02*
X114533809Y-103024380D01*
X114629047Y-103072000D01*
X114676666Y-103119619D01*
X114724285Y-103214857D01*
X114771904Y-103405333D01*
X114771904Y-103643428D01*
X114724285Y-103833904D01*
X114676666Y-103929142D01*
X114629047Y-103976761D01*
X114533809Y-104024380D01*
X114438571Y-104024380D01*
X114343333Y-103976761D01*
X114295714Y-103929142D01*
X114248095Y-103833904D01*
X114200476Y-103643428D01*
X114200476Y-103405333D01*
X114248095Y-103214857D01*
X114295714Y-103119619D01*
X114343333Y-103072000D01*
X114438571Y-103024380D01*
X132847095Y-47663380D02*
X132847095Y-48472904D01*
X132894714Y-48568142D01*
X132942333Y-48615761D01*
X133037571Y-48663380D01*
X133228047Y-48663380D01*
X133323285Y-48615761D01*
X133370904Y-48568142D01*
X133418523Y-48472904D01*
X133418523Y-47663380D01*
X134323285Y-47996714D02*
X134323285Y-48663380D01*
X134085190Y-47615761D02*
X133847095Y-48330047D01*
X134466142Y-48330047D01*
X114897142Y-75858666D02*
X114944761Y-75906285D01*
X114992380Y-76049142D01*
X114992380Y-76144380D01*
X114944761Y-76287238D01*
X114849523Y-76382476D01*
X114754285Y-76430095D01*
X114563809Y-76477714D01*
X114420952Y-76477714D01*
X114230476Y-76430095D01*
X114135238Y-76382476D01*
X114040000Y-76287238D01*
X113992380Y-76144380D01*
X113992380Y-76049142D01*
X114040000Y-75906285D01*
X114087619Y-75858666D01*
X113992380Y-74953904D02*
X113992380Y-75430095D01*
X114468571Y-75477714D01*
X114420952Y-75430095D01*
X114373333Y-75334857D01*
X114373333Y-75096761D01*
X114420952Y-75001523D01*
X114468571Y-74953904D01*
X114563809Y-74906285D01*
X114801904Y-74906285D01*
X114897142Y-74953904D01*
X114944761Y-75001523D01*
X114992380Y-75096761D01*
X114992380Y-75334857D01*
X114944761Y-75430095D01*
X114897142Y-75477714D01*
X162487333Y-84588380D02*
X162154000Y-84112190D01*
X161915904Y-84588380D02*
X161915904Y-83588380D01*
X162296857Y-83588380D01*
X162392095Y-83636000D01*
X162439714Y-83683619D01*
X162487333Y-83778857D01*
X162487333Y-83921714D01*
X162439714Y-84016952D01*
X162392095Y-84064571D01*
X162296857Y-84112190D01*
X161915904Y-84112190D01*
X162820666Y-83588380D02*
X163487333Y-83588380D01*
X163058761Y-84588380D01*
X184715333Y-53580380D02*
X184382000Y-53104190D01*
X184143904Y-53580380D02*
X184143904Y-52580380D01*
X184524857Y-52580380D01*
X184620095Y-52628000D01*
X184667714Y-52675619D01*
X184715333Y-52770857D01*
X184715333Y-52913714D01*
X184667714Y-53008952D01*
X184620095Y-53056571D01*
X184524857Y-53104190D01*
X184143904Y-53104190D01*
X185048666Y-52580380D02*
X185667714Y-52580380D01*
X185334380Y-52961333D01*
X185477238Y-52961333D01*
X185572476Y-53008952D01*
X185620095Y-53056571D01*
X185667714Y-53151809D01*
X185667714Y-53389904D01*
X185620095Y-53485142D01*
X185572476Y-53532761D01*
X185477238Y-53580380D01*
X185191523Y-53580380D01*
X185096285Y-53532761D01*
X185048666Y-53485142D01*
D13*
X184598000Y-110938000D02*
X185928000Y-110938000D01*
X184598000Y-133918000D02*
X187258000Y-133918000D01*
X184598000Y-113538000D02*
X187258000Y-113538000D01*
X187258000Y-113538000D02*
X187258000Y-133918000D01*
X184598000Y-113538000D02*
X184598000Y-133918000D01*
X184598000Y-112268000D02*
X184598000Y-110938000D01*
X117260000Y-83520000D02*
X110720000Y-83520000D01*
X110720000Y-83520000D02*
X110720000Y-83190000D01*
X117260000Y-83190000D02*
X117260000Y-83520000D01*
X117260000Y-81110000D02*
X117260000Y-80780000D01*
X117260000Y-80780000D02*
X110720000Y-80780000D01*
X110720000Y-80780000D02*
X110720000Y-81110000D01*
X175292000Y-114971000D02*
X175292000Y-115216000D01*
X171652000Y-114971000D02*
X171652000Y-115216000D01*
X171652000Y-112876000D02*
X171652000Y-113121000D01*
X171652000Y-115216000D02*
X175292000Y-115216000D01*
X171652000Y-112876000D02*
X175292000Y-112876000D01*
X175292000Y-112876000D02*
X175292000Y-113121000D01*
X178680000Y-54550000D02*
X168180000Y-54550000D01*
X171180000Y-75050000D02*
X175680000Y-75050000D01*
X178680000Y-75110000D02*
X178680000Y-54550000D01*
X168180000Y-75110000D02*
X178680000Y-75110000D01*
X168180000Y-54550000D02*
X168180000Y-75110000D01*
X172430000Y-54610000D02*
X171180000Y-54610000D01*
X171180000Y-54610000D02*
X171180000Y-75050000D01*
X175680000Y-75050000D02*
X175680000Y-54610000D01*
X175680000Y-54610000D02*
X174430000Y-54610000D01*
X172430000Y-54610000D02*
G75*
G03*
X174430000Y-54610000I1000000J0D01*
G01*
X110720000Y-88052000D02*
X110720000Y-88382000D01*
X110720000Y-85642000D02*
X117260000Y-85642000D01*
X110720000Y-85972000D02*
X110720000Y-85642000D01*
X117260000Y-88382000D02*
X117260000Y-88052000D01*
X117260000Y-85642000D02*
X117260000Y-85972000D01*
X110720000Y-88382000D02*
X117260000Y-88382000D01*
X140054000Y-145642000D02*
X140054000Y-133492000D01*
X139304000Y-132742000D02*
X127904000Y-132742000D01*
X127154000Y-133492000D02*
X127154000Y-144892000D01*
X127904000Y-145642000D02*
X140054000Y-145642000D01*
X127154000Y-144892000D02*
G75*
G03*
X127904000Y-145642000I750000J0D01*
G01*
X140054000Y-133492000D02*
G75*
G03*
X139304000Y-132742000I-750000J0D01*
G01*
X127904000Y-132742000D02*
G75*
G03*
X127154000Y-133492000I0J-750000D01*
G01*
X175272000Y-81184000D02*
X175272000Y-81429000D01*
X175272000Y-79089000D02*
X175272000Y-79334000D01*
X171632000Y-81429000D02*
X175272000Y-81429000D01*
X171632000Y-79089000D02*
X171632000Y-79334000D01*
X171632000Y-79089000D02*
X175272000Y-79089000D01*
X171632000Y-81184000D02*
X171632000Y-81429000D01*
X116950000Y-98492000D02*
X116950000Y-98162000D01*
X110410000Y-95752000D02*
X116950000Y-95752000D01*
X116950000Y-95752000D02*
X116950000Y-96082000D01*
X110410000Y-96082000D02*
X110410000Y-95752000D01*
X110410000Y-98492000D02*
X116950000Y-98492000D01*
X110410000Y-98162000D02*
X110410000Y-98492000D01*
X96520000Y-70235000D02*
X90520000Y-70235000D01*
X99577071Y-123575000D02*
X99180000Y-123575000D01*
X99577071Y-89795000D02*
X99180000Y-89795000D01*
X102117071Y-95635000D02*
X101662929Y-95635000D01*
X102117071Y-127895000D02*
X101662929Y-127895000D01*
X104430000Y-135895000D02*
X104430000Y-137165000D01*
X99180000Y-134625000D02*
X96520000Y-134625000D01*
X99180000Y-137225000D02*
X99180000Y-55825000D01*
X96520000Y-60075000D02*
X90520000Y-60075000D01*
X96520000Y-108335000D02*
X90520000Y-108335000D01*
X90520000Y-59315000D02*
X96520000Y-59315000D01*
X102117071Y-79635000D02*
X101662929Y-79635000D01*
X102117071Y-112655000D02*
X101662929Y-112655000D01*
X96520000Y-110875000D02*
X90520000Y-110875000D01*
X99577071Y-102495000D02*
X99180000Y-102495000D01*
X99577071Y-110875000D02*
X99180000Y-110875000D01*
X99577071Y-118495000D02*
X99180000Y-118495000D01*
X96520000Y-98175000D02*
X90520000Y-98175000D01*
X99577071Y-95635000D02*
X99180000Y-95635000D01*
X90520000Y-61855000D02*
X96520000Y-61855000D01*
X90520000Y-100715000D02*
X90520000Y-99955000D01*
X96520000Y-135615000D02*
X90520000Y-135615000D01*
X90520000Y-72775000D02*
X90520000Y-72015000D01*
X90520000Y-123575000D02*
X90520000Y-122815000D01*
X102117071Y-118495000D02*
X101662929Y-118495000D01*
X102117071Y-131195000D02*
X101662929Y-131195000D01*
X99577071Y-133735000D02*
X99180000Y-133735000D01*
X99577071Y-98175000D02*
X99180000Y-98175000D01*
X99577071Y-100715000D02*
X99180000Y-100715000D01*
X99577071Y-59315000D02*
X99180000Y-59315000D01*
X99577071Y-103255000D02*
X99180000Y-103255000D01*
X102050000Y-135515000D02*
X101662929Y-135515000D01*
X90520000Y-133735000D02*
X90520000Y-132975000D01*
X99577071Y-115195000D02*
X99180000Y-115195000D01*
X90520000Y-69475000D02*
X96520000Y-69475000D01*
X90520000Y-107575000D02*
X96520000Y-107575000D01*
X102117071Y-74555000D02*
X101662929Y-74555000D01*
X90520000Y-105035000D02*
X96520000Y-105035000D01*
X99577071Y-110115000D02*
X99180000Y-110115000D01*
X90520000Y-85475000D02*
X90520000Y-84715000D01*
X99180000Y-81285000D02*
X96520000Y-81285000D01*
X96520000Y-85475000D02*
X90520000Y-85475000D01*
X90520000Y-70235000D02*
X90520000Y-69475000D01*
X90520000Y-122815000D02*
X96520000Y-122815000D01*
X90520000Y-72015000D02*
X96520000Y-72015000D01*
X90520000Y-112655000D02*
X96520000Y-112655000D01*
X102117071Y-69475000D02*
X101662929Y-69475000D01*
X96520000Y-72775000D02*
X90520000Y-72775000D01*
X102117071Y-88015000D02*
X101662929Y-88015000D01*
X99577071Y-93095000D02*
X99180000Y-93095000D01*
X102117071Y-67695000D02*
X101662929Y-67695000D01*
X99180000Y-109225000D02*
X96520000Y-109225000D01*
X102117071Y-125355000D02*
X101662929Y-125355000D01*
X102117071Y-72775000D02*
X101662929Y-72775000D01*
X102117071Y-92335000D02*
X101662929Y-92335000D01*
X102117071Y-126115000D02*
X101662929Y-126115000D01*
X96520000Y-136215000D02*
X90520000Y-136215000D01*
X102117071Y-117735000D02*
X101662929Y-117735000D01*
X96520000Y-133735000D02*
X90520000Y-133735000D01*
X90520000Y-65155000D02*
X90520000Y-64395000D01*
X102117071Y-120275000D02*
X101662929Y-120275000D01*
X90520000Y-110875000D02*
X90520000Y-110115000D01*
X99577071Y-108335000D02*
X99180000Y-108335000D01*
X102117071Y-64395000D02*
X101662929Y-64395000D01*
X90520000Y-99955000D02*
X96520000Y-99955000D01*
X99180000Y-73665000D02*
X96520000Y-73665000D01*
X99577071Y-75315000D02*
X99180000Y-75315000D01*
X99577071Y-77855000D02*
X99180000Y-77855000D01*
X102117071Y-70235000D02*
X101662929Y-70235000D01*
X90520000Y-108335000D02*
X90520000Y-107575000D01*
X90520000Y-105795000D02*
X90520000Y-105035000D01*
X99577071Y-88015000D02*
X99180000Y-88015000D01*
X90520000Y-103255000D02*
X90520000Y-102495000D01*
X102117071Y-94875000D02*
X101662929Y-94875000D01*
X102117071Y-128655000D02*
X101662929Y-128655000D01*
X96520000Y-105795000D02*
X90520000Y-105795000D01*
X99577071Y-60075000D02*
X99180000Y-60075000D01*
X99180000Y-86365000D02*
X96520000Y-86365000D01*
X99577071Y-66935000D02*
X99180000Y-66935000D01*
X99577071Y-99955000D02*
X99180000Y-99955000D01*
X99577071Y-112655000D02*
X99180000Y-112655000D01*
X96520000Y-135975000D02*
X90520000Y-135975000D01*
X102117071Y-113415000D02*
X101662929Y-113415000D01*
X90520000Y-89795000D02*
X96520000Y-89795000D01*
X99577071Y-125355000D02*
X99180000Y-125355000D01*
X102117071Y-57535000D02*
X101662929Y-57535000D01*
X102117071Y-85475000D02*
X101662929Y-85475000D01*
X99577071Y-105795000D02*
X99180000Y-105795000D01*
X99577071Y-67695000D02*
X99180000Y-67695000D01*
X90520000Y-118495000D02*
X90520000Y-117735000D01*
X99180000Y-71125000D02*
X96520000Y-71125000D01*
X96520000Y-136275000D02*
X90520000Y-136275000D01*
X90520000Y-77095000D02*
X96520000Y-77095000D01*
X99577071Y-127895000D02*
X99180000Y-127895000D01*
X96520000Y-95635000D02*
X90520000Y-95635000D01*
X99577071Y-117735000D02*
X99180000Y-117735000D01*
X102117071Y-115195000D02*
X101662929Y-115195000D01*
X102117071Y-132975000D02*
X101662929Y-132975000D01*
X99577071Y-94875000D02*
X99180000Y-94875000D01*
X102117071Y-121035000D02*
X101662929Y-121035000D01*
X90520000Y-66935000D02*
X96520000Y-66935000D01*
X96520000Y-136095000D02*
X90520000Y-136095000D01*
X99577071Y-72015000D02*
X99180000Y-72015000D01*
X102117071Y-82935000D02*
X101662929Y-82935000D01*
X96520000Y-137225000D02*
X99180000Y-137225000D01*
X99577071Y-80395000D02*
X99180000Y-80395000D01*
X99180000Y-60965000D02*
X96520000Y-60965000D01*
X102117071Y-77095000D02*
X101662929Y-77095000D01*
X99577071Y-128655000D02*
X99180000Y-128655000D01*
X99180000Y-91445000D02*
X96520000Y-91445000D01*
X90520000Y-74555000D02*
X96520000Y-74555000D01*
X102117071Y-90555000D02*
X101662929Y-90555000D01*
X99180000Y-63505000D02*
X96520000Y-63505000D01*
X99577071Y-120275000D02*
X99180000Y-120275000D01*
X99577071Y-113415000D02*
X99180000Y-113415000D01*
X99180000Y-129545000D02*
X96520000Y-129545000D01*
X99180000Y-132085000D02*
X96520000Y-132085000D01*
X96520000Y-123575000D02*
X90520000Y-123575000D01*
X90520000Y-125355000D02*
X96520000Y-125355000D01*
X99577071Y-72775000D02*
X99180000Y-72775000D01*
X102117071Y-84715000D02*
X101662929Y-84715000D01*
X99577071Y-87255000D02*
X99180000Y-87255000D01*
X90520000Y-80395000D02*
X90520000Y-79635000D01*
X90520000Y-92335000D02*
X96520000Y-92335000D01*
X102117071Y-103255000D02*
X101662929Y-103255000D01*
X99180000Y-99065000D02*
X96520000Y-99065000D01*
X99577071Y-57535000D02*
X99180000Y-57535000D01*
X102117071Y-82175000D02*
X101662929Y-82175000D01*
X99577071Y-84715000D02*
X99180000Y-84715000D01*
X90520000Y-84715000D02*
X96520000Y-84715000D01*
X102117071Y-123575000D02*
X101662929Y-123575000D01*
X99577071Y-69475000D02*
X99180000Y-69475000D01*
X99180000Y-66045000D02*
X96520000Y-66045000D01*
X102117071Y-130435000D02*
X101662929Y-130435000D01*
X90520000Y-95635000D02*
X90520000Y-94875000D01*
X90520000Y-93095000D02*
X90520000Y-92335000D01*
X96520000Y-128655000D02*
X90520000Y-128655000D01*
X99180000Y-116845000D02*
X96520000Y-116845000D01*
X99180000Y-104145000D02*
X96520000Y-104145000D01*
X99577071Y-97415000D02*
X99180000Y-97415000D01*
X102117071Y-105795000D02*
X101662929Y-105795000D01*
X96520000Y-90555000D02*
X90520000Y-90555000D01*
X99577071Y-64395000D02*
X99180000Y-64395000D01*
X102117071Y-59315000D02*
X101662929Y-59315000D01*
X99577071Y-62615000D02*
X99180000Y-62615000D01*
X99180000Y-121925000D02*
X96520000Y-121925000D01*
X96520000Y-131195000D02*
X90520000Y-131195000D01*
X96520000Y-115955000D02*
X90520000Y-115955000D01*
X102117071Y-65155000D02*
X101662929Y-65155000D01*
X99577071Y-121035000D02*
X99180000Y-121035000D01*
X99180000Y-119385000D02*
X96520000Y-119385000D01*
X102117071Y-72015000D02*
X101662929Y-72015000D01*
X102117071Y-98175000D02*
X101662929Y-98175000D01*
X102117071Y-108335000D02*
X101662929Y-108335000D01*
X90520000Y-117735000D02*
X96520000Y-117735000D01*
X102117071Y-107575000D02*
X101662929Y-107575000D01*
X90520000Y-82935000D02*
X90520000Y-82175000D01*
X102117071Y-133735000D02*
X101662929Y-133735000D01*
X90520000Y-64395000D02*
X96520000Y-64395000D01*
X99180000Y-78745000D02*
X96520000Y-78745000D01*
X96520000Y-65155000D02*
X90520000Y-65155000D01*
X102117071Y-87255000D02*
X101662929Y-87255000D01*
X96520000Y-135735000D02*
X90520000Y-135735000D01*
X99577071Y-82935000D02*
X99180000Y-82935000D01*
X96520000Y-126115000D02*
X90520000Y-126115000D01*
X99180000Y-68585000D02*
X96520000Y-68585000D01*
X99180000Y-76205000D02*
X96520000Y-76205000D01*
X102117071Y-56775000D02*
X101662929Y-56775000D01*
X102117071Y-89795000D02*
X101662929Y-89795000D01*
X90520000Y-60075000D02*
X90520000Y-59315000D01*
X96520000Y-80395000D02*
X90520000Y-80395000D01*
X90520000Y-98175000D02*
X90520000Y-97415000D01*
X99577071Y-70235000D02*
X99180000Y-70235000D01*
X90520000Y-57535000D02*
X90520000Y-56775000D01*
X99180000Y-88905000D02*
X96520000Y-88905000D01*
X90520000Y-79635000D02*
X96520000Y-79635000D01*
X96520000Y-62615000D02*
X90520000Y-62615000D01*
X99577071Y-136275000D02*
X99180000Y-136275000D01*
X99180000Y-114305000D02*
X96520000Y-114305000D01*
X99180000Y-96525000D02*
X96520000Y-96525000D01*
X99577071Y-90555000D02*
X99180000Y-90555000D01*
X99577071Y-131195000D02*
X99180000Y-131195000D01*
X99577071Y-79635000D02*
X99180000Y-79635000D01*
X90520000Y-94875000D02*
X96520000Y-94875000D01*
X99577071Y-135515000D02*
X99180000Y-135515000D01*
X96520000Y-113415000D02*
X90520000Y-113415000D01*
X96520000Y-82935000D02*
X90520000Y-82935000D01*
X102117071Y-93095000D02*
X101662929Y-93095000D01*
X102117071Y-62615000D02*
X101662929Y-62615000D01*
X96520000Y-100715000D02*
X90520000Y-100715000D01*
X90520000Y-120275000D02*
X96520000Y-120275000D01*
X96520000Y-135855000D02*
X90520000Y-135855000D01*
X90520000Y-56775000D02*
X96520000Y-56775000D01*
X99577071Y-85475000D02*
X99180000Y-85475000D01*
X96520000Y-57535000D02*
X90520000Y-57535000D01*
X96520000Y-77855000D02*
X90520000Y-77855000D01*
X90520000Y-110115000D02*
X96520000Y-110115000D01*
X102117071Y-105035000D02*
X101662929Y-105035000D01*
X96520000Y-55825000D02*
X96520000Y-137225000D01*
X99577071Y-107575000D02*
X99180000Y-107575000D01*
X102117071Y-60075000D02*
X101662929Y-60075000D01*
X99180000Y-127005000D02*
X96520000Y-127005000D01*
X96520000Y-75315000D02*
X90520000Y-75315000D01*
X102117071Y-110875000D02*
X101662929Y-110875000D01*
X99577071Y-130435000D02*
X99180000Y-130435000D01*
X96520000Y-67695000D02*
X90520000Y-67695000D01*
X96520000Y-121035000D02*
X90520000Y-121035000D01*
X99180000Y-93985000D02*
X96520000Y-93985000D01*
X99577071Y-65155000D02*
X99180000Y-65155000D01*
X90520000Y-102495000D02*
X96520000Y-102495000D01*
X90520000Y-132975000D02*
X96520000Y-132975000D01*
X102117071Y-115955000D02*
X101662929Y-115955000D01*
X99180000Y-83825000D02*
X96520000Y-83825000D01*
X102117071Y-80395000D02*
X101662929Y-80395000D01*
X99180000Y-111765000D02*
X96520000Y-111765000D01*
X99180000Y-55825000D02*
X96520000Y-55825000D01*
X90520000Y-67695000D02*
X90520000Y-66935000D01*
X99577071Y-56775000D02*
X99180000Y-56775000D01*
X99180000Y-101605000D02*
X96520000Y-101605000D01*
X99577071Y-92335000D02*
X99180000Y-92335000D01*
X99180000Y-124465000D02*
X96520000Y-124465000D01*
X90520000Y-135515000D02*
X96520000Y-135515000D01*
X99180000Y-58425000D02*
X96520000Y-58425000D01*
X90520000Y-82175000D02*
X96520000Y-82175000D01*
X90520000Y-113415000D02*
X90520000Y-112655000D01*
X96520000Y-103255000D02*
X90520000Y-103255000D01*
X102117071Y-99955000D02*
X101662929Y-99955000D01*
X90520000Y-90555000D02*
X90520000Y-89795000D01*
X99577071Y-74555000D02*
X99180000Y-74555000D01*
X102117071Y-75315000D02*
X101662929Y-75315000D01*
X90520000Y-62615000D02*
X90520000Y-61855000D01*
X90520000Y-88015000D02*
X90520000Y-87255000D01*
X102117071Y-102495000D02*
X101662929Y-102495000D01*
X99577071Y-132975000D02*
X99180000Y-132975000D01*
X102117071Y-122815000D02*
X101662929Y-122815000D01*
X99577071Y-82175000D02*
X99180000Y-82175000D01*
X102117071Y-100715000D02*
X101662929Y-100715000D01*
X90520000Y-87255000D02*
X96520000Y-87255000D01*
X102117071Y-97415000D02*
X101662929Y-97415000D01*
X90520000Y-77855000D02*
X90520000Y-77095000D01*
X96520000Y-118495000D02*
X90520000Y-118495000D01*
X90520000Y-75315000D02*
X90520000Y-74555000D01*
X102117071Y-77855000D02*
X101662929Y-77855000D01*
X102050000Y-136275000D02*
X101662929Y-136275000D01*
X99577071Y-115955000D02*
X99180000Y-115955000D01*
X90520000Y-126115000D02*
X90520000Y-125355000D01*
X96520000Y-93095000D02*
X90520000Y-93095000D01*
X99180000Y-106685000D02*
X96520000Y-106685000D01*
X90520000Y-130435000D02*
X96520000Y-130435000D01*
X99577071Y-122815000D02*
X99180000Y-122815000D01*
X90520000Y-128655000D02*
X90520000Y-127895000D01*
X90520000Y-97415000D02*
X96520000Y-97415000D01*
X90520000Y-115955000D02*
X90520000Y-115195000D01*
X102117071Y-110115000D02*
X101662929Y-110115000D01*
X99577071Y-126115000D02*
X99180000Y-126115000D01*
X90520000Y-121035000D02*
X90520000Y-120275000D01*
X96520000Y-88015000D02*
X90520000Y-88015000D01*
X102117071Y-61855000D02*
X101662929Y-61855000D01*
X102117071Y-66935000D02*
X101662929Y-66935000D01*
X104430000Y-137165000D02*
X103160000Y-137165000D01*
X90520000Y-136275000D02*
X90520000Y-135515000D01*
X99577071Y-77095000D02*
X99180000Y-77095000D01*
X90520000Y-115195000D02*
X96520000Y-115195000D01*
X90520000Y-127895000D02*
X96520000Y-127895000D01*
X99577071Y-61855000D02*
X99180000Y-61855000D01*
X90520000Y-131195000D02*
X90520000Y-130435000D01*
X99577071Y-105035000D02*
X99180000Y-105035000D01*
X185952000Y-74136000D02*
X186282000Y-74136000D01*
X183542000Y-74136000D02*
X183542000Y-67596000D01*
X186282000Y-67596000D02*
X185952000Y-67596000D01*
X186282000Y-74136000D02*
X186282000Y-67596000D01*
X183872000Y-74136000D02*
X183542000Y-74136000D01*
X183542000Y-67596000D02*
X183872000Y-67596000D01*
X175240000Y-52480000D02*
X171600000Y-52480000D01*
X171600000Y-50385000D02*
X171600000Y-50140000D01*
X175240000Y-50385000D02*
X175240000Y-50140000D01*
X175240000Y-50140000D02*
X171600000Y-50140000D01*
X175240000Y-52480000D02*
X175240000Y-52235000D01*
X171600000Y-52480000D02*
X171600000Y-52235000D01*
X175732000Y-83506000D02*
X174482000Y-83506000D01*
X168232000Y-83446000D02*
X168232000Y-109086000D01*
X171232000Y-83506000D02*
X171232000Y-109026000D01*
X178732000Y-83446000D02*
X168232000Y-83446000D01*
X172482000Y-83506000D02*
X171232000Y-83506000D01*
X171232000Y-109026000D02*
X175732000Y-109026000D01*
X168232000Y-109086000D02*
X178732000Y-109086000D01*
X178732000Y-109086000D02*
X178732000Y-83446000D01*
X175732000Y-109026000D02*
X175732000Y-83506000D01*
X172482000Y-83506000D02*
G75*
G03*
X174482000Y-83506000I1000000J0D01*
G01*
X161774000Y-69945000D02*
X161444000Y-69945000D01*
X164184000Y-69945000D02*
X164184000Y-63405000D01*
X161444000Y-63405000D02*
X161774000Y-63405000D01*
X164184000Y-63405000D02*
X163854000Y-63405000D01*
X163854000Y-69945000D02*
X164184000Y-69945000D01*
X161444000Y-69945000D02*
X161444000Y-63405000D01*
X161444000Y-51594000D02*
X161444000Y-58134000D01*
X161774000Y-51594000D02*
X161444000Y-51594000D01*
X164184000Y-58134000D02*
X163854000Y-58134000D01*
X161444000Y-58134000D02*
X161774000Y-58134000D01*
X164184000Y-51594000D02*
X164184000Y-58134000D01*
X163854000Y-51594000D02*
X164184000Y-51594000D01*
X175732000Y-142808000D02*
X175732000Y-117288000D01*
X171232000Y-117288000D02*
X171232000Y-142808000D01*
X168232000Y-142868000D02*
X178732000Y-142868000D01*
X171232000Y-142808000D02*
X175732000Y-142808000D01*
X168232000Y-117228000D02*
X168232000Y-142868000D01*
X178732000Y-117228000D02*
X168232000Y-117228000D01*
X178732000Y-142868000D02*
X178732000Y-117228000D01*
X175732000Y-117288000D02*
X174482000Y-117288000D01*
X172482000Y-117288000D02*
X171232000Y-117288000D01*
X172482000Y-117288000D02*
G75*
G03*
X174482000Y-117288000I1000000J0D01*
G01*
X148944000Y-79714000D02*
X148944000Y-83354000D01*
X151284000Y-83354000D02*
X151039000Y-83354000D01*
X149189000Y-79714000D02*
X148944000Y-79714000D01*
X149189000Y-83354000D02*
X148944000Y-83354000D01*
X151284000Y-79714000D02*
X151039000Y-79714000D01*
X151284000Y-79714000D02*
X151284000Y-83354000D01*
X110180000Y-108682000D02*
X110180000Y-108352000D01*
X110180000Y-111092000D02*
X116720000Y-111092000D01*
X110180000Y-108352000D02*
X116720000Y-108352000D01*
X116720000Y-108352000D02*
X116720000Y-108682000D01*
X110180000Y-110762000D02*
X110180000Y-111092000D01*
X116720000Y-111092000D02*
X116720000Y-110762000D01*
X142594000Y-141266000D02*
X142839000Y-141266000D01*
X144689000Y-137626000D02*
X144934000Y-137626000D01*
X144934000Y-141266000D02*
X144934000Y-137626000D01*
X142594000Y-141266000D02*
X142594000Y-137626000D01*
X144689000Y-141266000D02*
X144934000Y-141266000D01*
X142594000Y-137626000D02*
X142839000Y-137626000D01*
X110240000Y-106982000D02*
X110240000Y-107312000D01*
X116780000Y-104572000D02*
X116780000Y-104902000D01*
X110240000Y-104572000D02*
X116780000Y-104572000D01*
X110240000Y-107312000D02*
X116780000Y-107312000D01*
X110240000Y-104902000D02*
X110240000Y-104572000D01*
X116780000Y-107312000D02*
X116780000Y-106982000D01*
X132609000Y-49211000D02*
X123739000Y-49211000D01*
X146479000Y-130671000D02*
X146479000Y-49151000D01*
X123739000Y-49211000D02*
X123739000Y-130611000D01*
X120739000Y-130671000D02*
X146479000Y-130671000D01*
X120739000Y-49151000D02*
X120739000Y-130671000D01*
X143479000Y-130611000D02*
X143479000Y-49211000D01*
X143479000Y-49211000D02*
X134609000Y-49211000D01*
X123739000Y-130611000D02*
X143479000Y-130611000D01*
X146479000Y-49151000D02*
X120739000Y-49151000D01*
X132609000Y-49211000D02*
G75*
G03*
X134609000Y-49211000I1000000J0D01*
G01*
X115670000Y-77512000D02*
X115915000Y-77512000D01*
X118010000Y-77512000D02*
X118010000Y-73872000D01*
X117765000Y-73872000D02*
X118010000Y-73872000D01*
X115670000Y-73872000D02*
X115915000Y-73872000D01*
X115670000Y-77512000D02*
X115670000Y-73872000D01*
X117765000Y-77512000D02*
X118010000Y-77512000D01*
X161444000Y-75216000D02*
X161774000Y-75216000D01*
X164184000Y-75216000D02*
X163854000Y-75216000D01*
X161774000Y-81756000D02*
X161444000Y-81756000D01*
X161444000Y-81756000D02*
X161444000Y-75216000D01*
X164184000Y-81756000D02*
X164184000Y-75216000D01*
X163854000Y-81756000D02*
X164184000Y-81756000D01*
X183542000Y-55658000D02*
X183542000Y-62198000D01*
X183542000Y-62198000D02*
X183872000Y-62198000D01*
X186282000Y-62198000D02*
X185952000Y-62198000D01*
X185952000Y-55658000D02*
X186282000Y-55658000D01*
X183872000Y-55658000D02*
X183542000Y-55658000D01*
X186282000Y-55658000D02*
X186282000Y-62198000D01*
%LPC*%
D14*
X185928000Y-132588000D03*
X185928000Y-130048000D03*
X185928000Y-127508000D03*
X185928000Y-124968000D03*
X185928000Y-122428000D03*
X185928000Y-119888000D03*
X185928000Y-117348000D03*
X185928000Y-114808000D03*
D15*
X185928000Y-112268000D03*
D16*
X192532000Y-50419000D03*
X192532000Y-142621000D03*
X106172000Y-50419000D03*
X106172000Y-142621000D03*
D17*
X117800000Y-82150000D03*
D18*
X110180000Y-82150000D03*
D17*
X172222000Y-114046000D03*
X174722000Y-114046000D03*
D19*
X169620000Y-55940000D03*
D20*
X169620000Y-58480000D03*
X169620000Y-61020000D03*
X169620000Y-63560000D03*
X169620000Y-66100000D03*
X169620000Y-68640000D03*
X169620000Y-71180000D03*
X169620000Y-73720000D03*
X177240000Y-73720000D03*
X177240000Y-71180000D03*
X177240000Y-68640000D03*
X177240000Y-66100000D03*
X177240000Y-63560000D03*
X177240000Y-61020000D03*
X177240000Y-58480000D03*
X177240000Y-55940000D03*
D17*
X110180000Y-87012000D03*
D18*
X117800000Y-87012000D03*
D21*
X137414000Y-143002000D03*
D17*
X137414000Y-135382000D03*
X129794000Y-135382000D03*
X129794000Y-143002000D03*
X172202000Y-80259000D03*
X174702000Y-80259000D03*
X109870000Y-97122000D03*
D18*
X117490000Y-97122000D03*
D15*
X103160000Y-135895000D03*
D14*
X100620000Y-135895000D03*
X103160000Y-133355000D03*
X100620000Y-133355000D03*
X103160000Y-130815000D03*
X100620000Y-130815000D03*
X103160000Y-128275000D03*
X100620000Y-128275000D03*
X103160000Y-125735000D03*
X100620000Y-125735000D03*
X103160000Y-123195000D03*
X100620000Y-123195000D03*
X103160000Y-120655000D03*
X100620000Y-120655000D03*
X103160000Y-118115000D03*
X100620000Y-118115000D03*
X103160000Y-115575000D03*
X100620000Y-115575000D03*
X103160000Y-113035000D03*
X100620000Y-113035000D03*
X103160000Y-110495000D03*
X100620000Y-110495000D03*
X103160000Y-107955000D03*
X100620000Y-107955000D03*
X103160000Y-105415000D03*
X100620000Y-105415000D03*
X103160000Y-102875000D03*
X100620000Y-102875000D03*
X103160000Y-100335000D03*
X100620000Y-100335000D03*
X103160000Y-97795000D03*
X100620000Y-97795000D03*
X103160000Y-95255000D03*
X100620000Y-95255000D03*
X103160000Y-92715000D03*
X100620000Y-92715000D03*
X103160000Y-90175000D03*
X100620000Y-90175000D03*
X103160000Y-87635000D03*
X100620000Y-87635000D03*
X103160000Y-85095000D03*
X100620000Y-85095000D03*
X103160000Y-82555000D03*
X100620000Y-82555000D03*
X103160000Y-80015000D03*
X100620000Y-80015000D03*
X103160000Y-77475000D03*
X100620000Y-77475000D03*
X103160000Y-74935000D03*
X100620000Y-74935000D03*
X103160000Y-72395000D03*
X100620000Y-72395000D03*
X103160000Y-69855000D03*
X100620000Y-69855000D03*
X103160000Y-67315000D03*
X100620000Y-67315000D03*
X103160000Y-64775000D03*
X100620000Y-64775000D03*
X103160000Y-62235000D03*
X100620000Y-62235000D03*
X103160000Y-59695000D03*
X100620000Y-59695000D03*
X103160000Y-57155000D03*
X100620000Y-57155000D03*
D17*
X184912000Y-74676000D03*
D18*
X184912000Y-67056000D03*
D17*
X174670000Y-51310000D03*
X172170000Y-51310000D03*
D19*
X169672000Y-84836000D03*
D20*
X169672000Y-87376000D03*
X169672000Y-89916000D03*
X169672000Y-92456000D03*
X169672000Y-94996000D03*
X169672000Y-97536000D03*
X169672000Y-100076000D03*
X169672000Y-102616000D03*
X169672000Y-105156000D03*
X169672000Y-107696000D03*
X177292000Y-107696000D03*
X177292000Y-105156000D03*
X177292000Y-102616000D03*
X177292000Y-100076000D03*
X177292000Y-97536000D03*
X177292000Y-94996000D03*
X177292000Y-92456000D03*
X177292000Y-89916000D03*
X177292000Y-87376000D03*
X177292000Y-84836000D03*
D17*
X162814000Y-70485000D03*
D18*
X162814000Y-62865000D03*
D17*
X162814000Y-51054000D03*
D18*
X162814000Y-58674000D03*
D19*
X169672000Y-118618000D03*
D20*
X169672000Y-121158000D03*
X169672000Y-123698000D03*
X169672000Y-126238000D03*
X169672000Y-128778000D03*
X169672000Y-131318000D03*
X169672000Y-133858000D03*
X169672000Y-136398000D03*
X169672000Y-138938000D03*
X169672000Y-141478000D03*
X177292000Y-141478000D03*
X177292000Y-138938000D03*
X177292000Y-136398000D03*
X177292000Y-133858000D03*
X177292000Y-131318000D03*
X177292000Y-128778000D03*
X177292000Y-126238000D03*
X177292000Y-123698000D03*
X177292000Y-121158000D03*
X177292000Y-118618000D03*
D17*
X150114000Y-80284000D03*
X150114000Y-82784000D03*
X109640000Y-109722000D03*
D18*
X117260000Y-109722000D03*
D17*
X143764000Y-140696000D03*
X143764000Y-138196000D03*
X109700000Y-105942000D03*
D18*
X117320000Y-105942000D03*
D19*
X122179000Y-50541000D03*
D20*
X122179000Y-53081000D03*
X122179000Y-55621000D03*
X122179000Y-58161000D03*
X122179000Y-60701000D03*
X122179000Y-63241000D03*
X122179000Y-65781000D03*
X122179000Y-68321000D03*
X122179000Y-70861000D03*
X122179000Y-73401000D03*
X122179000Y-75941000D03*
X122179000Y-78481000D03*
X122179000Y-81021000D03*
X122179000Y-83561000D03*
X122179000Y-86101000D03*
X122179000Y-88641000D03*
X122179000Y-91181000D03*
X122179000Y-93721000D03*
X122179000Y-96261000D03*
X122179000Y-98801000D03*
X122179000Y-101341000D03*
X122179000Y-103881000D03*
X122179000Y-106421000D03*
X122179000Y-108961000D03*
X122179000Y-111501000D03*
X122179000Y-114041000D03*
X122179000Y-116581000D03*
X122179000Y-119121000D03*
X122179000Y-121661000D03*
X122179000Y-124201000D03*
X122179000Y-126741000D03*
X122179000Y-129281000D03*
X145039000Y-129281000D03*
X145039000Y-126741000D03*
X145039000Y-124201000D03*
X145039000Y-121661000D03*
X145039000Y-119121000D03*
X145039000Y-116581000D03*
X145039000Y-114041000D03*
X145039000Y-111501000D03*
X145039000Y-108961000D03*
X145039000Y-106421000D03*
X145039000Y-103881000D03*
X145039000Y-101341000D03*
X145039000Y-98801000D03*
X145039000Y-96261000D03*
X145039000Y-93721000D03*
X145039000Y-91181000D03*
X145039000Y-88641000D03*
X145039000Y-86101000D03*
X145039000Y-83561000D03*
X145039000Y-81021000D03*
X145039000Y-78481000D03*
X145039000Y-75941000D03*
X145039000Y-73401000D03*
X145039000Y-70861000D03*
X145039000Y-68321000D03*
X145039000Y-65781000D03*
X145039000Y-63241000D03*
X145039000Y-60701000D03*
X145039000Y-58161000D03*
X145039000Y-55621000D03*
X145039000Y-53081000D03*
X145039000Y-50541000D03*
D17*
X116840000Y-76942000D03*
X116840000Y-74442000D03*
X162814000Y-82296000D03*
D18*
X162814000Y-74676000D03*
D17*
X184912000Y-55118000D03*
D18*
X184912000Y-62738000D03*
M02*
