M48
; DRILL file {KiCad (6.0.2)} date Sat Oct 15 15:39:53 2022
; FORMAT={-:-/ absolute / inch / decimal}
; #@! TF.CreationDate,2022-10-15T15:39:53-07:00
; #@! TF.GenerationSoftware,Kicad,Pcbnew,(6.0.2)
; #@! TF.FileFunction,Plated,1,2,PTH
FMAT,2
INCH
; #@! TA.AperFunction,Plated,PTH,ViaDrill
T1C0.0157
; #@! TA.AperFunction,Plated,PTH,ComponentDrill
T2C0.0315
; #@! TA.AperFunction,Plated,PTH,ComponentDrill
T3C0.0394
%
G90
G05
T1
X4.187Y-3.4468
X4.2762Y-3.4379
X4.307Y-3.0995
X4.3807Y-3.1419
X4.5134Y-4.279
X4.5373Y-4.0555
X4.571Y-3.2524
X4.6932Y-3.3555
X4.7224Y-4.9325
X4.7531Y-4.8306
X4.8084Y-5.2638
X4.9148Y-2.8318
T2
X4.4992Y-5.0953
X4.4992Y-5.3953
X4.563Y-4.3555
X4.5654Y-4.2067
X4.572Y-3.8594
X4.5843Y-3.4614
X4.5894Y-4.8567
X4.6878Y-4.8567
X4.7992Y-5.0953
X4.7992Y-5.3953
X4.8465Y-2.9665
X4.8465Y-3.065
X4.863Y-4.3555
X4.8654Y-4.2067
X4.872Y-3.8594
X4.8843Y-3.4614
X5.0366Y-2.2555
X5.0366Y-2.3555
X5.0366Y-2.4555
X5.0366Y-2.5555
X5.0366Y-2.6555
X5.0366Y-2.7555
X5.0366Y-2.8555
X5.0366Y-2.9555
X5.0366Y-3.0555
X5.0366Y-3.1555
X5.0366Y-3.2555
X5.0366Y-3.3555
X5.0366Y-3.4555
X5.0366Y-3.5555
X5.0366Y-3.6555
X5.0366Y-3.7555
X5.0366Y-3.8555
X5.0366Y-3.9555
X5.0366Y-4.0555
X5.0366Y-4.1555
X5.0366Y-4.2555
X5.0366Y-4.3555
X5.0366Y-4.4555
X5.0366Y-4.5555
X5.0366Y-4.6555
X5.0366Y-4.7555
X5.0366Y-4.8555
X5.0366Y-4.9555
X5.0366Y-5.0555
X5.0366Y-5.1555
X5.0366Y-5.2555
X5.0366Y-5.3555
X6.0366Y-2.2555
X6.0366Y-2.3555
X6.0366Y-2.4555
X6.0366Y-2.5555
X6.0366Y-2.6555
X6.0366Y-2.7555
X6.0366Y-2.8555
X6.0366Y-2.9555
X6.0366Y-3.0555
X6.0366Y-3.1555
X6.0366Y-3.2555
X6.0366Y-3.3555
X6.0366Y-3.4555
X6.0366Y-3.5555
X6.0366Y-3.6555
X6.0366Y-3.7555
X6.0366Y-3.8555
X6.0366Y-3.9555
X6.0366Y-4.0555
X6.0366Y-4.1555
X6.0366Y-4.2555
X6.0366Y-4.3555
X6.0366Y-4.4555
X6.0366Y-4.5555
X6.0366Y-4.6555
X6.0366Y-4.7555
X6.0366Y-4.8555
X6.0366Y-4.9555
X6.0366Y-5.0555
X6.0366Y-5.1555
X6.0366Y-5.2555
X6.0366Y-5.3555
X6.2252Y-3.5094
X6.2252Y-3.6079
X6.2272Y-2.1642
X6.2272Y-2.3028
X6.2272Y-2.4406
X6.5272Y-2.1642
X6.5272Y-2.3028
X6.5272Y-2.4406
X6.6768Y-3.338
X6.6768Y-3.438
X6.6768Y-3.538
X6.6768Y-3.638
X6.6768Y-3.738
X6.6768Y-3.838
X6.6768Y-3.938
X6.6768Y-4.038
X6.6768Y-4.138
X6.6768Y-4.238
X6.6768Y-4.338
X6.6768Y-4.438
X6.678Y-2.2024
X6.678Y-2.3024
X6.678Y-2.4024
X6.678Y-2.5024
X6.678Y-2.6024
X6.678Y-2.7024
X6.678Y-2.8024
X6.678Y-2.9024
X6.7772Y-3.147
X6.7783Y-2.0201
X6.8756Y-3.147
X6.8768Y-2.0201
X6.9768Y-3.338
X6.9768Y-3.438
X6.9768Y-3.538
X6.9768Y-3.638
X6.9768Y-3.738
X6.9768Y-3.838
X6.9768Y-3.938
X6.9768Y-4.038
X6.9768Y-4.138
X6.9768Y-4.238
X6.9768Y-4.338
X6.9768Y-4.438
X6.978Y-2.2024
X6.978Y-2.3024
X6.978Y-2.4024
X6.978Y-2.5024
X6.978Y-2.6024
X6.978Y-2.7024
X6.978Y-2.8024
X6.978Y-2.9024
X7.1331Y-2.4598
X7.1335Y-2.602
X7.4331Y-2.4598
X7.4335Y-2.602
T3
X3.9614Y-2.2502
X3.9614Y-2.3502
X3.9614Y-2.4502
X3.9614Y-2.5502
X3.9614Y-2.6502
X3.9614Y-2.7502
X3.9614Y-2.8502
X3.9614Y-2.9502
X3.9614Y-3.0502
X3.9614Y-3.1502
X3.9614Y-3.2502
X3.9614Y-3.3502
X3.9614Y-3.4502
X3.9614Y-3.5502
X3.9614Y-3.6502
X3.9614Y-3.7502
X3.9614Y-3.8502
X3.9614Y-3.9502
X3.9614Y-4.0502
X3.9614Y-4.1502
X3.9614Y-4.2502
X3.9614Y-4.3502
X3.9614Y-4.4502
X3.9614Y-4.5502
X3.9614Y-4.6502
X3.9614Y-4.7502
X3.9614Y-4.8502
X3.9614Y-4.9502
X3.9614Y-5.0502
X3.9614Y-5.1502
X3.9614Y-5.2502
X3.9614Y-5.3502
X4.0614Y-2.2502
X4.0614Y-2.3502
X4.0614Y-2.4502
X4.0614Y-2.5502
X4.0614Y-2.6502
X4.0614Y-2.7502
X4.0614Y-2.8502
X4.0614Y-2.9502
X4.0614Y-3.0502
X4.0614Y-3.1502
X4.0614Y-3.2502
X4.0614Y-3.3502
X4.0614Y-3.4502
X4.0614Y-3.5502
X4.0614Y-3.6502
X4.0614Y-3.7502
X4.0614Y-3.8502
X4.0614Y-3.9502
X4.0614Y-4.0502
X4.0614Y-4.1502
X4.0614Y-4.2502
X4.0614Y-4.3502
X4.0614Y-4.4502
X4.0614Y-4.5502
X4.0614Y-4.6502
X4.0614Y-4.7502
X4.0614Y-4.8502
X4.0614Y-4.9502
X4.0614Y-5.0502
X4.0614Y-5.1502
X4.0614Y-5.2502
X4.0614Y-5.3502
T0
M30
