G04 #@! TF.GenerationSoftware,KiCad,Pcbnew,(6.0.2)*
G04 #@! TF.CreationDate,2022-11-06T15:06:24-08:00*
G04 #@! TF.ProjectId,CPU Board,43505520-426f-4617-9264-2e6b69636164,1.0*
G04 #@! TF.SameCoordinates,Original*
G04 #@! TF.FileFunction,Copper,L1,Top*
G04 #@! TF.FilePolarity,Positive*
%FSLAX46Y46*%
G04 Gerber Fmt 4.6, Leading zero omitted, Abs format (unit mm)*
G04 Created by KiCad (PCBNEW (6.0.2)) date 2022-11-06 15:06:24*
%MOMM*%
%LPD*%
G01*
G04 APERTURE LIST*
G04 #@! TA.AperFunction,ComponentPad*
%ADD10O,1.700000X1.700000*%
G04 #@! TD*
G04 #@! TA.AperFunction,ComponentPad*
%ADD11R,1.700000X1.700000*%
G04 #@! TD*
G04 #@! TA.AperFunction,ComponentPad*
%ADD12C,1.600000*%
G04 #@! TD*
G04 #@! TA.AperFunction,ComponentPad*
%ADD13O,1.600000X1.600000*%
G04 #@! TD*
G04 #@! TA.AperFunction,ComponentPad*
%ADD14R,2.400000X1.600000*%
G04 #@! TD*
G04 #@! TA.AperFunction,ComponentPad*
%ADD15O,2.400000X1.600000*%
G04 #@! TD*
G04 #@! TA.AperFunction,ComponentPad*
%ADD16R,1.600000X1.600000*%
G04 #@! TD*
G04 #@! TA.AperFunction,ViaPad*
%ADD17C,0.800000*%
G04 #@! TD*
G04 #@! TA.AperFunction,Conductor*
%ADD18C,0.254000*%
G04 #@! TD*
G04 APERTURE END LIST*
D10*
X185928000Y-132588000D03*
X185928000Y-130048000D03*
X185928000Y-127508000D03*
X185928000Y-124968000D03*
X185928000Y-122428000D03*
X185928000Y-119888000D03*
X185928000Y-117348000D03*
X185928000Y-114808000D03*
D11*
X185928000Y-112268000D03*
D12*
X117800000Y-82150000D03*
D13*
X110180000Y-82150000D03*
D12*
X172222000Y-114046000D03*
X174722000Y-114046000D03*
D14*
X169620000Y-55940000D03*
D15*
X169620000Y-58480000D03*
X169620000Y-61020000D03*
X169620000Y-63560000D03*
X169620000Y-66100000D03*
X169620000Y-68640000D03*
X169620000Y-71180000D03*
X169620000Y-73720000D03*
X177240000Y-73720000D03*
X177240000Y-71180000D03*
X177240000Y-68640000D03*
X177240000Y-66100000D03*
X177240000Y-63560000D03*
X177240000Y-61020000D03*
X177240000Y-58480000D03*
X177240000Y-55940000D03*
D12*
X110180000Y-87012000D03*
D13*
X117800000Y-87012000D03*
D16*
X137414000Y-143002000D03*
D12*
X137414000Y-135382000D03*
X129794000Y-135382000D03*
X129794000Y-143002000D03*
X172202000Y-80259000D03*
X174702000Y-80259000D03*
X109870000Y-97122000D03*
D13*
X117490000Y-97122000D03*
D11*
X103160000Y-135895000D03*
D10*
X100620000Y-135895000D03*
X103160000Y-133355000D03*
X100620000Y-133355000D03*
X103160000Y-130815000D03*
X100620000Y-130815000D03*
X103160000Y-128275000D03*
X100620000Y-128275000D03*
X103160000Y-125735000D03*
X100620000Y-125735000D03*
X103160000Y-123195000D03*
X100620000Y-123195000D03*
X103160000Y-120655000D03*
X100620000Y-120655000D03*
X103160000Y-118115000D03*
X100620000Y-118115000D03*
X103160000Y-115575000D03*
X100620000Y-115575000D03*
X103160000Y-113035000D03*
X100620000Y-113035000D03*
X103160000Y-110495000D03*
X100620000Y-110495000D03*
X103160000Y-107955000D03*
X100620000Y-107955000D03*
X103160000Y-105415000D03*
X100620000Y-105415000D03*
X103160000Y-102875000D03*
X100620000Y-102875000D03*
X103160000Y-100335000D03*
X100620000Y-100335000D03*
X103160000Y-97795000D03*
X100620000Y-97795000D03*
X103160000Y-95255000D03*
X100620000Y-95255000D03*
X103160000Y-92715000D03*
X100620000Y-92715000D03*
X103160000Y-90175000D03*
X100620000Y-90175000D03*
X103160000Y-87635000D03*
X100620000Y-87635000D03*
X103160000Y-85095000D03*
X100620000Y-85095000D03*
X103160000Y-82555000D03*
X100620000Y-82555000D03*
X103160000Y-80015000D03*
X100620000Y-80015000D03*
X103160000Y-77475000D03*
X100620000Y-77475000D03*
X103160000Y-74935000D03*
X100620000Y-74935000D03*
X103160000Y-72395000D03*
X100620000Y-72395000D03*
X103160000Y-69855000D03*
X100620000Y-69855000D03*
X103160000Y-67315000D03*
X100620000Y-67315000D03*
X103160000Y-64775000D03*
X100620000Y-64775000D03*
X103160000Y-62235000D03*
X100620000Y-62235000D03*
X103160000Y-59695000D03*
X100620000Y-59695000D03*
X103160000Y-57155000D03*
X100620000Y-57155000D03*
D12*
X184912000Y-74676000D03*
D13*
X184912000Y-67056000D03*
D12*
X174670000Y-51310000D03*
X172170000Y-51310000D03*
D14*
X169672000Y-84836000D03*
D15*
X169672000Y-87376000D03*
X169672000Y-89916000D03*
X169672000Y-92456000D03*
X169672000Y-94996000D03*
X169672000Y-97536000D03*
X169672000Y-100076000D03*
X169672000Y-102616000D03*
X169672000Y-105156000D03*
X169672000Y-107696000D03*
X177292000Y-107696000D03*
X177292000Y-105156000D03*
X177292000Y-102616000D03*
X177292000Y-100076000D03*
X177292000Y-97536000D03*
X177292000Y-94996000D03*
X177292000Y-92456000D03*
X177292000Y-89916000D03*
X177292000Y-87376000D03*
X177292000Y-84836000D03*
D12*
X162814000Y-70485000D03*
D13*
X162814000Y-62865000D03*
D12*
X162814000Y-51054000D03*
D13*
X162814000Y-58674000D03*
D14*
X169672000Y-118618000D03*
D15*
X169672000Y-121158000D03*
X169672000Y-123698000D03*
X169672000Y-126238000D03*
X169672000Y-128778000D03*
X169672000Y-131318000D03*
X169672000Y-133858000D03*
X169672000Y-136398000D03*
X169672000Y-138938000D03*
X169672000Y-141478000D03*
X177292000Y-141478000D03*
X177292000Y-138938000D03*
X177292000Y-136398000D03*
X177292000Y-133858000D03*
X177292000Y-131318000D03*
X177292000Y-128778000D03*
X177292000Y-126238000D03*
X177292000Y-123698000D03*
X177292000Y-121158000D03*
X177292000Y-118618000D03*
D12*
X150114000Y-80284000D03*
X150114000Y-82784000D03*
X109640000Y-109722000D03*
D13*
X117260000Y-109722000D03*
D12*
X143764000Y-140696000D03*
X143764000Y-138196000D03*
X109700000Y-105942000D03*
D13*
X117320000Y-105942000D03*
D14*
X122179000Y-50541000D03*
D15*
X122179000Y-53081000D03*
X122179000Y-55621000D03*
X122179000Y-58161000D03*
X122179000Y-60701000D03*
X122179000Y-63241000D03*
X122179000Y-65781000D03*
X122179000Y-68321000D03*
X122179000Y-70861000D03*
X122179000Y-73401000D03*
X122179000Y-75941000D03*
X122179000Y-78481000D03*
X122179000Y-81021000D03*
X122179000Y-83561000D03*
X122179000Y-86101000D03*
X122179000Y-88641000D03*
X122179000Y-91181000D03*
X122179000Y-93721000D03*
X122179000Y-96261000D03*
X122179000Y-98801000D03*
X122179000Y-101341000D03*
X122179000Y-103881000D03*
X122179000Y-106421000D03*
X122179000Y-108961000D03*
X122179000Y-111501000D03*
X122179000Y-114041000D03*
X122179000Y-116581000D03*
X122179000Y-119121000D03*
X122179000Y-121661000D03*
X122179000Y-124201000D03*
X122179000Y-126741000D03*
X122179000Y-129281000D03*
X145039000Y-129281000D03*
X145039000Y-126741000D03*
X145039000Y-124201000D03*
X145039000Y-121661000D03*
X145039000Y-119121000D03*
X145039000Y-116581000D03*
X145039000Y-114041000D03*
X145039000Y-111501000D03*
X145039000Y-108961000D03*
X145039000Y-106421000D03*
X145039000Y-103881000D03*
X145039000Y-101341000D03*
X145039000Y-98801000D03*
X145039000Y-96261000D03*
X145039000Y-93721000D03*
X145039000Y-91181000D03*
X145039000Y-88641000D03*
X145039000Y-86101000D03*
X145039000Y-83561000D03*
X145039000Y-81021000D03*
X145039000Y-78481000D03*
X145039000Y-75941000D03*
X145039000Y-73401000D03*
X145039000Y-70861000D03*
X145039000Y-68321000D03*
X145039000Y-65781000D03*
X145039000Y-63241000D03*
X145039000Y-60701000D03*
X145039000Y-58161000D03*
X145039000Y-55621000D03*
X145039000Y-53081000D03*
X145039000Y-50541000D03*
D12*
X116840000Y-76942000D03*
X116840000Y-74442000D03*
X162814000Y-82296000D03*
D13*
X162814000Y-74676000D03*
D12*
X184912000Y-55118000D03*
D13*
X184912000Y-62738000D03*
D17*
X106037500Y-137647600D03*
X132219500Y-89095400D03*
X161076500Y-94137600D03*
X131066000Y-87894200D03*
X119200000Y-85281000D03*
X111220000Y-69901000D03*
X116660500Y-71423800D03*
X156309000Y-114395400D03*
X157325700Y-113378600D03*
X113432800Y-71301200D03*
X108639900Y-80543600D03*
X106248400Y-89117900D03*
X125793000Y-90739700D03*
X107116900Y-108520700D03*
X136308000Y-79060600D03*
X135637300Y-80108900D03*
X124959600Y-89906700D03*
X170515000Y-113617600D03*
D18*
X101130200Y-124426300D02*
X100620000Y-124426300D01*
X101890000Y-125186100D02*
X101130200Y-124426300D01*
X101890000Y-128747700D02*
X101890000Y-125186100D01*
X102648700Y-129506400D02*
X101890000Y-128747700D01*
X104317900Y-129506400D02*
X102648700Y-129506400D01*
X105283100Y-130471600D02*
X104317900Y-129506400D01*
X157225200Y-130471600D02*
X105283100Y-130471600D01*
X162728800Y-124968000D02*
X157225200Y-130471600D01*
X171900700Y-124968000D02*
X162728800Y-124968000D01*
X175710700Y-121158000D02*
X171900700Y-124968000D01*
X177292000Y-121158000D02*
X175710700Y-121158000D01*
X100620000Y-123195000D02*
X100620000Y-124426300D01*
X100109800Y-126966300D02*
X100620000Y-126966300D01*
X99359000Y-127717100D02*
X100109800Y-126966300D01*
X99359000Y-136412700D02*
X99359000Y-127717100D01*
X100593900Y-137647600D02*
X99359000Y-136412700D01*
X106037500Y-137647600D02*
X100593900Y-137647600D01*
X100620000Y-125735000D02*
X100620000Y-126966300D01*
X177240000Y-73720000D02*
X175658700Y-73720000D01*
X136328400Y-89095400D02*
X132219500Y-89095400D01*
X143044200Y-82379600D02*
X136328400Y-89095400D01*
X147214600Y-82379600D02*
X143044200Y-82379600D01*
X148060200Y-81534000D02*
X147214600Y-82379600D01*
X160943700Y-81534000D02*
X148060200Y-81534000D01*
X164168800Y-78308900D02*
X160943700Y-81534000D01*
X171069800Y-78308900D02*
X164168800Y-78308900D01*
X175658700Y-73720000D02*
X171069800Y-78308900D01*
X161076500Y-95046600D02*
X161076500Y-94137600D01*
X145971500Y-110151600D02*
X161076500Y-95046600D01*
X124950900Y-110151600D02*
X145971500Y-110151600D01*
X123760300Y-108961000D02*
X124950900Y-110151600D01*
X122179000Y-108961000D02*
X123760300Y-108961000D01*
X131807400Y-87152800D02*
X131066000Y-87894200D01*
X133376400Y-87152800D02*
X131807400Y-87152800D01*
X143318200Y-77211000D02*
X133376400Y-87152800D01*
X158311800Y-77211000D02*
X143318200Y-77211000D01*
X166882800Y-68640000D02*
X158311800Y-77211000D01*
X169620000Y-68640000D02*
X166882800Y-68640000D01*
X100620000Y-115575000D02*
X100620000Y-114343700D01*
X162814000Y-58674000D02*
X161632700Y-58674000D01*
X100109800Y-114343700D02*
X100620000Y-114343700D01*
X97774100Y-112008000D02*
X100109800Y-114343700D01*
X97774100Y-56080200D02*
X97774100Y-112008000D01*
X101358000Y-52496300D02*
X97774100Y-56080200D01*
X108063400Y-52496300D02*
X101358000Y-52496300D01*
X112272400Y-48287300D02*
X108063400Y-52496300D01*
X151246000Y-48287300D02*
X112272400Y-48287300D01*
X161632700Y-58674000D02*
X151246000Y-48287300D01*
X110180000Y-82150000D02*
X111361300Y-82150000D01*
X132100000Y-140696000D02*
X129794000Y-143002000D01*
X143764000Y-140696000D02*
X132100000Y-140696000D01*
X169620000Y-63560000D02*
X168038700Y-63560000D01*
X100620000Y-135895000D02*
X101851300Y-135895000D01*
X122179000Y-83561000D02*
X120597700Y-83561000D01*
X177240000Y-55940000D02*
X175785800Y-55940000D01*
X179643300Y-55118000D02*
X178821300Y-55940000D01*
X184912000Y-55118000D02*
X179643300Y-55118000D01*
X177240000Y-55940000D02*
X178821300Y-55940000D01*
X162814000Y-68784700D02*
X168038700Y-63560000D01*
X162814000Y-70485000D02*
X162814000Y-68784700D01*
X174670000Y-52526300D02*
X174670000Y-51310000D01*
X164286300Y-52526300D02*
X162814000Y-51054000D01*
X174670000Y-52526300D02*
X164286300Y-52526300D01*
X177292000Y-84836000D02*
X178873300Y-84836000D01*
X120597700Y-83561000D02*
X112578400Y-83561000D01*
X112578400Y-83367100D02*
X112578400Y-83561000D01*
X111361300Y-82150000D02*
X112578400Y-83367100D01*
X112578400Y-84613600D02*
X110180000Y-87012000D01*
X112578400Y-83561000D02*
X112578400Y-84613600D01*
X122179000Y-83561000D02*
X123760300Y-83561000D01*
X101851300Y-136895500D02*
X101851300Y-135895000D01*
X102082100Y-137126300D02*
X101851300Y-136895500D01*
X105454000Y-137126300D02*
X102082100Y-137126300D01*
X105714000Y-136866300D02*
X105454000Y-137126300D01*
X123658300Y-136866300D02*
X105714000Y-136866300D01*
X129794000Y-143002000D02*
X123658300Y-136866300D01*
X175658700Y-53515000D02*
X174670000Y-52526300D01*
X175658700Y-55940000D02*
X175658700Y-53515000D01*
X175785800Y-55940000D02*
X175658700Y-55940000D01*
X175658700Y-59102600D02*
X171201300Y-63560000D01*
X175658700Y-55940000D02*
X175658700Y-59102600D01*
X177240000Y-68640000D02*
X178821300Y-68640000D01*
X169620000Y-63560000D02*
X171074200Y-63560000D01*
X171074200Y-63560000D02*
X171201300Y-63560000D01*
X175658700Y-68017400D02*
X175658700Y-68640000D01*
X171201300Y-63560000D02*
X175658700Y-68017400D01*
X177240000Y-68640000D02*
X175658700Y-68640000D01*
X158689500Y-74609500D02*
X162814000Y-70485000D01*
X143686700Y-74609500D02*
X158689500Y-74609500D01*
X134735200Y-83561000D02*
X143686700Y-74609500D01*
X123760300Y-83561000D02*
X134735200Y-83561000D01*
X145039000Y-88641000D02*
X146620300Y-88641000D01*
X150602000Y-82296000D02*
X150114000Y-82784000D01*
X162814000Y-82296000D02*
X150602000Y-82296000D01*
X150114000Y-85147300D02*
X146620300Y-88641000D01*
X150114000Y-82784000D02*
X150114000Y-85147300D01*
X178821300Y-68640000D02*
X184884700Y-74703300D01*
X178873300Y-80714700D02*
X184884700Y-74703300D01*
X178873300Y-84836000D02*
X178873300Y-80714700D01*
X184884700Y-74703300D02*
X184912000Y-74676000D01*
X175710700Y-117534700D02*
X175710700Y-118618000D01*
X172222000Y-114046000D02*
X175710700Y-117534700D01*
X177292000Y-118618000D02*
X175710700Y-118618000D01*
X118650300Y-85830700D02*
X117800000Y-85830700D01*
X119200000Y-85281000D02*
X118650300Y-85830700D01*
X117800000Y-87012000D02*
X117800000Y-85830700D01*
X103160000Y-69855000D02*
X104391300Y-69855000D01*
X104437300Y-69901000D02*
X111220000Y-69901000D01*
X104391300Y-69855000D02*
X104437300Y-69901000D01*
X103160000Y-72395000D02*
X104391300Y-72395000D01*
X114254400Y-72395000D02*
X104391300Y-72395000D01*
X115225600Y-71423800D02*
X114254400Y-72395000D01*
X116660500Y-71423800D02*
X115225600Y-71423800D01*
X100620000Y-107955000D02*
X101851300Y-107955000D01*
X122179000Y-114041000D02*
X123760300Y-114041000D01*
X169672000Y-100076000D02*
X171253300Y-100076000D01*
X109213900Y-114041000D02*
X122179000Y-114041000D01*
X104397900Y-109225000D02*
X109213900Y-114041000D01*
X102611100Y-109225000D02*
X104397900Y-109225000D01*
X101851300Y-108465200D02*
X102611100Y-109225000D01*
X101851300Y-107955000D02*
X101851300Y-108465200D01*
X171253300Y-97018200D02*
X171253300Y-100076000D01*
X170501100Y-96266000D02*
X171253300Y-97018200D01*
X166087200Y-96266000D02*
X170501100Y-96266000D01*
X149493600Y-112859600D02*
X166087200Y-96266000D01*
X124941700Y-112859600D02*
X149493600Y-112859600D01*
X123760300Y-114041000D02*
X124941700Y-112859600D01*
X100620000Y-110495000D02*
X101851300Y-110495000D01*
X109357200Y-116581000D02*
X122179000Y-116581000D01*
X104541200Y-111765000D02*
X109357200Y-116581000D01*
X102611100Y-111765000D02*
X104541200Y-111765000D01*
X101851300Y-111005200D02*
X102611100Y-111765000D01*
X101851300Y-110495000D02*
X101851300Y-111005200D01*
X169672000Y-97536000D02*
X168090700Y-97536000D01*
X165666000Y-97536000D02*
X168090700Y-97536000D01*
X147891000Y-115311000D02*
X165666000Y-97536000D01*
X143915400Y-115311000D02*
X147891000Y-115311000D01*
X142645400Y-116581000D02*
X143915400Y-115311000D01*
X122179000Y-116581000D02*
X142645400Y-116581000D01*
X100620000Y-113035000D02*
X101851300Y-113035000D01*
X169672000Y-94996000D02*
X171253300Y-94996000D01*
X109530800Y-119121000D02*
X122179000Y-119121000D01*
X104714800Y-114305000D02*
X109530800Y-119121000D01*
X102611100Y-114305000D02*
X104714800Y-114305000D01*
X101851300Y-113545200D02*
X102611100Y-114305000D01*
X101851300Y-113035000D02*
X101851300Y-113545200D01*
X142048200Y-119121000D02*
X122179000Y-119121000D01*
X143294800Y-117874400D02*
X142048200Y-119121000D01*
X146046600Y-117874400D02*
X143294800Y-117874400D01*
X162501300Y-101419700D02*
X146046600Y-117874400D01*
X170644000Y-101419700D02*
X162501300Y-101419700D01*
X171771700Y-100292000D02*
X170644000Y-101419700D01*
X171771700Y-95514400D02*
X171771700Y-100292000D01*
X171253300Y-94996000D02*
X171771700Y-95514400D01*
X100620000Y-118115000D02*
X100620000Y-119346300D01*
X185928000Y-130048000D02*
X185928000Y-131279300D01*
X186438200Y-131279300D02*
X185928000Y-131279300D01*
X187236600Y-132077700D02*
X186438200Y-131279300D01*
X187236600Y-133636400D02*
X187236600Y-132077700D01*
X176689600Y-144183400D02*
X187236600Y-133636400D01*
X126756300Y-144183400D02*
X176689600Y-144183400D01*
X121001800Y-138428900D02*
X126756300Y-144183400D01*
X100656400Y-138428900D02*
X121001800Y-138428900D01*
X98850700Y-136623200D02*
X100656400Y-138428900D01*
X98850700Y-120653900D02*
X98850700Y-136623200D01*
X100158300Y-119346300D02*
X98850700Y-120653900D01*
X100620000Y-119346300D02*
X100158300Y-119346300D01*
X184696700Y-128559000D02*
X184696700Y-127508000D01*
X178127700Y-135128000D02*
X184696700Y-128559000D01*
X175063300Y-135128000D02*
X178127700Y-135128000D01*
X171253300Y-138938000D02*
X175063300Y-135128000D01*
X169672000Y-138938000D02*
X171253300Y-138938000D01*
X185928000Y-127508000D02*
X184696700Y-127508000D01*
X100620000Y-92715000D02*
X101851300Y-92715000D01*
X122069500Y-93721000D02*
X120597700Y-93721000D01*
X118321700Y-91445000D02*
X120597700Y-93721000D01*
X102611100Y-91445000D02*
X118321700Y-91445000D01*
X101851300Y-92204800D02*
X102611100Y-91445000D01*
X101851300Y-92715000D02*
X101851300Y-92204800D01*
X122069500Y-93721000D02*
X122179000Y-93721000D01*
X141636700Y-93721000D02*
X122179000Y-93721000D01*
X142848400Y-94932700D02*
X141636700Y-93721000D01*
X159176700Y-94932700D02*
X142848400Y-94932700D01*
X167917600Y-86191800D02*
X159176700Y-94932700D01*
X170596600Y-86191800D02*
X167917600Y-86191800D01*
X171324900Y-86920100D02*
X170596600Y-86191800D01*
X171324900Y-87793900D02*
X171324900Y-86920100D01*
X170472800Y-88646000D02*
X171324900Y-87793900D01*
X168857300Y-88646000D02*
X170472800Y-88646000D01*
X168090700Y-89412600D02*
X168857300Y-88646000D01*
X168090700Y-90441900D02*
X168090700Y-89412600D01*
X168834800Y-91186000D02*
X168090700Y-90441900D01*
X170514100Y-91186000D02*
X168834800Y-91186000D01*
X172813500Y-93485400D02*
X170514100Y-91186000D01*
X172813500Y-102311400D02*
X172813500Y-93485400D01*
X169968900Y-105156000D02*
X172813500Y-102311400D01*
X169672000Y-105156000D02*
X169968900Y-105156000D01*
X185928000Y-114808000D02*
X184696700Y-114808000D01*
X182714700Y-112826000D02*
X184696700Y-114808000D01*
X158983100Y-112826000D02*
X182714700Y-112826000D01*
X157413700Y-114395400D02*
X158983100Y-112826000D01*
X156309000Y-114395400D02*
X157413700Y-114395400D01*
X185928000Y-112268000D02*
X184696700Y-112268000D01*
X158436300Y-112268000D02*
X184696700Y-112268000D01*
X157325700Y-113378600D02*
X158436300Y-112268000D01*
X184696700Y-123479000D02*
X184696700Y-122428000D01*
X178127700Y-130048000D02*
X184696700Y-123479000D01*
X176491400Y-130048000D02*
X178127700Y-130048000D01*
X171253300Y-135286100D02*
X176491400Y-130048000D01*
X171253300Y-136398000D02*
X171253300Y-135286100D01*
X169672000Y-136398000D02*
X171253300Y-136398000D01*
X185928000Y-122428000D02*
X184696700Y-122428000D01*
X116413000Y-68321000D02*
X113432800Y-71301200D01*
X122179000Y-68321000D02*
X116413000Y-68321000D01*
X100109800Y-96563700D02*
X100620000Y-96563700D01*
X99363200Y-95817100D02*
X100109800Y-96563700D01*
X99363200Y-87142800D02*
X99363200Y-95817100D01*
X100141000Y-86365000D02*
X99363200Y-87142800D01*
X101108400Y-86365000D02*
X100141000Y-86365000D01*
X101890000Y-85583400D02*
X101108400Y-86365000D01*
X101890000Y-84547300D02*
X101890000Y-85583400D01*
X102573700Y-83863600D02*
X101890000Y-84547300D01*
X105319900Y-83863600D02*
X102573700Y-83863600D01*
X108639900Y-80543600D02*
X105319900Y-83863600D01*
X100620000Y-97795000D02*
X100620000Y-96563700D01*
X184696700Y-120939000D02*
X184696700Y-119888000D01*
X178127700Y-127508000D02*
X184696700Y-120939000D01*
X176491400Y-127508000D02*
X178127700Y-127508000D01*
X171253300Y-132746100D02*
X176491400Y-127508000D01*
X171253300Y-133858000D02*
X171253300Y-132746100D01*
X169672000Y-133858000D02*
X171253300Y-133858000D01*
X185928000Y-119888000D02*
X184696700Y-119888000D01*
X145039000Y-75941000D02*
X143457700Y-75941000D01*
X118633200Y-89117900D02*
X106248400Y-89117900D01*
X120468700Y-87282400D02*
X118633200Y-89117900D01*
X130464700Y-87282400D02*
X120468700Y-87282400D01*
X131102600Y-86644500D02*
X130464700Y-87282400D01*
X132754200Y-86644500D02*
X131102600Y-86644500D01*
X143457700Y-75941000D02*
X132754200Y-86644500D01*
X100620000Y-87635000D02*
X101851300Y-87635000D01*
X145039000Y-73401000D02*
X143457700Y-73401000D01*
X134635200Y-82223500D02*
X143457700Y-73401000D01*
X120723100Y-82223500D02*
X134635200Y-82223500D01*
X119468200Y-80968600D02*
X120723100Y-82223500D01*
X109661700Y-80968600D02*
X119468200Y-80968600D01*
X104226700Y-86403600D02*
X109661700Y-80968600D01*
X102572500Y-86403600D02*
X104226700Y-86403600D01*
X101851300Y-87124800D02*
X102572500Y-86403600D01*
X101851300Y-87635000D02*
X101851300Y-87124800D01*
X147171900Y-70309400D02*
X146620300Y-70861000D01*
X147171900Y-49815200D02*
X147171900Y-70309400D01*
X146152300Y-48795600D02*
X147171900Y-49815200D01*
X112526400Y-48795600D02*
X146152300Y-48795600D01*
X108263600Y-53058400D02*
X112526400Y-48795600D01*
X101514700Y-53058400D02*
X108263600Y-53058400D01*
X98282400Y-56290700D02*
X101514700Y-53058400D01*
X98282400Y-81987900D02*
X98282400Y-56290700D01*
X100158200Y-83863700D02*
X98282400Y-81987900D01*
X100620000Y-83863700D02*
X100158200Y-83863700D01*
X100620000Y-85095000D02*
X100620000Y-83863700D01*
X145039000Y-70861000D02*
X146620300Y-70861000D01*
X100109800Y-81323700D02*
X100620000Y-81323700D01*
X98790700Y-80004600D02*
X100109800Y-81323700D01*
X98790700Y-56501200D02*
X98790700Y-80004600D01*
X101725100Y-53566800D02*
X98790700Y-56501200D01*
X108994000Y-53566800D02*
X101725100Y-53566800D01*
X113256900Y-49303900D02*
X108994000Y-53566800D01*
X145923400Y-49303900D02*
X113256900Y-49303900D01*
X146620300Y-50000800D02*
X145923400Y-49303900D01*
X146620300Y-68321000D02*
X146620300Y-50000800D01*
X145039000Y-68321000D02*
X146620300Y-68321000D01*
X100620000Y-82555000D02*
X100620000Y-81323700D01*
X145039000Y-65781000D02*
X143457700Y-65781000D01*
X100620000Y-80015000D02*
X101851300Y-80015000D01*
X101851300Y-79504800D02*
X101851300Y-80015000D01*
X102611100Y-78745000D02*
X101851300Y-79504800D01*
X109210500Y-78745000D02*
X102611100Y-78745000D01*
X112263500Y-75692000D02*
X109210500Y-78745000D01*
X118992900Y-75692000D02*
X112263500Y-75692000D01*
X120102500Y-74582400D02*
X118992900Y-75692000D01*
X134656300Y-74582400D02*
X120102500Y-74582400D01*
X143457700Y-65781000D02*
X134656300Y-74582400D01*
X145039000Y-63241000D02*
X143457700Y-63241000D01*
X100620000Y-77475000D02*
X101851300Y-77475000D01*
X134646800Y-72051900D02*
X143457700Y-63241000D01*
X117858600Y-72051900D02*
X134646800Y-72051900D01*
X116688800Y-73221700D02*
X117858600Y-72051900D01*
X115980700Y-73221700D02*
X116688800Y-73221700D01*
X115137200Y-74065200D02*
X115980700Y-73221700D01*
X112163000Y-74065200D02*
X115137200Y-74065200D01*
X110023200Y-76205000D02*
X112163000Y-74065200D01*
X102611100Y-76205000D02*
X110023200Y-76205000D01*
X101851300Y-76964800D02*
X102611100Y-76205000D01*
X101851300Y-77475000D02*
X101851300Y-76964800D01*
X101851300Y-74424800D02*
X101851300Y-74935000D01*
X102611100Y-73665000D02*
X101851300Y-74424800D01*
X107992100Y-73665000D02*
X102611100Y-73665000D01*
X108175300Y-73481800D02*
X107992100Y-73665000D01*
X114245700Y-73481800D02*
X108175300Y-73481800D01*
X115078400Y-72649100D02*
X114245700Y-73481800D01*
X116542400Y-72649100D02*
X115078400Y-72649100D01*
X119600500Y-69591000D02*
X116542400Y-72649100D01*
X134567700Y-69591000D02*
X119600500Y-69591000D01*
X143457700Y-60701000D02*
X134567700Y-69591000D01*
X145039000Y-60701000D02*
X143457700Y-60701000D01*
X100620000Y-74935000D02*
X101851300Y-74935000D01*
X145039000Y-58161000D02*
X143457700Y-58161000D01*
X100620000Y-72395000D02*
X101851300Y-72395000D01*
X101851300Y-71884800D02*
X101851300Y-72395000D01*
X102611100Y-71125000D02*
X101851300Y-71884800D01*
X111111800Y-71125000D02*
X102611100Y-71125000D01*
X115247300Y-66989500D02*
X111111800Y-71125000D01*
X134629200Y-66989500D02*
X115247300Y-66989500D01*
X143457700Y-58161000D02*
X134629200Y-66989500D01*
X100620000Y-69855000D02*
X101851300Y-69855000D01*
X145039000Y-55621000D02*
X143457700Y-55621000D01*
X101851300Y-69393200D02*
X101851300Y-69855000D01*
X102620800Y-68623700D02*
X101851300Y-69393200D01*
X107123400Y-68623700D02*
X102620800Y-68623700D01*
X111297600Y-64449500D02*
X107123400Y-68623700D01*
X134629200Y-64449500D02*
X111297600Y-64449500D01*
X143457700Y-55621000D02*
X134629200Y-64449500D01*
X145039000Y-53081000D02*
X143457700Y-53081000D01*
X100620000Y-67315000D02*
X101851300Y-67315000D01*
X101851300Y-66804800D02*
X101851300Y-67315000D01*
X102611100Y-66045000D02*
X101851300Y-66804800D01*
X106177300Y-66045000D02*
X102611100Y-66045000D01*
X110251300Y-61971000D02*
X106177300Y-66045000D01*
X134567700Y-61971000D02*
X110251300Y-61971000D01*
X143457700Y-53081000D02*
X134567700Y-61971000D01*
X101851300Y-64264800D02*
X101851300Y-64775000D01*
X102611100Y-63505000D02*
X101851300Y-64264800D01*
X105306200Y-63505000D02*
X102611100Y-63505000D01*
X109445100Y-59366100D02*
X105306200Y-63505000D01*
X134632600Y-59366100D02*
X109445100Y-59366100D01*
X143457700Y-50541000D02*
X134632600Y-59366100D01*
X145039000Y-50541000D02*
X143457700Y-50541000D01*
X100620000Y-64775000D02*
X101851300Y-64775000D01*
X122179000Y-53081000D02*
X120597700Y-53081000D01*
X100620000Y-59695000D02*
X100620000Y-58463700D01*
X119592000Y-54086700D02*
X120597700Y-53081000D01*
X101946900Y-54086700D02*
X119592000Y-54086700D01*
X99311400Y-56722200D02*
X101946900Y-54086700D01*
X99311400Y-57665300D02*
X99311400Y-56722200D01*
X100109800Y-58463700D02*
X99311400Y-57665300D01*
X100620000Y-58463700D02*
X100109800Y-58463700D01*
X101851300Y-56644800D02*
X101851300Y-57155000D01*
X102875100Y-55621000D02*
X101851300Y-56644800D01*
X122179000Y-55621000D02*
X102875100Y-55621000D01*
X100620000Y-57155000D02*
X101851300Y-57155000D01*
X119591700Y-57155000D02*
X103160000Y-57155000D01*
X120597700Y-58161000D02*
X119591700Y-57155000D01*
X122179000Y-58161000D02*
X120597700Y-58161000D01*
X128998300Y-134586300D02*
X129794000Y-135382000D01*
X102620800Y-134586300D02*
X128998300Y-134586300D01*
X101851300Y-133816800D02*
X102620800Y-134586300D01*
X101851300Y-133355000D02*
X101851300Y-133816800D01*
X100620000Y-133355000D02*
X101851300Y-133355000D01*
X169672000Y-84836000D02*
X168090700Y-84836000D01*
X139538000Y-90739700D02*
X125793000Y-90739700D01*
X140431600Y-89846100D02*
X139538000Y-90739700D01*
X163080600Y-89846100D02*
X140431600Y-89846100D01*
X168090700Y-84836000D02*
X163080600Y-89846100D01*
X168038700Y-58821600D02*
X168038700Y-58480000D01*
X163995300Y-62865000D02*
X168038700Y-58821600D01*
X162814000Y-62865000D02*
X163995300Y-62865000D01*
X169620000Y-58480000D02*
X168038700Y-58480000D01*
X184912000Y-62738000D02*
X184912000Y-63328600D01*
X177240000Y-63560000D02*
X178821300Y-63560000D01*
X100620000Y-120655000D02*
X101851300Y-120655000D01*
X179052700Y-63328600D02*
X178821300Y-63560000D01*
X184912000Y-63328600D02*
X179052700Y-63328600D01*
X186142300Y-64558900D02*
X184912000Y-63328600D01*
X186142300Y-80623100D02*
X186142300Y-64558900D01*
X178119400Y-88646000D02*
X186142300Y-80623100D01*
X176463300Y-88646000D02*
X178119400Y-88646000D01*
X175710600Y-89398700D02*
X176463300Y-88646000D01*
X175710600Y-103965600D02*
X175710600Y-89398700D01*
X168319700Y-111356500D02*
X175710600Y-103965600D01*
X158242600Y-111356500D02*
X168319700Y-111356500D01*
X154061100Y-115538000D02*
X158242600Y-111356500D01*
X154061100Y-117260700D02*
X154061100Y-115538000D01*
X145922300Y-125399500D02*
X154061100Y-117260700D01*
X107318700Y-125399500D02*
X145922300Y-125399500D01*
X103844200Y-121925000D02*
X107318700Y-125399500D01*
X102611100Y-121925000D02*
X103844200Y-121925000D01*
X101851300Y-121165200D02*
X102611100Y-121925000D01*
X101851300Y-120655000D02*
X101851300Y-121165200D01*
X117260000Y-109722000D02*
X116078700Y-109722000D01*
X114877400Y-108520700D02*
X107116900Y-108520700D01*
X116078700Y-109722000D02*
X114877400Y-108520700D01*
X171253300Y-130146100D02*
X171253300Y-131318000D01*
X176405700Y-124993700D02*
X171253300Y-130146100D01*
X178128400Y-124993700D02*
X176405700Y-124993700D01*
X184696700Y-118425400D02*
X178128400Y-124993700D01*
X184696700Y-117348000D02*
X184696700Y-118425400D01*
X185928000Y-117348000D02*
X184696700Y-117348000D01*
X169672000Y-131318000D02*
X171253300Y-131318000D01*
X105152900Y-79253400D02*
X104391300Y-80015000D01*
X117481800Y-79253400D02*
X105152900Y-79253400D01*
X119456800Y-77278400D02*
X117481800Y-79253400D01*
X134525800Y-77278400D02*
X119456800Y-77278400D01*
X136308000Y-79060600D02*
X134525800Y-77278400D01*
X103160000Y-80015000D02*
X104391300Y-80015000D01*
X107184000Y-79762300D02*
X104391300Y-82555000D01*
X135290700Y-79762300D02*
X107184000Y-79762300D01*
X135637300Y-80108900D02*
X135290700Y-79762300D01*
X103160000Y-82555000D02*
X104391300Y-82555000D01*
X145039000Y-86101000D02*
X143457700Y-86101000D01*
X139652000Y-89906700D02*
X124959600Y-89906700D01*
X143457700Y-86101000D02*
X139652000Y-89906700D01*
X145039000Y-91181000D02*
X143457700Y-91181000D01*
X103160000Y-87635000D02*
X104391300Y-87635000D01*
X143104700Y-91534000D02*
X143457700Y-91181000D01*
X125468500Y-91534000D02*
X143104700Y-91534000D01*
X123833700Y-89899200D02*
X125468500Y-91534000D01*
X105924900Y-89899200D02*
X123833700Y-89899200D01*
X104391300Y-88365600D02*
X105924900Y-89899200D01*
X104391300Y-87635000D02*
X104391300Y-88365600D01*
X104901400Y-90685100D02*
X104391300Y-90175000D01*
X118831700Y-90685100D02*
X104901400Y-90685100D01*
X120597600Y-92451000D02*
X118831700Y-90685100D01*
X142187700Y-92451000D02*
X120597600Y-92451000D01*
X143457700Y-93721000D02*
X142187700Y-92451000D01*
X145039000Y-93721000D02*
X143457700Y-93721000D01*
X103160000Y-90175000D02*
X104391300Y-90175000D01*
X103160000Y-92715000D02*
X104391300Y-92715000D01*
X145039000Y-96261000D02*
X143457700Y-96261000D01*
X106754300Y-95078000D02*
X104391300Y-92715000D01*
X142274700Y-95078000D02*
X106754300Y-95078000D01*
X143457700Y-96261000D02*
X142274700Y-95078000D01*
X104895500Y-95759200D02*
X104391300Y-95255000D01*
X117857000Y-95759200D02*
X104895500Y-95759200D01*
X119540800Y-97443000D02*
X117857000Y-95759200D01*
X142099700Y-97443000D02*
X119540800Y-97443000D01*
X143457700Y-98801000D02*
X142099700Y-97443000D01*
X145039000Y-98801000D02*
X143457700Y-98801000D01*
X103160000Y-95255000D02*
X104391300Y-95255000D01*
X106667300Y-100071000D02*
X104391300Y-97795000D01*
X142187700Y-100071000D02*
X106667300Y-100071000D01*
X143457700Y-101341000D02*
X142187700Y-100071000D01*
X145039000Y-101341000D02*
X143457700Y-101341000D01*
X103160000Y-97795000D02*
X104391300Y-97795000D01*
X106667300Y-102611000D02*
X104391300Y-100335000D01*
X142187700Y-102611000D02*
X106667300Y-102611000D01*
X143457700Y-103881000D02*
X142187700Y-102611000D01*
X145039000Y-103881000D02*
X143457700Y-103881000D01*
X103160000Y-100335000D02*
X104391300Y-100335000D01*
X104901400Y-103385100D02*
X104391300Y-102875000D01*
X119222100Y-103385100D02*
X104901400Y-103385100D01*
X120988000Y-105151000D02*
X119222100Y-103385100D01*
X142187700Y-105151000D02*
X120988000Y-105151000D01*
X143457700Y-106421000D02*
X142187700Y-105151000D01*
X145039000Y-106421000D02*
X143457700Y-106421000D01*
X103160000Y-102875000D02*
X104391300Y-102875000D01*
X106667300Y-107691000D02*
X104391300Y-105415000D01*
X142187700Y-107691000D02*
X106667300Y-107691000D01*
X143457700Y-108961000D02*
X142187700Y-107691000D01*
X145039000Y-108961000D02*
X143457700Y-108961000D01*
X103160000Y-105415000D02*
X104391300Y-105415000D01*
X109138200Y-112701900D02*
X104391300Y-107955000D01*
X123968900Y-112701900D02*
X109138200Y-112701900D01*
X125169800Y-111501000D02*
X123968900Y-112701900D01*
X145039000Y-111501000D02*
X125169800Y-111501000D01*
X103160000Y-107955000D02*
X104391300Y-107955000D01*
X142238300Y-115260400D02*
X143457700Y-114041000D01*
X109156700Y-115260400D02*
X142238300Y-115260400D01*
X104391300Y-110495000D02*
X109156700Y-115260400D01*
X103160000Y-110495000D02*
X104391300Y-110495000D01*
X145039000Y-114041000D02*
X143457700Y-114041000D01*
X145039000Y-116581000D02*
X143457700Y-116581000D01*
X103160000Y-113035000D02*
X104391300Y-113035000D01*
X109127900Y-117771600D02*
X104391300Y-113035000D01*
X142267100Y-117771600D02*
X109127900Y-117771600D01*
X143457700Y-116581000D02*
X142267100Y-117771600D01*
X145039000Y-119121000D02*
X143457700Y-119121000D01*
X103160000Y-115575000D02*
X104391300Y-115575000D01*
X109127900Y-120311600D02*
X104391300Y-115575000D01*
X142267100Y-120311600D02*
X109127900Y-120311600D01*
X143457700Y-119121000D02*
X142267100Y-120311600D01*
X109132400Y-122856100D02*
X104391300Y-118115000D01*
X142262600Y-122856100D02*
X109132400Y-122856100D01*
X143457700Y-121661000D02*
X142262600Y-122856100D01*
X145039000Y-121661000D02*
X143457700Y-121661000D01*
X103160000Y-118115000D02*
X104391300Y-118115000D01*
X103160000Y-125735000D02*
X104391300Y-125735000D01*
X142000000Y-129281000D02*
X145039000Y-129281000D01*
X140730000Y-128011000D02*
X142000000Y-129281000D01*
X106667300Y-128011000D02*
X140730000Y-128011000D01*
X104391300Y-125735000D02*
X106667300Y-128011000D01*
X122179000Y-129281000D02*
X120597700Y-129281000D01*
X103160000Y-128275000D02*
X104391300Y-128275000D01*
X105397300Y-129281000D02*
X104391300Y-128275000D01*
X120597700Y-129281000D02*
X105397300Y-129281000D01*
X156209100Y-127923500D02*
X170515000Y-113617600D01*
X141448500Y-127923500D02*
X156209100Y-127923500D01*
X140266000Y-126741000D02*
X141448500Y-127923500D01*
X122179000Y-126741000D02*
X140266000Y-126741000D01*
X169672000Y-89916000D02*
X171253300Y-89916000D01*
X142048200Y-124201000D02*
X122179000Y-124201000D01*
X143318200Y-122931000D02*
X142048200Y-124201000D01*
X145842400Y-122931000D02*
X143318200Y-122931000D01*
X162347400Y-106426000D02*
X145842400Y-122931000D01*
X170508300Y-106426000D02*
X162347400Y-106426000D01*
X173323400Y-103610900D02*
X170508300Y-106426000D01*
X173323400Y-91986100D02*
X173323400Y-103610900D01*
X171253300Y-89916000D02*
X173323400Y-91986100D01*
X167566400Y-87900300D02*
X168090700Y-87376000D01*
X167566400Y-92435000D02*
X167566400Y-87900300D01*
X168857400Y-93726000D02*
X167566400Y-92435000D01*
X170721100Y-93726000D02*
X168857400Y-93726000D01*
X172305100Y-95310000D02*
X170721100Y-93726000D01*
X172305100Y-102100800D02*
X172305100Y-95310000D01*
X170519900Y-103886000D02*
X172305100Y-102100800D01*
X163197400Y-103886000D02*
X170519900Y-103886000D01*
X146692400Y-120391000D02*
X163197400Y-103886000D01*
X143318200Y-120391000D02*
X146692400Y-120391000D01*
X142048200Y-121661000D02*
X143318200Y-120391000D01*
X122179000Y-121661000D02*
X142048200Y-121661000D01*
X169672000Y-87376000D02*
X168090700Y-87376000D01*
X179616700Y-137668000D02*
X184696700Y-132588000D01*
X175063300Y-137668000D02*
X179616700Y-137668000D01*
X171253300Y-141478000D02*
X175063300Y-137668000D01*
X169672000Y-141478000D02*
X171253300Y-141478000D01*
X185928000Y-132588000D02*
X184696700Y-132588000D01*
X134078300Y-132046300D02*
X137414000Y-135382000D01*
X102620800Y-132046300D02*
X134078300Y-132046300D01*
X101851300Y-131276800D02*
X102620800Y-132046300D01*
X101851300Y-130815000D02*
X101851300Y-131276800D01*
X100620000Y-130815000D02*
X101851300Y-130815000D01*
X169672000Y-141478000D02*
X168090700Y-141478000D01*
X140950000Y-135382000D02*
X143764000Y-138196000D01*
X137414000Y-135382000D02*
X140950000Y-135382000D01*
X164808700Y-138196000D02*
X168090700Y-141478000D01*
X143764000Y-138196000D02*
X164808700Y-138196000D01*
X169620000Y-73720000D02*
X168038700Y-73720000D01*
X148311000Y-78481000D02*
X145039000Y-78481000D01*
X150114000Y-80284000D02*
X148311000Y-78481000D01*
X161474700Y-80284000D02*
X150114000Y-80284000D01*
X168038700Y-73720000D02*
X161474700Y-80284000D01*
X134023500Y-87915200D02*
X143457700Y-78481000D01*
X132164500Y-87915200D02*
X134023500Y-87915200D01*
X131383400Y-88696300D02*
X132164500Y-87915200D01*
X123815600Y-88696300D02*
X131383400Y-88696300D01*
X123760300Y-88641000D02*
X123815600Y-88696300D01*
X122179000Y-88641000D02*
X123760300Y-88641000D01*
X145039000Y-78481000D02*
X143457700Y-78481000D01*
X174702000Y-104247300D02*
X171253300Y-107696000D01*
X174702000Y-80259000D02*
X174702000Y-104247300D01*
X169672000Y-107696000D02*
X171253300Y-107696000D01*
M02*
