M48
; DRILL file {KiCad (6.0.2)} date Sun Nov  6 15:06:27 2022
; FORMAT={-:-/ absolute / inch / decimal}
; #@! TF.CreationDate,2022-11-06T15:06:27-08:00
; #@! TF.GenerationSoftware,Kicad,Pcbnew,(6.0.2)
; #@! TF.FileFunction,Plated,1,2,PTH
FMAT,2
INCH
; #@! TA.AperFunction,Plated,PTH,ViaDrill
T1C0.0157
; #@! TA.AperFunction,Plated,PTH,ComponentDrill
T2C0.0315
; #@! TA.AperFunction,Plated,PTH,ComponentDrill
T3C0.0394
%
G90
G05
T1
X4.1747Y-5.4192
X4.183Y-3.5086
X4.2172Y-4.2725
X4.2772Y-3.171
X4.3787Y-2.752
X4.4659Y-2.8071
X4.5929Y-2.812
X4.6929Y-3.3575
X4.9197Y-3.5396
X4.9525Y-3.5724
X5.1601Y-3.4604
X5.2055Y-3.5077
X5.3401Y-3.1539
X5.3665Y-3.1126
X6.1539Y-4.5038
X6.1939Y-4.4637
X6.3416Y-3.7062
X6.7132Y-4.4731
T2
X4.3165Y-4.3198
X4.3189Y-4.1709
X4.3256Y-3.8237
X4.3378Y-3.2343
X4.3378Y-3.4257
X4.6Y-2.9308
X4.6Y-3.0292
X4.6165Y-4.3198
X4.6189Y-4.1709
X4.6256Y-3.8237
X4.6378Y-3.2343
X4.6378Y-3.4257
X4.8102Y-1.9898
X4.8102Y-2.0898
X4.8102Y-2.1898
X4.8102Y-2.2898
X4.8102Y-2.3898
X4.8102Y-2.4898
X4.8102Y-2.5898
X4.8102Y-2.6898
X4.8102Y-2.7898
X4.8102Y-2.8898
X4.8102Y-2.9898
X4.8102Y-3.0898
X4.8102Y-3.1898
X4.8102Y-3.2898
X4.8102Y-3.3898
X4.8102Y-3.4898
X4.8102Y-3.5898
X4.8102Y-3.6898
X4.8102Y-3.7898
X4.8102Y-3.8898
X4.8102Y-3.9898
X4.8102Y-4.0898
X4.8102Y-4.1898
X4.8102Y-4.2898
X4.8102Y-4.3898
X4.8102Y-4.4898
X4.8102Y-4.5898
X4.8102Y-4.6898
X4.8102Y-4.7898
X4.8102Y-4.8898
X4.8102Y-4.9898
X4.8102Y-5.0898
X5.11Y-5.33
X5.11Y-5.63
X5.41Y-5.33
X5.41Y-5.63
X5.66Y-5.4408
X5.66Y-5.5392
X5.7102Y-1.9898
X5.7102Y-2.0898
X5.7102Y-2.1898
X5.7102Y-2.2898
X5.7102Y-2.3898
X5.7102Y-2.4898
X5.7102Y-2.5898
X5.7102Y-2.6898
X5.7102Y-2.7898
X5.7102Y-2.8898
X5.7102Y-2.9898
X5.7102Y-3.0898
X5.7102Y-3.1898
X5.7102Y-3.2898
X5.7102Y-3.3898
X5.7102Y-3.4898
X5.7102Y-3.5898
X5.7102Y-3.6898
X5.7102Y-3.7898
X5.7102Y-3.8898
X5.7102Y-3.9898
X5.7102Y-4.0898
X5.7102Y-4.1898
X5.7102Y-4.2898
X5.7102Y-4.3898
X5.7102Y-4.4898
X5.7102Y-4.5898
X5.7102Y-4.6898
X5.7102Y-4.7898
X5.7102Y-4.8898
X5.7102Y-4.9898
X5.7102Y-5.0898
X5.91Y-3.1608
X5.91Y-3.2592
X6.41Y-2.01
X6.41Y-2.31
X6.41Y-2.475
X6.41Y-2.775
X6.41Y-2.94
X6.41Y-3.24
X6.678Y-2.2024
X6.678Y-2.3024
X6.678Y-2.4024
X6.678Y-2.5024
X6.678Y-2.6024
X6.678Y-2.7024
X6.678Y-2.8024
X6.678Y-2.9024
X6.68Y-3.34
X6.68Y-3.44
X6.68Y-3.54
X6.68Y-3.64
X6.68Y-3.74
X6.68Y-3.84
X6.68Y-3.94
X6.68Y-4.04
X6.68Y-4.14
X6.68Y-4.24
X6.68Y-4.67
X6.68Y-4.77
X6.68Y-4.87
X6.68Y-4.97
X6.68Y-5.07
X6.68Y-5.17
X6.68Y-5.27
X6.68Y-5.37
X6.68Y-5.47
X6.68Y-5.57
X6.7783Y-2.0201
X6.7796Y-3.1598
X6.7804Y-4.49
X6.8768Y-2.0201
X6.878Y-3.1598
X6.8788Y-4.49
X6.978Y-2.2024
X6.978Y-2.3024
X6.978Y-2.4024
X6.978Y-2.5024
X6.978Y-2.6024
X6.978Y-2.7024
X6.978Y-2.8024
X6.978Y-2.9024
X6.98Y-3.34
X6.98Y-3.44
X6.98Y-3.54
X6.98Y-3.64
X6.98Y-3.74
X6.98Y-3.84
X6.98Y-3.94
X6.98Y-4.04
X6.98Y-4.14
X6.98Y-4.24
X6.98Y-4.67
X6.98Y-4.77
X6.98Y-4.87
X6.98Y-4.97
X6.98Y-5.07
X6.98Y-5.17
X6.98Y-5.27
X6.98Y-5.37
X6.98Y-5.47
X6.98Y-5.57
X7.28Y-2.17
X7.28Y-2.47
X7.28Y-2.64
X7.28Y-2.94
T3
X3.9614Y-2.2502
X3.9614Y-2.3502
X3.9614Y-2.4502
X3.9614Y-2.5502
X3.9614Y-2.6502
X3.9614Y-2.7502
X3.9614Y-2.8502
X3.9614Y-2.9502
X3.9614Y-3.0502
X3.9614Y-3.1502
X3.9614Y-3.2502
X3.9614Y-3.3502
X3.9614Y-3.4502
X3.9614Y-3.5502
X3.9614Y-3.6502
X3.9614Y-3.7502
X3.9614Y-3.8502
X3.9614Y-3.9502
X3.9614Y-4.0502
X3.9614Y-4.1502
X3.9614Y-4.2502
X3.9614Y-4.3502
X3.9614Y-4.4502
X3.9614Y-4.5502
X3.9614Y-4.6502
X3.9614Y-4.7502
X3.9614Y-4.8502
X3.9614Y-4.9502
X3.9614Y-5.0502
X3.9614Y-5.1502
X3.9614Y-5.2502
X3.9614Y-5.3502
X4.0614Y-2.2502
X4.0614Y-2.3502
X4.0614Y-2.4502
X4.0614Y-2.5502
X4.0614Y-2.6502
X4.0614Y-2.7502
X4.0614Y-2.8502
X4.0614Y-2.9502
X4.0614Y-3.0502
X4.0614Y-3.1502
X4.0614Y-3.2502
X4.0614Y-3.3502
X4.0614Y-3.4502
X4.0614Y-3.5502
X4.0614Y-3.6502
X4.0614Y-3.7502
X4.0614Y-3.8502
X4.0614Y-3.9502
X4.0614Y-4.0502
X4.0614Y-4.1502
X4.0614Y-4.2502
X4.0614Y-4.3502
X4.0614Y-4.4502
X4.0614Y-4.5502
X4.0614Y-4.6502
X4.0614Y-4.7502
X4.0614Y-4.8502
X4.0614Y-4.9502
X4.0614Y-5.0502
X4.0614Y-5.1502
X4.0614Y-5.2502
X4.0614Y-5.3502
X7.32Y-4.42
X7.32Y-4.52
X7.32Y-4.62
X7.32Y-4.72
X7.32Y-4.82
X7.32Y-4.92
X7.32Y-5.02
X7.32Y-5.12
X7.32Y-5.22
T0
M30
