G04 #@! TF.GenerationSoftware,KiCad,Pcbnew,(6.0.2)*
G04 #@! TF.CreationDate,2022-10-15T15:39:51-07:00*
G04 #@! TF.ProjectId,CPU Board,43505520-426f-4617-9264-2e6b69636164,1.0*
G04 #@! TF.SameCoordinates,Original*
G04 #@! TF.FileFunction,Copper,L1,Top*
G04 #@! TF.FilePolarity,Positive*
%FSLAX46Y46*%
G04 Gerber Fmt 4.6, Leading zero omitted, Abs format (unit mm)*
G04 Created by KiCad (PCBNEW (6.0.2)) date 2022-10-15 15:39:51*
%MOMM*%
%LPD*%
G01*
G04 APERTURE LIST*
G04 #@! TA.AperFunction,ComponentPad*
%ADD10C,1.600000*%
G04 #@! TD*
G04 #@! TA.AperFunction,ComponentPad*
%ADD11R,1.700000X1.700000*%
G04 #@! TD*
G04 #@! TA.AperFunction,ComponentPad*
%ADD12O,1.700000X1.700000*%
G04 #@! TD*
G04 #@! TA.AperFunction,ComponentPad*
%ADD13R,2.400000X1.600000*%
G04 #@! TD*
G04 #@! TA.AperFunction,ComponentPad*
%ADD14O,2.400000X1.600000*%
G04 #@! TD*
G04 #@! TA.AperFunction,ComponentPad*
%ADD15O,1.600000X1.600000*%
G04 #@! TD*
G04 #@! TA.AperFunction,ComponentPad*
%ADD16R,1.600000X1.600000*%
G04 #@! TD*
G04 #@! TA.AperFunction,ViaPad*
%ADD17C,0.800000*%
G04 #@! TD*
G04 #@! TA.AperFunction,Conductor*
%ADD18C,0.254000*%
G04 #@! TD*
G04 APERTURE END LIST*
D10*
X158120000Y-89140000D03*
X158120000Y-91640000D03*
D11*
X103160000Y-135895000D03*
D12*
X100620000Y-135895000D03*
X103160000Y-133355000D03*
X100620000Y-133355000D03*
X103160000Y-130815000D03*
X100620000Y-130815000D03*
X103160000Y-128275000D03*
X100620000Y-128275000D03*
X103160000Y-125735000D03*
X100620000Y-125735000D03*
X103160000Y-123195000D03*
X100620000Y-123195000D03*
X103160000Y-120655000D03*
X100620000Y-120655000D03*
X103160000Y-118115000D03*
X100620000Y-118115000D03*
X103160000Y-115575000D03*
X100620000Y-115575000D03*
X103160000Y-113035000D03*
X100620000Y-113035000D03*
X103160000Y-110495000D03*
X100620000Y-110495000D03*
X103160000Y-107955000D03*
X100620000Y-107955000D03*
X103160000Y-105415000D03*
X100620000Y-105415000D03*
X103160000Y-102875000D03*
X100620000Y-102875000D03*
X103160000Y-100335000D03*
X100620000Y-100335000D03*
X103160000Y-97795000D03*
X100620000Y-97795000D03*
X103160000Y-95255000D03*
X100620000Y-95255000D03*
X103160000Y-92715000D03*
X100620000Y-92715000D03*
X103160000Y-90175000D03*
X100620000Y-90175000D03*
X103160000Y-87635000D03*
X100620000Y-87635000D03*
X103160000Y-85095000D03*
X100620000Y-85095000D03*
X103160000Y-82555000D03*
X100620000Y-82555000D03*
X103160000Y-80015000D03*
X100620000Y-80015000D03*
X103160000Y-77475000D03*
X100620000Y-77475000D03*
X103160000Y-74935000D03*
X100620000Y-74935000D03*
X103160000Y-72395000D03*
X100620000Y-72395000D03*
X103160000Y-69855000D03*
X100620000Y-69855000D03*
X103160000Y-67315000D03*
X100620000Y-67315000D03*
X103160000Y-64775000D03*
X100620000Y-64775000D03*
X103160000Y-62235000D03*
X100620000Y-62235000D03*
X103160000Y-59695000D03*
X100620000Y-59695000D03*
X103160000Y-57155000D03*
X100620000Y-57155000D03*
D13*
X127930000Y-57290000D03*
D14*
X127930000Y-59830000D03*
X127930000Y-62370000D03*
X127930000Y-64910000D03*
X127930000Y-67450000D03*
X127930000Y-69990000D03*
X127930000Y-72530000D03*
X127930000Y-75070000D03*
X127930000Y-77610000D03*
X127930000Y-80150000D03*
X127930000Y-82690000D03*
X127930000Y-85230000D03*
X127930000Y-87770000D03*
X127930000Y-90310000D03*
X127930000Y-92850000D03*
X127930000Y-95390000D03*
X127930000Y-97930000D03*
X127930000Y-100470000D03*
X127930000Y-103010000D03*
X127930000Y-105550000D03*
X127930000Y-108090000D03*
X127930000Y-110630000D03*
X127930000Y-113170000D03*
X127930000Y-115710000D03*
X127930000Y-118250000D03*
X127930000Y-120790000D03*
X127930000Y-123330000D03*
X127930000Y-125870000D03*
X127930000Y-128410000D03*
X127930000Y-130950000D03*
X127930000Y-133490000D03*
X127930000Y-136030000D03*
X153330000Y-136030000D03*
X153330000Y-133490000D03*
X153330000Y-130950000D03*
X153330000Y-128410000D03*
X153330000Y-125870000D03*
X153330000Y-123330000D03*
X153330000Y-120790000D03*
X153330000Y-118250000D03*
X153330000Y-115710000D03*
X153330000Y-113170000D03*
X153330000Y-110630000D03*
X153330000Y-108090000D03*
X153330000Y-105550000D03*
X153330000Y-103010000D03*
X153330000Y-100470000D03*
X153330000Y-97930000D03*
X153330000Y-95390000D03*
X153330000Y-92850000D03*
X153330000Y-90310000D03*
X153330000Y-87770000D03*
X153330000Y-85230000D03*
X153330000Y-82690000D03*
X153330000Y-80150000D03*
X153330000Y-77610000D03*
X153330000Y-75070000D03*
X153330000Y-72530000D03*
X153330000Y-69990000D03*
X153330000Y-67450000D03*
X153330000Y-64910000D03*
X153330000Y-62370000D03*
X153330000Y-59830000D03*
X153330000Y-57290000D03*
D13*
X169620000Y-55940000D03*
D14*
X169620000Y-58480000D03*
X169620000Y-61020000D03*
X169620000Y-63560000D03*
X169620000Y-66100000D03*
X169620000Y-68640000D03*
X169620000Y-71180000D03*
X169620000Y-73720000D03*
X177240000Y-73720000D03*
X177240000Y-71180000D03*
X177240000Y-68640000D03*
X177240000Y-66100000D03*
X177240000Y-63560000D03*
X177240000Y-61020000D03*
X177240000Y-58480000D03*
X177240000Y-55940000D03*
D10*
X116440000Y-87920000D03*
D15*
X124060000Y-87920000D03*
D16*
X114280000Y-137040000D03*
D10*
X121900000Y-137040000D03*
X121900000Y-129420000D03*
X114280000Y-129420000D03*
X116130000Y-98030000D03*
D15*
X123750000Y-98030000D03*
D13*
X169590000Y-84785000D03*
D14*
X169590000Y-87325000D03*
X169590000Y-89865000D03*
X169590000Y-92405000D03*
X169590000Y-94945000D03*
X169590000Y-97485000D03*
X169590000Y-100025000D03*
X169590000Y-102565000D03*
X169590000Y-105105000D03*
X169590000Y-107645000D03*
X169590000Y-110185000D03*
X169590000Y-112725000D03*
X177210000Y-112725000D03*
X177210000Y-110185000D03*
X177210000Y-107645000D03*
X177210000Y-105105000D03*
X177210000Y-102565000D03*
X177210000Y-100025000D03*
X177210000Y-97485000D03*
X177210000Y-94945000D03*
X177210000Y-92405000D03*
X177210000Y-89865000D03*
X177210000Y-87325000D03*
X177210000Y-84785000D03*
D10*
X172140000Y-79935000D03*
X174640000Y-79935000D03*
X188810000Y-66090000D03*
D15*
X181190000Y-66090000D03*
D10*
X174670000Y-51310000D03*
X172170000Y-51310000D03*
X158170000Y-58490000D03*
D15*
X165790000Y-58490000D03*
D10*
X158170000Y-54970000D03*
D15*
X165790000Y-54970000D03*
D10*
X115900000Y-110630000D03*
D15*
X123520000Y-110630000D03*
D10*
X116570000Y-123360000D03*
X119070000Y-123360000D03*
X115960000Y-106850000D03*
D15*
X123580000Y-106850000D03*
D10*
X123100000Y-77850000D03*
X123100000Y-75350000D03*
X158170000Y-61990000D03*
D15*
X165790000Y-61990000D03*
D10*
X188800000Y-62480000D03*
D15*
X181180000Y-62480000D03*
D17*
X114639100Y-108686900D03*
X115247900Y-103010000D03*
X119206500Y-85230000D03*
X116102700Y-82610900D03*
X111270900Y-79803100D03*
X109396600Y-78727100D03*
X124836000Y-71927500D03*
X108615300Y-87321400D03*
X106350800Y-87547900D03*
X120729000Y-122697300D03*
X119947700Y-125284600D03*
X122133100Y-133699500D03*
D18*
X169620000Y-61020000D02*
X168038700Y-61020000D01*
X167068700Y-61990000D02*
X165790000Y-61990000D01*
X168038700Y-61020000D02*
X167068700Y-61990000D01*
X165790000Y-61990000D02*
X164608700Y-61990000D01*
X100620000Y-100335000D02*
X100620000Y-99103700D01*
X100109800Y-99103700D02*
X100620000Y-99103700D01*
X98841700Y-97835600D02*
X100109800Y-99103700D01*
X98841700Y-56434900D02*
X98841700Y-97835600D01*
X99919400Y-55357200D02*
X98841700Y-56434900D01*
X155420200Y-55357200D02*
X99919400Y-55357200D01*
X157174300Y-57111300D02*
X155420200Y-55357200D01*
X159730000Y-57111300D02*
X157174300Y-57111300D01*
X164608700Y-61990000D02*
X159730000Y-57111300D01*
X177240000Y-66100000D02*
X178821300Y-66100000D01*
X100620000Y-102875000D02*
X100620000Y-101643700D01*
X181190000Y-66090000D02*
X178831300Y-66090000D01*
X178831300Y-66090000D02*
X178821300Y-66100000D01*
X100109800Y-101643700D02*
X100620000Y-101643700D01*
X98319200Y-99853100D02*
X100109800Y-101643700D01*
X98319200Y-56238600D02*
X98319200Y-99853100D01*
X100801100Y-53756700D02*
X98319200Y-56238600D01*
X177140800Y-53756700D02*
X100801100Y-53756700D01*
X178831300Y-55447200D02*
X177140800Y-53756700D01*
X178831300Y-66090000D02*
X178831300Y-55447200D01*
X167068700Y-54970000D02*
X168038700Y-55940000D01*
X165790000Y-54970000D02*
X167068700Y-54970000D01*
X169620000Y-55940000D02*
X168038700Y-55940000D01*
X159740000Y-63560000D02*
X169620000Y-63560000D01*
X158170000Y-61990000D02*
X159740000Y-63560000D01*
X153330000Y-95390000D02*
X154911300Y-95390000D01*
X186260000Y-68640000D02*
X177240000Y-68640000D01*
X188810000Y-66090000D02*
X186260000Y-68640000D01*
X171201300Y-64182600D02*
X171201300Y-63560000D01*
X175658700Y-68640000D02*
X171201300Y-64182600D01*
X177240000Y-68640000D02*
X175658700Y-68640000D01*
X169620000Y-63560000D02*
X171074200Y-63560000D01*
X171074200Y-63560000D02*
X171201300Y-63560000D01*
X171201300Y-60397400D02*
X175658700Y-55940000D01*
X171201300Y-63560000D02*
X171201300Y-60397400D01*
X177240000Y-55940000D02*
X175658700Y-55940000D01*
X188810000Y-62490000D02*
X188810000Y-66090000D01*
X188800000Y-62480000D02*
X188810000Y-62490000D01*
X118830000Y-90310000D02*
X116440000Y-87920000D01*
X127930000Y-90310000D02*
X118830000Y-90310000D01*
X127930000Y-90310000D02*
X129511300Y-90310000D01*
X130719800Y-89101500D02*
X129511300Y-90310000D01*
X154258600Y-89101500D02*
X130719800Y-89101500D01*
X157458600Y-92301400D02*
X154258600Y-89101500D01*
X154911300Y-94848700D02*
X157458600Y-92301400D01*
X154911300Y-95390000D02*
X154911300Y-94848700D01*
X175628700Y-83423700D02*
X175628700Y-84785000D01*
X172140000Y-79935000D02*
X175628700Y-83423700D01*
X177210000Y-84785000D02*
X175628700Y-84785000D01*
X157458600Y-92301400D02*
X158120000Y-91640000D01*
X169825000Y-79935000D02*
X172140000Y-79935000D01*
X158120000Y-91640000D02*
X169825000Y-79935000D01*
X127930000Y-108090000D02*
X126348700Y-108090000D01*
X125108700Y-106850000D02*
X123580000Y-106850000D01*
X126348700Y-108090000D02*
X125108700Y-106850000D01*
X120561800Y-108686900D02*
X114639100Y-108686900D01*
X122398700Y-106850000D02*
X120561800Y-108686900D01*
X123580000Y-106850000D02*
X122398700Y-106850000D01*
X127930000Y-103010000D02*
X115247900Y-103010000D01*
X126198700Y-87920000D02*
X126348700Y-87770000D01*
X124060000Y-87920000D02*
X126198700Y-87920000D01*
X127930000Y-87770000D02*
X126348700Y-87770000D01*
X127930000Y-85230000D02*
X119206500Y-85230000D01*
X127930000Y-82690000D02*
X126348700Y-82690000D01*
X126269600Y-82610900D02*
X116102700Y-82610900D01*
X126348700Y-82690000D02*
X126269600Y-82610900D01*
X100620000Y-107955000D02*
X101851300Y-107955000D01*
X127930000Y-120790000D02*
X126348700Y-120790000D01*
X101851300Y-108465200D02*
X101851300Y-107955000D01*
X102611100Y-109225000D02*
X101851300Y-108465200D01*
X104145400Y-109225000D02*
X102611100Y-109225000D01*
X114364100Y-119443700D02*
X104145400Y-109225000D01*
X125002400Y-119443700D02*
X114364100Y-119443700D01*
X126348700Y-120790000D02*
X125002400Y-119443700D01*
X130846200Y-119455100D02*
X129511300Y-120790000D01*
X154209000Y-119455100D02*
X130846200Y-119455100D01*
X168008700Y-105655400D02*
X154209000Y-119455100D01*
X168008700Y-100025000D02*
X168008700Y-105655400D01*
X169590000Y-100025000D02*
X168008700Y-100025000D01*
X127930000Y-120790000D02*
X129511300Y-120790000D01*
X100620000Y-110495000D02*
X101851300Y-110495000D01*
X127630400Y-123330000D02*
X126348700Y-123330000D01*
X127630400Y-123330000D02*
X127930000Y-123330000D01*
X127930000Y-123330000D02*
X129511300Y-123330000D01*
X169590000Y-97485000D02*
X171171300Y-97485000D01*
X171171300Y-105630700D02*
X171171300Y-97485000D01*
X170427000Y-106375000D02*
X171171300Y-105630700D01*
X168746600Y-106375000D02*
X170427000Y-106375000D01*
X167920600Y-107201000D02*
X168746600Y-106375000D01*
X167920600Y-108319700D02*
X167920600Y-107201000D01*
X154180300Y-122060000D02*
X167920600Y-108319700D01*
X131500000Y-122060000D02*
X154180300Y-122060000D01*
X130230000Y-123330000D02*
X131500000Y-122060000D01*
X129511300Y-123330000D02*
X130230000Y-123330000D01*
X101851300Y-111005200D02*
X101851300Y-110495000D01*
X102611100Y-111765000D02*
X101851300Y-111005200D01*
X104752000Y-111765000D02*
X102611100Y-111765000D01*
X114360600Y-121373600D02*
X104752000Y-111765000D01*
X120520400Y-121373600D02*
X114360600Y-121373600D01*
X122476800Y-123330000D02*
X120520400Y-121373600D01*
X126348700Y-123330000D02*
X122476800Y-123330000D01*
X127930000Y-125870000D02*
X126348700Y-125870000D01*
X100620000Y-113035000D02*
X100620000Y-114266300D01*
X101130200Y-114266300D02*
X100620000Y-114266300D01*
X101890000Y-115026100D02*
X101130200Y-114266300D01*
X101890000Y-121151600D02*
X101890000Y-115026100D01*
X102624800Y-121886400D02*
X101890000Y-121151600D01*
X104502600Y-121886400D02*
X102624800Y-121886400D01*
X108714500Y-126098300D02*
X104502600Y-121886400D01*
X126120400Y-126098300D02*
X108714500Y-126098300D01*
X126348700Y-125870000D02*
X126120400Y-126098300D01*
X127930000Y-97930000D02*
X126348700Y-97930000D01*
X126248700Y-98030000D02*
X123750000Y-98030000D01*
X126348700Y-97930000D02*
X126248700Y-98030000D01*
X127930000Y-100470000D02*
X126348700Y-100470000D01*
X100620000Y-92715000D02*
X101851300Y-92715000D01*
X114694400Y-100470000D02*
X126348700Y-100470000D01*
X105669400Y-91445000D02*
X114694400Y-100470000D01*
X102611100Y-91445000D02*
X105669400Y-91445000D01*
X101851300Y-92204800D02*
X102611100Y-91445000D01*
X101851300Y-92715000D02*
X101851300Y-92204800D01*
X127930000Y-75070000D02*
X126348700Y-75070000D01*
X114474000Y-76600000D02*
X111270900Y-79803100D01*
X124818700Y-76600000D02*
X114474000Y-76600000D01*
X126348700Y-75070000D02*
X124818700Y-76600000D01*
X127930000Y-72530000D02*
X126348700Y-72530000D01*
X115414900Y-72708800D02*
X109396600Y-78727100D01*
X126169900Y-72708800D02*
X115414900Y-72708800D01*
X126348700Y-72530000D02*
X126169900Y-72708800D01*
X101851300Y-87124800D02*
X101851300Y-87635000D01*
X102611100Y-86365000D02*
X101851300Y-87124800D01*
X115555100Y-86365000D02*
X102611100Y-86365000D01*
X118025100Y-83895000D02*
X115555100Y-86365000D01*
X148003700Y-83895000D02*
X118025100Y-83895000D01*
X151748700Y-80150000D02*
X148003700Y-83895000D01*
X153330000Y-80150000D02*
X151748700Y-80150000D01*
X100620000Y-87635000D02*
X101851300Y-87635000D01*
X101851300Y-84584800D02*
X101851300Y-85095000D01*
X102611100Y-83825000D02*
X101851300Y-84584800D01*
X113207300Y-83825000D02*
X102611100Y-83825000D01*
X115612300Y-81420000D02*
X113207300Y-83825000D01*
X147938700Y-81420000D02*
X115612300Y-81420000D01*
X151748700Y-77610000D02*
X147938700Y-81420000D01*
X153330000Y-77610000D02*
X151748700Y-77610000D01*
X100620000Y-85095000D02*
X101851300Y-85095000D01*
X101851300Y-82044800D02*
X101851300Y-82555000D01*
X102611100Y-81285000D02*
X101851300Y-82044800D01*
X111955500Y-81285000D02*
X102611100Y-81285000D01*
X112367000Y-80873500D02*
X111955500Y-81285000D01*
X124355100Y-80873500D02*
X112367000Y-80873500D01*
X126348600Y-78880000D02*
X124355100Y-80873500D01*
X147938700Y-78880000D02*
X126348600Y-78880000D01*
X151748700Y-75070000D02*
X147938700Y-78880000D01*
X153330000Y-75070000D02*
X151748700Y-75070000D01*
X100620000Y-82555000D02*
X101851300Y-82555000D01*
X100620000Y-80015000D02*
X101851300Y-80015000D01*
X153330000Y-72530000D02*
X151748700Y-72530000D01*
X101851300Y-79553200D02*
X101851300Y-80015000D01*
X102620800Y-78783700D02*
X101851300Y-79553200D01*
X107829800Y-78783700D02*
X102620800Y-78783700D01*
X108554600Y-79508500D02*
X107829800Y-78783700D01*
X110444200Y-79508500D02*
X108554600Y-79508500D01*
X116191200Y-73761500D02*
X110444200Y-79508500D01*
X150517200Y-73761500D02*
X116191200Y-73761500D01*
X151748700Y-72530000D02*
X150517200Y-73761500D01*
X153330000Y-69990000D02*
X151748700Y-69990000D01*
X100620000Y-77475000D02*
X101851300Y-77475000D01*
X150551500Y-71187200D02*
X151748700Y-69990000D01*
X125220100Y-71187200D02*
X150551500Y-71187200D01*
X125169800Y-71136900D02*
X125220100Y-71187200D01*
X111201000Y-71136900D02*
X125169800Y-71136900D01*
X106132900Y-76205000D02*
X111201000Y-71136900D01*
X102611100Y-76205000D02*
X106132900Y-76205000D01*
X101851300Y-76964800D02*
X102611100Y-76205000D01*
X101851300Y-77475000D02*
X101851300Y-76964800D01*
X101851300Y-74424800D02*
X101851300Y-74935000D01*
X102611100Y-73665000D02*
X101851300Y-74424800D01*
X106047000Y-73665000D02*
X102611100Y-73665000D01*
X110992000Y-68720000D02*
X106047000Y-73665000D01*
X150478700Y-68720000D02*
X110992000Y-68720000D01*
X151748700Y-67450000D02*
X150478700Y-68720000D01*
X153330000Y-67450000D02*
X151748700Y-67450000D01*
X100620000Y-74935000D02*
X101851300Y-74935000D01*
X101851300Y-69344800D02*
X101851300Y-69855000D01*
X102611100Y-68585000D02*
X101851300Y-69344800D01*
X107274000Y-68585000D02*
X102611100Y-68585000D01*
X109679000Y-66180000D02*
X107274000Y-68585000D01*
X147938700Y-66180000D02*
X109679000Y-66180000D01*
X151748700Y-62370000D02*
X147938700Y-66180000D01*
X153330000Y-62370000D02*
X151748700Y-62370000D01*
X100620000Y-69855000D02*
X101851300Y-69855000D01*
X153330000Y-59830000D02*
X151748700Y-59830000D01*
X100620000Y-67315000D02*
X101851300Y-67315000D01*
X101851300Y-66804800D02*
X101851300Y-67315000D01*
X102611100Y-66045000D02*
X101851300Y-66804800D01*
X106079100Y-66045000D02*
X102611100Y-66045000D01*
X108545600Y-63578500D02*
X106079100Y-66045000D01*
X148000200Y-63578500D02*
X108545600Y-63578500D01*
X151748700Y-59830000D02*
X148000200Y-63578500D01*
X153330000Y-57290000D02*
X151748700Y-57290000D01*
X100620000Y-64775000D02*
X101851300Y-64775000D01*
X101851300Y-64264800D02*
X101851300Y-64775000D01*
X102611100Y-63505000D02*
X101851300Y-64264800D01*
X107482300Y-63505000D02*
X102611100Y-63505000D01*
X109952200Y-61035100D02*
X107482300Y-63505000D01*
X148003600Y-61035100D02*
X109952200Y-61035100D01*
X151748700Y-57290000D02*
X148003600Y-61035100D01*
X100109800Y-61003700D02*
X100620000Y-61003700D01*
X99350000Y-60243900D02*
X100109800Y-61003700D01*
X99350000Y-56645400D02*
X99350000Y-60243900D01*
X100084900Y-55910500D02*
X99350000Y-56645400D01*
X124969200Y-55910500D02*
X100084900Y-55910500D01*
X126348700Y-57290000D02*
X124969200Y-55910500D01*
X127930000Y-57290000D02*
X126348700Y-57290000D01*
X100620000Y-62235000D02*
X100620000Y-61003700D01*
X101851300Y-59184800D02*
X101851300Y-59695000D01*
X102576500Y-58459600D02*
X101851300Y-59184800D01*
X124978300Y-58459600D02*
X102576500Y-58459600D01*
X126348700Y-59830000D02*
X124978300Y-58459600D01*
X127930000Y-59830000D02*
X126348700Y-59830000D01*
X100620000Y-59695000D02*
X101851300Y-59695000D01*
X101851300Y-132844800D02*
X101851300Y-133355000D01*
X102611100Y-132085000D02*
X101851300Y-132844800D01*
X119235000Y-132085000D02*
X102611100Y-132085000D01*
X121900000Y-129420000D02*
X119235000Y-132085000D01*
X100620000Y-133355000D02*
X101851300Y-133355000D01*
X168028700Y-58490000D02*
X168038700Y-58480000D01*
X165790000Y-58490000D02*
X168028700Y-58490000D01*
X169620000Y-58480000D02*
X168038700Y-58480000D01*
X123520000Y-110630000D02*
X127930000Y-110630000D01*
X114275500Y-71927500D02*
X124836000Y-71927500D01*
X108728000Y-77475000D02*
X114275500Y-71927500D01*
X103160000Y-77475000D02*
X108728000Y-77475000D01*
X153330000Y-87770000D02*
X151748700Y-87770000D01*
X103160000Y-80015000D02*
X104391300Y-80015000D01*
X104960800Y-80584500D02*
X104391300Y-80015000D01*
X111937100Y-80584500D02*
X104960800Y-80584500D01*
X112156500Y-80365100D02*
X111937100Y-80584500D01*
X122314000Y-80365100D02*
X112156500Y-80365100D01*
X126427700Y-76251400D02*
X122314000Y-80365100D01*
X149458500Y-76251400D02*
X126427700Y-76251400D01*
X151821500Y-73888400D02*
X149458500Y-76251400D01*
X154246800Y-73888400D02*
X151821500Y-73888400D01*
X154922900Y-74564500D02*
X154246800Y-73888400D01*
X154922900Y-80662100D02*
X154922900Y-74564500D01*
X154165000Y-81420000D02*
X154922900Y-80662100D01*
X152481800Y-81420000D02*
X154165000Y-81420000D01*
X151748700Y-82153100D02*
X152481800Y-81420000D01*
X151748700Y-87770000D02*
X151748700Y-82153100D01*
X112810400Y-91516500D02*
X108615300Y-87321400D01*
X150542200Y-91516500D02*
X112810400Y-91516500D01*
X151748700Y-90310000D02*
X150542200Y-91516500D01*
X153330000Y-90310000D02*
X151748700Y-90310000D01*
X112852300Y-94049400D02*
X106350800Y-87547900D01*
X150549300Y-94049400D02*
X112852300Y-94049400D01*
X151748700Y-92850000D02*
X150549300Y-94049400D01*
X153330000Y-92850000D02*
X151748700Y-92850000D01*
X113416300Y-96660000D02*
X104391300Y-87635000D01*
X150478700Y-96660000D02*
X113416300Y-96660000D01*
X151748700Y-97930000D02*
X150478700Y-96660000D01*
X153330000Y-97930000D02*
X151748700Y-97930000D01*
X103160000Y-87635000D02*
X104391300Y-87635000D01*
X106211500Y-90175000D02*
X103160000Y-90175000D01*
X115319400Y-99282900D02*
X106211500Y-90175000D01*
X150561600Y-99282900D02*
X115319400Y-99282900D01*
X151748700Y-100470000D02*
X150561600Y-99282900D01*
X153330000Y-100470000D02*
X151748700Y-100470000D01*
X113416300Y-101740000D02*
X104391300Y-92715000D01*
X150478700Y-101740000D02*
X113416300Y-101740000D01*
X151748700Y-103010000D02*
X150478700Y-101740000D01*
X153330000Y-103010000D02*
X151748700Y-103010000D01*
X103160000Y-92715000D02*
X104391300Y-92715000D01*
X153330000Y-105550000D02*
X151748700Y-105550000D01*
X103160000Y-95255000D02*
X104391300Y-95255000D01*
X113336200Y-104199900D02*
X104391300Y-95255000D01*
X150398600Y-104199900D02*
X113336200Y-104199900D01*
X151748700Y-105550000D02*
X150398600Y-104199900D01*
X153330000Y-108090000D02*
X151748700Y-108090000D01*
X103160000Y-97795000D02*
X104391300Y-97795000D01*
X150567300Y-106908600D02*
X151748700Y-108090000D01*
X126523500Y-106908600D02*
X150567300Y-106908600D01*
X125233800Y-105618900D02*
X126523500Y-106908600D01*
X112215200Y-105618900D02*
X125233800Y-105618900D01*
X104391300Y-97795000D02*
X112215200Y-105618900D01*
X153330000Y-110630000D02*
X151748700Y-110630000D01*
X103160000Y-100335000D02*
X104391300Y-100335000D01*
X150558500Y-109439800D02*
X151748700Y-110630000D01*
X114991100Y-109439800D02*
X150558500Y-109439800D01*
X114962700Y-109468200D02*
X114991100Y-109439800D01*
X113524500Y-109468200D02*
X114962700Y-109468200D01*
X104391300Y-100335000D02*
X113524500Y-109468200D01*
X113498300Y-111982000D02*
X104391300Y-102875000D01*
X150560700Y-111982000D02*
X113498300Y-111982000D01*
X151748700Y-113170000D02*
X150560700Y-111982000D01*
X153330000Y-113170000D02*
X151748700Y-113170000D01*
X103160000Y-102875000D02*
X104391300Y-102875000D01*
X113416300Y-114440000D02*
X104391300Y-105415000D01*
X150478700Y-114440000D02*
X113416300Y-114440000D01*
X151748700Y-115710000D02*
X150478700Y-114440000D01*
X153330000Y-115710000D02*
X151748700Y-115710000D01*
X103160000Y-105415000D02*
X104391300Y-105415000D01*
X153330000Y-118250000D02*
X151748700Y-118250000D01*
X103160000Y-107955000D02*
X104391300Y-107955000D01*
X113416300Y-116980000D02*
X104391300Y-107955000D01*
X150478700Y-116980000D02*
X113416300Y-116980000D01*
X151748700Y-118250000D02*
X150478700Y-116980000D01*
X103160000Y-110495000D02*
X104391300Y-110495000D01*
X131691900Y-120790000D02*
X153330000Y-120790000D01*
X130496400Y-121985500D02*
X131691900Y-120790000D01*
X122368500Y-121985500D02*
X130496400Y-121985500D01*
X120335000Y-119952000D02*
X122368500Y-121985500D01*
X113848300Y-119952000D02*
X120335000Y-119952000D01*
X104391300Y-110495000D02*
X113848300Y-119952000D01*
X101928700Y-112524800D02*
X101928700Y-113035000D01*
X101168900Y-111765000D02*
X101928700Y-112524800D01*
X100100000Y-111765000D02*
X101168900Y-111765000D01*
X99357200Y-112507800D02*
X100100000Y-111765000D01*
X99357200Y-136420600D02*
X99357200Y-112507800D01*
X101180700Y-138244100D02*
X99357200Y-136420600D01*
X153248900Y-138244100D02*
X101180700Y-138244100D01*
X154911300Y-136581700D02*
X153248900Y-138244100D01*
X154911300Y-123330000D02*
X154911300Y-136581700D01*
X153330000Y-123330000D02*
X154911300Y-123330000D01*
X103160000Y-113035000D02*
X101928700Y-113035000D01*
X103160000Y-115575000D02*
X104391300Y-115575000D01*
X120167700Y-122136000D02*
X120729000Y-122697300D01*
X110952300Y-122136000D02*
X120167700Y-122136000D01*
X104391300Y-115575000D02*
X110952300Y-122136000D01*
X110847800Y-124571500D02*
X104391300Y-118115000D01*
X119556000Y-124571500D02*
X110847800Y-124571500D01*
X119624200Y-124503300D02*
X119556000Y-124571500D01*
X124982000Y-124503300D02*
X119624200Y-124503300D01*
X125078700Y-124600000D02*
X124982000Y-124503300D01*
X147938700Y-124600000D02*
X125078700Y-124600000D01*
X151748700Y-128410000D02*
X147938700Y-124600000D01*
X153330000Y-128410000D02*
X151748700Y-128410000D01*
X103160000Y-118115000D02*
X104391300Y-118115000D01*
X103160000Y-120655000D02*
X104391300Y-120655000D01*
X109020900Y-125284600D02*
X104391300Y-120655000D01*
X119947700Y-125284600D02*
X109020900Y-125284600D01*
X103160000Y-123195000D02*
X104391300Y-123195000D01*
X153330000Y-133490000D02*
X151748700Y-133490000D01*
X107901400Y-126705100D02*
X104391300Y-123195000D01*
X123031100Y-126705100D02*
X107901400Y-126705100D01*
X123466000Y-127140000D02*
X123031100Y-126705100D01*
X145398700Y-127140000D02*
X123466000Y-127140000D01*
X151748700Y-133490000D02*
X145398700Y-127140000D01*
X153330000Y-136030000D02*
X151748700Y-136030000D01*
X103160000Y-125735000D02*
X104391300Y-125735000D01*
X105828900Y-125735000D02*
X104391300Y-125735000D01*
X107307300Y-127213400D02*
X105828900Y-125735000D01*
X122820600Y-127213400D02*
X107307300Y-127213400D01*
X125287200Y-129680000D02*
X122820600Y-127213400D01*
X145398700Y-129680000D02*
X125287200Y-129680000D01*
X151748700Y-136030000D02*
X145398700Y-129680000D01*
X127930000Y-136030000D02*
X126348700Y-136030000D01*
X103160000Y-128275000D02*
X104391300Y-128275000D01*
X126348700Y-132179300D02*
X126348700Y-136030000D01*
X122399500Y-128230100D02*
X126348700Y-132179300D01*
X104436200Y-128230100D02*
X122399500Y-128230100D01*
X104391300Y-128275000D02*
X104436200Y-128230100D01*
X127930000Y-133041600D02*
X127930000Y-133490000D01*
X122610100Y-127721700D02*
X127930000Y-133041600D01*
X106991700Y-127721700D02*
X122610100Y-127721700D01*
X106298100Y-127028100D02*
X106991700Y-127721700D01*
X102661000Y-127028100D02*
X106298100Y-127028100D01*
X101890000Y-127799100D02*
X102661000Y-127028100D01*
X101890000Y-128775400D02*
X101890000Y-127799100D01*
X102698300Y-129583700D02*
X101890000Y-128775400D01*
X103160000Y-129583700D02*
X102698300Y-129583700D01*
X103160000Y-130815000D02*
X103160000Y-129583700D01*
X104843300Y-132903000D02*
X104391300Y-133355000D01*
X122459600Y-132903000D02*
X104843300Y-132903000D01*
X126831900Y-137275300D02*
X122459600Y-132903000D01*
X128797700Y-137275300D02*
X126831900Y-137275300D01*
X129511300Y-136561700D02*
X128797700Y-137275300D01*
X129511300Y-130950000D02*
X129511300Y-136561700D01*
X127930000Y-130950000D02*
X129511300Y-130950000D01*
X103160000Y-133355000D02*
X104391300Y-133355000D01*
X106586800Y-133699500D02*
X104391300Y-135895000D01*
X122133100Y-133699500D02*
X106586800Y-133699500D01*
X103160000Y-135895000D02*
X104391300Y-135895000D01*
X154911300Y-85931300D02*
X158120000Y-89140000D01*
X154911300Y-85230000D02*
X154911300Y-85931300D01*
X153330000Y-85230000D02*
X154911300Y-85230000D01*
X177240000Y-71180000D02*
X175658700Y-71180000D01*
X169620000Y-66100000D02*
X171201300Y-66100000D01*
X171201300Y-76496300D02*
X171201300Y-73720000D01*
X174640000Y-79935000D02*
X171201300Y-76496300D01*
X169620000Y-73720000D02*
X171201300Y-73720000D01*
X173771900Y-71149400D02*
X171201300Y-73720000D01*
X171201300Y-68578800D02*
X173771900Y-71149400D01*
X171201300Y-66100000D02*
X171201300Y-68578800D01*
X173802500Y-71180000D02*
X175658700Y-71180000D01*
X173771900Y-71149400D02*
X173802500Y-71180000D01*
M02*
